<?xml version="1.0" encoding="utf-8"?>
<svg xmlns="http://www.w3.org/2000/svg" xmlns:xlink="http://www.w3.org/1999/xlink" width="317.75" height="209.75" viewBox="0 0 1271 839">
<defs>
  <clipPath id="clip950">
    <rect x="0" y="0" width="1271" height="839"/>
  </clipPath>
</defs>
<path clip-path="url(#clip950)" d="
M0 839 L1271 839 L1271 -1.13687e-13 L0 -1.13687e-13  Z
  " fill="#ffffff" fill-rule="evenodd" fill-opacity="1"/>
<defs>
  <clipPath id="clip951">
    <rect x="254" y="0" width="891" height="839"/>
  </clipPath>
</defs>
<path clip-path="url(#clip950)" d="
M289.6 767.618 L1009.85 767.618 L1009.85 47.2437 L289.6 47.2437  Z
  " fill="#ffffff" fill-rule="evenodd" fill-opacity="1"/>
<defs>
  <clipPath id="clip952">
    <rect x="289" y="47" width="721" height="721"/>
  </clipPath>
</defs>
<polyline clip-path="url(#clip952)" style="stroke:#000000; stroke-width:3.99997; stroke-opacity:1; fill:none" points="
  466.687,282.127 465.185,284.825 463.689,287.523 462.203,290.221 460.733,292.918 459.284,295.615 457.862,298.311 456.47,301.006 455.116,303.7 453.803,306.393 
  452.538,309.085 451.325,311.775 450.17,314.464 449.077,317.151 448.053,319.836 447.103,322.519 446.231,325.2 445.443,327.879 444.744,330.555 444.139,333.229 
  443.635,335.9 443.235,338.568 442.945,341.233 442.771,343.895 442.717,346.554 442.789,349.21 442.987,351.862 443.305,354.51 443.739,357.156 444.283,359.798 
  444.931,362.438 445.68,365.075 446.523,367.71 447.455,370.342 448.471,372.972 449.566,375.599 450.734,378.225 451.97,380.849 453.269,383.471 454.626,386.092 
  456.036,388.711 457.492,391.329 458.991,393.945 460.526,396.561 462.093,399.176 463.686,401.79 465.3,404.404 466.93,407.017 468.57,409.63 470.215,412.242 
  
  "/>
<polyline clip-path="url(#clip952)" style="stroke:#000000; stroke-width:3.99997; stroke-opacity:1; fill:none" points="
  466.687,282.127 469.838,283.332 472.988,284.531 476.137,285.721 479.283,286.894 482.428,288.047 485.569,289.174 488.707,290.269 491.84,291.328 494.968,292.345 
  498.09,293.316 501.207,294.234 504.316,295.095 507.417,295.893 510.511,296.624 513.595,297.282 516.671,297.861 519.736,298.358 522.79,298.765 525.833,299.079 
  528.864,299.294 531.883,299.405 534.888,299.406 537.88,299.292 540.857,299.059 543.818,298.701 546.765,298.218 549.698,297.615 552.616,296.898 555.521,296.071 
  558.414,295.14 561.295,294.11 564.164,292.986 567.022,291.774 569.871,290.478 572.71,289.104 575.54,287.658 578.363,286.143 581.177,284.566 583.985,282.931 
  586.786,281.245 589.582,279.512 592.372,277.736 595.159,275.925 597.941,274.082 600.72,272.213 603.497,270.323 606.272,268.418 609.045,266.502 611.818,264.581 
  
  "/>
<polyline clip-path="url(#clip952)" style="stroke:#000000; stroke-width:3.99997; stroke-opacity:1; fill:none" points="
  466.687,282.127 466.335,284.847 465.98,287.564 465.616,290.274 465.242,292.973 464.851,295.658 464.441,298.325 464.008,300.972 463.548,303.593 463.057,306.186 
  462.531,308.747 461.966,311.273 461.359,313.76 460.705,316.204 460.001,318.602 459.242,320.951 458.426,323.247 457.547,325.486 456.602,327.665 455.588,329.781 
  454.5,331.829 453.334,333.806 452.088,335.709 450.755,337.534 449.334,339.278 447.82,340.937 446.213,342.511 444.517,344.004 442.735,345.419 440.873,346.76 
  438.932,348.03 436.918,349.233 434.835,350.372 432.685,351.451 430.474,352.473 428.204,353.442 425.88,354.362 423.505,355.235 421.085,356.067 418.621,356.859 
  416.119,357.616 413.582,358.341 411.014,359.038 408.418,359.71 405.8,360.36 403.162,360.994 400.508,361.612 397.843,362.221 395.171,362.822 392.494,363.42 
  
  "/>
<polyline clip-path="url(#clip952)" style="stroke:#000000; stroke-width:3.99997; stroke-opacity:1; fill:none" points="
  466.687,282.127 471.425,284.437 476.165,286.741 480.906,289.035 485.65,291.313 490.396,293.571 495.147,295.802 499.902,298.003 504.663,300.167 509.43,302.29 
  514.204,304.366 518.986,306.39 523.776,308.357 528.576,310.262 533.386,312.099 538.208,313.863 543.041,315.55 547.886,317.154 552.745,318.669 557.618,320.092 
  562.506,321.415 567.409,322.635 572.33,323.746 577.267,324.742 582.222,325.619 587.197,326.372 592.19,327.001 597.201,327.51 602.229,327.905 607.274,328.191 
  612.335,328.374 617.41,328.457 622.5,328.448 627.603,328.35 632.719,328.169 637.846,327.91 642.984,327.579 648.133,327.18 653.291,326.719 658.457,326.201 
  663.632,325.63 668.813,325.014 674.001,324.355 679.195,323.661 684.393,322.935 689.595,322.183 694.8,321.411 700.007,320.622 705.216,319.824 710.426,319.02 
  
  "/>
<polyline clip-path="url(#clip952)" style="stroke:#000000; stroke-width:3.99997; stroke-opacity:1; fill:none" points="
  542.386,664.708 545.236,662.717 548.08,660.724 550.916,658.727 553.737,656.721 556.54,654.706 559.32,652.679 562.072,650.636 564.792,648.577 567.475,646.497 
  570.116,644.395 572.71,642.269 575.254,640.115 577.743,637.932 580.171,635.716 582.534,633.466 584.828,631.178 587.048,628.851 589.19,626.482 591.248,624.068 
  593.218,621.608 595.095,619.098 596.876,616.535 598.554,613.919 600.127,611.245 601.588,608.512 602.938,605.72 604.182,602.871 605.324,599.968 606.37,597.012 
  607.322,594.007 608.187,590.955 608.968,587.859 609.67,584.72 610.299,581.542 610.858,578.326 611.353,575.076 611.787,571.794 612.166,568.482 612.493,565.143 
  612.775,561.779 613.015,558.393 613.218,554.987 613.388,551.564 613.531,548.126 613.65,544.675 613.751,541.215 613.839,537.747 613.917,534.274 613.99,530.799 
  
  "/>
<polyline clip-path="url(#clip952)" style="stroke:#000000; stroke-width:3.99997; stroke-opacity:1; fill:none" points="
  690.073,596.222 687.145,594.178 684.221,592.132 681.307,590.081 678.407,588.022 675.525,585.953 672.666,583.872 669.834,581.775 667.035,579.66 664.272,577.525 
  661.551,575.368 658.875,573.184 656.25,570.973 653.68,568.732 651.17,566.457 648.725,564.147 646.348,561.799 644.044,559.41 641.819,556.978 639.676,554.5 
  637.621,551.974 635.657,549.397 633.79,546.767 632.024,544.081 630.363,541.337 628.813,538.532 627.373,535.666 626.038,532.741 624.804,529.761 623.667,526.727 
  622.621,523.643 621.663,520.51 620.787,517.332 619.99,514.111 619.266,510.848 618.611,507.548 618.02,504.212 617.489,500.844 617.013,497.444 616.587,494.017 
  616.208,490.565 615.87,487.089 615.568,483.594 615.299,480.08 615.057,476.551 614.838,473.01 614.638,469.458 614.451,465.899 614.274,462.335 614.101,458.768 
  
  "/>
<polyline clip-path="url(#clip952)" style="stroke:#000000; stroke-width:3.99997; stroke-opacity:1; fill:none" points="
  690.073,596.222 693.711,596.083 697.348,595.939 700.979,595.786 704.603,595.619 708.217,595.434 711.819,595.225 715.406,594.989 718.976,594.72 722.527,594.414 
  726.055,594.066 729.559,593.671 733.036,593.226 736.484,592.725 739.9,592.163 743.282,591.537 746.627,590.841 749.932,590.07 753.197,589.221 756.417,588.288 
  759.59,587.267 762.715,586.153 765.788,584.942 768.808,583.628 771.771,582.208 774.676,580.676 777.521,579.033 780.311,577.284 783.047,575.432 785.731,573.483 
  788.367,571.441 790.956,569.31 793.5,567.097 796.004,564.804 798.468,562.437 800.895,560 803.288,557.498 805.65,554.936 807.982,552.318 810.287,549.65 
  812.567,546.934 814.826,544.177 817.065,541.383 819.287,538.556 821.494,535.702 823.689,532.824 825.874,529.928 828.052,527.017 830.225,524.098 832.395,521.174 
  
  "/>
<polyline clip-path="url(#clip952)" style="stroke:#000000; stroke-width:3.99997; stroke-opacity:1; fill:none" points="
  690.073,596.222 687.494,596.08 684.919,595.935 682.35,595.782 679.792,595.616 677.247,595.435 674.719,595.234 672.212,595.009 669.729,594.756 667.274,594.472 
  664.849,594.151 662.458,593.791 660.105,593.387 657.793,592.935 655.525,592.431 653.306,591.872 651.137,591.253 649.024,590.57 646.968,589.82 644.974,588.998 
  643.045,588.101 641.185,587.123 639.396,586.063 637.683,584.914 636.048,583.675 634.496,582.339 633.025,580.909 631.633,579.387 630.316,577.777 629.071,576.084 
  627.894,574.311 626.783,572.463 625.733,570.543 624.741,568.555 623.804,566.504 622.918,564.393 622.08,562.226 621.287,560.008 620.535,557.741 619.82,555.431 
  619.139,553.081 618.49,550.696 617.867,548.278 617.269,545.833 616.691,543.364 616.13,540.875 615.583,538.37 615.046,535.853 614.516,533.328 613.99,530.799 
  
  "/>
<polyline clip-path="url(#clip952)" style="stroke:#000000; stroke-width:3.99997; stroke-opacity:1; fill:none" points="
  738.893,589.098 740.181,592.392 741.468,595.668 742.754,598.906 744.04,602.089 745.325,605.197 746.608,608.213 747.889,611.117 749.169,613.891 750.446,616.517 
  751.72,618.975 752.992,621.248 754.26,623.316 755.525,625.163 756.781,626.788 758.022,628.196 759.241,629.394 760.432,630.388 761.588,631.185 762.703,631.79 
  763.77,632.21 764.781,632.452 765.732,632.521 766.615,632.424 767.424,632.167 768.151,631.757 768.79,631.198 769.331,630.492 769.766,629.641 770.086,628.65 
  770.282,627.519 770.346,626.251 770.269,624.849 770.042,623.315 769.657,621.652 769.104,619.862 768.375,617.948 767.461,615.911 766.361,613.758 765.089,611.497 
  763.662,609.138 762.093,606.691 760.4,604.165 758.597,601.571 756.7,598.918 754.725,596.216 752.688,593.474 750.604,590.704 748.489,587.913 746.358,585.113 
  
  "/>
<polyline clip-path="url(#clip952)" style="stroke:#000000; stroke-width:3.99997; stroke-opacity:1; fill:none" points="
  732.206,568.567 727.522,569.819 722.838,571.067 718.155,572.304 713.473,573.525 708.792,574.725 704.113,575.9 699.437,577.042 694.762,578.148 690.091,579.213 
  685.423,580.23 680.759,581.194 676.099,582.102 671.443,582.946 666.792,583.722 662.146,584.425 657.505,585.05 652.871,585.59 648.242,586.042 643.62,586.399 
  639.005,586.657 634.397,586.81 629.797,586.854 625.204,586.782 620.62,586.589 616.045,586.271 611.479,585.828 606.921,585.265 602.371,584.586 597.828,583.797 
  593.293,582.903 588.765,581.91 584.243,580.823 579.727,579.647 575.218,578.387 570.713,577.048 566.214,575.636 561.72,574.157 557.229,572.614 552.743,571.013 
  548.261,569.361 543.782,567.661 539.305,565.919 534.832,564.141 530.36,562.331 525.89,560.495 521.422,558.638 516.955,556.766 512.488,554.883 508.022,552.994 
  
  "/>
<polyline clip-path="url(#clip952)" style="stroke:#000000; stroke-width:3.99997; stroke-opacity:1; fill:none" points="
  732.206,568.567 734.923,569.022 737.639,569.474 740.35,569.915 743.054,570.343 745.749,570.751 748.433,571.136 751.104,571.492 753.759,571.816 756.395,572.101 
  759.012,572.343 761.606,572.538 764.176,572.681 766.719,572.767 769.232,572.791 771.714,572.749 774.163,572.635 776.575,572.446 778.949,572.176 781.283,571.821 
  783.575,571.375 785.821,570.835 788.021,570.195 790.171,569.45 792.269,568.597 794.314,567.63 796.305,566.549 798.244,565.359 800.134,564.064 801.977,562.67 
  803.775,561.182 805.53,559.603 807.245,557.938 808.922,556.193 810.563,554.372 812.17,552.48 813.746,550.521 815.293,548.501 816.813,546.424 818.308,544.294 
  819.78,542.117 821.233,539.898 822.667,537.64 824.086,535.35 825.492,533.031 826.886,530.688 828.271,528.326 829.649,525.95 831.023,523.564 832.395,521.174 
  
  "/>
<polyline clip-path="url(#clip952)" style="stroke:#000000; stroke-width:3.99997; stroke-opacity:1; fill:none" points="
  732.206,568.567 730.514,566.25 728.827,563.934 727.151,561.616 725.49,559.298 723.85,556.979 722.237,554.659 720.655,552.337 719.11,550.014 717.606,547.688 
  716.15,545.36 714.747,543.029 713.4,540.695 712.117,538.358 710.902,536.018 709.76,533.674 708.697,531.326 707.718,528.974 706.828,526.618 706.032,524.256 
  705.336,521.89 704.744,519.518 704.263,517.141 703.897,514.759 703.651,512.37 703.531,509.975 703.537,507.573 703.663,505.166 703.905,502.753 704.256,500.334 
  704.712,497.91 705.268,495.481 705.918,493.047 706.658,490.609 707.481,488.166 708.383,485.72 709.358,483.27 710.401,480.817 711.507,478.36 712.671,475.901 
  713.887,473.439 715.151,470.974 716.456,468.508 717.798,466.039 719.172,463.569 720.571,461.098 721.992,458.626 723.428,456.153 724.875,453.679 726.327,451.205 
  
  "/>
<polyline clip-path="url(#clip952)" style="stroke:#000000; stroke-width:3.99997; stroke-opacity:1; fill:none" points="
  732.206,568.567 729.314,569.295 726.424,570.019 723.538,570.733 720.656,571.432 717.78,572.111 714.913,572.765 712.055,573.389 709.208,573.978 706.374,574.526 
  703.554,575.03 700.75,575.484 697.964,575.883 695.197,576.222 692.451,576.496 689.727,576.7 687.027,576.829 684.353,576.878 681.706,576.842 679.087,576.716 
  676.499,576.495 673.943,576.174 671.42,575.748 668.933,575.212 666.482,574.561 664.069,573.79 661.695,572.899 659.357,571.894 657.055,570.778 654.786,569.558 
  652.549,568.237 650.342,566.822 648.164,565.316 646.014,563.726 643.888,562.055 641.787,560.31 639.708,558.494 637.65,556.614 635.611,554.673 633.59,552.678 
  631.584,550.633 629.593,548.542 627.615,546.412 625.648,544.246 623.69,542.051 621.74,539.83 619.797,537.59 617.859,535.335 615.924,533.069 613.99,530.799 
  
  "/>
<polyline clip-path="url(#clip952)" style="stroke:#000000; stroke-width:3.99997; stroke-opacity:1; fill:none" points="
  470.215,412.242 473.555,412.569 476.893,412.892 480.227,413.204 483.555,413.502 486.875,413.781 490.185,414.035 493.483,414.26 496.767,414.451 500.035,414.604 
  503.285,414.713 506.515,414.773 509.723,414.78 512.908,414.728 516.066,414.614 519.196,414.431 522.296,414.176 525.364,413.843 528.399,413.427 531.397,412.925 
  534.357,412.33 537.278,411.638 540.156,410.844 542.991,409.943 545.779,408.931 548.52,407.802 551.213,406.557 553.86,405.201 556.463,403.737 559.023,402.172 
  561.545,400.51 564.028,398.755 566.475,396.913 568.888,394.989 571.269,392.987 573.62,390.912 575.943,388.77 578.241,386.564 580.514,384.3 582.765,381.982 
  584.996,379.616 587.21,377.207 589.407,374.758 591.59,372.276 593.762,369.764 595.923,367.228 598.077,364.673 600.224,362.103 602.367,359.524 604.509,356.94 
  
  "/>
<polyline clip-path="url(#clip952)" style="stroke:#000000; stroke-width:3.99997; stroke-opacity:1; fill:none" points="
  470.215,412.242 472.148,415.877 474.084,419.507 476.027,423.129 477.98,426.739 479.946,430.332 481.929,433.906 483.932,437.455 485.959,440.976 488.012,444.464 
  490.095,447.916 492.211,451.328 494.365,454.695 496.558,458.013 498.794,461.279 501.078,464.488 503.411,467.636 505.798,470.719 508.242,473.734 510.745,476.676 
  513.313,479.541 515.946,482.324 518.65,485.023 521.428,487.633 524.282,490.149 527.216,492.569 530.23,494.891 533.321,497.121 536.486,499.261 539.72,501.316 
  543.021,503.291 546.386,505.188 549.811,507.012 553.292,508.768 556.827,510.459 560.412,512.089 564.044,513.662 567.719,515.183 571.434,516.655 575.186,518.082 
  578.971,519.469 582.787,520.82 586.629,522.138 590.494,523.428 594.379,524.694 598.281,525.939 602.197,527.168 606.122,528.385 610.054,529.594 613.99,530.799 
  
  "/>
<polyline clip-path="url(#clip952)" style="stroke:#000000; stroke-width:3.99997; stroke-opacity:1; fill:none" points="
  779.611,280.483 775.452,283.006 771.292,285.524 767.13,288.032 762.964,290.524 758.794,292.996 754.619,295.442 750.436,297.857 746.246,300.237 742.047,302.575 
  737.838,304.868 733.617,307.109 729.384,309.293 725.138,311.416 720.877,313.473 716.6,315.458 712.307,317.365 707.995,319.191 703.665,320.93 699.314,322.576 
  694.942,324.125 690.547,325.571 686.129,326.91 681.686,328.136 677.218,329.244 672.722,330.229 668.199,331.092 663.651,331.836 659.078,332.468 654.481,332.992 
  649.862,333.413 645.222,333.738 640.561,333.969 635.881,334.114 631.183,334.177 626.469,334.162 621.738,334.076 616.993,333.923 612.235,333.709 607.464,333.439 
  602.682,333.117 597.89,332.749 593.089,332.34 588.28,331.895 583.465,331.419 578.643,330.918 573.817,330.396 568.988,329.859 564.157,329.311 559.324,328.759 
  
  "/>
<polyline clip-path="url(#clip952)" style="stroke:#000000; stroke-width:3.99997; stroke-opacity:1; fill:none" points="
  779.611,280.483 781.314,283.577 783.02,286.666 784.732,289.746 786.454,292.814 788.187,295.864 789.935,298.892 791.701,301.895 793.488,304.868 795.299,307.806 
  797.136,310.705 799.004,313.561 800.904,316.37 802.84,319.126 804.815,321.827 806.832,324.467 808.894,327.043 811.003,329.549 813.164,331.982 815.377,334.338 
  817.648,336.611 819.978,338.798 822.372,340.894 824.83,342.896 827.358,344.798 829.957,346.597 832.627,348.292 835.367,349.889 838.171,351.39 841.039,352.8 
  843.966,354.125 846.95,355.367 849.988,356.532 853.077,357.623 856.213,358.645 859.394,359.602 862.617,360.499 865.879,361.34 869.177,362.129 872.507,362.871 
  875.868,363.57 879.255,364.229 882.666,364.854 886.098,365.449 889.548,366.018 893.012,366.566 896.489,367.096 899.975,367.613 903.467,368.122 906.961,368.626 
  
  "/>
<polyline clip-path="url(#clip952)" style="stroke:#000000; stroke-width:3.99997; stroke-opacity:1; fill:none" points="
  779.611,280.483 776.667,283.486 773.721,286.485 770.771,289.473 767.815,292.448 764.85,295.403 761.875,298.334 758.887,301.236 755.884,304.104 752.865,306.934 
  749.827,309.721 746.768,312.459 743.685,315.145 740.578,317.773 737.443,320.338 734.279,322.837 731.083,325.262 727.854,327.611 724.589,329.879 721.286,332.059 
  717.944,334.148 714.559,336.141 711.13,338.033 707.655,339.82 704.132,341.495 700.559,343.056 696.935,344.501 693.263,345.835 689.544,347.064 685.782,348.191 
  681.978,349.223 678.133,350.163 674.251,351.016 670.334,351.788 666.382,352.483 662.399,353.105 658.387,353.661 654.348,354.153 650.283,354.588 646.195,354.97 
  642.086,355.304 637.959,355.595 633.814,355.847 629.655,356.066 625.483,356.256 621.301,356.421 617.11,356.568 612.913,356.7 608.712,356.822 604.509,356.94 
  
  "/>
<polyline clip-path="url(#clip952)" style="stroke:#000000; stroke-width:3.99997; stroke-opacity:1; fill:none" points="
  611.818,264.581 611.965,266.888 612.108,269.191 612.243,271.488 612.366,273.774 612.472,276.048 612.558,278.304 612.62,280.541 612.653,282.755 612.654,284.942 
  612.618,287.099 612.542,289.222 612.421,291.31 612.251,293.357 612.028,295.361 611.749,297.319 611.408,299.227 611.003,301.081 610.528,302.879 609.981,304.618 
  609.356,306.293 608.65,307.902 607.859,309.44 606.978,310.906 606.004,312.296 604.933,313.605 603.764,314.835 602.502,315.989 601.151,317.07 599.714,318.081 
  598.196,319.025 596.601,319.906 594.933,320.727 593.196,321.492 591.394,322.204 589.531,322.866 587.611,323.481 585.638,324.053 583.616,324.585 581.55,325.081 
  579.443,325.544 577.3,325.976 575.124,326.382 572.92,326.765 570.691,327.128 568.442,327.474 566.177,327.807 563.899,328.129 561.614,328.446 559.324,328.759 
  
  "/>
<polyline clip-path="url(#clip952)" style="stroke:#000000; stroke-width:3.99997; stroke-opacity:1; fill:none" points="
  611.818,264.581 609.915,262.477 608.016,260.373 606.128,258.266 604.256,256.158 602.404,254.046 600.578,251.93 598.784,249.81 597.025,247.684 595.308,245.553 
  593.638,243.414 592.02,241.268 590.459,239.113 588.96,236.949 587.529,234.774 586.17,232.589 584.889,230.393 583.692,228.184 582.582,225.962 581.566,223.726 
  580.649,221.476 579.835,219.21 579.13,216.928 578.54,214.629 578.069,212.312 577.722,209.977 577.5,207.623 577.397,205.252 577.408,202.863 577.528,200.459 
  577.752,198.039 578.075,195.604 578.491,193.155 578.995,190.694 579.583,188.22 580.248,185.734 580.986,183.238 581.791,180.732 582.659,178.216 583.584,175.692 
  584.56,173.16 585.584,170.621 586.649,168.077 587.75,165.526 588.882,162.971 590.041,160.413 591.22,157.851 592.414,155.287 593.62,152.721 594.83,150.154 
  
  "/>
<polyline clip-path="url(#clip952)" style="stroke:#000000; stroke-width:3.99997; stroke-opacity:1; fill:none" points="
  611.818,264.581 613.238,266.59 614.653,268.599 616.057,270.607 617.446,272.614 618.814,274.618 620.155,276.621 621.465,278.622 622.739,280.619 623.97,282.613 
  625.155,284.604 626.287,286.59 627.362,288.572 628.374,290.549 629.318,292.52 630.188,294.486 630.98,296.445 631.689,298.398 632.308,300.344 632.834,302.282 
  633.26,304.212 633.581,306.134 633.793,308.048 633.889,309.952 633.866,311.847 633.716,313.732 633.442,315.607 633.047,317.472 632.537,319.328 631.917,321.176 
  631.193,323.015 630.369,324.847 629.451,326.671 628.444,328.488 627.354,330.298 626.185,332.102 624.943,333.901 623.632,335.693 622.259,337.481 620.829,339.265 
  619.346,341.044 617.816,342.82 616.244,344.592 614.636,346.361 612.996,348.128 611.33,349.893 609.643,351.656 607.94,353.418 606.227,355.179 604.509,356.94 
  
  "/>
<polyline clip-path="url(#clip952)" style="stroke:#000000; stroke-width:3.99997; stroke-opacity:1; fill:none" points="
  611.818,264.581 611.858,268.244 611.901,271.905 611.954,275.561 612.022,279.21 612.108,282.85 612.218,286.478 612.356,290.093 612.527,293.691 612.735,297.271 
  612.987,300.831 613.285,304.367 613.635,307.878 614.042,311.361 614.51,314.814 615.044,318.235 615.648,321.621 616.329,324.97 617.089,328.281 617.934,331.549 
  618.869,334.774 619.898,337.953 621.026,341.083 622.257,344.163 623.597,347.189 625.05,350.161 626.616,353.077 628.291,355.94 630.069,358.752 631.946,361.516 
  633.917,364.234 635.978,366.908 638.124,369.54 640.349,372.133 642.651,374.69 645.023,377.211 647.461,379.701 649.96,382.16 652.516,384.592 655.124,386.999 
  657.778,389.382 660.476,391.745 663.211,394.089 665.979,396.417 668.775,398.731 671.595,401.034 674.433,403.327 677.286,405.614 680.149,407.896 683.016,410.175 
  
  "/>
<polyline clip-path="url(#clip952)" style="stroke:#000000; stroke-width:3.99997; stroke-opacity:1; fill:none" points="
  525.927,489.948 522.762,491.665 519.617,493.379 516.511,495.089 513.463,496.791 510.494,498.483 507.621,500.163 504.866,501.828 502.248,503.475 499.785,505.103 
  497.497,506.709 495.405,508.29 493.527,509.844 491.881,511.368 490.467,512.857 489.277,514.304 488.302,515.703 487.533,517.047 486.961,518.329 486.579,519.544 
  486.376,520.685 486.345,521.744 486.477,522.717 486.763,523.595 487.195,524.372 487.763,525.043 488.461,525.598 489.283,526.029 490.225,526.327 491.28,526.481 
  492.444,526.483 493.711,526.323 495.076,525.992 496.533,525.48 498.078,524.779 499.704,523.879 501.407,522.77 503.181,521.443 505.022,519.898 506.922,518.151 
  508.878,516.22 510.883,514.125 512.932,511.882 515.019,509.511 517.139,507.03 519.287,504.457 521.457,501.81 523.643,499.109 525.84,496.37 528.043,493.614 
  
  "/>
<polyline clip-path="url(#clip952)" style="stroke:#000000; stroke-width:3.99997; stroke-opacity:1; fill:none" points="
  534.993,485.013 532.506,487.113 530.019,489.208 527.53,491.293 525.037,493.362 522.541,495.41 520.039,497.433 517.532,499.425 515.017,501.381 512.494,503.295 
  509.961,505.163 507.419,506.98 504.865,508.741 502.299,510.439 499.719,512.07 497.126,513.63 494.516,515.112 491.891,516.512 489.248,517.824 486.587,519.044 
  483.906,520.166 481.205,521.185 478.482,522.096 475.736,522.894 472.968,523.573 470.174,524.129 467.356,524.561 464.515,524.875 461.651,525.076 458.765,525.169 
  455.859,525.159 452.934,525.051 449.99,524.851 447.028,524.563 444.051,524.192 441.058,523.745 438.05,523.225 435.03,522.638 431.997,521.99 428.952,521.285 
  425.898,520.529 422.834,519.726 419.762,518.882 416.683,518.002 413.598,517.091 410.508,516.154 407.413,515.197 404.316,514.224 401.216,513.241 398.116,512.253 
  
  "/>
<polyline clip-path="url(#clip952)" style="stroke:#000000; stroke-width:3.99997; stroke-opacity:1; fill:none" points="
  534.993,485.013 539.171,485.874 543.349,486.729 547.525,487.574 551.698,488.403 555.867,489.212 560.032,489.994 564.192,490.746 568.345,491.462 572.491,492.136 
  576.628,492.764 580.757,493.34 584.875,493.859 588.982,494.316 593.078,494.706 597.161,495.024 601.23,495.264 605.284,495.421 609.323,495.491 613.346,495.468 
  617.351,495.346 621.338,495.121 625.306,494.787 629.253,494.34 633.18,493.774 637.085,493.084 640.968,492.27 644.83,491.337 648.671,490.291 652.494,489.136 
  656.298,487.878 660.086,486.521 663.856,485.072 667.611,483.535 671.352,481.915 675.079,480.217 678.793,478.447 682.495,476.61 686.186,474.711 689.867,472.755 
  693.539,470.747 697.203,468.693 700.86,466.597 704.51,464.466 708.154,462.303 711.794,460.114 715.431,457.905 719.064,455.68 722.696,453.445 726.327,451.205 
  
  "/>
<polyline clip-path="url(#clip952)" style="stroke:#000000; stroke-width:3.99997; stroke-opacity:1; fill:none" points="
  534.993,485.013 538.724,484.891 542.452,484.764 546.176,484.628 549.893,484.477 553.6,484.308 557.296,484.116 560.977,483.895 564.642,483.641 568.287,483.35 
  571.912,483.017 575.512,482.637 579.087,482.206 582.634,481.718 586.149,481.17 589.632,480.556 593.078,479.871 596.487,479.112 599.856,478.273 603.182,477.35 
  606.464,476.337 609.697,475.231 612.882,474.027 616.014,472.72 619.091,471.305 622.112,469.777 625.076,468.138 627.986,466.39 630.844,464.54 633.651,462.592 
  636.412,460.549 639.128,458.418 641.801,456.202 644.433,453.907 647.028,451.537 649.588,449.096 652.114,446.59 654.609,444.023 657.076,441.4 659.517,438.725 
  661.934,436.004 664.33,433.24 666.708,430.439 669.068,427.605 671.414,424.743 673.749,421.858 676.074,418.953 678.392,416.035 680.705,413.108 683.016,410.175 
  
  "/>
<polyline clip-path="url(#clip952)" style="stroke:#000000; stroke-width:3.99997; stroke-opacity:1; fill:none" points="
  409.021,510.025 404.442,510.946 399.89,511.869 395.394,512.795 390.982,513.727 386.68,514.665 382.517,515.611 378.521,516.568 374.72,517.537 371.141,518.519 
  367.811,519.517 364.76,520.531 362.014,521.564 359.599,522.617 357.512,523.686 355.74,524.762 354.268,525.84 353.08,526.912 352.162,527.971 351.5,529.009 
  351.077,530.02 350.881,530.996 350.895,531.931 351.104,532.816 351.495,533.646 352.053,534.412 352.764,535.108 353.617,535.723 354.603,536.249 355.71,536.677 
  356.927,536.999 358.244,537.205 359.65,537.287 361.134,537.236 362.685,537.043 364.293,536.699 365.947,536.195 367.636,535.523 369.352,534.681 371.093,533.681 
  372.855,532.539 374.637,531.268 376.437,529.882 378.252,528.396 380.081,526.825 381.921,525.181 383.769,523.481 385.624,521.738 387.483,519.966 389.345,518.18 
  
  "/>
<polyline clip-path="url(#clip952)" style="stroke:#000000; stroke-width:3.99997; stroke-opacity:1; fill:none" points="
  398.116,512.253 402.902,512.69 407.687,513.121 412.469,513.543 417.248,513.949 422.021,514.334 426.788,514.695 431.548,515.024 436.299,515.318 441.04,515.571 
  445.769,515.779 450.486,515.935 455.189,516.036 459.876,516.075 464.548,516.048 469.202,515.949 473.836,515.775 478.451,515.518 483.044,515.176 487.615,514.741 
  492.161,514.21 496.683,513.576 501.177,512.836 505.644,511.984 510.083,511.014 514.49,509.923 518.868,508.709 523.217,507.379 527.538,505.936 531.832,504.386 
  536.101,502.734 540.346,500.986 544.569,499.145 548.77,497.219 552.951,495.21 557.113,493.126 561.257,490.969 565.385,488.747 569.498,486.464 573.597,484.124 
  577.683,481.734 581.758,479.298 585.823,476.82 589.879,474.308 593.928,471.765 597.97,469.196 602.007,466.607 606.04,464.002 610.071,461.388 614.101,458.768 
  
  "/>
<polyline clip-path="url(#clip952)" style="stroke:#000000; stroke-width:3.99997; stroke-opacity:1; fill:none" points="
  398.116,512.253 396.502,510.439 394.894,508.626 393.296,506.811 391.714,504.997 390.153,503.182 388.618,501.366 387.115,499.55 385.648,497.733 384.223,495.915 
  382.846,494.097 381.521,492.277 380.253,490.455 379.049,488.633 377.913,486.808 376.85,484.983 375.866,483.155 374.966,481.326 374.155,479.495 373.439,477.662 
  372.822,475.827 372.31,473.989 371.909,472.149 371.622,470.307 371.457,468.461 371.417,466.614 371.503,464.763 371.709,462.91 372.031,461.054 372.463,459.197 
  373,457.336 373.637,455.474 374.368,453.609 375.188,451.743 376.093,449.875 377.075,448.005 378.132,446.134 379.256,444.261 380.444,442.386 381.689,440.511 
  382.987,438.634 384.332,436.757 385.719,434.878 387.142,432.999 388.597,431.118 390.079,429.238 391.581,427.357 393.099,425.475 394.627,423.594 396.161,421.712 
  
  "/>
<polyline clip-path="url(#clip952)" style="stroke:#000000; stroke-width:3.99997; stroke-opacity:1; fill:none" points="
  392.494,363.42 396.395,366.812 400.297,370.199 404.204,373.576 408.117,376.94 412.038,380.283 415.97,383.603 419.914,386.894 423.873,390.151 427.848,393.369 
  431.842,396.544 435.856,399.671 439.894,402.745 443.956,405.761 448.045,408.715 452.164,411.6 456.313,414.414 460.496,417.15 464.714,419.805 468.969,422.372 
  473.263,424.848 477.599,427.228 481.979,429.506 486.404,431.678 490.877,433.74 495.4,435.686 499.972,437.516 504.592,439.236 509.258,440.849 513.967,442.361 
  518.717,443.777 523.507,445.101 528.335,446.338 533.197,447.494 538.093,448.572 543.02,449.578 547.976,450.517 552.959,451.392 557.966,452.21 562.997,452.975 
  568.048,453.692 573.118,454.365 578.205,455 583.306,455.601 588.419,456.173 593.543,456.721 598.675,457.249 603.814,457.764 608.956,458.268 614.101,458.768 
  
  "/>
<polyline clip-path="url(#clip952)" style="stroke:#000000; stroke-width:3.99997; stroke-opacity:1; fill:none" points="
  508.022,552.994 511.232,552.248 514.439,551.499 517.638,550.741 520.828,549.971 524.003,549.186 527.161,548.382 530.298,547.553 533.41,546.697 536.495,545.81 
  539.548,544.888 542.567,543.926 545.547,542.921 548.485,541.869 551.378,540.766 554.222,539.608 557.014,538.391 559.75,537.112 562.427,535.766 565.041,534.349 
  567.589,532.857 570.068,531.287 572.473,529.635 574.801,527.896 577.05,526.067 579.215,524.144 581.296,522.127 583.297,520.02 585.222,517.826 587.073,515.55 
  588.855,513.196 590.57,510.767 592.223,508.267 593.817,505.701 595.355,503.072 596.84,500.384 598.277,497.641 599.668,494.847 601.018,492.005 602.329,489.121 
  603.606,486.198 604.851,483.239 606.068,480.249 607.261,477.231 608.433,474.19 609.587,471.129 610.728,468.053 611.858,464.964 612.981,461.868 614.101,458.768 
  
  "/>
<polyline clip-path="url(#clip952)" style="stroke:#000000; stroke-width:3.99997; stroke-opacity:1; fill:none" points="
  508.022,552.994 504.541,551.336 501.064,549.675 497.595,548.006 494.139,546.328 490.698,544.636 487.277,542.926 483.88,541.197 480.511,539.443 477.173,537.663 
  473.872,535.851 470.611,534.006 467.394,532.123 464.224,530.2 461.107,528.232 458.045,526.216 455.044,524.15 452.106,522.029 449.236,519.85 446.438,517.609 
  443.716,515.304 441.074,512.931 438.516,510.487 436.046,507.968 433.667,505.37 431.384,502.691 429.197,499.93 427.102,497.091 425.094,494.177 423.171,491.191 
  421.327,488.138 419.559,485.02 417.863,481.84 416.235,478.603 414.671,475.311 413.167,471.968 411.718,468.577 410.322,465.143 408.973,461.667 407.669,458.154 
  406.404,454.607 405.176,451.029 403.979,447.424 402.81,443.795 401.665,440.146 400.541,436.479 399.432,432.799 398.335,429.109 397.246,425.412 396.161,421.712 
  
  "/>
<polyline clip-path="url(#clip952)" style="stroke:#000000; stroke-width:3.99997; stroke-opacity:1; fill:none" points="
  559.324,328.759 558.992,332.023 558.664,335.286 558.346,338.544 558.042,341.797 557.758,345.041 557.498,348.275 557.267,351.497 557.07,354.704 556.911,357.895 
  556.796,361.068 556.729,364.221 556.716,367.351 556.761,370.456 556.868,373.536 557.043,376.586 557.291,379.606 557.616,382.594 558.023,385.546 558.517,388.462 
  559.103,391.34 559.786,394.176 560.571,396.97 561.462,399.719 562.464,402.421 563.581,405.074 564.815,407.679 566.16,410.236 567.612,412.749 569.164,415.219 
  570.814,417.648 572.556,420.039 574.384,422.392 576.295,424.711 578.283,426.998 580.344,429.254 582.472,431.481 584.663,433.682 586.912,435.859 589.215,438.013 
  591.565,440.146 593.96,442.261 596.393,444.36 598.86,446.445 601.355,448.518 603.875,450.58 606.415,452.634 608.969,454.682 611.532,456.726 614.101,458.768 
  
  "/>
<polyline clip-path="url(#clip952)" style="stroke:#000000; stroke-width:3.99997; stroke-opacity:1; fill:none" points="
  559.324,328.759 556.774,332.024 554.22,335.284 551.662,338.535 549.095,341.773 546.518,344.992 543.929,348.189 541.323,351.358 538.7,354.495 536.055,357.596 
  533.388,360.656 530.694,363.67 527.972,366.634 525.218,369.543 522.431,372.393 519.608,375.179 516.745,377.897 513.841,380.541 510.893,383.109 507.898,385.594 
  504.854,387.992 501.758,390.299 498.607,392.511 495.399,394.622 492.131,396.628 488.802,398.525 485.409,400.313 481.958,401.996 478.449,403.578 474.885,405.065 
  471.27,406.461 467.605,407.77 463.893,408.997 460.138,410.146 456.34,411.222 452.504,412.23 448.632,413.174 444.725,414.059 440.788,414.889 436.822,415.669 
  432.83,416.403 428.814,417.096 424.778,417.753 420.724,418.378 416.654,418.975 412.571,419.55 408.478,420.107 404.376,420.649 400.27,421.183 396.161,421.712 
  
  "/>
<polyline clip-path="url(#clip952)" style="stroke:#000000; stroke-width:3.99997; stroke-opacity:1; fill:none" points="
  614.101,458.768 618.309,459.905 622.517,461.037 626.724,462.158 630.929,463.264 635.132,464.348 639.332,465.407 643.529,466.434 647.722,467.425 651.911,468.374 
  656.094,469.276 660.272,470.126 664.444,470.918 668.61,471.648 672.768,472.31 676.918,472.899 681.06,473.41 685.194,473.837 689.317,474.175 693.431,474.42 
  697.535,474.565 701.627,474.606 705.708,474.537 709.776,474.354 713.832,474.05 717.875,473.622 721.904,473.068 725.921,472.394 729.925,471.606 733.918,470.708 
  737.9,469.705 741.871,468.604 745.832,467.408 749.784,466.124 753.727,464.756 757.662,463.31 761.589,461.791 765.509,460.204 769.422,458.554 773.329,456.847 
  777.23,455.088 781.127,453.282 785.019,451.434 788.907,449.549 792.792,447.633 796.674,445.691 800.554,443.729 804.433,441.75 808.31,439.761 812.187,437.767 
  
  "/>
<polyline clip-path="url(#clip952)" style="stroke:#000000; stroke-width:3.99997; stroke-opacity:1; fill:none" points="
  614.101,458.768 619.988,460.357 625.875,461.941 631.762,463.514 637.649,465.072 643.536,466.609 649.423,468.119 655.311,469.598 661.198,471.04 667.085,472.441 
  672.973,473.794 678.861,475.094 684.749,476.337 690.637,477.517 696.525,478.628 702.413,479.666 708.302,480.626 714.191,481.501 720.08,482.287 725.969,482.979 
  731.859,483.571 737.749,484.058 743.639,484.435 749.529,484.696 755.42,484.837 761.311,484.851 767.202,484.741 773.094,484.509 778.986,484.162 784.878,483.705 
  790.77,483.142 796.663,482.48 802.556,481.724 808.449,480.878 814.342,479.949 820.236,478.94 826.13,477.859 832.024,476.709 837.918,475.496 843.812,474.225 
  849.706,472.902 855.601,471.531 861.496,470.119 867.39,468.669 873.285,467.189 879.18,465.682 885.075,464.154 890.97,462.61 896.865,461.056 902.76,459.497 
  
  "/>
<polyline clip-path="url(#clip952)" style="stroke:#000000; stroke-width:3.99997; stroke-opacity:1; fill:none" points="
  614.101,458.768 616.414,459.063 618.724,459.354 621.029,459.636 623.324,459.905 625.607,460.157 627.875,460.388 630.125,460.593 632.354,460.768 634.558,460.908 
  636.736,461.01 638.883,461.069 640.996,461.081 643.074,461.042 645.112,460.946 647.108,460.791 649.059,460.571 650.961,460.283 652.812,459.921 654.608,459.483 
  656.347,458.963 658.025,458.357 659.64,457.661 661.189,456.871 662.667,455.982 664.074,454.99 665.408,453.896 666.672,452.703 667.87,451.415 669.005,450.038 
  670.079,448.574 671.095,447.029 672.057,445.407 672.968,443.712 673.83,441.949 674.647,440.121 675.422,438.233 676.157,436.289 676.856,434.294 677.522,432.251 
  678.157,430.166 678.766,428.042 679.35,425.884 679.913,423.695 680.458,421.481 680.987,419.246 681.505,416.993 682.014,414.728 682.516,412.454 683.016,410.175 
  
  "/>
<polyline clip-path="url(#clip952)" style="stroke:#000000; stroke-width:3.99997; stroke-opacity:1; fill:none" points="
  824.803,417.84 826.461,414.863 828.104,411.896 829.72,408.951 831.296,406.04 832.816,403.174 834.269,400.363 835.639,397.62 836.915,394.954 838.08,392.377 
  839.124,389.901 840.03,387.536 840.787,385.294 841.381,383.185 841.815,381.214 842.096,379.383 842.234,377.694 842.237,376.149 842.114,374.75 841.873,373.499 
  841.522,372.398 841.071,371.448 840.528,370.653 839.901,370.013 839.2,369.532 838.432,369.21 837.605,369.052 836.727,369.064 835.805,369.252 834.845,369.623 
  833.854,370.181 832.84,370.933 831.81,371.886 830.77,373.046 829.727,374.417 828.689,376.008 827.663,377.822 826.655,379.868 825.669,382.142 824.705,384.628 
  823.761,387.305 822.833,390.155 821.922,393.159 821.024,396.298 820.137,399.551 819.26,402.901 818.391,406.327 817.528,409.811 816.669,413.334 815.811,416.875 
  
  "/>
<polyline clip-path="url(#clip952)" style="stroke:#000000; stroke-width:3.99997; stroke-opacity:1; fill:none" points="
  812.187,437.767 811.069,439.84 809.957,441.912 808.855,443.981 807.768,446.047 806.702,448.107 805.661,450.162 804.651,452.209 803.676,454.247 802.743,456.275 
  801.855,458.293 801.018,460.298 800.237,462.289 799.518,464.266 798.864,466.226 798.283,468.169 797.777,470.094 797.353,471.999 797.016,473.882 796.771,475.744 
  796.623,477.582 796.576,479.395 796.637,481.183 796.81,482.943 797.1,484.675 797.513,486.377 798.047,488.05 798.699,489.694 799.463,491.311 800.335,492.902 
  801.308,494.468 802.378,496.011 803.54,497.531 804.788,499.031 806.118,500.51 807.525,501.972 809.003,503.415 810.548,504.843 812.153,506.256 813.815,507.656 
  815.528,509.043 817.286,510.419 819.085,511.785 820.921,513.142 822.786,514.492 824.677,515.836 826.589,517.174 828.516,518.51 830.453,519.842 832.395,521.174 
  
  "/>
<polyline clip-path="url(#clip952)" style="stroke:#000000; stroke-width:3.99997; stroke-opacity:1; fill:none" points="
  812.187,437.767 813.668,439.742 815.15,441.711 816.635,443.67 818.124,445.614 819.617,447.537 821.117,449.435 822.624,451.302 824.14,453.133 825.665,454.924 
  827.201,456.668 828.75,458.362 830.312,459.999 831.889,461.576 833.481,463.086 835.091,464.524 836.719,465.886 838.367,467.166 840.036,468.36 841.726,469.461 
  843.44,470.466 845.178,471.368 846.942,472.164 848.733,472.847 850.553,473.413 852.401,473.856 854.279,474.177 856.185,474.381 858.117,474.473 860.076,474.457 
  862.059,474.339 864.065,474.125 866.094,473.818 868.143,473.425 870.211,472.95 872.298,472.398 874.403,471.775 876.523,471.086 878.658,470.335 880.806,469.529 
  882.966,468.671 885.138,467.767 887.319,466.823 889.509,465.842 891.706,464.832 893.91,463.795 896.118,462.738 898.33,461.666 900.544,460.584 902.76,459.497 
  
  "/>
<polyline clip-path="url(#clip952)" style="stroke:#000000; stroke-width:3.99997; stroke-opacity:1; fill:none" points="
  812.187,437.767 809.222,438.744 806.258,439.715 803.296,440.676 800.338,441.622 797.384,442.547 794.436,443.446 791.494,444.315 788.559,445.148 785.634,445.94 
  782.718,446.685 779.814,447.379 776.921,448.017 774.042,448.593 771.177,449.102 768.327,449.54 765.493,449.901 762.678,450.179 759.88,450.37 757.103,450.469 
  754.346,450.47 751.612,450.369 748.9,450.16 746.212,449.838 743.55,449.397 740.914,448.834 738.304,448.148 735.719,447.344 733.159,446.427 730.621,445.402 
  728.105,444.275 725.611,443.05 723.135,441.732 720.679,440.328 718.24,438.841 715.818,437.277 713.411,435.642 711.018,433.939 708.638,432.176 706.27,430.355 
  703.914,428.483 701.567,426.566 699.229,424.607 696.898,422.612 694.574,420.586 692.256,418.535 689.942,416.463 687.631,414.376 685.323,412.278 683.016,410.175 
  
  "/>
<polyline clip-path="url(#clip952)" style="stroke:#000000; stroke-width:3.99997; stroke-opacity:1; fill:none" points="
  837.038,531.974 838.43,535.22 839.821,538.447 841.211,541.635 842.6,544.766 843.987,547.821 845.372,550.78 846.754,553.624 848.133,556.334 849.509,558.891 
  850.88,561.276 852.247,563.47 853.608,565.453 854.964,567.209 856.309,568.736 857.634,570.042 858.934,571.134 860.2,572.02 861.424,572.708 862.6,573.204 
  863.719,573.517 864.775,573.655 865.759,573.624 866.665,573.431 867.484,573.086 868.209,572.595 868.831,571.964 869.341,571.196 869.728,570.296 869.982,569.268 
  870.094,568.116 870.053,566.843 869.849,565.453 869.473,563.951 868.914,562.34 868.162,560.625 867.208,558.808 866.041,556.895 864.66,554.889 863.082,552.799 
  861.324,550.633 859.404,548.397 857.34,546.1 855.15,543.75 852.853,541.353 850.466,538.918 848.006,536.452 845.493,533.963 842.944,531.459 840.377,528.947 
  
  "/>
<polyline clip-path="url(#clip952)" style="stroke:#000000; stroke-width:3.99997; stroke-opacity:1; fill:none" points="
  832.395,521.174 829.364,521.06 826.335,520.942 823.313,520.815 820.299,520.675 817.296,520.517 814.309,520.338 811.338,520.132 808.388,519.896 805.46,519.624 
  802.559,519.313 799.687,518.959 796.846,518.556 794.04,518.1 791.272,517.588 788.544,517.014 785.859,516.375 783.221,515.665 780.632,514.881 778.094,514.018 
  775.612,513.072 773.188,512.038 770.824,510.912 768.523,509.69 766.289,508.367 764.125,506.939 762.029,505.406 760,503.772 758.035,502.042 756.13,500.22 
  754.283,498.311 752.491,496.318 750.751,494.246 749.06,492.1 747.416,489.883 745.814,487.601 744.253,485.258 742.73,482.857 741.241,480.404 739.784,477.903 
  738.356,475.358 736.954,472.774 735.575,470.155 734.217,467.504 732.875,464.828 731.548,462.13 730.233,459.414 728.926,456.685 727.625,453.947 726.327,451.205 
  
  "/>
<polyline clip-path="url(#clip952)" style="stroke:#000000; stroke-width:3.99997; stroke-opacity:1; fill:none" points="
  832.395,521.174 828.408,520.172 824.424,519.166 820.446,518.152 816.477,517.125 812.521,516.082 808.581,515.017 804.659,513.927 800.76,512.807 796.885,511.654 
  793.039,510.463 789.224,509.23 785.443,507.95 781.7,506.62 777.997,505.235 774.339,503.791 770.727,502.284 767.165,500.709 763.657,499.063 760.205,497.341 
  756.812,495.539 753.482,493.653 750.218,491.678 747.022,489.611 743.899,487.446 740.85,485.181 737.876,482.815 734.975,480.352 732.142,477.796 729.375,475.152 
  726.671,472.423 724.026,469.615 721.437,466.73 718.901,463.774 716.416,460.751 713.978,457.664 711.583,454.518 709.229,451.318 706.913,448.067 704.631,444.77 
  702.38,441.431 700.157,438.053 697.96,434.642 695.784,431.202 693.627,427.736 691.486,424.249 689.358,420.745 687.238,417.229 685.125,413.704 683.016,410.175 
  
  "/>
<polyline clip-path="url(#clip952)" style="stroke:#000000; stroke-width:3.99997; stroke-opacity:1; fill:none" points="
  733.349,472.217 734.667,475.491 735.985,478.747 737.302,481.966 738.618,485.13 739.932,488.219 741.243,491.217 742.552,494.103 743.857,496.859 745.158,499.468 
  746.455,501.911 747.747,504.168 749.034,506.222 750.315,508.056 751.585,509.668 752.838,511.065 754.067,512.252 755.266,513.237 756.428,514.024 757.547,514.622 
  758.616,515.035 759.629,515.27 760.579,515.333 761.461,515.231 762.266,514.971 762.989,514.557 763.622,513.994 764.157,513.286 764.584,512.434 764.896,511.441 
  765.083,510.31 765.137,509.042 765.05,507.641 764.811,506.108 764.414,504.447 763.848,502.659 763.106,500.748 762.179,498.715 761.066,496.565 759.78,494.309 
  758.338,491.954 756.756,489.512 755.048,486.992 753.23,484.403 751.319,481.756 749.329,479.06 747.276,476.325 745.177,473.561 743.047,470.777 740.9,467.984 
  
  "/>
<polyline clip-path="url(#clip952)" style="stroke:#000000; stroke-width:3.99997; stroke-opacity:1; fill:none" points="
  726.327,451.205 730.668,450.952 735.007,450.693 739.341,450.426 743.669,450.143 747.987,449.842 752.295,449.517 756.59,449.163 760.87,448.776 765.132,448.351 
  769.375,447.883 773.596,447.367 777.792,446.798 781.963,446.172 786.105,445.484 790.217,444.73 794.296,443.903 798.34,443.001 802.347,442.017 806.315,440.947 
  810.241,439.787 814.124,438.531 817.961,437.175 821.749,435.714 825.488,434.143 829.175,432.458 832.809,430.658 836.393,428.748 839.929,426.734 843.419,424.619 
  846.865,422.409 850.27,420.108 853.636,417.722 856.965,415.254 860.259,412.709 863.52,410.093 866.751,407.411 869.953,404.666 873.129,401.864 876.281,399.009 
  879.411,396.107 882.522,393.162 885.615,390.178 888.693,387.162 891.757,384.116 894.811,381.047 897.856,377.958 900.895,374.855 903.929,371.743 906.961,368.626 
  
  "/>
<polyline clip-path="url(#clip952)" style="stroke:#000000; stroke-width:3.99997; stroke-opacity:1; fill:none" points="
  726.327,451.205 722.878,450.526 719.432,449.844 715.992,449.152 712.562,448.449 709.145,447.729 705.744,446.988 702.362,446.222 699.003,445.427 695.669,444.599 
  692.364,443.734 689.092,442.827 685.854,441.874 682.656,440.872 679.498,439.815 676.386,438.701 673.322,437.524 670.31,436.281 667.352,434.967 664.452,433.578 
  661.613,432.111 658.838,430.561 656.13,428.923 653.493,427.194 650.93,425.37 648.444,423.446 646.035,421.423 643.7,419.304 641.435,417.094 639.238,414.797 
  637.105,412.417 635.033,409.958 633.018,407.424 631.059,404.82 629.151,402.149 627.291,399.416 625.475,396.624 623.702,393.779 621.967,390.884 620.268,387.944 
  618.6,384.962 616.962,381.942 615.349,378.89 613.759,375.808 612.188,372.701 610.633,369.574 609.09,366.43 607.558,363.273 606.032,360.108 604.509,356.94 
  
  "/>
<polyline clip-path="url(#clip952)" style="stroke:#000000; stroke-width:3.99997; stroke-opacity:1; fill:none" points="
  726.327,451.205 724.44,448.695 722.558,446.185 720.686,443.674 718.83,441.16 716.995,438.645 715.186,436.126 713.408,433.603 711.667,431.076 709.967,428.544 
  708.314,426.006 706.713,423.462 705.17,420.911 703.689,418.352 702.276,415.786 700.936,413.21 699.674,410.625 698.495,408.03 697.405,405.425 696.408,402.808 
  695.511,400.179 694.718,397.538 694.034,394.884 693.465,392.216 693.016,389.533 692.691,386.835 692.491,384.123 692.411,381.396 692.446,378.655 692.59,375.901 
  692.839,373.134 693.186,370.356 693.627,367.566 694.157,364.765 694.77,361.955 695.461,359.135 696.225,356.306 697.057,353.47 697.951,350.625 698.903,347.774 
  699.907,344.916 700.958,342.053 702.05,339.185 703.179,336.313 704.339,333.436 705.525,330.557 706.732,327.675 707.955,324.791 709.188,321.906 710.426,319.02 
  
  "/>
<polyline clip-path="url(#clip952)" style="stroke:#000000; stroke-width:3.99997; stroke-opacity:1; fill:none" points="
  726.327,451.205 724.945,454.114 723.559,457.019 722.167,459.915 720.766,462.798 719.353,465.664 717.925,468.509 716.478,471.328 715.011,474.117 713.519,476.872 
  712,479.588 710.45,482.262 708.867,484.888 707.248,487.463 705.589,489.982 703.888,492.441 702.141,494.836 700.346,497.163 698.499,499.417 696.598,501.593 
  694.638,503.689 692.619,505.698 690.535,507.618 688.385,509.443 686.165,511.17 683.873,512.795 681.507,514.316 679.072,515.74 676.571,517.069 674.005,518.308 
  671.379,519.461 668.695,520.533 665.957,521.528 663.167,522.451 660.328,523.304 657.444,524.094 654.518,524.823 651.552,525.497 648.55,526.119 645.514,526.695 
  642.448,527.227 639.355,527.721 636.237,528.181 633.099,528.61 629.942,529.014 626.769,529.397 623.585,529.762 620.392,530.115 617.192,530.459 613.99,530.799 
  
  "/>
<polyline clip-path="url(#clip952)" style="stroke:#000000; stroke-width:3.99997; stroke-opacity:1; fill:none" points="
  906.961,368.626 908.448,370.553 909.929,372.48 911.4,374.407 912.855,376.333 914.289,378.257 915.697,380.181 917.074,382.103 918.414,384.024 919.712,385.942 
  920.962,387.858 922.161,389.772 923.301,391.683 924.379,393.592 925.389,395.497 926.325,397.399 927.182,399.297 927.956,401.191 928.641,403.081 929.231,404.967 
  929.722,406.848 930.107,408.724 930.383,410.596 930.543,412.462 930.583,414.322 930.498,416.176 930.286,418.025 929.954,419.868 929.507,421.706 928.95,423.539 
  928.288,425.367 927.526,427.19 926.67,429.009 925.725,430.823 924.696,432.634 923.588,434.442 922.407,436.245 921.158,438.046 919.845,439.844 918.476,441.639 
  917.053,443.432 915.584,445.222 914.073,447.011 912.525,448.798 910.945,450.583 909.34,452.367 907.713,454.15 906.071,455.933 904.418,457.715 902.76,459.497 
  
  "/>
<polyline clip-path="url(#clip952)" style="stroke:#000000; stroke-width:3.99997; stroke-opacity:1; fill:none" points="
  593.814,160.114 594.299,155.534 594.774,150.979 595.23,146.475 595.655,142.048 596.041,137.723 596.378,133.525 596.655,129.48 596.863,125.613 596.992,121.95 
  597.032,118.517 596.973,115.338 596.805,112.44 596.52,109.845 596.123,107.553 595.624,105.553 595.034,103.834 594.366,102.384 593.63,101.192 592.837,100.246 
  591.998,99.5344 591.126,99.0462 590.23,98.7697 589.323,98.6935 588.415,98.8062 587.518,99.0962 586.643,99.5544 585.802,100.174 585.007,100.947 584.268,101.866 
  583.598,102.926 583.008,104.117 582.51,105.435 582.115,106.87 581.836,108.417 581.684,110.068 581.67,111.816 581.806,113.654 582.096,115.574 582.529,117.571 
  583.091,119.637 583.77,121.764 584.553,123.947 585.426,126.179 586.377,128.451 587.394,130.759 588.461,133.094 589.568,135.449 590.701,137.819 591.847,140.195 
  
  "/>
<polyline clip-path="url(#clip952)" style="stroke:#000000; stroke-width:3.99997; stroke-opacity:1; fill:none" points="
  604.509,356.94 605.228,359.329 605.95,361.714 606.677,364.091 607.414,366.454 608.162,368.8 608.925,371.124 609.706,373.423 610.507,375.69 611.332,377.924 
  612.184,380.118 613.064,382.268 613.978,384.371 614.926,386.422 615.913,388.416 616.941,390.349 618.013,392.217 619.133,394.016 620.302,395.741 621.525,397.387 
  622.803,398.952 624.14,400.429 625.539,401.815 627.003,403.105 628.535,404.296 630.137,405.382 631.81,406.365 633.55,407.247 635.355,408.034 637.222,408.73 
  639.148,409.338 641.13,409.865 643.165,410.313 645.25,410.687 647.382,410.992 649.559,411.231 651.776,411.41 654.032,411.532 656.323,411.602 658.647,411.624 
  661,411.603 663.379,411.543 665.782,411.448 668.206,411.323 670.647,411.171 673.103,410.998 675.571,410.808 678.048,410.604 680.53,410.392 683.016,410.175 
  
  "/>
<polyline clip-path="url(#clip952)" style="stroke:#000000; stroke-width:3.99997; stroke-opacity:1; fill:none" points="
  604.509,356.94 600.724,359.765 596.938,362.585 593.148,365.395 589.354,368.19 585.554,370.965 581.746,373.715 577.928,376.435 574.1,379.12 570.259,381.765 
  566.404,384.365 562.534,386.914 558.646,389.409 554.74,391.843 550.813,394.212 546.865,396.511 542.893,398.735 538.897,400.879 534.874,402.937 530.822,404.905 
  526.742,406.778 522.63,408.551 518.485,410.219 514.306,411.776 510.092,413.218 505.84,414.54 501.55,415.741 497.225,416.828 492.866,417.804 488.474,418.675 
  484.05,419.446 479.598,420.122 475.117,420.707 470.609,421.207 466.077,421.627 461.521,421.972 456.944,422.247 452.346,422.456 447.73,422.605 443.096,422.7 
  438.447,422.744 433.784,422.743 429.108,422.701 424.422,422.625 419.726,422.519 415.022,422.388 410.313,422.236 405.598,422.07 400.88,421.893 396.161,421.712 
  
  "/>
<polyline clip-path="url(#clip952)" style="stroke:#000000; stroke-width:3.99997; stroke-opacity:1; fill:none" points="
  710.426,319.02 711.374,321.334 712.317,323.646 713.25,325.955 714.167,328.26 715.065,330.559 715.938,332.85 716.78,335.132 717.587,337.403 718.354,339.662 
  719.076,341.908 719.748,344.139 720.364,346.353 720.92,348.548 721.411,350.725 721.831,352.88 722.176,355.012 722.44,357.12 722.619,359.202 722.708,361.258 
  722.701,363.284 722.594,365.281 722.381,367.245 722.058,369.176 721.619,371.073 721.059,372.933 720.379,374.757 719.584,376.547 718.678,378.303 717.667,380.027 
  716.555,381.721 715.347,383.386 714.049,385.025 712.666,386.637 711.202,388.225 709.663,389.791 708.054,391.335 706.379,392.86 704.644,394.367 702.854,395.857 
  701.013,397.332 699.127,398.793 697.201,400.242 695.24,401.681 693.249,403.111 691.232,404.533 689.196,405.949 687.144,407.36 685.082,408.768 683.016,410.175 
  
  "/>
<polyline clip-path="url(#clip952)" style="stroke:#000000; stroke-width:3.99997; stroke-opacity:1; fill:none" points="
  613.99,530.799 616.765,529.119 619.535,527.437 622.296,525.749 625.044,524.054 627.773,522.348 630.479,520.629 633.158,518.895 635.806,517.142 638.416,515.369 
  640.986,513.572 643.511,511.748 645.985,509.897 648.404,508.014 650.765,506.097 653.061,504.143 655.29,502.151 657.445,500.116 659.523,498.038 661.519,495.912 
  663.428,493.737 665.247,491.51 666.97,489.228 668.592,486.889 670.11,484.49 671.519,482.028 672.818,479.504 674.013,476.92 675.108,474.278 676.107,471.582 
  677.015,468.834 677.836,466.036 678.575,463.191 679.237,460.302 679.826,457.371 680.347,454.401 680.804,451.395 681.202,448.354 681.545,445.283 681.838,442.182 
  682.086,439.056 682.292,435.906 682.462,432.735 682.601,429.546 682.712,426.342 682.8,423.124 682.87,419.896 682.926,416.66 682.973,413.419 683.016,410.175 
  
  "/>
<path clip-path="url(#clip952)" d="
M478.185 282.127 L472.436 272.168 L460.938 272.168 L455.189 282.127 L460.938 292.086 L472.436 292.086 L478.185 282.127 L478.185 282.127  Z
  " fill="#009af9" fill-rule="evenodd" fill-opacity="1"/>
<polyline clip-path="url(#clip952)" style="stroke:#000000; stroke-width:3.99997; stroke-opacity:1; fill:none" points="
  478.185,282.127 472.436,272.168 460.938,272.168 455.189,282.127 460.938,292.086 472.436,292.086 478.185,282.127 
  "/>
<path clip-path="url(#clip952)" d="
M553.884 664.708 L548.135 654.748 L536.637 654.748 L530.888 664.708 L536.637 674.667 L548.135 674.667 L553.884 664.708 L553.884 664.708  Z
  " fill="#009af9" fill-rule="evenodd" fill-opacity="1"/>
<polyline clip-path="url(#clip952)" style="stroke:#000000; stroke-width:3.99997; stroke-opacity:1; fill:none" points="
  553.884,664.708 548.135,654.748 536.637,654.748 530.888,664.708 536.637,674.667 548.135,674.667 553.884,664.708 
  "/>
<path clip-path="url(#clip952)" d="
M701.571 596.222 L695.822 586.263 L684.324 586.263 L678.575 596.222 L684.324 606.181 L695.822 606.181 L701.571 596.222 L701.571 596.222  Z
  " fill="#009af9" fill-rule="evenodd" fill-opacity="1"/>
<polyline clip-path="url(#clip952)" style="stroke:#000000; stroke-width:3.99997; stroke-opacity:1; fill:none" points="
  701.571,596.222 695.822,586.263 684.324,586.263 678.575,596.222 684.324,606.181 695.822,606.181 701.571,596.222 
  "/>
<path clip-path="url(#clip952)" d="
M755.909 568.567 L744.058 548.035 L720.354 548.035 L708.502 568.567 L720.354 589.098 L744.058 589.098 L755.909 568.567 L755.909 568.567  Z
  " fill="#009af9" fill-rule="evenodd" fill-opacity="1"/>
<polyline clip-path="url(#clip952)" style="stroke:#000000; stroke-width:3.99997; stroke-opacity:1; fill:none" points="
  755.909,568.567 744.058,548.035 720.354,548.035 708.502,568.567 720.354,589.098 744.058,589.098 755.909,568.567 
  "/>
<path clip-path="url(#clip952)" d="
M481.852 412.242 L476.034 402.163 L464.397 402.163 L458.578 412.242 L464.397 422.322 L476.034 422.322 L481.852 412.242 L481.852 412.242  Z
  " fill="#009af9" fill-rule="evenodd" fill-opacity="1"/>
<polyline clip-path="url(#clip952)" style="stroke:#000000; stroke-width:3.99997; stroke-opacity:1; fill:none" points="
  481.852,412.242 476.034,402.163 464.397,402.163 458.578,412.242 464.397,422.322 476.034,422.322 481.852,412.242 
  "/>
<path clip-path="url(#clip952)" d="
M791.109 280.483 L785.36 270.524 L773.861 270.524 L768.112 280.483 L773.861 290.443 L785.36 290.443 L791.109 280.483 L791.109 280.483  Z
  " fill="#009af9" fill-rule="evenodd" fill-opacity="1"/>
<polyline clip-path="url(#clip952)" style="stroke:#000000; stroke-width:3.99997; stroke-opacity:1; fill:none" points="
  791.109,280.483 785.36,270.524 773.861,270.524 768.112,280.483 773.861,290.443 785.36,290.443 791.109,280.483 
  "/>
<path clip-path="url(#clip952)" d="
M636.216 264.581 L624.017 243.449 L599.62 243.449 L587.421 264.581 L599.62 285.713 L624.017 285.713 L636.216 264.581 L636.216 264.581  Z
  " fill="#009af9" fill-rule="evenodd" fill-opacity="1"/>
<polyline clip-path="url(#clip952)" style="stroke:#000000; stroke-width:3.99997; stroke-opacity:1; fill:none" points="
  636.216,264.581 624.017,243.449 599.62,243.449 587.421,264.581 599.62,285.713 624.017,285.713 636.216,264.581 
  "/>
<path clip-path="url(#clip952)" d="
M546.907 485.013 L540.95 474.694 L529.035 474.694 L523.078 485.013 L529.035 495.333 L540.95 495.333 L546.907 485.013 L546.907 485.013  Z
  " fill="#009af9" fill-rule="evenodd" fill-opacity="1"/>
<polyline clip-path="url(#clip952)" style="stroke:#000000; stroke-width:3.99997; stroke-opacity:1; fill:none" points="
  546.907,485.013 540.95,474.694 529.035,474.694 523.078,485.013 529.035,495.333 540.95,495.333 546.907,485.013 
  "/>
<path clip-path="url(#clip952)" d="
M410.307 512.253 L404.211 501.693 L392.02 501.693 L385.924 512.253 L392.02 522.813 L404.211 522.813 L410.307 512.253 L410.307 512.253  Z
  " fill="#009af9" fill-rule="evenodd" fill-opacity="1"/>
<polyline clip-path="url(#clip952)" style="stroke:#000000; stroke-width:3.99997; stroke-opacity:1; fill:none" points="
  410.307,512.253 404.211,501.693 392.02,501.693 385.924,512.253 392.02,522.813 404.211,522.813 410.307,512.253 
  "/>
<path clip-path="url(#clip952)" d="
M403.853 363.42 L398.174 353.58 L386.814 353.58 L381.134 363.42 L386.814 373.259 L398.174 373.259 L403.853 363.42 L403.853 363.42  Z
  " fill="#009af9" fill-rule="evenodd" fill-opacity="1"/>
<polyline clip-path="url(#clip952)" style="stroke:#000000; stroke-width:3.99997; stroke-opacity:1; fill:none" points="
  403.853,363.42 398.174,353.58 386.814,353.58 381.134,363.42 386.814,373.259 398.174,373.259 403.853,363.42 
  "/>
<path clip-path="url(#clip952)" d="
M519.52 552.994 L513.771 543.035 L502.273 543.035 L496.524 552.994 L502.273 562.954 L513.771 562.954 L519.52 552.994 L519.52 552.994  Z
  " fill="#009af9" fill-rule="evenodd" fill-opacity="1"/>
<polyline clip-path="url(#clip952)" style="stroke:#000000; stroke-width:3.99997; stroke-opacity:1; fill:none" points="
  519.52,552.994 513.771,543.035 502.273,543.035 496.524,552.994 502.273,562.954 513.771,562.954 519.52,552.994 
  "/>
<path clip-path="url(#clip952)" d="
M583.167 328.759 L571.246 308.107 L547.403 308.107 L535.482 328.759 L547.403 349.41 L571.246 349.41 L583.167 328.759 L583.167 328.759  Z
  " fill="#009af9" fill-rule="evenodd" fill-opacity="1"/>
<polyline clip-path="url(#clip952)" style="stroke:#000000; stroke-width:3.99997; stroke-opacity:1; fill:none" points="
  583.167,328.759 571.246,308.107 547.403,308.107 535.482,328.759 547.403,349.41 571.246,349.41 583.167,328.759 
  "/>
<path clip-path="url(#clip952)" d="
M638.498 458.768 L626.299 437.636 L601.902 437.636 L589.703 458.768 L601.902 479.9 L626.299 479.9 L638.498 458.768 L638.498 458.768  Z
  " fill="#009af9" fill-rule="evenodd" fill-opacity="1"/>
<polyline clip-path="url(#clip952)" style="stroke:#000000; stroke-width:3.99997; stroke-opacity:1; fill:none" points="
  638.498,458.768 626.299,437.636 601.902,437.636 589.703,458.768 601.902,479.9 626.299,479.9 638.498,458.768 
  "/>
<path clip-path="url(#clip952)" d="
M836.306 437.767 L824.246 416.875 L800.127 416.875 L788.067 437.767 L800.127 458.659 L824.246 458.659 L836.306 437.767 L836.306 437.767  Z
  " fill="#009af9" fill-rule="evenodd" fill-opacity="1"/>
<polyline clip-path="url(#clip952)" style="stroke:#000000; stroke-width:3.99997; stroke-opacity:1; fill:none" points="
  836.306,437.767 824.246,416.875 800.127,416.875 788.067,437.767 800.127,458.659 824.246,458.659 836.306,437.767 
  "/>
<path clip-path="url(#clip952)" d="
M844.864 521.174 L838.63 510.373 L826.161 510.373 L819.926 521.174 L826.161 531.974 L838.63 531.974 L844.864 521.174 L844.864 521.174  Z
  " fill="#009af9" fill-rule="evenodd" fill-opacity="1"/>
<polyline clip-path="url(#clip952)" style="stroke:#000000; stroke-width:3.99997; stroke-opacity:1; fill:none" points="
  844.864,521.174 838.63,510.373 826.161,510.373 819.926,521.174 826.161,531.974 838.63,531.974 844.864,521.174 
  "/>
<path clip-path="url(#clip952)" d="
M750.586 451.205 L738.457 430.193 L714.198 430.193 L702.069 451.205 L714.198 472.217 L738.457 472.217 L750.586 451.205 L750.586 451.205  Z
  " fill="#009af9" fill-rule="evenodd" fill-opacity="1"/>
<polyline clip-path="url(#clip952)" style="stroke:#000000; stroke-width:3.99997; stroke-opacity:1; fill:none" points="
  750.586,451.205 738.457,430.193 714.198,430.193 702.069,451.205 714.198,472.217 738.457,472.217 750.586,451.205 750.586,451.205 
  "/>
<path clip-path="url(#clip952)" d="
M918.876 368.626 L912.918 358.306 L901.004 358.306 L895.047 368.626 L901.004 378.946 L912.918 378.946 L918.876 368.626 L918.876 368.626  Z
  " fill="#009af9" fill-rule="evenodd" fill-opacity="1"/>
<polyline clip-path="url(#clip952)" style="stroke:#000000; stroke-width:3.99997; stroke-opacity:1; fill:none" points="
  918.876,368.626 912.918,358.306 901.004,358.306 895.047,368.626 901.004,378.946 912.918,378.946 918.876,368.626 
  "/>
<path clip-path="url(#clip952)" d="
M606.328 150.154 L600.579 140.195 L589.081 140.195 L583.332 150.154 L589.081 160.114 L600.579 160.114 L606.328 150.154 L606.328 150.154  Z
  " fill="#009af9" fill-rule="evenodd" fill-opacity="1"/>
<polyline clip-path="url(#clip952)" style="stroke:#000000; stroke-width:3.99997; stroke-opacity:1; fill:none" points="
  606.328,150.154 600.579,140.195 589.081,140.195 583.332,150.154 589.081,160.114 600.579,160.114 606.328,150.154 
  "/>
<path clip-path="url(#clip952)" d="
M616.701 356.94 L610.605 346.38 L598.413 346.38 L592.317 356.94 L598.413 367.5 L610.605 367.5 L616.701 356.94 L616.701 356.94  Z
  " fill="#009af9" fill-rule="evenodd" fill-opacity="1"/>
<polyline clip-path="url(#clip952)" style="stroke:#000000; stroke-width:3.99997; stroke-opacity:1; fill:none" points="
  616.701,356.94 610.605,346.38 598.413,346.38 592.317,356.94 598.413,367.5 610.605,367.5 616.701,356.94 
  "/>
<path clip-path="url(#clip952)" d="
M721.924 319.02 L716.175 309.061 L704.677 309.061 L698.928 319.02 L704.677 328.98 L716.175 328.98 L721.924 319.02 L721.924 319.02  Z
  " fill="#009af9" fill-rule="evenodd" fill-opacity="1"/>
<polyline clip-path="url(#clip952)" style="stroke:#000000; stroke-width:3.99997; stroke-opacity:1; fill:none" points="
  721.924,319.02 716.175,309.061 704.677,309.061 698.928,319.02 704.677,328.98 716.175,328.98 721.924,319.02 
  "/>
<path clip-path="url(#clip952)" d="
M637.971 530.799 L625.98 510.027 L601.999 510.027 L590.009 530.799 L601.999 551.57 L625.98 551.57 L637.971 530.799 L637.971 530.799  Z
  " fill="#009af9" fill-rule="evenodd" fill-opacity="1"/>
<polyline clip-path="url(#clip952)" style="stroke:#000000; stroke-width:3.99997; stroke-opacity:1; fill:none" points="
  637.971,530.799 625.98,510.027 601.999,510.027 590.009,530.799 601.999,551.57 625.98,551.57 637.971,530.799 
  "/>
<path clip-path="url(#clip952)" d="
M914.396 459.497 L908.578 449.417 L896.941 449.417 L891.123 459.497 L896.941 469.576 L908.578 469.576 L914.396 459.497 L914.396 459.497  Z
  " fill="#009af9" fill-rule="evenodd" fill-opacity="1"/>
<polyline clip-path="url(#clip952)" style="stroke:#000000; stroke-width:3.99997; stroke-opacity:1; fill:none" points="
  914.396,459.497 908.578,449.417 896.941,449.417 891.123,459.497 896.941,469.576 908.578,469.576 914.396,459.497 
  "/>
<path clip-path="url(#clip952)" d="
M708.106 410.175 L695.561 388.443 L670.47 388.443 L657.925 410.175 L670.47 431.908 L695.561 431.908 L708.106 410.175 L708.106 410.175  Z
  " fill="#009af9" fill-rule="evenodd" fill-opacity="1"/>
<polyline clip-path="url(#clip952)" style="stroke:#000000; stroke-width:3.99997; stroke-opacity:1; fill:none" points="
  708.106,410.175 695.561,388.443 670.47,388.443 657.925,410.175 670.47,431.908 695.561,431.908 708.106,410.175 
  "/>
<path clip-path="url(#clip952)" d="
M408.076 421.712 L402.118 411.392 L390.204 411.392 L384.247 421.712 L390.204 432.032 L402.118 432.032 L408.076 421.712 L408.076 421.712  Z
  " fill="#009af9" fill-rule="evenodd" fill-opacity="1"/>
<polyline clip-path="url(#clip952)" style="stroke:#000000; stroke-width:3.99997; stroke-opacity:1; fill:none" points="
  408.076,421.712 402.118,411.392 390.204,411.392 384.247,421.712 390.204,432.032 402.118,432.032 408.076,421.712 408.076,421.712 
  "/>
<circle clip-path="url(#clip952)" style="fill:#009af9; stroke:none; fill-opacity:1" cx="466.687" cy="282.127" r="2"/>
<circle clip-path="url(#clip952)" style="fill:#009af9; stroke:none; fill-opacity:1" cx="542.386" cy="664.708" r="2"/>
<circle clip-path="url(#clip952)" style="fill:#009af9; stroke:none; fill-opacity:1" cx="690.073" cy="596.222" r="2"/>
<circle clip-path="url(#clip952)" style="fill:#009af9; stroke:none; fill-opacity:1" cx="732.206" cy="568.567" r="2"/>
<circle clip-path="url(#clip952)" style="fill:#009af9; stroke:none; fill-opacity:1" cx="470.215" cy="412.242" r="2"/>
<circle clip-path="url(#clip952)" style="fill:#009af9; stroke:none; fill-opacity:1" cx="779.611" cy="280.483" r="2"/>
<circle clip-path="url(#clip952)" style="fill:#009af9; stroke:none; fill-opacity:1" cx="611.818" cy="264.581" r="2"/>
<circle clip-path="url(#clip952)" style="fill:#009af9; stroke:none; fill-opacity:1" cx="534.993" cy="485.013" r="2"/>
<circle clip-path="url(#clip952)" style="fill:#009af9; stroke:none; fill-opacity:1" cx="398.116" cy="512.253" r="2"/>
<circle clip-path="url(#clip952)" style="fill:#009af9; stroke:none; fill-opacity:1" cx="392.494" cy="363.42" r="2"/>
<circle clip-path="url(#clip952)" style="fill:#009af9; stroke:none; fill-opacity:1" cx="508.022" cy="552.994" r="2"/>
<circle clip-path="url(#clip952)" style="fill:#009af9; stroke:none; fill-opacity:1" cx="559.324" cy="328.759" r="2"/>
<circle clip-path="url(#clip952)" style="fill:#009af9; stroke:none; fill-opacity:1" cx="614.101" cy="458.768" r="2"/>
<circle clip-path="url(#clip952)" style="fill:#009af9; stroke:none; fill-opacity:1" cx="812.187" cy="437.767" r="2"/>
<circle clip-path="url(#clip952)" style="fill:#009af9; stroke:none; fill-opacity:1" cx="832.395" cy="521.174" r="2"/>
<circle clip-path="url(#clip952)" style="fill:#009af9; stroke:none; fill-opacity:1" cx="726.327" cy="451.205" r="2"/>
<circle clip-path="url(#clip952)" style="fill:#009af9; stroke:none; fill-opacity:1" cx="906.961" cy="368.626" r="2"/>
<circle clip-path="url(#clip952)" style="fill:#009af9; stroke:none; fill-opacity:1" cx="594.83" cy="150.154" r="2"/>
<circle clip-path="url(#clip952)" style="fill:#009af9; stroke:none; fill-opacity:1" cx="604.509" cy="356.94" r="2"/>
<circle clip-path="url(#clip952)" style="fill:#009af9; stroke:none; fill-opacity:1" cx="710.426" cy="319.02" r="2"/>
<circle clip-path="url(#clip952)" style="fill:#009af9; stroke:none; fill-opacity:1" cx="613.99" cy="530.799" r="2"/>
<circle clip-path="url(#clip952)" style="fill:#009af9; stroke:none; fill-opacity:1" cx="902.76" cy="459.497" r="2"/>
<circle clip-path="url(#clip952)" style="fill:#009af9; stroke:none; fill-opacity:1" cx="683.016" cy="410.175" r="2"/>
<circle clip-path="url(#clip952)" style="fill:#009af9; stroke:none; fill-opacity:1" cx="396.161" cy="421.712" r="2"/>
</svg>
