<?xml version="1.0" encoding="utf-8"?>
<svg xmlns="http://www.w3.org/2000/svg" xmlns:xlink="http://www.w3.org/1999/xlink" width="317.75" height="209.75" viewBox="0 0 1271 839">
<defs>
  <clipPath id="clip060">
    <rect x="0" y="0" width="1271" height="839"/>
  </clipPath>
</defs>
<path clip-path="url(#clip060)" d="
M0 839 L1271 839 L1271 -1.13687e-13 L0 -1.13687e-13  Z
  " fill="#ffffff" fill-rule="evenodd" fill-opacity="1"/>
<defs>
  <clipPath id="clip061">
    <rect x="254" y="0" width="891" height="839"/>
  </clipPath>
</defs>
<path clip-path="url(#clip060)" d="
M289.6 767.618 L1009.85 767.618 L1009.85 47.2437 L289.6 47.2437  Z
  " fill="#ffffff" fill-rule="evenodd" fill-opacity="1"/>
<defs>
  <clipPath id="clip062">
    <rect x="289" y="47" width="721" height="721"/>
  </clipPath>
</defs>
<polyline clip-path="url(#clip062)" style="stroke:#000000; stroke-width:3.99997; stroke-opacity:1; fill:none" points="
  486.809,503.721 489.291,500.364 491.767,497.005 494.233,493.643 496.684,490.278 499.115,486.907 501.52,483.53 503.895,480.145 506.234,476.751 508.532,473.347 
  510.785,469.931 512.987,466.502 515.133,463.059 517.217,459.6 519.236,456.124 521.184,452.63 523.055,449.117 524.845,445.583 526.549,442.026 528.161,438.447 
  529.676,434.843 531.09,431.212 532.397,427.555 533.592,423.869 534.67,420.153 535.626,416.406 536.461,412.628 537.179,408.82 537.784,404.983 538.283,401.12 
  538.681,397.23 538.981,393.315 539.19,389.378 539.313,385.418 539.355,381.437 539.32,377.437 539.214,373.419 539.041,369.384 538.808,365.333 538.519,361.268 
  538.179,357.19 537.793,353.1 537.367,349 536.905,344.891 536.412,340.774 535.895,336.651 535.356,332.522 534.803,328.39 534.239,324.255 533.67,320.118 
  
  "/>
<polyline clip-path="url(#clip062)" style="stroke:#000000; stroke-width:3.99997; stroke-opacity:1; fill:none" points="
  486.809,503.721 489.039,502.824 491.264,501.924 493.48,501.02 495.682,500.108 497.865,499.187 500.024,498.254 502.156,497.306 504.255,496.342 506.317,495.358 
  508.337,494.353 510.31,493.324 512.231,492.268 514.097,491.184 515.902,490.069 517.641,488.92 519.311,487.735 520.906,486.512 522.421,485.248 523.853,483.941 
  525.196,482.588 526.445,481.187 527.597,479.737 528.645,478.233 529.586,476.674 530.416,475.058 531.134,473.384 531.744,471.656 532.251,469.874 532.661,468.042 
  532.977,466.163 533.204,464.237 533.348,462.269 533.412,460.26 533.401,458.212 533.321,456.129 533.174,454.012 532.968,451.864 532.705,449.687 532.391,447.483 
  532.03,445.256 531.627,443.007 531.187,440.739 530.714,438.455 530.213,436.156 529.689,433.844 529.146,431.524 528.59,429.196 528.023,426.863 527.453,424.528 
  
  "/>
<polyline clip-path="url(#clip062)" style="stroke:#000000; stroke-width:3.99997; stroke-opacity:1; fill:none" points="
  486.809,503.721 487.951,507.209 489.096,510.692 490.249,514.169 491.413,517.634 492.592,521.085 493.791,524.518 495.012,527.93 496.26,531.316 497.539,534.673 
  498.851,537.998 500.202,541.286 501.594,544.535 503.033,547.74 504.52,550.898 506.061,554.006 507.659,557.06 509.318,560.055 511.041,562.99 512.833,565.859 
  514.698,568.659 516.638,571.387 518.658,574.039 520.762,576.612 522.954,579.102 525.236,581.505 527.61,583.821 530.071,586.054 532.616,588.208 535.241,590.286 
  537.942,592.291 540.715,594.228 543.556,596.1 546.463,597.91 549.43,599.662 552.454,601.361 555.532,603.008 558.659,604.609 561.831,606.166 565.046,607.683 
  568.298,609.165 571.585,610.613 574.902,612.033 578.246,613.428 581.613,614.801 584.998,616.155 588.399,617.496 591.812,618.825 595.231,620.147 598.655,621.466 
  
  "/>
<polyline clip-path="url(#clip062)" style="stroke:#000000; stroke-width:3.99997; stroke-opacity:1; fill:none" points="
  486.809,503.721 488.559,505.425 490.309,507.123 492.06,508.81 493.812,510.482 495.566,512.133 497.321,513.758 499.079,515.352 500.839,516.908 502.602,518.423 
  504.369,519.891 506.14,521.306 507.914,522.664 509.693,523.959 511.477,525.186 513.266,526.34 515.061,527.415 516.861,528.406 518.668,529.309 520.482,530.117 
  522.303,530.826 524.132,531.43 525.968,531.924 527.812,532.302 529.665,532.561 531.527,532.694 533.398,532.702 535.278,532.589 537.166,532.361 539.061,532.023 
  540.964,531.58 542.875,531.038 544.792,530.402 546.715,529.677 548.644,528.868 550.579,527.98 552.519,527.019 554.464,525.991 556.414,524.899 558.367,523.75 
  560.325,522.548 562.285,521.299 564.249,520.008 566.215,518.681 568.184,517.322 570.154,515.938 572.126,514.532 574.099,513.11 576.073,511.678 578.047,510.241 
  
  "/>
<polyline clip-path="url(#clip062)" style="stroke:#000000; stroke-width:3.99997; stroke-opacity:1; fill:none" points="
  666.663,150.154 665.268,153.251 663.879,156.348 662.5,159.443 661.137,162.538 659.795,165.632 658.479,168.724 657.195,171.815 655.947,174.903 654.741,177.988 
  653.583,181.071 652.476,184.151 651.428,187.227 650.442,190.3 649.524,193.369 648.68,196.433 647.914,199.493 647.232,202.548 646.639,205.597 646.14,208.641 
  645.741,211.68 645.447,214.712 645.262,217.737 645.193,220.756 645.245,223.767 645.422,226.772 645.724,229.768 646.147,232.758 646.685,235.741 647.333,238.718 
  648.086,241.688 648.938,244.652 649.885,247.611 650.921,250.565 652.04,253.514 653.239,256.458 654.51,259.397 655.85,262.333 657.252,265.265 658.712,268.194 
  660.225,271.12 661.784,274.042 663.386,276.963 665.024,279.881 666.694,282.797 668.389,285.712 670.106,288.625 671.839,291.538 673.581,294.45 675.33,297.362 
  
  "/>
<polyline clip-path="url(#clip062)" style="stroke:#000000; stroke-width:3.99997; stroke-opacity:1; fill:none" points="
  818.868,350.273 819.07,354.348 819.268,358.421 819.455,362.491 819.628,366.556 819.781,370.613 819.91,374.662 820.008,378.699 820.072,382.725 820.097,386.736 
  820.077,390.731 820.008,394.708 819.885,398.665 819.702,402.602 819.456,406.515 819.14,410.403 818.75,414.264 818.281,418.097 817.728,421.899 817.087,425.67 
  816.351,429.406 815.517,433.107 814.579,436.771 813.533,440.395 812.373,443.978 811.095,447.519 809.699,451.017 808.189,454.474 806.57,457.891 804.848,461.272 
  803.027,464.616 801.113,467.927 799.109,471.206 797.022,474.454 794.856,477.674 792.615,480.867 790.306,484.035 787.932,487.18 785.499,490.304 783.012,493.408 
  780.476,496.494 777.895,499.564 775.274,502.62 772.619,505.663 769.935,508.696 767.226,511.72 764.497,514.737 761.753,517.748 758.999,520.756 756.241,523.762 
  
  "/>
<polyline clip-path="url(#clip062)" style="stroke:#000000; stroke-width:3.99997; stroke-opacity:1; fill:none" points="
  818.868,350.273 820.075,352.314 821.277,354.353 822.469,356.391 823.645,358.426 824.801,360.457 825.931,362.483 827.03,364.503 828.093,366.515 829.115,368.52 
  830.09,370.516 831.014,372.502 831.881,374.477 832.687,376.439 833.425,378.389 834.091,380.325 834.681,382.246 835.187,384.15 835.606,386.038 835.933,387.908 
  836.161,389.759 836.286,391.589 836.304,393.399 836.208,395.187 835.993,396.952 835.655,398.692 835.194,400.409 834.614,402.103 833.921,403.775 833.119,405.425 
  832.215,407.056 831.213,408.668 830.118,410.262 828.935,411.838 827.67,413.399 826.328,414.945 824.914,416.476 823.432,417.995 821.889,419.502 820.289,420.998 
  818.638,422.483 816.94,423.96 815.202,425.429 813.427,426.89 811.621,428.346 809.789,429.797 807.937,431.243 806.069,432.687 804.191,434.129 802.308,435.569 
  
  "/>
<polyline clip-path="url(#clip062)" style="stroke:#000000; stroke-width:3.99997; stroke-opacity:1; fill:none" points="
  818.868,350.273 815.394,350.67 811.922,351.063 808.454,351.445 804.991,351.813 801.536,352.161 798.089,352.484 794.654,352.778 791.231,353.038 787.823,353.258 
  784.431,353.434 781.057,353.56 777.703,353.632 774.371,353.646 771.062,353.595 767.779,353.475 764.523,353.282 761.296,353.009 758.1,352.653 754.937,352.208 
  751.808,351.67 748.715,351.033 745.661,350.293 742.646,349.444 739.673,348.482 736.744,347.403 733.858,346.205 731.014,344.894 728.21,343.474 725.444,341.952 
  722.714,340.33 720.019,338.615 717.356,336.812 714.724,334.925 712.121,332.959 709.546,330.919 706.996,328.81 704.469,326.637 701.964,324.405 699.479,322.119 
  697.013,319.784 694.562,317.404 692.126,314.985 689.703,312.531 687.291,310.048 684.888,307.54 682.492,305.013 680.102,302.471 677.715,299.919 675.33,297.362 
  
  "/>
<polyline clip-path="url(#clip062)" style="stroke:#000000; stroke-width:3.99997; stroke-opacity:1; fill:none" points="
  809.021,301.678 811.88,299.407 814.721,297.143 817.525,294.891 820.274,292.658 822.95,290.45 825.534,288.274 828.009,286.136 830.355,284.042 832.554,281.999 
  834.589,280.013 836.441,278.09 838.091,276.237 839.523,274.46 840.737,272.764 841.742,271.151 842.546,269.627 843.157,268.194 843.585,266.858 843.838,265.62 
  843.924,264.486 843.852,263.459 843.631,262.543 843.269,261.741 842.774,261.058 842.155,260.498 841.42,260.065 840.574,259.767 839.621,259.61 838.569,259.602 
  837.422,259.749 836.185,260.059 834.865,260.538 833.467,261.194 831.997,262.033 830.459,263.063 828.859,264.29 827.204,265.721 825.498,267.356 823.745,269.178 
  821.949,271.172 820.116,273.32 818.248,275.604 816.351,278.009 814.429,280.516 812.485,283.108 810.524,285.769 808.551,288.481 806.569,291.227 804.583,293.991 
  
  "/>
<polyline clip-path="url(#clip062)" style="stroke:#000000; stroke-width:3.99997; stroke-opacity:1; fill:none" points="
  792.113,313.451 791.972,317.283 791.836,321.113 791.709,324.94 791.598,328.76 791.505,332.572 791.437,336.375 791.398,340.166 791.393,343.943 791.427,347.704 
  791.505,351.447 791.632,355.17 791.811,358.872 792.05,362.55 792.351,366.202 792.72,369.827 793.163,373.422 793.683,376.985 794.285,380.515 794.976,384.009 
  795.758,387.466 796.638,390.883 797.62,394.258 798.709,397.59 799.909,400.877 801.226,404.116 802.66,407.308 804.205,410.454 805.858,413.557 807.612,416.618 
  809.463,419.64 811.407,422.624 813.439,425.573 815.553,428.488 817.745,431.371 820.009,434.225 822.342,437.051 824.738,439.851 827.193,442.628 829.7,445.383 
  832.257,448.118 834.857,450.835 837.496,453.537 840.169,456.224 842.871,458.9 845.598,461.566 848.344,464.224 851.104,466.876 853.875,469.524 856.65,472.17 
  
  "/>
<polyline clip-path="url(#clip062)" style="stroke:#000000; stroke-width:3.99997; stroke-opacity:1; fill:none" points="
  792.113,313.451 790.753,316.074 789.397,318.697 788.052,321.319 786.723,323.939 785.415,326.558 784.133,329.175 782.882,331.789 781.668,334.4 780.496,337.007 
  779.371,339.611 778.298,342.21 777.283,344.804 776.33,347.394 775.445,349.977 774.634,352.554 773.901,355.125 773.252,357.689 772.691,360.245 772.225,362.794 
  771.858,365.334 771.596,367.866 771.443,370.388 771.406,372.901 771.488,375.403 771.696,377.896 772.03,380.377 772.483,382.849 773.052,385.311 773.731,387.764 
  774.514,390.208 775.396,392.644 776.373,395.072 777.438,397.493 778.587,399.906 779.815,402.313 781.115,404.714 782.484,407.11 783.916,409.5 785.405,411.885 
  786.946,414.266 788.534,416.643 790.165,419.016 791.831,421.387 793.53,423.754 795.254,426.12 796.999,428.484 798.76,430.846 800.532,433.208 802.308,435.569 
  
  "/>
<polyline clip-path="url(#clip062)" style="stroke:#000000; stroke-width:3.99997; stroke-opacity:1; fill:none" points="
  792.113,313.451 791.768,316.436 791.419,319.417 791.061,322.393 790.691,325.358 790.305,328.311 789.898,331.247 789.467,334.164 789.006,337.058 788.512,339.926 
  787.982,342.765 787.41,345.571 786.793,348.342 786.126,351.074 785.405,353.763 784.627,356.407 783.787,359.003 782.881,361.547 781.905,364.035 780.855,366.465 
  779.726,368.833 778.515,371.137 777.217,373.372 775.829,375.536 774.345,377.626 772.763,379.637 771.082,381.571 769.306,383.43 767.44,385.218 765.487,386.938 
  763.451,388.592 761.337,390.185 759.149,391.72 756.89,393.2 754.566,394.627 752.18,396.006 749.736,397.34 747.238,398.631 744.691,399.883 742.099,401.1 
  739.465,402.284 736.794,403.439 734.09,404.568 731.358,405.675 728.6,406.761 725.822,407.832 723.028,408.89 720.221,409.938 717.405,410.979 714.586,412.017 
  
  "/>
<polyline clip-path="url(#clip062)" style="stroke:#000000; stroke-width:3.99997; stroke-opacity:1; fill:none" points="
  792.113,313.451 789.515,314.682 786.917,315.908 784.322,317.124 781.728,318.324 779.137,319.503 776.549,320.656 773.966,321.778 771.388,322.864 768.816,323.908 
  766.25,324.905 763.691,325.85 761.14,326.738 758.598,327.564 756.065,328.322 753.542,329.007 751.03,329.615 748.529,330.139 746.041,330.575 743.565,330.917 
  741.103,331.16 738.655,331.299 736.223,331.33 733.806,331.245 731.405,331.042 729.022,330.713 726.656,330.26 724.306,329.688 721.972,329.001 719.653,328.205 
  717.348,327.305 715.057,326.306 712.779,325.214 710.513,324.033 708.259,322.769 706.015,321.427 703.781,320.012 701.557,318.53 699.341,316.985 697.133,315.383 
  694.933,313.729 692.738,312.028 690.55,310.286 688.366,308.507 686.187,306.697 684.011,304.861 681.838,303.005 679.667,301.132 677.498,299.25 675.33,297.362 
  
  "/>
<polyline clip-path="url(#clip062)" style="stroke:#000000; stroke-width:3.99997; stroke-opacity:1; fill:none" points="
  533.67,320.118 534.599,322.584 535.53,325.046 536.467,327.498 537.412,329.937 538.369,332.359 539.34,334.758 540.327,337.131 541.335,339.473 542.365,341.78 
  543.421,344.047 544.506,346.27 545.621,348.444 546.77,350.565 547.956,352.629 549.182,354.631 550.45,356.566 551.764,358.431 553.126,360.221 554.539,361.931 
  556.005,363.558 557.529,365.096 559.111,366.541 560.756,367.889 562.467,369.135 564.245,370.276 566.091,371.311 568.002,372.244 569.975,373.08 572.008,373.823 
  574.098,374.478 576.241,375.048 578.436,375.54 580.678,375.956 582.966,376.302 585.297,376.581 587.667,376.798 590.074,376.958 592.515,377.065 594.987,377.124 
  597.487,377.138 600.013,377.112 602.561,377.051 605.13,376.96 607.715,376.841 610.315,376.701 612.926,376.543 615.545,376.372 618.17,376.191 620.798,376.007 
  
  "/>
<polyline clip-path="url(#clip062)" style="stroke:#000000; stroke-width:3.99997; stroke-opacity:1; fill:none" points="
  533.67,320.118 536.811,321.208 539.951,322.293 543.089,323.368 546.224,324.426 549.357,325.465 552.485,326.477 555.608,327.458 558.725,328.403 561.836,329.306 
  564.939,330.163 568.034,330.968 571.12,331.716 574.195,332.401 577.26,333.02 580.314,333.566 583.354,334.034 586.382,334.419 589.395,334.716 592.393,334.92 
  595.376,335.025 598.342,335.027 601.29,334.92 604.22,334.699 607.131,334.359 610.022,333.894 612.893,333.306 615.745,332.598 618.579,331.776 621.395,330.846 
  624.195,329.811 626.978,328.679 629.747,327.453 632.502,326.139 635.243,324.742 637.972,323.267 640.689,321.72 643.395,320.105 646.091,318.428 648.778,316.695 
  651.457,314.909 654.129,313.077 656.793,311.203 659.452,309.293 662.106,307.352 664.756,305.385 667.402,303.397 670.046,301.394 672.688,299.381 675.33,297.362 
  
  "/>
<polyline clip-path="url(#clip062)" style="stroke:#000000; stroke-width:3.99997; stroke-opacity:1; fill:none" points="
  730.641,280.234 730.395,283.953 730.144,287.67 729.884,291.382 729.61,295.086 729.318,298.78 729.002,302.461 728.659,306.128 728.284,309.776 727.872,313.405 
  727.419,317.01 726.92,320.591 726.37,324.143 725.765,327.665 725.1,331.155 724.371,334.609 723.572,338.025 722.701,341.401 721.75,344.733 720.718,348.021 
  719.597,351.26 718.385,354.449 717.076,357.585 715.666,360.665 714.151,363.687 712.525,366.648 710.788,369.549 708.946,372.392 707.003,375.18 704.963,377.914 
  702.832,380.598 700.612,383.233 698.31,385.824 695.93,388.371 693.477,390.878 690.954,393.347 688.367,395.781 685.72,398.181 683.018,400.552 680.265,402.895 
  677.466,405.212 674.626,407.507 671.749,409.781 668.84,412.038 665.903,414.28 662.944,416.509 659.966,418.728 656.974,420.939 653.973,423.145 650.967,425.349 
  
  "/>
<polyline clip-path="url(#clip062)" style="stroke:#000000; stroke-width:3.99997; stroke-opacity:1; fill:none" points="
  730.641,280.234 732.701,283.411 734.764,286.584 736.832,289.747 738.909,292.898 740.997,296.03 743.099,299.141 745.218,302.225 747.357,305.278 749.518,308.296 
  751.705,311.273 753.919,314.207 756.165,317.092 758.445,319.923 760.761,322.697 763.117,325.409 765.515,328.055 767.958,330.63 770.449,333.129 772.99,335.549 
  775.585,337.885 778.237,340.132 780.947,342.286 783.72,344.343 786.557,346.298 789.462,348.146 792.435,349.889 795.472,351.53 798.571,353.073 801.729,354.524 
  804.944,355.886 808.212,357.164 811.531,358.362 814.898,359.485 818.31,360.536 821.764,361.522 825.257,362.446 828.788,363.312 832.352,364.124 835.947,364.889 
  839.57,365.608 843.218,366.289 846.889,366.933 850.58,367.547 854.288,368.134 858.01,368.699 861.743,369.246 865.484,369.78 869.231,370.305 872.981,370.825 
  
  "/>
<polyline clip-path="url(#clip062)" style="stroke:#000000; stroke-width:3.99997; stroke-opacity:1; fill:none" points="
  730.641,280.234 729.434,283.375 728.223,286.513 727.005,289.642 725.777,292.759 724.535,295.861 723.276,298.943 721.996,302.001 720.692,305.032 719.361,308.03 
  717.998,310.994 716.601,313.917 715.166,316.797 713.69,319.63 712.169,322.411 710.599,325.137 708.978,327.803 707.302,330.407 705.567,332.943 703.77,335.407 
  701.907,337.797 699.976,340.107 697.972,342.335 695.892,344.475 693.733,346.524 691.491,348.479 689.167,350.339 686.763,352.107 684.284,353.789 681.732,355.388 
  679.111,356.907 676.425,358.352 673.676,359.725 670.869,361.031 668.007,362.273 665.093,363.457 662.131,364.584 659.124,365.661 656.075,366.69 652.989,367.675 
  649.868,368.621 646.716,369.532 643.537,370.41 640.333,371.261 637.109,372.088 633.867,372.896 630.612,373.687 627.346,374.467 624.074,375.239 620.798,376.007 
  
  "/>
<polyline clip-path="url(#clip062)" style="stroke:#000000; stroke-width:3.99997; stroke-opacity:1; fill:none" points="
  527.453,424.528 529.963,426.119 532.473,427.705 534.983,429.28 537.494,430.839 540.004,432.378 542.515,433.89 545.026,435.371 547.537,436.815 550.049,438.217 
  552.561,439.572 555.073,440.874 557.585,442.119 560.098,443.301 562.612,444.414 565.126,445.454 567.64,446.415 570.155,447.293 572.671,448.081 575.187,448.774 
  577.704,449.368 580.221,449.857 582.74,450.236 585.259,450.499 587.779,450.641 590.299,450.658 592.821,450.549 595.343,450.319 597.866,449.974 600.39,449.519 
  602.915,448.959 605.44,448.298 607.966,447.544 610.492,446.7 613.019,445.773 615.547,444.766 618.075,443.686 620.603,442.538 623.132,441.327 625.661,440.058 
  628.191,438.737 630.721,437.368 633.251,435.958 635.781,434.51 638.312,433.032 640.843,431.527 643.374,430.001 645.905,428.459 648.436,426.907 650.967,425.349 
  
  "/>
<polyline clip-path="url(#clip062)" style="stroke:#000000; stroke-width:3.99997; stroke-opacity:1; fill:none" points="
  527.453,424.528 524.428,425.599 521.405,426.665 518.383,427.721 515.364,428.761 512.349,429.781 509.338,430.775 506.333,431.737 503.334,432.664 500.342,433.549 
  497.358,434.387 494.383,435.174 491.419,435.904 488.465,436.572 485.522,437.173 482.592,437.701 479.676,438.152 476.774,438.52 473.888,438.8 471.017,438.987 
  468.164,439.076 465.329,439.062 462.513,438.939 459.716,438.702 456.94,438.346 454.186,437.866 451.453,437.263 448.741,436.54 446.049,435.704 443.376,434.759 
  440.721,433.711 438.082,432.564 435.46,431.325 432.854,429.997 430.262,428.587 427.683,427.1 425.117,425.539 422.562,423.912 420.019,422.223 417.485,420.476 
  414.96,418.678 412.443,416.834 409.934,414.948 407.431,413.026 404.933,411.073 402.44,409.094 399.95,407.094 397.463,405.079 394.978,403.054 392.494,401.023 
  
  "/>
<polyline clip-path="url(#clip062)" style="stroke:#000000; stroke-width:3.99997; stroke-opacity:1; fill:none" points="
  527.453,424.528 530.083,424.935 532.712,425.337 535.335,425.729 537.952,426.108 540.559,426.468 543.153,426.805 545.733,427.114 548.296,427.39 550.84,427.629 
  553.362,427.826 555.86,427.977 558.331,428.076 560.773,428.119 563.184,428.102 565.561,428.02 567.901,427.868 570.203,427.641 572.463,427.335 574.68,426.946 
  576.852,426.468 578.974,425.896 581.046,425.227 583.065,424.456 585.028,423.577 586.933,422.587 588.78,421.485 590.571,420.276 592.309,418.965 593.997,417.555 
  595.636,416.053 597.228,414.462 598.778,412.788 600.286,411.034 601.756,409.206 603.189,407.308 604.588,405.344 605.956,403.32 607.295,401.241 608.607,399.11 
  609.895,396.932 611.161,394.713 612.408,392.456 613.638,390.167 614.854,387.849 616.057,385.509 617.251,383.15 618.437,380.776 619.619,378.394 620.798,376.007 
  
  "/>
<polyline clip-path="url(#clip062)" style="stroke:#000000; stroke-width:3.99997; stroke-opacity:1; fill:none" points="
  527.453,424.528 529.819,426.954 532.187,429.375 534.558,431.787 536.934,434.183 539.316,436.559 541.707,438.91 544.107,441.232 546.519,443.518 548.943,445.765 
  551.383,447.966 553.838,450.118 556.312,452.215 558.805,454.252 561.319,456.224 563.855,458.126 566.417,459.954 569.004,461.701 571.619,463.364 574.263,464.937 
  576.937,466.415 579.645,467.793 582.386,469.066 585.164,470.23 587.978,471.279 590.832,472.208 593.724,473.017 596.654,473.712 599.62,474.298 602.619,474.778 
  605.651,475.158 608.714,475.444 611.807,475.64 614.927,475.751 618.073,475.782 621.243,475.738 624.436,475.625 627.65,475.446 630.884,475.208 634.135,474.915 
  637.403,474.572 640.685,474.184 643.98,473.756 647.287,473.293 650.604,472.8 653.928,472.282 657.259,471.745 660.595,471.192 663.935,470.629 667.275,470.062 
  
  "/>
<polyline clip-path="url(#clip062)" style="stroke:#000000; stroke-width:3.99997; stroke-opacity:1; fill:none" points="
  666.611,610.037 665.292,613.308 663.986,616.564 662.707,619.793 661.468,622.981 660.282,626.113 659.162,629.177 658.122,632.158 657.175,635.043 656.334,637.817 
  655.613,640.467 655.025,642.979 654.583,645.34 654.299,647.537 654.169,649.565 654.183,651.423 654.331,653.113 654.601,654.634 654.982,655.986 655.465,657.168 
  656.038,658.182 656.69,659.026 657.411,659.701 658.19,660.206 659.016,660.542 659.879,660.709 660.768,660.703 661.673,660.522 662.585,660.16 663.492,659.613 
  664.386,658.877 665.257,657.947 666.094,656.819 666.887,655.489 667.627,653.953 668.303,652.205 668.906,650.241 669.426,648.058 669.858,645.658 670.209,643.057 
  670.485,640.274 670.695,637.328 670.845,634.235 670.943,631.015 670.997,627.686 671.014,624.266 671.002,620.772 670.967,617.224 670.917,613.64 670.86,610.037 
  
  "/>
<polyline clip-path="url(#clip062)" style="stroke:#000000; stroke-width:3.99997; stroke-opacity:1; fill:none" points="
  670.708,599.718 671.469,602.291 672.233,604.861 673.004,607.422 673.785,609.97 674.578,612.502 675.388,615.014 676.216,617.5 677.067,619.957 677.944,622.381 
  678.849,624.767 679.787,627.112 680.759,629.411 681.77,631.661 682.823,633.856 683.921,635.993 685.066,638.067 686.263,640.075 687.514,642.013 688.823,643.875 
  690.193,645.659 691.627,647.359 693.128,648.972 694.699,650.494 696.344,651.92 698.066,653.246 699.864,654.473 701.736,655.604 703.679,656.643 705.689,657.596 
  707.763,658.465 709.897,659.255 712.09,659.97 714.337,660.615 716.635,661.193 718.981,661.709 721.371,662.166 723.804,662.569 726.275,662.923 728.781,663.231 
  731.319,663.497 733.886,663.726 736.479,663.921 739.094,664.088 741.728,664.229 744.378,664.35 747.041,664.454 749.714,664.545 752.393,664.629 755.075,664.708 
  
  "/>
<polyline clip-path="url(#clip062)" style="stroke:#000000; stroke-width:3.99997; stroke-opacity:1; fill:none" points="
  670.708,599.718 673.136,596.245 675.559,592.772 677.972,589.296 680.369,585.817 682.746,582.333 685.098,578.843 687.419,575.345 689.704,571.84 691.948,568.324 
  694.146,564.799 696.293,561.261 698.384,557.71 700.414,554.144 702.377,550.563 704.269,546.966 706.084,543.35 707.817,539.715 709.463,536.06 711.018,532.384 
  712.475,528.684 713.83,524.961 715.078,521.213 716.213,517.439 717.231,513.637 718.127,509.806 718.9,505.947 719.555,502.06 720.099,498.147 720.534,494.209 
  720.868,490.247 721.105,486.262 721.249,482.256 721.307,478.229 721.283,474.184 721.182,470.12 721.01,466.04 720.771,461.944 720.471,457.834 720.115,453.711 
  719.708,449.575 719.255,445.429 718.76,441.274 718.231,437.11 717.67,432.939 717.084,428.762 716.477,424.58 715.855,420.394 715.223,416.206 714.586,412.017 
  
  "/>
<polyline clip-path="url(#clip062)" style="stroke:#000000; stroke-width:3.99997; stroke-opacity:1; fill:none" points="
  670.708,599.718 669.064,597.113 667.426,594.509 665.798,591.904 664.186,589.299 662.595,586.693 661.03,584.087 659.497,581.479 658,578.871 656.545,576.262 
  655.138,573.651 653.783,571.039 652.486,568.425 651.251,565.81 650.085,563.193 648.992,560.574 647.978,557.953 647.048,555.33 646.207,552.704 645.461,550.076 
  644.814,547.445 644.272,544.812 643.84,542.175 643.524,539.536 643.328,536.893 643.258,534.247 643.314,531.598 643.49,528.945 643.782,526.29 644.183,523.631 
  644.69,520.97 645.297,518.306 645.998,515.639 646.788,512.97 647.662,510.299 648.614,507.626 649.64,504.951 650.734,502.274 651.892,499.596 653.107,496.916 
  654.374,494.234 655.689,491.552 657.045,488.868 658.438,486.183 659.863,483.497 661.314,480.811 662.786,478.124 664.274,475.437 665.772,472.749 667.275,470.062 
  
  "/>
<polyline clip-path="url(#clip062)" style="stroke:#000000; stroke-width:3.99997; stroke-opacity:1; fill:none" points="
  754.759,654.148 754.905,658.835 755.056,663.495 755.221,668.101 755.404,672.625 755.612,677.04 755.851,681.319 756.128,685.434 756.449,689.359 756.82,693.067 
  757.247,696.529 757.736,699.719 758.295,702.609 758.927,705.176 759.629,707.419 760.391,709.353 761.204,710.99 762.059,712.345 762.945,713.43 763.854,714.259 
  764.775,714.846 765.701,715.204 766.621,715.347 767.525,715.288 768.405,715.041 769.252,714.619 770.054,714.034 770.802,713.295 771.485,712.41 772.094,711.39 
  772.616,710.244 773.043,708.98 773.364,707.609 773.568,706.139 773.645,704.579 773.585,702.939 773.377,701.228 773.01,699.455 772.483,697.628 771.806,695.752 
  770.994,693.831 770.06,691.87 769.018,689.873 767.881,687.845 766.662,685.79 765.376,683.712 764.035,681.617 762.654,679.508 761.245,677.39 759.823,675.268 
  
  "/>
<polyline clip-path="url(#clip062)" style="stroke:#000000; stroke-width:3.99997; stroke-opacity:1; fill:none" points="
  755.075,664.708 756.673,661.844 758.265,658.981 759.847,656.117 761.414,653.254 762.959,650.39 764.478,647.526 765.966,644.661 767.416,641.797 768.825,638.932 
  770.187,636.066 771.496,633.2 772.747,630.334 773.936,627.467 775.056,624.6 776.103,621.732 777.071,618.863 777.955,615.994 778.75,613.124 779.451,610.253 
  780.051,607.381 780.547,604.509 780.933,601.635 781.203,598.761 781.352,595.885 781.376,593.009 781.274,590.132 781.052,587.253 780.714,584.374 780.265,581.493 
  779.712,578.612 779.059,575.73 778.312,572.847 777.475,569.964 776.555,567.079 775.556,564.194 774.483,561.309 773.342,558.423 772.138,555.536 770.877,552.649 
  769.563,549.762 768.201,546.874 766.798,543.985 765.358,541.097 763.887,538.208 762.389,535.319 760.87,532.43 759.336,529.54 757.791,526.651 756.241,523.762 
  
  "/>
<polyline clip-path="url(#clip062)" style="stroke:#000000; stroke-width:3.99997; stroke-opacity:1; fill:none" points="
  755.075,664.708 752.571,662.815 750.072,660.919 747.583,659.02 745.108,657.115 742.653,655.201 740.222,653.278 737.82,651.342 735.451,649.392 733.122,647.425 
  730.836,645.441 728.598,643.436 726.413,641.408 724.287,639.356 722.223,637.278 720.227,635.171 718.304,633.034 716.458,630.864 714.695,628.66 713.018,626.419 
  711.433,624.139 709.945,621.818 708.559,619.455 707.279,617.047 706.11,614.593 705.057,612.089 704.12,609.537 703.295,606.938 702.575,604.294 701.958,601.607 
  701.437,598.88 701.007,596.114 700.665,593.312 700.406,590.475 700.223,587.605 700.113,584.705 700.071,581.776 700.092,578.821 700.171,575.841 700.303,572.839 
  700.483,569.817 700.707,566.776 700.97,563.719 701.266,560.648 701.592,557.565 701.941,554.471 702.31,551.37 702.694,548.262 703.087,545.15 703.485,542.036 
  
  "/>
<polyline clip-path="url(#clip062)" style="stroke:#000000; stroke-width:3.99997; stroke-opacity:1; fill:none" points="
  598.655,621.466 602.701,620.81 606.743,620.15 610.78,619.48 614.809,618.798 618.827,618.097 622.831,617.374 626.818,616.625 630.786,615.844 634.732,615.028 
  638.653,614.171 642.546,613.27 646.409,612.319 650.238,611.315 654.032,610.254 657.787,609.129 661.501,607.938 665.17,606.675 668.792,605.337 672.365,603.918 
  675.885,602.415 679.35,600.822 682.757,599.136 686.102,597.351 689.385,595.464 692.601,593.47 695.75,591.369 698.837,589.166 701.862,586.864 704.829,584.469 
  707.741,581.985 710.601,579.415 713.411,576.766 716.173,574.041 718.892,571.244 721.569,568.38 724.207,565.454 726.809,562.47 729.379,559.432 731.917,556.346 
  734.428,553.214 736.915,550.043 739.379,546.836 741.824,543.598 744.252,540.332 746.666,537.045 749.069,533.74 751.464,530.421 753.854,527.094 756.241,523.762 
  
  "/>
<polyline clip-path="url(#clip062)" style="stroke:#000000; stroke-width:3.99997; stroke-opacity:1; fill:none" points="
  856.65,472.17 855.32,474.624 853.987,477.072 852.65,479.511 851.306,481.936 849.952,484.343 848.586,486.726 847.206,489.081 845.809,491.404 844.393,493.689 
  842.955,495.932 841.493,498.128 840.005,500.274 838.488,502.363 836.94,504.391 835.358,506.354 833.741,508.247 832.085,510.065 830.388,511.804 828.648,513.459 
  826.862,515.025 825.029,516.498 823.145,517.873 821.209,519.145 819.217,520.31 817.168,521.363 815.061,522.304 812.899,523.137 810.685,523.868 808.42,524.501 
  806.107,525.041 803.749,525.492 801.347,525.859 798.905,526.146 796.424,526.359 793.907,526.501 791.357,526.579 788.776,526.596 786.166,526.556 783.529,526.466 
  780.869,526.328 778.187,526.149 775.485,525.932 772.767,525.683 770.035,525.405 767.29,525.105 764.536,524.785 761.775,524.452 759.009,524.109 756.241,523.762 
  
  "/>
<polyline clip-path="url(#clip062)" style="stroke:#000000; stroke-width:3.99997; stroke-opacity:1; fill:none" points="
  856.65,472.17 854.177,475.029 851.702,477.882 849.223,480.726 846.737,483.555 844.243,486.366 841.738,489.152 839.219,491.91 836.686,494.635 834.134,497.321 
  831.564,499.964 828.971,502.56 826.355,505.103 823.713,507.589 821.042,510.012 818.34,512.369 815.607,514.654 812.838,516.863 810.032,518.991 807.187,521.032 
  804.301,522.983 801.371,524.838 798.395,526.594 795.371,528.244 792.298,529.784 789.172,531.21 785.994,532.521 782.766,533.723 779.49,534.819 776.168,535.816 
  772.803,536.716 769.396,537.526 765.951,538.25 762.468,538.893 758.95,539.46 755.4,539.955 751.819,540.383 748.21,540.749 744.575,541.057 740.915,541.313 
  737.235,541.522 733.534,541.687 729.816,541.814 726.083,541.908 722.336,541.973 718.579,542.014 714.813,542.037 711.041,542.044 707.264,542.043 703.485,542.036 
  
  "/>
<polyline clip-path="url(#clip062)" style="stroke:#000000; stroke-width:3.99997; stroke-opacity:1; fill:none" points="
  650.967,425.349 652.041,428.508 653.118,431.662 654.202,434.809 655.297,437.945 656.407,441.065 657.534,444.166 658.683,447.244 659.857,450.295 661.06,453.316 
  662.295,456.302 663.565,459.25 664.875,462.155 666.228,465.014 667.628,467.824 669.078,470.58 670.582,473.278 672.143,475.916 673.764,478.487 675.451,480.99 
  677.205,483.42 679.031,485.774 680.933,488.047 682.913,490.235 684.976,492.335 687.124,494.344 689.358,496.26 691.675,498.089 694.07,499.833 696.541,501.496 
  699.084,503.083 701.694,504.597 704.369,506.042 707.105,507.422 709.898,508.74 712.745,510.001 715.643,511.208 718.586,512.365 721.573,513.477 724.599,514.546 
  727.661,515.577 730.756,516.573 733.878,517.539 737.026,518.478 740.196,519.393 743.383,520.29 746.585,521.171 749.798,522.041 753.017,522.903 756.241,523.762 
  
  "/>
<polyline clip-path="url(#clip062)" style="stroke:#000000; stroke-width:3.99997; stroke-opacity:1; fill:none" points="
  650.967,425.349 650.603,428.377 650.245,431.402 649.896,434.423 649.561,437.438 649.245,440.444 648.953,443.439 648.69,446.422 648.461,449.389 648.27,452.339 
  648.121,455.269 648.021,458.179 647.973,461.064 647.983,463.923 648.055,466.755 648.194,469.556 648.405,472.325 648.692,475.06 649.061,477.758 649.515,480.417 
  650.061,483.035 650.702,485.611 651.444,488.141 652.291,490.623 653.248,493.056 654.32,495.437 655.507,497.767 656.803,500.047 658.205,502.28 659.707,504.468 
  661.305,506.612 662.994,508.716 664.769,510.781 666.625,512.809 668.558,514.802 670.563,516.764 672.635,518.695 674.768,520.598 676.96,522.475 679.204,524.329 
  681.495,526.161 683.83,527.974 686.203,529.769 688.61,531.55 691.045,533.317 693.505,535.074 695.983,536.822 698.476,538.564 700.978,540.301 703.485,542.036 
  
  "/>
<polyline clip-path="url(#clip062)" style="stroke:#000000; stroke-width:3.99997; stroke-opacity:1; fill:none" points="
  756.241,523.762 756.395,525.827 756.552,527.888 756.716,529.941 756.889,531.981 757.075,534.004 757.276,536.006 757.495,537.982 757.736,539.929 758.003,541.842 
  758.297,543.717 758.622,545.55 758.981,547.336 759.377,549.071 759.814,550.751 760.294,552.372 760.821,553.929 761.397,555.419 762.027,556.837 762.712,558.179 
  763.456,559.44 764.262,560.616 765.133,561.704 766.072,562.699 767.083,563.596 768.168,564.392 769.328,565.086 770.559,565.683 771.858,566.187 773.222,566.602 
  774.648,566.933 776.134,567.183 777.675,567.356 779.269,567.458 780.912,567.492 782.602,567.463 784.336,567.374 786.11,567.231 787.921,567.036 789.766,566.795 
  791.642,566.512 793.546,566.191 795.475,565.835 797.426,565.451 799.396,565.04 801.38,564.609 803.378,564.16 805.384,563.699 807.397,563.23 809.413,562.756 
  
  "/>
<polyline clip-path="url(#clip062)" style="stroke:#000000; stroke-width:3.99997; stroke-opacity:1; fill:none" points="
  756.241,523.762 759.242,525.479 762.244,527.192 765.247,528.894 768.25,530.58 771.254,532.245 774.26,533.884 777.267,535.492 780.275,537.062 783.286,538.591 
  786.299,540.073 789.314,541.502 792.333,542.874 795.354,544.183 798.378,545.423 801.406,546.591 804.437,547.679 807.472,548.684 810.512,549.599 813.556,550.421 
  816.605,551.142 819.659,551.759 822.717,552.265 825.782,552.657 828.852,552.927 831.928,553.073 835.01,553.092 838.097,552.991 841.19,552.775 844.288,552.448 
  847.391,552.017 850.499,551.486 853.611,550.86 856.728,550.146 859.848,549.348 862.972,548.471 866.1,547.52 869.231,546.502 872.365,545.42 875.501,544.281 
  878.64,543.09 881.781,541.851 884.925,540.571 888.069,539.253 891.216,537.904 894.363,536.529 897.512,535.133 900.661,533.722 903.811,532.3 906.961,530.872 
  
  "/>
<polyline clip-path="url(#clip062)" style="stroke:#000000; stroke-width:3.99997; stroke-opacity:1; fill:none" points="
  756.241,523.762 753.612,524.013 750.985,524.261 748.365,524.499 745.752,524.724 743.15,524.931 740.562,525.116 737.99,525.273 735.437,525.4 732.906,525.49 
  730.399,525.539 727.919,525.544 725.469,525.5 723.052,525.401 720.669,525.244 718.325,525.024 716.022,524.737 713.761,524.378 711.547,523.942 709.382,523.426 
  707.268,522.824 705.209,522.132 703.206,521.346 701.263,520.461 699.383,519.473 697.567,518.377 695.816,517.174 694.128,515.867 692.5,514.461 690.928,512.961 
  689.41,511.371 687.944,509.695 686.527,507.939 685.156,506.106 683.829,504.202 682.541,502.23 681.292,500.195 680.079,498.102 678.897,495.954 677.746,493.758 
  676.622,491.516 675.522,489.234 674.443,486.916 673.384,484.567 672.341,482.191 671.312,479.792 670.293,477.375 669.283,474.945 668.278,472.505 667.275,470.062 
  
  "/>
<polyline clip-path="url(#clip062)" style="stroke:#000000; stroke-width:3.99997; stroke-opacity:1; fill:none" points="
  820.881,583.648 822.679,586.524 824.474,589.384 826.262,592.209 828.041,594.982 829.808,597.686 831.559,600.304 833.291,602.819 835.002,605.213 836.688,607.47 
  838.347,609.571 839.974,611.5 841.567,613.239 843.123,614.774 844.637,616.102 846.102,617.23 847.513,618.165 848.863,618.914 850.148,619.482 851.36,619.875 
  852.494,620.102 853.544,620.167 854.504,620.078 855.369,619.841 856.131,619.461 856.785,618.947 857.324,618.302 857.74,617.53 858.022,616.633 858.163,615.616 
  858.153,614.48 857.985,613.229 857.649,611.866 857.136,610.395 856.437,608.817 855.545,607.138 854.45,605.358 853.143,603.482 851.624,601.514 849.909,599.462 
  848.015,597.333 845.962,595.135 843.766,592.875 841.445,590.561 839.017,588.202 836.501,585.804 833.912,583.375 831.271,580.923 828.594,578.456 825.899,575.981 
  
  "/>
<polyline clip-path="url(#clip062)" style="stroke:#000000; stroke-width:3.99997; stroke-opacity:1; fill:none" points="
  809.413,562.756 807.696,560.248 805.985,557.74 804.284,555.231 802.599,552.722 800.935,550.211 799.297,547.699 797.69,545.185 796.12,542.669 794.593,540.15 
  793.112,537.629 791.683,535.105 790.313,532.578 789.005,530.048 787.765,527.513 786.598,524.975 785.511,522.432 784.507,519.884 783.592,517.331 782.771,514.773 
  782.05,512.21 781.434,509.641 780.927,507.065 780.536,504.483 780.266,501.895 780.121,499.299 780.101,496.696 780.202,494.087 780.419,491.471 780.745,488.849 
  781.176,486.221 781.707,483.588 782.332,480.949 783.046,478.306 783.844,475.657 784.72,473.005 785.67,470.348 786.688,467.687 787.768,465.023 788.907,462.356 
  790.098,459.685 791.336,457.012 792.616,454.337 793.932,451.66 795.28,448.981 796.654,446.3 798.049,443.618 799.46,440.936 800.882,438.253 802.308,435.569 
  
  "/>
<polyline clip-path="url(#clip062)" style="stroke:#000000; stroke-width:3.99997; stroke-opacity:1; fill:none" points="
  809.413,562.756 811.893,563.602 814.371,564.443 816.846,565.273 819.316,566.089 821.779,566.885 824.234,567.656 826.68,568.397 829.114,569.103 831.535,569.769 
  833.941,570.39 836.331,570.961 838.703,571.478 841.056,571.934 843.387,572.326 845.696,572.648 847.98,572.895 850.238,573.062 852.468,573.145 854.669,573.138 
  856.839,573.035 858.977,572.833 861.08,572.527 863.147,572.11 865.177,571.579 867.168,570.929 869.12,570.158 871.034,569.273 872.912,568.279 874.757,567.179 
  876.568,565.98 878.349,564.686 880.1,563.302 881.823,561.833 883.521,560.285 885.194,558.662 886.844,556.969 888.473,555.211 890.082,553.393 891.674,551.52 
  893.249,549.597 894.81,547.63 896.357,545.623 897.893,543.58 899.42,541.508 900.938,539.411 902.449,537.294 903.956,535.161 905.46,533.019 906.961,530.872 
  
  "/>
<polyline clip-path="url(#clip062)" style="stroke:#000000; stroke-width:3.99997; stroke-opacity:1; fill:none" points="
  809.413,562.756 805.652,562.183 801.895,561.606 798.143,561.019 794.4,560.42 790.668,559.803 786.95,559.164 783.25,558.499 779.57,557.803 775.913,557.071 
  772.281,556.301 768.678,555.486 765.107,554.623 761.57,553.707 758.07,552.734 754.611,551.699 751.194,550.599 747.824,549.428 744.502,548.182 741.231,546.857 
  738.015,545.449 734.857,543.953 731.758,542.364 728.723,540.679 725.753,538.892 722.853,537.001 720.021,535.004 717.254,532.905 714.551,530.711 711.908,528.423 
  709.323,526.048 706.792,523.59 704.312,521.052 701.881,518.439 699.496,515.756 697.154,513.007 694.852,510.197 692.588,507.33 690.358,504.409 688.159,501.441 
  685.989,498.428 683.845,495.376 681.723,492.289 679.622,489.17 677.538,486.026 675.468,482.859 673.41,479.675 671.36,476.478 669.316,473.272 667.275,470.062 
  
  "/>
<polyline clip-path="url(#clip062)" style="stroke:#000000; stroke-width:3.99997; stroke-opacity:1; fill:none" points="
  813.954,436.996 817.46,437.429 820.949,437.852 824.405,438.257 827.811,438.634 831.149,438.975 834.404,439.269 837.558,439.507 840.595,439.681 843.498,439.781 
  846.25,439.798 848.834,439.722 851.234,439.545 853.434,439.258 855.43,438.866 857.226,438.378 858.825,437.805 860.228,437.158 861.439,436.447 862.46,435.681 
  863.294,434.872 863.944,434.029 864.413,433.163 864.703,432.284 864.817,431.402 864.757,430.528 864.525,429.673 864.119,428.845 863.536,428.058 862.776,427.32 
  861.837,426.643 860.717,426.037 859.414,425.513 857.927,425.082 856.255,424.753 854.394,424.538 852.345,424.448 850.105,424.492 847.678,424.674 845.079,424.985 
  842.324,425.413 839.427,425.946 836.404,426.571 833.272,427.279 830.047,428.056 826.742,428.892 823.375,429.775 819.961,430.692 816.516,431.633 813.055,432.585 
  
  "/>
<polyline clip-path="url(#clip062)" style="stroke:#000000; stroke-width:3.99997; stroke-opacity:1; fill:none" points="
  802.308,435.569 800.11,436.609 797.913,437.644 795.719,438.668 793.529,439.678 791.344,440.667 789.166,441.631 786.996,442.564 784.836,443.462 782.687,444.319 
  780.549,445.131 778.426,445.892 776.317,446.597 774.225,447.242 772.151,447.82 770.095,448.328 768.06,448.759 766.047,449.11 764.057,449.374 762.091,449.547 
  760.151,449.624 758.238,449.599 756.354,449.468 754.5,449.225 752.677,448.866 750.887,448.386 749.13,447.783 747.403,447.065 745.707,446.235 744.039,445.298 
  742.398,444.26 740.783,443.126 739.193,441.9 737.626,440.588 736.081,439.195 734.555,437.727 733.05,436.187 731.561,434.581 730.089,432.914 728.632,431.192 
  727.189,429.419 725.758,427.6 724.338,425.741 722.927,423.847 721.524,421.922 720.128,419.971 718.738,418 717.352,416.015 715.968,414.018 714.586,412.017 
  
  "/>
<polyline clip-path="url(#clip062)" style="stroke:#000000; stroke-width:3.99997; stroke-opacity:1; fill:none" points="
  802.308,435.569 799.942,437.798 797.574,440.023 795.204,442.237 792.83,444.435 790.451,446.614 788.065,448.767 785.672,450.889 783.269,452.976 780.856,455.022 
  778.431,457.023 775.994,458.972 773.542,460.866 771.074,462.699 768.59,464.465 766.087,466.16 763.565,467.779 761.022,469.317 758.457,470.768 755.869,472.128 
  753.256,473.391 750.617,474.552 747.951,475.607 745.256,476.55 742.531,477.375 739.775,478.079 736.988,478.662 734.172,479.127 731.326,479.48 728.454,479.726 
  725.555,479.871 722.632,479.919 719.685,479.876 716.717,479.746 713.727,479.535 710.718,479.247 707.691,478.889 704.647,478.464 701.588,477.978 698.514,477.437 
  695.427,476.844 692.328,476.206 689.22,475.527 686.102,474.812 682.976,474.067 679.844,473.296 676.706,472.505 673.565,471.699 670.421,470.883 667.275,470.062 
  
  "/>
<polyline clip-path="url(#clip062)" style="stroke:#000000; stroke-width:3.99997; stroke-opacity:1; fill:none" points="
  726.588,433.029 723.525,428.056 720.476,423.118 717.453,418.247 714.469,413.48 711.537,408.849 708.671,404.389 705.884,400.134 703.189,396.119 700.599,392.378 
  698.128,388.944 695.787,385.853 693.591,383.138 691.551,380.829 689.669,378.921 687.941,377.391 686.363,376.216 684.932,375.371 683.642,374.833 682.492,374.578 
  681.475,374.583 680.589,374.825 679.83,375.279 679.194,375.922 678.677,376.731 678.274,377.682 677.985,378.753 677.806,379.923 677.738,381.173 677.78,382.482 
  677.93,383.83 678.188,385.196 678.552,386.561 679.021,387.904 679.595,389.205 680.272,390.443 681.051,391.598 681.931,392.651 682.91,393.589 683.978,394.422 
  685.129,395.158 686.354,395.807 687.644,396.379 688.992,396.883 690.388,397.33 691.826,397.728 693.297,398.088 694.792,398.418 696.304,398.73 697.824,399.031 
  
  "/>
<polyline clip-path="url(#clip062)" style="stroke:#000000; stroke-width:3.99997; stroke-opacity:1; fill:none" points="
  714.586,412.017 718.215,412.7 721.842,413.378 725.467,414.046 729.088,414.698 732.703,415.331 736.312,415.937 739.913,416.514 743.504,417.054 747.086,417.555 
  750.655,418.009 754.211,418.413 757.752,418.76 761.278,419.047 764.786,419.268 768.276,419.417 771.747,419.491 775.196,419.483 778.622,419.389 782.025,419.203 
  785.403,418.921 788.754,418.537 792.078,418.047 795.372,417.445 798.637,416.726 801.869,415.885 805.07,414.923 808.241,413.844 811.382,412.653 814.496,411.355 
  817.583,409.956 820.645,408.46 823.684,406.873 826.7,405.2 829.695,403.445 832.67,401.614 835.627,399.712 838.566,397.744 841.49,395.715 844.399,393.63 
  847.295,391.494 850.179,389.313 853.052,387.091 855.916,384.833 858.772,382.545 861.622,380.232 864.466,377.898 867.307,375.549 870.145,373.19 872.981,370.825 
  
  "/>
<polyline clip-path="url(#clip062)" style="stroke:#000000; stroke-width:3.99997; stroke-opacity:1; fill:none" points="
  714.586,412.017 712.108,412.752 709.632,413.482 707.159,414.202 704.692,414.908 702.233,415.593 699.783,416.255 697.344,416.887 694.919,417.484 692.508,418.043 
  690.115,418.557 687.74,419.022 685.386,419.434 683.055,419.786 680.748,420.075 678.467,420.296 676.214,420.442 673.992,420.511 671.802,420.496 669.645,420.393 
  667.524,420.197 665.441,419.903 663.397,419.506 661.395,419.001 659.436,418.383 657.522,417.648 655.653,416.796 653.827,415.831 652.043,414.758 650.298,413.583 
  648.59,412.309 646.919,410.942 645.281,409.487 643.676,407.949 642.1,406.332 640.553,404.642 639.031,402.883 637.535,401.061 636.061,399.18 634.607,397.245 
  633.173,395.26 631.755,393.232 630.353,391.165 628.963,389.063 627.585,386.932 626.216,384.776 624.855,382.601 623.5,380.411 622.148,378.211 620.798,376.007 
  
  "/>
<polyline clip-path="url(#clip062)" style="stroke:#000000; stroke-width:3.99997; stroke-opacity:1; fill:none" points="
  714.586,412.017 712.719,415.3 710.848,418.578 708.972,421.848 707.086,425.105 705.188,428.345 703.274,431.564 701.343,434.757 699.389,437.92 697.412,441.049 
  695.406,444.14 693.371,447.189 691.301,450.19 689.194,453.14 687.048,456.035 684.859,458.87 682.624,461.642 680.34,464.345 678.004,466.976 675.612,469.53 
  673.163,472.003 670.652,474.39 668.077,476.689 665.434,478.893 662.721,481 659.934,483.005 657.074,484.907 654.144,486.712 651.146,488.422 648.084,490.044 
  644.961,491.58 641.779,493.035 638.542,494.413 635.253,495.719 631.915,496.957 628.532,498.131 625.105,499.245 621.638,500.304 618.135,501.312 614.598,502.273 
  611.03,503.191 607.435,504.071 603.815,504.917 600.174,505.733 596.514,506.523 592.839,507.292 589.152,508.044 585.456,508.784 581.753,509.514 578.047,510.241 
  
  "/>
<polyline clip-path="url(#clip062)" style="stroke:#000000; stroke-width:3.99997; stroke-opacity:1; fill:none" points="
  714.586,412.017 712.296,410.187 710.011,408.356 707.735,406.521 705.475,404.681 703.234,402.834 701.018,400.979 698.832,399.113 696.681,397.235 694.569,395.344 
  692.502,393.438 690.485,391.515 688.523,389.572 686.62,387.61 684.781,385.625 683.012,383.617 681.317,381.583 679.702,379.522 678.172,377.432 676.73,375.311 
  675.383,373.158 674.135,370.971 672.992,368.749 671.958,366.489 671.038,364.189 670.236,361.85 669.554,359.469 668.986,357.049 668.527,354.592 668.173,352.099 
  667.918,349.572 667.757,347.013 667.685,344.423 667.698,341.805 667.79,339.159 667.957,336.487 668.193,333.792 668.494,331.075 668.854,328.337 669.269,325.581 
  669.734,322.807 670.243,320.018 670.792,317.216 671.376,314.402 671.989,311.577 672.627,308.744 673.286,305.905 673.959,303.06 674.642,300.212 675.33,297.362 
  
  "/>
<polyline clip-path="url(#clip062)" style="stroke:#000000; stroke-width:3.99997; stroke-opacity:1; fill:none" points="
  872.981,370.825 872.135,374.419 871.294,378.011 870.463,381.601 869.648,385.188 868.853,388.77 868.083,392.347 867.345,395.917 866.643,399.48 865.981,403.034 
  865.366,406.578 864.802,410.112 864.294,413.633 863.849,417.141 863.47,420.635 863.162,424.114 862.932,427.576 862.784,431.021 862.723,434.448 862.755,437.855 
  862.884,441.241 863.115,444.605 863.455,447.947 863.907,451.264 864.478,454.556 865.171,457.823 865.988,461.063 866.922,464.278 867.97,467.469 869.125,470.637 
  870.383,473.784 871.738,476.909 873.186,480.015 874.721,483.103 876.338,486.173 878.033,489.227 879.799,492.265 881.631,495.289 883.526,498.301 885.477,501.3 
  887.479,504.288 889.527,507.267 891.617,510.236 893.742,513.199 895.898,516.154 898.08,519.104 900.282,522.05 902.5,524.993 904.728,527.933 906.961,530.872 
  
  "/>
<polyline clip-path="url(#clip062)" style="stroke:#000000; stroke-width:3.99997; stroke-opacity:1; fill:none" points="
  402.57,403.487 398.068,402.374 393.591,401.274 389.162,400.2 384.805,399.167 380.545,398.187 376.406,397.273 372.411,396.44 368.585,395.7 364.953,395.066 
  361.537,394.552 358.363,394.172 355.454,393.938 352.833,393.862 350.499,393.939 348.444,394.158 346.656,394.505 345.126,394.967 343.844,395.532 342.8,396.188 
  341.983,396.92 341.384,397.718 340.992,398.567 340.798,399.456 340.791,400.371 340.961,401.3 341.301,402.23 341.804,403.149 342.465,404.044 343.279,404.903 
  344.239,405.713 345.339,406.462 346.575,407.136 347.941,407.725 349.43,408.214 351.038,408.592 352.758,408.846 354.584,408.963 356.511,408.939 358.529,408.784 
  360.632,408.51 362.809,408.129 365.054,407.653 367.357,407.093 369.71,406.462 372.105,405.771 374.533,405.033 376.986,404.259 379.457,403.461 381.935,402.651 
  
  "/>
<polyline clip-path="url(#clip062)" style="stroke:#000000; stroke-width:3.99997; stroke-opacity:1; fill:none" points="
  620.798,376.007 620.335,378.624 619.877,381.238 619.429,383.849 618.995,386.452 618.579,389.045 618.187,391.627 617.823,394.196 617.492,396.748 617.199,399.281 
  616.948,401.793 616.745,404.282 616.592,406.746 616.497,409.182 616.462,411.587 616.494,413.96 616.596,416.298 616.773,418.598 617.03,420.86 617.372,423.079 
  617.803,425.254 618.329,427.383 618.953,429.463 619.68,431.491 620.516,433.467 621.465,435.386 622.526,437.25 623.695,439.06 624.968,440.819 626.34,442.53 
  627.806,444.193 629.361,445.813 631.001,447.391 632.721,448.929 634.516,450.43 636.381,451.896 638.313,453.33 640.306,454.733 642.355,456.108 644.456,457.458 
  646.603,458.785 648.794,460.091 651.022,461.378 653.282,462.648 655.571,463.905 657.884,465.15 660.215,466.386 662.561,467.615 664.916,468.84 667.275,470.062 
  
  "/>
<polyline clip-path="url(#clip062)" style="stroke:#000000; stroke-width:3.99997; stroke-opacity:1; fill:none" points="
  620.798,376.007 621.076,380.097 621.36,384.185 621.652,388.268 621.959,392.344 622.285,396.411 622.634,400.466 623.011,404.508 623.421,408.532 623.869,412.538 
  624.359,416.523 624.896,420.485 625.484,424.421 626.129,428.328 626.835,432.206 627.607,436.05 628.449,439.86 629.367,443.632 630.364,447.364 631.446,451.054 
  632.617,454.7 633.882,458.299 635.245,461.848 636.712,465.347 638.287,468.791 639.975,472.179 641.775,475.512 643.683,478.79 645.694,482.017 647.804,485.195 
  650.008,488.326 652.301,491.413 654.679,494.457 657.137,497.462 659.669,500.429 662.273,503.361 664.942,506.261 667.672,509.13 670.458,511.97 673.296,514.786 
  676.181,517.577 679.108,520.348 682.073,523.1 685.071,525.836 688.097,528.557 691.147,531.267 694.215,533.967 697.297,536.661 700.389,539.35 703.485,542.036 
  
  "/>
<polyline clip-path="url(#clip062)" style="stroke:#000000; stroke-width:3.99997; stroke-opacity:1; fill:none" points="
  578.047,510.241 580.515,510.857 582.98,511.467 585.44,512.068 587.895,512.655 590.34,513.223 592.775,513.767 595.197,514.282 597.604,514.763 599.993,515.206 
  602.364,515.607 604.712,515.959 607.037,516.259 609.337,516.501 611.608,516.681 613.849,516.794 616.057,516.835 618.231,516.8 620.369,516.683 622.468,516.48 
  624.526,516.186 626.54,515.797 628.51,515.307 630.432,514.712 632.305,514.006 634.126,513.186 635.895,512.252 637.615,511.207 639.287,510.057 640.915,508.807 
  642.499,507.46 644.042,506.023 645.546,504.5 647.014,502.895 648.447,501.214 649.848,499.461 651.219,497.641 652.562,495.759 653.879,493.819 655.172,491.827 
  656.444,489.787 657.696,487.704 658.931,485.582 660.151,483.427 661.358,481.243 662.555,479.036 663.742,476.809 664.924,474.568 666.101,472.317 667.275,470.062 
  
  "/>
<polyline clip-path="url(#clip062)" style="stroke:#000000; stroke-width:3.99997; stroke-opacity:1; fill:none" points="
  675.33,297.362 676.738,300.96 678.14,304.557 679.533,308.154 680.909,311.751 682.265,315.346 683.594,318.94 684.892,322.533 686.153,326.124 687.372,329.713 
  688.544,333.3 689.664,336.884 690.726,340.466 691.725,344.045 692.656,347.62 693.513,351.192 694.292,354.761 694.987,358.325 695.593,361.886 696.105,365.442 
  696.517,368.993 696.824,372.54 697.021,376.081 697.103,379.617 697.064,383.147 696.9,386.672 696.61,390.191 696.199,393.704 695.674,397.211 695.038,400.714 
  694.297,404.211 693.457,407.704 692.522,411.193 691.498,414.677 690.39,418.158 689.204,421.634 687.944,425.108 686.617,428.578 685.226,432.045 683.777,435.51 
  682.277,438.972 680.729,442.432 679.139,445.89 677.512,449.346 675.854,452.801 674.17,456.255 672.465,459.707 670.744,463.159 669.012,466.61 667.275,470.062 
  
  "/>
<path clip-path="url(#clip062)" d="
M498.307 503.721 L492.558 493.762 L481.06 493.762 L475.311 503.721 L481.06 513.681 L492.558 513.681 L498.307 503.721 L498.307 503.721  Z
  " fill="#009af9" fill-rule="evenodd" fill-opacity="1"/>
<polyline clip-path="url(#clip062)" style="stroke:#000000; stroke-width:3.99997; stroke-opacity:1; fill:none" points="
  498.307,503.721 492.558,493.762 481.06,493.762 475.311,503.721 481.06,513.681 492.558,513.681 498.307,503.721 
  "/>
<path clip-path="url(#clip062)" d="
M678.161 150.154 L672.412 140.195 L660.914 140.195 L655.164 150.154 L660.914 160.114 L672.412 160.114 L678.161 150.154 L678.161 150.154  Z
  " fill="#009af9" fill-rule="evenodd" fill-opacity="1"/>
<polyline clip-path="url(#clip062)" style="stroke:#000000; stroke-width:3.99997; stroke-opacity:1; fill:none" points="
  678.161,150.154 672.412,140.195 660.914,140.195 655.164,150.154 660.914,160.114 672.412,160.114 678.161,150.154 
  "/>
<path clip-path="url(#clip062)" d="
M830.366 350.273 L824.617 340.313 L813.119 340.313 L807.37 350.273 L813.119 360.232 L824.617 360.232 L830.366 350.273 L830.366 350.273  Z
  " fill="#009af9" fill-rule="evenodd" fill-opacity="1"/>
<polyline clip-path="url(#clip062)" style="stroke:#000000; stroke-width:3.99997; stroke-opacity:1; fill:none" points="
  830.366,350.273 824.617,340.313 813.119,340.313 807.37,350.273 813.119,360.232 824.617,360.232 830.366,350.273 
  "/>
<path clip-path="url(#clip062)" d="
M815.817 313.451 L803.965 292.919 L780.261 292.919 L768.409 313.451 L780.261 333.982 L803.965 333.982 L815.817 313.451 L815.817 313.451  Z
  " fill="#009af9" fill-rule="evenodd" fill-opacity="1"/>
<polyline clip-path="url(#clip062)" style="stroke:#000000; stroke-width:3.99997; stroke-opacity:1; fill:none" points="
  815.817,313.451 803.965,292.919 780.261,292.919 768.409,313.451 780.261,333.982 803.965,333.982 815.817,313.451 
  "/>
<path clip-path="url(#clip062)" d="
M545.307 320.118 L539.489 310.039 L527.852 310.039 L522.033 320.118 L527.852 330.198 L539.489 330.198 L545.307 320.118 L545.307 320.118  Z
  " fill="#009af9" fill-rule="evenodd" fill-opacity="1"/>
<polyline clip-path="url(#clip062)" style="stroke:#000000; stroke-width:3.99997; stroke-opacity:1; fill:none" points="
  545.307,320.118 539.489,310.039 527.852,310.039 522.033,320.118 527.852,330.198 539.489,330.198 545.307,320.118 
  "/>
<path clip-path="url(#clip062)" d="
M742.139 280.234 L736.39 270.275 L724.892 270.275 L719.143 280.234 L724.892 290.193 L736.39 290.193 L742.139 280.234 L742.139 280.234  Z
  " fill="#009af9" fill-rule="evenodd" fill-opacity="1"/>
<polyline clip-path="url(#clip062)" style="stroke:#000000; stroke-width:3.99997; stroke-opacity:1; fill:none" points="
  742.139,280.234 736.39,270.275 724.892,270.275 719.143,280.234 724.892,290.193 736.39,290.193 742.139,280.234 
  "/>
<path clip-path="url(#clip062)" d="
M551.85 424.528 L539.651 403.396 L515.254 403.396 L503.055 424.528 L515.254 445.66 L539.651 445.66 L551.85 424.528 L551.85 424.528  Z
  " fill="#009af9" fill-rule="evenodd" fill-opacity="1"/>
<polyline clip-path="url(#clip062)" style="stroke:#000000; stroke-width:3.99997; stroke-opacity:1; fill:none" points="
  551.85,424.528 539.651,403.396 515.254,403.396 503.055,424.528 515.254,445.66 539.651,445.66 551.85,424.528 
  "/>
<path clip-path="url(#clip062)" d="
M682.622 599.718 L676.665 589.398 L664.75 589.398 L658.793 599.718 L664.75 610.037 L676.665 610.037 L682.622 599.718 L682.622 599.718  Z
  " fill="#009af9" fill-rule="evenodd" fill-opacity="1"/>
<polyline clip-path="url(#clip062)" style="stroke:#000000; stroke-width:3.99997; stroke-opacity:1; fill:none" points="
  682.622,599.718 676.665,589.398 664.75,589.398 658.793,599.718 664.75,610.037 676.665,610.037 682.622,599.718 
  "/>
<path clip-path="url(#clip062)" d="
M767.267 664.708 L761.171 654.148 L748.979 654.148 L742.883 664.708 L748.979 675.268 L761.171 675.268 L767.267 664.708 L767.267 664.708  Z
  " fill="#009af9" fill-rule="evenodd" fill-opacity="1"/>
<polyline clip-path="url(#clip062)" style="stroke:#000000; stroke-width:3.99997; stroke-opacity:1; fill:none" points="
  767.267,664.708 761.171,654.148 748.979,654.148 742.883,664.708 748.979,675.268 761.171,675.268 767.267,664.708 
  "/>
<path clip-path="url(#clip062)" d="
M610.015 621.466 L604.335 611.627 L592.975 611.627 L587.296 621.466 L592.975 631.305 L604.335 631.305 L610.015 621.466 L610.015 621.466  Z
  " fill="#009af9" fill-rule="evenodd" fill-opacity="1"/>
<polyline clip-path="url(#clip062)" style="stroke:#000000; stroke-width:3.99997; stroke-opacity:1; fill:none" points="
  610.015,621.466 604.335,611.627 592.975,611.627 587.296,621.466 592.975,631.305 604.335,631.305 610.015,621.466 
  "/>
<path clip-path="url(#clip062)" d="
M868.148 472.17 L862.399 462.211 L850.901 462.211 L845.152 472.17 L850.901 482.13 L862.399 482.13 L868.148 472.17 L868.148 472.17  Z
  " fill="#009af9" fill-rule="evenodd" fill-opacity="1"/>
<polyline clip-path="url(#clip062)" style="stroke:#000000; stroke-width:3.99997; stroke-opacity:1; fill:none" points="
  868.148,472.17 862.399,462.211 850.901,462.211 845.152,472.17 850.901,482.13 862.399,482.13 868.148,472.17 
  "/>
<path clip-path="url(#clip062)" d="
M674.809 425.349 L662.888 404.698 L639.046 404.698 L627.125 425.349 L639.046 446.001 L662.888 446.001 L674.809 425.349 L674.809 425.349  Z
  " fill="#009af9" fill-rule="evenodd" fill-opacity="1"/>
<polyline clip-path="url(#clip062)" style="stroke:#000000; stroke-width:3.99997; stroke-opacity:1; fill:none" points="
  674.809,425.349 662.888,404.698 639.046,404.698 627.125,425.349 639.046,446.001 662.888,446.001 674.809,425.349 
  "/>
<path clip-path="url(#clip062)" d="
M780.638 523.762 L768.439 502.629 L744.042 502.629 L731.843 523.762 L744.042 544.894 L768.439 544.894 L780.638 523.762 L780.638 523.762  Z
  " fill="#009af9" fill-rule="evenodd" fill-opacity="1"/>
<polyline clip-path="url(#clip062)" style="stroke:#000000; stroke-width:3.99997; stroke-opacity:1; fill:none" points="
  780.638,523.762 768.439,502.629 744.042,502.629 731.843,523.762 744.042,544.894 768.439,544.894 780.638,523.762 
  "/>
<path clip-path="url(#clip062)" d="
M833.533 562.756 L821.473 541.864 L797.353 541.864 L785.293 562.756 L797.353 583.648 L821.473 583.648 L833.533 562.756 L833.533 562.756  Z
  " fill="#009af9" fill-rule="evenodd" fill-opacity="1"/>
<polyline clip-path="url(#clip062)" style="stroke:#000000; stroke-width:3.99997; stroke-opacity:1; fill:none" points="
  833.533,562.756 821.473,541.864 797.353,541.864 785.293,562.756 797.353,583.648 821.473,583.648 833.533,562.756 
  "/>
<path clip-path="url(#clip062)" d="
M814.777 435.569 L808.543 424.769 L796.074 424.769 L789.839 435.569 L796.074 446.369 L808.543 446.369 L814.777 435.569 L814.777 435.569  Z
  " fill="#009af9" fill-rule="evenodd" fill-opacity="1"/>
<polyline clip-path="url(#clip062)" style="stroke:#000000; stroke-width:3.99997; stroke-opacity:1; fill:none" points="
  814.777,435.569 808.543,424.769 796.074,424.769 789.839,435.569 796.074,446.369 808.543,446.369 814.777,435.569 
  "/>
<path clip-path="url(#clip062)" d="
M738.845 412.017 L726.715 391.005 L702.457 391.005 L690.328 412.017 L702.457 433.029 L726.715 433.029 L738.845 412.017 L738.845 412.017  Z
  " fill="#009af9" fill-rule="evenodd" fill-opacity="1"/>
<polyline clip-path="url(#clip062)" style="stroke:#000000; stroke-width:3.99997; stroke-opacity:1; fill:none" points="
  738.845,412.017 726.715,391.005 702.457,391.005 690.328,412.017 702.457,433.029 726.715,433.029 738.845,412.017 
  "/>
<path clip-path="url(#clip062)" d="
M884.895 370.825 L878.938 360.506 L867.024 360.506 L861.067 370.825 L867.024 381.145 L878.938 381.145 L884.895 370.825 L884.895 370.825  Z
  " fill="#009af9" fill-rule="evenodd" fill-opacity="1"/>
<polyline clip-path="url(#clip062)" style="stroke:#000000; stroke-width:3.99997; stroke-opacity:1; fill:none" points="
  884.895,370.825 878.938,360.506 867.024,360.506 861.067,370.825 867.024,381.145 878.938,381.145 884.895,370.825 
  "/>
<path clip-path="url(#clip062)" d="
M403.992 401.023 L398.243 391.064 L386.745 391.064 L380.996 401.023 L386.745 410.983 L398.243 410.983 L403.992 401.023 L403.992 401.023  Z
  " fill="#009af9" fill-rule="evenodd" fill-opacity="1"/>
<polyline clip-path="url(#clip062)" style="stroke:#000000; stroke-width:3.99997; stroke-opacity:1; fill:none" points="
  403.992,401.023 398.243,391.064 386.745,391.064 380.996,401.023 386.745,410.983 398.243,410.983 403.992,401.023 
  "/>
<path clip-path="url(#clip062)" d="
M632.989 376.007 L626.894 365.447 L614.702 365.447 L608.606 376.007 L614.702 386.567 L626.894 386.567 L632.989 376.007 L632.989 376.007  Z
  " fill="#009af9" fill-rule="evenodd" fill-opacity="1"/>
<polyline clip-path="url(#clip062)" style="stroke:#000000; stroke-width:3.99997; stroke-opacity:1; fill:none" points="
  632.989,376.007 626.894,365.447 614.702,365.447 608.606,376.007 614.702,386.567 626.894,386.567 632.989,376.007 
  "/>
<path clip-path="url(#clip062)" d="
M589.546 510.241 L583.797 500.282 L572.298 500.282 L566.549 510.241 L572.298 520.2 L583.797 520.2 L589.546 510.241 L589.546 510.241  Z
  " fill="#009af9" fill-rule="evenodd" fill-opacity="1"/>
<polyline clip-path="url(#clip062)" style="stroke:#000000; stroke-width:3.99997; stroke-opacity:1; fill:none" points="
  589.546,510.241 583.797,500.282 572.298,500.282 566.549,510.241 572.298,520.2 583.797,520.2 589.546,510.241 
  "/>
<path clip-path="url(#clip062)" d="
M699.311 297.362 L687.32 276.59 L663.339 276.59 L651.349 297.362 L663.339 318.133 L687.32 318.133 L699.311 297.362 L699.311 297.362  Z
  " fill="#009af9" fill-rule="evenodd" fill-opacity="1"/>
<polyline clip-path="url(#clip062)" style="stroke:#000000; stroke-width:3.99997; stroke-opacity:1; fill:none" points="
  699.311,297.362 687.32,276.59 663.339,276.59 651.349,297.362 663.339,318.133 687.32,318.133 699.311,297.362 
  "/>
<path clip-path="url(#clip062)" d="
M918.598 530.872 L912.78 520.793 L901.143 520.793 L895.325 530.872 L901.143 540.952 L912.78 540.952 L918.598 530.872 L918.598 530.872  Z
  " fill="#009af9" fill-rule="evenodd" fill-opacity="1"/>
<polyline clip-path="url(#clip062)" style="stroke:#000000; stroke-width:3.99997; stroke-opacity:1; fill:none" points="
  918.598,530.872 912.78,520.793 901.143,520.793 895.325,530.872 901.143,540.952 912.78,540.952 918.598,530.872 
  "/>
<path clip-path="url(#clip062)" d="
M692.366 470.062 L679.821 448.329 L654.73 448.329 L642.185 470.062 L654.73 491.794 L679.821 491.794 L692.366 470.062 L692.366 470.062  Z
  " fill="#009af9" fill-rule="evenodd" fill-opacity="1"/>
<polyline clip-path="url(#clip062)" style="stroke:#000000; stroke-width:3.99997; stroke-opacity:1; fill:none" points="
  692.366,470.062 679.821,448.329 654.73,448.329 642.185,470.062 654.73,491.794 679.821,491.794 692.366,470.062 
  "/>
<path clip-path="url(#clip062)" d="
M715.399 542.036 L709.442 531.716 L697.528 531.716 L691.571 542.036 L697.528 552.356 L709.442 552.356 L715.399 542.036 L715.399 542.036  Z
  " fill="#009af9" fill-rule="evenodd" fill-opacity="1"/>
<polyline clip-path="url(#clip062)" style="stroke:#000000; stroke-width:3.99997; stroke-opacity:1; fill:none" points="
  715.399,542.036 709.442,531.716 697.528,531.716 691.571,542.036 697.528,552.356 709.442,552.356 715.399,542.036 
  "/>
<circle clip-path="url(#clip062)" style="fill:#009af9; stroke:none; fill-opacity:1" cx="486.809" cy="503.721" r="2"/>
<circle clip-path="url(#clip062)" style="fill:#009af9; stroke:none; fill-opacity:1" cx="666.663" cy="150.154" r="2"/>
<circle clip-path="url(#clip062)" style="fill:#009af9; stroke:none; fill-opacity:1" cx="818.868" cy="350.273" r="2"/>
<circle clip-path="url(#clip062)" style="fill:#009af9; stroke:none; fill-opacity:1" cx="792.113" cy="313.451" r="2"/>
<circle clip-path="url(#clip062)" style="fill:#009af9; stroke:none; fill-opacity:1" cx="533.67" cy="320.118" r="2"/>
<circle clip-path="url(#clip062)" style="fill:#009af9; stroke:none; fill-opacity:1" cx="730.641" cy="280.234" r="2"/>
<circle clip-path="url(#clip062)" style="fill:#009af9; stroke:none; fill-opacity:1" cx="527.453" cy="424.528" r="2"/>
<circle clip-path="url(#clip062)" style="fill:#009af9; stroke:none; fill-opacity:1" cx="670.708" cy="599.718" r="2"/>
<circle clip-path="url(#clip062)" style="fill:#009af9; stroke:none; fill-opacity:1" cx="755.075" cy="664.708" r="2"/>
<circle clip-path="url(#clip062)" style="fill:#009af9; stroke:none; fill-opacity:1" cx="598.655" cy="621.466" r="2"/>
<circle clip-path="url(#clip062)" style="fill:#009af9; stroke:none; fill-opacity:1" cx="856.65" cy="472.17" r="2"/>
<circle clip-path="url(#clip062)" style="fill:#009af9; stroke:none; fill-opacity:1" cx="650.967" cy="425.349" r="2"/>
<circle clip-path="url(#clip062)" style="fill:#009af9; stroke:none; fill-opacity:1" cx="756.241" cy="523.762" r="2"/>
<circle clip-path="url(#clip062)" style="fill:#009af9; stroke:none; fill-opacity:1" cx="809.413" cy="562.756" r="2"/>
<circle clip-path="url(#clip062)" style="fill:#009af9; stroke:none; fill-opacity:1" cx="802.308" cy="435.569" r="2"/>
<circle clip-path="url(#clip062)" style="fill:#009af9; stroke:none; fill-opacity:1" cx="714.586" cy="412.017" r="2"/>
<circle clip-path="url(#clip062)" style="fill:#009af9; stroke:none; fill-opacity:1" cx="872.981" cy="370.825" r="2"/>
<circle clip-path="url(#clip062)" style="fill:#009af9; stroke:none; fill-opacity:1" cx="392.494" cy="401.023" r="2"/>
<circle clip-path="url(#clip062)" style="fill:#009af9; stroke:none; fill-opacity:1" cx="620.798" cy="376.007" r="2"/>
<circle clip-path="url(#clip062)" style="fill:#009af9; stroke:none; fill-opacity:1" cx="578.047" cy="510.241" r="2"/>
<circle clip-path="url(#clip062)" style="fill:#009af9; stroke:none; fill-opacity:1" cx="675.33" cy="297.362" r="2"/>
<circle clip-path="url(#clip062)" style="fill:#009af9; stroke:none; fill-opacity:1" cx="906.961" cy="530.872" r="2"/>
<circle clip-path="url(#clip062)" style="fill:#009af9; stroke:none; fill-opacity:1" cx="667.275" cy="470.062" r="2"/>
<circle clip-path="url(#clip062)" style="fill:#009af9; stroke:none; fill-opacity:1" cx="703.485" cy="542.036" r="2"/>
</svg>
