<?xml version="1.0" encoding="utf-8"?>
<svg xmlns="http://www.w3.org/2000/svg" xmlns:xlink="http://www.w3.org/1999/xlink" width="248.5" height="164" viewBox="0 0 994 656">
<defs>
  <clipPath id="clip170">
    <rect x="0" y="0" width="994" height="656"/>
  </clipPath>
</defs>
<path clip-path="url(#clip170)" d="
M0 656 L994 656 L994 0 L0 0  Z
  " fill="#ffffff" fill-rule="evenodd" fill-opacity="1"/>
<defs>
  <clipPath id="clip171">
    <rect x="198" y="0" width="697" height="656"/>
  </clipPath>
</defs>
<path clip-path="url(#clip170)" d="
M240.225 586.449 L779.464 586.449 L779.464 47.243 L240.225 47.243  Z
  " fill="#ffffff" fill-rule="evenodd" fill-opacity="1"/>
<defs>
  <clipPath id="clip172">
    <rect x="240" y="47" width="540" height="540"/>
  </clipPath>
</defs>
<polyline clip-path="url(#clip172)" style="stroke:#000000; stroke-width:3.99991; stroke-opacity:1; fill:none" points="
  583.035,284.708 584.836,284.406 586.634,284.102 588.426,283.793 590.209,283.476 591.98,283.149 593.736,282.809 595.474,282.454 597.191,282.082 598.884,281.689 
  600.55,281.273 602.186,280.831 603.79,280.362 605.357,279.862 606.885,279.329 608.371,278.761 609.813,278.154 611.206,277.507 612.549,276.817 613.837,276.081 
  615.069,275.296 616.241,274.461 617.35,273.573 618.392,272.628 619.366,271.625 620.269,270.561 621.099,269.437 621.861,268.254 622.556,267.015 623.189,265.722 
  623.761,264.379 624.277,262.988 624.739,261.551 625.15,260.07 625.513,258.549 625.831,256.99 626.107,255.395 626.344,253.768 626.545,252.109 626.714,250.423 
  626.852,248.712 626.963,246.977 627.05,245.222 627.117,243.45 627.165,241.662 627.199,239.862 627.22,238.051 627.232,236.233 627.239,234.409 627.242,232.583 
  
  "/>
<polyline clip-path="url(#clip172)" style="stroke:#000000; stroke-width:3.99991; stroke-opacity:1; fill:none" points="
  583.035,284.708 582.602,286.565 582.166,288.42 581.725,290.268 581.277,292.107 580.819,293.934 580.348,295.745 579.863,297.538 579.361,299.31 578.839,301.057 
  578.295,302.776 577.726,304.465 577.131,306.12 576.506,307.738 575.849,309.317 575.157,310.852 574.429,312.342 573.661,313.782 572.852,315.171 571.998,316.504 
  571.098,317.779 570.148,318.993 569.147,320.142 568.092,321.224 566.981,322.235 565.81,323.173 564.581,324.037 563.295,324.831 561.956,325.558 560.564,326.22 
  559.124,326.821 557.636,327.363 556.105,327.851 554.532,328.286 552.919,328.672 551.27,329.012 549.586,329.309 547.87,329.567 546.125,329.788 544.353,329.974 
  542.556,330.131 540.737,330.259 538.899,330.364 537.043,330.446 535.172,330.511 533.29,330.56 531.397,330.596 529.497,330.624 527.592,330.645 525.685,330.664 
  
  "/>
<polyline clip-path="url(#clip172)" style="stroke:#000000; stroke-width:3.99991; stroke-opacity:1; fill:none" points="
  627.242,232.583 628.99,232.173 630.735,231.761 632.474,231.344 634.202,230.92 635.919,230.487 637.619,230.042 639.3,229.584 640.959,229.109 642.592,228.617 
  644.197,228.103 645.769,227.567 647.307,227.005 648.807,226.416 650.265,225.797 651.678,225.145 653.043,224.46 654.358,223.737 655.618,222.976 656.821,222.173 
  657.964,221.326 659.042,220.434 660.054,219.493 660.996,218.502 661.864,217.458 662.656,216.359 663.372,215.205 664.014,213.998 664.586,212.741 665.091,211.435 
  665.533,210.084 665.914,208.688 666.237,207.252 666.507,205.776 666.725,204.264 666.896,202.717 667.021,201.138 667.106,199.53 667.152,197.893 667.163,196.232 
  667.143,194.547 667.093,192.842 667.018,191.118 666.921,189.379 666.805,187.625 666.673,185.86 666.528,184.086 666.373,182.305 666.212,180.52 666.048,178.732 
  
  "/>
<polyline clip-path="url(#clip172)" style="stroke:#000000; stroke-width:3.99991; stroke-opacity:1; fill:none" points="
  666.048,178.732 667.77,178.275 669.489,177.816 671.202,177.352 672.905,176.883 674.595,176.404 676.268,175.914 677.922,175.412 679.553,174.894 681.158,174.358 
  682.733,173.803 684.276,173.226 685.782,172.625 687.25,171.998 688.675,171.343 690.054,170.657 691.385,169.938 692.663,169.185 693.886,168.394 695.049,167.564 
  696.151,166.692 697.187,165.777 698.155,164.816 699.051,163.807 699.872,162.748 700.614,161.637 701.278,160.473 701.868,159.259 702.385,157.997 702.833,156.69 
  703.217,155.338 703.538,153.945 703.8,152.513 704.007,151.044 704.162,149.54 704.267,148.003 704.327,146.436 704.345,144.84 704.323,143.218 704.265,141.572 
  704.175,139.904 704.055,138.217 703.909,136.512 703.74,134.792 703.552,133.059 703.347,131.315 703.129,129.562 702.901,127.802 702.667,126.038 702.43,124.272 
  
  "/>
<polyline clip-path="url(#clip172)" style="stroke:#000000; stroke-width:3.99991; stroke-opacity:1; fill:none" points="
  380.064,464.784 381.885,465.232 383.706,465.677 385.523,466.115 387.334,466.542 389.14,466.954 390.937,467.349 392.723,467.723 394.499,468.071 396.261,468.391 
  398.008,468.68 399.738,468.932 401.45,469.146 403.142,469.316 404.812,469.441 406.459,469.515 408.081,469.537 409.676,469.501 411.244,469.405 412.781,469.245 
  414.286,469.017 415.758,468.718 417.195,468.345 418.596,467.893 419.958,467.359 421.28,466.74 422.562,466.036 423.806,465.25 425.014,464.385 426.186,463.446 
  427.325,462.436 428.433,461.359 429.51,460.217 430.559,459.014 431.582,457.755 432.579,456.443 433.554,455.08 434.506,453.671 435.439,452.22 436.353,450.73 
  437.251,449.204 438.133,447.645 439.002,446.059 439.86,444.447 440.708,442.815 441.547,441.164 442.379,439.499 443.207,437.824 444.031,436.141 444.854,434.455 
  
  "/>
<polyline clip-path="url(#clip172)" style="stroke:#000000; stroke-width:3.99991; stroke-opacity:1; fill:none" points="
  380.064,464.784 379.283,466.453 378.502,468.119 377.717,469.778 376.927,471.426 376.13,473.059 375.325,474.675 374.51,476.27 373.683,477.84 372.842,479.381 
  371.987,480.89 371.115,482.364 370.225,483.798 369.314,485.19 368.382,486.536 367.426,487.832 366.445,489.075 365.438,490.261 364.402,491.386 363.336,492.447 
  362.238,493.441 361.107,494.364 359.94,495.212 358.737,495.982 357.496,496.67 356.214,497.273 354.892,497.791 353.532,498.227 352.135,498.585 350.703,498.868 
  349.237,499.08 347.74,499.225 346.212,499.305 344.656,499.326 343.073,499.289 341.466,499.199 339.834,499.059 338.181,498.873 336.508,498.644 334.817,498.377 
  333.109,498.073 331.386,497.738 329.649,497.374 327.901,496.986 326.142,496.576 324.376,496.148 322.602,495.706 320.824,495.253 319.042,494.794 317.259,494.33 
  
  "/>
<polyline clip-path="url(#clip172)" style="stroke:#000000; stroke-width:3.99991; stroke-opacity:1; fill:none" points="
  444.854,434.455 446.761,434.914 448.667,435.37 450.569,435.818 452.467,436.256 454.359,436.679 456.243,437.085 458.117,437.468 459.98,437.827 461.832,438.156 
  463.669,438.453 465.49,438.714 467.294,438.936 469.08,439.114 470.845,439.245 472.589,439.326 474.309,439.352 476.004,439.321 477.673,439.229 479.313,439.071 
  480.924,438.846 482.504,438.548 484.051,438.174 485.564,437.721 487.041,437.185 488.48,436.563 489.883,435.854 491.249,435.063 492.581,434.192 493.88,433.245 
  495.148,432.226 496.387,431.139 497.597,429.987 498.781,428.773 499.94,427.502 501.076,426.177 502.19,424.801 503.283,423.378 504.358,421.912 505.416,420.407 
  506.458,418.865 507.486,417.291 508.502,415.688 509.506,414.06 510.502,412.41 511.489,410.742 512.471,409.06 513.447,407.367 514.421,405.667 515.393,403.963 
  
  "/>
<polyline clip-path="url(#clip172)" style="stroke:#000000; stroke-width:3.99991; stroke-opacity:1; fill:none" points="
  614.37,509.42 612.552,509.102 610.736,508.782 608.927,508.457 607.127,508.124 605.339,507.781 603.565,507.426 601.81,507.055 600.075,506.666 598.365,506.257 
  596.681,505.825 595.027,505.367 593.407,504.882 591.822,504.365 590.276,503.816 588.772,503.231 587.312,502.608 585.901,501.944 584.54,501.237 583.234,500.484 
  581.984,499.683 580.794,498.83 579.666,497.924 578.605,496.963 577.612,495.942 576.691,494.861 575.842,493.718 575.061,492.517 574.347,491.26 573.695,489.949 
  573.103,488.588 572.567,487.178 572.086,485.722 571.655,484.223 571.273,482.683 570.935,481.105 570.639,479.492 570.382,477.845 570.16,476.167 569.972,474.462 
  569.814,472.731 569.682,470.977 569.575,469.203 569.488,467.411 569.419,465.604 569.366,463.784 569.324,461.954 569.291,460.116 569.264,458.273 569.241,456.428 
  
  "/>
<polyline clip-path="url(#clip172)" style="stroke:#000000; stroke-width:3.99991; stroke-opacity:1; fill:none" points="
  515.393,403.963 515.669,405.877 515.948,407.789 516.233,409.695 516.526,411.593 516.83,413.48 517.148,415.352 517.482,417.208 517.835,419.044 518.21,420.857 
  518.61,422.645 519.038,424.405 519.495,426.134 519.986,427.829 520.512,429.488 521.076,431.107 521.682,432.684 522.331,434.216 523.027,435.701 523.772,437.134 
  524.57,438.514 525.422,439.838 526.332,441.103 527.302,442.306 528.335,443.444 529.434,444.515 530.599,445.518 531.827,446.456 533.115,447.333 534.46,448.151 
  535.861,448.912 537.313,449.62 538.815,450.277 540.363,450.887 541.956,451.451 543.589,451.973 545.261,452.456 546.969,452.902 548.709,453.315 550.48,453.696 
  552.277,454.049 554.1,454.377 555.945,454.683 557.808,454.969 559.689,455.238 561.583,455.493 563.487,455.736 565.401,455.971 567.319,456.201 569.241,456.428 
  
  "/>
<polyline clip-path="url(#clip172)" style="stroke:#000000; stroke-width:3.99991; stroke-opacity:1; fill:none" points="
  515.393,403.963 516.77,402.631 518.143,401.298 519.508,399.964 520.862,398.629 522.2,397.291 523.519,395.951 524.814,394.608 526.082,393.26 527.319,391.909 
  528.521,390.552 529.684,389.19 530.804,387.822 531.878,386.447 532.901,385.065 533.869,383.676 534.78,382.278 535.628,380.872 536.409,379.456 537.121,378.031 
  537.759,376.595 538.319,375.148 538.797,373.69 539.19,372.22 539.493,370.737 539.703,369.241 539.82,367.732 539.848,366.211 539.789,364.677 539.649,363.132 
  539.432,361.576 539.14,360.01 538.778,358.433 538.35,356.848 537.86,355.254 537.312,353.651 536.709,352.041 536.055,350.424 535.355,348.801 534.612,347.171 
  533.83,345.536 533.014,343.896 532.166,342.251 531.29,340.603 530.392,338.951 529.474,337.297 528.54,335.641 527.595,333.983 526.642,332.323 525.685,330.664 
  
  "/>
<polyline clip-path="url(#clip172)" style="stroke:#000000; stroke-width:3.99991; stroke-opacity:1; fill:none" points="
  464.147,286.059 464.711,287.923 465.277,289.784 465.849,291.639 466.427,293.485 467.014,295.317 467.613,297.134 468.225,298.931 468.854,300.707 469.502,302.457 
  470.17,304.178 470.861,305.867 471.577,307.522 472.321,309.138 473.095,310.713 473.902,312.243 474.743,313.726 475.62,315.158 476.537,316.536 477.496,317.856 
  478.498,319.116 479.547,320.312 480.644,321.442 481.791,322.502 482.992,323.488 484.248,324.399 485.559,325.233 486.923,325.994 488.338,326.685 489.801,327.309 
  491.311,327.869 492.864,328.369 494.459,328.812 496.093,329.201 497.763,329.539 499.469,329.829 501.206,330.075 502.974,330.279 504.769,330.445 506.59,330.577 
  508.434,330.676 510.298,330.747 512.181,330.792 514.08,330.815 515.993,330.819 517.918,330.807 519.851,330.782 521.792,330.748 523.737,330.707 525.685,330.664 
  
  "/>
<path clip-path="url(#clip172)" d="
M595.122 284.708 L589.079 274.241 L576.992 274.241 L570.948 284.708 L576.992 295.175 L589.079 295.175 L595.122 284.708 L595.122 284.708  Z
  " fill="#009af9" fill-rule="evenodd" fill-opacity="1"/>
<polyline clip-path="url(#clip172)" style="stroke:#000000; stroke-width:3.99991; stroke-opacity:1; fill:none" points="
  595.122,284.708 589.079,274.241 576.992,274.241 570.948,284.708 576.992,295.175 589.079,295.175 595.122,284.708 
  "/>
<path clip-path="url(#clip172)" d="
M639.329 232.583 L633.286 222.116 L621.199 222.116 L615.155 232.583 L621.199 243.05 L633.286 243.05 L639.329 232.583 L639.329 232.583  Z
  " fill="#009af9" fill-rule="evenodd" fill-opacity="1"/>
<polyline clip-path="url(#clip172)" style="stroke:#000000; stroke-width:3.99991; stroke-opacity:1; fill:none" points="
  639.329,232.583 633.286,222.116 621.199,222.116 615.155,232.583 621.199,243.05 633.286,243.05 639.329,232.583 
  "/>
<path clip-path="url(#clip172)" d="
M678.135 178.732 L672.091 168.265 L660.004 168.265 L653.961 178.732 L660.004 189.199 L672.091 189.199 L678.135 178.732 L678.135 178.732  Z
  " fill="#009af9" fill-rule="evenodd" fill-opacity="1"/>
<polyline clip-path="url(#clip172)" style="stroke:#000000; stroke-width:3.99991; stroke-opacity:1; fill:none" points="
  678.135,178.732 672.091,168.265 660.004,168.265 653.961,178.732 660.004,189.199 672.091,189.199 678.135,178.732 
  "/>
<path clip-path="url(#clip172)" d="
M714.517 124.272 L708.473 113.805 L696.386 113.805 L690.343 124.272 L696.386 134.74 L708.473 134.74 L714.517 124.272 L714.517 124.272  Z
  " fill="#009af9" fill-rule="evenodd" fill-opacity="1"/>
<polyline clip-path="url(#clip172)" style="stroke:#000000; stroke-width:3.99991; stroke-opacity:1; fill:none" points="
  714.517,124.272 708.473,113.805 696.386,113.805 690.343,124.272 696.386,134.74 708.473,134.74 714.517,124.272 
  "/>
<path clip-path="url(#clip172)" d="
M391.076 464.784 L385.57 455.248 L374.557 455.248 L369.051 464.784 L374.557 474.321 L385.57 474.321 L391.076 464.784 L391.076 464.784  Z
  " fill="#009af9" fill-rule="evenodd" fill-opacity="1"/>
<polyline clip-path="url(#clip172)" style="stroke:#000000; stroke-width:3.99991; stroke-opacity:1; fill:none" points="
  391.076,464.784 385.57,455.248 374.557,455.248 369.051,464.784 374.557,474.321 385.57,474.321 391.076,464.784 
  "/>
<path clip-path="url(#clip172)" d="
M455.867 434.455 L450.36 424.918 L439.348 424.918 L433.841 434.455 L439.348 443.992 L450.36 443.992 L455.867 434.455 L455.867 434.455  Z
  " fill="#009af9" fill-rule="evenodd" fill-opacity="1"/>
<polyline clip-path="url(#clip172)" style="stroke:#000000; stroke-width:3.99991; stroke-opacity:1; fill:none" points="
  455.867,434.455 450.36,424.918 439.348,424.918 433.841,434.455 439.348,443.992 450.36,443.992 455.867,434.455 
  "/>
<path clip-path="url(#clip172)" d="
M649.557 509.42 L631.963 478.949 L596.776 478.949 L579.183 509.42 L596.776 539.891 L631.963 539.891 L649.557 509.42 L649.557 509.42  Z
  " fill="#009af9" fill-rule="evenodd" fill-opacity="1"/>
<polyline clip-path="url(#clip172)" style="stroke:#000000; stroke-width:3.99991; stroke-opacity:1; fill:none" points="
  649.557,509.42 631.963,478.949 596.776,478.949 579.183,509.42 596.776,539.891 631.963,539.891 649.557,509.42 
  "/>
<path clip-path="url(#clip172)" d="
M551.654 403.963 L533.523 372.561 L497.262 372.561 L479.131 403.963 L497.262 435.364 L533.523 435.364 L551.654 403.963 L551.654 403.963  Z
  " fill="#009af9" fill-rule="evenodd" fill-opacity="1"/>
<polyline clip-path="url(#clip172)" style="stroke:#000000; stroke-width:3.99991; stroke-opacity:1; fill:none" points="
  551.654,403.963 533.523,372.561 497.262,372.561 479.131,403.963 497.262,435.364 533.523,435.364 551.654,403.963 
  "/>
<path clip-path="url(#clip172)" d="
M605.502 456.428 L587.371 425.027 L551.11 425.027 L532.979 456.428 L551.11 487.829 L587.371 487.829 L605.502 456.428 L605.502 456.428  Z
  " fill="#009af9" fill-rule="evenodd" fill-opacity="1"/>
<polyline clip-path="url(#clip172)" style="stroke:#000000; stroke-width:3.99991; stroke-opacity:1; fill:none" points="
  605.502,456.428 587.371,425.027 551.11,425.027 532.979,456.428 551.11,487.829 587.371,487.829 605.502,456.428 
  "/>
<path clip-path="url(#clip172)" d="
M328.272 494.33 L322.765 484.794 L311.753 484.794 L306.246 494.33 L311.753 503.867 L322.765 503.867 L328.272 494.33 L328.272 494.33  Z
  " fill="#009af9" fill-rule="evenodd" fill-opacity="1"/>
<polyline clip-path="url(#clip172)" style="stroke:#000000; stroke-width:3.99991; stroke-opacity:1; fill:none" points="
  328.272,494.33 322.765,484.794 311.753,484.794 306.246,494.33 311.753,503.867 322.765,503.867 328.272,494.33 
  "/>
<path clip-path="url(#clip172)" d="
M475.159 286.059 L469.653 276.522 L458.64 276.522 L453.134 286.059 L458.64 295.596 L469.653 295.596 L475.159 286.059 L475.159 286.059  Z
  " fill="#009af9" fill-rule="evenodd" fill-opacity="1"/>
<polyline clip-path="url(#clip172)" style="stroke:#000000; stroke-width:3.99991; stroke-opacity:1; fill:none" points="
  475.159,286.059 469.653,276.522 458.64,276.522 453.134,286.059 458.64,295.596 469.653,295.596 475.159,286.059 
  "/>
<path clip-path="url(#clip172)" d="
M561.946 330.664 L543.815 299.262 L507.554 299.262 L489.424 330.664 L507.554 362.065 L543.815 362.065 L561.946 330.664 L561.946 330.664  Z
  " fill="#009af9" fill-rule="evenodd" fill-opacity="1"/>
<polyline clip-path="url(#clip172)" style="stroke:#000000; stroke-width:3.99991; stroke-opacity:1; fill:none" points="
  561.946,330.664 543.815,299.262 507.554,299.262 489.424,330.664 507.554,362.065 543.815,362.065 561.946,330.664 
  "/>
<path clip-path="url(#clip172)" d="M583.035 285.824 L582.069 285.266 L582.069 284.15 L583.035 283.592 L584.001 284.15 L584.001 285.266 Z" fill="#009af9" fill-rule="evenodd" fill-opacity="1" stroke="#000000" stroke-opacity="1" stroke-width="1.312"/>
<path clip-path="url(#clip172)" d="M627.242 233.699 L626.276 233.141 L626.276 232.025 L627.242 231.468 L628.208 232.025 L628.208 233.141 Z" fill="#009af9" fill-rule="evenodd" fill-opacity="1" stroke="#000000" stroke-opacity="1" stroke-width="1.312"/>
<path clip-path="url(#clip172)" d="M666.048 179.848 L665.082 179.29 L665.082 178.174 L666.048 177.616 L667.014 178.174 L667.014 179.29 Z" fill="#009af9" fill-rule="evenodd" fill-opacity="1" stroke="#000000" stroke-opacity="1" stroke-width="1.312"/>
<path clip-path="url(#clip172)" d="M702.43 125.388 L701.464 124.83 L701.464 123.715 L702.43 123.157 L703.396 123.715 L703.396 124.83 Z" fill="#009af9" fill-rule="evenodd" fill-opacity="1" stroke="#000000" stroke-opacity="1" stroke-width="1.312"/>
<path clip-path="url(#clip172)" d="M380.064 465.9 L379.097 465.342 L379.097 464.226 L380.064 463.668 L381.03 464.226 L381.03 465.342 Z" fill="#009af9" fill-rule="evenodd" fill-opacity="1" stroke="#000000" stroke-opacity="1" stroke-width="1.312"/>
<path clip-path="url(#clip172)" d="M444.854 435.571 L443.888 435.013 L443.888 433.897 L444.854 433.339 L445.82 433.897 L445.82 435.013 Z" fill="#009af9" fill-rule="evenodd" fill-opacity="1" stroke="#000000" stroke-opacity="1" stroke-width="1.312"/>
<path clip-path="url(#clip172)" d="M614.37 510.536 L613.404 509.978 L613.404 508.862 L614.37 508.304 L615.336 508.862 L615.336 509.978 Z" fill="#009af9" fill-rule="evenodd" fill-opacity="1" stroke="#000000" stroke-opacity="1" stroke-width="1.312"/>
<path clip-path="url(#clip172)" d="M515.393 405.078 L514.426 404.521 L514.426 403.405 L515.393 402.847 L516.359 403.405 L516.359 404.521 Z" fill="#009af9" fill-rule="evenodd" fill-opacity="1" stroke="#000000" stroke-opacity="1" stroke-width="1.312"/>
<path clip-path="url(#clip172)" d="M569.241 457.544 L568.274 456.986 L568.274 455.87 L569.241 455.312 L570.207 455.87 L570.207 456.986 Z" fill="#009af9" fill-rule="evenodd" fill-opacity="1" stroke="#000000" stroke-opacity="1" stroke-width="1.312"/>
<path clip-path="url(#clip172)" d="M317.259 495.446 L316.293 494.888 L316.293 493.773 L317.259 493.215 L318.225 493.773 L318.225 494.888 Z" fill="#009af9" fill-rule="evenodd" fill-opacity="1" stroke="#000000" stroke-opacity="1" stroke-width="1.312"/>
<path clip-path="url(#clip172)" d="M464.147 287.175 L463.18 286.617 L463.18 285.501 L464.147 284.943 L465.113 285.501 L465.113 286.617 Z" fill="#009af9" fill-rule="evenodd" fill-opacity="1" stroke="#000000" stroke-opacity="1" stroke-width="1.312"/>
<path clip-path="url(#clip172)" d="M525.685 331.779 L524.719 331.221 L524.719 330.106 L525.685 329.548 L526.651 330.106 L526.651 331.221 Z" fill="#009af9" fill-rule="evenodd" fill-opacity="1" stroke="#000000" stroke-opacity="1" stroke-width="1.312"/>
</svg>
