<?xml version="1.0" encoding="utf-8"?>
<svg xmlns="http://www.w3.org/2000/svg" xmlns:xlink="http://www.w3.org/1999/xlink" width="138.75" height="91.5" viewBox="0 0 555 366">
<defs>
  <clipPath id="clip380">
    <rect x="0" y="0" width="555" height="366"/>
  </clipPath>
</defs>
<path clip-path="url(#clip380)" d="
M0 366 L555 366 L555 0 L0 0  Z
  " fill="#ffffff" fill-rule="evenodd" fill-opacity="1"/>
<defs>
  <clipPath id="clip381">
    <rect x="111" y="0" width="390" height="366"/>
  </clipPath>
</defs>
<path clip-path="url(#clip380)" d="
M162.003 299.345 L414.308 299.345 L414.308 47.2465 L162.003 47.2465  Z
  " fill="#ffffff" fill-rule="evenodd" fill-opacity="1"/>
<defs>
  <clipPath id="clip382">
    <rect x="162" y="47" width="253" height="253"/>
  </clipPath>
</defs>
<polyline clip-path="url(#clip382)" style="stroke:#000000; stroke-width:4.0002; stroke-opacity:1; fill:none" points="
  378.265,263.331 376.58,262.58 374.897,261.828 373.215,261.073 371.538,260.314 369.865,259.549 368.199,258.777 366.54,257.998 364.889,257.208 363.248,256.408 
  361.618,255.595 360,254.768 358.396,253.927 356.806,253.068 355.232,252.192 353.675,251.297 352.136,250.381 350.617,249.443 349.118,248.481 347.642,247.495 
  346.188,246.482 344.759,245.442 343.355,244.373 341.978,243.274 340.629,242.143 339.309,240.979 338.018,239.782 336.756,238.554 335.52,237.295 334.309,236.007 
  333.123,234.692 331.96,233.35 330.819,231.984 329.699,230.594 328.598,229.182 327.515,227.75 326.449,226.298 325.399,224.829 324.364,223.343 323.342,221.842 
  322.332,220.327 321.333,218.799 320.344,217.261 319.364,215.713 318.391,214.156 317.423,212.593 316.461,211.024 315.502,209.452 314.546,207.876 313.591,206.299 
  
  "/>
<polyline clip-path="url(#clip382)" style="stroke:#000000; stroke-width:4.0002; stroke-opacity:1; fill:none" points="
  253.356,146.249 254.195,147.865 255.037,149.479 255.88,151.091 256.728,152.698 257.581,154.301 258.44,155.897 259.307,157.485 260.184,159.064 261.07,160.633 
  261.968,162.19 262.88,163.734 263.805,165.264 264.746,166.778 265.704,168.275 266.68,169.754 267.676,171.213 268.693,172.652 269.731,174.069 270.793,175.462 
  271.879,176.83 272.992,178.173 274.132,179.488 275.3,180.774 276.498,182.031 277.728,183.257 278.988,184.451 280.278,185.615 281.597,186.751 282.943,187.86 
  284.315,188.942 285.712,190 287.132,191.035 288.574,192.047 290.037,193.038 291.52,194.01 293.02,194.964 294.538,195.901 296.071,196.823 297.618,197.73 
  299.178,198.624 300.75,199.506 302.333,200.378 303.924,201.241 305.523,202.096 307.129,202.944 308.74,203.787 310.355,204.627 311.972,205.463 313.591,206.299 
  
  "/>
<polyline clip-path="url(#clip382)" style="stroke:#000000; stroke-width:4.0002; stroke-opacity:1; fill:none" points="
  253.356,146.249 251.812,145.327 250.271,144.404 248.731,143.478 247.197,142.549 245.667,141.614 244.145,140.674 242.63,139.727 241.126,138.77 239.632,137.805 
  238.151,136.828 236.684,135.839 235.232,134.837 233.797,133.821 232.379,132.788 230.981,131.739 229.604,130.671 228.248,129.584 226.917,128.477 225.61,127.348 
  224.329,126.195 223.076,125.019 221.852,123.817 220.658,122.588 219.496,121.332 218.368,120.046 217.272,118.732 216.208,117.389 215.175,116.02 214.17,114.626 
  213.193,113.207 212.243,111.766 211.317,110.302 210.415,108.818 209.535,107.315 208.676,105.793 207.835,104.254 207.013,102.7 206.208,101.131 205.418,99.5489 
  204.641,97.9546 203.877,96.3494 203.124,94.7345 202.381,93.1111 201.646,91.4804 200.918,89.8437 200.195,88.2021 199.477,86.5569 198.761,84.9093 198.047,83.2605 
  
  "/>
<path clip-path="url(#clip382)" d="
M410.091 263.331 L394.178 235.791 L362.352 235.791 L346.439 263.331 L362.352 290.87 L394.178 290.87 L410.091 263.331 L410.091 263.331  Z
  " fill="#009af9" fill-rule="evenodd" fill-opacity="1"/>
<polyline clip-path="url(#clip382)" style="stroke:#000000; stroke-width:4.0002; stroke-opacity:1; fill:none" points="
  410.091,263.331 394.178,235.791 362.352,235.791 346.439,263.331 362.352,290.87 394.178,290.87 410.091,263.331 
  "/>
<path clip-path="url(#clip382)" d="
M284.951 146.249 L269.153 118.909 L237.558 118.909 L221.76 146.249 L237.558 173.59 L269.153 173.59 L284.951 146.249 L284.951 146.249  Z
  " fill="#009af9" fill-rule="evenodd" fill-opacity="1"/>
<polyline clip-path="url(#clip382)" style="stroke:#000000; stroke-width:4.0002; stroke-opacity:1; fill:none" points="
  284.951,146.249 269.153,118.909 237.558,118.909 221.76,146.249 237.558,173.59 269.153,173.59 284.951,146.249 
  "/>
<path clip-path="url(#clip382)" d="
M345.187 206.299 L329.389 178.959 L297.793 178.959 L281.995 206.299 L297.793 233.639 L329.389 233.639 L345.187 206.299 L345.187 206.299  Z
  " fill="#009af9" fill-rule="evenodd" fill-opacity="1"/>
<polyline clip-path="url(#clip382)" style="stroke:#000000; stroke-width:4.0002; stroke-opacity:1; fill:none" points="
  345.187,206.299 329.389,178.959 297.793,178.959 281.995,206.299 297.793,233.639 329.389,233.639 345.187,206.299 345.187,206.299 
  "/>
<path clip-path="url(#clip382)" d="
M229.182 83.2605 L213.614 56.319 L182.48 56.319 L166.912 83.2605 L182.48 110.202 L213.614 110.202 L229.182 83.2605 L229.182 83.2605  Z
  " fill="#009af9" fill-rule="evenodd" fill-opacity="1"/>
<polyline clip-path="url(#clip382)" style="stroke:#000000; stroke-width:4.0002; stroke-opacity:1; fill:none" points="
  229.182,83.2605 213.614,56.319 182.48,56.319 166.912,83.2605 182.48,110.202 213.614,110.202 229.182,83.2605 
  "/>
<path clip-path="url(#clip382)" d="M378.265 265.331 L376.533 264.331 L376.533 262.331 L378.265 261.331 L379.997 262.331 L379.997 264.331 Z" fill="#009af9" fill-rule="evenodd" fill-opacity="1" stroke="#000000" stroke-opacity="1" stroke-width="0.732"/>
<path clip-path="url(#clip382)" d="M253.356 148.249 L251.624 147.249 L251.624 145.249 L253.356 144.249 L255.088 145.249 L255.088 147.249 Z" fill="#009af9" fill-rule="evenodd" fill-opacity="1" stroke="#000000" stroke-opacity="1" stroke-width="0.732"/>
<path clip-path="url(#clip382)" d="M313.591 208.299 L311.859 207.299 L311.859 205.299 L313.591 204.299 L315.323 205.299 L315.323 207.299 Z" fill="#009af9" fill-rule="evenodd" fill-opacity="1" stroke="#000000" stroke-opacity="1" stroke-width="0.732"/>
<path clip-path="url(#clip382)" d="M198.047 85.2606 L196.315 84.2605 L196.315 82.2604 L198.047 81.2604 L199.779 82.2604 L199.779 84.2605 Z" fill="#009af9" fill-rule="evenodd" fill-opacity="1" stroke="#000000" stroke-opacity="1" stroke-width="0.732"/>
</svg>
