<?xml version="1.0" encoding="utf-8"?>
<svg xmlns="http://www.w3.org/2000/svg" xmlns:xlink="http://www.w3.org/1999/xlink" width="179.25" height="118.25" viewBox="0 0 717 473">
<defs>
  <clipPath id="clip190">
    <rect x="0" y="0" width="717" height="473"/>
  </clipPath>
</defs>
<path clip-path="url(#clip190)" d="
M0 473 L717 473 L717 0 L0 0  Z
  " fill="#ffffff" fill-rule="evenodd" fill-opacity="1"/>
<defs>
  <clipPath id="clip191">
    <rect x="143" y="0" width="503" height="473"/>
  </clipPath>
</defs>
<path clip-path="url(#clip190)" d="
M190.859 405.281 L549.065 405.281 L549.065 47.2416 L190.859 47.2416  Z
  " fill="#ffffff" fill-rule="evenodd" fill-opacity="1"/>
<defs>
  <clipPath id="clip192">
    <rect x="190" y="47" width="359" height="359"/>
  </clipPath>
</defs>
<polyline clip-path="url(#clip192)" style="stroke:#000000; stroke-width:3.99979; stroke-opacity:1; fill:none" points="
  242.032,137.828 243.128,139.057 244.225,140.284 245.324,141.506 246.426,142.721 247.531,143.926 248.64,145.118 249.755,146.296 250.876,147.457 252.005,148.598 
  253.141,149.717 254.286,150.812 255.441,151.879 256.607,152.917 257.784,153.923 258.974,154.895 260.177,155.83 261.394,156.726 262.626,157.581 263.875,158.391 
  265.14,159.154 266.423,159.868 267.725,160.531 269.046,161.14 270.388,161.693 271.751,162.186 273.135,162.621 274.54,163 275.964,163.325 277.407,163.598 
  278.868,163.822 280.345,163.999 281.839,164.133 283.348,164.224 284.871,164.277 286.407,164.293 287.956,164.274 289.517,164.223 291.088,164.143 292.669,164.036 
  294.258,163.905 295.856,163.751 297.461,163.578 299.072,163.388 300.688,163.183 302.309,162.965 303.934,162.738 305.561,162.504 307.19,162.264 308.819,162.022 
  
  "/>
<polyline clip-path="url(#clip192)" style="stroke:#000000; stroke-width:3.99979; stroke-opacity:1; fill:none" points="
  376.408,186.237 374.764,186.479 373.122,186.719 371.481,186.954 369.842,187.182 368.208,187.4 366.578,187.605 364.953,187.796 363.334,187.97 361.722,188.124 
  360.118,188.255 358.523,188.363 356.938,188.443 355.363,188.494 353.799,188.513 352.248,188.497 350.711,188.445 349.187,188.354 347.678,188.22 346.185,188.043 
  344.709,187.819 343.251,187.545 341.81,187.221 340.39,186.842 338.989,186.406 337.61,185.912 336.252,185.359 334.914,184.75 333.595,184.086 332.295,183.371 
  331.012,182.607 329.747,181.796 328.497,180.941 327.262,180.044 326.041,179.108 324.833,178.135 323.638,177.128 322.454,176.089 321.28,175.02 320.117,173.924 
  318.962,172.804 317.815,171.662 316.675,170.5 315.541,169.321 314.413,168.127 313.289,166.921 312.169,165.705 311.051,164.481 309.935,163.253 308.819,162.022 
  
  "/>
<polyline clip-path="url(#clip192)" style="stroke:#000000; stroke-width:3.99979; stroke-opacity:1; fill:none" points="
  376.408,186.237 377.588,187.491 378.769,188.744 379.952,189.991 381.137,191.231 382.326,192.461 383.52,193.679 384.718,194.882 385.923,196.068 387.135,197.235 
  388.355,198.379 389.583,199.498 390.822,200.591 392.071,201.654 393.331,202.686 394.604,203.683 395.89,204.643 397.19,205.563 398.505,206.443 399.836,207.277 
  401.184,208.066 402.549,208.805 403.933,209.492 405.336,210.126 406.76,210.703 408.204,211.221 409.67,211.681 411.156,212.084 412.661,212.433 414.185,212.73 
  415.727,212.978 417.285,213.18 418.859,213.337 420.449,213.453 422.052,213.53 423.668,213.569 425.297,213.574 426.938,213.548 428.588,213.492 430.249,213.408 
  431.918,213.301 433.596,213.171 435.28,213.022 436.971,212.855 438.667,212.674 440.367,212.48 442.071,212.276 443.777,212.066 445.485,211.85 447.194,211.632 
  
  "/>
<polyline clip-path="url(#clip192)" style="stroke:#000000; stroke-width:3.99979; stroke-opacity:1; fill:none" points="
  478.034,354.133 476.639,351.39 475.247,348.647 473.86,345.902 472.481,343.156 471.112,340.408 469.756,337.657 468.415,334.902 467.092,332.144 465.789,329.382 
  464.51,326.614 463.255,323.841 462.029,321.062 460.834,318.276 459.671,315.483 458.545,312.683 457.456,309.874 456.409,307.056 455.404,304.229 454.446,301.392 
  453.536,298.544 452.677,295.686 451.872,292.815 451.123,289.933 450.433,287.038 449.803,284.13 449.235,281.209 448.725,278.274 448.272,275.328 447.872,272.37 
  447.523,269.402 447.223,266.422 446.968,263.433 446.757,260.434 446.587,257.427 446.454,254.411 446.358,251.388 446.295,248.357 446.262,245.32 446.258,242.277 
  446.279,239.228 446.323,236.174 446.387,233.116 446.469,230.054 446.567,226.989 446.677,223.921 446.797,220.85 446.925,217.778 447.059,214.705 447.194,211.632 
  
  "/>
<polyline clip-path="url(#clip192)" style="stroke:#000000; stroke-width:3.99979; stroke-opacity:1; fill:none" points="
  497.893,98.3901 497.573,101.021 497.25,103.65 496.923,106.278 496.589,108.902 496.245,111.522 495.889,114.137 495.519,116.745 495.132,119.346 494.726,121.938 
  494.299,124.521 493.847,127.093 493.37,129.653 492.864,132.201 492.327,134.735 491.757,137.253 491.151,139.756 490.507,142.242 489.822,144.709 489.095,147.158 
  488.322,149.586 487.502,151.993 486.631,154.378 485.709,156.739 484.731,159.075 483.696,161.386 482.605,163.672 481.458,165.933 480.259,168.17 479.01,170.386 
  477.714,172.58 476.372,174.753 474.987,176.908 473.562,179.044 472.098,181.163 470.599,183.267 469.067,185.355 467.503,187.43 465.911,189.491 464.293,191.541 
  462.651,193.581 460.988,195.611 459.305,197.632 457.606,199.646 455.893,201.653 454.167,203.655 452.432,205.653 450.69,207.648 448.944,209.64 447.194,211.632 
  
  "/>
<path clip-path="url(#clip192)" d="
M276.864 137.828 L259.448 107.676 L224.615 107.676 L207.199 137.828 L224.615 167.979 L259.448 167.979 L276.864 137.828 L276.864 137.828  Z
  " fill="#009af9" fill-rule="evenodd" fill-opacity="1"/>
<polyline clip-path="url(#clip192)" style="stroke:#000000; stroke-width:3.99979; stroke-opacity:1; fill:none" points="
  276.864,137.828 259.448,107.676 224.615,107.676 207.199,137.828 224.615,167.979 259.448,167.979 276.864,137.828 276.864,137.828 
  "/>
<path clip-path="url(#clip192)" d="
M410.988 186.237 L393.698 156.303 L359.117 156.303 L341.827 186.237 L359.117 216.17 L393.698 216.17 L410.988 186.237 L410.988 186.237  Z
  " fill="#009af9" fill-rule="evenodd" fill-opacity="1"/>
<polyline clip-path="url(#clip192)" style="stroke:#000000; stroke-width:3.99979; stroke-opacity:1; fill:none" points="
  410.988,186.237 393.698,156.303 359.117,156.303 341.827,186.237 359.117,216.17 393.698,216.17 410.988,186.237 
  "/>
<path clip-path="url(#clip192)" d="
M488.183 354.133 L483.109 345.347 L472.959 345.347 L467.884 354.133 L472.959 362.919 L483.109 362.919 L488.183 354.133 L488.183 354.133  Z
  " fill="#009af9" fill-rule="evenodd" fill-opacity="1"/>
<polyline clip-path="url(#clip192)" style="stroke:#000000; stroke-width:3.99979; stroke-opacity:1; fill:none" points="
  488.183,354.133 483.109,345.347 472.959,345.347 467.884,354.133 472.959,362.919 483.109,362.919 488.183,354.133 
  "/>
<path clip-path="url(#clip192)" d="
M343.4 162.022 L326.109 132.089 L291.529 132.089 L274.239 162.022 L291.529 191.956 L326.109 191.956 L343.4 162.022 L343.4 162.022  Z
  " fill="#009af9" fill-rule="evenodd" fill-opacity="1"/>
<polyline clip-path="url(#clip192)" style="stroke:#000000; stroke-width:3.99979; stroke-opacity:1; fill:none" points="
  343.4,162.022 326.109,132.089 291.529,132.089 274.239,162.022 291.529,191.956 326.109,191.956 343.4,162.022 
  "/>
<path clip-path="url(#clip192)" d="
M508.043 98.3901 L502.968 89.6041 L492.818 89.6041 L487.743 98.3901 L492.818 107.176 L502.968 107.176 L508.043 98.3901 L508.043 98.3901  Z
  " fill="#009af9" fill-rule="evenodd" fill-opacity="1"/>
<polyline clip-path="url(#clip192)" style="stroke:#000000; stroke-width:3.99979; stroke-opacity:1; fill:none" points="
  508.043,98.3901 502.968,89.6041 492.818,89.6041 487.743,98.3901 492.818,107.176 502.968,107.176 508.043,98.3901 
  "/>
<path clip-path="url(#clip192)" d="
M481.271 211.632 L464.233 182.134 L430.156 182.134 L413.118 211.632 L430.156 241.129 L464.233 241.129 L481.271 211.632 L481.271 211.632  Z
  " fill="#009af9" fill-rule="evenodd" fill-opacity="1"/>
<polyline clip-path="url(#clip192)" style="stroke:#000000; stroke-width:3.99979; stroke-opacity:1; fill:none" points="
  481.271,211.632 464.233,182.134 430.156,182.134 413.118,211.632 430.156,241.129 464.233,241.129 481.271,211.632 
  "/>
<path clip-path="url(#clip192)" d="M242.032 139.375 L240.692 138.602 L240.692 137.054 L242.032 136.281 L243.372 137.054 L243.372 138.602 Z" fill="#009af9" fill-rule="evenodd" fill-opacity="1" stroke="#000000" stroke-opacity="1" stroke-width="0.946"/>
<path clip-path="url(#clip192)" d="M376.408 187.784 L375.068 187.01 L375.068 185.463 L376.408 184.689 L377.748 185.463 L377.748 187.01 Z" fill="#009af9" fill-rule="evenodd" fill-opacity="1" stroke="#000000" stroke-opacity="1" stroke-width="0.946"/>
<path clip-path="url(#clip192)" d="M478.034 355.68 L476.694 354.906 L476.694 353.359 L478.034 352.585 L479.374 353.359 L479.374 354.906 Z" fill="#009af9" fill-rule="evenodd" fill-opacity="1" stroke="#000000" stroke-opacity="1" stroke-width="0.946"/>
<path clip-path="url(#clip192)" d="M308.819 163.57 L307.479 162.796 L307.479 161.249 L308.819 160.475 L310.159 161.249 L310.159 162.796 Z" fill="#009af9" fill-rule="evenodd" fill-opacity="1" stroke="#000000" stroke-opacity="1" stroke-width="0.946"/>
<path clip-path="url(#clip192)" d="M497.893 99.9375 L496.553 99.1638 L496.553 97.6165 L497.893 96.8428 L499.233 97.6165 L499.233 99.1638 Z" fill="#009af9" fill-rule="evenodd" fill-opacity="1" stroke="#000000" stroke-opacity="1" stroke-width="0.946"/>
<path clip-path="url(#clip192)" d="M447.194 213.179 L445.854 212.405 L445.854 210.858 L447.194 210.084 L448.534 210.858 L448.534 212.405 Z" fill="#009af9" fill-rule="evenodd" fill-opacity="1" stroke="#000000" stroke-opacity="1" stroke-width="0.946"/>
</svg>
