<?xml version="1.0" encoding="utf-8"?>
<svg xmlns="http://www.w3.org/2000/svg" xmlns:xlink="http://www.w3.org/1999/xlink" width="179.25" height="118.25" viewBox="0 0 717 473">
<defs>
  <clipPath id="clip300">
    <rect x="0" y="0" width="717" height="473"/>
  </clipPath>
</defs>
<path clip-path="url(#clip300)" d="
M0 473 L717 473 L717 0 L0 0  Z
  " fill="#ffffff" fill-rule="evenodd" fill-opacity="1"/>
<defs>
  <clipPath id="clip301">
    <rect x="143" y="0" width="503" height="473"/>
  </clipPath>
</defs>
<path clip-path="url(#clip300)" d="
M190.859 405.281 L549.065 405.281 L549.065 47.2416 L190.859 47.2416  Z
  " fill="#ffffff" fill-rule="evenodd" fill-opacity="1"/>
<defs>
  <clipPath id="clip302">
    <rect x="190" y="47" width="359" height="359"/>
  </clipPath>
</defs>
<polyline clip-path="url(#clip302)" style="stroke:#000000; stroke-width:3.99979; stroke-opacity:1; fill:none" points="
  497.893,354.133 496.205,353.523 494.518,352.911 492.836,352.295 491.159,351.675 489.489,351.046 487.829,350.409 486.18,349.761 484.544,349.1 482.923,348.424 
  481.319,347.733 479.734,347.022 478.169,346.292 476.626,345.54 475.108,344.765 473.616,343.963 472.152,343.135 470.718,342.277 469.316,341.389 467.947,340.467 
  466.614,339.512 465.318,338.519 464.062,337.489 462.846,336.418 461.674,335.305 460.546,334.149 459.463,332.949 458.423,331.708 457.424,330.426 456.465,329.106 
  455.543,327.75 454.656,326.359 453.803,324.935 452.981,323.48 452.19,321.996 451.427,320.485 450.689,318.948 449.977,317.388 449.286,315.806 448.616,314.204 
  447.965,312.583 447.33,310.946 446.711,309.295 446.104,307.631 445.509,305.956 444.923,304.272 444.345,302.58 443.772,300.883 443.203,299.183 442.636,297.48 
  
  "/>
<polyline clip-path="url(#clip302)" style="stroke:#000000; stroke-width:3.99979; stroke-opacity:1; fill:none" points="
  387.488,239.533 388.047,241.255 388.607,242.975 389.171,244.692 389.74,246.403 390.318,248.107 390.904,249.802 391.502,251.486 392.113,253.157 392.74,254.815 
  393.383,256.456 394.045,258.079 394.728,259.682 395.434,261.263 396.165,262.822 396.921,264.355 397.707,265.861 398.522,267.338 399.37,268.785 400.251,270.199 
  401.169,271.58 402.124,272.924 403.119,274.231 404.156,275.498 405.236,276.723 406.361,277.906 407.532,279.045 408.746,280.144 410.002,281.202 411.298,282.223 
  412.631,283.208 414.001,284.159 415.404,285.077 416.839,285.965 418.305,286.824 419.799,287.656 421.32,288.463 422.865,289.247 424.433,290.008 426.021,290.751 
  427.629,291.475 429.254,292.183 430.893,292.877 432.546,293.558 434.211,294.228 435.884,294.889 437.566,295.543 439.253,296.192 440.943,296.837 442.636,297.48 
  
  "/>
<polyline clip-path="url(#clip302)" style="stroke:#000000; stroke-width:3.99979; stroke-opacity:1; fill:none" points="
  387.488,239.533 385.741,238.836 383.996,238.137 382.255,237.435 380.519,236.727 378.791,236.012 377.073,235.288 375.365,234.553 373.671,233.805 371.992,233.043 
  370.33,232.265 368.687,231.469 367.065,230.653 365.465,229.816 363.89,228.955 362.341,228.069 360.821,227.155 359.331,226.213 357.873,225.241 356.449,224.236 
  355.061,223.197 353.71,222.122 352.399,221.009 351.13,219.856 349.904,218.662 348.724,217.425 347.589,216.144 346.497,214.823 345.447,213.461 344.436,212.062 
  343.463,210.627 342.526,209.158 341.623,207.656 340.752,206.124 339.912,204.563 339.099,202.975 338.314,201.361 337.552,199.725 336.814,198.066 336.096,196.388 
  335.397,194.692 334.715,192.979 334.048,191.253 333.394,189.513 332.752,187.763 332.119,186.004 331.493,184.238 330.874,182.466 330.258,180.69 329.644,178.913 
  
  "/>
<polyline clip-path="url(#clip302)" style="stroke:#000000; stroke-width:3.99979; stroke-opacity:1; fill:none" points="
  242.032,189.63 243.915,190.188 245.797,190.743 247.68,191.294 249.561,191.836 251.441,192.368 253.319,192.887 255.195,193.391 257.07,193.876 258.941,194.341 
  260.81,194.782 262.676,195.198 264.538,195.585 266.396,195.941 268.251,196.263 270.1,196.549 271.945,196.797 273.785,197.002 275.62,197.164 277.449,197.279 
  279.272,197.345 281.088,197.36 282.898,197.319 284.701,197.222 286.497,197.066 288.285,196.847 290.065,196.566 291.838,196.226 293.604,195.829 295.364,195.377 
  297.117,194.874 298.864,194.321 300.605,193.722 302.342,193.078 304.072,192.394 305.799,191.67 307.52,190.911 309.238,190.117 310.952,189.293 312.662,188.44 
  314.369,187.561 316.074,186.659 317.776,185.736 319.475,184.795 321.173,183.838 322.869,182.869 324.564,181.889 326.258,180.901 327.951,179.909 329.644,178.913 
  
  "/>
<polyline clip-path="url(#clip302)" style="stroke:#000000; stroke-width:3.99979; stroke-opacity:1; fill:none" points="
  350.6,98.3901 350.93,100.23 351.257,102.07 351.579,103.908 351.894,105.745 352.199,107.579 352.491,109.409 352.768,111.236 353.027,113.057 353.266,114.874 
  353.482,116.685 353.673,118.489 353.836,120.286 353.969,122.075 354.069,123.856 354.134,125.627 354.161,127.389 354.147,129.14 354.091,130.879 353.989,132.607 
  353.839,134.323 353.639,136.025 353.385,137.714 353.076,139.388 352.709,141.047 352.281,142.691 351.793,144.318 351.247,145.931 350.645,147.529 349.99,149.113 
  349.285,150.684 348.531,152.243 347.732,153.789 346.891,155.325 346.008,156.85 345.088,158.366 344.133,159.872 343.145,161.369 342.126,162.859 341.08,164.341 
  340.008,165.817 338.914,167.287 337.799,168.752 336.667,170.212 335.52,171.668 334.36,173.121 333.189,174.572 332.012,176.02 330.829,177.467 329.644,178.913 
  
  "/>
<path clip-path="url(#clip302)" d="
M532.725 354.133 L515.309 323.981 L480.477 323.981 L463.061 354.133 L480.477 384.284 L515.309 384.284 L532.725 354.133 L532.725 354.133  Z
  " fill="#009af9" fill-rule="evenodd" fill-opacity="1"/>
<polyline clip-path="url(#clip302)" style="stroke:#000000; stroke-width:3.99979; stroke-opacity:1; fill:none" points="
  532.725,354.133 515.309,323.981 480.477,323.981 463.061,354.133 480.477,384.284 515.309,384.284 532.725,354.133 
  "/>
<path clip-path="url(#clip302)" d="
M422.069 239.533 L404.778 209.6 L370.198 209.6 L352.908 239.533 L370.198 269.467 L404.778 269.467 L422.069 239.533 L422.069 239.533  Z
  " fill="#009af9" fill-rule="evenodd" fill-opacity="1"/>
<polyline clip-path="url(#clip302)" style="stroke:#000000; stroke-width:3.99979; stroke-opacity:1; fill:none" points="
  422.069,239.533 404.778,209.6 370.198,209.6 352.908,239.533 370.198,269.467 404.778,269.467 422.069,239.533 
  "/>
<path clip-path="url(#clip302)" d="
M252.181 189.63 L247.107 180.844 L236.957 180.844 L231.882 189.63 L236.957 198.416 L247.107 198.416 L252.181 189.63 L252.181 189.63  Z
  " fill="#009af9" fill-rule="evenodd" fill-opacity="1"/>
<polyline clip-path="url(#clip302)" style="stroke:#000000; stroke-width:3.99979; stroke-opacity:1; fill:none" points="
  252.181,189.63 247.107,180.844 236.957,180.844 231.882,189.63 236.957,198.416 247.107,198.416 252.181,189.63 
  "/>
<path clip-path="url(#clip302)" d="
M477.216 297.48 L459.926 267.547 L425.346 267.547 L408.056 297.48 L425.346 327.414 L459.926 327.414 L477.216 297.48 L477.216 297.48  Z
  " fill="#009af9" fill-rule="evenodd" fill-opacity="1"/>
<polyline clip-path="url(#clip302)" style="stroke:#000000; stroke-width:3.99979; stroke-opacity:1; fill:none" points="
  477.216,297.48 459.926,267.547 425.346,267.547 408.056,297.48 425.346,327.414 459.926,327.414 477.216,297.48 
  "/>
<path clip-path="url(#clip302)" d="
M360.75 98.3901 L355.675 89.6041 L345.525 89.6041 L340.45 98.3901 L345.525 107.176 L355.675 107.176 L360.75 98.3901 L360.75 98.3901  Z
  " fill="#009af9" fill-rule="evenodd" fill-opacity="1"/>
<polyline clip-path="url(#clip302)" style="stroke:#000000; stroke-width:3.99979; stroke-opacity:1; fill:none" points="
  360.75,98.3901 355.675,89.6041 345.525,89.6041 340.45,98.3901 345.525,107.176 355.675,107.176 360.75,98.3901 
  "/>
<path clip-path="url(#clip302)" d="
M363.72 178.913 L346.682 149.416 L312.605 149.416 L295.567 178.913 L312.605 208.411 L346.682 208.411 L363.72 178.913 L363.72 178.913  Z
  " fill="#009af9" fill-rule="evenodd" fill-opacity="1"/>
<polyline clip-path="url(#clip302)" style="stroke:#000000; stroke-width:3.99979; stroke-opacity:1; fill:none" points="
  363.72,178.913 346.682,149.416 312.605,149.416 295.567,178.913 312.605,208.411 346.682,208.411 363.72,178.913 
  "/>
<path clip-path="url(#clip302)" d="M497.893 355.68 L496.553 354.906 L496.553 353.359 L497.893 352.585 L499.233 353.359 L499.233 354.906 Z" fill="#009af9" fill-rule="evenodd" fill-opacity="1" stroke="#000000" stroke-opacity="1" stroke-width="0.946"/>
<path clip-path="url(#clip302)" d="M387.488 241.081 L386.148 240.307 L386.148 238.76 L387.488 237.986 L388.828 238.76 L388.828 240.307 Z" fill="#009af9" fill-rule="evenodd" fill-opacity="1" stroke="#000000" stroke-opacity="1" stroke-width="0.946"/>
<path clip-path="url(#clip302)" d="M242.032 191.177 L240.692 190.404 L240.692 188.856 L242.032 188.083 L243.372 188.856 L243.372 190.404 Z" fill="#009af9" fill-rule="evenodd" fill-opacity="1" stroke="#000000" stroke-opacity="1" stroke-width="0.946"/>
<path clip-path="url(#clip302)" d="M442.636 299.028 L441.296 298.254 L441.296 296.707 L442.636 295.933 L443.976 296.707 L443.976 298.254 Z" fill="#009af9" fill-rule="evenodd" fill-opacity="1" stroke="#000000" stroke-opacity="1" stroke-width="0.946"/>
<path clip-path="url(#clip302)" d="M350.6 99.9375 L349.26 99.1638 L349.26 97.6165 L350.6 96.8428 L351.94 97.6165 L351.94 99.1638 Z" fill="#009af9" fill-rule="evenodd" fill-opacity="1" stroke="#000000" stroke-opacity="1" stroke-width="0.946"/>
<path clip-path="url(#clip302)" d="M329.644 180.461 L328.304 179.687 L328.304 178.14 L329.644 177.366 L330.984 178.14 L330.984 179.687 Z" fill="#009af9" fill-rule="evenodd" fill-opacity="1" stroke="#000000" stroke-opacity="1" stroke-width="0.946"/>
</svg>
