<?xml version="1.0" encoding="utf-8"?>
<svg xmlns="http://www.w3.org/2000/svg" xmlns:xlink="http://www.w3.org/1999/xlink" width="600" height="400" viewBox="0 0 2400 1600">
<defs>
  <clipPath id="clip850">
    <rect x="0" y="0" width="2400" height="1600"/>
  </clipPath>
</defs>
<path clip-path="url(#clip850)" d="
M0 1600 L2400 1600 L2400 0 L0 0  Z
  " fill="#ffffff" fill-rule="evenodd" fill-opacity="1"/>
<defs>
  <clipPath id="clip851">
    <rect x="480" y="0" width="1681" height="1600"/>
  </clipPath>
</defs>
<path clip-path="url(#clip850)" d="
M482.992 1521.01 L1956.76 1521.01 L1956.76 47.2441 L482.992 47.2441  Z
  " fill="#ffffff" fill-rule="evenodd" fill-opacity="1"/>
<defs>
  <clipPath id="clip852">
    <rect x="482" y="47" width="1475" height="1475"/>
  </clipPath>
</defs>
<polyline clip-path="url(#clip852)" style="stroke:#000000; stroke-width:4; stroke-opacity:1; fill:none" points="
  850.734,1216.03 849.184,1220.72 847.629,1225.4 846.063,1230.06 844.48,1234.69 842.875,1239.29 841.242,1243.84 839.576,1248.33 837.872,1252.76 836.123,1257.12 
  834.325,1261.4 832.471,1265.58 830.556,1269.66 828.575,1273.63 826.522,1277.48 824.392,1281.2 822.179,1284.78 819.877,1288.22 817.481,1291.5 814.986,1294.61 
  812.386,1297.55 809.675,1300.31 806.848,1302.87 803.899,1305.23 800.824,1307.38 797.615,1309.31 794.275,1311.01 790.807,1312.51 787.217,1313.8 783.512,1314.9 
  779.695,1315.82 775.774,1316.56 771.753,1317.13 767.639,1317.55 763.435,1317.82 759.149,1317.95 754.785,1317.96 750.35,1317.84 745.848,1317.61 741.285,1317.29 
  736.667,1316.87 732,1316.37 727.288,1315.79 722.537,1315.15 717.753,1314.45 712.942,1313.71 708.108,1312.93 703.258,1312.13 698.397,1311.3 693.53,1310.47 
  
  "/>
<polyline clip-path="url(#clip852)" style="stroke:#000000; stroke-width:4; stroke-opacity:1; fill:none" points="
  850.734,1216.03 855.743,1216.5 860.745,1216.96 865.735,1217.41 870.707,1217.82 875.655,1218.21 880.573,1218.54 885.454,1218.83 890.292,1219.05 895.082,1219.2 
  899.817,1219.27 904.492,1219.26 909.099,1219.14 913.634,1218.92 918.09,1218.59 922.461,1218.13 926.74,1217.53 930.923,1216.8 935.002,1215.91 938.972,1214.87 
  942.827,1213.66 946.56,1212.27 950.165,1210.69 953.637,1208.92 956.97,1206.95 960.156,1204.76 963.198,1202.37 966.099,1199.76 968.867,1196.97 971.507,1193.99 
  974.026,1190.83 976.43,1187.5 978.724,1184.01 980.915,1180.37 983.009,1176.59 985.011,1172.68 986.929,1168.65 988.768,1164.5 990.533,1160.24 992.232,1155.88 
  993.871,1151.44 995.454,1146.92 996.989,1142.32 998.482,1137.67 999.938,1132.96 1001.36,1128.2 1002.76,1123.42 1004.15,1118.6 1005.52,1113.77 1006.88,1108.93 
  
  "/>
<polyline clip-path="url(#clip852)" style="stroke:#000000; stroke-width:4; stroke-opacity:1; fill:none" points="
  1746.22,257.782 1745.97,263.8 1745.71,269.813 1745.43,275.813 1745.13,281.795 1744.79,287.752 1744.4,293.679 1743.97,299.569 1743.47,305.416 1742.9,311.215 
  1742.25,316.958 1741.52,322.64 1740.68,328.255 1739.74,333.797 1738.69,339.259 1737.51,344.636 1736.2,349.92 1734.75,355.107 1733.15,360.191 1731.39,365.164 
  1729.46,370.02 1727.36,374.755 1725.07,379.361 1722.58,383.833 1719.9,388.164 1717,392.349 1713.89,396.387 1710.58,400.284 1707.07,404.047 1703.38,407.682 
  1699.51,411.194 1695.47,414.591 1691.27,417.877 1686.93,421.059 1682.44,424.143 1677.82,427.136 1673.08,430.043 1668.22,432.871 1663.26,435.625 1658.2,438.312 
  1653.05,440.938 1647.82,443.509 1642.52,446.031 1637.16,448.51 1631.75,450.952 1626.29,453.364 1620.8,455.752 1615.28,458.121 1609.74,460.477 1604.19,462.828 
  
  "/>
<polyline clip-path="url(#clip852)" style="stroke:#000000; stroke-width:4; stroke-opacity:1; fill:none" points="
  1604.19,462.828 1603.82,468.686 1603.43,474.537 1603.03,480.375 1602.6,486.193 1602.14,491.986 1601.64,497.747 1601.08,503.469 1600.46,509.145 1599.78,514.77 
  1599.02,520.337 1598.17,525.84 1597.23,531.271 1596.18,536.625 1595.03,541.895 1593.75,547.075 1592.34,552.158 1590.8,557.137 1589.11,562.007 1587.27,566.761 
  1585.26,571.392 1583.08,575.894 1580.73,580.26 1578.18,584.484 1575.44,588.56 1572.49,592.482 1569.33,596.248 1565.98,599.866 1562.44,603.343 1558.71,606.683 
  1554.82,609.895 1550.76,612.984 1546.55,615.956 1542.2,618.819 1537.7,621.579 1533.08,624.242 1528.34,626.815 1523.48,629.303 1518.53,631.714 1513.48,634.054 
  1508.34,636.33 1503.12,638.548 1497.84,640.714 1492.5,642.834 1487.1,644.916 1481.66,646.966 1476.19,648.99 1470.69,650.994 1465.18,652.986 1459.66,654.971 
  
  "/>
<polyline clip-path="url(#clip852)" style="stroke:#000000; stroke-width:4; stroke-opacity:1; fill:none" points="
  1459.66,654.971 1459.08,660.588 1458.5,666.198 1457.9,671.794 1457.28,677.369 1456.62,682.917 1455.93,688.429 1455.18,693.899 1454.38,699.32 1453.51,704.686 
  1452.57,709.988 1451.55,715.221 1450.44,720.377 1449.23,725.449 1447.91,730.43 1446.48,735.313 1444.93,740.091 1443.25,744.758 1441.42,749.305 1439.46,753.727 
  1437.33,758.016 1435.05,762.165 1432.59,766.168 1429.95,770.017 1427.13,773.705 1424.11,777.225 1420.9,780.578 1417.5,783.77 1413.92,786.809 1410.16,789.701 
  1406.25,792.452 1402.18,795.072 1397.96,797.565 1393.61,799.939 1389.12,802.202 1384.51,804.36 1379.79,806.42 1374.96,808.389 1370.04,810.274 1365.02,812.082 
  1359.92,813.821 1354.75,815.496 1349.52,817.116 1344.22,818.687 1338.88,820.215 1333.5,821.709 1328.09,823.175 1322.65,824.62 1317.19,826.051 1311.73,827.475 
  
  "/>
<polyline clip-path="url(#clip852)" style="stroke:#000000; stroke-width:4; stroke-opacity:1; fill:none" points="
  1311.73,827.475 1310.92,832.838 1310.11,838.194 1309.28,843.535 1308.43,848.853 1307.55,854.14 1306.63,859.39 1305.67,864.594 1304.65,869.745 1303.57,874.835 
  1302.43,879.857 1301.21,884.803 1299.9,889.666 1298.5,894.438 1297.01,899.111 1295.41,903.677 1293.69,908.13 1291.85,912.462 1289.88,916.664 1287.78,920.73 
  1285.53,924.652 1283.13,928.422 1280.57,932.033 1277.85,935.477 1274.94,938.746 1271.86,941.834 1268.6,944.74 1265.16,947.471 1261.55,950.035 1257.78,952.44 
  1253.86,954.693 1249.8,956.803 1245.6,958.775 1241.27,960.619 1236.82,962.341 1232.26,963.949 1227.58,965.451 1222.81,966.855 1217.95,968.167 1213.01,969.396 
  1207.99,970.549 1202.9,971.634 1197.75,972.658 1192.55,973.629 1187.3,974.555 1182.01,975.442 1176.7,976.299 1171.36,977.134 1166,977.953 1160.64,978.765 
  
  "/>
<polyline clip-path="url(#clip852)" style="stroke:#000000; stroke-width:4; stroke-opacity:1; fill:none" points="
  1006.88,1108.93 1012.1,1108.73 1017.31,1108.52 1022.51,1108.3 1027.69,1108.05 1032.84,1107.77 1037.95,1107.45 1043.03,1107.08 1048.05,1106.65 1053.02,1106.16 
  1057.93,1105.59 1062.76,1104.94 1067.53,1104.2 1072.2,1103.37 1076.79,1102.42 1081.28,1101.36 1085.67,1100.18 1089.94,1098.87 1094.1,1097.42 1098.13,1095.82 
  1102.03,1094.06 1105.8,1092.14 1109.41,1090.05 1112.88,1087.78 1116.18,1085.32 1119.32,1082.66 1122.29,1079.81 1125.1,1076.77 1127.76,1073.55 1130.27,1070.16 
  1132.65,1066.6 1134.89,1062.89 1137.01,1059.02 1139.01,1055.02 1140.9,1050.89 1142.69,1046.64 1144.37,1042.27 1145.97,1037.8 1147.49,1033.22 1148.93,1028.56 
  1150.29,1023.81 1151.6,1018.99 1152.85,1014.11 1154.05,1009.17 1155.22,1004.17 1156.34,999.141 1157.44,994.076 1158.52,988.986 1159.58,983.879 1160.64,978.765 
  
  "/>
<path clip-path="url(#clip852)" d="
M901.895 1216.03 L876.314 1171.73 L825.154 1171.73 L799.573 1216.03 L825.154 1260.34 L876.314 1260.34 L901.895 1216.03 L901.895 1216.03  Z
  " fill="#009af9" fill-rule="evenodd" fill-opacity="1"/>
<polyline clip-path="url(#clip852)" style="stroke:#000000; stroke-width:4; stroke-opacity:1; fill:none" points="
  901.895,1216.03 876.314,1171.73 825.154,1171.73 799.573,1216.03 825.154,1260.34 876.314,1260.34 901.895,1216.03 
  "/>
<path clip-path="url(#clip852)" d="
M1797.38 257.782 L1771.8 213.475 L1720.64 213.475 L1695.06 257.782 L1720.64 302.088 L1771.8 302.088 L1797.38 257.782 L1797.38 257.782  Z
  " fill="#009af9" fill-rule="evenodd" fill-opacity="1"/>
<polyline clip-path="url(#clip852)" style="stroke:#000000; stroke-width:4; stroke-opacity:1; fill:none" points="
  1797.38,257.782 1771.8,213.475 1720.64,213.475 1695.06,257.782 1720.64,302.088 1771.8,302.088 1797.38,257.782 
  "/>
<path clip-path="url(#clip852)" d="
M1655.35 462.828 L1629.77 418.522 L1578.61 418.522 L1553.03 462.828 L1578.61 507.135 L1629.77 507.135 L1655.35 462.828 L1655.35 462.828  Z
  " fill="#009af9" fill-rule="evenodd" fill-opacity="1"/>
<polyline clip-path="url(#clip852)" style="stroke:#000000; stroke-width:4; stroke-opacity:1; fill:none" points="
  1655.35,462.828 1629.77,418.522 1578.61,418.522 1553.03,462.828 1578.61,507.135 1629.77,507.135 1655.35,462.828 
  "/>
<path clip-path="url(#clip852)" d="
M1510.82 654.971 L1485.24 610.665 L1434.08 610.665 L1408.49 654.971 L1434.08 699.278 L1485.24 699.278 L1510.82 654.971 L1510.82 654.971  Z
  " fill="#009af9" fill-rule="evenodd" fill-opacity="1"/>
<polyline clip-path="url(#clip852)" style="stroke:#000000; stroke-width:4; stroke-opacity:1; fill:none" points="
  1510.82,654.971 1485.24,610.665 1434.08,610.665 1408.49,654.971 1434.08,699.278 1485.24,699.278 1510.82,654.971 
  "/>
<path clip-path="url(#clip852)" d="
M1362.89 827.475 L1337.31 783.168 L1286.15 783.168 L1260.57 827.475 L1286.15 871.781 L1337.31 871.781 L1362.89 827.475 L1362.89 827.475  Z
  " fill="#009af9" fill-rule="evenodd" fill-opacity="1"/>
<polyline clip-path="url(#clip852)" style="stroke:#000000; stroke-width:4; stroke-opacity:1; fill:none" points="
  1362.89,827.475 1337.31,783.168 1286.15,783.168 1260.57,827.475 1286.15,871.781 1337.31,871.781 1362.89,827.475 
  "/>
<path clip-path="url(#clip852)" d="
M744.69 1310.47 L719.11 1266.16 L667.949 1266.16 L642.369 1310.47 L667.949 1354.78 L719.11 1354.78 L744.69 1310.47 L744.69 1310.47  Z
  " fill="#009af9" fill-rule="evenodd" fill-opacity="1"/>
<polyline clip-path="url(#clip852)" style="stroke:#000000; stroke-width:4; stroke-opacity:1; fill:none" points="
  744.69,1310.47 719.11,1266.16 667.949,1266.16 642.369,1310.47 667.949,1354.78 719.11,1354.78 744.69,1310.47 
  "/>
<path clip-path="url(#clip852)" d="
M1058.04 1108.93 L1032.46 1064.62 L981.303 1064.62 L955.723 1108.93 L981.303 1153.23 L1032.46 1153.23 L1058.04 1108.93 L1058.04 1108.93  Z
  " fill="#009af9" fill-rule="evenodd" fill-opacity="1"/>
<polyline clip-path="url(#clip852)" style="stroke:#000000; stroke-width:4; stroke-opacity:1; fill:none" points="
  1058.04,1108.93 1032.46,1064.62 981.303,1064.62 955.723,1108.93 981.303,1153.23 1032.46,1153.23 1058.04,1108.93 
  "/>
<path clip-path="url(#clip852)" d="
M1211.8 978.765 L1186.22 934.458 L1135.06 934.458 L1109.48 978.765 L1135.06 1023.07 L1186.22 1023.07 L1211.8 978.765 L1211.8 978.765  Z
  " fill="#009af9" fill-rule="evenodd" fill-opacity="1"/>
<polyline clip-path="url(#clip852)" style="stroke:#000000; stroke-width:4; stroke-opacity:1; fill:none" points="
  1211.8,978.765 1186.22,934.458 1135.06,934.458 1109.48,978.765 1135.06,1023.07 1186.22,1023.07 1211.8,978.765 
  "/>
<circle clip-path="url(#clip852)" style="fill:#009af9; stroke:none; fill-opacity:1" cx="850.734" cy="1216.03" r="2"/>
<circle clip-path="url(#clip852)" style="fill:#009af9; stroke:none; fill-opacity:1" cx="1746.22" cy="257.782" r="2"/>
<circle clip-path="url(#clip852)" style="fill:#009af9; stroke:none; fill-opacity:1" cx="1604.19" cy="462.828" r="2"/>
<circle clip-path="url(#clip852)" style="fill:#009af9; stroke:none; fill-opacity:1" cx="1459.66" cy="654.971" r="2"/>
<circle clip-path="url(#clip852)" style="fill:#009af9; stroke:none; fill-opacity:1" cx="1311.73" cy="827.475" r="2"/>
<circle clip-path="url(#clip852)" style="fill:#009af9; stroke:none; fill-opacity:1" cx="693.53" cy="1310.47" r="2"/>
<circle clip-path="url(#clip852)" style="fill:#009af9; stroke:none; fill-opacity:1" cx="1006.88" cy="1108.93" r="2"/>
<circle clip-path="url(#clip852)" style="fill:#009af9; stroke:none; fill-opacity:1" cx="1160.64" cy="978.765" r="2"/>
<path clip-path="url(#clip850)" d="M 0 0 M836.307 1236.05 L847.765 1236.05 L847.765 1196.5 L835.3 1199 L835.3 1192.61 L847.696 1190.11 L854.71 1190.11 L854.71 1236.05 L866.168 1236.05 L866.168 1241.95 L836.307 1241.95 L836.307 1236.05 Z" fill="#000000" fill-rule="evenodd" fill-opacity="1" /><path clip-path="url(#clip850)" d="M 0 0 M1738.2 277.799 L1762.68 277.799 L1762.68 283.702 L1729.76 283.702 L1729.76 277.799 Q1733.75 273.667 1740.63 266.723 Q1747.54 259.744 1749.31 257.73 Q1752.68 253.945 1754 251.341 Q1755.35 248.702 1755.35 246.167 Q1755.35 242.035 1752.43 239.431 Q1749.55 236.827 1744.9 236.827 Q1741.6 236.827 1737.92 237.973 Q1734.27 239.119 1730.11 241.445 L1730.11 234.362 Q1734.34 232.66 1738.02 231.792 Q1741.7 230.924 1744.76 230.924 Q1752.82 230.924 1757.61 234.952 Q1762.4 238.98 1762.4 245.716 Q1762.4 248.91 1761.18 251.792 Q1760 254.639 1756.84 258.528 Q1755.98 259.535 1751.32 264.362 Q1746.67 269.153 1738.2 277.799 Z" fill="#000000" fill-rule="evenodd" fill-opacity="1" /><path clip-path="url(#clip850)" d="M 0 0 M1610.56 460.797 Q1615.6 461.873 1618.41 465.276 Q1621.26 468.679 1621.26 473.679 Q1621.26 481.352 1615.98 485.554 Q1610.7 489.755 1600.98 489.755 Q1597.72 489.755 1594.24 489.095 Q1590.81 488.47 1587.13 487.186 L1587.13 480.415 Q1590.04 482.116 1593.52 482.984 Q1596.99 483.852 1600.77 483.852 Q1607.37 483.852 1610.81 481.248 Q1614.28 478.644 1614.28 473.679 Q1614.28 469.096 1611.05 466.526 Q1607.86 463.922 1602.13 463.922 L1596.09 463.922 L1596.09 458.158 L1602.4 458.158 Q1607.58 458.158 1610.32 456.11 Q1613.06 454.026 1613.06 450.137 Q1613.06 446.144 1610.22 444.026 Q1607.4 441.873 1602.13 441.873 Q1599.24 441.873 1595.95 442.498 Q1592.65 443.123 1588.69 444.443 L1588.69 438.193 Q1592.68 437.082 1596.15 436.526 Q1599.66 435.971 1602.75 435.971 Q1610.74 435.971 1615.39 439.617 Q1620.04 443.228 1620.04 449.408 Q1620.04 453.714 1617.58 456.7 Q1615.11 459.651 1610.56 460.797 Z" fill="#000000" fill-rule="evenodd" fill-opacity="1" /><path clip-path="url(#clip850)" d="M 0 0 M1464.17 635.162 L1446.46 662.836 L1464.17 662.836 L1464.17 635.162 M1462.33 629.051 L1471.15 629.051 L1471.15 662.836 L1478.54 662.836 L1478.54 668.669 L1471.15 668.669 L1471.15 680.891 L1464.17 680.891 L1464.17 668.669 L1440.77 668.669 L1440.77 661.898 L1462.33 629.051 Z" fill="#000000" fill-rule="evenodd" fill-opacity="1" /><path clip-path="url(#clip850)" d="M 0 0 M1297.14 801.555 L1324.68 801.555 L1324.68 807.458 L1303.57 807.458 L1303.57 820.166 Q1305.1 819.645 1306.62 819.402 Q1308.15 819.124 1309.68 819.124 Q1318.36 819.124 1323.43 823.881 Q1328.5 828.638 1328.5 836.763 Q1328.5 845.131 1323.29 849.784 Q1318.08 854.402 1308.6 854.402 Q1305.34 854.402 1301.94 853.846 Q1298.57 853.291 1294.96 852.179 L1294.96 845.131 Q1298.08 846.832 1301.41 847.666 Q1304.75 848.499 1308.46 848.499 Q1314.47 848.499 1317.98 845.339 Q1321.48 842.18 1321.48 836.763 Q1321.48 831.346 1317.98 828.187 Q1314.47 825.027 1308.46 825.027 Q1305.65 825.027 1302.84 825.652 Q1300.06 826.277 1297.14 827.596 L1297.14 801.555 Z" fill="#000000" fill-rule="evenodd" fill-opacity="1" /><path clip-path="url(#clip850)" d="M 0 0 M694.137 1307.68 Q689.415 1307.68 686.637 1310.9 Q683.894 1314.13 683.894 1319.76 Q683.894 1325.35 686.637 1328.61 Q689.415 1331.84 694.137 1331.84 Q698.86 1331.84 701.603 1328.61 Q704.38 1325.35 704.38 1319.76 Q704.38 1314.13 701.603 1310.9 Q698.86 1307.68 694.137 1307.68 M708.061 1285.7 L708.061 1292.08 Q705.422 1290.83 702.714 1290.18 Q700.04 1289.52 697.401 1289.52 Q690.457 1289.52 686.776 1294.2 Q683.131 1298.89 682.61 1308.37 Q684.658 1305.35 687.749 1303.75 Q690.839 1302.12 694.554 1302.12 Q702.367 1302.12 706.88 1306.88 Q711.429 1311.6 711.429 1319.76 Q711.429 1327.74 706.707 1332.57 Q701.985 1337.4 694.137 1337.4 Q685.144 1337.4 680.388 1330.52 Q675.631 1323.61 675.631 1310.52 Q675.631 1298.23 681.464 1290.94 Q687.297 1283.61 697.124 1283.61 Q699.762 1283.61 702.436 1284.13 Q705.144 1284.65 708.061 1285.7 Z" fill="#000000" fill-rule="evenodd" fill-opacity="1" /><path clip-path="url(#clip850)" d="M 0 0 M990.217 1083.01 L1023.55 1083.01 L1023.55 1085.99 L1004.73 1134.85 L997.405 1134.85 L1015.11 1088.91 L990.217 1088.91 L990.217 1083.01 Z" fill="#000000" fill-rule="evenodd" fill-opacity="1" /><path clip-path="url(#clip850)" d="M 0 0 M1160.64 980.067 Q1155.64 980.067 1152.76 982.741 Q1149.91 985.414 1149.91 990.102 Q1149.91 994.789 1152.76 997.463 Q1155.64 1000.14 1160.64 1000.14 Q1165.64 1000.14 1168.52 997.463 Q1171.4 994.754 1171.4 990.102 Q1171.4 985.414 1168.52 982.741 Q1165.67 980.067 1160.64 980.067 M1153.63 977.081 Q1149.11 975.97 1146.58 972.879 Q1144.08 969.789 1144.08 965.345 Q1144.08 959.13 1148.49 955.518 Q1152.93 951.907 1160.64 951.907 Q1168.38 951.907 1172.79 955.518 Q1177.2 959.13 1177.2 965.345 Q1177.2 969.789 1174.67 972.879 Q1172.17 975.97 1167.69 977.081 Q1172.76 978.261 1175.57 981.699 Q1178.42 985.136 1178.42 990.102 Q1178.42 997.636 1173.8 1001.66 Q1169.22 1005.69 1160.64 1005.69 Q1152.06 1005.69 1147.44 1001.66 Q1142.86 997.636 1142.86 990.102 Q1142.86 985.136 1145.71 981.699 Q1148.56 978.261 1153.63 977.081 M1151.06 966.005 Q1151.06 970.032 1153.56 972.289 Q1156.09 974.546 1160.64 974.546 Q1165.15 974.546 1167.69 972.289 Q1170.26 970.032 1170.26 966.005 Q1170.26 961.977 1167.69 959.72 Q1165.15 957.463 1160.64 957.463 Q1156.09 957.463 1153.56 959.72 Q1151.06 961.977 1151.06 966.005 Z" fill="#000000" fill-rule="evenodd" fill-opacity="1" /></svg>
