<?xml version="1.0" encoding="utf-8"?>
<svg xmlns="http://www.w3.org/2000/svg" xmlns:xlink="http://www.w3.org/1999/xlink" width="600" height="400" viewBox="0 0 2400 1600">
<defs>
  <clipPath id="clip930">
    <rect x="0" y="0" width="2400" height="1600"/>
  </clipPath>
</defs>
<path clip-path="url(#clip930)" d="
M0 1600 L2400 1600 L2400 0 L0 0  Z
  " fill="#ffffff" fill-rule="evenodd" fill-opacity="1"/>
<defs>
  <clipPath id="clip931">
    <rect x="480" y="0" width="1681" height="1600"/>
  </clipPath>
</defs>
<path clip-path="url(#clip930)" d="
M482.992 1521.01 L1956.76 1521.01 L1956.76 47.2441 L482.992 47.2441  Z
  " fill="#ffffff" fill-rule="evenodd" fill-opacity="1"/>
<defs>
  <clipPath id="clip932">
    <rect x="482" y="47" width="1475" height="1475"/>
  </clipPath>
</defs>
<polyline clip-path="url(#clip932)" style="stroke:#000000; stroke-width:4; stroke-opacity:1; fill:none" points="
  736.371,449.5 724.831,446.158 713.359,442.849 702.021,439.607 690.886,436.467 680.02,433.461 669.491,430.623 659.366,427.988 649.712,425.589 640.597,423.459 
  632.088,421.632 624.253,420.143 617.159,419.024 610.865,418.304 605.368,417.975 600.627,418.006 596.604,418.367 593.262,419.028 590.56,419.959 588.459,421.131 
  586.922,422.513 585.91,424.074 585.383,425.786 585.302,427.618 585.63,429.54 586.327,431.522 587.359,433.535 588.696,435.549 590.308,437.537 592.165,439.468 
  594.237,441.315 596.494,443.048 598.907,444.638 601.446,446.057 604.08,447.276 606.78,448.265 609.515,448.997 612.257,449.441 614.985,449.588 617.698,449.457 
  620.398,449.074 623.085,448.465 625.762,447.654 628.429,446.667 631.088,445.529 633.741,444.265 636.388,442.9 639.031,441.46 641.672,439.969 644.311,438.453 
  
  "/>
<polyline clip-path="url(#clip932)" style="stroke:#000000; stroke-width:4; stroke-opacity:1; fill:none" points="
  693.53,435.09 701.575,434.283 709.614,433.466 717.643,432.631 725.656,431.767 733.649,430.866 741.615,429.919 749.549,428.915 757.447,427.845 765.304,426.7 
  773.113,425.471 780.869,424.149 788.568,422.723 796.204,421.184 803.772,419.524 811.267,417.733 818.683,415.801 826.015,413.719 833.258,411.478 840.407,409.068 
  847.456,406.48 854.401,403.705 861.235,400.732 867.954,397.554 874.553,394.16 881.026,390.542 887.374,386.698 893.601,382.64 899.713,378.375 905.715,373.913 
  911.612,369.264 917.41,364.437 923.113,359.441 928.727,354.286 934.257,348.981 939.709,343.535 945.088,337.958 950.398,332.259 955.645,326.448 960.835,320.534 
  965.973,314.526 971.063,308.433 976.111,302.266 981.123,296.033 986.103,289.744 991.057,283.407 995.991,277.034 1000.91,270.632 1005.81,264.212 1010.72,257.782 
  
  "/>
<polyline clip-path="url(#clip932)" style="stroke:#000000; stroke-width:4; stroke-opacity:1; fill:none" points="
  693.53,435.09 700.694,440.528 707.861,445.956 715.034,451.363 722.216,456.739 729.41,462.074 736.619,467.357 743.846,472.579 751.095,477.728 758.367,482.795 
  765.666,487.769 772.995,492.64 780.357,497.397 787.755,502.031 795.192,506.531 802.671,510.886 810.195,515.087 817.767,519.123 825.39,522.983 833.066,526.658 
  840.8,530.137 848.594,533.41 856.451,536.466 864.374,539.296 872.366,541.888 880.429,544.234 888.565,546.332 896.769,548.193 905.04,549.828 913.373,551.246 
  921.766,552.458 930.217,553.473 938.721,554.304 947.276,554.959 955.879,555.449 964.528,555.784 973.218,555.975 981.947,556.032 990.712,555.965 999.511,555.785 
  1008.34,555.502 1017.19,555.126 1026.07,554.668 1034.97,554.137 1043.89,553.544 1052.82,552.9 1061.77,552.215 1070.72,551.499 1079.68,550.762 1088.65,550.015 
  
  "/>
<polyline clip-path="url(#clip932)" style="stroke:#000000; stroke-width:4; stroke-opacity:1; fill:none" points="
  1361.36,1058.14 1363.98,1065.52 1366.6,1072.89 1369.25,1080.25 1371.91,1087.58 1374.61,1094.89 1377.35,1102.16 1380.13,1109.38 1382.96,1116.55 1385.86,1123.66 
  1388.83,1130.71 1391.88,1137.68 1395.01,1144.57 1398.23,1151.37 1401.56,1158.07 1404.99,1164.67 1408.54,1171.16 1412.21,1177.53 1416.01,1183.77 1419.96,1189.88 
  1424.05,1195.85 1428.3,1201.67 1432.71,1207.33 1437.28,1212.83 1442.04,1218.16 1446.99,1223.3 1452.11,1228.28 1457.42,1233.08 1462.9,1237.71 1468.54,1242.19 
  1474.33,1246.53 1480.27,1250.72 1486.36,1254.77 1492.57,1258.7 1498.91,1262.52 1505.36,1266.22 1511.92,1269.81 1518.58,1273.31 1525.34,1276.72 1532.18,1280.05 
  1539.1,1283.3 1546.09,1286.49 1553.14,1289.62 1560.24,1292.69 1567.39,1295.72 1574.58,1298.72 1581.8,1301.68 1589.04,1304.62 1596.3,1307.55 1603.57,1310.47 
  
  "/>
<polyline clip-path="url(#clip932)" style="stroke:#000000; stroke-width:4; stroke-opacity:1; fill:none" points="
  1361.36,1058.14 1370.94,1055.55 1380.53,1052.95 1390.1,1050.33 1399.65,1047.69 1409.18,1045.01 1418.67,1042.28 1428.14,1039.51 1437.56,1036.67 1446.93,1033.76 
  1456.24,1030.77 1465.5,1027.69 1474.69,1024.51 1483.81,1021.22 1492.85,1017.82 1501.81,1014.3 1510.68,1010.64 1519.45,1006.84 1528.11,1002.89 1536.67,998.777 
  1545.12,994.496 1553.45,990.037 1561.65,985.392 1569.71,980.55 1577.64,975.504 1585.43,970.245 1593.07,964.773 1600.57,959.096 1607.94,953.223 1615.19,947.163 
  1622.31,940.926 1629.32,934.519 1636.22,927.952 1643.02,921.234 1649.72,914.374 1656.34,907.38 1662.87,900.262 1669.32,893.028 1675.7,885.687 1682.01,878.248 
  1688.26,870.721 1694.46,863.113 1700.61,855.434 1706.72,847.693 1712.79,839.899 1718.83,832.06 1724.85,824.185 1730.85,816.284 1736.84,808.365 1742.82,800.437 
  
  "/>
<polyline clip-path="url(#clip932)" style="stroke:#000000; stroke-width:4; stroke-opacity:1; fill:none" points="
  1361.36,1058.14 1364.78,1052.72 1368.19,1047.3 1371.59,1041.88 1374.94,1036.46 1378.26,1031.03 1381.52,1025.61 1384.72,1020.18 1387.85,1014.75 1390.88,1009.32 
  1393.82,1003.88 1396.66,998.438 1399.37,992.992 1401.96,987.542 1404.41,982.087 1406.7,976.626 1408.84,971.159 1410.8,965.685 1412.59,960.205 1414.18,954.718 
  1415.56,949.223 1416.73,943.72 1417.68,938.209 1418.39,932.689 1418.85,927.16 1419.05,921.622 1419,916.074 1418.7,910.517 1418.17,904.951 1417.41,899.376 
  1416.43,893.794 1415.25,888.204 1413.88,882.608 1412.33,877.004 1410.6,871.394 1408.72,865.778 1406.68,860.156 1404.5,854.529 1402.2,848.898 1399.77,843.262 
  1397.24,837.622 1394.62,831.979 1391.9,826.332 1389.12,820.683 1386.26,815.031 1383.36,809.377 1380.41,803.722 1377.43,798.065 1374.42,792.408 1371.41,786.75 
  
  "/>
<polyline clip-path="url(#clip932)" style="stroke:#000000; stroke-width:4; stroke-opacity:1; fill:none" points="
  1603.57,1310.47 1609.36,1306.06 1615.15,1301.65 1620.91,1297.23 1626.65,1292.79 1632.35,1288.33 1638,1283.85 1643.59,1279.35 1649.11,1274.8 1654.56,1270.22 
  1659.92,1265.6 1665.19,1260.93 1670.35,1256.21 1675.39,1251.42 1680.31,1246.58 1685.1,1241.67 1689.74,1236.69 1694.22,1231.63 1698.55,1226.49 1702.7,1221.26 
  1706.67,1215.94 1710.44,1210.53 1714.02,1205.02 1717.38,1199.4 1720.52,1193.67 1723.43,1187.82 1726.11,1181.86 1728.57,1175.8 1730.82,1169.62 1732.87,1163.35 
  1734.72,1156.98 1736.39,1150.51 1737.89,1143.97 1739.23,1137.34 1740.41,1130.63 1741.45,1123.85 1742.35,1117.01 1743.13,1110.1 1743.79,1103.14 1744.35,1096.12 
  1744.81,1089.06 1745.18,1081.95 1745.48,1074.8 1745.71,1067.62 1745.88,1060.42 1746.01,1053.18 1746.09,1045.93 1746.15,1038.67 1746.19,1031.39 1746.22,1024.11 
  
  "/>
<polyline clip-path="url(#clip932)" style="stroke:#000000; stroke-width:4; stroke-opacity:1; fill:none" points="
  1746.22,1024.11 1742.93,1019.59 1739.65,1015.08 1736.39,1010.56 1733.17,1006.05 1729.98,1001.53 1726.86,997.01 1723.79,992.49 1720.8,987.97 1717.9,983.448 
  1715.09,978.925 1712.39,974.4 1709.81,969.874 1707.36,965.345 1705.05,960.814 1702.88,956.281 1700.88,951.746 1699.05,947.208 1697.41,942.667 1695.95,938.123 
  1694.7,933.577 1693.67,929.026 1692.86,924.473 1692.28,919.916 1691.96,915.355 1691.89,910.79 1692.08,906.221 1692.51,901.649 1693.18,897.073 1694.08,892.494 
  1695.19,887.911 1696.51,883.325 1698.01,878.736 1699.7,874.145 1701.57,869.551 1703.59,864.954 1705.76,860.355 1708.08,855.754 1710.52,851.151 1713.08,846.547 
  1715.75,841.94 1718.51,837.332 1721.36,832.723 1724.29,828.113 1727.28,823.502 1730.32,818.89 1733.41,814.277 1736.53,809.664 1739.67,805.05 1742.82,800.437 
  
  "/>
<polyline clip-path="url(#clip932)" style="stroke:#000000; stroke-width:4; stroke-opacity:1; fill:none" points="
  1746.22,1024.11 1736.85,1021.99 1727.48,1019.86 1718.12,1017.7 1708.79,1015.53 1699.47,1013.31 1690.19,1011.05 1680.93,1008.74 1671.72,1006.36 1662.56,1003.91 
  1653.44,1001.38 1644.39,998.761 1635.39,996.039 1626.47,993.208 1617.62,990.26 1608.85,987.184 1600.17,983.972 1591.58,980.616 1583.08,977.105 1574.69,973.43 
  1566.41,969.584 1558.25,965.556 1550.2,961.337 1542.28,956.919 1534.5,952.292 1526.85,947.448 1519.34,942.387 1511.96,937.117 1504.7,931.647 1497.57,925.987 
  1490.55,920.145 1483.65,914.131 1476.84,907.954 1470.13,901.623 1463.52,895.146 1456.99,888.534 1450.54,881.794 1444.17,874.937 1437.86,867.97 1431.62,860.904 
  1425.43,853.747 1419.3,846.509 1413.21,839.198 1407.17,831.823 1401.16,824.394 1395.17,816.92 1389.21,809.409 1383.27,801.871 1377.34,794.315 1371.41,786.75 
  
  "/>
<polyline clip-path="url(#clip932)" style="stroke:#000000; stroke-width:4; stroke-opacity:1; fill:none" points="
  1786.75,787.913 1793.52,785.544 1800.25,783.175 1806.91,780.804 1813.45,778.43 1819.84,776.052 1826.05,773.669 1832.03,771.281 1837.75,768.887 1843.17,766.485 
  1848.25,764.075 1852.96,761.655 1857.25,759.225 1861.1,756.785 1864.5,754.344 1867.46,751.917 1870,749.517 1872.12,747.158 1873.83,744.854 1875.16,742.62 
  1876.1,740.47 1876.68,738.417 1876.91,736.476 1876.79,734.661 1876.34,732.986 1875.57,731.465 1874.49,730.114 1873.09,728.951 1871.4,727.995 1869.41,727.263 
  1867.11,726.774 1864.53,726.545 1861.66,726.596 1858.5,726.944 1855.07,727.608 1851.35,728.605 1847.36,729.954 1843.11,731.673 1838.59,733.764 1833.84,736.199 
  1828.86,738.948 1823.69,741.978 1818.35,745.259 1812.86,748.759 1807.23,752.447 1801.5,756.292 1795.68,760.262 1789.79,764.325 1783.87,768.452 1777.91,772.609 
  
  "/>
<polyline clip-path="url(#clip932)" style="stroke:#000000; stroke-width:4; stroke-opacity:1; fill:none" points="
  1742.82,800.437 1735.12,803.376 1727.42,806.304 1719.73,809.211 1712.03,812.086 1704.34,814.918 1696.64,817.696 1688.95,820.41 1681.27,823.049 1673.58,825.602 
  1665.9,828.058 1658.22,830.407 1650.55,832.638 1642.89,834.741 1635.22,836.704 1627.57,838.516 1619.91,840.168 1612.27,841.648 1604.63,842.945 1597,844.05 
  1589.38,844.95 1581.76,845.636 1574.16,846.097 1566.56,846.321 1558.97,846.299 1551.39,846.02 1543.82,845.483 1536.26,844.7 1528.7,843.681 1521.16,842.436 
  1513.62,840.977 1506.1,839.314 1498.57,837.458 1491.06,835.419 1483.55,833.209 1476.05,830.838 1468.55,828.317 1461.06,825.656 1453.57,822.866 1446.09,819.958 
  1438.61,816.943 1431.13,813.832 1423.66,810.634 1416.19,807.362 1408.73,804.025 1401.26,800.634 1393.8,797.201 1386.33,793.735 1378.87,790.248 1371.41,786.75 
  
  "/>
<polyline clip-path="url(#clip932)" style="stroke:#000000; stroke-width:4; stroke-opacity:1; fill:none" points="
  1022.52,213.475 1023.96,206.463 1025.37,199.481 1026.74,192.563 1028.06,185.74 1029.29,179.044 1030.43,172.505 1031.44,166.156 1032.31,160.028 1033.03,154.152 
  1033.56,148.562 1033.89,143.287 1034.01,138.36 1033.89,133.809 1033.53,129.643 1032.96,125.86 1032.2,122.456 1031.26,119.427 1030.16,116.773 1028.93,114.489 
  1027.56,112.573 1026.1,111.021 1024.55,109.832 1022.93,109.001 1021.26,108.527 1019.56,108.406 1017.84,108.641 1016.13,109.236 1014.44,110.199 1012.79,111.535 
  1011.2,113.25 1009.68,115.35 1008.25,117.843 1006.93,120.732 1005.74,124.026 1004.69,127.729 1003.81,131.848 1003.1,136.389 1002.58,141.344 1002.23,146.683 
  1002.04,152.37 1002,158.37 1002.07,164.649 1002.26,171.172 1002.54,177.903 1002.9,184.809 1003.33,191.853 1003.8,199.003 1004.3,206.222 1004.82,213.475 
  
  "/>
<polyline clip-path="url(#clip932)" style="stroke:#000000; stroke-width:4; stroke-opacity:1; fill:none" points="
  1010.72,257.782 1009.19,264.576 1007.68,271.367 1006.19,278.152 1004.73,284.929 1003.32,291.696 1001.95,298.448 1000.65,305.184 999.416,311.9 998.267,318.594 
  997.213,325.263 996.262,331.905 995.425,338.516 994.713,345.094 994.135,351.636 993.703,358.14 993.426,364.602 993.316,371.019 993.382,377.39 993.634,383.71 
  994.084,389.979 994.741,396.191 995.616,402.346 996.719,408.44 998.061,414.47 999.651,420.434 1001.49,426.332 1003.57,432.166 1005.87,437.939 1008.4,443.654 
  1011.13,449.314 1014.06,454.921 1017.17,460.478 1020.46,465.989 1023.92,471.455 1027.53,476.879 1031.29,482.265 1035.19,487.615 1039.2,492.932 1043.33,498.218 
  1047.57,503.476 1051.9,508.71 1056.31,513.922 1060.8,519.114 1065.34,524.289 1069.94,529.451 1074.58,534.602 1079.25,539.744 1083.94,544.881 1088.65,550.015 
  
  "/>
<polyline clip-path="url(#clip932)" style="stroke:#000000; stroke-width:4; stroke-opacity:1; fill:none" points="
  1088.65,550.015 1092.35,557.316 1096.06,564.608 1099.78,571.884 1103.53,579.136 1107.3,586.354 1111.11,593.532 1114.96,600.66 1118.85,607.73 1122.8,614.734 
  1126.82,621.665 1130.9,628.513 1135.06,635.27 1139.3,641.929 1143.63,648.481 1148.05,654.917 1152.59,661.23 1157.23,667.411 1161.98,673.452 1166.87,679.345 
  1171.88,685.082 1177.03,690.654 1182.32,696.053 1187.77,701.271 1193.38,706.299 1199.15,711.131 1205.08,715.765 1211.18,720.21 1217.42,724.473 1223.81,728.564 
  1230.34,732.49 1237,736.26 1243.79,739.881 1250.69,743.363 1257.7,746.712 1264.81,749.939 1272.02,753.05 1279.32,756.054 1286.71,758.959 1294.17,761.773 
  1301.69,764.506 1309.28,767.164 1316.93,769.756 1324.62,772.291 1332.36,774.776 1340.13,777.22 1347.92,779.632 1355.74,782.018 1363.57,784.388 1371.41,786.75 
  
  "/>
<path clip-path="url(#clip932)" d="
M744.69 435.09 L719.11 390.784 L667.949 390.784 L642.369 435.09 L667.949 479.397 L719.11 479.397 L744.69 435.09 L744.69 435.09  Z
  " fill="#009af9" fill-rule="evenodd" fill-opacity="1"/>
<polyline clip-path="url(#clip932)" style="stroke:#000000; stroke-width:4; stroke-opacity:1; fill:none" points="
  744.69,435.09 719.11,390.784 667.949,390.784 642.369,435.09 667.949,479.397 719.11,479.397 744.69,435.09 
  "/>
<path clip-path="url(#clip932)" d="
M1412.52 1058.14 L1386.94 1013.83 L1335.78 1013.83 L1310.2 1058.14 L1335.78 1102.44 L1386.94 1102.44 L1412.52 1058.14 L1412.52 1058.14  Z
  " fill="#009af9" fill-rule="evenodd" fill-opacity="1"/>
<polyline clip-path="url(#clip932)" style="stroke:#000000; stroke-width:4; stroke-opacity:1; fill:none" points="
  1412.52,1058.14 1386.94,1013.83 1335.78,1013.83 1310.2,1058.14 1335.78,1102.44 1386.94,1102.44 1412.52,1058.14 
  "/>
<path clip-path="url(#clip932)" d="
M1654.73 1310.47 L1629.15 1266.16 L1577.99 1266.16 L1552.41 1310.47 L1577.99 1354.78 L1629.15 1354.78 L1654.73 1310.47 L1654.73 1310.47  Z
  " fill="#009af9" fill-rule="evenodd" fill-opacity="1"/>
<polyline clip-path="url(#clip932)" style="stroke:#000000; stroke-width:4; stroke-opacity:1; fill:none" points="
  1654.73,1310.47 1629.15,1266.16 1577.99,1266.16 1552.41,1310.47 1577.99,1354.78 1629.15,1354.78 1654.73,1310.47 
  "/>
<path clip-path="url(#clip932)" d="
M1797.38 1024.11 L1771.8 979.804 L1720.64 979.804 L1695.06 1024.11 L1720.64 1068.42 L1771.8 1068.42 L1797.38 1024.11 L1797.38 1024.11  Z
  " fill="#009af9" fill-rule="evenodd" fill-opacity="1"/>
<polyline clip-path="url(#clip932)" style="stroke:#000000; stroke-width:4; stroke-opacity:1; fill:none" points="
  1797.38,1024.11 1771.8,979.804 1720.64,979.804 1695.06,1024.11 1720.64,1068.42 1771.8,1068.42 1797.38,1024.11 
  "/>
<path clip-path="url(#clip932)" d="
M1793.98 800.437 L1768.4 756.13 L1717.24 756.13 L1691.66 800.437 L1717.24 844.743 L1768.4 844.743 L1793.98 800.437 L1793.98 800.437  Z
  " fill="#009af9" fill-rule="evenodd" fill-opacity="1"/>
<polyline clip-path="url(#clip932)" style="stroke:#000000; stroke-width:4; stroke-opacity:1; fill:none" points="
  1793.98,800.437 1768.4,756.13 1717.24,756.13 1691.66,800.437 1717.24,844.743 1768.4,844.743 1793.98,800.437 
  "/>
<path clip-path="url(#clip932)" d="
M1061.88 257.782 L1036.3 213.475 L985.136 213.475 L959.556 257.782 L985.136 302.088 L1036.3 302.088 L1061.88 257.782 L1061.88 257.782  Z
  " fill="#009af9" fill-rule="evenodd" fill-opacity="1"/>
<polyline clip-path="url(#clip932)" style="stroke:#000000; stroke-width:4; stroke-opacity:1; fill:none" points="
  1061.88,257.782 1036.3,213.475 985.136,213.475 959.556,257.782 985.136,302.088 1036.3,302.088 1061.88,257.782 
  "/>
<path clip-path="url(#clip932)" d="
M1139.81 550.015 L1114.23 505.708 L1063.07 505.708 L1037.49 550.015 L1063.07 594.321 L1114.23 594.321 L1139.81 550.015 L1139.81 550.015  Z
  " fill="#009af9" fill-rule="evenodd" fill-opacity="1"/>
<polyline clip-path="url(#clip932)" style="stroke:#000000; stroke-width:4; stroke-opacity:1; fill:none" points="
  1139.81,550.015 1114.23,505.708 1063.07,505.708 1037.49,550.015 1063.07,594.321 1114.23,594.321 1139.81,550.015 
  "/>
<path clip-path="url(#clip932)" d="
M1422.57 786.75 L1396.99 742.444 L1345.83 742.444 L1320.25 786.75 L1345.83 831.057 L1396.99 831.057 L1422.57 786.75 L1422.57 786.75  Z
  " fill="#009af9" fill-rule="evenodd" fill-opacity="1"/>
<polyline clip-path="url(#clip932)" style="stroke:#000000; stroke-width:4; stroke-opacity:1; fill:none" points="
  1422.57,786.75 1396.99,742.444 1345.83,742.444 1320.25,786.75 1345.83,831.057 1396.99,831.057 1422.57,786.75 1422.57,786.75 
  "/>
<circle clip-path="url(#clip932)" style="fill:#009af9; stroke:none; fill-opacity:1" cx="693.53" cy="435.09" r="2"/>
<circle clip-path="url(#clip932)" style="fill:#009af9; stroke:none; fill-opacity:1" cx="1361.36" cy="1058.14" r="2"/>
<circle clip-path="url(#clip932)" style="fill:#009af9; stroke:none; fill-opacity:1" cx="1603.57" cy="1310.47" r="2"/>
<circle clip-path="url(#clip932)" style="fill:#009af9; stroke:none; fill-opacity:1" cx="1746.22" cy="1024.11" r="2"/>
<circle clip-path="url(#clip932)" style="fill:#009af9; stroke:none; fill-opacity:1" cx="1742.82" cy="800.437" r="2"/>
<circle clip-path="url(#clip932)" style="fill:#009af9; stroke:none; fill-opacity:1" cx="1010.72" cy="257.782" r="2"/>
<circle clip-path="url(#clip932)" style="fill:#009af9; stroke:none; fill-opacity:1" cx="1088.65" cy="550.015" r="2"/>
<circle clip-path="url(#clip932)" style="fill:#009af9; stroke:none; fill-opacity:1" cx="1371.41" cy="786.75" r="2"/>
<path clip-path="url(#clip930)" d="M 0 0 M679.103 455.107 L690.561 455.107 L690.561 415.559 L678.096 418.059 L678.096 411.67 L690.492 409.17 L697.505 409.17 L697.505 455.107 L708.964 455.107 L708.964 461.01 L679.103 461.01 L679.103 455.107 Z" fill="#000000" fill-rule="evenodd" fill-opacity="1" /><path clip-path="url(#clip930)" d="M 0 0 M1353.34 1078.15 L1377.82 1078.15 L1377.82 1084.06 L1344.9 1084.06 L1344.9 1078.15 Q1348.89 1074.02 1355.77 1067.08 Q1362.68 1060.1 1364.45 1058.09 Q1367.82 1054.3 1369.13 1051.7 Q1370.49 1049.06 1370.49 1046.52 Q1370.49 1042.39 1367.57 1039.79 Q1364.69 1037.18 1360.04 1037.18 Q1356.74 1037.18 1353.06 1038.33 Q1349.41 1039.47 1345.25 1041.8 L1345.25 1034.72 Q1349.48 1033.02 1353.16 1032.15 Q1356.84 1031.28 1359.9 1031.28 Q1367.95 1031.28 1372.75 1035.31 Q1377.54 1039.34 1377.54 1046.07 Q1377.54 1049.27 1376.32 1052.15 Q1375.14 1054.99 1371.98 1058.88 Q1371.11 1059.89 1366.46 1064.72 Q1361.81 1069.51 1353.34 1078.15 Z" fill="#000000" fill-rule="evenodd" fill-opacity="1" /><path clip-path="url(#clip930)" d="M 0 0 M1609.94 1308.44 Q1614.97 1309.52 1617.79 1312.92 Q1620.63 1316.32 1620.63 1321.32 Q1620.63 1328.99 1615.36 1333.2 Q1610.08 1337.4 1600.36 1337.4 Q1597.09 1337.4 1593.62 1336.74 Q1590.18 1336.11 1586.5 1334.83 L1586.5 1328.06 Q1589.42 1329.76 1592.89 1330.63 Q1596.36 1331.49 1600.15 1331.49 Q1606.74 1331.49 1610.18 1328.89 Q1613.65 1326.29 1613.65 1321.32 Q1613.65 1316.74 1610.43 1314.17 Q1607.23 1311.56 1601.5 1311.56 L1595.46 1311.56 L1595.46 1305.8 L1601.78 1305.8 Q1606.95 1305.8 1609.7 1303.75 Q1612.44 1301.67 1612.44 1297.78 Q1612.44 1293.79 1609.59 1291.67 Q1606.78 1289.52 1601.5 1289.52 Q1598.62 1289.52 1595.32 1290.14 Q1592.02 1290.77 1588.06 1292.08 L1588.06 1285.83 Q1592.06 1284.72 1595.53 1284.17 Q1599.04 1283.61 1602.13 1283.61 Q1610.11 1283.61 1614.77 1287.26 Q1619.42 1290.87 1619.42 1297.05 Q1619.42 1301.36 1616.95 1304.34 Q1614.49 1307.29 1609.94 1308.44 Z" fill="#000000" fill-rule="evenodd" fill-opacity="1" /><path clip-path="url(#clip930)" d="M 0 0 M1750.73 1004.3 L1733.02 1031.97 L1750.73 1031.97 L1750.73 1004.3 M1748.89 998.19 L1757.71 998.19 L1757.71 1031.97 L1765.11 1031.97 L1765.11 1037.81 L1757.71 1037.81 L1757.71 1050.03 L1750.73 1050.03 L1750.73 1037.81 L1727.33 1037.81 L1727.33 1031.04 L1748.89 998.19 Z" fill="#000000" fill-rule="evenodd" fill-opacity="1" /><path clip-path="url(#clip930)" d="M 0 0 M1728.24 774.517 L1755.77 774.517 L1755.77 780.419 L1734.66 780.419 L1734.66 793.128 Q1736.19 792.607 1737.72 792.364 Q1739.24 792.086 1740.77 792.086 Q1749.45 792.086 1754.52 796.843 Q1759.59 801.6 1759.59 809.725 Q1759.59 818.093 1754.38 822.745 Q1749.17 827.363 1739.7 827.363 Q1736.43 827.363 1733.03 826.808 Q1729.66 826.252 1726.05 825.141 L1726.05 818.093 Q1729.17 819.794 1732.51 820.627 Q1735.84 821.461 1739.56 821.461 Q1745.56 821.461 1749.07 818.301 Q1752.58 815.141 1752.58 809.725 Q1752.58 804.308 1749.07 801.148 Q1745.56 797.989 1739.56 797.989 Q1736.74 797.989 1733.93 798.614 Q1731.15 799.239 1728.24 800.558 L1728.24 774.517 Z" fill="#000000" fill-rule="evenodd" fill-opacity="1" /><path clip-path="url(#clip930)" d="M 0 0 M1011.32 254.987 Q1006.6 254.987 1003.82 258.216 Q1001.08 261.445 1001.08 267.07 Q1001.08 272.66 1003.82 275.924 Q1006.6 279.153 1011.32 279.153 Q1016.05 279.153 1018.79 275.924 Q1021.57 272.66 1021.57 267.07 Q1021.57 261.445 1018.79 258.216 Q1016.05 254.987 1011.32 254.987 M1025.25 233.008 L1025.25 239.396 Q1022.61 238.146 1019.9 237.487 Q1017.23 236.827 1014.59 236.827 Q1007.64 236.827 1003.96 241.515 Q1000.32 246.202 999.796 255.681 Q1001.85 252.66 1004.94 251.063 Q1008.03 249.431 1011.74 249.431 Q1019.55 249.431 1024.07 254.188 Q1028.62 258.91 1028.62 267.07 Q1028.62 275.056 1023.89 279.882 Q1019.17 284.709 1011.32 284.709 Q1002.33 284.709 997.574 277.834 Q992.817 270.924 992.817 257.834 Q992.817 245.542 998.651 238.251 Q1004.48 230.924 1014.31 230.924 Q1016.95 230.924 1019.62 231.445 Q1022.33 231.966 1025.25 233.008 Z" fill="#000000" fill-rule="evenodd" fill-opacity="1" /><path clip-path="url(#clip930)" d="M 0 0 M1071.98 524.095 L1105.31 524.095 L1105.31 527.081 L1086.49 575.935 L1079.17 575.935 L1096.88 529.998 L1071.98 529.998 L1071.98 524.095 Z" fill="#000000" fill-rule="evenodd" fill-opacity="1" /><path clip-path="url(#clip930)" d="M 0 0 M1371.41 788.052 Q1366.41 788.052 1363.53 790.726 Q1360.68 793.399 1360.68 798.087 Q1360.68 802.774 1363.53 805.448 Q1366.41 808.122 1371.41 808.122 Q1376.41 808.122 1379.29 805.448 Q1382.18 802.74 1382.18 798.087 Q1382.18 793.399 1379.29 790.726 Q1376.45 788.052 1371.41 788.052 M1364.4 785.066 Q1359.88 783.955 1357.35 780.865 Q1354.85 777.774 1354.85 773.33 Q1354.85 767.115 1359.26 763.504 Q1363.7 759.893 1371.41 759.893 Q1379.15 759.893 1383.56 763.504 Q1387.97 767.115 1387.97 773.33 Q1387.97 777.774 1385.44 780.865 Q1382.94 783.955 1378.46 785.066 Q1383.53 786.247 1386.34 789.684 Q1389.19 793.122 1389.19 798.087 Q1389.19 805.622 1384.57 809.649 Q1379.99 813.677 1371.41 813.677 Q1362.83 813.677 1358.22 809.649 Q1353.63 805.622 1353.63 798.087 Q1353.63 793.122 1356.48 789.684 Q1359.33 786.247 1364.4 785.066 M1361.83 773.99 Q1361.83 778.017 1364.33 780.274 Q1366.86 782.531 1371.41 782.531 Q1375.93 782.531 1378.46 780.274 Q1381.03 778.017 1381.03 773.99 Q1381.03 769.962 1378.46 767.705 Q1375.93 765.448 1371.41 765.448 Q1366.86 765.448 1364.33 767.705 Q1361.83 769.962 1361.83 773.99 Z" fill="#000000" fill-rule="evenodd" fill-opacity="1" /></svg>
