<?xml version="1.0" encoding="utf-8"?>
<svg xmlns="http://www.w3.org/2000/svg" xmlns:xlink="http://www.w3.org/1999/xlink" width="270.75" height="178.75" viewBox="0 0 1083 715">
<defs>
  <clipPath id="clip090">
    <rect x="0" y="0" width="1083" height="715"/>
  </clipPath>
</defs>
<path clip-path="url(#clip090)" d="
M0 715 L1083 715 L1083 0 L0 0  Z
  " fill="#ffffff" fill-rule="evenodd" fill-opacity="1"/>
<defs>
  <clipPath id="clip091">
    <rect x="216" y="0" width="759" height="715"/>
  </clipPath>
</defs>
<path clip-path="url(#clip090)" d="
M256.078 644.851 L853.497 644.851 L853.497 47.249 L256.078 47.249  Z
  " fill="#ffffff" fill-rule="evenodd" fill-opacity="1"/>
<defs>
  <clipPath id="clip092">
    <rect x="256" y="47" width="598" height="599"/>
  </clipPath>
</defs>
<polyline clip-path="url(#clip092)" style="stroke:#000000; stroke-width:4.00042; stroke-opacity:1; fill:none" points="
  341.424,381.986 343.022,383.022 344.62,384.054 346.215,385.077 347.809,386.088 349.4,387.081 350.986,388.053 352.568,388.999 354.145,389.915 355.715,390.797 
  357.278,391.641 358.833,392.441 360.38,393.195 361.918,393.897 363.445,394.543 364.961,395.129 366.466,395.652 367.958,396.105 369.437,396.486 370.902,396.79 
  372.352,397.012 373.786,397.149 375.205,397.195 376.605,397.148 377.988,397.002 379.353,396.753 380.698,396.402 382.026,395.952 383.336,395.408 384.63,394.774 
  385.909,394.055 387.172,393.253 388.422,392.375 389.658,391.424 390.882,390.405 392.094,389.321 393.296,388.177 394.487,386.978 395.668,385.727 396.842,384.429 
  398.007,383.089 399.165,381.709 400.317,380.296 401.464,378.852 402.606,377.383 403.744,375.892 404.879,374.385 406.011,372.864 407.142,371.335 408.272,369.801 
  
  "/>
<polyline clip-path="url(#clip092)" style="stroke:#000000; stroke-width:4.00042; stroke-opacity:1; fill:none" points="
  566.393,297.382 567.763,296.3 569.127,295.218 570.483,294.136 571.826,293.053 573.152,291.968 574.456,290.883 575.734,289.796 576.981,288.707 578.194,287.617 
  579.367,286.524 580.497,285.429 581.579,284.331 582.61,283.23 583.583,282.126 584.496,281.018 585.344,279.907 586.122,278.791 586.826,277.672 587.452,276.548 
  587.995,275.419 588.452,274.286 588.817,273.147 589.087,272.003 589.256,270.853 589.322,269.698 589.283,268.536 589.145,267.369 588.911,266.196 588.586,265.018 
  588.173,263.835 587.678,262.648 587.105,261.456 586.459,260.259 585.742,259.059 584.96,257.855 584.118,256.648 583.219,255.438 582.268,254.224 581.269,253.008 
  580.227,251.789 579.145,250.569 578.029,249.346 576.882,248.121 575.71,246.895 574.515,245.668 573.303,244.44 572.079,243.211 570.845,241.981 569.607,240.751 
  
  "/>
<polyline clip-path="url(#clip092)" style="stroke:#000000; stroke-width:4.00042; stroke-opacity:1; fill:none" points="
  566.393,297.382 567.526,298.776 568.653,300.17 569.773,301.562 570.879,302.953 571.968,304.341 573.035,305.727 574.077,307.109 575.088,308.487 576.065,309.86 
  577.003,311.229 577.898,312.591 578.745,313.948 579.541,315.297 580.28,316.639 580.959,317.973 581.574,319.299 582.119,320.615 582.591,321.922 582.985,323.218 
  583.298,324.503 583.524,325.777 583.659,327.039 583.7,328.288 583.641,329.524 583.479,330.747 583.214,331.956 582.849,333.151 582.389,334.334 581.839,335.505 
  581.202,336.664 580.484,337.813 579.688,338.951 578.818,340.08 577.88,341.199 576.876,342.31 575.813,343.413 574.693,344.508 573.521,345.597 572.302,346.679 
  571.04,347.755 569.739,348.827 568.404,349.893 567.038,350.956 565.646,352.015 564.233,353.072 562.803,354.126 561.359,355.178 559.907,356.229 558.451,357.28 
  
  "/>
<polyline clip-path="url(#clip092)" style="stroke:#000000; stroke-width:4.00042; stroke-opacity:1; fill:none" points="
  569.607,240.751 570.964,239.698 572.316,238.645 573.66,237.591 574.991,236.537 576.304,235.482 577.596,234.425 578.861,233.368 580.096,232.309 581.297,231.248 
  582.458,230.186 583.576,229.122 584.645,228.055 585.663,226.986 586.624,225.914 587.525,224.839 588.36,223.761 589.125,222.68 589.817,221.596 590.43,220.507 
  590.961,219.415 591.405,218.319 591.757,217.218 592.014,216.113 592.171,215.003 592.224,213.888 592.172,212.768 592.021,211.644 591.774,210.515 591.435,209.382 
  591.01,208.244 590.502,207.103 589.916,205.958 589.255,204.809 588.526,203.658 587.731,202.503 586.875,201.345 585.963,200.184 584.998,199.021 583.986,197.856 
  582.93,196.689 581.835,195.52 580.705,194.349 579.545,193.177 578.359,192.004 577.151,190.829 575.926,189.654 574.687,188.478 573.44,187.302 572.189,186.125 
  
  "/>
<polyline clip-path="url(#clip092)" style="stroke:#000000; stroke-width:4.00042; stroke-opacity:1; fill:none" points="
  572.189,186.125 573.545,185.096 574.897,184.066 576.241,183.036 577.571,182.006 578.884,180.974 580.175,179.941 581.44,178.908 582.675,177.872 583.875,176.835 
  585.035,175.797 586.153,174.756 587.222,173.713 588.239,172.667 589.2,171.619 590.1,170.567 590.935,169.513 591.7,168.455 592.391,167.394 593.004,166.329 
  593.534,165.26 593.978,164.186 594.33,163.109 594.586,162.027 594.743,160.94 594.795,159.848 594.743,158.751 594.591,157.649 594.344,156.543 594.005,155.432 
  593.579,154.317 593.071,153.199 592.484,152.076 591.824,150.95 591.094,149.821 590.298,148.688 589.442,147.553 588.53,146.414 587.565,145.274 586.552,144.131 
  585.496,142.986 584.401,141.839 583.271,140.69 582.11,139.54 580.924,138.389 579.715,137.236 578.49,136.083 577.251,134.929 576.003,133.775 574.752,132.621 
  
  "/>
<polyline clip-path="url(#clip092)" style="stroke:#000000; stroke-width:4.00042; stroke-opacity:1; fill:none" points="
  656.19,507.846 654.586,507.14 652.987,506.432 651.396,505.722 649.818,505.007 648.256,504.287 646.714,503.56 645.198,502.826 643.711,502.082 642.256,501.327 
  640.839,500.56 639.463,499.779 638.133,498.983 636.853,498.172 635.626,497.343 634.457,496.495 633.35,495.626 632.31,494.736 631.34,493.824 630.444,492.886 
  629.627,491.924 628.893,490.934 628.245,489.916 627.689,488.868 627.228,487.789 626.866,486.678 626.603,485.535 626.435,484.361 626.359,483.156 626.369,481.924 
  626.462,480.664 626.633,479.379 626.88,478.07 627.196,476.738 627.579,475.384 628.024,474.01 628.526,472.617 629.083,471.206 629.689,469.779 630.341,468.338 
  631.034,466.883 631.764,465.416 632.528,463.938 633.32,462.45 634.137,460.955 634.975,459.452 635.83,457.945 636.696,456.433 637.572,454.918 638.451,453.403 
  
  "/>
<polyline clip-path="url(#clip092)" style="stroke:#000000; stroke-width:4.00042; stroke-opacity:1; fill:none" points="
  656.19,507.846 655.388,509.377 654.591,510.907 653.802,512.434 653.025,513.955 652.264,515.471 651.523,516.978 650.807,518.476 650.119,519.963 649.464,521.437 
  648.845,522.896 648.266,524.34 647.732,525.766 647.247,527.173 646.814,528.56 646.438,529.924 646.123,531.264 645.873,532.579 645.691,533.866 645.583,535.126 
  645.551,536.354 645.6,537.551 645.735,538.715 645.958,539.843 646.275,540.935 646.689,541.989 647.2,543.005 647.804,543.984 648.497,544.927 649.276,545.838 
  650.135,546.717 651.071,547.565 652.08,548.385 653.158,549.178 654.301,549.945 655.505,550.688 656.765,551.409 658.078,552.11 659.44,552.791 660.846,553.455 
  662.293,554.103 663.776,554.736 665.292,555.357 666.836,555.967 668.404,556.567 669.992,557.159 671.597,557.745 673.214,558.326 674.839,558.903 676.468,559.48 
  
  "/>
<polyline clip-path="url(#clip092)" style="stroke:#000000; stroke-width:4.00042; stroke-opacity:1; fill:none" points="
  638.451,453.403 636.92,452.44 635.393,451.476 633.874,450.51 632.369,449.542 630.88,448.57 629.413,447.594 627.971,446.613 626.559,445.625 625.182,444.631 
  623.842,443.629 622.546,442.617 621.296,441.596 620.097,440.565 618.954,439.522 617.87,438.467 616.851,437.399 615.899,436.316 615.02,435.219 614.218,434.106 
  613.497,432.976 612.861,431.829 612.314,430.663 611.862,429.478 611.507,428.273 611.255,427.046 611.104,425.799 611.052,424.532 611.094,423.245 611.225,421.939 
  611.441,420.616 611.738,419.277 612.112,417.922 612.559,416.551 613.074,415.167 613.652,413.769 614.291,412.36 614.984,410.938 615.729,409.507 616.521,408.065 
  617.356,406.615 618.229,405.157 619.135,403.692 620.072,402.22 621.035,400.744 622.018,399.263 623.019,397.778 624.032,396.291 625.055,394.802 626.081,393.313 
  
  "/>
<polyline clip-path="url(#clip092)" style="stroke:#000000; stroke-width:4.00042; stroke-opacity:1; fill:none" points="
  768.151,369.276 766.864,370.731 765.577,372.181 764.288,373.623 762.998,375.052 761.706,376.464 760.412,377.854 759.115,379.217 757.815,380.551 756.511,381.85 
  755.202,383.11 753.889,384.327 752.571,385.496 751.247,386.614 749.917,387.675 748.58,388.675 747.236,389.61 745.884,390.477 744.525,391.269 743.157,391.984 
  741.78,392.617 740.393,393.163 738.996,393.618 737.589,393.978 736.172,394.238 734.742,394.395 733.302,394.448 731.85,394.401 730.388,394.259 728.916,394.026 
  727.435,393.707 725.945,393.306 724.446,392.826 722.939,392.273 721.424,391.651 719.903,390.964 718.374,390.216 716.84,389.412 715.3,388.556 713.754,387.653 
  712.204,386.706 710.65,385.72 709.092,384.7 707.53,383.649 705.966,382.572 704.399,381.474 702.831,380.358 701.261,379.23 699.69,378.093 698.118,376.951 
  
  "/>
<polyline clip-path="url(#clip092)" style="stroke:#000000; stroke-width:4.00042; stroke-opacity:1; fill:none" points="
  626.081,393.313 627.84,394.252 629.598,395.188 631.355,396.115 633.108,397.029 634.858,397.926 636.603,398.802 638.342,399.653 640.074,400.473 641.798,401.26 
  643.514,402.009 645.22,402.715 646.916,403.374 648.6,403.983 650.272,404.536 651.93,405.03 653.573,405.46 655.201,405.822 656.813,406.112 658.408,406.326 
  659.984,406.459 661.541,406.507 663.077,406.466 664.593,406.331 666.086,406.099 667.556,405.765 669.003,405.33 670.428,404.796 671.832,404.17 673.215,403.454 
  674.579,402.653 675.925,401.771 677.254,400.814 678.566,399.784 679.863,398.686 681.145,397.524 682.414,396.303 683.67,395.026 684.914,393.699 686.149,392.325 
  687.373,390.909 688.589,389.454 689.797,387.966 690.998,386.447 692.194,384.903 693.384,383.338 694.571,381.756 695.755,380.162 696.937,378.558 698.118,376.951 
  
  "/>
<polyline clip-path="url(#clip092)" style="stroke:#000000; stroke-width:4.00042; stroke-opacity:1; fill:none" points="
  626.081,393.313 624.087,393.73 622.095,394.144 620.107,394.549 618.125,394.944 616.152,395.322 614.189,395.682 612.238,396.019 610.301,396.328 608.381,396.607 
  606.479,396.852 604.597,397.058 602.738,397.222 600.904,397.339 599.096,397.407 597.317,397.421 595.569,397.377 593.853,397.271 592.172,397.101 590.528,396.861 
  588.923,396.548 587.359,396.159 585.837,395.688 584.361,395.133 582.932,394.49 581.552,393.755 580.22,392.927 578.936,392.011 577.697,391.011 576.501,389.93 
  575.346,388.772 574.23,387.541 573.15,386.241 572.105,384.876 571.093,383.449 570.112,381.964 569.159,380.426 568.233,378.838 567.332,377.203 566.453,375.526 
  565.594,373.811 564.754,372.062 563.93,370.281 563.121,368.474 562.324,366.643 561.537,364.794 560.758,362.929 559.986,361.052 559.217,359.168 558.451,357.28 
  
  "/>
<polyline clip-path="url(#clip092)" style="stroke:#000000; stroke-width:4.00042; stroke-opacity:1; fill:none" points="
  408.272,369.801 409.933,370.848 411.592,371.891 413.25,372.925 414.906,373.946 416.559,374.95 418.209,375.932 419.854,376.889 421.494,377.816 423.128,378.708 
  424.756,379.562 426.377,380.372 427.99,381.136 429.594,381.848 431.189,382.504 432.774,383.1 434.349,383.631 435.911,384.094 437.462,384.484 439,384.796 
  440.524,385.027 442.033,385.172 443.528,385.227 445.007,385.188 446.47,385.049 447.915,384.808 449.343,384.464 450.755,384.021 452.151,383.484 453.531,382.856 
  454.898,382.142 456.251,381.347 457.591,380.475 458.919,379.53 460.235,378.515 461.541,377.437 462.836,376.298 464.123,375.104 465.4,373.858 466.67,372.565 
  467.933,371.228 469.189,369.854 470.439,368.444 471.685,367.005 472.926,365.54 474.163,364.054 475.398,362.55 476.631,361.033 477.862,359.508 479.092,357.979 
  
  "/>
<polyline clip-path="url(#clip092)" style="stroke:#000000; stroke-width:4.00042; stroke-opacity:1; fill:none" points="
  526.048,404.122 527.783,403.909 529.515,403.693 531.239,403.473 532.952,403.246 534.651,403.008 536.332,402.758 537.992,402.493 539.627,402.211 541.233,401.909 
  542.807,401.585 544.345,401.236 545.843,400.859 547.299,400.453 548.708,400.015 550.067,399.542 551.373,399.032 552.621,398.482 553.808,397.89 554.931,397.254 
  555.986,396.57 556.969,395.837 557.877,395.052 558.707,394.212 559.454,393.316 560.115,392.36 560.69,391.345 561.184,390.272 561.598,389.145 561.937,387.967 
  562.205,386.738 562.405,385.463 562.54,384.143 562.614,382.781 562.632,381.379 562.595,379.94 562.508,378.466 562.375,376.96 562.199,375.425 561.984,373.862 
  561.732,372.275 561.449,370.665 561.137,369.035 560.8,367.388 560.441,365.726 560.064,364.052 559.673,362.367 559.272,360.676 558.863,358.979 558.451,357.28 
  
  "/>
<polyline clip-path="url(#clip092)" style="stroke:#000000; stroke-width:4.00042; stroke-opacity:1; fill:none" points="
  479.092,357.979 480.723,359.27 482.354,360.558 483.985,361.836 485.616,363.102 487.247,364.35 488.877,365.576 490.507,366.777 492.137,367.946 493.767,369.081 
  495.396,370.177 497.025,371.229 498.654,372.234 500.282,373.186 501.909,374.081 503.536,374.916 505.163,375.685 506.789,376.385 508.414,377.01 510.038,377.557 
  511.662,378.022 513.285,378.399 514.907,378.685 516.529,378.875 518.149,378.965 519.769,378.951 521.387,378.833 523.005,378.614 524.622,378.299 526.238,377.894 
  527.854,377.401 529.468,376.825 531.082,376.171 532.695,375.443 534.308,374.645 535.92,373.782 537.532,372.858 539.143,371.877 540.753,370.844 542.364,369.764 
  543.973,368.639 545.583,367.476 547.192,366.278 548.801,365.049 550.41,363.794 552.018,362.517 553.626,361.223 555.235,359.916 556.843,358.6 558.451,357.28 
  
  "/>
<path clip-path="url(#clip092)" d="
M352.616 381.986 L347.02 372.29 L335.828 372.29 L330.232 381.986 L335.828 391.681 L347.02 391.681 L352.616 381.986 L352.616 381.986  Z
  " fill="#009af9" fill-rule="evenodd" fill-opacity="1"/>
<polyline clip-path="url(#clip092)" style="stroke:#000000; stroke-width:4.00042; stroke-opacity:1; fill:none" points="
  352.616,381.986 347.02,372.29 335.828,372.29 330.232,381.986 335.828,391.681 347.02,391.681 352.616,381.986 
  "/>
<path clip-path="url(#clip092)" d="
M579.204 297.382 L572.799 286.284 L559.988 286.284 L553.583 297.382 L559.988 308.479 L572.799 308.479 L579.204 297.382 L579.204 297.382  Z
  " fill="#009af9" fill-rule="evenodd" fill-opacity="1"/>
<polyline clip-path="url(#clip092)" style="stroke:#000000; stroke-width:4.00042; stroke-opacity:1; fill:none" points="
  579.204,297.382 572.799,286.284 559.988,286.284 553.583,297.382 559.988,308.479 572.799,308.479 579.204,297.382 
  "/>
<path clip-path="url(#clip092)" d="
M582.417 240.751 L576.012 229.654 L563.202 229.654 L556.797 240.751 L563.202 251.849 L576.012 251.849 L582.417 240.751 L582.417 240.751  Z
  " fill="#009af9" fill-rule="evenodd" fill-opacity="1"/>
<polyline clip-path="url(#clip092)" style="stroke:#000000; stroke-width:4.00042; stroke-opacity:1; fill:none" points="
  582.417,240.751 576.012,229.654 563.202,229.654 556.797,240.751 563.202,251.849 576.012,251.849 582.417,240.751 
  "/>
<path clip-path="url(#clip092)" d="
M584.999 186.125 L578.594 175.028 L565.784 175.028 L559.379 186.125 L565.784 197.223 L578.594 197.223 L584.999 186.125 L584.999 186.125  Z
  " fill="#009af9" fill-rule="evenodd" fill-opacity="1"/>
<polyline clip-path="url(#clip092)" style="stroke:#000000; stroke-width:4.00042; stroke-opacity:1; fill:none" points="
  584.999,186.125 578.594,175.028 565.784,175.028 559.379,186.125 565.784,197.223 578.594,197.223 584.999,186.125 
  "/>
<path clip-path="url(#clip092)" d="
M587.022 132.621 L580.887 121.991 L568.616 121.991 L562.481 132.621 L568.616 143.251 L580.887 143.251 L587.022 132.621 L587.022 132.621  Z
  " fill="#009af9" fill-rule="evenodd" fill-opacity="1"/>
<polyline clip-path="url(#clip092)" style="stroke:#000000; stroke-width:4.00042; stroke-opacity:1; fill:none" points="
  587.022,132.621 580.887,121.991 568.616,121.991 562.481,132.621 568.616,143.251 580.887,143.251 587.022,132.621 
  "/>
<path clip-path="url(#clip092)" d="
M667.382 507.846 L661.786 498.15 L650.594 498.15 L644.998 507.846 L650.594 517.542 L661.786 517.542 L667.382 507.846 L667.382 507.846  Z
  " fill="#009af9" fill-rule="evenodd" fill-opacity="1"/>
<polyline clip-path="url(#clip092)" style="stroke:#000000; stroke-width:4.00042; stroke-opacity:1; fill:none" points="
  667.382,507.846 661.786,498.15 650.594,498.15 644.998,507.846 650.594,517.542 661.786,517.542 667.382,507.846 
  "/>
<path clip-path="url(#clip092)" d="
M649.643 453.403 L644.047 443.707 L632.855 443.707 L627.259 453.403 L632.855 463.098 L644.047 463.098 L649.643 453.403 L649.643 453.403  Z
  " fill="#009af9" fill-rule="evenodd" fill-opacity="1"/>
<polyline clip-path="url(#clip092)" style="stroke:#000000; stroke-width:4.00042; stroke-opacity:1; fill:none" points="
  649.643,453.403 644.047,443.707 632.855,443.707 627.259,453.403 632.855,463.098 644.047,463.098 649.643,453.403 
  "/>
<path clip-path="url(#clip092)" d="
M803.076 369.276 L785.614 339.021 L750.689 339.021 L733.226 369.276 L750.689 399.531 L785.614 399.531 L803.076 369.276 L803.076 369.276  Z
  " fill="#009af9" fill-rule="evenodd" fill-opacity="1"/>
<polyline clip-path="url(#clip092)" style="stroke:#000000; stroke-width:4.00042; stroke-opacity:1; fill:none" points="
  803.076,369.276 785.614,339.021 750.689,339.021 733.226,369.276 750.689,399.531 785.614,399.531 803.076,369.276 
  "/>
<path clip-path="url(#clip092)" d="
M662.084 393.313 L644.083 362.123 L608.079 362.123 L590.077 393.313 L608.079 424.502 L644.083 424.502 L662.084 393.313 L662.084 393.313  Z
  " fill="#009af9" fill-rule="evenodd" fill-opacity="1"/>
<polyline clip-path="url(#clip092)" style="stroke:#000000; stroke-width:4.00042; stroke-opacity:1; fill:none" points="
  662.084,393.313 644.083,362.123 608.079,362.123 590.077,393.313 608.079,424.502 644.083,424.502 662.084,393.313 
  "/>
<path clip-path="url(#clip092)" d="
M419.465 369.801 L413.868 360.106 L402.676 360.106 L397.08 369.801 L402.676 379.497 L413.868 379.497 L419.465 369.801 L419.465 369.801  Z
  " fill="#009af9" fill-rule="evenodd" fill-opacity="1"/>
<polyline clip-path="url(#clip092)" style="stroke:#000000; stroke-width:4.00042; stroke-opacity:1; fill:none" points="
  419.465,369.801 413.868,360.106 402.676,360.106 397.08,369.801 402.676,379.497 413.868,379.497 419.465,369.801 
  "/>
<path clip-path="url(#clip092)" d="
M734.122 376.951 L716.12 345.761 L680.116 345.761 L662.115 376.951 L680.116 408.141 L716.12 408.141 L734.122 376.951 L734.122 376.951  Z
  " fill="#009af9" fill-rule="evenodd" fill-opacity="1"/>
<polyline clip-path="url(#clip092)" style="stroke:#000000; stroke-width:4.00042; stroke-opacity:1; fill:none" points="
  734.122,376.951 716.12,345.761 680.116,345.761 662.115,376.951 680.116,408.141 716.12,408.141 734.122,376.951 734.122,376.951 
  "/>
<path clip-path="url(#clip092)" d="
M687.66 559.48 L682.064 549.784 L670.872 549.784 L665.276 559.48 L670.872 569.175 L682.064 569.175 L687.66 559.48 L687.66 559.48  Z
  " fill="#009af9" fill-rule="evenodd" fill-opacity="1"/>
<polyline clip-path="url(#clip092)" style="stroke:#000000; stroke-width:4.00042; stroke-opacity:1; fill:none" points="
  687.66,559.48 682.064,549.784 670.872,549.784 665.276,559.48 670.872,569.175 682.064,569.175 687.66,559.48 
  "/>
<path clip-path="url(#clip092)" d="
M537.241 404.122 L531.644 394.426 L520.452 394.426 L514.856 404.122 L520.452 413.817 L531.644 413.817 L537.241 404.122 L537.241 404.122  Z
  " fill="#009af9" fill-rule="evenodd" fill-opacity="1"/>
<polyline clip-path="url(#clip092)" style="stroke:#000000; stroke-width:4.00042; stroke-opacity:1; fill:none" points="
  537.241,404.122 531.644,394.426 520.452,394.426 514.856,404.122 520.452,413.817 531.644,413.817 537.241,404.122 
  "/>
<path clip-path="url(#clip092)" d="
M490.824 357.979 L484.958 347.816 L473.226 347.816 L467.361 357.979 L473.226 368.142 L484.958 368.142 L490.824 357.979 L490.824 357.979  Z
  " fill="#009af9" fill-rule="evenodd" fill-opacity="1"/>
<polyline clip-path="url(#clip092)" style="stroke:#000000; stroke-width:4.00042; stroke-opacity:1; fill:none" points="
  490.824,357.979 484.958,347.816 473.226,347.816 467.361,357.979 473.226,368.142 484.958,368.142 490.824,357.979 490.824,357.979 
  "/>
<path clip-path="url(#clip092)" d="
M594.994 357.28 L576.722 325.623 L540.179 325.623 L521.908 357.28 L540.179 388.937 L576.722 388.937 L594.994 357.28 L594.994 357.28  Z
  " fill="#009af9" fill-rule="evenodd" fill-opacity="1"/>
<polyline clip-path="url(#clip092)" style="stroke:#000000; stroke-width:4.00042; stroke-opacity:1; fill:none" points="
  594.994,357.28 576.722,325.623 540.179,325.623 521.908,357.28 540.179,388.937 576.722,388.937 594.994,357.28 
  "/>
<circle clip-path="url(#clip092)" style="fill:#009af9; stroke:none; fill-opacity:1" cx="341.424" cy="381.986" r="2"/>
<circle clip-path="url(#clip092)" style="fill:#009af9; stroke:none; fill-opacity:1" cx="566.393" cy="297.382" r="2"/>
<circle clip-path="url(#clip092)" style="fill:#009af9; stroke:none; fill-opacity:1" cx="569.607" cy="240.751" r="2"/>
<circle clip-path="url(#clip092)" style="fill:#009af9; stroke:none; fill-opacity:1" cx="572.189" cy="186.125" r="2"/>
<circle clip-path="url(#clip092)" style="fill:#009af9; stroke:none; fill-opacity:1" cx="574.752" cy="132.621" r="2"/>
<circle clip-path="url(#clip092)" style="fill:#009af9; stroke:none; fill-opacity:1" cx="656.19" cy="507.846" r="2"/>
<circle clip-path="url(#clip092)" style="fill:#009af9; stroke:none; fill-opacity:1" cx="638.451" cy="453.403" r="2"/>
<circle clip-path="url(#clip092)" style="fill:#009af9; stroke:none; fill-opacity:1" cx="768.151" cy="369.276" r="2"/>
<circle clip-path="url(#clip092)" style="fill:#009af9; stroke:none; fill-opacity:1" cx="626.081" cy="393.313" r="2"/>
<circle clip-path="url(#clip092)" style="fill:#009af9; stroke:none; fill-opacity:1" cx="408.272" cy="369.801" r="2"/>
<circle clip-path="url(#clip092)" style="fill:#009af9; stroke:none; fill-opacity:1" cx="698.118" cy="376.951" r="2"/>
<circle clip-path="url(#clip092)" style="fill:#009af9; stroke:none; fill-opacity:1" cx="676.468" cy="559.48" r="2"/>
<circle clip-path="url(#clip092)" style="fill:#009af9; stroke:none; fill-opacity:1" cx="526.048" cy="404.122" r="2"/>
<circle clip-path="url(#clip092)" style="fill:#009af9; stroke:none; fill-opacity:1" cx="479.092" cy="357.979" r="2"/>
<circle clip-path="url(#clip092)" style="fill:#009af9; stroke:none; fill-opacity:1" cx="558.451" cy="357.28" r="2"/>
</svg>
