<?xml version="1.0" encoding="utf-8"?>
<svg xmlns="http://www.w3.org/2000/svg" xmlns:xlink="http://www.w3.org/1999/xlink" width="333.25" height="220" viewBox="0 0 1333 880">
<defs>
  <clipPath id="clip930">
    <rect x="0" y="0" width="1333" height="880"/>
  </clipPath>
</defs>
<path clip-path="url(#clip930)" d="
M0 880 L1333 880 L1333 0 L0 0  Z
  " fill="#ffffff" fill-rule="evenodd" fill-opacity="1"/>
<defs>
  <clipPath id="clip931">
    <rect x="266" y="0" width="934" height="880"/>
  </clipPath>
</defs>
<path clip-path="url(#clip930)" d="
M300.672 808.187 L1061.41 808.187 L1061.41 47.2601 L300.672 47.2601  Z
  " fill="#ffffff" fill-rule="evenodd" fill-opacity="1"/>
<defs>
  <clipPath id="clip932">
    <rect x="300" y="47" width="762" height="762"/>
  </clipPath>
</defs>
<polyline clip-path="url(#clip932)" style="stroke:#000000; stroke-width:4.00136; stroke-opacity:1; fill:none" points="
  409.348,437.333 412.261,437.386 415.17,437.436 418.074,437.475 420.968,437.502 423.85,437.509 426.716,437.494 429.564,437.451 432.39,437.375 435.192,437.263 
  437.966,437.11 440.709,436.91 443.419,436.659 446.091,436.353 448.724,435.988 451.313,435.557 453.856,435.058 456.35,434.485 458.792,433.833 461.178,433.099 
  463.506,432.276 465.772,431.362 467.973,430.351 470.107,429.238 472.17,428.02 474.159,426.691 476.074,425.251 477.919,423.706 479.696,422.059 481.408,420.315 
  483.059,418.479 484.651,416.556 486.188,414.549 487.672,412.464 489.107,410.306 490.496,408.078 491.842,405.786 493.148,403.433 494.417,401.026 495.652,398.567 
  496.856,396.063 498.033,393.517 499.185,390.934 500.315,388.319 501.427,385.677 502.523,383.011 503.608,380.327 504.683,377.629 505.751,374.922 506.817,372.21 
  
  "/>
<polyline clip-path="url(#clip932)" style="stroke:#000000; stroke-width:4.00136; stroke-opacity:1; fill:none" points="
  409.348,437.333 410.697,439.988 412.048,442.639 413.405,445.28 414.77,447.907 416.146,450.514 417.535,453.097 418.94,455.651 420.365,458.171 421.811,460.652 
  423.281,463.09 424.778,465.479 426.305,467.815 427.864,470.093 429.458,472.308 431.09,474.455 432.763,476.53 434.479,478.527 436.24,480.442 438.05,482.269 
  439.912,484.005 441.827,485.644 443.799,487.181 445.83,488.611 447.924,489.93 450.082,491.133 452.305,492.221 454.59,493.196 456.934,494.065 459.335,494.833 
  461.789,495.504 464.295,496.082 466.85,496.574 469.451,496.983 472.094,497.314 474.778,497.573 477.5,497.765 480.257,497.893 483.047,497.963 485.866,497.98 
  488.712,497.949 491.582,497.873 494.474,497.76 497.385,497.612 500.312,497.435 503.252,497.234 506.204,497.014 509.163,496.779 512.128,496.534 515.095,496.285 
  
  "/>
<polyline clip-path="url(#clip932)" style="stroke:#000000; stroke-width:4.00136; stroke-opacity:1; fill:none" points="
  843.47,676.939 840.678,675.022 837.891,673.104 835.115,671.18 832.353,669.249 829.611,667.308 826.894,665.356 824.207,663.388 821.554,661.403 818.942,659.399 
  816.374,657.373 813.856,655.323 811.393,653.245 808.99,651.138 806.651,649 804.382,646.827 802.187,644.618 800.072,642.37 798.042,640.08 796.101,637.746 
  794.255,635.366 792.508,632.937 790.866,630.457 789.333,627.923 787.915,625.333 786.616,622.684 785.436,619.977 784.37,617.213 783.415,614.396 782.563,611.528 
  781.811,608.611 781.154,605.647 780.586,602.64 780.103,599.591 779.699,596.503 779.37,593.378 779.111,590.219 778.916,587.028 778.781,583.809 778.701,580.562 
  778.67,577.291 778.685,573.997 778.739,570.685 778.828,567.355 778.947,564.01 779.09,560.654 779.254,557.287 779.433,553.914 779.621,550.535 779.815,547.154 
  
  "/>
<polyline clip-path="url(#clip932)" style="stroke:#000000; stroke-width:4.00136; stroke-opacity:1; fill:none" points="
  843.47,676.939 842.105,679.009 840.739,681.073 839.37,683.127 837.996,685.165 836.618,687.182 835.232,689.172 833.838,691.129 832.434,693.049 831.02,694.926 
  829.592,696.754 828.151,698.529 826.695,700.245 825.222,701.897 823.731,703.478 822.221,704.985 820.689,706.411 819.136,707.751 817.559,709 815.957,710.152 
  814.329,711.203 812.673,712.145 810.988,712.976 809.272,713.688 807.525,714.277 805.744,714.737 803.93,715.068 802.085,715.276 800.209,715.366 798.303,715.343 
  796.37,715.213 794.411,714.981 792.426,714.652 790.418,714.232 788.388,713.726 786.337,713.14 784.267,712.479 782.179,711.747 780.074,710.952 777.954,710.097 
  775.819,709.188 773.673,708.232 771.515,707.232 769.348,706.195 767.172,705.125 764.99,704.029 762.802,702.911 760.609,701.777 758.414,700.633 756.218,699.483 
  
  "/>
<polyline clip-path="url(#clip932)" style="stroke:#000000; stroke-width:4.00136; stroke-opacity:1; fill:none" points="
  621.925,155.964 620.875,159.841 619.83,163.717 618.796,167.591 617.778,171.462 616.783,175.33 615.815,179.194 614.879,183.052 613.982,186.903 613.129,190.748 
  612.325,194.585 611.575,198.412 610.886,202.23 610.262,206.037 609.71,209.832 609.234,213.615 608.84,217.385 608.533,221.14 608.32,224.879 608.205,228.603 
  608.194,232.31 608.292,235.999 608.505,239.669 608.839,243.319 609.298,246.949 609.889,250.557 610.61,254.144 611.457,257.71 612.425,261.257 613.507,264.784 
  614.699,268.294 615.995,271.787 617.389,275.264 618.876,278.725 620.451,282.172 622.108,285.606 623.841,289.027 625.645,292.437 627.515,295.835 629.446,299.224 
  631.431,302.604 633.465,305.976 635.543,309.341 637.659,312.7 639.808,316.053 641.984,319.401 644.182,322.746 646.397,326.089 648.623,329.429 650.854,332.769 
  
  "/>
<polyline clip-path="url(#clip932)" style="stroke:#000000; stroke-width:4.00136; stroke-opacity:1; fill:none" points="
  566.607,302.505 565.332,305.963 564.062,309.42 562.803,312.875 561.561,316.329 560.341,319.78 559.148,323.228 557.988,326.673 556.867,330.112 555.79,333.547 
  554.762,336.976 553.79,340.399 552.878,343.814 552.032,347.222 551.257,350.622 550.56,354.013 549.945,357.395 549.419,360.766 548.986,364.126 548.652,367.476 
  548.423,370.813 548.304,374.137 548.3,377.448 548.418,380.745 548.662,384.027 549.038,387.295 549.546,390.547 550.181,393.784 550.937,397.008 551.809,400.218 
  552.79,403.416 553.876,406.601 555.062,409.775 556.341,412.939 557.708,416.092 559.157,419.235 560.684,422.37 562.282,425.497 563.947,428.615 565.672,431.727 
  567.452,434.833 569.281,437.933 571.155,441.028 573.067,444.118 575.012,447.205 576.985,450.288 578.98,453.369 580.991,456.448 583.013,459.525 585.041,462.602 
  
  "/>
<polyline clip-path="url(#clip932)" style="stroke:#000000; stroke-width:4.00136; stroke-opacity:1; fill:none" points="
  566.607,302.505 566.651,306.505 566.699,310.503 566.757,314.496 566.83,318.482 566.923,322.459 567.042,326.424 567.19,330.375 567.374,334.309 567.598,338.224 
  567.867,342.118 568.186,345.988 568.56,349.833 568.994,353.649 569.494,357.435 570.064,361.187 570.709,364.904 571.434,368.584 572.244,372.223 573.145,375.82 
  574.141,379.372 575.238,382.877 576.44,386.332 577.752,389.736 579.179,393.085 580.727,396.378 582.395,399.614 584.178,402.796 586.071,405.926 588.07,409.006 
  590.17,412.039 592.364,415.028 594.649,417.974 597.019,420.88 599.469,423.748 601.995,426.581 604.59,429.381 607.251,432.15 609.972,434.891 612.749,437.606 
  615.575,440.297 618.447,442.967 621.359,445.618 624.305,448.253 627.282,450.873 630.284,453.482 633.306,456.081 636.344,458.674 639.391,461.261 642.443,463.846 
  
  "/>
<polyline clip-path="url(#clip932)" style="stroke:#000000; stroke-width:4.00136; stroke-opacity:1; fill:none" points="
  566.607,302.505 567.765,304.688 568.924,306.865 570.087,309.032 571.256,311.184 572.432,313.314 573.617,315.419 574.814,317.492 576.024,319.528 577.249,321.523 
  578.49,323.471 579.751,325.367 581.032,327.205 582.335,328.981 583.663,330.689 585.017,332.323 586.399,333.88 587.812,335.353 589.256,336.737 590.733,338.028 
  592.247,339.219 593.797,340.306 595.388,341.284 597.019,342.146 598.693,342.889 600.413,343.507 602.177,343.999 603.984,344.372 605.833,344.63 607.72,344.778 
  609.646,344.822 611.607,344.767 613.601,344.617 615.628,344.38 617.684,344.058 619.769,343.659 621.879,343.186 624.015,342.646 626.172,342.043 628.35,341.382 
  630.547,340.67 632.761,339.91 634.99,339.109 637.232,338.271 639.485,337.402 641.747,336.506 644.017,335.59 646.293,334.659 648.572,333.716 650.854,332.769 
  
  "/>
<polyline clip-path="url(#clip932)" style="stroke:#000000; stroke-width:4.00136; stroke-opacity:1; fill:none" points="
  566.607,302.505 563.642,303.028 560.679,303.545 557.72,304.052 554.768,304.544 551.825,305.015 548.892,305.461 545.973,305.877 543.07,306.257 540.184,306.596 
  537.318,306.889 534.475,307.132 531.655,307.319 528.862,307.445 526.098,307.505 523.365,307.493 520.665,307.406 518.001,307.237 515.374,306.981 512.787,306.634 
  510.242,306.191 507.741,305.646 505.287,304.994 502.881,304.23 500.526,303.349 498.225,302.347 495.976,301.223 493.778,299.982 491.629,298.629 489.526,297.169 
  487.467,295.608 485.451,293.95 483.474,292.201 481.535,290.365 479.632,288.448 477.761,286.455 475.922,284.39 474.111,282.259 472.327,280.068 470.567,277.82 
  468.829,275.522 467.112,273.178 465.412,270.793 463.727,268.373 462.056,265.922 460.395,263.446 458.744,260.949 457.099,258.438 455.459,255.916 453.821,253.389 
  
  "/>
<polyline clip-path="url(#clip932)" style="stroke:#000000; stroke-width:4.00136; stroke-opacity:1; fill:none" points="
  506.817,372.21 507.157,375.143 507.5,378.072 507.852,380.994 508.217,383.906 508.598,386.803 509,389.681 509.428,392.538 509.884,395.37 510.375,398.172 
  510.903,400.942 511.473,403.675 512.089,406.369 512.755,409.019 513.476,411.622 514.255,414.174 515.097,416.672 516.007,419.111 516.987,421.489 518.043,423.802 
  519.179,426.046 520.398,428.217 521.706,430.312 523.105,432.327 524.601,434.258 526.198,436.103 527.894,437.861 529.688,439.535 531.573,441.13 533.546,442.648 
  535.604,444.094 537.74,445.471 539.953,446.782 542.236,448.032 544.587,449.224 547,450.362 549.472,451.448 551.999,452.488 554.575,453.483 557.198,454.439 
  559.863,455.359 562.566,456.246 565.302,457.104 568.067,457.937 570.858,458.748 573.669,459.54 576.497,460.319 579.338,461.086 582.188,461.846 585.041,462.602 
  
  "/>
<polyline clip-path="url(#clip932)" style="stroke:#000000; stroke-width:4.00136; stroke-opacity:1; fill:none" points="
  506.817,372.21 508.474,375.608 510.125,379.005 511.765,382.403 513.389,385.801 514.99,389.198 516.564,392.596 518.104,395.993 519.606,399.391 521.063,402.788 
  522.47,406.185 523.822,409.583 525.113,412.98 526.337,416.377 527.49,419.774 528.564,423.17 529.556,426.567 530.459,429.963 531.268,433.36 531.977,436.756 
  532.581,440.152 533.073,443.547 533.45,446.943 533.704,450.338 533.831,453.733 533.826,457.128 533.687,460.523 533.421,463.918 533.033,467.312 532.529,470.706 
  531.914,474.1 531.193,477.493 530.373,480.887 529.458,484.28 528.455,487.673 527.369,491.067 526.205,494.46 524.969,497.852 523.667,501.245 522.303,504.638 
  520.884,508.03 519.416,511.423 517.903,514.815 516.351,518.207 514.766,521.599 513.153,524.992 511.518,528.384 509.866,531.776 508.204,535.168 506.535,538.56 
  
  "/>
<polyline clip-path="url(#clip932)" style="stroke:#000000; stroke-width:4.00136; stroke-opacity:1; fill:none" points="
  506.817,372.21 508.267,373.803 509.717,375.39 511.167,376.966 512.616,378.526 514.063,380.063 515.509,381.573 516.954,383.05 518.396,384.488 519.837,385.881 
  521.275,387.225 522.71,388.513 524.142,389.74 525.571,390.901 526.996,391.99 528.417,393.002 529.835,393.93 531.248,394.77 532.656,395.516 534.059,396.162 
  535.457,396.703 536.85,397.133 538.236,397.447 539.617,397.639 540.991,397.703 542.359,397.635 543.72,397.435 545.075,397.107 546.424,396.657 547.767,396.091 
  549.104,395.414 550.437,394.632 551.764,393.75 553.087,392.774 554.405,391.71 555.719,390.562 557.029,389.337 558.336,388.04 559.639,386.677 560.94,385.252 
  562.237,383.773 563.532,382.243 564.825,380.669 566.116,379.057 567.405,377.411 568.693,375.738 569.98,374.042 571.266,372.33 572.552,370.606 573.837,368.877 
  
  "/>
<polyline clip-path="url(#clip932)" style="stroke:#000000; stroke-width:4.00136; stroke-opacity:1; fill:none" points="
  506.817,372.21 510.196,373.009 513.573,373.802 516.947,374.585 520.316,375.352 523.68,376.098 527.037,376.817 530.385,377.503 533.722,378.152 537.048,378.759 
  540.361,379.317 543.659,379.822 546.94,380.268 550.205,380.65 553.45,380.963 556.675,381.2 559.878,381.357 563.057,381.429 566.212,381.41 569.34,381.295 
  572.441,381.078 575.512,380.754 578.552,380.318 581.56,379.764 584.535,379.087 587.474,378.282 590.379,377.349 593.25,376.293 596.088,375.12 598.896,373.834 
  601.675,372.441 604.426,370.946 607.15,369.356 609.85,367.674 612.526,365.907 615.18,364.059 617.814,362.137 620.428,360.145 623.026,358.09 625.607,355.975 
  628.173,353.807 630.726,351.59 633.268,349.331 635.799,347.035 638.322,344.706 640.837,342.351 643.346,339.974 645.851,337.581 648.353,335.178 650.854,332.769 
  
  "/>
<polyline clip-path="url(#clip932)" style="stroke:#000000; stroke-width:4.00136; stroke-opacity:1; fill:none" points="
  506.817,372.21 504.217,370.462 501.623,368.713 499.038,366.959 496.469,365.198 493.919,363.428 491.395,361.646 488.902,359.851 486.444,358.041 484.026,356.212 
  481.654,354.363 479.333,352.491 477.067,350.595 474.862,348.671 472.723,346.718 470.654,344.734 468.662,342.715 466.751,340.661 464.925,338.568 463.191,336.434 
  461.553,334.257 460.016,332.036 458.585,329.767 457.266,327.448 456.063,325.077 454.982,322.652 454.021,320.173 453.177,317.642 452.445,315.061 451.819,312.433 
  451.294,309.76 450.865,307.044 450.527,304.287 450.276,301.492 450.105,298.66 450.01,295.795 449.986,292.898 450.028,289.972 450.131,287.018 450.289,284.04 
  450.498,281.039 450.752,278.018 451.047,274.979 451.378,271.924 451.739,268.855 452.125,265.776 452.531,262.687 452.952,259.591 453.384,256.491 453.821,253.389 
  
  "/>
<polyline clip-path="url(#clip932)" style="stroke:#000000; stroke-width:4.00136; stroke-opacity:1; fill:none" points="
  803.13,324.078 802.026,326.281 800.927,328.482 799.839,330.68 798.767,332.873 797.716,335.061 796.692,337.241 795.7,339.412 794.746,341.572 793.834,343.72 
  792.97,345.855 792.159,347.974 791.407,350.077 790.719,352.162 790.1,354.227 789.556,356.27 789.092,358.292 788.713,360.289 788.425,362.26 788.233,364.204 
  788.142,366.119 788.158,368.005 788.286,369.858 788.531,371.678 788.899,373.464 789.394,375.213 790.017,376.926 790.763,378.604 791.626,380.249 792.602,381.862 
  793.684,383.446 794.867,385 796.146,386.527 797.516,388.028 798.971,389.506 800.506,390.96 802.116,392.394 803.795,393.807 805.538,395.203 807.34,396.582 
  809.195,397.946 811.098,399.296 813.044,400.634 815.027,401.962 817.042,403.281 819.084,404.592 821.147,405.896 823.226,407.197 825.315,408.494 827.41,409.79 
  
  "/>
<polyline clip-path="url(#clip932)" style="stroke:#000000; stroke-width:4.00136; stroke-opacity:1; fill:none" points="
  803.13,324.078 803.428,328.117 803.73,332.153 804.043,336.184 804.37,340.207 804.717,344.22 805.088,348.219 805.488,352.202 805.922,356.167 806.395,360.111 
  806.913,364.031 807.478,367.924 808.098,371.789 808.776,375.622 809.517,379.42 810.327,383.182 811.209,386.903 812.17,390.583 813.213,394.217 814.344,397.805 
  815.568,401.341 816.889,404.825 818.313,408.254 819.843,411.624 821.486,414.934 823.245,418.18 825.122,421.363 827.11,424.486 829.205,427.55 831.403,430.558 
  833.698,433.514 836.086,436.42 838.561,439.278 841.12,442.091 843.756,444.862 846.465,447.593 849.243,450.287 852.084,452.947 854.983,455.576 857.936,458.175 
  860.938,460.747 863.984,463.296 867.068,465.824 870.187,468.333 873.335,470.827 876.507,473.307 879.699,475.777 882.905,478.238 886.121,480.695 889.342,483.149 
  
  "/>
<polyline clip-path="url(#clip932)" style="stroke:#000000; stroke-width:4.00136; stroke-opacity:1; fill:none" points="
  803.13,324.078 800.117,325.916 797.103,327.748 794.089,329.569 791.075,331.373 788.058,333.155 785.041,334.91 782.021,336.631 778.999,338.314 775.975,339.952 
  772.948,341.541 769.918,343.074 766.884,344.546 763.846,345.952 760.804,347.286 757.758,348.542 754.707,349.716 751.652,350.801 748.59,351.791 745.523,352.682 
  742.45,353.468 739.371,354.144 736.285,354.703 733.192,355.14 730.092,355.45 726.985,355.627 723.869,355.672 720.747,355.59 717.617,355.385 714.481,355.065 
  711.339,354.633 708.191,354.097 705.036,353.461 701.877,352.731 698.713,351.912 695.543,351.011 692.37,350.031 689.192,348.98 686.01,347.863 682.825,346.684 
  679.637,345.45 676.446,344.167 673.253,342.839 670.057,341.472 666.859,340.073 663.66,338.645 660.46,337.195 657.258,335.729 654.056,334.252 650.854,332.769 
  
  "/>
<polyline clip-path="url(#clip932)" style="stroke:#000000; stroke-width:4.00136; stroke-opacity:1; fill:none" points="
  758.25,290.577 758.224,293.845 758.202,297.109 758.19,300.369 758.192,303.619 758.214,306.859 758.259,310.085 758.333,313.294 758.441,316.484 758.587,319.651 
  758.776,322.793 759.014,325.908 759.303,328.992 759.651,332.042 760.061,335.057 760.537,338.032 761.086,340.966 761.712,343.855 762.419,346.697 763.212,349.488 
  764.096,352.227 765.076,354.91 766.157,357.535 767.343,360.099 768.64,362.598 770.051,365.031 771.578,367.398 773.214,369.7 774.956,371.941 776.799,374.123 
  778.738,376.25 780.767,378.325 782.883,380.349 785.08,382.325 787.355,384.257 789.701,386.148 792.114,387.999 794.589,389.815 797.122,391.597 799.708,393.348 
  802.341,395.072 805.018,396.77 807.733,398.446 810.482,400.103 813.26,401.743 816.061,403.369 818.882,404.984 821.717,406.591 824.561,408.192 827.41,409.79 
  
  "/>
<polyline clip-path="url(#clip932)" style="stroke:#000000; stroke-width:4.00136; stroke-opacity:1; fill:none" points="
  758.25,290.577 757.069,294.43 755.894,298.281 754.729,302.132 753.581,305.98 752.455,309.825 751.357,313.667 750.291,317.505 749.264,321.338 748.281,325.165 
  747.347,328.985 746.469,332.799 745.65,336.605 744.898,340.402 744.217,344.19 743.614,347.969 743.092,351.736 742.659,355.493 742.319,359.237 742.078,362.969 
  741.941,366.687 741.915,370.391 742.004,374.08 742.213,377.754 742.55,381.411 743.017,385.051 743.617,388.675 744.343,392.282 745.19,395.874 746.153,399.451 
  747.225,403.013 748.402,406.563 749.677,410.099 751.047,413.624 752.504,417.137 754.043,420.64 755.66,424.132 757.348,427.616 759.102,431.091 760.917,434.558 
  762.786,438.018 764.705,441.472 766.668,444.921 768.669,448.364 770.704,451.803 772.766,455.238 774.849,458.671 776.95,462.101 779.061,465.531 781.178,468.959 
  
  "/>
<polyline clip-path="url(#clip932)" style="stroke:#000000; stroke-width:4.00136; stroke-opacity:1; fill:none" points="
  758.25,290.577 756.666,292.986 755.08,295.39 753.49,297.783 751.894,300.161 750.29,302.518 748.675,304.85 747.049,307.15 745.408,309.415 743.751,311.638 
  742.076,313.814 740.381,315.939 738.663,318.008 736.921,320.014 735.152,321.953 733.356,323.82 731.529,325.61 729.669,327.317 727.775,328.937 725.845,330.463 
  723.876,331.892 721.866,333.217 719.814,334.434 717.717,335.537 715.574,336.522 713.382,337.383 711.142,338.12 708.855,338.739 706.524,339.244 704.15,339.641 
  701.735,339.935 699.282,340.13 696.792,340.233 694.268,340.248 691.712,340.181 689.125,340.036 686.51,339.818 683.869,339.534 681.203,339.188 678.515,338.785 
  675.806,338.331 673.08,337.83 670.337,337.287 667.58,336.709 664.811,336.1 662.032,335.464 659.244,334.809 656.451,334.137 653.653,333.456 650.854,332.769 
  
  "/>
<polyline clip-path="url(#clip932)" style="stroke:#000000; stroke-width:4.00136; stroke-opacity:1; fill:none" points="
  952.731,385.023 950.496,387.159 948.26,389.291 946.021,391.411 943.779,393.516 941.533,395.598 939.282,397.653 937.024,399.676 934.758,401.66 932.484,403.601 
  930.201,405.494 927.906,407.331 925.6,409.109 923.281,410.822 920.948,412.464 918.6,414.029 916.236,415.514 913.854,416.911 911.455,418.216 909.036,419.422 
  906.596,420.526 904.135,421.521 901.652,422.401 899.145,423.162 896.613,423.798 894.055,424.303 891.472,424.678 888.864,424.928 886.232,425.059 883.578,425.075 
  880.902,424.982 878.206,424.786 875.491,424.493 872.757,424.106 870.006,423.633 867.239,423.078 864.457,422.447 861.661,421.746 858.852,420.979 856.031,420.152 
  853.2,419.271 850.359,418.341 847.509,417.367 844.652,416.355 841.788,415.311 838.919,414.239 836.046,413.146 833.169,412.037 830.29,410.916 827.41,409.79 
  
  "/>
<polyline clip-path="url(#clip932)" style="stroke:#000000; stroke-width:4.00136; stroke-opacity:1; fill:none" points="
  779.815,547.154 782.357,544.895 784.894,542.634 787.42,540.37 789.931,538.101 792.421,535.824 794.884,533.538 797.317,531.241 799.712,528.931 802.066,526.607 
  804.372,524.266 806.626,521.908 808.823,519.529 810.957,517.129 813.022,514.705 815.015,512.255 816.928,509.779 818.758,507.273 820.499,504.737 822.146,502.167 
  823.693,499.564 825.135,496.924 826.468,494.245 827.685,491.527 828.782,488.767 829.753,485.964 830.599,483.117 831.325,480.229 831.935,477.3 832.435,474.334 
  832.831,471.331 833.127,468.293 833.328,465.223 833.441,462.122 833.47,458.992 833.42,455.835 833.298,452.652 833.107,449.446 832.853,446.218 832.541,442.97 
  832.177,439.703 831.766,436.421 831.314,433.124 830.824,429.814 830.303,426.493 829.756,423.164 829.188,419.827 828.604,416.484 828.01,413.138 827.41,409.79 
  
  "/>
<polyline clip-path="url(#clip932)" style="stroke:#000000; stroke-width:4.00136; stroke-opacity:1; fill:none" points="
  779.815,547.154 776.149,546.876 772.487,546.593 768.83,546.3 765.182,545.994 761.545,545.668 757.923,545.319 754.318,544.941 750.733,544.53 747.171,544.081 
  743.635,543.59 740.127,543.051 736.651,542.46 733.21,541.812 729.806,541.102 726.443,540.326 723.122,539.479 719.847,538.557 716.622,537.553 713.447,536.464 
  710.328,535.285 707.266,534.012 704.264,532.638 701.326,531.161 698.454,529.574 695.65,527.874 692.915,526.06 690.247,524.138 687.641,522.111 685.096,519.984 
  682.609,517.763 680.176,515.451 677.795,513.054 675.462,510.577 673.176,508.024 670.933,505.399 668.73,502.708 666.564,499.956 664.433,497.147 662.333,494.285 
  660.262,491.377 658.217,488.425 656.195,485.436 654.193,482.413 652.208,479.362 650.238,476.287 648.279,473.194 646.329,470.086 644.384,466.969 642.443,463.846 
  
  "/>
<polyline clip-path="url(#clip932)" style="stroke:#000000; stroke-width:4.00136; stroke-opacity:1; fill:none" points="
  779.815,547.154 782.889,547.283 785.96,547.408 789.025,547.524 792.082,547.624 795.128,547.706 798.16,547.764 801.175,547.793 804.171,547.789 807.144,547.746 
  810.092,547.66 813.012,547.526 815.902,547.34 818.758,547.096 821.577,546.79 824.357,546.417 827.096,545.972 829.789,545.451 832.436,544.848 835.031,544.159 
  837.574,543.379 840.061,542.504 842.489,541.528 844.855,540.446 847.158,539.255 849.393,537.949 851.561,536.528 853.665,534.997 855.708,533.36 857.691,531.623 
  859.619,529.791 861.494,527.867 863.318,525.858 865.095,523.767 866.827,521.599 868.518,519.36 870.169,517.053 871.783,514.684 873.364,512.258 874.915,509.779 
  876.437,507.253 877.935,504.683 879.409,502.075 880.865,499.434 882.303,496.763 883.728,494.069 885.141,491.356 886.546,488.628 887.946,485.891 889.342,483.149 
  
  "/>
<polyline clip-path="url(#clip932)" style="stroke:#000000; stroke-width:4.00136; stroke-opacity:1; fill:none" points="
  779.815,547.154 781.505,545.587 783.189,544.02 784.863,542.453 786.519,540.886 788.154,539.318 789.761,537.75 791.335,536.181 792.87,534.611 794.36,533.041 
  795.801,531.47 797.186,529.898 798.51,528.324 799.768,526.75 800.954,525.174 802.062,523.597 803.087,522.019 804.024,520.439 804.866,518.857 805.608,517.274 
  806.246,515.689 806.772,514.102 807.182,512.513 807.47,510.921 807.63,509.328 807.658,507.732 807.553,506.134 807.321,504.534 806.967,502.931 806.496,501.327 
  805.914,499.72 805.228,498.112 804.441,496.502 803.56,494.89 802.591,493.277 801.538,491.662 800.408,490.046 799.206,488.429 797.937,486.811 796.608,485.191 
  795.223,483.571 793.788,481.949 792.308,480.327 790.79,478.704 789.239,477.081 787.66,475.457 786.059,473.833 784.441,472.208 782.812,470.584 781.178,468.959 
  
  "/>
<polyline clip-path="url(#clip932)" style="stroke:#000000; stroke-width:4.00136; stroke-opacity:1; fill:none" points="
  779.815,547.154 777.032,548.43 774.25,549.7 771.47,550.959 768.692,552.202 765.918,553.423 763.147,554.616 760.381,555.776 757.621,556.898 754.867,557.977 
  752.12,559.005 749.382,559.979 746.652,560.893 743.931,561.741 741.221,562.517 738.522,563.217 735.836,563.834 733.161,564.364 730.501,564.8 727.855,565.138 
  725.224,565.371 722.608,565.495 720.01,565.503 717.429,565.391 714.867,565.152 712.323,564.782 709.799,564.281 707.293,563.653 704.805,562.905 702.333,562.042 
  699.878,561.068 697.437,559.991 695.011,558.815 692.598,557.545 690.199,556.188 687.811,554.749 685.434,553.232 683.068,551.645 680.711,549.991 678.363,548.278 
  676.023,546.509 673.69,544.691 671.364,542.829 669.043,540.929 666.727,538.995 664.414,537.035 662.106,535.052 659.799,533.053 657.494,531.043 655.19,529.028 
  
  "/>
<polyline clip-path="url(#clip932)" style="stroke:#000000; stroke-width:4.00136; stroke-opacity:1; fill:none" points="
  584.855,589.57 581.334,592.961 577.839,596.338 574.394,599.687 571.026,602.994 567.759,606.245 564.62,609.425 561.633,612.522 558.824,615.52 556.219,618.406 
  553.842,621.166 551.72,623.786 549.877,626.251 548.337,628.55 547.095,630.678 546.135,632.637 545.439,634.429 544.992,636.057 544.775,637.521 544.773,638.824 
  544.967,639.967 545.341,640.952 545.878,641.782 546.561,642.457 547.374,642.98 548.298,643.352 549.319,643.573 550.422,643.642 551.593,643.556 552.817,643.313 
  554.08,642.911 555.368,642.349 556.667,641.624 557.962,640.734 559.238,639.677 560.482,638.452 561.679,637.055 562.815,635.486 563.882,633.748 564.884,631.852 
  565.828,629.815 566.719,627.649 567.563,625.37 568.365,622.99 569.133,620.526 569.871,617.99 570.585,615.398 571.282,612.762 571.967,610.099 572.647,607.421 
  
  "/>
<polyline clip-path="url(#clip932)" style="stroke:#000000; stroke-width:4.00136; stroke-opacity:1; fill:none" points="
  577.154,597.024 578.298,599.452 579.444,601.875 580.595,604.289 581.754,606.687 582.922,609.066 584.103,611.42 585.298,613.744 586.511,616.033 587.744,618.283 
  588.999,620.488 590.279,622.643 591.586,624.744 592.922,626.785 594.291,628.762 595.694,630.67 597.135,632.503 598.615,634.256 600.137,635.925 601.703,637.505 
  603.317,638.991 604.979,640.377 606.694,641.659 608.464,642.832 610.29,643.891 612.175,644.831 614.12,645.652 616.121,646.359 618.177,646.957 620.285,647.451 
  622.442,647.846 624.646,648.146 626.895,648.357 629.186,648.483 631.516,648.53 633.884,648.503 636.286,648.406 638.72,648.245 641.184,648.024 643.675,647.749 
  646.191,647.424 648.729,647.055 651.286,646.645 653.861,646.201 656.451,645.727 659.054,645.229 661.666,644.71 664.286,644.177 666.91,643.634 669.537,643.086 
  
  "/>
<polyline clip-path="url(#clip932)" style="stroke:#000000; stroke-width:4.00136; stroke-opacity:1; fill:none" points="
  577.154,597.024 575.424,592.392 573.7,587.76 571.986,583.128 570.289,578.495 568.615,573.863 566.968,569.23 565.354,564.596 563.779,559.962 562.249,555.327 
  560.768,550.692 559.343,546.055 557.979,541.418 556.681,536.78 555.455,532.141 554.307,527.5 553.242,522.859 552.266,518.216 551.384,513.572 550.602,508.926 
  549.924,504.279 549.358,499.63 548.908,494.98 548.58,490.328 548.38,485.673 548.312,481.017 548.377,476.359 548.57,471.7 548.884,467.038 549.315,462.375 
  549.857,457.71 550.504,453.043 551.251,448.375 552.091,443.706 553.021,439.036 554.034,434.364 555.124,429.691 556.287,425.017 557.515,420.342 558.805,415.666 
  560.15,410.99 561.546,406.312 562.985,401.634 564.463,396.956 565.975,392.277 567.514,387.597 569.075,382.918 570.653,378.238 572.242,373.558 573.837,368.877 
  
  "/>
<polyline clip-path="url(#clip932)" style="stroke:#000000; stroke-width:4.00136; stroke-opacity:1; fill:none" points="
  577.154,597.024 579.839,596.89 582.52,596.752 585.193,596.605 587.856,596.447 590.504,596.271 593.134,596.074 595.742,595.853 598.325,595.602 600.878,595.318 
  603.399,594.996 605.883,594.632 608.328,594.222 610.728,593.763 613.082,593.248 615.384,592.676 617.632,592.04 619.821,591.338 621.949,590.565 624.011,589.716 
  626.004,588.788 627.924,587.776 629.767,586.677 631.531,585.486 633.211,584.198 634.803,582.81 636.309,581.322 637.73,579.739 639.072,578.063 640.337,576.299 
  641.529,574.452 642.652,572.525 643.71,570.523 644.705,568.45 645.643,566.31 646.526,564.107 647.357,561.846 648.142,559.531 648.883,557.165 649.584,554.753 
  650.248,552.3 650.88,549.809 651.482,547.284 652.059,544.731 652.614,542.152 653.151,539.552 653.674,536.935 654.185,534.306 654.689,531.669 655.19,529.028 
  
  "/>
<polyline clip-path="url(#clip932)" style="stroke:#000000; stroke-width:4.00136; stroke-opacity:1; fill:none" points="
  669.537,643.086 672.066,641.416 674.59,639.744 677.104,638.067 679.602,636.384 682.08,634.692 684.532,632.99 686.954,631.274 689.341,629.543 691.686,627.794 
  693.986,626.025 696.235,624.235 698.428,622.42 700.56,620.579 702.626,618.71 704.62,616.81 706.538,614.877 708.375,612.909 710.125,610.904 711.783,608.859 
  713.345,606.772 714.805,604.642 716.158,602.466 717.399,600.241 718.523,597.966 719.525,595.639 720.405,593.259 721.167,590.828 721.818,588.35 722.362,585.825 
  722.805,583.256 723.15,580.646 723.404,577.996 723.571,575.309 723.657,572.587 723.667,569.832 723.605,567.047 723.477,564.232 723.288,561.392 723.043,558.527 
  722.747,555.641 722.405,552.735 722.023,549.811 721.605,546.872 721.156,543.919 720.682,540.956 720.187,537.984 719.678,535.006 719.158,532.023 718.633,529.037 
  
  "/>
<polyline clip-path="url(#clip932)" style="stroke:#000000; stroke-width:4.00136; stroke-opacity:1; fill:none" points="
  669.537,643.086 671.93,639.378 674.317,635.669 676.693,631.958 679.053,628.244 681.391,624.526 683.702,620.803 685.98,617.074 688.22,613.337 690.416,609.592 
  692.564,605.838 694.657,602.074 696.69,598.298 698.657,594.51 700.554,590.709 702.375,586.893 704.114,583.062 705.766,579.214 707.325,575.349 708.786,571.465 
  710.144,567.561 711.393,563.637 712.527,559.692 713.542,555.724 714.431,551.732 715.19,547.715 715.819,543.674 716.322,539.609 716.705,535.522 716.974,531.412 
  717.134,527.283 717.191,523.133 717.15,518.965 717.016,514.78 716.795,510.578 716.492,506.361 716.113,502.129 715.663,497.884 715.148,493.627 714.572,489.358 
  713.943,485.079 713.264,480.791 712.542,476.494 711.782,472.19 710.989,467.88 710.169,463.565 709.327,459.246 708.468,454.924 707.599,450.599 706.725,446.274 
  
  "/>
<polyline clip-path="url(#clip932)" style="stroke:#000000; stroke-width:4.00136; stroke-opacity:1; fill:none" points="
  756.218,699.483 753.827,696.362 751.442,693.241 749.068,690.117 746.71,686.99 744.373,683.857 742.064,680.719 739.787,677.574 737.548,674.42 735.353,671.257 
  733.206,668.083 731.113,664.897 729.08,661.698 727.111,658.484 725.213,655.255 723.391,652.01 721.65,648.746 719.996,645.463 718.433,642.16 716.968,638.836 
  715.606,635.489 714.352,632.117 713.212,628.721 712.191,625.299 711.294,621.849 710.527,618.371 709.889,614.864 709.377,611.329 708.983,607.768 708.703,604.182 
  708.531,600.572 708.462,596.94 708.49,593.286 708.61,589.612 708.817,585.918 709.105,582.207 709.469,578.479 709.904,574.736 710.403,570.978 710.961,567.207 
  711.574,563.424 712.236,559.63 712.941,555.827 713.684,552.015 714.459,548.197 715.261,544.372 716.085,540.543 716.925,536.709 717.776,532.874 718.633,529.037 
  
  "/>
<polyline clip-path="url(#clip932)" style="stroke:#000000; stroke-width:4.00136; stroke-opacity:1; fill:none" points="
  585.041,462.602 587.027,465.447 589.016,468.287 591.009,471.117 593.011,473.932 595.021,476.727 597.045,479.498 599.083,482.238 601.138,484.944 603.213,487.61 
  605.31,490.232 607.432,492.804 609.581,495.321 611.76,497.778 613.971,500.172 616.216,502.495 618.499,504.744 620.82,506.914 623.184,508.999 625.592,510.995 
  628.047,512.897 630.552,514.699 633.108,516.398 635.719,517.986 638.386,519.461 641.112,520.817 643.898,522.054 646.74,523.177 649.636,524.19 652.585,525.099 
  655.582,525.909 658.627,526.625 661.716,527.251 664.847,527.793 668.017,528.256 671.225,528.644 674.467,528.962 677.741,529.216 681.044,529.411 684.375,529.55 
  687.73,529.641 691.108,529.686 694.506,529.692 697.92,529.663 701.35,529.604 704.792,529.521 708.243,529.417 711.702,529.299 715.166,529.171 718.633,529.037 
  
  "/>
<polyline clip-path="url(#clip932)" style="stroke:#000000; stroke-width:4.00136; stroke-opacity:1; fill:none" points="
  585.041,462.602 587.745,463.917 590.449,465.227 593.151,466.525 595.851,467.807 598.548,469.067 601.241,470.3 603.93,471.499 606.614,472.66 609.292,473.777 
  611.963,474.845 614.627,475.858 617.283,476.81 619.93,477.696 622.567,478.511 625.194,479.249 627.81,479.905 630.414,480.472 633.006,480.947 635.584,481.322 
  638.149,481.593 640.698,481.754 643.232,481.8 645.75,481.724 648.251,481.523 650.735,481.19 653.2,480.725 655.649,480.133 658.082,479.421 660.499,478.594 
  662.901,477.656 665.289,476.615 667.664,475.474 670.027,474.24 672.378,472.918 674.717,471.513 677.047,470.032 679.366,468.479 681.677,466.86 683.98,465.181 
  686.276,463.447 688.564,461.663 690.847,459.836 693.125,457.97 695.398,456.071 697.668,454.145 699.935,452.196 702.199,450.231 704.462,448.255 706.725,446.274 
  
  "/>
<polyline clip-path="url(#clip932)" style="stroke:#000000; stroke-width:4.00136; stroke-opacity:1; fill:none" points="
  827.41,409.79 826.419,413.345 825.423,416.895 824.419,420.439 823.402,423.971 822.369,427.488 821.316,430.986 820.238,434.462 819.132,437.912 817.993,441.332 
  816.816,444.718 815.599,448.067 814.337,451.375 813.026,454.638 811.662,457.852 810.24,461.014 808.757,464.121 807.208,467.167 805.59,470.15 803.898,473.065 
  802.128,475.91 800.276,478.679 798.339,481.371 796.311,483.98 794.189,486.503 791.969,488.936 789.651,491.28 787.239,493.539 784.737,495.715 782.149,497.812 
  779.478,499.835 776.73,501.787 773.909,503.671 771.018,505.492 768.061,507.253 765.043,508.958 761.967,510.611 758.838,512.215 755.661,513.775 752.438,515.293 
  749.174,516.774 745.873,518.221 742.54,519.639 739.178,521.03 735.791,522.399 732.384,523.749 728.961,525.084 725.525,526.408 722.081,527.725 718.633,529.037 
  
  "/>
<polyline clip-path="url(#clip932)" style="stroke:#000000; stroke-width:4.00136; stroke-opacity:1; fill:none" points="
  827.41,409.79 825.691,406.066 823.977,402.342 822.274,398.618 820.588,394.894 818.924,391.17 817.288,387.444 815.685,383.719 814.121,379.993 812.601,376.266 
  811.131,372.538 809.716,368.81 808.362,365.081 807.075,361.35 805.86,357.619 804.722,353.886 803.668,350.152 802.702,346.417 801.831,342.68 801.059,338.942 
  800.392,335.202 799.837,331.461 799.398,327.717 799.08,323.972 798.89,320.225 798.833,316.476 798.909,312.725 799.112,308.972 799.437,305.217 799.878,301.46 
  800.431,297.702 801.088,293.942 801.845,290.18 802.697,286.417 803.637,282.653 804.66,278.887 805.761,275.12 806.934,271.352 808.174,267.584 809.474,263.814 
  810.83,260.043 812.235,256.272 813.685,252.5 815.174,248.727 816.696,244.954 818.246,241.18 819.818,237.406 821.406,233.632 823.006,229.857 824.611,226.083 
  
  "/>
<polyline clip-path="url(#clip932)" style="stroke:#000000; stroke-width:4.00136; stroke-opacity:1; fill:none" points="
  827.41,409.79 825.428,412.126 823.445,414.458 821.458,416.778 819.466,419.083 817.468,421.366 815.462,423.623 813.447,425.848 811.42,428.035 809.38,430.181 
  807.326,432.278 805.256,434.323 803.168,436.309 801.061,438.231 798.933,440.085 796.782,441.864 794.608,443.563 792.408,445.178 790.181,446.703 787.924,448.131 
  785.638,449.46 783.319,450.681 780.967,451.792 778.579,452.786 776.154,453.657 773.691,454.402 771.19,455.019 768.652,455.515 766.078,455.893 763.471,456.161 
  760.832,456.322 758.162,456.382 755.463,456.347 752.737,456.221 749.986,456.011 747.21,455.721 744.412,455.356 741.593,454.923 738.755,454.426 735.899,453.871 
  733.028,453.262 730.141,452.606 727.242,451.907 724.332,451.172 721.412,450.404 718.484,449.61 715.55,448.794 712.611,447.963 709.669,447.121 706.725,446.274 
  
  "/>
<polyline clip-path="url(#clip932)" style="stroke:#000000; stroke-width:4.00136; stroke-opacity:1; fill:none" points="
  718.633,529.037 715.997,528.971 713.365,528.9 710.74,528.82 708.126,528.728 705.527,528.619 702.945,528.489 700.385,528.334 697.851,528.149 695.345,527.931 
  692.871,527.674 690.434,527.376 688.036,527.031 685.682,526.636 683.374,526.186 681.117,525.677 678.913,525.104 676.768,524.465 674.683,523.753 672.664,522.966 
  670.713,522.099 668.834,521.147 667.031,520.107 665.306,518.975 663.665,517.745 662.11,516.415 660.642,514.984 659.256,513.455 657.95,511.834 656.719,510.125 
  655.56,508.331 654.47,506.458 653.444,504.508 652.48,502.487 651.574,500.398 650.721,498.247 649.919,496.036 649.164,493.77 648.452,491.454 647.779,489.092 
  647.143,486.688 646.539,484.245 645.964,481.769 645.414,479.263 644.886,476.733 644.376,474.181 643.88,471.612 643.395,469.03 642.917,466.44 642.443,463.846 
  
  "/>
<polyline clip-path="url(#clip932)" style="stroke:#000000; stroke-width:4.00136; stroke-opacity:1; fill:none" points="
  718.633,529.037 716.864,525.691 715.101,522.345 713.349,518.999 711.613,515.652 709.9,512.304 708.214,508.956 706.562,505.606 704.948,502.255 703.379,498.903 
  701.859,495.549 700.395,492.194 698.992,488.836 697.655,485.477 696.39,482.115 695.203,478.751 694.099,475.384 693.084,472.014 692.163,468.641 691.341,465.266 
  690.625,461.887 690.02,458.504 689.53,455.118 689.163,451.728 688.923,448.333 688.816,444.935 688.842,441.533 688.995,438.126 689.27,434.716 689.661,431.302 
  690.163,427.884 690.77,424.463 691.477,421.039 692.278,417.612 693.168,414.183 694.141,410.75 695.192,407.315 696.314,403.878 697.503,400.439 698.753,396.998 
  700.058,393.555 701.413,390.111 702.813,386.665 704.251,383.218 705.722,379.77 707.222,376.321 708.743,372.871 710.281,369.421 711.83,365.97 713.384,362.52 
  
  "/>
<polyline clip-path="url(#clip932)" style="stroke:#000000; stroke-width:4.00136; stroke-opacity:1; fill:none" points="
  718.633,529.037 717.338,530.7 716.043,532.357 714.748,534.003 713.453,535.633 712.158,537.24 710.863,538.82 709.568,540.366 708.273,541.873 706.978,543.337 
  705.683,544.75 704.388,546.108 703.093,547.404 701.798,548.635 700.503,549.793 699.208,550.873 697.913,551.871 696.618,552.78 695.323,553.594 694.029,554.309 
  692.734,554.918 691.439,555.417 690.144,555.799 688.849,556.059 687.555,556.192 686.26,556.191 684.965,556.058 683.67,555.798 682.376,555.415 681.081,554.917 
  679.786,554.307 678.492,553.592 677.197,552.777 675.902,551.868 674.608,550.87 673.313,549.789 672.019,548.63 670.724,547.399 669.43,546.102 668.135,544.744 
  666.841,543.33 665.546,541.867 664.251,540.359 662.957,538.812 661.662,537.232 660.368,535.625 659.073,533.995 657.779,532.348 656.484,530.691 655.19,529.028 
  
  "/>
<polyline clip-path="url(#clip932)" style="stroke:#000000; stroke-width:4.00136; stroke-opacity:1; fill:none" points="
  659.641,451.763 654.87,455.393 650.131,459.008 645.46,462.589 640.889,466.121 636.452,469.586 632.182,472.969 628.112,476.252 624.277,479.42 620.709,482.456 
  617.441,485.343 614.508,488.064 611.943,490.603 609.775,492.946 607.999,495.091 606.591,497.043 605.53,498.808 604.791,500.393 604.352,501.802 604.189,503.042 
  604.279,504.119 604.599,505.038 605.125,505.804 605.836,506.425 606.706,506.906 607.714,507.251 608.838,507.466 610.058,507.553 611.353,507.515 612.704,507.353 
  614.091,507.07 615.494,506.67 616.892,506.153 618.267,505.522 619.597,504.781 620.864,503.931 622.046,502.975 623.125,501.915 624.089,500.756 624.946,499.505 
  625.707,498.17 626.38,496.761 626.975,495.286 627.502,493.752 627.971,492.168 628.391,490.542 628.773,488.884 629.125,487.2 629.459,485.5 629.782,483.791 
  
  "/>
<polyline clip-path="url(#clip932)" style="stroke:#000000; stroke-width:4.00136; stroke-opacity:1; fill:none" points="
  642.443,463.846 640.47,466.828 638.494,469.806 636.514,472.773 634.525,475.726 632.525,478.66 630.512,481.569 628.483,484.449 626.436,487.295 624.367,490.102 
  622.274,492.866 620.154,495.58 618.005,498.242 615.824,500.845 613.608,503.385 611.355,505.857 609.061,508.256 606.726,510.577 604.344,512.816 601.915,514.967 
  599.435,517.026 596.901,518.988 594.312,520.848 591.663,522.601 588.954,524.242 586.18,525.767 583.343,527.175 580.444,528.472 577.486,529.662 574.472,530.749 
  571.405,531.74 568.287,532.638 565.121,533.449 561.91,534.177 558.656,534.828 555.362,535.405 552.03,535.915 548.664,536.361 545.266,536.749 541.838,537.084 
  538.384,537.37 534.906,537.612 531.406,537.816 527.888,537.985 524.354,538.126 520.806,538.242 517.248,538.338 513.681,538.42 510.11,538.493 506.535,538.56 
  
  "/>
<polyline clip-path="url(#clip932)" style="stroke:#000000; stroke-width:4.00136; stroke-opacity:1; fill:none" points="
  642.443,463.846 645.252,462.732 648.057,461.615 650.853,460.492 653.636,459.359 656.4,458.213 659.141,457.051 661.856,455.87 664.538,454.667 667.184,453.439 
  669.789,452.182 672.349,450.893 674.859,449.569 677.315,448.207 679.711,446.803 682.044,445.355 684.309,443.86 686.501,442.313 688.616,440.713 690.649,439.055 
  692.596,437.337 694.452,435.555 696.213,433.706 697.874,431.788 699.431,429.796 700.878,427.728 702.217,425.584 703.452,423.367 704.587,421.08 705.626,418.726 
  706.575,416.308 707.437,413.83 708.218,411.295 708.921,408.706 709.552,406.065 710.115,403.378 710.614,400.645 711.054,397.871 711.439,395.06 711.775,392.213 
  712.065,389.334 712.315,386.427 712.528,383.494 712.709,380.539 712.863,377.565 712.995,374.575 713.108,371.572 713.208,368.56 713.298,365.541 713.384,362.52 
  
  "/>
<polyline clip-path="url(#clip932)" style="stroke:#000000; stroke-width:4.00136; stroke-opacity:1; fill:none" points="
  642.443,463.846 641.071,465.496 639.705,467.144 638.35,468.791 637.012,470.434 635.695,472.072 634.405,473.706 633.147,475.333 631.928,476.953 630.753,478.564 
  629.626,480.165 628.554,481.756 627.541,483.336 626.594,484.902 625.718,486.455 624.917,487.992 624.199,489.514 623.567,491.019 623.028,492.505 622.587,493.973 
  622.249,495.42 622.019,496.846 621.905,498.25 621.909,499.63 622.039,500.986 622.299,502.316 622.69,503.621 623.205,504.901 623.84,506.158 624.59,507.392 
  625.448,508.605 626.41,509.798 627.469,510.972 628.621,512.128 629.86,513.267 631.181,514.389 632.578,515.497 634.045,516.591 635.578,517.673 637.17,518.742 
  638.817,519.801 640.513,520.85 642.253,521.891 644.03,522.924 645.84,523.951 647.677,524.973 649.537,525.99 651.412,527.005 653.298,528.017 655.19,529.028 
  
  "/>
<polyline clip-path="url(#clip932)" style="stroke:#000000; stroke-width:4.00136; stroke-opacity:1; fill:none" points="
  515.201,532.294 511.214,535.181 507.254,538.057 503.348,540.912 499.525,543.735 495.811,546.517 492.233,549.246 488.82,551.912 485.597,554.504 482.593,557.012 
  479.835,559.426 477.351,561.734 475.166,563.927 473.307,565.994 471.769,567.933 470.536,569.742 469.59,571.421 468.914,572.97 468.491,574.388 468.303,575.675 
  468.335,576.831 468.567,577.856 468.984,578.748 469.567,579.508 470.301,580.134 471.167,580.628 472.149,580.986 473.235,581.206 474.409,581.282 475.658,581.212 
  476.968,580.991 478.324,580.616 479.712,580.084 481.12,579.389 482.531,578.529 483.933,577.5 485.312,576.298 486.652,574.919 487.947,573.365 489.198,571.65 
  490.41,569.788 491.587,567.795 492.732,565.684 493.849,563.47 494.943,561.169 496.017,558.794 497.075,556.36 498.122,553.883 499.16,551.376 500.195,548.854 
  
  "/>
<polyline clip-path="url(#clip932)" style="stroke:#000000; stroke-width:4.00136; stroke-opacity:1; fill:none" points="
  555.825,357.719 552.489,355.897 549.167,354.091 545.871,352.315 542.615,350.585 539.412,348.915 536.276,347.32 533.22,345.817 530.257,344.419 527.4,343.142 
  524.663,342.001 522.059,341.011 519.601,340.187 517.303,339.543 515.167,339.077 513.196,338.778 511.389,338.638 509.748,338.645 508.273,338.79 506.964,339.064 
  505.822,339.456 504.848,339.957 504.042,340.555 503.405,341.243 502.938,342.009 502.641,342.844 502.517,343.739 502.571,344.685 502.808,345.674 503.233,346.698 
  503.85,347.749 504.665,348.818 505.683,349.897 506.908,350.978 508.346,352.052 510.001,353.111 511.879,354.148 513.985,355.153 516.314,356.122 518.852,357.057 
  521.578,357.961 524.474,358.838 527.521,359.691 530.7,360.522 533.992,361.334 537.379,362.131 540.841,362.916 544.359,363.692 547.915,364.461 551.491,365.228 
  
  "/>
<polyline clip-path="url(#clip932)" style="stroke:#000000; stroke-width:4.00136; stroke-opacity:1; fill:none" points="
  573.837,368.877 577.367,366.891 580.892,364.9 584.409,362.904 587.912,360.897 591.397,358.878 594.86,356.841 598.296,354.785 601.701,352.707 605.071,350.601 
  608.4,348.466 611.684,346.299 614.92,344.095 618.102,341.851 621.226,339.565 624.287,337.233 627.282,334.851 630.205,332.417 633.052,329.927 635.819,327.378 
  638.502,324.766 641.095,322.088 643.594,319.341 645.995,316.522 648.294,313.627 650.486,310.654 652.571,307.601 654.553,304.473 656.437,301.273 658.228,298.003 
  659.929,294.668 661.545,291.27 663.081,287.813 664.542,284.3 665.931,280.734 667.253,277.119 668.512,273.458 669.714,269.754 670.862,266.011 671.961,262.232 
  673.015,258.419 674.03,254.577 675.008,250.709 675.955,246.818 676.876,242.907 677.774,238.979 678.655,235.039 679.522,231.088 680.38,227.131 681.233,223.171 
  
  "/>
<polyline clip-path="url(#clip932)" style="stroke:#000000; stroke-width:4.00136; stroke-opacity:1; fill:none" points="
  573.837,368.877 574.148,372.174 574.454,375.468 574.75,378.758 575.03,382.04 575.291,385.314 575.526,388.575 575.731,391.823 575.901,395.055 576.031,398.268 
  576.115,401.46 576.149,404.629 576.128,407.772 576.046,410.887 575.899,413.973 575.682,417.025 575.389,420.043 575.015,423.024 574.556,425.966 574.006,428.865 
  573.361,431.721 572.615,434.53 571.763,437.29 570.8,439.999 569.722,442.655 568.523,445.255 567.204,447.799 565.769,450.291 564.223,452.731 562.571,455.122 
  560.819,457.467 558.971,459.768 557.033,462.026 555.009,464.246 552.904,466.428 550.724,468.576 548.474,470.691 546.158,472.776 543.781,474.833 541.35,476.864 
  538.868,478.872 536.34,480.86 533.773,482.828 531.17,484.781 528.537,486.72 525.879,488.646 523.201,490.564 520.507,492.475 517.804,494.381 515.095,496.285 
  
  "/>
<polyline clip-path="url(#clip932)" style="stroke:#000000; stroke-width:4.00136; stroke-opacity:1; fill:none" points="
  573.837,368.877 576.114,369.646 578.389,370.41 580.66,371.164 582.923,371.902 585.177,372.621 587.419,373.315 589.647,373.978 591.858,374.606 594.051,375.194 
  596.222,375.737 598.37,376.23 600.492,376.667 602.586,377.045 604.65,377.357 606.68,377.598 608.675,377.765 610.633,377.851 612.55,377.852 614.425,377.762 
  616.256,377.577 618.039,377.292 619.773,376.901 621.455,376.4 623.083,375.783 624.655,375.046 626.17,374.189 627.632,373.217 629.041,372.134 630.401,370.945 
  631.715,369.656 632.983,368.272 634.209,366.797 635.395,365.237 636.544,363.597 637.657,361.882 638.737,360.096 639.787,358.245 640.808,356.333 641.804,354.367 
  642.776,352.35 643.727,350.288 644.659,348.186 645.574,346.049 646.476,343.882 647.365,341.689 648.246,339.477 649.119,337.249 649.987,335.012 650.854,332.769 
  
  "/>
<polyline clip-path="url(#clip932)" style="stroke:#000000; stroke-width:4.00136; stroke-opacity:1; fill:none" points="
  681.233,223.171 684.126,224.893 687.018,226.609 689.911,228.314 692.804,230.003 695.697,231.67 698.591,233.309 701.486,234.914 704.381,236.481 707.278,238.003 
  710.175,239.476 713.074,240.893 715.973,242.249 718.874,243.539 721.777,244.757 724.681,245.897 727.587,246.954 730.495,247.922 733.404,248.796 736.316,249.57 
  739.229,250.239 742.145,250.797 745.064,251.239 747.985,251.558 750.908,251.751 753.834,251.81 756.763,251.737 759.694,251.536 762.628,251.213 765.564,250.774 
  768.503,250.224 771.443,249.568 774.386,248.813 777.33,247.964 780.277,247.026 783.225,246.005 786.174,244.906 789.125,243.735 792.078,242.498 795.031,241.2 
  797.986,239.846 800.942,238.442 803.899,236.994 806.856,235.508 809.814,233.988 812.773,232.44 815.732,230.87 818.692,229.284 821.651,227.686 824.611,226.083 
  
  "/>
<polyline clip-path="url(#clip932)" style="stroke:#000000; stroke-width:4.00136; stroke-opacity:1; fill:none" points="
  681.233,223.171 680.269,226.388 679.311,229.605 678.364,232.819 677.432,236.029 676.522,239.235 675.64,242.434 674.789,245.625 673.977,248.808 673.207,251.981 
  672.487,255.143 671.82,258.292 671.213,261.428 670.67,264.548 670.198,267.652 669.801,270.739 669.485,273.808 669.256,276.856 669.118,279.883 669.078,282.888 
  669.14,285.868 669.311,288.824 669.595,291.754 669.997,294.657 670.524,297.53 671.18,300.374 671.966,303.188 672.875,305.974 673.904,308.731 675.046,311.463 
  676.296,314.17 677.648,316.853 679.098,319.514 680.64,322.153 682.268,324.773 683.977,327.373 685.761,329.957 687.616,332.524 689.536,335.076 691.515,337.615 
  693.548,340.141 695.63,342.655 697.754,345.16 699.917,347.656 702.112,350.145 704.334,352.627 706.578,355.105 708.838,357.578 711.108,360.05 713.384,362.52 
  
  "/>
<polyline clip-path="url(#clip932)" style="stroke:#000000; stroke-width:4.00136; stroke-opacity:1; fill:none" points="
  880.735,477.266 884.732,480.022 888.711,482.755 892.652,485.445 896.537,488.068 900.348,490.604 904.066,493.03 907.673,495.323 911.149,497.463 914.477,499.427 
  917.638,501.193 920.612,502.739 923.382,504.043 925.931,505.085 928.255,505.871 930.361,506.415 932.252,506.735 933.934,506.845 935.412,506.763 936.69,506.505 
  937.774,506.086 938.668,505.523 939.377,504.832 939.907,504.029 940.262,503.13 940.447,502.152 940.465,501.11 940.316,500.018 940.001,498.89 939.522,497.741 
  938.878,496.585 938.07,495.436 937.099,494.31 935.965,493.22 934.669,492.18 933.213,491.205 931.596,490.309 929.819,489.507 927.886,488.805 925.811,488.197 
  923.606,487.674 921.283,487.228 918.856,486.849 916.339,486.531 913.743,486.264 911.082,486.039 908.369,485.848 905.617,485.683 902.839,485.534 900.049,485.395 
  
  "/>
<polyline clip-path="url(#clip932)" style="stroke:#000000; stroke-width:4.00136; stroke-opacity:1; fill:none" points="
  781.178,468.959 779.322,471.686 777.464,474.408 775.601,477.12 773.731,479.817 771.851,482.494 769.959,485.146 768.053,487.768 766.131,490.354 764.189,492.901 
  762.226,495.403 760.239,497.855 758.226,500.252 756.184,502.588 754.111,504.86 752.005,507.061 749.863,509.188 747.683,511.234 745.462,513.196 743.198,515.067 
  740.889,516.843 738.533,518.519 736.126,520.09 733.667,521.551 731.153,522.897 728.581,524.123 725.953,525.229 723.27,526.219 720.534,527.1 717.749,527.876 
  714.915,528.552 712.036,529.132 709.115,529.623 706.153,530.028 703.152,530.353 700.116,530.604 697.047,530.784 693.946,530.899 690.817,530.954 687.662,530.954 
  684.482,530.904 681.282,530.809 678.062,530.674 674.826,530.504 671.575,530.304 668.312,530.078 665.04,529.833 661.761,529.573 658.476,529.303 655.19,529.028 
  
  "/>
<polyline clip-path="url(#clip932)" style="stroke:#000000; stroke-width:4.00136; stroke-opacity:1; fill:none" points="
  781.178,468.959 779.174,470.087 777.172,471.209 775.173,472.321 773.178,473.417 771.191,474.492 769.211,475.54 767.241,476.556 765.282,477.536 763.337,478.473 
  761.405,479.362 759.49,480.198 757.593,480.976 755.715,481.69 753.858,482.335 752.024,482.906 750.214,483.397 748.43,483.804 746.673,484.12 744.945,484.341 
  743.248,484.461 741.583,484.476 739.952,484.378 738.357,484.164 736.799,483.828 735.28,483.365 733.799,482.775 732.355,482.063 730.947,481.235 729.573,480.295 
  728.231,479.249 726.92,478.102 725.638,476.86 724.383,475.527 723.154,474.11 721.95,472.613 720.768,471.042 719.607,469.402 718.465,467.698 717.341,465.936 
  716.234,464.121 715.14,462.258 714.06,460.353 712.991,458.411 711.932,456.436 710.881,454.436 709.836,452.414 708.796,450.376 707.76,448.328 706.725,446.274 
  
  "/>
<polyline clip-path="url(#clip932)" style="stroke:#000000; stroke-width:4.00136; stroke-opacity:1; fill:none" points="
  515.095,496.285 517.576,498.572 520.058,500.854 522.543,503.126 525.031,505.381 527.524,507.614 530.024,509.821 532.531,511.995 535.048,514.131 537.574,516.225 
  540.111,518.269 542.661,520.26 545.225,522.191 547.805,524.057 550.4,525.854 553.013,527.574 555.646,529.214 558.298,530.767 560.972,532.229 563.668,533.593 
  566.389,534.855 569.134,536.009 571.906,537.049 574.706,537.971 577.535,538.769 580.394,539.437 583.283,539.976 586.202,540.391 589.148,540.687 592.12,540.869 
  595.118,540.944 598.14,540.916 601.184,540.791 604.25,540.574 607.336,540.271 610.441,539.886 613.563,539.426 616.702,538.896 619.857,538.302 623.025,537.648 
  626.205,536.939 629.397,536.183 632.599,535.383 635.81,534.545 639.028,533.675 642.253,532.778 645.483,531.859 648.717,530.924 651.953,529.979 655.19,529.028 
  
  "/>
<polyline clip-path="url(#clip932)" style="stroke:#000000; stroke-width:4.00136; stroke-opacity:1; fill:none" points="
  650.854,332.769 649.28,336.811 647.712,340.853 646.155,344.895 644.615,348.936 643.097,352.977 641.606,357.017 640.149,361.056 638.73,365.095 637.356,369.132 
  636.032,373.169 634.763,377.204 633.555,381.238 632.414,385.271 631.345,389.302 630.353,393.331 629.444,397.358 628.624,401.383 627.898,405.407 627.272,409.428 
  626.751,413.446 626.341,417.463 626.048,421.476 625.876,425.488 625.832,429.496 625.92,433.501 626.142,437.503 626.49,441.503 626.961,445.5 627.548,449.494 
  628.246,453.486 629.049,457.475 629.952,461.463 630.949,465.448 632.034,469.431 633.203,473.412 634.449,477.392 635.768,481.37 637.153,485.347 638.598,489.322 
  640.1,493.296 641.651,497.269 643.246,501.241 644.88,505.212 646.548,509.182 648.243,513.152 649.96,517.121 651.694,521.09 653.439,525.059 655.19,529.028 
  
  "/>
<polyline clip-path="url(#clip932)" style="stroke:#000000; stroke-width:4.00136; stroke-opacity:1; fill:none" points="
  650.854,332.769 650.502,335.82 650.156,338.868 649.82,341.912 649.498,344.948 649.197,347.975 648.92,350.989 648.673,353.989 648.461,356.971 648.289,359.934 
  648.161,362.875 648.083,365.791 648.06,368.68 648.097,371.54 648.198,374.368 648.369,377.162 648.614,379.919 648.939,382.637 649.349,385.314 649.848,387.946 
  650.441,390.531 651.134,393.068 651.931,395.553 652.838,397.985 653.859,400.36 654.999,402.676 656.259,404.934 657.633,407.136 659.116,409.283 660.703,411.379 
  662.39,413.426 664.172,415.427 666.043,417.384 667.998,419.299 670.033,421.174 672.143,423.013 674.322,424.818 676.566,426.591 678.869,428.334 681.228,430.051 
  683.636,431.743 686.088,433.413 688.581,435.064 691.108,436.697 693.665,438.316 696.247,439.922 698.849,441.519 701.466,443.108 704.093,444.692 706.725,446.274 
  
  "/>
<polyline clip-path="url(#clip932)" style="stroke:#000000; stroke-width:4.00136; stroke-opacity:1; fill:none" points="
  446.764,245.548 444.285,242.74 441.814,239.951 439.357,237.2 436.919,234.508 434.51,231.892 432.134,229.373 429.799,226.969 427.512,224.7 425.279,222.585 
  423.108,220.643 421.006,218.893 418.978,217.355 417.032,216.047 415.174,214.966 413.407,214.102 411.739,213.447 410.173,212.988 408.715,212.715 407.37,212.619 
  406.143,212.689 405.038,212.915 404.062,213.285 403.219,213.79 402.514,214.42 401.952,215.164 401.541,216.014 401.288,216.961 401.204,217.997 401.296,219.117 
  401.574,220.311 402.046,221.572 402.721,222.893 403.607,224.266 404.714,225.684 406.051,227.138 407.626,228.622 409.448,230.128 411.516,231.65 413.812,233.186 
  416.314,234.736 419.003,236.297 421.858,237.869 424.858,239.45 427.982,241.039 431.209,242.634 434.519,244.235 437.891,245.839 441.305,247.446 444.739,249.055 
  
  "/>
<path clip-path="url(#clip932)" d="
M421.071 437.333 L415.21 427.178 L403.487 427.178 L397.625 437.333 L403.487 447.487 L415.21 447.487 L421.071 437.333 L421.071 437.333  Z
  " fill="#009af9" fill-rule="evenodd" fill-opacity="1"/>
<polyline clip-path="url(#clip932)" style="stroke:#000000; stroke-width:4.00136; stroke-opacity:1; fill:none" points="
  421.071,437.333 415.21,427.178 403.487,427.178 397.625,437.333 403.487,447.487 415.21,447.487 421.071,437.333 
  "/>
<path clip-path="url(#clip932)" d="
M854.913 676.939 L849.191 667.026 L837.748 667.026 L832.027 676.939 L837.748 686.851 L849.191 686.851 L854.913 676.939 L854.913 676.939  Z
  " fill="#009af9" fill-rule="evenodd" fill-opacity="1"/>
<polyline clip-path="url(#clip932)" style="stroke:#000000; stroke-width:4.00136; stroke-opacity:1; fill:none" points="
  854.913,676.939 849.191,667.026 837.748,667.026 832.027,676.939 837.748,686.851 849.191,686.851 854.913,676.939 
  "/>
<path clip-path="url(#clip932)" d="
M633.508 155.964 L627.716 145.93 L616.133 145.93 L610.342 155.964 L616.133 165.998 L627.716 165.998 L633.508 155.964 L633.508 155.964  Z
  " fill="#009af9" fill-rule="evenodd" fill-opacity="1"/>
<polyline clip-path="url(#clip932)" style="stroke:#000000; stroke-width:4.00136; stroke-opacity:1; fill:none" points="
  633.508,155.964 627.716,145.93 616.133,145.93 610.342,155.964 616.133,165.998 627.716,165.998 633.508,155.964 
  "/>
<path clip-path="url(#clip932)" d="
M578.33 302.505 L572.469 292.35 L560.746 292.35 L554.885 302.505 L560.746 312.66 L572.469 312.66 L578.33 302.505 L578.33 302.505  Z
  " fill="#009af9" fill-rule="evenodd" fill-opacity="1"/>
<polyline clip-path="url(#clip932)" style="stroke:#000000; stroke-width:4.00136; stroke-opacity:1; fill:none" points="
  578.33,302.505 572.469,292.35 560.746,292.35 554.885,302.505 560.746,312.66 572.469,312.66 578.33,302.505 
  "/>
<path clip-path="url(#clip932)" d="
M530.571 372.21 L518.694 351.634 L494.94 351.634 L483.064 372.21 L494.94 392.786 L518.694 392.786 L530.571 372.21 L530.571 372.21  Z
  " fill="#009af9" fill-rule="evenodd" fill-opacity="1"/>
<polyline clip-path="url(#clip932)" style="stroke:#000000; stroke-width:4.00136; stroke-opacity:1; fill:none" points="
  530.571,372.21 518.694,351.634 494.94,351.634 483.064,372.21 494.94,392.786 518.694,392.786 530.571,372.21 
  "/>
<path clip-path="url(#clip932)" d="
M814.713 324.078 L808.921 314.045 L797.338 314.045 L791.547 324.078 L797.338 334.112 L808.921 334.112 L814.713 324.078 L814.713 324.078  Z
  " fill="#009af9" fill-rule="evenodd" fill-opacity="1"/>
<polyline clip-path="url(#clip932)" style="stroke:#000000; stroke-width:4.00136; stroke-opacity:1; fill:none" points="
  814.713,324.078 808.921,314.045 797.338,314.045 791.547,324.078 797.338,334.112 808.921,334.112 814.713,324.078 
  "/>
<path clip-path="url(#clip932)" d="
M770.533 290.577 L764.392 279.938 L752.109 279.938 L745.968 290.577 L752.109 301.217 L764.392 301.217 L770.533 290.577 L770.533 290.577  Z
  " fill="#009af9" fill-rule="evenodd" fill-opacity="1"/>
<polyline clip-path="url(#clip932)" style="stroke:#000000; stroke-width:4.00136; stroke-opacity:1; fill:none" points="
  770.533,290.577 764.392,279.938 752.109,279.938 745.968,290.577 752.109,301.217 764.392,301.217 770.533,290.577 
  "/>
<path clip-path="url(#clip932)" d="
M964.174 385.023 L958.453 375.11 L947.01 375.11 L941.288 385.023 L947.01 394.935 L958.453 394.935 L964.174 385.023 L964.174 385.023  Z
  " fill="#009af9" fill-rule="evenodd" fill-opacity="1"/>
<polyline clip-path="url(#clip932)" style="stroke:#000000; stroke-width:4.00136; stroke-opacity:1; fill:none" points="
  964.174,385.023 958.453,375.11 947.01,375.11 941.288,385.023 947.01,394.935 958.453,394.935 964.174,385.023 
  "/>
<path clip-path="url(#clip932)" d="
M803.988 547.154 L791.901 526.214 L767.728 526.214 L755.642 547.154 L767.728 568.094 L791.901 568.094 L803.988 547.154 L803.988 547.154  Z
  " fill="#009af9" fill-rule="evenodd" fill-opacity="1"/>
<polyline clip-path="url(#clip932)" style="stroke:#000000; stroke-width:4.00136; stroke-opacity:1; fill:none" points="
  803.988,547.154 791.901,526.214 767.728,526.214 755.642,547.154 767.728,568.094 791.901,568.094 803.988,547.154 
  "/>
<path clip-path="url(#clip932)" d="
M589.157 597.024 L583.155 586.626 L571.153 586.626 L565.151 597.024 L571.153 607.421 L583.155 607.421 L589.157 597.024 L589.157 597.024  Z
  " fill="#009af9" fill-rule="evenodd" fill-opacity="1"/>
<polyline clip-path="url(#clip932)" style="stroke:#000000; stroke-width:4.00136; stroke-opacity:1; fill:none" points="
  589.157,597.024 583.155,586.626 571.153,586.626 565.151,597.024 571.153,607.421 583.155,607.421 589.157,597.024 
  "/>
<path clip-path="url(#clip932)" d="
M681.12 643.086 L675.329 633.052 L663.746 633.052 L657.954 643.086 L663.746 653.119 L675.329 653.119 L681.12 643.086 L681.12 643.086  Z
  " fill="#009af9" fill-rule="evenodd" fill-opacity="1"/>
<polyline clip-path="url(#clip932)" style="stroke:#000000; stroke-width:4.00136; stroke-opacity:1; fill:none" points="
  681.12,643.086 675.329,633.052 663.746,633.052 657.954,643.086 663.746,653.119 675.329,653.119 681.12,643.086 
  "/>
<path clip-path="url(#clip932)" d="
M767.661 699.483 L761.939 689.57 L750.496 689.57 L744.775 699.483 L750.496 709.395 L761.939 709.395 L767.661 699.483 L767.661 699.483  Z
  " fill="#009af9" fill-rule="evenodd" fill-opacity="1"/>
<polyline clip-path="url(#clip932)" style="stroke:#000000; stroke-width:4.00136; stroke-opacity:1; fill:none" points="
  767.661,699.483 761.939,689.57 750.496,689.57 744.775,699.483 750.496,709.395 761.939,709.395 767.661,699.483 
  "/>
<path clip-path="url(#clip932)" d="
M596.764 462.602 L590.902 452.448 L579.179 452.448 L573.318 462.602 L579.179 472.757 L590.902 472.757 L596.764 462.602 L596.764 462.602  Z
  " fill="#009af9" fill-rule="evenodd" fill-opacity="1"/>
<polyline clip-path="url(#clip932)" style="stroke:#000000; stroke-width:4.00136; stroke-opacity:1; fill:none" points="
  596.764,462.602 590.902,452.448 579.179,452.448 573.318,462.602 579.179,472.757 590.902,472.757 596.764,462.602 596.764,462.602 
  "/>
<path clip-path="url(#clip932)" d="
M851.723 409.79 L839.567 388.729 L815.254 388.729 L803.097 409.79 L815.254 430.851 L839.567 430.851 L851.723 409.79 L851.723 409.79  Z
  " fill="#009af9" fill-rule="evenodd" fill-opacity="1"/>
<polyline clip-path="url(#clip932)" style="stroke:#000000; stroke-width:4.00136; stroke-opacity:1; fill:none" points="
  851.723,409.79 839.567,388.729 815.254,388.729 803.097,409.79 815.254,430.851 839.567,430.851 851.723,409.79 
  "/>
<path clip-path="url(#clip932)" d="
M742.806 529.037 L730.719 508.098 L706.546 508.098 L694.46 529.037 L706.546 549.977 L730.719 549.977 L742.806 529.037 L742.806 529.037  Z
  " fill="#009af9" fill-rule="evenodd" fill-opacity="1"/>
<polyline clip-path="url(#clip932)" style="stroke:#000000; stroke-width:4.00136; stroke-opacity:1; fill:none" points="
  742.806,529.037 730.719,508.098 706.546,508.098 694.46,529.037 706.546,549.977 730.719,549.977 742.806,529.037 
  "/>
<path clip-path="url(#clip932)" d="
M666.616 463.846 L654.529 442.907 L630.356 442.907 L618.27 463.846 L630.356 484.786 L654.529 484.786 L666.616 463.846 L666.616 463.846  Z
  " fill="#009af9" fill-rule="evenodd" fill-opacity="1"/>
<polyline clip-path="url(#clip932)" style="stroke:#000000; stroke-width:4.00136; stroke-opacity:1; fill:none" points="
  666.616,463.846 654.529,442.907 630.356,442.907 618.27,463.846 630.356,484.786 654.529,484.786 666.616,463.846 
  "/>
<path clip-path="url(#clip932)" d="
M518.818 538.56 L512.677 527.921 L500.394 527.921 L494.253 538.56 L500.394 549.2 L512.677 549.2 L518.818 538.56 L518.818 538.56  Z
  " fill="#009af9" fill-rule="evenodd" fill-opacity="1"/>
<polyline clip-path="url(#clip932)" style="stroke:#000000; stroke-width:4.00136; stroke-opacity:1; fill:none" points="
  518.818,538.56 512.677,527.921 500.394,527.921 494.253,538.56 500.394,549.2 512.677,549.2 518.818,538.56 
  "/>
<path clip-path="url(#clip932)" d="
M598.29 368.877 L586.063 347.695 L561.611 347.695 L549.384 368.877 L561.611 390.06 L586.063 390.06 L598.29 368.877 L598.29 368.877  Z
  " fill="#009af9" fill-rule="evenodd" fill-opacity="1"/>
<polyline clip-path="url(#clip932)" style="stroke:#000000; stroke-width:4.00136; stroke-opacity:1; fill:none" points="
  598.29,368.877 586.063,347.695 561.611,347.695 549.384,368.877 561.611,390.06 586.063,390.06 598.29,368.877 598.29,368.877 
  "/>
<path clip-path="url(#clip932)" d="
M693.236 223.171 L687.235 212.773 L675.232 212.773 L669.231 223.171 L675.232 233.568 L687.235 233.568 L693.236 223.171 L693.236 223.171  Z
  " fill="#009af9" fill-rule="evenodd" fill-opacity="1"/>
<polyline clip-path="url(#clip932)" style="stroke:#000000; stroke-width:4.00136; stroke-opacity:1; fill:none" points="
  693.236,223.171 687.235,212.773 675.232,212.773 669.231,223.171 675.232,233.568 687.235,233.568 693.236,223.171 
  "/>
<path clip-path="url(#clip932)" d="
M901.345 483.149 L895.344 472.752 L883.341 472.752 L877.34 483.149 L883.341 493.546 L895.344 493.546 L901.345 483.149 L901.345 483.149  Z
  " fill="#009af9" fill-rule="evenodd" fill-opacity="1"/>
<polyline clip-path="url(#clip932)" style="stroke:#000000; stroke-width:4.00136; stroke-opacity:1; fill:none" points="
  901.345,483.149 895.344,472.752 883.341,472.752 877.34,483.149 883.341,493.546 895.344,493.546 901.345,483.149 
  "/>
<path clip-path="url(#clip932)" d="
M793.88 468.959 L787.529 457.956 L774.827 457.956 L768.476 468.959 L774.827 479.962 L787.529 479.962 L793.88 468.959 L793.88 468.959  Z
  " fill="#009af9" fill-rule="evenodd" fill-opacity="1"/>
<polyline clip-path="url(#clip932)" style="stroke:#000000; stroke-width:4.00136; stroke-opacity:1; fill:none" points="
  793.88,468.959 787.529,457.956 774.827,457.956 768.476,468.959 774.827,479.962 787.529,479.962 793.88,468.959 
  "/>
<path clip-path="url(#clip932)" d="
M526.958 496.285 L521.026 486.009 L509.164 486.009 L503.232 496.285 L509.164 506.561 L521.026 506.561 L526.958 496.285 L526.958 496.285  Z
  " fill="#009af9" fill-rule="evenodd" fill-opacity="1"/>
<polyline clip-path="url(#clip932)" style="stroke:#000000; stroke-width:4.00136; stroke-opacity:1; fill:none" points="
  526.958,496.285 521.026,486.009 509.164,486.009 503.232,496.285 509.164,506.561 521.026,506.561 526.958,496.285 
  "/>
<path clip-path="url(#clip932)" d="
M674.607 332.769 L662.73 312.193 L638.977 312.193 L627.1 332.769 L638.977 353.345 L662.73 353.345 L674.607 332.769 L674.607 332.769  Z
  " fill="#009af9" fill-rule="evenodd" fill-opacity="1"/>
<polyline clip-path="url(#clip932)" style="stroke:#000000; stroke-width:4.00136; stroke-opacity:1; fill:none" points="
  674.607,332.769 662.73,312.193 638.977,312.193 627.1,332.769 638.977,353.345 662.73,353.345 674.607,332.769 
  "/>
<path clip-path="url(#clip932)" d="
M836.054 226.083 L830.333 216.171 L818.89 216.171 L813.168 226.083 L818.89 235.995 L830.333 235.995 L836.054 226.083 L836.054 226.083  Z
  " fill="#009af9" fill-rule="evenodd" fill-opacity="1"/>
<polyline clip-path="url(#clip932)" style="stroke:#000000; stroke-width:4.00136; stroke-opacity:1; fill:none" points="
  836.054,226.083 830.333,216.171 818.89,216.171 813.168,226.083 818.89,235.995 830.333,235.995 836.054,226.083 
  "/>
<path clip-path="url(#clip932)" d="
M725.247 362.52 L719.316 352.244 L707.453 352.244 L701.522 362.52 L707.453 372.796 L719.316 372.796 L725.247 362.52 L725.247 362.52  Z
  " fill="#009af9" fill-rule="evenodd" fill-opacity="1"/>
<polyline clip-path="url(#clip932)" style="stroke:#000000; stroke-width:4.00136; stroke-opacity:1; fill:none" points="
  725.247,362.52 719.316,352.244 707.453,352.244 701.522,362.52 707.453,372.796 719.316,372.796 725.247,362.52 
  "/>
<path clip-path="url(#clip932)" d="
M679.503 529.028 L667.346 507.967 L643.033 507.967 L630.877 529.028 L643.033 550.088 L667.346 550.088 L679.503 529.028 L679.503 529.028  Z
  " fill="#009af9" fill-rule="evenodd" fill-opacity="1"/>
<polyline clip-path="url(#clip932)" style="stroke:#000000; stroke-width:4.00136; stroke-opacity:1; fill:none" points="
  679.503,529.028 667.346,507.967 643.033,507.967 630.877,529.028 643.033,550.088 667.346,550.088 679.503,529.028 
  "/>
<path clip-path="url(#clip932)" d="
M465.404 253.389 L459.612 243.355 L448.029 243.355 L442.238 253.389 L448.029 263.422 L459.612 263.422 L465.404 253.389 L465.404 253.389  Z
  " fill="#009af9" fill-rule="evenodd" fill-opacity="1"/>
<polyline clip-path="url(#clip932)" style="stroke:#000000; stroke-width:4.00136; stroke-opacity:1; fill:none" points="
  465.404,253.389 459.612,243.355 448.029,243.355 442.238,253.389 448.029,263.422 459.612,263.422 465.404,253.389 
  "/>
<path clip-path="url(#clip932)" d="
M718.867 446.274 L712.796 435.756 L700.653 435.756 L694.582 446.274 L700.653 456.792 L712.796 456.792 L718.867 446.274 L718.867 446.274  Z
  " fill="#009af9" fill-rule="evenodd" fill-opacity="1"/>
<polyline clip-path="url(#clip932)" style="stroke:#000000; stroke-width:4.00136; stroke-opacity:1; fill:none" points="
  718.867,446.274 712.796,435.756 700.653,435.756 694.582,446.274 700.653,456.792 712.796,456.792 718.867,446.274 
  "/>
<circle clip-path="url(#clip932)" style="fill:#009af9; stroke:none; fill-opacity:1" cx="409.348" cy="437.333" r="2"/>
<circle clip-path="url(#clip932)" style="fill:#009af9; stroke:none; fill-opacity:1" cx="843.47" cy="676.939" r="2"/>
<circle clip-path="url(#clip932)" style="fill:#009af9; stroke:none; fill-opacity:1" cx="621.925" cy="155.964" r="2"/>
<circle clip-path="url(#clip932)" style="fill:#009af9; stroke:none; fill-opacity:1" cx="566.607" cy="302.505" r="2"/>
<circle clip-path="url(#clip932)" style="fill:#009af9; stroke:none; fill-opacity:1" cx="506.817" cy="372.21" r="2"/>
<circle clip-path="url(#clip932)" style="fill:#009af9; stroke:none; fill-opacity:1" cx="803.13" cy="324.078" r="2"/>
<circle clip-path="url(#clip932)" style="fill:#009af9; stroke:none; fill-opacity:1" cx="758.25" cy="290.577" r="2"/>
<circle clip-path="url(#clip932)" style="fill:#009af9; stroke:none; fill-opacity:1" cx="952.731" cy="385.023" r="2"/>
<circle clip-path="url(#clip932)" style="fill:#009af9; stroke:none; fill-opacity:1" cx="779.815" cy="547.154" r="2"/>
<circle clip-path="url(#clip932)" style="fill:#009af9; stroke:none; fill-opacity:1" cx="577.154" cy="597.024" r="2"/>
<circle clip-path="url(#clip932)" style="fill:#009af9; stroke:none; fill-opacity:1" cx="669.537" cy="643.086" r="2"/>
<circle clip-path="url(#clip932)" style="fill:#009af9; stroke:none; fill-opacity:1" cx="756.218" cy="699.483" r="2"/>
<circle clip-path="url(#clip932)" style="fill:#009af9; stroke:none; fill-opacity:1" cx="585.041" cy="462.602" r="2"/>
<circle clip-path="url(#clip932)" style="fill:#009af9; stroke:none; fill-opacity:1" cx="827.41" cy="409.79" r="2"/>
<circle clip-path="url(#clip932)" style="fill:#009af9; stroke:none; fill-opacity:1" cx="718.633" cy="529.037" r="2"/>
<circle clip-path="url(#clip932)" style="fill:#009af9; stroke:none; fill-opacity:1" cx="642.443" cy="463.846" r="2"/>
<circle clip-path="url(#clip932)" style="fill:#009af9; stroke:none; fill-opacity:1" cx="506.535" cy="538.56" r="2"/>
<circle clip-path="url(#clip932)" style="fill:#009af9; stroke:none; fill-opacity:1" cx="573.837" cy="368.877" r="2"/>
<circle clip-path="url(#clip932)" style="fill:#009af9; stroke:none; fill-opacity:1" cx="681.233" cy="223.171" r="2"/>
<circle clip-path="url(#clip932)" style="fill:#009af9; stroke:none; fill-opacity:1" cx="889.342" cy="483.149" r="2"/>
<circle clip-path="url(#clip932)" style="fill:#009af9; stroke:none; fill-opacity:1" cx="781.178" cy="468.959" r="2"/>
<circle clip-path="url(#clip932)" style="fill:#009af9; stroke:none; fill-opacity:1" cx="515.095" cy="496.285" r="2"/>
<circle clip-path="url(#clip932)" style="fill:#009af9; stroke:none; fill-opacity:1" cx="650.854" cy="332.769" r="2"/>
<circle clip-path="url(#clip932)" style="fill:#009af9; stroke:none; fill-opacity:1" cx="824.611" cy="226.083" r="2"/>
<circle clip-path="url(#clip932)" style="fill:#009af9; stroke:none; fill-opacity:1" cx="713.384" cy="362.52" r="2"/>
<circle clip-path="url(#clip932)" style="fill:#009af9; stroke:none; fill-opacity:1" cx="655.19" cy="529.028" r="2"/>
<circle clip-path="url(#clip932)" style="fill:#009af9; stroke:none; fill-opacity:1" cx="453.821" cy="253.389" r="2"/>
<circle clip-path="url(#clip932)" style="fill:#009af9; stroke:none; fill-opacity:1" cx="706.725" cy="446.274" r="2"/>
</svg>
