<?xml version="1.0" encoding="utf-8"?>
<svg xmlns="http://www.w3.org/2000/svg" xmlns:xlink="http://www.w3.org/1999/xlink" width="230.25" height="152" viewBox="0 0 921 608">
<defs>
  <clipPath id="clip110">
    <rect x="0" y="0" width="921" height="608"/>
  </clipPath>
</defs>
<path clip-path="url(#clip110)" d="
M0 608 L921 608 L921 0 L0 0  Z
  " fill="#ffffff" fill-rule="evenodd" fill-opacity="1"/>
<defs>
  <clipPath id="clip111">
    <rect x="184" y="0" width="646" height="608"/>
  </clipPath>
</defs>
<path clip-path="url(#clip110)" d="
M227.204 538.916 L718.753 538.916 L718.753 47.2532 L227.204 47.2532  Z
  " fill="#ffffff" fill-rule="evenodd" fill-opacity="1"/>
<defs>
  <clipPath id="clip112">
    <rect x="227" y="47" width="493" height="493"/>
  </clipPath>
</defs>
<polyline clip-path="url(#clip112)" style="stroke:#000000; stroke-width:4.00077; stroke-opacity:1; fill:none" points="
  297.425,468.678 299.001,468.459 300.575,468.237 302.142,468.011 303.702,467.778 305.25,467.535 306.784,467.282 308.302,467.014 309.801,466.731 311.278,466.429 
  312.73,466.107 314.154,465.762 315.548,465.392 316.908,464.994 318.233,464.567 319.519,464.108 320.764,463.614 321.965,463.084 323.119,462.516 324.223,461.906 
  325.275,461.252 326.271,460.553 327.21,459.806 328.088,459.009 328.902,458.159 329.651,457.255 330.333,456.296 330.952,455.284 331.51,454.222 332.01,453.112 
  332.455,451.956 332.848,450.757 333.191,449.517 333.487,448.238 333.739,446.923 333.949,445.573 334.121,444.192 334.257,442.78 334.36,441.341 334.432,439.877 
  334.477,438.391 334.497,436.883 334.495,435.358 334.474,433.816 334.436,432.261 334.385,430.694 334.322,429.118 334.251,427.536 334.175,425.949 334.096,424.359 
  
  "/>
<polyline clip-path="url(#clip112)" style="stroke:#000000; stroke-width:4.00077; stroke-opacity:1; fill:none" points="
  334.096,424.359 335.615,424.068 337.131,423.775 338.641,423.478 340.142,423.175 341.632,422.864 343.107,422.542 344.565,422.208 346.002,421.859 347.415,421.494 
  348.803,421.11 350.161,420.706 351.487,420.279 352.777,419.827 354.03,419.349 355.242,418.841 356.409,418.303 357.53,417.732 358.601,417.125 359.62,416.481 
  360.583,415.799 361.487,415.074 362.33,414.307 363.108,413.494 363.819,412.634 364.46,411.724 365.031,410.765 365.534,409.758 365.973,408.706 366.351,407.611 
  366.67,406.474 366.933,405.299 367.144,404.086 367.305,402.838 367.419,401.557 367.489,400.245 367.518,398.904 367.51,397.536 367.466,396.144 367.389,394.728 
  367.284,393.293 367.152,391.838 366.997,390.367 366.821,388.882 366.628,387.384 366.42,385.876 366.2,384.36 365.972,382.838 365.738,381.311 365.501,379.782 
  
  "/>
<polyline clip-path="url(#clip112)" style="stroke:#000000; stroke-width:4.00077; stroke-opacity:1; fill:none" points="
  365.501,379.782 366.926,379.355 368.347,378.926 369.763,378.494 371.169,378.057 372.562,377.614 373.939,377.162 375.297,376.701 376.633,376.228 377.943,375.742 
  379.225,375.242 380.474,374.725 381.689,374.19 382.865,373.635 384,373.06 385.09,372.461 386.133,371.838 387.124,371.189 388.061,370.513 388.941,369.807 
  389.76,369.07 390.516,368.3 391.204,367.496 391.823,366.656 392.368,365.779 392.836,364.862 393.229,363.907 393.548,362.914 393.796,361.885 393.978,360.822 
  394.096,359.726 394.154,358.599 394.154,357.443 394.1,356.259 393.995,355.049 393.842,353.814 393.644,352.557 393.405,351.279 393.128,349.981 392.815,348.665 
  392.471,347.332 392.098,345.985 391.7,344.625 391.279,343.254 390.839,341.872 390.383,340.483 389.915,339.087 389.436,337.686 388.952,336.282 388.464,334.876 
  
  "/>
<polyline clip-path="url(#clip112)" style="stroke:#000000; stroke-width:4.00077; stroke-opacity:1; fill:none" points="
  388.464,334.876 389.839,334.369 391.21,333.86 392.575,333.349 393.93,332.834 395.272,332.313 396.597,331.785 397.903,331.249 399.185,330.703 400.441,330.146 
  401.667,329.577 402.86,328.994 404.016,328.396 405.133,327.781 406.207,327.148 407.235,326.497 408.213,325.824 409.138,325.13 410.007,324.412 410.817,323.669 
  411.563,322.9 412.244,322.104 412.855,321.278 413.393,320.423 413.856,319.536 414.239,318.615 414.543,317.662 414.771,316.677 414.926,315.662 415.012,314.618 
  415.031,313.546 414.988,312.448 414.885,311.325 414.727,310.179 414.515,309.011 414.253,307.822 413.946,306.614 413.595,305.388 413.205,304.146 412.778,302.888 
  412.318,301.617 411.829,300.333 411.313,299.038 410.774,297.734 410.215,296.421 409.639,295.102 409.051,293.777 408.452,292.448 407.847,291.116 407.238,289.782 
  
  "/>
<polyline clip-path="url(#clip112)" style="stroke:#000000; stroke-width:4.00077; stroke-opacity:1; fill:none" points="
  407.238,289.782 408.62,289.279 409.998,288.775 411.369,288.267 412.731,287.756 414.079,287.239 415.411,286.714 416.724,286.182 418.013,285.639 419.276,285.086 
  420.509,284.52 421.709,283.939 422.873,283.344 423.997,282.731 425.079,282.1 426.114,281.45 427.1,280.779 428.033,280.085 428.911,279.367 429.728,278.624 
  430.484,277.855 431.173,277.057 431.793,276.23 432.341,275.372 432.813,274.482 433.206,273.558 433.52,272.601 433.758,271.611 433.924,270.59 434.02,269.541 
  434.051,268.463 434.019,267.358 433.927,266.228 433.78,265.074 433.58,263.898 433.331,262.701 433.035,261.484 432.696,260.249 432.318,258.997 431.904,257.73 
  431.457,256.449 430.98,255.155 430.477,253.849 429.95,252.534 429.404,251.211 428.842,249.881 428.266,248.545 427.68,247.204 427.088,245.861 426.493,244.517 
  
  "/>
<polyline clip-path="url(#clip112)" style="stroke:#000000; stroke-width:4.00077; stroke-opacity:1; fill:none" points="
  446.864,198.763 447.43,200.134 447.992,201.503 448.548,202.87 449.094,204.232 449.627,205.588 450.143,206.937 450.64,208.277 451.114,209.607 451.562,210.926 
  451.98,212.231 452.366,213.522 452.715,214.797 453.026,216.054 453.294,217.292 453.516,218.51 453.689,219.706 453.809,220.879 453.874,222.027 453.88,223.148 
  453.824,224.242 453.703,225.307 453.513,226.341 453.251,227.343 452.913,228.312 452.497,229.246 452.003,230.145 451.434,231.01 450.793,231.843 450.083,232.646 
  449.307,233.42 448.47,234.165 447.573,234.885 446.621,235.58 445.616,236.251 444.563,236.901 443.463,237.53 442.322,238.141 441.14,238.733 439.923,239.31 
  438.674,239.872 437.394,240.421 436.089,240.959 434.76,241.486 433.412,242.005 432.048,242.516 430.671,243.021 429.283,243.522 427.89,244.02 426.493,244.517 
  
  "/>
<polyline clip-path="url(#clip112)" style="stroke:#000000; stroke-width:4.00077; stroke-opacity:1; fill:none" points="
  446.864,198.763 448.285,198.23 449.703,197.696 451.113,197.16 452.515,196.618 453.903,196.071 455.275,195.516 456.627,194.953 457.956,194.379 459.26,193.793 
  460.534,193.194 461.775,192.581 462.981,191.95 464.147,191.303 465.271,190.636 466.349,189.948 467.378,189.238 468.356,188.504 469.277,187.746 470.14,186.96 
  470.941,186.147 471.677,185.304 472.345,184.43 472.94,183.523 473.461,182.582 473.903,181.606 474.267,180.595 474.556,179.549 474.774,178.471 474.923,177.362 
  475.007,176.223 475.028,175.057 474.991,173.863 474.899,172.645 474.754,171.402 474.561,170.138 474.322,168.853 474.04,167.549 473.719,166.226 473.363,164.888 
  472.974,163.535 472.555,162.168 472.11,160.79 471.643,159.402 471.156,158.004 470.652,156.599 470.136,155.188 469.61,153.773 469.077,152.355 468.541,150.935 
  
  "/>
<polyline clip-path="url(#clip112)" style="stroke:#000000; stroke-width:4.00077; stroke-opacity:1; fill:none" points="
  648.532,125.999 645.006,127.572 641.48,129.142 637.952,130.705 634.423,132.257 630.893,133.794 627.359,135.314 623.823,136.813 620.284,138.287 616.74,139.732 
  613.192,141.146 609.639,142.524 606.081,143.863 602.516,145.159 598.946,146.41 595.368,147.61 591.783,148.758 588.191,149.848 584.59,150.879 580.98,151.845 
  577.36,152.744 573.731,153.572 570.092,154.326 566.442,155.001 562.78,155.595 559.107,156.104 555.422,156.528 551.726,156.87 548.018,157.135 544.301,157.324 
  540.574,157.443 536.837,157.494 533.091,157.482 529.338,157.409 525.576,157.279 521.807,157.096 518.031,156.864 514.248,156.585 510.46,156.264 506.667,155.904 
  502.868,155.508 499.065,155.08 495.258,154.624 491.448,154.143 487.635,153.641 483.819,153.121 480.001,152.587 476.182,152.042 472.362,151.49 468.541,150.935 
  
  "/>
<polyline clip-path="url(#clip112)" style="stroke:#000000; stroke-width:4.00077; stroke-opacity:1; fill:none" points="
  315.063,117.491 317.966,119.223 320.871,120.952 323.776,122.674 326.685,124.385 329.596,126.083 332.511,127.762 335.43,129.421 338.355,131.056 341.286,132.662 
  344.224,134.237 347.169,135.777 350.123,137.278 353.086,138.738 356.059,140.152 359.043,141.516 362.038,142.829 365.045,144.085 368.065,145.282 371.099,146.416 
  374.148,147.483 377.211,148.481 380.291,149.405 383.387,150.252 386.501,151.018 389.633,151.7 392.784,152.299 395.952,152.817 399.137,153.259 402.337,153.626 
  405.553,153.924 408.784,154.155 412.028,154.323 415.285,154.432 418.555,154.485 421.836,154.485 425.127,154.436 428.429,154.342 431.739,154.205 435.058,154.031 
  438.385,153.821 441.718,153.58 445.058,153.31 448.402,153.016 451.752,152.702 455.105,152.369 458.461,152.023 461.82,151.666 465.18,151.302 468.541,150.935 
  
  "/>
<path clip-path="url(#clip112)" d="
M308.523 468.678 L302.974 459.065 L291.877 459.065 L286.328 468.678 L291.877 478.291 L302.974 478.291 L308.523 468.678 L308.523 468.678  Z
  " fill="#009af9" fill-rule="evenodd" fill-opacity="1"/>
<polyline clip-path="url(#clip112)" style="stroke:#000000; stroke-width:4.00077; stroke-opacity:1; fill:none" points="
  308.523,468.678 302.974,459.065 291.877,459.065 286.328,468.678 291.877,478.291 302.974,478.291 308.523,468.678 
  "/>
<path clip-path="url(#clip112)" d="
M345.193 424.359 L339.644 414.746 L328.547 414.746 L322.998 424.359 L328.547 433.972 L339.644 433.972 L345.193 424.359 L345.193 424.359  Z
  " fill="#009af9" fill-rule="evenodd" fill-opacity="1"/>
<polyline clip-path="url(#clip112)" style="stroke:#000000; stroke-width:4.00077; stroke-opacity:1; fill:none" points="
  345.193,424.359 339.644,414.746 328.547,414.746 322.998,424.359 328.547,433.972 339.644,433.972 345.193,424.359 
  "/>
<path clip-path="url(#clip112)" d="
M376.598 379.782 L371.05 370.169 L359.952 370.169 L354.403 379.782 L359.952 389.396 L371.05 389.396 L376.598 379.782 L376.598 379.782  Z
  " fill="#009af9" fill-rule="evenodd" fill-opacity="1"/>
<polyline clip-path="url(#clip112)" style="stroke:#000000; stroke-width:4.00077; stroke-opacity:1; fill:none" points="
  376.598,379.782 371.05,370.169 359.952,370.169 354.403,379.782 359.952,389.396 371.05,389.396 376.598,379.782 
  "/>
<path clip-path="url(#clip112)" d="
M399.562 334.876 L394.013 325.263 L382.915 325.263 L377.366 334.876 L382.915 344.49 L394.013 344.49 L399.562 334.876 L399.562 334.876  Z
  " fill="#009af9" fill-rule="evenodd" fill-opacity="1"/>
<polyline clip-path="url(#clip112)" style="stroke:#000000; stroke-width:4.00077; stroke-opacity:1; fill:none" points="
  399.562,334.876 394.013,325.263 382.915,325.263 377.366,334.876 382.915,344.49 394.013,344.49 399.562,334.876 
  "/>
<path clip-path="url(#clip112)" d="
M443.703 289.782 L425.47 258.196 L389.006 258.196 L370.774 289.782 L389.006 321.368 L425.47 321.368 L443.703 289.782 L443.703 289.782  Z
  " fill="#009af9" fill-rule="evenodd" fill-opacity="1"/>
<polyline clip-path="url(#clip112)" style="stroke:#000000; stroke-width:4.00077; stroke-opacity:1; fill:none" points="
  443.703,289.782 425.47,258.196 389.006,258.196 370.774,289.782 389.006,321.368 425.47,321.368 443.703,289.782 
  "/>
<path clip-path="url(#clip112)" d="
M483.329 198.763 L465.096 167.177 L428.632 167.177 L410.4 198.763 L428.632 230.349 L465.096 230.349 L483.329 198.763 L483.329 198.763  Z
  " fill="#009af9" fill-rule="evenodd" fill-opacity="1"/>
<polyline clip-path="url(#clip112)" style="stroke:#000000; stroke-width:4.00077; stroke-opacity:1; fill:none" points="
  483.329,198.763 465.096,167.177 428.632,167.177 410.4,198.763 428.632,230.349 465.096,230.349 483.329,198.763 
  "/>
<path clip-path="url(#clip112)" d="
M659.366 125.999 L653.949 116.615 L643.115 116.615 L637.698 125.999 L643.115 135.384 L653.949 135.384 L659.366 125.999 L659.366 125.999  Z
  " fill="#009af9" fill-rule="evenodd" fill-opacity="1"/>
<polyline clip-path="url(#clip112)" style="stroke:#000000; stroke-width:4.00077; stroke-opacity:1; fill:none" points="
  659.366,125.999 653.949,116.615 643.115,116.615 637.698,125.999 643.115,135.384 653.949,135.384 659.366,125.999 
  "/>
<path clip-path="url(#clip112)" d="
M462.957 244.517 L444.725 212.931 L408.26 212.931 L390.028 244.517 L408.26 276.103 L444.725 276.103 L462.957 244.517 L462.957 244.517  Z
  " fill="#009af9" fill-rule="evenodd" fill-opacity="1"/>
<polyline clip-path="url(#clip112)" style="stroke:#000000; stroke-width:4.00077; stroke-opacity:1; fill:none" points="
  462.957,244.517 444.725,212.931 408.26,212.931 390.028,244.517 408.26,276.103 444.725,276.103 462.957,244.517 
  "/>
<path clip-path="url(#clip112)" d="
M325.896 117.491 L320.48 108.106 L309.646 108.106 L304.229 117.491 L309.646 126.875 L320.48 126.875 L325.896 117.491 L325.896 117.491  Z
  " fill="#009af9" fill-rule="evenodd" fill-opacity="1"/>
<polyline clip-path="url(#clip112)" style="stroke:#000000; stroke-width:4.00077; stroke-opacity:1; fill:none" points="
  325.896,117.491 320.48,108.106 309.646,108.106 304.229,117.491 309.646,126.875 320.48,126.875 325.896,117.491 
  "/>
<path clip-path="url(#clip112)" d="
M504.477 150.935 L486.509 119.807 L450.573 119.807 L432.605 150.935 L450.573 182.064 L486.509 182.064 L504.477 150.935 L504.477 150.935  Z
  " fill="#009af9" fill-rule="evenodd" fill-opacity="1"/>
<polyline clip-path="url(#clip112)" style="stroke:#000000; stroke-width:4.00077; stroke-opacity:1; fill:none" points="
  504.477,150.935 486.509,119.807 450.573,119.807 432.605,150.935 450.573,182.064 486.509,182.064 504.477,150.935 
  "/>
<path clip-path="url(#clip112)" d="M297.425 469.883 L296.382 469.28 L296.382 468.076 L297.425 467.474 L298.468 468.076 L298.468 469.28 Z" fill="#009af9" fill-rule="evenodd" fill-opacity="1" stroke="#000000" stroke-opacity="1" stroke-width="1.216"/>
<path clip-path="url(#clip112)" d="M334.096 425.563 L333.053 424.961 L333.053 423.757 L334.096 423.155 L335.139 423.757 L335.139 424.961 Z" fill="#009af9" fill-rule="evenodd" fill-opacity="1" stroke="#000000" stroke-opacity="1" stroke-width="1.216"/>
<path clip-path="url(#clip112)" d="M365.501 380.987 L364.458 380.384 L364.458 379.18 L365.501 378.578 L366.544 379.18 L366.544 380.384 Z" fill="#009af9" fill-rule="evenodd" fill-opacity="1" stroke="#000000" stroke-opacity="1" stroke-width="1.216"/>
<path clip-path="url(#clip112)" d="M388.464 336.081 L387.421 335.479 L387.421 334.274 L388.464 333.672 L389.507 334.274 L389.507 335.479 Z" fill="#009af9" fill-rule="evenodd" fill-opacity="1" stroke="#000000" stroke-opacity="1" stroke-width="1.216"/>
<path clip-path="url(#clip112)" d="M407.238 290.987 L406.195 290.384 L406.195 289.18 L407.238 288.578 L408.281 289.18 L408.281 290.384 Z" fill="#009af9" fill-rule="evenodd" fill-opacity="1" stroke="#000000" stroke-opacity="1" stroke-width="1.216"/>
<path clip-path="url(#clip112)" d="M446.864 199.967 L445.821 199.365 L445.821 198.161 L446.864 197.558 L447.907 198.161 L447.907 199.365 Z" fill="#009af9" fill-rule="evenodd" fill-opacity="1" stroke="#000000" stroke-opacity="1" stroke-width="1.216"/>
<path clip-path="url(#clip112)" d="M648.532 127.204 L647.489 126.601 L647.489 125.397 L648.532 124.795 L649.575 125.397 L649.575 126.601 Z" fill="#009af9" fill-rule="evenodd" fill-opacity="1" stroke="#000000" stroke-opacity="1" stroke-width="1.216"/>
<path clip-path="url(#clip112)" d="M426.493 245.721 L425.45 245.119 L425.45 243.915 L426.493 243.313 L427.536 243.915 L427.536 245.119 Z" fill="#009af9" fill-rule="evenodd" fill-opacity="1" stroke="#000000" stroke-opacity="1" stroke-width="1.216"/>
<path clip-path="url(#clip112)" d="M315.063 118.695 L314.02 118.093 L314.02 116.889 L315.063 116.286 L316.106 116.889 L316.106 118.093 Z" fill="#009af9" fill-rule="evenodd" fill-opacity="1" stroke="#000000" stroke-opacity="1" stroke-width="1.216"/>
<path clip-path="url(#clip112)" d="M468.541 152.139 L467.498 151.537 L467.498 150.333 L468.541 149.731 L469.584 150.333 L469.584 151.537 Z" fill="#009af9" fill-rule="evenodd" fill-opacity="1" stroke="#000000" stroke-opacity="1" stroke-width="1.216"/>
</svg>
