<?xml version="1.0" encoding="utf-8"?>
<svg xmlns="http://www.w3.org/2000/svg" xmlns:xlink="http://www.w3.org/1999/xlink" width="230.25" height="152" viewBox="0 0 921 608">
<defs>
  <clipPath id="clip220">
    <rect x="0" y="0" width="921" height="608"/>
  </clipPath>
</defs>
<path clip-path="url(#clip220)" d="
M0 608 L921 608 L921 0 L0 0  Z
  " fill="#ffffff" fill-rule="evenodd" fill-opacity="1"/>
<defs>
  <clipPath id="clip221">
    <rect x="184" y="0" width="646" height="608"/>
  </clipPath>
</defs>
<path clip-path="url(#clip220)" d="
M227.204 538.916 L718.753 538.916 L718.753 47.2532 L227.204 47.2532  Z
  " fill="#ffffff" fill-rule="evenodd" fill-opacity="1"/>
<defs>
  <clipPath id="clip222">
    <rect x="227" y="47" width="493" height="493"/>
  </clipPath>
</defs>
<polyline clip-path="url(#clip222)" style="stroke:#000000; stroke-width:4.00077; stroke-opacity:1; fill:none" points="
  297.425,468.678 298.949,468.914 300.471,469.146 301.988,469.373 303.499,469.591 305.002,469.797 306.495,469.988 307.975,470.162 309.441,470.316 310.89,470.446 
  312.32,470.55 313.73,470.625 315.117,470.668 316.478,470.675 317.813,470.645 319.119,470.574 320.394,470.459 321.636,470.297 322.842,470.086 324.011,469.822 
  325.141,469.502 326.229,469.124 327.274,468.685 328.273,468.182 329.224,467.611 330.126,466.97 330.978,466.26 331.782,465.482 332.54,464.64 333.255,463.737 
  333.929,462.775 334.563,461.758 335.16,460.688 335.722,459.569 336.25,458.403 336.747,457.193 337.216,455.942 337.657,454.653 338.073,453.33 338.467,451.974 
  338.84,450.588 339.194,449.177 339.532,447.742 339.855,446.287 340.165,444.814 340.466,443.327 340.758,441.828 341.043,440.32 341.325,438.807 341.605,437.29 
  
  "/>
<polyline clip-path="url(#clip222)" style="stroke:#000000; stroke-width:4.00077; stroke-opacity:1; fill:none" points="
  341.605,437.29 343.156,437.442 344.705,437.592 346.249,437.736 347.787,437.871 349.316,437.995 350.834,438.105 352.339,438.198 353.828,438.272 355.3,438.322 
  356.752,438.347 358.182,438.344 359.587,438.31 360.967,438.243 362.317,438.138 363.637,437.994 364.924,437.807 366.175,437.575 367.389,437.296 368.564,436.965 
  369.696,436.581 370.785,436.14 371.827,435.64 372.821,435.078 373.764,434.451 374.654,433.756 375.491,432.994 376.278,432.166 377.017,431.277 377.709,430.328 
  378.357,429.322 378.963,428.264 379.529,427.154 380.059,425.996 380.552,424.793 381.013,423.548 381.443,422.263 381.844,420.941 382.219,419.585 382.57,418.199 
  382.899,416.784 383.207,415.344 383.499,413.881 383.774,412.398 384.037,410.899 384.288,409.385 384.531,407.86 384.767,406.327 384.999,404.788 385.228,403.246 
  
  "/>
<polyline clip-path="url(#clip222)" style="stroke:#000000; stroke-width:4.00077; stroke-opacity:1; fill:none" points="
  385.228,403.246 386.808,403.296 388.386,403.343 389.958,403.385 391.524,403.419 393.081,403.442 394.625,403.452 396.156,403.445 397.67,403.419 399.165,403.372 
  400.639,403.3 402.09,403.202 403.514,403.073 404.911,402.912 406.277,402.716 407.61,402.483 408.908,402.208 410.168,401.891 411.389,401.527 412.567,401.115 
  413.7,400.651 414.787,400.134 415.824,399.559 416.809,398.925 417.741,398.229 418.616,397.468 419.435,396.643 420.199,395.755 420.913,394.808 421.576,393.803 
  422.193,392.745 422.765,391.636 423.295,390.478 423.785,389.274 424.237,388.026 424.654,386.738 425.038,385.412 425.392,384.052 425.717,382.658 426.017,381.235 
  426.293,379.785 426.548,378.311 426.784,376.814 427.004,375.299 427.21,373.768 427.403,372.223 427.588,370.668 427.765,369.104 427.938,367.535 428.108,365.963 
  
  "/>
<polyline clip-path="url(#clip222)" style="stroke:#000000; stroke-width:4.00077; stroke-opacity:1; fill:none" points="
  428.108,365.963 429.697,365.981 431.284,365.996 432.865,366.005 434.44,366.007 436.005,365.998 437.558,365.975 439.096,365.937 440.618,365.88 442.121,365.802 
  443.602,365.699 445.06,365.57 446.491,365.412 447.893,365.221 449.264,364.996 450.602,364.734 451.904,364.432 453.167,364.087 454.39,363.696 455.57,363.258 
  456.705,362.769 457.791,362.227 458.828,361.628 459.811,360.972 460.74,360.253 461.611,359.471 462.426,358.625 463.185,357.718 463.891,356.752 464.548,355.73 
  465.156,354.655 465.719,353.529 466.239,352.355 466.718,351.135 467.159,349.874 467.564,348.572 467.936,347.232 468.277,345.858 468.588,344.453 468.874,343.017 
  469.136,341.556 469.376,340.07 469.597,338.562 469.801,337.037 469.991,335.495 470.169,333.94 470.337,332.374 470.498,330.8 470.655,329.221 470.809,327.639 
  
  "/>
<polyline clip-path="url(#clip222)" style="stroke:#000000; stroke-width:4.00077; stroke-opacity:1; fill:none" points="
  470.809,327.639 472.399,327.663 473.987,327.684 475.57,327.699 477.146,327.707 478.712,327.704 480.267,327.688 481.807,327.655 483.331,327.604 484.835,327.532 
  486.318,327.435 487.778,327.311 489.211,327.158 490.615,326.973 491.989,326.754 493.33,326.496 494.634,326.199 495.901,325.858 497.127,325.472 498.31,325.038 
  499.449,324.554 500.539,324.015 501.58,323.42 502.568,322.767 503.502,322.052 504.378,321.272 505.198,320.429 505.963,319.524 506.675,318.56 507.338,317.54 
  507.953,316.466 508.522,315.341 509.049,314.169 509.536,312.95 509.984,311.689 510.397,310.388 510.776,309.049 511.125,307.676 511.445,306.27 511.738,304.835 
  512.008,303.373 512.257,301.887 512.486,300.38 512.699,298.853 512.898,297.311 513.085,295.756 513.262,294.189 513.432,292.615 513.597,291.035 513.76,289.453 
  
  "/>
<polyline clip-path="url(#clip222)" style="stroke:#000000; stroke-width:4.00077; stroke-opacity:1; fill:none" points="
  557.26,251.075 557.082,252.664 556.903,254.25 556.719,255.831 556.527,257.404 556.326,258.966 556.114,260.515 555.887,262.048 555.643,263.561 555.381,265.054 
  555.097,266.522 554.79,267.963 554.456,269.375 554.094,270.754 553.702,272.099 553.276,273.406 552.814,274.672 552.315,275.896 551.775,277.074 551.193,278.204 
  550.566,279.282 549.891,280.307 549.167,281.276 548.39,282.185 547.559,283.033 546.671,283.816 545.727,284.535 544.728,285.192 543.677,285.79 542.576,286.331 
  541.428,286.819 540.235,287.256 538.999,287.644 537.722,287.987 536.408,288.287 535.059,288.546 533.676,288.768 532.263,288.955 530.821,289.11 529.352,289.235 
  527.861,289.334 526.348,289.408 524.816,289.46 523.267,289.494 521.704,289.512 520.13,289.516 518.545,289.51 516.954,289.495 515.358,289.475 513.76,289.453 
  
  "/>
<polyline clip-path="url(#clip222)" style="stroke:#000000; stroke-width:4.00077; stroke-opacity:1; fill:none" points="
  557.26,251.075 558.898,251.065 560.533,251.052 562.164,251.034 563.788,251.007 565.403,250.97 567.005,250.92 568.594,250.853 570.166,250.768 571.719,250.661 
  573.25,250.53 574.758,250.371 576.24,250.184 577.694,249.964 579.117,249.709 580.507,249.416 581.861,249.083 583.178,248.707 584.454,248.286 585.687,247.816 
  586.876,247.294 588.018,246.72 589.109,246.088 590.149,245.397 591.134,244.645 592.063,243.828 592.935,242.946 593.753,242.003 594.518,241.001 595.234,239.942 
  595.903,238.829 596.527,237.665 597.108,236.453 597.649,235.195 598.152,233.894 598.619,232.553 599.054,231.174 599.457,229.76 599.833,228.313 600.182,226.838 
  600.508,225.335 600.812,223.808 601.098,222.259 601.366,220.692 601.621,219.109 601.864,217.512 602.098,215.904 602.324,214.289 602.545,212.667 602.765,211.044 
  
  "/>
<polyline clip-path="url(#clip222)" style="stroke:#000000; stroke-width:4.00077; stroke-opacity:1; fill:none" points="
  612.546,117.491 613.415,119.512 614.28,121.532 615.138,123.552 615.986,125.571 616.819,127.588 617.634,129.604 618.428,131.617 619.197,133.627 619.938,135.635 
  620.646,137.639 621.319,139.64 621.953,141.636 622.544,143.628 623.088,145.615 623.583,147.597 624.025,149.573 624.409,151.544 624.733,153.508 624.992,155.465 
  625.185,157.415 625.305,159.358 625.351,161.293 625.319,163.22 625.205,165.138 625.005,167.047 624.72,168.947 624.353,170.839 623.908,172.723 623.388,174.598 
  622.797,176.467 622.138,178.328 621.415,180.182 620.631,182.031 619.79,183.873 618.896,185.709 617.952,187.541 616.962,189.367 615.929,191.189 614.857,193.007 
  613.749,194.822 612.61,196.633 611.441,198.44 610.248,200.246 609.034,202.049 607.801,203.85 606.555,205.65 605.297,207.448 604.033,209.246 602.765,211.044 
  
  "/>
<polyline clip-path="url(#clip222)" style="stroke:#000000; stroke-width:4.00077; stroke-opacity:1; fill:none" points="
  648.532,255.749 646.847,255.605 645.165,255.459 643.488,255.307 641.819,255.148 640.159,254.979 638.512,254.797 636.88,254.6 635.266,254.384 633.671,254.148 
  632.099,253.889 630.552,253.605 629.033,253.292 627.544,252.949 626.087,252.572 624.665,252.159 623.281,251.708 621.936,251.216 620.635,250.68 619.378,250.098 
  618.169,249.468 617.01,248.786 615.903,248.05 614.852,247.258 613.858,246.407 612.924,245.495 612.049,244.521 611.233,243.488 610.471,242.399 609.762,241.256 
  609.104,240.062 608.492,238.819 607.926,237.531 607.402,236.198 606.918,234.824 606.472,233.413 606.061,231.965 605.682,230.483 605.334,228.972 605.013,227.431 
  604.716,225.866 604.443,224.277 604.189,222.668 603.953,221.04 603.732,219.398 603.524,217.742 603.325,216.077 603.134,214.403 602.948,212.725 602.765,211.044 
  
  "/>
<path clip-path="url(#clip222)" d="
M308.523 468.678 L302.974 459.065 L291.877 459.065 L286.328 468.678 L291.877 478.291 L302.974 478.291 L308.523 468.678 L308.523 468.678  Z
  " fill="#009af9" fill-rule="evenodd" fill-opacity="1"/>
<polyline clip-path="url(#clip222)" style="stroke:#000000; stroke-width:4.00077; stroke-opacity:1; fill:none" points="
  308.523,468.678 302.974,459.065 291.877,459.065 286.328,468.678 291.877,478.291 302.974,478.291 308.523,468.678 
  "/>
<path clip-path="url(#clip222)" d="
M352.702 437.29 L347.153 427.677 L336.056 427.677 L330.507 437.29 L336.056 446.903 L347.153 446.903 L352.702 437.29 L352.702 437.29  Z
  " fill="#009af9" fill-rule="evenodd" fill-opacity="1"/>
<polyline clip-path="url(#clip222)" style="stroke:#000000; stroke-width:4.00077; stroke-opacity:1; fill:none" points="
  352.702,437.29 347.153,427.677 336.056,427.677 330.507,437.29 336.056,446.903 347.153,446.903 352.702,437.29 
  "/>
<path clip-path="url(#clip222)" d="
M396.326 403.246 L390.777 393.633 L379.679 393.633 L374.13 403.246 L379.679 412.859 L390.777 412.859 L396.326 403.246 L396.326 403.246  Z
  " fill="#009af9" fill-rule="evenodd" fill-opacity="1"/>
<polyline clip-path="url(#clip222)" style="stroke:#000000; stroke-width:4.00077; stroke-opacity:1; fill:none" points="
  396.326,403.246 390.777,393.633 379.679,393.633 374.13,403.246 379.679,412.859 390.777,412.859 396.326,403.246 
  "/>
<path clip-path="url(#clip222)" d="
M439.206 365.963 L433.657 356.35 L422.559 356.35 L417.011 365.963 L422.559 375.577 L433.657 375.577 L439.206 365.963 L439.206 365.963  Z
  " fill="#009af9" fill-rule="evenodd" fill-opacity="1"/>
<polyline clip-path="url(#clip222)" style="stroke:#000000; stroke-width:4.00077; stroke-opacity:1; fill:none" points="
  439.206,365.963 433.657,356.35 422.559,356.35 417.011,365.963 422.559,375.577 433.657,375.577 439.206,365.963 
  "/>
<path clip-path="url(#clip222)" d="
M507.273 327.639 L489.041 296.053 L452.577 296.053 L434.344 327.639 L452.577 359.225 L489.041 359.225 L507.273 327.639 L507.273 327.639  Z
  " fill="#009af9" fill-rule="evenodd" fill-opacity="1"/>
<polyline clip-path="url(#clip222)" style="stroke:#000000; stroke-width:4.00077; stroke-opacity:1; fill:none" points="
  507.273,327.639 489.041,296.053 452.577,296.053 434.344,327.639 452.577,359.225 489.041,359.225 507.273,327.639 
  "/>
<path clip-path="url(#clip222)" d="
M593.724 251.075 L575.492 219.489 L539.027 219.489 L520.795 251.075 L539.027 282.661 L575.492 282.661 L593.724 251.075 L593.724 251.075  Z
  " fill="#009af9" fill-rule="evenodd" fill-opacity="1"/>
<polyline clip-path="url(#clip222)" style="stroke:#000000; stroke-width:4.00077; stroke-opacity:1; fill:none" points="
  593.724,251.075 575.492,219.489 539.027,219.489 520.795,251.075 539.027,282.661 575.492,282.661 593.724,251.075 
  "/>
<path clip-path="url(#clip222)" d="
M623.38 117.491 L617.963 108.106 L607.13 108.106 L601.713 117.491 L607.13 126.875 L617.963 126.875 L623.38 117.491 L623.38 117.491  Z
  " fill="#009af9" fill-rule="evenodd" fill-opacity="1"/>
<polyline clip-path="url(#clip222)" style="stroke:#000000; stroke-width:4.00077; stroke-opacity:1; fill:none" points="
  623.38,117.491 617.963,108.106 607.13,108.106 601.713,117.491 607.13,126.875 617.963,126.875 623.38,117.491 
  "/>
<path clip-path="url(#clip222)" d="
M550.224 289.453 L531.992 257.867 L495.528 257.867 L477.296 289.453 L495.528 321.039 L531.992 321.039 L550.224 289.453 L550.224 289.453  Z
  " fill="#009af9" fill-rule="evenodd" fill-opacity="1"/>
<polyline clip-path="url(#clip222)" style="stroke:#000000; stroke-width:4.00077; stroke-opacity:1; fill:none" points="
  550.224,289.453 531.992,257.867 495.528,257.867 477.296,289.453 495.528,321.039 531.992,321.039 550.224,289.453 
  "/>
<path clip-path="url(#clip222)" d="
M659.366 255.749 L653.949 246.364 L643.115 246.364 L637.698 255.749 L643.115 265.133 L653.949 265.133 L659.366 255.749 L659.366 255.749  Z
  " fill="#009af9" fill-rule="evenodd" fill-opacity="1"/>
<polyline clip-path="url(#clip222)" style="stroke:#000000; stroke-width:4.00077; stroke-opacity:1; fill:none" points="
  659.366,255.749 653.949,246.364 643.115,246.364 637.698,255.749 643.115,265.133 653.949,265.133 659.366,255.749 
  "/>
<path clip-path="url(#clip222)" d="
M638.701 211.044 L620.733 179.915 L584.797 179.915 L566.829 211.044 L584.797 242.172 L620.733 242.172 L638.701 211.044 L638.701 211.044  Z
  " fill="#009af9" fill-rule="evenodd" fill-opacity="1"/>
<polyline clip-path="url(#clip222)" style="stroke:#000000; stroke-width:4.00077; stroke-opacity:1; fill:none" points="
  638.701,211.044 620.733,179.915 584.797,179.915 566.829,211.044 584.797,242.172 620.733,242.172 638.701,211.044 
  "/>
<path clip-path="url(#clip222)" d="M297.425 469.883 L296.382 469.28 L296.382 468.076 L297.425 467.474 L298.468 468.076 L298.468 469.28 Z" fill="#009af9" fill-rule="evenodd" fill-opacity="1" stroke="#000000" stroke-opacity="1" stroke-width="1.216"/>
<path clip-path="url(#clip222)" d="M341.605 438.494 L340.562 437.892 L340.562 436.688 L341.605 436.086 L342.648 436.688 L342.648 437.892 Z" fill="#009af9" fill-rule="evenodd" fill-opacity="1" stroke="#000000" stroke-opacity="1" stroke-width="1.216"/>
<path clip-path="url(#clip222)" d="M385.228 404.45 L384.185 403.848 L384.185 402.644 L385.228 402.041 L386.271 402.644 L386.271 403.848 Z" fill="#009af9" fill-rule="evenodd" fill-opacity="1" stroke="#000000" stroke-opacity="1" stroke-width="1.216"/>
<path clip-path="url(#clip222)" d="M428.108 367.168 L427.065 366.565 L427.065 365.361 L428.108 364.759 L429.151 365.361 L429.151 366.565 Z" fill="#009af9" fill-rule="evenodd" fill-opacity="1" stroke="#000000" stroke-opacity="1" stroke-width="1.216"/>
<path clip-path="url(#clip222)" d="M470.809 328.843 L469.766 328.241 L469.766 327.037 L470.809 326.435 L471.852 327.037 L471.852 328.241 Z" fill="#009af9" fill-rule="evenodd" fill-opacity="1" stroke="#000000" stroke-opacity="1" stroke-width="1.216"/>
<path clip-path="url(#clip222)" d="M557.26 252.279 L556.217 251.677 L556.217 250.473 L557.26 249.87 L558.303 250.473 L558.303 251.677 Z" fill="#009af9" fill-rule="evenodd" fill-opacity="1" stroke="#000000" stroke-opacity="1" stroke-width="1.216"/>
<path clip-path="url(#clip222)" d="M612.546 118.695 L611.503 118.093 L611.503 116.889 L612.546 116.286 L613.589 116.889 L613.589 118.093 Z" fill="#009af9" fill-rule="evenodd" fill-opacity="1" stroke="#000000" stroke-opacity="1" stroke-width="1.216"/>
<path clip-path="url(#clip222)" d="M513.76 290.657 L512.717 290.055 L512.717 288.851 L513.76 288.248 L514.803 288.851 L514.803 290.055 Z" fill="#009af9" fill-rule="evenodd" fill-opacity="1" stroke="#000000" stroke-opacity="1" stroke-width="1.216"/>
<path clip-path="url(#clip222)" d="M648.532 256.953 L647.489 256.351 L647.489 255.146 L648.532 254.544 L649.575 255.146 L649.575 256.351 Z" fill="#009af9" fill-rule="evenodd" fill-opacity="1" stroke="#000000" stroke-opacity="1" stroke-width="1.216"/>
<path clip-path="url(#clip222)" d="M602.765 212.248 L601.722 211.646 L601.722 210.441 L602.765 209.839 L603.808 210.441 L603.808 211.646 Z" fill="#009af9" fill-rule="evenodd" fill-opacity="1" stroke="#000000" stroke-opacity="1" stroke-width="1.216"/>
</svg>
