<?xml version="1.0" encoding="utf-8"?>
<svg xmlns="http://www.w3.org/2000/svg" xmlns:xlink="http://www.w3.org/1999/xlink" width="500" height="300" viewBox="0 0 2000 1200">
<defs>
  <clipPath id="clip850">
    <rect x="0" y="0" width="2000" height="1200"/>
  </clipPath>
</defs>
<path clip-path="url(#clip850)" d="
M0 1200 L2000 1200 L2000 0 L0 0  Z
  " fill="#ffffff" fill-rule="evenodd" fill-opacity="1"/>
<defs>
  <clipPath id="clip851">
    <rect x="400" y="0" width="1401" height="1200"/>
  </clipPath>
</defs>
<path clip-path="url(#clip850)" d="
M202.364 1035.39 L1952.76 1035.39 L1952.76 117.424 L202.364 117.424  Z
  " fill="#ffffff" fill-rule="evenodd" fill-opacity="1"/>
<defs>
  <clipPath id="clip852">
    <rect x="202" y="117" width="1751" height="919"/>
  </clipPath>
</defs>
<polyline clip-path="url(#clip852)" style="stroke:#000000; stroke-width:2; stroke-opacity:0.1; fill:none" points="
  202.364,1035.39 202.364,117.424 
  "/>
<polyline clip-path="url(#clip852)" style="stroke:#000000; stroke-width:2; stroke-opacity:0.1; fill:none" points="
  518.132,1035.39 518.132,117.424 
  "/>
<polyline clip-path="url(#clip852)" style="stroke:#000000; stroke-width:2; stroke-opacity:0.1; fill:none" points="
  833.899,1035.39 833.899,117.424 
  "/>
<polyline clip-path="url(#clip852)" style="stroke:#000000; stroke-width:2; stroke-opacity:0.1; fill:none" points="
  1149.67,1035.39 1149.67,117.424 
  "/>
<polyline clip-path="url(#clip852)" style="stroke:#000000; stroke-width:2; stroke-opacity:0.1; fill:none" points="
  1465.43,1035.39 1465.43,117.424 
  "/>
<polyline clip-path="url(#clip852)" style="stroke:#000000; stroke-width:2; stroke-opacity:0.1; fill:none" points="
  1781.2,1035.39 1781.2,117.424 
  "/>
<polyline clip-path="url(#clip850)" style="stroke:#000000; stroke-width:4; stroke-opacity:1; fill:none" points="
  202.364,1035.39 1952.76,1035.39 
  "/>
<polyline clip-path="url(#clip850)" style="stroke:#000000; stroke-width:4; stroke-opacity:1; fill:none" points="
  202.364,1035.39 202.364,1024.37 
  "/>
<polyline clip-path="url(#clip850)" style="stroke:#000000; stroke-width:4; stroke-opacity:1; fill:none" points="
  518.132,1035.39 518.132,1024.37 
  "/>
<polyline clip-path="url(#clip850)" style="stroke:#000000; stroke-width:4; stroke-opacity:1; fill:none" points="
  833.899,1035.39 833.899,1024.37 
  "/>
<polyline clip-path="url(#clip850)" style="stroke:#000000; stroke-width:4; stroke-opacity:1; fill:none" points="
  1149.67,1035.39 1149.67,1024.37 
  "/>
<polyline clip-path="url(#clip850)" style="stroke:#000000; stroke-width:4; stroke-opacity:1; fill:none" points="
  1465.43,1035.39 1465.43,1024.37 
  "/>
<polyline clip-path="url(#clip850)" style="stroke:#000000; stroke-width:4; stroke-opacity:1; fill:none" points="
  1781.2,1035.39 1781.2,1024.37 
  "/>
<path clip-path="url(#clip850)" d="M 0 0 M202.364 1061.38 Q198.753 1061.38 196.925 1064.94 Q195.119 1068.48 195.119 1075.61 Q195.119 1082.72 196.925 1086.29 Q198.753 1089.83 202.364 1089.83 Q205.999 1089.83 207.804 1086.29 Q209.633 1082.72 209.633 1075.61 Q209.633 1068.48 207.804 1064.94 Q205.999 1061.38 202.364 1061.38 M202.364 1057.67 Q208.174 1057.67 211.23 1062.28 Q214.309 1066.86 214.309 1075.61 Q214.309 1084.34 211.23 1088.95 Q208.174 1093.53 202.364 1093.53 Q196.554 1093.53 193.475 1088.95 Q190.42 1084.34 190.42 1075.61 Q190.42 1066.86 193.475 1062.28 Q196.554 1057.67 202.364 1057.67 Z" fill="#000000" fill-rule="evenodd" fill-opacity="1" /><path clip-path="url(#clip850)" d="M 0 0 M508.514 1088.92 L516.153 1088.92 L516.153 1062.56 L507.842 1064.23 L507.842 1059.97 L516.106 1058.3 L520.782 1058.3 L520.782 1088.92 L528.421 1088.92 L528.421 1092.86 L508.514 1092.86 L508.514 1088.92 Z" fill="#000000" fill-rule="evenodd" fill-opacity="1" /><path clip-path="url(#clip850)" d="M 0 0 M828.552 1088.92 L844.871 1088.92 L844.871 1092.86 L822.927 1092.86 L822.927 1088.92 Q825.589 1086.17 830.172 1081.54 Q834.779 1076.89 835.959 1075.55 Q838.205 1073.02 839.084 1071.29 Q839.987 1069.53 839.987 1067.84 Q839.987 1065.08 838.043 1063.35 Q836.121 1061.61 833.019 1061.61 Q830.82 1061.61 828.367 1062.37 Q825.936 1063.14 823.158 1064.69 L823.158 1059.97 Q825.982 1058.83 828.436 1058.25 Q830.89 1057.67 832.927 1057.67 Q838.297 1057.67 841.492 1060.36 Q844.686 1063.05 844.686 1067.54 Q844.686 1069.67 843.876 1071.59 Q843.089 1073.48 840.982 1076.08 Q840.404 1076.75 837.302 1079.97 Q834.2 1083.16 828.552 1088.92 Z" fill="#000000" fill-rule="evenodd" fill-opacity="1" /><path clip-path="url(#clip850)" d="M 0 0 M1153.91 1074.23 Q1157.27 1074.94 1159.15 1077.21 Q1161.04 1079.48 1161.04 1082.81 Q1161.04 1087.93 1157.53 1090.73 Q1154.01 1093.53 1147.53 1093.53 Q1145.35 1093.53 1143.03 1093.09 Q1140.74 1092.67 1138.29 1091.82 L1138.29 1087.3 Q1140.23 1088.44 1142.55 1089.02 Q1144.86 1089.6 1147.39 1089.6 Q1151.78 1089.6 1154.08 1087.86 Q1156.39 1086.12 1156.39 1082.81 Q1156.39 1079.76 1154.24 1078.05 Q1152.11 1076.31 1148.29 1076.31 L1144.26 1076.31 L1144.26 1072.47 L1148.47 1072.47 Q1151.92 1072.47 1153.75 1071.1 Q1155.58 1069.71 1155.58 1067.12 Q1155.58 1064.46 1153.68 1063.05 Q1151.81 1061.61 1148.29 1061.61 Q1146.37 1061.61 1144.17 1062.03 Q1141.97 1062.44 1139.33 1063.32 L1139.33 1059.16 Q1141.99 1058.42 1144.31 1058.05 Q1146.65 1057.67 1148.71 1057.67 Q1154.03 1057.67 1157.13 1060.11 Q1160.23 1062.51 1160.23 1066.63 Q1160.23 1069.5 1158.59 1071.49 Q1156.95 1073.46 1153.91 1074.23 Z" fill="#000000" fill-rule="evenodd" fill-opacity="1" /><path clip-path="url(#clip850)" d="M 0 0 M1468.44 1062.37 L1456.64 1080.82 L1468.44 1080.82 L1468.44 1062.37 M1467.22 1058.3 L1473.1 1058.3 L1473.1 1080.82 L1478.03 1080.82 L1478.03 1084.71 L1473.1 1084.71 L1473.1 1092.86 L1468.44 1092.86 L1468.44 1084.71 L1452.84 1084.71 L1452.84 1080.2 L1467.22 1058.3 Z" fill="#000000" fill-rule="evenodd" fill-opacity="1" /><path clip-path="url(#clip850)" d="M 0 0 M1771.48 1058.3 L1789.84 1058.3 L1789.84 1062.24 L1775.76 1062.24 L1775.76 1070.71 Q1776.78 1070.36 1777.8 1070.2 Q1778.82 1070.01 1779.84 1070.01 Q1785.62 1070.01 1789 1073.18 Q1792.38 1076.36 1792.38 1081.77 Q1792.38 1087.35 1788.91 1090.45 Q1785.44 1093.53 1779.12 1093.53 Q1776.94 1093.53 1774.67 1093.16 Q1772.43 1092.79 1770.02 1092.05 L1770.02 1087.35 Q1772.1 1088.48 1774.33 1089.04 Q1776.55 1089.6 1779.03 1089.6 Q1783.03 1089.6 1785.37 1087.49 Q1787.71 1085.38 1787.71 1081.77 Q1787.71 1078.16 1785.37 1076.05 Q1783.03 1073.95 1779.03 1073.95 Q1777.15 1073.95 1775.28 1074.36 Q1773.42 1074.78 1771.48 1075.66 L1771.48 1058.3 Z" fill="#000000" fill-rule="evenodd" fill-opacity="1" /><path clip-path="url(#clip850)" d="M 0 0 M720.89 1114.73 L726.746 1114.73 L726.746 1164.25 L720.89 1164.25 L720.89 1114.73 Z" fill="#000000" fill-rule="evenodd" fill-opacity="1" /><path clip-path="url(#clip850)" d="M 0 0 M746.703 1132.71 Q741.992 1132.71 739.255 1136.4 Q736.517 1140.06 736.517 1146.46 Q736.517 1152.86 739.223 1156.55 Q741.96 1160.21 746.703 1160.21 Q751.381 1160.21 754.119 1156.52 Q756.856 1152.83 756.856 1146.46 Q756.856 1140.13 754.119 1136.43 Q751.381 1132.71 746.703 1132.71 M746.703 1127.74 Q754.341 1127.74 758.702 1132.71 Q763.062 1137.68 763.062 1146.46 Q763.062 1155.21 758.702 1160.21 Q754.341 1165.17 746.703 1165.17 Q739.032 1165.17 734.671 1160.21 Q730.343 1155.21 730.343 1146.46 Q730.343 1137.68 734.671 1132.71 Q739.032 1127.74 746.703 1127.74 Z" fill="#000000" fill-rule="evenodd" fill-opacity="1" /><path clip-path="url(#clip850)" d="M 0 0 M792.663 1146.01 Q792.663 1139.65 790.021 1136.15 Q787.411 1132.65 782.669 1132.65 Q777.958 1132.65 775.316 1136.15 Q772.706 1139.65 772.706 1146.01 Q772.706 1152.35 775.316 1155.85 Q777.958 1159.35 782.669 1159.35 Q787.411 1159.35 790.021 1155.85 Q792.663 1152.35 792.663 1146.01 M798.519 1159.83 Q798.519 1168.93 794.477 1173.35 Q790.435 1177.81 782.096 1177.81 Q779.008 1177.81 776.271 1177.33 Q773.534 1176.89 770.956 1175.93 L770.956 1170.24 Q773.534 1171.64 776.048 1172.3 Q778.563 1172.97 781.173 1172.97 Q786.934 1172.97 789.798 1169.95 Q792.663 1166.96 792.663 1160.88 L792.663 1157.98 Q790.849 1161.13 788.016 1162.69 Q785.183 1164.25 781.236 1164.25 Q774.68 1164.25 770.669 1159.25 Q766.659 1154.26 766.659 1146.01 Q766.659 1137.74 770.669 1132.74 Q774.68 1127.74 781.236 1127.74 Q785.183 1127.74 788.016 1129.3 Q790.849 1130.86 792.663 1134.01 L792.663 1128.6 L798.519 1128.6 L798.519 1159.83 Z" fill="#000000" fill-rule="evenodd" fill-opacity="1" /><path clip-path="url(#clip850)" d="M 0 0 M818.73 1114.79 Q814.465 1122.11 812.397 1129.27 Q810.328 1136.43 810.328 1143.79 Q810.328 1151.14 812.397 1158.36 Q814.497 1165.56 818.73 1172.85 L813.638 1172.85 Q808.864 1165.37 806.476 1158.14 Q804.121 1150.92 804.121 1143.79 Q804.121 1136.69 806.476 1129.5 Q808.832 1122.3 813.638 1114.79 L818.73 1114.79 Z" fill="#000000" fill-rule="evenodd" fill-opacity="1" /><path clip-path="url(#clip850)" d="M 0 0 M838.687 1132.71 Q833.976 1132.71 831.239 1136.4 Q828.502 1140.06 828.502 1146.46 Q828.502 1152.86 831.207 1156.55 Q833.945 1160.21 838.687 1160.21 Q843.366 1160.21 846.103 1156.52 Q848.84 1152.83 848.84 1146.46 Q848.84 1140.13 846.103 1136.43 Q843.366 1132.71 838.687 1132.71 M838.687 1127.74 Q846.326 1127.74 850.686 1132.71 Q855.047 1137.68 855.047 1146.46 Q855.047 1155.21 850.686 1160.21 Q846.326 1165.17 838.687 1165.17 Q831.016 1165.17 826.656 1160.21 Q822.327 1155.21 822.327 1146.46 Q822.327 1137.68 826.656 1132.71 Q831.016 1127.74 838.687 1127.74 Z" fill="#000000" fill-rule="evenodd" fill-opacity="1" /><path clip-path="url(#clip850)" d="M 0 0 M886.78 1146.46 Q886.78 1140 884.106 1136.34 Q881.465 1132.65 876.818 1132.65 Q872.171 1132.65 869.497 1136.34 Q866.855 1140 866.855 1146.46 Q866.855 1152.92 869.497 1156.61 Q872.171 1160.27 876.818 1160.27 Q881.465 1160.27 884.106 1156.61 Q886.78 1152.92 886.78 1146.46 M866.855 1134.01 Q868.701 1130.83 871.502 1129.3 Q874.335 1127.74 878.25 1127.74 Q884.743 1127.74 888.785 1132.9 Q892.859 1138.06 892.859 1146.46 Q892.859 1154.86 888.785 1160.02 Q884.743 1165.17 878.25 1165.17 Q874.335 1165.17 871.502 1163.65 Q868.701 1162.09 866.855 1158.9 L866.855 1164.25 L860.967 1164.25 L860.967 1114.73 L866.855 1114.73 L866.855 1134.01 Z" fill="#000000" fill-rule="evenodd" fill-opacity="1" /><path clip-path="url(#clip850)" d="M 0 0 M921.728 1129.65 L921.728 1135.19 Q919.245 1133.92 916.571 1133.28 Q913.898 1132.65 911.033 1132.65 Q906.673 1132.65 904.477 1133.98 Q902.312 1135.32 902.312 1137.99 Q902.312 1140.03 903.872 1141.21 Q905.431 1142.35 910.142 1143.4 L912.147 1143.85 Q918.386 1145.19 920.996 1147.64 Q923.637 1150.06 923.637 1154.42 Q923.637 1159.38 919.691 1162.28 Q915.776 1165.17 908.901 1165.17 Q906.036 1165.17 902.917 1164.6 Q899.83 1164.06 896.392 1162.95 L896.392 1156.9 Q899.639 1158.59 902.79 1159.45 Q905.941 1160.27 909.028 1160.27 Q913.166 1160.27 915.394 1158.87 Q917.622 1157.44 917.622 1154.86 Q917.622 1152.48 915.998 1151.2 Q914.407 1149.93 908.964 1148.75 L906.927 1148.27 Q901.485 1147.13 899.066 1144.77 Q896.647 1142.39 896.647 1138.25 Q896.647 1133.22 900.212 1130.48 Q903.776 1127.74 910.333 1127.74 Q913.58 1127.74 916.444 1128.22 Q919.309 1128.7 921.728 1129.65 Z" fill="#000000" fill-rule="evenodd" fill-opacity="1" /><path clip-path="url(#clip850)" d="M 0 0 M960.272 1144.96 L960.272 1147.83 L933.345 1147.83 Q933.727 1153.88 936.973 1157.06 Q940.252 1160.21 946.076 1160.21 Q949.45 1160.21 952.601 1159.38 Q955.784 1158.55 958.903 1156.9 L958.903 1162.44 Q955.752 1163.77 952.442 1164.47 Q949.132 1165.17 945.726 1165.17 Q937.196 1165.17 932.199 1160.21 Q927.234 1155.24 927.234 1146.78 Q927.234 1138.03 931.945 1132.9 Q936.687 1127.74 944.708 1127.74 Q951.901 1127.74 956.071 1132.39 Q960.272 1137.01 960.272 1144.96 M954.416 1143.25 Q954.352 1138.44 951.71 1135.57 Q949.1 1132.71 944.771 1132.71 Q939.87 1132.71 936.91 1135.48 Q933.982 1138.25 933.536 1143.28 L954.416 1143.25 Z" fill="#000000" fill-rule="evenodd" fill-opacity="1" /><path clip-path="url(#clip850)" d="M 0 0 M987.072 1134.08 Q986.085 1133.51 984.907 1133.25 Q983.761 1132.96 982.361 1132.96 Q977.396 1132.96 974.722 1136.21 Q972.08 1139.43 972.08 1145.47 L972.08 1164.25 L966.192 1164.25 L966.192 1128.6 L972.08 1128.6 L972.08 1134.14 Q973.926 1130.9 976.886 1129.34 Q979.847 1127.74 984.08 1127.74 Q984.684 1127.74 985.417 1127.84 Q986.149 1127.9 987.04 1128.06 L987.072 1134.08 Z" fill="#000000" fill-rule="evenodd" fill-opacity="1" /><path clip-path="url(#clip850)" d="M 0 0 M989.013 1128.6 L995.22 1128.6 L1006.36 1158.52 L1017.5 1128.6 L1023.71 1128.6 L1010.34 1164.25 L1002.38 1164.25 L989.013 1128.6 Z" fill="#000000" fill-rule="evenodd" fill-opacity="1" /><path clip-path="url(#clip850)" d="M 0 0 M1060.34 1144.96 L1060.34 1147.83 L1033.41 1147.83 Q1033.8 1153.88 1037.04 1157.06 Q1040.32 1160.21 1046.15 1160.21 Q1049.52 1160.21 1052.67 1159.38 Q1055.85 1158.55 1058.97 1156.9 L1058.97 1162.44 Q1055.82 1163.77 1052.51 1164.47 Q1049.2 1165.17 1045.8 1165.17 Q1037.27 1165.17 1032.27 1160.21 Q1027.3 1155.24 1027.3 1146.78 Q1027.3 1138.03 1032.01 1132.9 Q1036.76 1127.74 1044.78 1127.74 Q1051.97 1127.74 1056.14 1132.39 Q1060.34 1137.01 1060.34 1144.96 M1054.48 1143.25 Q1054.42 1138.44 1051.78 1135.57 Q1049.17 1132.71 1044.84 1132.71 Q1039.94 1132.71 1036.98 1135.48 Q1034.05 1138.25 1033.6 1143.28 L1054.48 1143.25 Z" fill="#000000" fill-rule="evenodd" fill-opacity="1" /><path clip-path="url(#clip850)" d="M 0 0 M1089.94 1134.01 L1089.94 1114.73 L1095.8 1114.73 L1095.8 1164.25 L1089.94 1164.25 L1089.94 1158.9 Q1088.1 1162.09 1085.26 1163.65 Q1082.46 1165.17 1078.51 1165.17 Q1072.05 1165.17 1067.98 1160.02 Q1063.94 1154.86 1063.94 1146.46 Q1063.94 1138.06 1067.98 1132.9 Q1072.05 1127.74 1078.51 1127.74 Q1082.46 1127.74 1085.26 1129.3 Q1088.1 1130.83 1089.94 1134.01 M1069.98 1146.46 Q1069.98 1152.92 1072.63 1156.61 Q1075.3 1160.27 1079.95 1160.27 Q1084.59 1160.27 1087.27 1156.61 Q1089.94 1152.92 1089.94 1146.46 Q1089.94 1140 1087.27 1136.34 Q1084.59 1132.65 1079.95 1132.65 Q1075.3 1132.65 1072.63 1136.34 Q1069.98 1140 1069.98 1146.46 Z" fill="#000000" fill-rule="evenodd" fill-opacity="1" /><path clip-path="url(#clip850)" d="M 0 0 M1140.71 1114.73 L1140.71 1119.6 L1135.11 1119.6 Q1131.96 1119.6 1130.71 1120.87 Q1129.5 1122.14 1129.5 1125.45 L1129.5 1128.6 L1139.15 1128.6 L1139.15 1133.16 L1129.5 1133.16 L1129.5 1164.25 L1123.62 1164.25 L1123.62 1133.16 L1118.01 1133.16 L1118.01 1128.6 L1123.62 1128.6 L1123.62 1126.12 Q1123.62 1120.17 1126.39 1117.46 Q1129.15 1114.73 1135.17 1114.73 L1140.71 1114.73 Z" fill="#000000" fill-rule="evenodd" fill-opacity="1" /><path clip-path="url(#clip850)" d="M 0 0 M1167.51 1134.08 Q1166.52 1133.51 1165.34 1133.25 Q1164.2 1132.96 1162.8 1132.96 Q1157.83 1132.96 1155.16 1136.21 Q1152.52 1139.43 1152.52 1145.47 L1152.52 1164.25 L1146.63 1164.25 L1146.63 1128.6 L1152.52 1128.6 L1152.52 1134.14 Q1154.36 1130.9 1157.32 1129.34 Q1160.28 1127.74 1164.52 1127.74 Q1165.12 1127.74 1165.85 1127.84 Q1166.58 1127.9 1167.48 1128.06 L1167.51 1134.08 Z" fill="#000000" fill-rule="evenodd" fill-opacity="1" /><path clip-path="url(#clip850)" d="M 0 0 M1202.71 1144.96 L1202.71 1147.83 L1175.78 1147.83 Q1176.16 1153.88 1179.41 1157.06 Q1182.69 1160.21 1188.51 1160.21 Q1191.89 1160.21 1195.04 1159.38 Q1198.22 1158.55 1201.34 1156.9 L1201.34 1162.44 Q1198.19 1163.77 1194.88 1164.47 Q1191.57 1165.17 1188.16 1165.17 Q1179.63 1165.17 1174.64 1160.21 Q1169.67 1155.24 1169.67 1146.78 Q1169.67 1138.03 1174.38 1132.9 Q1179.12 1127.74 1187.15 1127.74 Q1194.34 1127.74 1198.51 1132.39 Q1202.71 1137.01 1202.71 1144.96 M1196.85 1143.25 Q1196.79 1138.44 1194.15 1135.57 Q1191.54 1132.71 1187.21 1132.71 Q1182.31 1132.71 1179.35 1135.48 Q1176.42 1138.25 1175.97 1143.28 L1196.85 1143.25 Z" fill="#000000" fill-rule="evenodd" fill-opacity="1" /><path clip-path="url(#clip850)" d="M 0 0 M1212.35 1146.46 Q1212.35 1152.92 1215 1156.61 Q1217.67 1160.27 1222.32 1160.27 Q1226.96 1160.27 1229.64 1156.61 Q1232.31 1152.92 1232.31 1146.46 Q1232.31 1140 1229.64 1136.34 Q1226.96 1132.65 1222.32 1132.65 Q1217.67 1132.65 1215 1136.34 Q1212.35 1140 1212.35 1146.46 M1232.31 1158.9 Q1230.46 1162.09 1227.63 1163.65 Q1224.83 1165.17 1220.88 1165.17 Q1214.42 1165.17 1210.35 1160.02 Q1206.31 1154.86 1206.31 1146.46 Q1206.31 1138.06 1210.35 1132.9 Q1214.42 1127.74 1220.88 1127.74 Q1224.83 1127.74 1227.63 1129.3 Q1230.46 1130.83 1232.31 1134.01 L1232.31 1128.6 L1238.17 1128.6 L1238.17 1177.81 L1232.31 1177.81 L1232.31 1158.9 Z" fill="#000000" fill-rule="evenodd" fill-opacity="1" /><path clip-path="url(#clip850)" d="M 0 0 M1243.71 1150.18 L1243.71 1128.6 L1249.56 1128.6 L1249.56 1149.96 Q1249.56 1155.02 1251.53 1157.57 Q1253.51 1160.08 1257.45 1160.08 Q1262.2 1160.08 1264.93 1157.06 Q1267.7 1154.03 1267.7 1148.82 L1267.7 1128.6 L1273.56 1128.6 L1273.56 1164.25 L1267.7 1164.25 L1267.7 1158.78 Q1265.57 1162.02 1262.74 1163.62 Q1259.94 1165.17 1256.21 1165.17 Q1250.07 1165.17 1246.89 1161.36 Q1243.71 1157.54 1243.71 1150.18 M1258.44 1127.74 L1258.44 1127.74 Z" fill="#000000" fill-rule="evenodd" fill-opacity="1" /><path clip-path="url(#clip850)" d="M 0 0 M1310.19 1144.96 L1310.19 1147.83 L1283.27 1147.83 Q1283.65 1153.88 1286.9 1157.06 Q1290.17 1160.21 1296 1160.21 Q1299.37 1160.21 1302.52 1159.38 Q1305.71 1158.55 1308.83 1156.9 L1308.83 1162.44 Q1305.68 1163.77 1302.37 1164.47 Q1299.05 1165.17 1295.65 1165.17 Q1287.12 1165.17 1282.12 1160.21 Q1277.16 1155.24 1277.16 1146.78 Q1277.16 1138.03 1281.87 1132.9 Q1286.61 1127.74 1294.63 1127.74 Q1301.82 1127.74 1305.99 1132.39 Q1310.19 1137.01 1310.19 1144.96 M1304.34 1143.25 Q1304.27 1138.44 1301.63 1135.57 Q1299.02 1132.71 1294.69 1132.71 Q1289.79 1132.71 1286.83 1135.48 Q1283.9 1138.25 1283.46 1143.28 L1304.34 1143.25 Z" fill="#000000" fill-rule="evenodd" fill-opacity="1" /><path clip-path="url(#clip850)" d="M 0 0 M1345.97 1142.74 L1345.97 1164.25 L1340.11 1164.25 L1340.11 1142.93 Q1340.11 1137.87 1338.14 1135.35 Q1336.17 1132.84 1332.22 1132.84 Q1327.48 1132.84 1324.74 1135.86 Q1322 1138.88 1322 1144.1 L1322 1164.25 L1316.11 1164.25 L1316.11 1128.6 L1322 1128.6 L1322 1134.14 Q1324.1 1130.93 1326.94 1129.34 Q1329.8 1127.74 1333.53 1127.74 Q1339.67 1127.74 1342.82 1131.56 Q1345.97 1135.35 1345.97 1142.74 Z" fill="#000000" fill-rule="evenodd" fill-opacity="1" /><path clip-path="url(#clip850)" d="M 0 0 M1377.77 1129.97 L1377.77 1135.45 Q1375.28 1134.08 1372.77 1133.41 Q1370.29 1132.71 1367.74 1132.71 Q1362.04 1132.71 1358.89 1136.34 Q1355.74 1139.93 1355.74 1146.46 Q1355.74 1152.98 1358.89 1156.61 Q1362.04 1160.21 1367.74 1160.21 Q1370.29 1160.21 1372.77 1159.54 Q1375.28 1158.84 1377.77 1157.47 L1377.77 1162.88 Q1375.32 1164.03 1372.67 1164.6 Q1370.06 1165.17 1367.1 1165.17 Q1359.05 1165.17 1354.31 1160.11 Q1349.57 1155.05 1349.57 1146.46 Q1349.57 1137.74 1354.34 1132.74 Q1359.15 1127.74 1367.49 1127.74 Q1370.19 1127.74 1372.77 1128.32 Q1375.35 1128.86 1377.77 1129.97 Z" fill="#000000" fill-rule="evenodd" fill-opacity="1" /><path clip-path="url(#clip850)" d="M 0 0 M1398.74 1167.56 Q1396.26 1173.93 1393.9 1175.87 Q1391.55 1177.81 1387.6 1177.81 L1382.92 1177.81 L1382.92 1172.91 L1386.36 1172.91 Q1388.78 1172.91 1390.12 1171.76 Q1391.45 1170.62 1393.08 1166.35 L1394.13 1163.68 L1379.71 1128.6 L1385.91 1128.6 L1397.05 1156.49 L1408.19 1128.6 L1414.4 1128.6 L1398.74 1167.56 Z" fill="#000000" fill-rule="evenodd" fill-opacity="1" /><path clip-path="url(#clip850)" d="M 0 0 M1419.62 1114.79 L1424.71 1114.79 Q1429.49 1122.3 1431.84 1129.5 Q1434.23 1136.69 1434.23 1143.79 Q1434.23 1150.92 1431.84 1158.14 Q1429.49 1165.37 1424.71 1172.85 L1419.62 1172.85 Q1423.85 1165.56 1425.92 1158.36 Q1428.02 1151.14 1428.02 1143.79 Q1428.02 1136.43 1425.92 1129.27 Q1423.85 1122.11 1419.62 1114.79 Z" fill="#000000" fill-rule="evenodd" fill-opacity="1" /><polyline clip-path="url(#clip852)" style="stroke:#000000; stroke-width:2; stroke-opacity:0.1; fill:none" points="
  202.364,1035.39 1952.76,1035.39 
  "/>
<polyline clip-path="url(#clip852)" style="stroke:#000000; stroke-width:2; stroke-opacity:0.1; fill:none" points="
  202.364,843.047 1952.76,843.047 
  "/>
<polyline clip-path="url(#clip852)" style="stroke:#000000; stroke-width:2; stroke-opacity:0.1; fill:none" points="
  202.364,650.706 1952.76,650.706 
  "/>
<polyline clip-path="url(#clip852)" style="stroke:#000000; stroke-width:2; stroke-opacity:0.1; fill:none" points="
  202.364,458.365 1952.76,458.365 
  "/>
<polyline clip-path="url(#clip852)" style="stroke:#000000; stroke-width:2; stroke-opacity:0.1; fill:none" points="
  202.364,266.024 1952.76,266.024 
  "/>
<polyline clip-path="url(#clip850)" style="stroke:#000000; stroke-width:4; stroke-opacity:1; fill:none" points="
  202.364,1035.39 202.364,117.424 
  "/>
<polyline clip-path="url(#clip850)" style="stroke:#000000; stroke-width:4; stroke-opacity:1; fill:none" points="
  202.364,1035.39 223.369,1035.39 
  "/>
<polyline clip-path="url(#clip850)" style="stroke:#000000; stroke-width:4; stroke-opacity:1; fill:none" points="
  202.364,843.047 223.369,843.047 
  "/>
<polyline clip-path="url(#clip850)" style="stroke:#000000; stroke-width:4; stroke-opacity:1; fill:none" points="
  202.364,650.706 223.369,650.706 
  "/>
<polyline clip-path="url(#clip850)" style="stroke:#000000; stroke-width:4; stroke-opacity:1; fill:none" points="
  202.364,458.365 223.369,458.365 
  "/>
<polyline clip-path="url(#clip850)" style="stroke:#000000; stroke-width:4; stroke-opacity:1; fill:none" points="
  202.364,266.024 223.369,266.024 
  "/>
<path clip-path="url(#clip850)" d="M 0 0 M123.453 1021.19 Q119.841 1021.19 118.013 1024.75 Q116.207 1028.29 116.207 1035.42 Q116.207 1042.53 118.013 1046.09 Q119.841 1049.64 123.453 1049.64 Q127.087 1049.64 128.892 1046.09 Q130.721 1042.53 130.721 1035.42 Q130.721 1028.29 128.892 1024.75 Q127.087 1021.19 123.453 1021.19 M123.453 1017.48 Q129.263 1017.48 132.318 1022.09 Q135.397 1026.67 135.397 1035.42 Q135.397 1044.15 132.318 1048.76 Q129.263 1053.34 123.453 1053.34 Q117.642 1053.34 114.564 1048.76 Q111.508 1044.15 111.508 1035.42 Q111.508 1026.67 114.564 1022.09 Q117.642 1017.48 123.453 1017.48 Z" fill="#000000" fill-rule="evenodd" fill-opacity="1" /><path clip-path="url(#clip850)" d="M 0 0 M140.466 1046.79 L145.351 1046.79 L145.351 1052.67 L140.466 1052.67 L140.466 1046.79 Z" fill="#000000" fill-rule="evenodd" fill-opacity="1" /><path clip-path="url(#clip850)" d="M 0 0 M160.42 1021.19 Q156.809 1021.19 154.98 1024.75 Q153.175 1028.29 153.175 1035.42 Q153.175 1042.53 154.98 1046.09 Q156.809 1049.64 160.42 1049.64 Q164.054 1049.64 165.86 1046.09 Q167.688 1042.53 167.688 1035.42 Q167.688 1028.29 165.86 1024.75 Q164.054 1021.19 160.42 1021.19 M160.42 1017.48 Q166.23 1017.48 169.286 1022.09 Q172.364 1026.67 172.364 1035.42 Q172.364 1044.15 169.286 1048.76 Q166.23 1053.34 160.42 1053.34 Q154.61 1053.34 151.531 1048.76 Q148.476 1044.15 148.476 1035.42 Q148.476 1026.67 151.531 1022.09 Q154.61 1017.48 160.42 1017.48 Z" fill="#000000" fill-rule="evenodd" fill-opacity="1" /><path clip-path="url(#clip850)" d="M 0 0 M124.448 828.846 Q120.837 828.846 119.008 832.41 Q117.203 835.952 117.203 843.082 Q117.203 850.188 119.008 853.753 Q120.837 857.295 124.448 857.295 Q128.082 857.295 129.888 853.753 Q131.716 850.188 131.716 843.082 Q131.716 835.952 129.888 832.41 Q128.082 828.846 124.448 828.846 M124.448 825.142 Q130.258 825.142 133.314 829.748 Q136.392 834.332 136.392 843.082 Q136.392 851.809 133.314 856.415 Q130.258 860.998 124.448 860.998 Q118.638 860.998 115.559 856.415 Q112.504 851.809 112.504 843.082 Q112.504 834.332 115.559 829.748 Q118.638 825.142 124.448 825.142 Z" fill="#000000" fill-rule="evenodd" fill-opacity="1" /><path clip-path="url(#clip850)" d="M 0 0 M141.462 854.447 L146.346 854.447 L146.346 860.327 L141.462 860.327 L141.462 854.447 Z" fill="#000000" fill-rule="evenodd" fill-opacity="1" /><path clip-path="url(#clip850)" d="M 0 0 M151.462 825.767 L169.818 825.767 L169.818 829.702 L155.744 829.702 L155.744 838.174 Q156.763 837.827 157.781 837.665 Q158.8 837.48 159.818 837.48 Q165.605 837.48 168.985 840.651 Q172.364 843.822 172.364 849.239 Q172.364 854.818 168.892 857.92 Q165.42 860.998 159.1 860.998 Q156.925 860.998 154.656 860.628 Q152.411 860.258 150.003 859.517 L150.003 854.818 Q152.087 855.952 154.309 856.508 Q156.531 857.063 159.008 857.063 Q163.013 857.063 165.35 854.957 Q167.688 852.85 167.688 849.239 Q167.688 845.628 165.35 843.522 Q163.013 841.415 159.008 841.415 Q157.133 841.415 155.258 841.832 Q153.406 842.248 151.462 843.128 L151.462 825.767 Z" fill="#000000" fill-rule="evenodd" fill-opacity="1" /><path clip-path="url(#clip850)" d="M 0 0 M115.49 664.051 L123.128 664.051 L123.128 637.685 L114.818 639.352 L114.818 635.093 L123.082 633.426 L127.758 633.426 L127.758 664.051 L135.397 664.051 L135.397 667.986 L115.49 667.986 L115.49 664.051 Z" fill="#000000" fill-rule="evenodd" fill-opacity="1" /><path clip-path="url(#clip850)" d="M 0 0 M140.466 662.107 L145.351 662.107 L145.351 667.986 L140.466 667.986 L140.466 662.107 Z" fill="#000000" fill-rule="evenodd" fill-opacity="1" /><path clip-path="url(#clip850)" d="M 0 0 M160.42 636.505 Q156.809 636.505 154.98 640.07 Q153.175 643.611 153.175 650.741 Q153.175 657.847 154.98 661.412 Q156.809 664.954 160.42 664.954 Q164.054 664.954 165.86 661.412 Q167.688 657.847 167.688 650.741 Q167.688 643.611 165.86 640.07 Q164.054 636.505 160.42 636.505 M160.42 632.801 Q166.23 632.801 169.286 637.408 Q172.364 641.991 172.364 650.741 Q172.364 659.468 169.286 664.074 Q166.23 668.657 160.42 668.657 Q154.61 668.657 151.531 664.074 Q148.476 659.468 148.476 650.741 Q148.476 641.991 151.531 637.408 Q154.61 632.801 160.42 632.801 Z" fill="#000000" fill-rule="evenodd" fill-opacity="1" /><path clip-path="url(#clip850)" d="M 0 0 M116.485 471.71 L124.124 471.71 L124.124 445.345 L115.814 447.011 L115.814 442.752 L124.078 441.085 L128.753 441.085 L128.753 471.71 L136.392 471.71 L136.392 475.645 L116.485 475.645 L116.485 471.71 Z" fill="#000000" fill-rule="evenodd" fill-opacity="1" /><path clip-path="url(#clip850)" d="M 0 0 M141.462 469.766 L146.346 469.766 L146.346 475.645 L141.462 475.645 L141.462 469.766 Z" fill="#000000" fill-rule="evenodd" fill-opacity="1" /><path clip-path="url(#clip850)" d="M 0 0 M151.462 441.085 L169.818 441.085 L169.818 445.02 L155.744 445.02 L155.744 453.493 Q156.763 453.145 157.781 452.983 Q158.8 452.798 159.818 452.798 Q165.605 452.798 168.985 455.97 Q172.364 459.141 172.364 464.557 Q172.364 470.136 168.892 473.238 Q165.42 476.317 159.1 476.317 Q156.925 476.317 154.656 475.946 Q152.411 475.576 150.003 474.835 L150.003 470.136 Q152.087 471.27 154.309 471.826 Q156.531 472.381 159.008 472.381 Q163.013 472.381 165.35 470.275 Q167.688 468.169 167.688 464.557 Q167.688 460.946 165.35 458.84 Q163.013 456.733 159.008 456.733 Q157.133 456.733 155.258 457.15 Q153.406 457.567 151.462 458.446 L151.462 441.085 Z" fill="#000000" fill-rule="evenodd" fill-opacity="1" /><path clip-path="url(#clip850)" d="M 0 0 M119.078 279.369 L135.397 279.369 L135.397 283.304 L113.453 283.304 L113.453 279.369 Q116.115 276.615 120.698 271.985 Q125.304 267.332 126.485 265.99 Q128.73 263.467 129.61 261.731 Q130.513 259.971 130.513 258.281 Q130.513 255.527 128.568 253.791 Q126.647 252.055 123.545 252.055 Q121.346 252.055 118.892 252.819 Q116.462 253.582 113.684 255.133 L113.684 250.411 Q116.508 249.277 118.962 248.698 Q121.416 248.119 123.453 248.119 Q128.823 248.119 132.017 250.805 Q135.212 253.49 135.212 257.981 Q135.212 260.11 134.402 262.031 Q133.615 263.93 131.508 266.522 Q130.929 267.193 127.828 270.411 Q124.726 273.605 119.078 279.369 Z" fill="#000000" fill-rule="evenodd" fill-opacity="1" /><path clip-path="url(#clip850)" d="M 0 0 M140.466 277.425 L145.351 277.425 L145.351 283.304 L140.466 283.304 L140.466 277.425 Z" fill="#000000" fill-rule="evenodd" fill-opacity="1" /><path clip-path="url(#clip850)" d="M 0 0 M160.42 251.823 Q156.809 251.823 154.98 255.388 Q153.175 258.93 153.175 266.059 Q153.175 273.166 154.98 276.73 Q156.809 280.272 160.42 280.272 Q164.054 280.272 165.86 276.73 Q167.688 273.166 167.688 266.059 Q167.688 258.93 165.86 255.388 Q164.054 251.823 160.42 251.823 M160.42 248.119 Q166.23 248.119 169.286 252.726 Q172.364 257.309 172.364 266.059 Q172.364 274.786 169.286 279.392 Q166.23 283.976 160.42 283.976 Q154.61 283.976 151.531 279.392 Q148.476 274.786 148.476 266.059 Q148.476 257.309 151.531 252.726 Q154.61 248.119 160.42 248.119 Z" fill="#000000" fill-rule="evenodd" fill-opacity="1" /><path clip-path="url(#clip850)" d="M 0 0 M37.727 805.89 L37.727 800.033 L87.2522 800.033 L87.2522 805.89 L37.727 805.89 Z" fill="#000000" fill-rule="evenodd" fill-opacity="1" /><path clip-path="url(#clip850)" d="M 0 0 M55.7101 780.077 Q55.7101 784.787 59.4022 787.525 Q63.0625 790.262 69.46 790.262 Q75.8575 790.262 79.5497 787.556 Q83.2099 784.819 83.2099 780.077 Q83.2099 775.398 79.5178 772.661 Q75.8257 769.923 69.46 769.923 Q63.1261 769.923 59.434 772.661 Q55.7101 775.398 55.7101 780.077 M50.7448 780.077 Q50.7448 772.438 55.7101 768.077 Q60.6753 763.717 69.46 763.717 Q78.2129 763.717 83.2099 768.077 Q88.1752 772.438 88.1752 780.077 Q88.1752 787.747 83.2099 792.108 Q78.2129 796.437 69.46 796.437 Q60.6753 796.437 55.7101 792.108 Q50.7448 787.747 50.7448 780.077 Z" fill="#000000" fill-rule="evenodd" fill-opacity="1" /><path clip-path="url(#clip850)" d="M 0 0 M69.0144 734.116 Q62.6487 734.116 59.1476 736.758 Q55.6464 739.368 55.6464 744.111 Q55.6464 748.821 59.1476 751.463 Q62.6487 754.073 69.0144 754.073 Q75.3483 754.073 78.8494 751.463 Q82.3506 748.821 82.3506 744.111 Q82.3506 739.368 78.8494 736.758 Q75.3483 734.116 69.0144 734.116 M82.828 728.26 Q91.931 728.26 96.3551 732.302 Q100.811 736.344 100.811 744.683 Q100.811 747.771 100.334 750.508 Q99.8881 753.245 98.9332 755.823 L93.2359 755.823 Q94.6364 753.245 95.3048 750.731 Q95.9732 748.216 95.9732 745.606 Q95.9732 739.846 92.9495 736.981 Q89.9576 734.116 83.8783 734.116 L80.9819 734.116 Q84.133 735.931 85.6926 738.763 Q87.2522 741.596 87.2522 745.543 Q87.2522 752.099 82.2551 756.11 Q77.258 760.12 69.0144 760.12 Q60.739 760.12 55.7419 756.11 Q50.7448 752.099 50.7448 745.543 Q50.7448 741.596 52.3044 738.763 Q53.864 735.931 57.0151 734.116 L51.6042 734.116 L51.6042 728.26 L82.828 728.26 Z" fill="#000000" fill-rule="evenodd" fill-opacity="1" /><path clip-path="url(#clip850)" d="M 0 0 M37.7906 708.049 Q45.1112 712.314 52.2726 714.383 Q59.434 716.452 66.7864 716.452 Q74.1388 716.452 81.3639 714.383 Q88.5571 712.282 95.8459 708.049 L95.8459 713.141 Q88.3662 717.916 81.1411 720.303 Q73.916 722.658 66.7864 722.658 Q59.6886 722.658 52.4954 720.303 Q45.3022 717.947 37.7906 713.141 L37.7906 708.049 Z" fill="#000000" fill-rule="evenodd" fill-opacity="1" /><path clip-path="url(#clip850)" d="M 0 0 M58.5746 674.724 L58.5746 683.986 L69.2054 686.66 L69.2054 677.334 L58.5746 674.724 M40.4642 679.499 L53.6731 682.809 L53.6731 673.515 L40.4642 670.173 L40.4642 665.08 L53.6731 668.359 L53.6731 658.428 L58.5746 658.428 L58.5746 669.6 L69.2054 672.21 L69.2054 662.088 L74.0751 662.088 L74.0751 673.451 L87.2522 676.761 L87.2522 681.854 L74.0751 678.576 L74.0751 687.901 L87.2522 691.18 L87.2522 696.304 L74.0751 692.994 L74.0751 703.02 L69.2054 703.02 L69.2054 691.816 L58.5746 689.143 L58.5746 699.391 L53.6731 699.391 L53.6731 687.901 L40.4642 684.655 L40.4642 679.499 Z" fill="#000000" fill-rule="evenodd" fill-opacity="1" /><path clip-path="url(#clip850)" d="M 0 0 M55.7101 617.751 Q55.7101 622.462 59.4022 625.199 Q63.0625 627.936 69.46 627.936 Q75.8575 627.936 79.5497 625.231 Q83.2099 622.494 83.2099 617.751 Q83.2099 613.072 79.5178 610.335 Q75.8257 607.598 69.46 607.598 Q63.1261 607.598 59.434 610.335 Q55.7101 613.072 55.7101 617.751 M50.7448 617.751 Q50.7448 610.112 55.7101 605.752 Q60.6753 601.391 69.46 601.391 Q78.2129 601.391 83.2099 605.752 Q88.1752 610.112 88.1752 617.751 Q88.1752 625.422 83.2099 629.782 Q78.2129 634.111 69.46 634.111 Q60.6753 634.111 55.7101 629.782 Q50.7448 625.422 50.7448 617.751 Z" fill="#000000" fill-rule="evenodd" fill-opacity="1" /><path clip-path="url(#clip850)" d="M 0 0 M37.727 577.202 L42.5967 577.202 L42.5967 582.804 Q42.5967 585.955 43.8699 587.196 Q45.143 588.405 48.4532 588.405 L51.6042 588.405 L51.6042 578.761 L56.1557 578.761 L56.1557 588.405 L87.2522 588.405 L87.2522 594.294 L56.1557 594.294 L56.1557 599.895 L51.6042 599.895 L51.6042 594.294 L49.1216 594.294 Q43.1696 594.294 40.4642 591.525 Q37.727 588.755 37.727 582.74 L37.727 577.202 Z" fill="#000000" fill-rule="evenodd" fill-opacity="1" /><path clip-path="url(#clip850)" d="M 0 0 M37.727 550.561 L37.727 544.673 L66.9774 544.673 L51.6042 527.199 L51.6042 519.719 L68.2824 538.626 L87.2522 518.924 L87.2522 526.563 L69.8419 544.673 L87.2522 544.673 L87.2522 550.561 L37.727 550.561 Z" fill="#000000" fill-rule="evenodd" fill-opacity="1" /><path clip-path="url(#clip850)" d="M 0 0 M58.4473 485.026 Q54.5006 482.83 52.6227 479.775 Q50.7448 476.719 50.7448 472.581 Q50.7448 467.011 54.6597 463.988 Q58.5428 460.964 65.7361 460.964 L87.2522 460.964 L87.2522 466.852 L65.927 466.852 Q60.8026 466.852 58.32 468.666 Q55.8374 470.481 55.8374 474.205 Q55.8374 478.756 58.8611 481.398 Q61.8848 484.04 67.1047 484.04 L87.2522 484.04 L87.2522 489.928 L65.927 489.928 Q60.7708 489.928 58.32 491.742 Q55.8374 493.556 55.8374 497.344 Q55.8374 501.832 58.8929 504.473 Q61.9166 507.115 67.1047 507.115 L87.2522 507.115 L87.2522 513.004 L51.6042 513.004 L51.6042 507.115 L57.1424 507.115 Q53.864 505.11 52.3044 502.309 Q50.7448 499.508 50.7448 495.657 Q50.7448 491.774 52.7182 489.068 Q54.6916 486.331 58.4473 485.026 Z" fill="#000000" fill-rule="evenodd" fill-opacity="1" /><path clip-path="url(#clip850)" d="M 0 0 M67.9641 424.329 L70.8286 424.329 L70.8286 451.256 Q76.8761 450.874 80.0589 447.628 Q83.2099 444.349 83.2099 438.525 Q83.2099 435.151 82.3824 432 Q81.5549 428.817 79.8998 425.698 L85.4379 425.698 Q86.7747 428.849 87.475 432.159 Q88.1752 435.469 88.1752 438.875 Q88.1752 447.405 83.2099 452.402 Q78.2447 457.367 69.7783 457.367 Q61.0254 457.367 55.9011 452.657 Q50.7448 447.914 50.7448 439.893 Q50.7448 432.7 55.3918 428.531 Q60.0069 424.329 67.9641 424.329 M66.2453 430.186 Q61.4392 430.249 58.5746 432.891 Q55.7101 435.501 55.7101 439.83 Q55.7101 444.731 58.4792 447.691 Q61.2482 450.62 66.2772 451.065 L66.2453 430.186 Z" fill="#000000" fill-rule="evenodd" fill-opacity="1" /><path clip-path="url(#clip850)" d="M 0 0 M57.0787 397.53 Q56.5058 398.516 56.2512 399.694 Q55.9647 400.84 55.9647 402.24 Q55.9647 407.206 59.2112 409.879 Q62.4259 412.521 68.4733 412.521 L87.2522 412.521 L87.2522 418.409 L51.6042 418.409 L51.6042 412.521 L57.1424 412.521 Q53.8959 410.675 52.3363 407.715 Q50.7448 404.755 50.7448 400.522 Q50.7448 399.917 50.8403 399.185 Q50.904 398.453 51.0631 397.561 L57.0787 397.53 Z" fill="#000000" fill-rule="evenodd" fill-opacity="1" /><path clip-path="url(#clip850)" d="M 0 0 M52.6545 368.661 L58.1927 368.661 Q56.9196 371.144 56.283 373.817 Q55.6464 376.491 55.6464 379.356 Q55.6464 383.716 56.9832 385.912 Q58.32 388.077 60.9936 388.077 Q63.0306 388.077 64.2083 386.517 Q65.3541 384.957 66.4045 380.247 L66.8501 378.242 Q68.1869 372.003 70.6377 369.393 Q73.0566 366.751 77.4171 366.751 Q82.3824 366.751 85.2788 370.698 Q88.1752 374.613 88.1752 381.488 Q88.1752 384.353 87.6023 387.472 Q87.0612 390.559 85.9472 393.997 L79.8998 393.997 Q81.5867 390.75 82.446 387.599 Q83.2736 384.448 83.2736 381.361 Q83.2736 377.223 81.8731 374.995 Q80.4409 372.767 77.8627 372.767 Q75.4756 372.767 74.2025 374.39 Q72.9293 375.982 71.7517 381.424 L71.2742 383.461 Q70.1284 388.904 67.7731 391.323 Q65.386 393.742 61.2482 393.742 Q56.2193 393.742 53.4821 390.177 Q50.7448 386.612 50.7448 380.056 Q50.7448 376.809 51.2223 373.945 Q51.6997 371.08 52.6545 368.661 Z" fill="#000000" fill-rule="evenodd" fill-opacity="1" /><path clip-path="url(#clip850)" d="M 0 0 M37.7906 361.532 L37.7906 356.439 Q45.3022 351.665 52.4954 349.309 Q59.6886 346.922 66.7864 346.922 Q73.916 346.922 81.1411 349.309 Q88.3662 351.665 95.8459 356.439 L95.8459 361.532 Q88.5571 357.298 81.3639 355.23 Q74.1388 353.129 66.7864 353.129 Q59.434 353.129 52.2726 355.23 Q45.1112 357.298 37.7906 361.532 Z" fill="#000000" fill-rule="evenodd" fill-opacity="1" /><path clip-path="url(#clip850)" d="M 0 0 M977.624 9.54393 L985.118 9.54393 L985.118 46.7717 L1007.36 27.2059 L1016.88 27.2059 L992.815 48.4326 L1017.89 72.576 L1008.17 72.576 L985.118 50.4176 L985.118 72.576 L977.624 72.576 L977.624 9.54393 Z" fill="#000000" fill-rule="evenodd" fill-opacity="1" /><path clip-path="url(#clip850)" d="M 0 0 M1053.05 34.9026 L1104.98 34.9026 L1104.98 41.7081 L1053.05 41.7081 L1053.05 34.9026 M1053.05 51.4303 L1104.98 51.4303 L1104.98 58.3168 L1053.05 58.3168 L1053.05 51.4303 Z" fill="#000000" fill-rule="evenodd" fill-opacity="1" /><path clip-path="url(#clip850)" d="M 0 0 M1165.02 39.9662 Q1170.89 41.222 1174.17 45.1919 Q1177.5 49.1618 1177.5 54.9951 Q1177.5 63.9476 1171.34 68.8492 Q1165.18 73.7508 1153.84 73.7508 Q1150.03 73.7508 1145.98 72.9811 Q1141.97 72.2519 1137.68 70.7531 L1137.68 62.8538 Q1141.08 64.8388 1145.13 65.8515 Q1149.18 66.8642 1153.6 66.8642 Q1161.29 66.8642 1165.3 63.826 Q1169.35 60.7879 1169.35 54.9951 Q1169.35 49.6479 1165.59 46.6502 Q1161.86 43.612 1155.18 43.612 L1148.13 43.612 L1148.13 36.8875 L1155.5 36.8875 Q1161.54 36.8875 1164.74 34.4975 Q1167.94 32.067 1167.94 27.5299 Q1167.94 22.8714 1164.61 20.4004 Q1161.33 17.8888 1155.18 17.8888 Q1151.81 17.8888 1147.96 18.618 Q1144.12 19.3471 1139.5 20.8865 L1139.5 13.5948 Q1144.16 12.2985 1148.21 11.6504 Q1152.3 11.0023 1155.9 11.0023 Q1165.22 11.0023 1170.65 15.2557 Q1176.08 19.4686 1176.08 26.6793 Q1176.08 31.7024 1173.2 35.1862 Q1170.33 38.6294 1165.02 39.9662 Z" fill="#000000" fill-rule="evenodd" fill-opacity="1" /><circle clip-path="url(#clip852)" cx="421.238" cy="502.106" r="14" fill="#009af9" fill-rule="evenodd" fill-opacity="1" stroke="#000000" stroke-opacity="1" stroke-width="2.4"/>
<circle clip-path="url(#clip852)" cx="1619.73" cy="768.747" r="14" fill="#009af9" fill-rule="evenodd" fill-opacity="1" stroke="#000000" stroke-opacity="1" stroke-width="2.4"/>
<circle clip-path="url(#clip852)" cx="816.819" cy="768.747" r="14" fill="#009af9" fill-rule="evenodd" fill-opacity="1" stroke="#000000" stroke-opacity="1" stroke-width="2.4"/>
<circle clip-path="url(#clip852)" cx="929.446" cy="1035.39" r="14" fill="#009af9" fill-rule="evenodd" fill-opacity="1" stroke="#000000" stroke-opacity="1" stroke-width="2.4"/>
<circle clip-path="url(#clip852)" cx="768.143" cy="1035.39" r="14" fill="#009af9" fill-rule="evenodd" fill-opacity="1" stroke="#000000" stroke-opacity="1" stroke-width="2.4"/>
<circle clip-path="url(#clip852)" cx="640.111" cy="768.747" r="14" fill="#009af9" fill-rule="evenodd" fill-opacity="1" stroke="#000000" stroke-opacity="1" stroke-width="2.4"/>
<circle clip-path="url(#clip852)" cx="1630.2" cy="612.772" r="14" fill="#009af9" fill-rule="evenodd" fill-opacity="1" stroke="#000000" stroke-opacity="1" stroke-width="2.4"/>
<circle clip-path="url(#clip852)" cx="549.27" cy="612.772" r="14" fill="#009af9" fill-rule="evenodd" fill-opacity="1" stroke="#000000" stroke-opacity="1" stroke-width="2.4"/>
<circle clip-path="url(#clip852)" cx="710.572" cy="612.772" r="14" fill="#009af9" fill-rule="evenodd" fill-opacity="1" stroke="#000000" stroke-opacity="1" stroke-width="2.4"/>
<circle clip-path="url(#clip852)" cx="1633.61" cy="768.747" r="14" fill="#009af9" fill-rule="evenodd" fill-opacity="1" stroke="#000000" stroke-opacity="1" stroke-width="2.4"/>
<circle clip-path="url(#clip852)" cx="1636.99" cy="1035.39" r="14" fill="#009af9" fill-rule="evenodd" fill-opacity="1" stroke="#000000" stroke-opacity="1" stroke-width="2.4"/>
<circle clip-path="url(#clip852)" cx="202.364" cy="502.106" r="14" fill="#009af9" fill-rule="evenodd" fill-opacity="1" stroke="#000000" stroke-opacity="1" stroke-width="2.4"/>
</svg>
