<?xml version="1.0" encoding="utf-8"?>
<svg xmlns="http://www.w3.org/2000/svg" xmlns:xlink="http://www.w3.org/1999/xlink" width="277.25" height="183" viewBox="0 0 1109 732">
<defs>
  <clipPath id="clip140">
    <rect x="0" y="0" width="1109" height="732"/>
  </clipPath>
</defs>
<path clip-path="url(#clip140)" d="
M0 732 L1109 732 L1109 0 L0 0  Z
  " fill="#ffffff" fill-rule="evenodd" fill-opacity="1"/>
<defs>
  <clipPath id="clip141">
    <rect x="221" y="0" width="777" height="732"/>
  </clipPath>
</defs>
<path clip-path="url(#clip140)" d="
M260.725 661.685 L875.113 661.685 L875.113 47.2465 L260.725 47.2465  Z
  " fill="#ffffff" fill-rule="evenodd" fill-opacity="1"/>
<defs>
  <clipPath id="clip142">
    <rect x="260" y="47" width="615" height="615"/>
  </clipPath>
</defs>
<polyline clip-path="url(#clip142)" style="stroke:#000000; stroke-width:4.0002; stroke-opacity:1; fill:none" points="
  593.724,573.908 592.198,571.646 590.676,569.384 589.163,567.121 587.663,564.857 586.182,562.592 584.722,560.324 583.29,558.055 581.888,555.783 580.523,553.509 
  579.197,551.231 577.916,548.95 576.684,546.665 575.506,544.375 574.386,542.081 573.328,539.782 572.337,537.478 571.418,535.168 570.574,532.852 569.811,530.53 
  569.133,528.2 568.543,525.864 568.048,523.521 567.65,521.169 567.356,518.81 567.168,516.442 567.087,514.065 567.109,511.681 567.229,509.288 567.442,506.888 
  567.745,504.481 568.132,502.068 568.6,499.648 569.144,497.222 569.759,494.79 570.441,492.353 571.186,489.911 571.989,487.464 572.845,485.013 573.75,482.559 
  574.7,480.1 575.69,477.639 576.715,475.175 577.772,472.708 578.856,470.239 579.962,467.768 581.086,465.296 582.223,462.823 583.369,460.349 584.52,457.875 
  
  "/>
<polyline clip-path="url(#clip142)" style="stroke:#000000; stroke-width:4.0002; stroke-opacity:1; fill:none" points="
  654.722,436.623 656.019,438.046 657.316,439.464 658.614,440.873 659.912,442.269 661.211,443.646 662.512,445.002 663.814,446.33 665.119,447.628 666.425,448.889 
  667.734,450.111 669.045,451.288 670.359,452.415 671.677,453.489 672.998,454.505 674.322,455.458 675.651,456.344 676.984,457.159 678.322,457.898 679.664,458.556 
  681.011,459.13 682.364,459.614 683.722,460.004 685.086,460.296 686.456,460.485 687.833,460.567 689.216,460.542 690.605,460.414 692,460.188 693.401,459.868 
  694.807,459.459 696.218,458.965 697.633,458.39 699.054,457.74 700.478,457.018 701.907,456.229 703.339,455.377 704.775,454.467 706.214,453.504 707.656,452.491 
  709.1,451.434 710.547,450.337 711.996,449.203 713.447,448.039 714.9,446.848 716.354,445.634 717.809,444.403 719.264,443.158 720.721,441.904 722.177,440.645 
  
  "/>
<polyline clip-path="url(#clip142)" style="stroke:#000000; stroke-width:4.0002; stroke-opacity:1; fill:none" points="
  654.722,436.623 653.679,438.342 652.634,440.057 651.586,441.763 650.535,443.456 649.478,445.132 648.415,446.787 647.344,448.416 646.264,450.015 645.173,451.579 
  644.071,453.105 642.956,454.589 641.827,456.025 640.682,457.409 639.52,458.738 638.341,460.007 637.141,461.212 635.921,462.348 634.679,463.412 633.414,464.398 
  632.123,465.303 630.807,466.122 629.464,466.851 628.092,467.486 626.691,468.022 625.258,468.456 623.794,468.787 622.301,469.02 620.778,469.158 619.229,469.206 
  617.654,469.169 616.054,469.05 614.431,468.854 612.785,468.585 611.119,468.248 609.434,467.846 607.73,467.385 606.009,466.867 604.273,466.299 602.523,465.683 
  600.76,465.024 598.985,464.327 597.199,463.596 595.405,462.834 593.603,462.047 591.794,461.238 589.98,460.412 588.162,459.574 586.342,458.727 584.52,457.875 
  
  "/>
<polyline clip-path="url(#clip142)" style="stroke:#000000; stroke-width:4.0002; stroke-opacity:1; fill:none" points="
  461.363,419.799 459.633,420.782 457.905,421.761 456.178,422.731 454.455,423.688 452.735,424.627 451.021,425.545 449.312,426.436 447.61,427.297 445.917,428.123 
  444.232,428.909 442.557,429.652 440.893,430.347 439.241,430.99 437.602,431.576 435.977,432.1 434.367,432.56 432.773,432.949 431.195,433.264 429.636,433.501 
  428.095,433.655 426.575,433.721 425.075,433.696 423.597,433.575 422.142,433.353 420.711,433.027 419.303,432.596 417.919,432.065 416.556,431.438 415.214,430.719 
  413.893,429.913 412.59,429.024 411.305,428.057 410.036,427.015 408.784,425.903 407.547,424.726 406.324,423.488 405.113,422.193 403.915,420.846 402.727,419.45 
  401.549,418.011 400.381,416.533 399.22,415.02 398.066,413.476 396.918,411.906 395.776,410.314 394.637,408.705 393.501,407.083 392.367,405.452 391.234,403.816 
  
  "/>
<polyline clip-path="url(#clip142)" style="stroke:#000000; stroke-width:4.0002; stroke-opacity:1; fill:none" points="
  461.363,419.799 462.927,420.729 464.491,421.655 466.051,422.572 467.608,423.476 469.159,424.363 470.704,425.229 472.241,426.069 473.77,426.879 475.287,427.654 
  476.794,428.392 478.287,429.086 479.766,429.733 481.229,430.329 482.676,430.869 484.104,431.349 485.513,431.764 486.901,432.112 488.268,432.386 489.611,432.583 
  490.929,432.699 492.222,432.729 493.487,432.669 494.724,432.515 495.931,432.262 497.107,431.907 498.252,431.449 499.367,430.892 500.454,430.241 501.513,429.5 
  502.547,428.673 503.556,427.765 504.542,426.78 505.505,425.722 506.448,424.596 507.372,423.405 508.277,422.154 509.166,420.847 510.039,419.489 510.898,418.084 
  511.744,416.636 512.578,415.15 513.402,413.629 514.217,412.078 515.024,410.502 515.824,408.904 516.62,407.289 517.411,405.661 518.2,404.024 518.988,402.384 
  
  "/>
<polyline clip-path="url(#clip142)" style="stroke:#000000; stroke-width:4.0002; stroke-opacity:1; fill:none" points="
  391.234,403.816 389.296,403.495 387.362,403.171 385.435,402.842 383.518,402.504 381.616,402.156 379.731,401.793 377.868,401.415 376.029,401.017 374.219,400.598 
  372.441,400.154 370.699,399.683 368.995,399.182 367.335,398.648 365.72,398.079 364.155,397.472 362.644,396.824 361.189,396.132 359.794,395.394 358.464,394.607 
  357.201,393.769 356.009,392.876 354.892,391.925 353.853,390.915 352.896,389.842 352.023,388.704 351.236,387.501 350.531,386.235 349.904,384.909 349.351,383.526 
  348.869,382.088 348.455,380.599 348.105,379.06 347.815,377.476 347.583,375.848 347.403,374.179 347.273,372.471 347.189,370.729 347.148,368.954 347.146,367.148 
  347.18,365.316 347.246,363.459 347.339,361.58 347.458,359.683 347.598,357.768 347.756,355.841 347.928,353.902 348.111,351.955 348.301,350.003 348.495,348.048 
  
  "/>
<polyline clip-path="url(#clip142)" style="stroke:#000000; stroke-width:4.0002; stroke-opacity:1; fill:none" points="
  348.495,348.048 350.364,346.023 352.229,343.998 354.085,341.97 355.929,339.939 357.755,337.904 359.559,335.863 361.337,333.817 363.085,331.762 364.797,329.7 
  366.471,327.628 368.101,325.546 369.683,323.452 371.213,321.345 372.687,319.225 374.1,317.09 375.447,314.939 376.724,312.772 377.928,310.587 379.054,308.383 
  380.096,306.158 381.052,303.913 381.916,301.646 382.685,299.356 383.353,297.042 383.917,294.702 384.377,292.337 384.737,289.949 385.001,287.537 385.174,285.103 
  385.26,282.648 385.263,280.173 385.188,277.679 385.038,275.168 384.82,272.639 384.535,270.095 384.19,267.536 383.789,264.964 383.335,262.379 382.833,259.782 
  382.288,257.175 381.704,254.558 381.084,251.934 380.435,249.301 379.759,246.663 379.062,244.019 378.347,241.371 377.619,238.72 376.882,236.066 376.141,233.412 
  
  "/>
<polyline clip-path="url(#clip142)" style="stroke:#000000; stroke-width:4.0002; stroke-opacity:1; fill:none" points="
  348.495,348.048 347.774,350.938 347.058,353.826 346.35,356.713 345.656,359.596 344.979,362.476 344.324,365.351 343.695,368.219 343.097,371.081 342.534,373.935 
  342.01,376.78 341.529,379.615 341.097,382.439 340.717,385.251 340.394,388.05 340.131,390.836 339.935,393.606 339.808,396.361 339.755,399.099 339.781,401.819 
  339.89,404.52 340.086,407.201 340.374,409.862 340.758,412.5 341.242,415.116 341.831,417.708 342.524,420.277 343.318,422.822 344.208,425.346 345.189,427.849 
  346.258,430.332 347.41,432.796 348.64,435.242 349.945,437.672 351.319,440.085 352.759,442.484 354.26,444.869 355.817,447.241 357.427,449.601 359.085,451.95 
  360.787,454.289 362.528,456.62 364.304,458.942 366.11,461.258 367.943,463.567 369.797,465.872 371.669,468.172 373.554,470.47 375.448,472.765 377.346,475.06 
  
  "/>
<polyline clip-path="url(#clip142)" style="stroke:#000000; stroke-width:4.0002; stroke-opacity:1; fill:none" points="
  376.141,233.412 378.21,231.916 380.274,230.417 382.331,228.916 384.374,227.409 386.402,225.896 388.408,224.374 390.39,222.842 392.343,221.298 394.263,219.74 
  396.145,218.167 397.986,216.577 399.782,214.968 401.528,213.338 403.22,211.687 404.854,210.012 406.426,208.31 407.932,206.582 409.368,204.825 410.729,203.037 
  412.011,201.217 413.211,199.362 414.323,197.472 415.345,195.544 416.272,193.577 417.099,191.569 417.827,189.52 418.46,187.432 419.002,185.306 419.457,183.145 
  419.829,180.95 420.123,178.722 420.342,176.463 420.491,174.176 420.573,171.861 420.594,169.52 420.556,167.156 420.465,164.77 420.324,162.363 420.137,159.937 
  419.91,157.494 419.645,155.036 419.346,152.564 419.019,150.081 418.667,147.587 418.294,145.084 417.905,142.575 417.504,140.061 417.094,137.543 416.679,135.023 
  
  "/>
<polyline clip-path="url(#clip142)" style="stroke:#000000; stroke-width:4.0002; stroke-opacity:1; fill:none" points="
  376.141,233.412 377.4,234.894 378.659,236.372 379.92,237.841 381.181,239.297 382.445,240.735 383.711,242.15 384.98,243.539 386.252,244.897 387.527,246.219 
  388.807,247.501 390.092,248.738 391.382,249.927 392.677,251.062 393.979,252.139 395.287,253.154 396.602,254.102 397.924,254.979 399.255,255.78 400.593,256.501 
  401.941,257.137 403.298,257.685 404.665,258.139 406.042,258.494 407.43,258.748 408.829,258.895 410.24,258.935 411.661,258.873 413.092,258.713 414.533,258.459 
  415.984,258.117 417.443,257.689 418.911,257.182 420.387,256.599 421.87,255.945 423.36,255.224 424.857,254.44 426.36,253.599 427.868,252.704 429.382,251.76 
  430.9,250.772 432.423,249.744 433.949,248.68 435.478,247.585 437.011,246.463 438.545,245.319 440.082,244.157 441.62,242.982 443.158,241.798 444.698,240.61 
  
  "/>
<polyline clip-path="url(#clip142)" style="stroke:#000000; stroke-width:4.0002; stroke-opacity:1; fill:none" points="
  416.679,135.023 417.87,136.819 419.061,138.611 420.255,140.394 421.454,142.164 422.657,143.917 423.868,145.649 425.087,147.356 426.316,149.032 427.555,150.675 
  428.807,152.279 430.073,153.841 431.354,155.355 432.651,156.819 433.967,158.227 435.301,159.576 436.657,160.86 438.034,162.077 439.435,163.221 440.86,164.289 
  442.312,165.275 443.791,166.176 445.299,166.988 446.837,167.706 448.407,168.327 450.01,168.845 451.646,169.261 453.314,169.579 455.012,169.803 456.739,169.938 
  458.493,169.988 460.274,169.957 462.079,169.849 463.908,169.669 465.758,169.421 467.63,169.108 469.52,168.736 471.429,168.309 473.354,167.831 475.294,167.305 
  477.248,166.737 479.215,166.131 481.192,165.491 483.179,164.821 485.174,164.125 487.176,163.408 489.184,162.674 491.196,161.927 493.21,161.172 495.226,160.413 
  
  "/>
<polyline clip-path="url(#clip142)" style="stroke:#000000; stroke-width:4.0002; stroke-opacity:1; fill:none" points="
  722.177,440.645 723.234,442.237 724.291,443.823 725.35,445.402 726.413,446.966 727.478,448.514 728.548,450.039 729.624,451.539 730.706,453.007 731.796,454.44 
  732.893,455.834 734,457.185 735.117,458.487 736.244,459.736 737.384,460.928 738.536,462.059 739.702,463.125 740.882,464.12 742.078,465.04 743.291,465.882 
  744.521,466.641 745.768,467.312 747.036,467.89 748.323,468.373 749.631,468.754 750.961,469.031 752.312,469.202 753.685,469.273 755.078,469.248 756.49,469.13 
  757.92,468.924 759.367,468.636 760.831,468.268 762.31,467.826 763.804,467.314 765.312,466.736 766.832,466.097 768.364,465.401 769.908,464.652 771.461,463.855 
  773.023,463.014 774.593,462.134 776.171,461.218 777.755,460.272 779.345,459.3 780.939,458.306 782.537,457.294 784.137,456.269 785.74,455.235 787.343,454.197 
  
  "/>
<polyline clip-path="url(#clip142)" style="stroke:#000000; stroke-width:4.0002; stroke-opacity:1; fill:none" points="
  518.988,402.384 519.457,404.541 519.93,406.695 520.409,408.842 520.896,410.978 521.394,413.102 521.908,415.208 522.438,417.293 522.989,419.355 523.563,421.389 
  524.163,423.392 524.792,425.362 525.452,427.294 526.148,429.184 526.881,431.031 527.654,432.829 528.471,434.577 529.334,436.269 530.246,437.904 531.211,439.477 
  532.23,440.985 533.307,442.425 534.445,443.793 535.647,445.086 536.915,446.3 538.252,447.432 539.659,448.483 541.132,449.455 542.669,450.352 544.267,451.177 
  545.922,451.934 547.633,452.626 549.395,453.256 551.207,453.829 553.065,454.346 554.966,454.813 556.908,455.231 558.887,455.606 560.901,455.939 562.947,456.234 
  565.022,456.496 567.123,456.726 569.247,456.93 571.391,457.109 573.553,457.268 575.729,457.41 577.916,457.538 580.113,457.656 582.315,457.767 584.52,457.875 
  
  "/>
<polyline clip-path="url(#clip142)" style="stroke:#000000; stroke-width:4.0002; stroke-opacity:1; fill:none" points="
  518.988,402.384 517.469,399.903 515.955,397.422 514.45,394.94 512.958,392.458 511.484,389.974 510.032,387.489 508.607,385.001 507.214,382.512 505.856,380.02 
  504.538,377.525 503.265,375.028 502.041,372.526 500.871,370.021 499.759,367.512 498.709,364.999 497.726,362.481 496.815,359.958 495.979,357.43 495.224,354.896 
  494.554,352.356 493.973,349.81 493.486,347.258 493.097,344.698 492.811,342.132 492.632,339.558 492.559,336.976 492.59,334.388 492.719,331.792 492.941,329.19 
  493.253,326.582 493.65,323.968 494.127,321.349 494.68,318.724 495.304,316.094 495.995,313.459 496.749,310.82 497.561,308.177 498.427,305.53 499.341,302.88 
  500.3,300.227 501.3,297.571 502.335,294.913 503.402,292.252 504.495,289.589 505.61,286.925 506.744,284.26 507.891,281.593 509.046,278.927 510.207,276.259 
  
  "/>
<polyline clip-path="url(#clip142)" style="stroke:#000000; stroke-width:4.0002; stroke-opacity:1; fill:none" points="
  518.988,402.384 518.906,405.06 518.82,407.734 518.726,410.404 518.621,413.066 518.501,415.719 518.362,418.36 518.2,420.987 518.012,423.598 517.793,426.189 
  517.54,428.759 517.249,431.306 516.916,433.827 516.537,436.319 516.109,438.781 515.628,441.209 515.089,443.602 514.49,445.958 513.827,448.273 513.094,450.545 
  512.29,452.773 511.409,454.953 510.449,457.084 509.405,459.163 508.274,461.188 507.051,463.156 505.737,465.067 504.336,466.924 502.852,468.729 501.287,470.485 
  499.646,472.193 497.934,473.856 496.152,475.477 494.306,477.057 492.4,478.6 490.436,480.108 488.419,481.582 486.352,483.026 484.24,484.441 482.086,485.83 
  479.894,487.196 477.668,488.54 475.412,489.866 473.129,491.175 470.823,492.469 468.498,493.752 466.157,495.026 463.806,496.292 461.447,497.554 459.084,498.813 
  
  "/>
<polyline clip-path="url(#clip142)" style="stroke:#000000; stroke-width:4.0002; stroke-opacity:1; fill:none" points="
  377.346,475.06 378.64,476.834 379.934,478.604 381.232,480.365 382.533,482.114 383.838,483.845 385.151,485.555 386.47,487.239 387.799,488.892 389.137,490.512 
  390.487,492.093 391.849,493.63 393.225,495.121 394.616,496.56 396.023,497.943 397.447,499.266 398.891,500.524 400.354,501.714 401.839,502.83 403.346,503.869 
  404.876,504.827 406.432,505.698 408.014,506.479 409.624,507.166 411.262,507.754 412.93,508.239 414.628,508.62 416.355,508.903 418.109,509.092 419.889,509.19 
  421.695,509.202 423.524,509.132 425.376,508.985 427.249,508.765 429.141,508.476 431.053,508.123 432.982,507.709 434.928,507.24 436.888,506.719 438.862,506.151 
  440.849,505.54 442.846,504.89 444.854,504.205 446.871,503.491 448.895,502.751 450.925,501.989 452.96,501.21 454.999,500.418 457.041,499.618 459.084,498.813 
  
  "/>
<polyline clip-path="url(#clip142)" style="stroke:#000000; stroke-width:4.0002; stroke-opacity:1; fill:none" points="
  510.207,276.259 508.569,274.067 506.936,271.875 505.312,269.681 503.702,267.486 502.109,265.288 500.538,263.087 498.994,260.883 497.481,258.675 496.004,256.462 
  494.566,254.245 493.173,252.021 491.829,249.791 490.538,247.554 489.304,245.31 488.133,243.058 487.029,240.797 485.995,238.527 485.037,236.247 484.159,233.957 
  483.365,231.656 482.66,229.343 482.048,227.018 481.534,224.681 481.122,222.331 480.816,219.967 480.617,217.589 480.519,215.197 480.52,212.794 480.613,210.378 
  480.796,207.95 481.063,205.512 481.409,203.064 481.831,200.605 482.324,198.138 482.884,195.661 483.506,193.177 484.186,190.686 484.919,188.187 485.7,185.682 
  486.526,183.172 487.392,180.656 488.294,178.136 489.227,175.611 490.186,173.083 491.167,170.553 492.167,168.02 493.179,165.485 494.201,162.949 495.226,160.413 
  
  "/>
<polyline clip-path="url(#clip142)" style="stroke:#000000; stroke-width:4.0002; stroke-opacity:1; fill:none" points="
  510.207,276.259 508.228,276.711 506.251,277.159 504.279,277.599 502.313,278.028 500.356,278.44 498.409,278.833 496.476,279.203 494.557,279.544 492.655,279.855 
  490.773,280.13 488.912,280.365 487.074,280.558 485.263,280.703 483.479,280.797 481.725,280.836 480.003,280.816 478.315,280.733 476.664,280.584 475.051,280.363 
  473.479,280.068 471.949,279.694 470.465,279.238 469.027,278.695 467.639,278.062 466.302,277.334 465.017,276.512 463.78,275.6 462.591,274.601 461.446,273.52 
  460.345,272.36 459.284,271.126 458.261,269.82 457.275,268.448 456.323,267.013 455.403,265.519 454.514,263.969 453.652,262.369 452.815,260.722 452.002,259.031 
  451.211,257.301 450.439,255.535 449.684,253.738 448.944,251.914 448.216,250.066 447.5,248.198 446.792,246.315 446.09,244.42 445.393,242.517 444.698,240.61 
  
  "/>
<path clip-path="url(#clip142)" d="
M604.875 573.908 L599.3 564.25 L588.148 564.25 L582.573 573.908 L588.148 583.566 L599.3 583.566 L604.875 573.908 L604.875 573.908  Z
  " fill="#009af9" fill-rule="evenodd" fill-opacity="1"/>
<polyline clip-path="url(#clip142)" style="stroke:#000000; stroke-width:4.0002; stroke-opacity:1; fill:none" points="
  604.875,573.908 599.3,564.25 588.148,564.25 582.573,573.908 588.148,583.566 599.3,583.566 604.875,573.908 
  "/>
<path clip-path="url(#clip142)" d="
M666.234 436.623 L660.478 426.653 L648.967 426.653 L643.211 436.623 L648.967 446.594 L660.478 446.594 L666.234 436.623 L666.234 436.623  Z
  " fill="#009af9" fill-rule="evenodd" fill-opacity="1"/>
<polyline clip-path="url(#clip142)" style="stroke:#000000; stroke-width:4.0002; stroke-opacity:1; fill:none" points="
  666.234,436.623 660.478,426.653 648.967,426.653 643.211,436.623 648.967,446.594 660.478,446.594 666.234,436.623 
  "/>
<path clip-path="url(#clip142)" d="
M472.695 419.799 L467.029 409.985 L455.697 409.985 L450.031 419.799 L455.697 429.613 L467.029 429.613 L472.695 419.799 L472.695 419.799  Z
  " fill="#009af9" fill-rule="evenodd" fill-opacity="1"/>
<polyline clip-path="url(#clip142)" style="stroke:#000000; stroke-width:4.0002; stroke-opacity:1; fill:none" points="
  472.695,419.799 467.029,409.985 455.697,409.985 450.031,419.799 455.697,429.613 467.029,429.613 472.695,419.799 
  "/>
<path clip-path="url(#clip142)" d="
M402.926 403.816 L397.08 393.69 L385.388 393.69 L379.542 403.816 L385.388 413.943 L397.08 413.943 L402.926 403.816 L402.926 403.816  Z
  " fill="#009af9" fill-rule="evenodd" fill-opacity="1"/>
<polyline clip-path="url(#clip142)" style="stroke:#000000; stroke-width:4.0002; stroke-opacity:1; fill:none" points="
  402.926,403.816 397.08,393.69 385.388,393.69 379.542,403.816 385.388,413.943 397.08,413.943 402.926,403.816 
  "/>
<path clip-path="url(#clip142)" d="
M377.301 348.048 L362.898 323.099 L334.091 323.099 L319.688 348.048 L334.091 372.997 L362.898 372.997 L377.301 348.048 L377.301 348.048  Z
  " fill="#009af9" fill-rule="evenodd" fill-opacity="1"/>
<polyline clip-path="url(#clip142)" style="stroke:#000000; stroke-width:4.0002; stroke-opacity:1; fill:none" points="
  377.301,348.048 362.898,323.099 334.091,323.099 319.688,348.048 334.091,372.997 362.898,372.997 377.301,348.048 
  "/>
<path clip-path="url(#clip142)" d="
M404.407 233.412 L390.274 208.931 L362.008 208.931 L347.875 233.412 L362.008 257.893 L390.274 257.893 L404.407 233.412 L404.407 233.412  Z
  " fill="#009af9" fill-rule="evenodd" fill-opacity="1"/>
<polyline clip-path="url(#clip142)" style="stroke:#000000; stroke-width:4.0002; stroke-opacity:1; fill:none" points="
  404.407,233.412 390.274,208.931 362.008,208.931 347.875,233.412 362.008,257.893 390.274,257.893 404.407,233.412 
  "/>
<path clip-path="url(#clip142)" d="
M428.732 135.023 L422.706 124.585 L410.653 124.585 L404.627 135.023 L410.653 145.462 L422.706 145.462 L428.732 135.023 L428.732 135.023  Z
  " fill="#009af9" fill-rule="evenodd" fill-opacity="1"/>
<polyline clip-path="url(#clip142)" style="stroke:#000000; stroke-width:4.0002; stroke-opacity:1; fill:none" points="
  428.732,135.023 422.706,124.585 410.653,124.585 404.627,135.023 410.653,145.462 422.706,145.462 428.732,135.023 
  "/>
<path clip-path="url(#clip142)" d="
M733.509 440.645 L727.843 430.831 L716.511 430.831 L710.846 440.645 L716.511 450.46 L727.843 450.46 L733.509 440.645 L733.509 440.645  Z
  " fill="#009af9" fill-rule="evenodd" fill-opacity="1"/>
<polyline clip-path="url(#clip142)" style="stroke:#000000; stroke-width:4.0002; stroke-opacity:1; fill:none" points="
  733.509,440.645 727.843,430.831 716.511,430.831 710.846,440.645 716.511,450.46 727.843,450.46 733.509,440.645 
  "/>
<path clip-path="url(#clip142)" d="
M547.974 402.384 L533.481 377.279 L504.494 377.279 L490.001 402.384 L504.494 427.489 L533.481 427.489 L547.974 402.384 L547.974 402.384  Z
  " fill="#009af9" fill-rule="evenodd" fill-opacity="1"/>
<polyline clip-path="url(#clip142)" style="stroke:#000000; stroke-width:4.0002; stroke-opacity:1; fill:none" points="
  547.974,402.384 533.481,377.279 504.494,377.279 490.001,402.384 504.494,427.489 533.481,427.489 547.974,402.384 
  "/>
<path clip-path="url(#clip142)" d="
M389.038 475.06 L383.192 464.934 L371.5 464.934 L365.654 475.06 L371.5 485.186 L383.192 485.186 L389.038 475.06 L389.038 475.06  Z
  " fill="#009af9" fill-rule="evenodd" fill-opacity="1"/>
<polyline clip-path="url(#clip142)" style="stroke:#000000; stroke-width:4.0002; stroke-opacity:1; fill:none" points="
  389.038,475.06 383.192,464.934 371.5,464.934 365.654,475.06 371.5,485.186 383.192,485.186 389.038,475.06 
  "/>
<path clip-path="url(#clip142)" d="
M613.146 457.875 L598.833 433.082 L570.207 433.082 L555.894 457.875 L570.207 482.668 L598.833 482.668 L613.146 457.875 L613.146 457.875  Z
  " fill="#009af9" fill-rule="evenodd" fill-opacity="1"/>
<polyline clip-path="url(#clip142)" style="stroke:#000000; stroke-width:4.0002; stroke-opacity:1; fill:none" points="
  613.146,457.875 598.833,433.082 570.207,433.082 555.894,457.875 570.207,482.668 598.833,482.668 613.146,457.875 
  "/>
<path clip-path="url(#clip142)" d="
M798.494 454.197 L792.919 444.539 L781.767 444.539 L776.192 454.197 L781.767 463.855 L792.919 463.855 L798.494 454.197 L798.494 454.197  Z
  " fill="#009af9" fill-rule="evenodd" fill-opacity="1"/>
<polyline clip-path="url(#clip142)" style="stroke:#000000; stroke-width:4.0002; stroke-opacity:1; fill:none" points="
  798.494,454.197 792.919,444.539 781.767,444.539 776.192,454.197 781.767,463.855 792.919,463.855 798.494,454.197 
  "/>
<path clip-path="url(#clip142)" d="
M538.112 276.259 L524.159 252.091 L496.254 252.091 L482.301 276.259 L496.254 300.428 L524.159 300.428 L538.112 276.259 L538.112 276.259  Z
  " fill="#009af9" fill-rule="evenodd" fill-opacity="1"/>
<polyline clip-path="url(#clip142)" style="stroke:#000000; stroke-width:4.0002; stroke-opacity:1; fill:none" points="
  538.112,276.259 524.159,252.091 496.254,252.091 482.301,276.259 496.254,300.428 524.159,300.428 538.112,276.259 
  "/>
<path clip-path="url(#clip142)" d="
M507.279 160.413 L501.252 149.974 L489.2 149.974 L483.174 160.413 L489.2 170.851 L501.252 170.851 L507.279 160.413 L507.279 160.413  Z
  " fill="#009af9" fill-rule="evenodd" fill-opacity="1"/>
<polyline clip-path="url(#clip142)" style="stroke:#000000; stroke-width:4.0002; stroke-opacity:1; fill:none" points="
  507.279,160.413 501.252,149.974 489.2,149.974 483.174,160.413 489.2,170.851 501.252,170.851 507.279,160.413 
  "/>
<path clip-path="url(#clip142)" d="
M470.775 498.813 L464.929 488.687 L453.238 488.687 L447.392 498.813 L453.238 508.94 L464.929 508.94 L470.775 498.813 L470.775 498.813  Z
  " fill="#009af9" fill-rule="evenodd" fill-opacity="1"/>
<polyline clip-path="url(#clip142)" style="stroke:#000000; stroke-width:4.0002; stroke-opacity:1; fill:none" points="
  470.775,498.813 464.929,488.687 453.238,488.687 447.392,498.813 453.238,508.94 464.929,508.94 470.775,498.813 
  "/>
<path clip-path="url(#clip142)" d="
M471.702 240.61 L458.2 217.221 L431.195 217.221 L417.693 240.61 L431.195 263.998 L458.2 263.998 L471.702 240.61 L471.702 240.61  Z
  " fill="#009af9" fill-rule="evenodd" fill-opacity="1"/>
<polyline clip-path="url(#clip142)" style="stroke:#000000; stroke-width:4.0002; stroke-opacity:1; fill:none" points="
  471.702,240.61 458.2,217.221 431.195,217.221 417.693,240.61 431.195,263.998 458.2,263.998 471.702,240.61 
  "/>
<circle clip-path="url(#clip142)" style="fill:#009af9; stroke:none; fill-opacity:1" cx="593.724" cy="573.908" r="2"/>
<circle clip-path="url(#clip142)" style="fill:#009af9; stroke:none; fill-opacity:1" cx="654.722" cy="436.623" r="2"/>
<circle clip-path="url(#clip142)" style="fill:#009af9; stroke:none; fill-opacity:1" cx="461.363" cy="419.799" r="2"/>
<circle clip-path="url(#clip142)" style="fill:#009af9; stroke:none; fill-opacity:1" cx="391.234" cy="403.816" r="2"/>
<circle clip-path="url(#clip142)" style="fill:#009af9; stroke:none; fill-opacity:1" cx="348.495" cy="348.048" r="2"/>
<circle clip-path="url(#clip142)" style="fill:#009af9; stroke:none; fill-opacity:1" cx="376.141" cy="233.412" r="2"/>
<circle clip-path="url(#clip142)" style="fill:#009af9; stroke:none; fill-opacity:1" cx="416.679" cy="135.023" r="2"/>
<circle clip-path="url(#clip142)" style="fill:#009af9; stroke:none; fill-opacity:1" cx="722.177" cy="440.645" r="2"/>
<circle clip-path="url(#clip142)" style="fill:#009af9; stroke:none; fill-opacity:1" cx="518.988" cy="402.384" r="2"/>
<circle clip-path="url(#clip142)" style="fill:#009af9; stroke:none; fill-opacity:1" cx="377.346" cy="475.06" r="2"/>
<circle clip-path="url(#clip142)" style="fill:#009af9; stroke:none; fill-opacity:1" cx="584.52" cy="457.875" r="2"/>
<circle clip-path="url(#clip142)" style="fill:#009af9; stroke:none; fill-opacity:1" cx="787.343" cy="454.197" r="2"/>
<circle clip-path="url(#clip142)" style="fill:#009af9; stroke:none; fill-opacity:1" cx="510.207" cy="276.259" r="2"/>
<circle clip-path="url(#clip142)" style="fill:#009af9; stroke:none; fill-opacity:1" cx="495.226" cy="160.413" r="2"/>
<circle clip-path="url(#clip142)" style="fill:#009af9; stroke:none; fill-opacity:1" cx="459.084" cy="498.813" r="2"/>
<circle clip-path="url(#clip142)" style="fill:#009af9; stroke:none; fill-opacity:1" cx="444.698" cy="240.61" r="2"/>
</svg>
