<?xml version="1.0" encoding="utf-8"?>
<svg xmlns="http://www.w3.org/2000/svg" xmlns:xlink="http://www.w3.org/1999/xlink" width="277.25" height="183" viewBox="0 0 1109 732">
<defs>
  <clipPath id="clip030">
    <rect x="0" y="0" width="1109" height="732"/>
  </clipPath>
</defs>
<path clip-path="url(#clip030)" d="
M0 732 L1109 732 L1109 0 L0 0  Z
  " fill="#ffffff" fill-rule="evenodd" fill-opacity="1"/>
<defs>
  <clipPath id="clip031">
    <rect x="221" y="0" width="777" height="732"/>
  </clipPath>
</defs>
<path clip-path="url(#clip030)" d="
M260.725 661.685 L875.113 661.685 L875.113 47.2465 L260.725 47.2465  Z
  " fill="#ffffff" fill-rule="evenodd" fill-opacity="1"/>
<defs>
  <clipPath id="clip032">
    <rect x="260" y="47" width="615" height="615"/>
  </clipPath>
</defs>
<polyline clip-path="url(#clip032)" style="stroke:#000000; stroke-width:4.0002; stroke-opacity:1; fill:none" points="
  590.972,153.615 591.694,155.851 592.413,158.086 593.123,160.318 593.82,162.546 594.5,164.769 595.159,166.986 595.792,169.195 596.395,171.395 596.963,173.584 
  597.493,175.761 597.981,177.926 598.421,180.076 598.81,182.211 599.143,184.328 599.416,186.427 599.625,188.507 599.765,190.566 599.833,192.603 599.824,194.616 
  599.733,196.605 599.556,198.567 599.29,200.502 598.929,202.408 598.47,204.285 597.909,206.13 597.245,207.944 596.482,209.728 595.625,211.483 594.678,213.211 
  593.645,214.913 592.532,216.59 591.341,218.243 590.077,219.875 588.745,221.485 587.348,223.076 585.892,224.649 584.38,226.205 582.816,227.745 581.206,229.271 
  579.552,230.783 577.86,232.284 576.134,233.775 574.378,235.257 572.596,236.73 570.793,238.197 568.972,239.659 567.139,241.117 565.297,242.573 563.451,244.027 
  
  "/>
<polyline clip-path="url(#clip032)" style="stroke:#000000; stroke-width:4.0002; stroke-opacity:1; fill:none" points="
  482.634,221.003 480.541,221.348 478.449,221.69 476.363,222.025 474.283,222.347 472.211,222.654 470.151,222.942 468.105,223.206 466.073,223.443 464.06,223.649 
  462.067,223.821 460.096,223.953 458.15,224.043 456.23,224.086 454.34,224.078 452.48,224.017 450.654,223.897 448.864,223.715 447.112,223.466 445.399,223.149 
  443.73,222.757 442.104,222.288 440.526,221.737 438.997,221.101 437.518,220.375 436.094,219.557 434.722,218.645 433.402,217.644 432.131,216.558 430.907,215.39 
  429.728,214.145 428.591,212.826 427.494,211.437 426.434,209.982 425.411,208.465 424.421,206.89 423.462,205.26 422.532,203.58 421.629,201.854 420.751,200.084 
  419.895,198.276 419.058,196.433 418.24,194.559 417.437,192.658 416.648,190.733 415.87,188.789 415.101,186.83 414.338,184.858 413.58,182.879 412.824,180.897 
  
  "/>
<polyline clip-path="url(#clip032)" style="stroke:#000000; stroke-width:4.0002; stroke-opacity:1; fill:none" points="
  482.634,221.003 483.916,222.764 485.198,224.521 486.484,226.269 487.772,228.005 489.066,229.723 490.366,231.42 491.673,233.09 492.989,234.731 494.315,236.337 
  495.651,237.905 497,239.43 498.363,240.907 499.74,242.332 501.133,243.702 502.543,245.011 503.972,246.255 505.42,247.431 506.889,248.534 508.38,249.559 
  509.895,250.502 511.434,251.359 512.998,252.126 514.59,252.798 516.21,253.371 517.859,253.841 519.538,254.208 521.245,254.476 522.979,254.649 524.738,254.731 
  526.523,254.728 528.33,254.642 530.16,254.48 532.01,254.244 533.88,253.939 535.768,253.569 537.674,253.139 539.596,252.654 541.532,252.116 543.482,251.532 
  545.444,250.904 547.417,250.237 549.399,249.536 551.391,248.805 553.39,248.048 555.394,247.27 557.404,246.474 559.418,245.666 561.434,244.848 563.451,244.027 
  
  "/>
<polyline clip-path="url(#clip032)" style="stroke:#000000; stroke-width:4.0002; stroke-opacity:1; fill:none" points="
  708.804,282.983 709.571,285.309 710.341,287.631 711.116,289.946 711.9,292.251 712.695,294.542 713.503,296.815 714.329,299.068 715.174,301.296 716.041,303.495 
  716.934,305.664 717.854,307.797 718.805,309.891 719.789,311.944 720.81,313.951 721.87,315.909 722.971,317.815 724.117,319.664 725.31,321.454 726.554,323.181 
  727.85,324.841 729.202,326.431 730.613,327.948 732.085,329.388 733.621,330.746 735.224,332.022 736.894,333.213 738.627,334.323 740.422,335.357 742.276,336.316 
  744.185,337.206 746.147,338.029 748.16,338.79 750.219,339.49 752.324,340.135 754.47,340.727 756.655,341.27 758.876,341.767 761.131,342.223 763.416,342.639 
  765.729,343.021 768.068,343.371 770.428,343.694 772.809,343.991 775.205,344.268 777.616,344.527 780.038,344.772 782.468,345.007 784.904,345.235 787.343,345.459 
  
  "/>
<polyline clip-path="url(#clip032)" style="stroke:#000000; stroke-width:4.0002; stroke-opacity:1; fill:none" points="
  708.804,282.983 707.386,285.002 705.967,287.018 704.544,289.025 703.116,291.02 701.681,292.998 700.239,294.955 698.786,296.888 697.321,298.791 695.843,300.661 
  694.35,302.494 692.84,304.286 691.312,306.031 689.764,307.727 688.193,309.369 686.6,310.953 684.981,312.474 683.336,313.929 681.662,315.314 679.958,316.623 
  678.222,317.854 676.453,319.002 674.648,320.063 672.807,321.032 670.927,321.906 669.007,322.68 667.047,323.355 665.048,323.934 663.013,324.423 660.943,324.823 
  658.839,325.141 656.703,325.38 654.537,325.544 652.342,325.638 650.121,325.665 647.875,325.63 645.605,325.537 643.313,325.39 641.002,325.193 638.672,324.95 
  636.325,324.666 633.963,324.345 631.588,323.99 629.201,323.606 626.804,323.197 624.399,322.768 621.987,322.322 619.569,321.863 617.149,321.397 614.727,320.926 
  
  "/>
<polyline clip-path="url(#clip032)" style="stroke:#000000; stroke-width:4.0002; stroke-opacity:1; fill:none" points="
  787.343,345.459 788.469,347.816 789.59,350.173 790.703,352.528 791.802,354.883 792.883,357.236 793.942,359.587 794.975,361.935 795.976,364.28 796.941,366.622 
  797.867,368.96 798.748,371.294 799.579,373.624 800.358,375.948 801.078,378.267 801.736,380.579 802.327,382.886 802.847,385.186 803.291,387.478 803.655,389.763 
  803.934,392.041 804.124,394.309 804.221,396.569 804.219,398.82 804.115,401.06 803.904,403.291 803.587,405.512 803.167,407.723 802.648,409.924 802.037,412.117 
  801.336,414.302 800.55,416.478 799.685,418.647 798.743,420.809 797.731,422.964 796.651,425.112 795.509,427.255 794.309,429.392 793.056,431.524 791.753,433.652 
  790.406,435.775 789.019,437.895 787.596,440.011 786.142,442.124 784.662,444.235 783.159,446.344 781.638,448.451 780.104,450.556 778.561,452.661 777.013,454.766 
  
  "/>
<polyline clip-path="url(#clip032)" style="stroke:#000000; stroke-width:4.0002; stroke-opacity:1; fill:none" points="
  777.013,454.766 776.639,457.103 776.263,459.437 775.879,461.764 775.486,464.083 775.08,466.389 774.658,468.68 774.216,470.952 773.751,473.202 773.261,475.428 
  772.742,477.626 772.19,479.793 771.602,481.926 770.976,484.022 770.307,486.078 769.594,488.09 768.831,490.057 768.017,491.973 767.148,493.838 766.22,495.646 
  765.231,497.396 764.177,499.084 763.056,500.707 761.863,502.263 760.595,503.747 759.25,505.157 757.827,506.493 756.33,507.758 754.761,508.955 753.125,510.087 
  751.423,511.157 749.66,512.169 747.839,513.125 745.963,514.028 744.035,514.883 742.058,515.69 740.036,516.455 737.972,517.179 735.87,517.866 733.731,518.519 
  731.56,519.141 729.36,519.736 727.134,520.306 724.885,520.854 722.617,521.383 720.333,521.897 718.036,522.399 715.729,522.892 713.415,523.378 711.099,523.861 
  
  "/>
<polyline clip-path="url(#clip032)" style="stroke:#000000; stroke-width:4.0002; stroke-opacity:1; fill:none" points="
  777.013,454.766 775.221,453.969 773.434,453.171 771.654,452.369 769.887,451.562 768.136,450.748 766.406,449.925 764.701,449.092 763.025,448.247 761.381,447.388 
  759.775,446.514 758.21,445.621 756.69,444.71 755.22,443.778 753.804,442.824 752.445,441.845 751.148,440.84 749.918,439.807 748.757,438.745 747.671,437.652 
  746.663,436.525 745.737,435.364 744.898,434.166 744.15,432.93 743.497,431.655 742.943,430.337 742.487,428.978 742.127,427.579 741.857,426.142 741.674,424.669 
  741.573,423.16 741.551,421.619 741.603,420.046 741.725,418.444 741.913,416.815 742.163,415.159 742.471,413.478 742.832,411.776 743.243,410.052 743.699,408.309 
  744.197,406.549 744.732,404.774 745.299,402.984 745.896,401.182 746.517,399.37 747.159,397.549 747.818,395.721 748.489,393.888 749.168,392.052 749.851,390.214 
  
  "/>
<polyline clip-path="url(#clip032)" style="stroke:#000000; stroke-width:4.0002; stroke-opacity:1; fill:none" points="
  711.099,523.861 710.333,525.996 709.564,528.128 708.791,530.251 708.01,532.364 707.218,534.462 706.415,536.542 705.596,538.599 704.76,540.63 703.904,542.631 
  703.026,544.599 702.122,546.53 701.191,548.42 700.23,550.265 699.236,552.063 698.208,553.808 697.141,555.497 696.035,557.127 694.887,558.694 693.693,560.194 
  692.452,561.624 691.161,562.979 689.817,564.257 688.418,565.453 686.962,566.563 685.446,567.584 683.87,568.517 682.236,569.364 680.547,570.129 678.806,570.816 
  677.015,571.429 675.176,571.972 673.293,572.448 671.367,572.86 669.4,573.214 667.397,573.511 665.358,573.757 663.287,573.954 661.186,574.107 659.057,574.218 
  656.903,574.293 654.727,574.335 652.531,574.346 650.317,574.332 648.088,574.295 645.847,574.24 643.596,574.17 641.337,574.089 639.073,574 636.807,573.908 
  
  "/>
<polyline clip-path="url(#clip032)" style="stroke:#000000; stroke-width:4.0002; stroke-opacity:1; fill:none" points="
  711.099,523.861 708.968,524.126 706.839,524.388 704.714,524.642 702.597,524.884 700.489,525.111 698.393,525.319 696.311,525.505 694.246,525.663 692.199,525.791 
  690.173,525.885 688.171,525.94 686.195,525.954 684.246,525.922 682.329,525.84 680.444,525.705 678.594,525.513 676.782,525.26 675.009,524.941 673.279,524.555 
  671.594,524.096 669.955,523.56 668.365,522.945 666.828,522.245 665.344,521.458 663.916,520.58 662.545,519.61 661.227,518.553 659.961,517.411 658.744,516.19 
  657.575,514.892 656.449,513.522 655.366,512.083 654.323,510.58 653.318,509.015 652.347,507.394 651.41,505.718 650.503,503.994 649.624,502.223 648.77,500.411 
  647.941,498.56 647.132,496.676 646.342,494.76 645.569,492.818 644.81,490.853 644.062,488.869 643.324,486.87 642.593,484.86 641.866,482.841 641.142,480.819 
  
  "/>
<polyline clip-path="url(#clip032)" style="stroke:#000000; stroke-width:4.0002; stroke-opacity:1; fill:none" points="
  636.807,573.908 634.426,573.678 632.048,573.444 629.676,573.203 627.313,572.953 624.961,572.688 622.623,572.406 620.302,572.103 618.001,571.777 615.724,571.423 
  613.472,571.037 611.248,570.618 609.056,570.16 606.898,569.661 604.778,569.117 602.697,568.525 600.659,567.882 598.667,567.183 596.724,566.425 594.832,565.606 
  592.994,564.721 591.213,563.767 589.493,562.741 587.835,561.639 586.243,560.458 584.72,559.194 583.265,557.848 581.875,556.423 580.549,554.921 579.282,553.348 
  578.073,551.705 576.918,549.997 575.815,548.227 574.76,546.398 573.75,544.514 572.784,542.579 571.858,540.595 570.968,538.567 570.113,536.497 569.29,534.389 
  568.495,532.247 567.726,530.073 566.979,527.873 566.253,525.648 565.544,523.402 564.849,521.139 564.165,518.863 563.491,516.576 562.821,514.282 562.155,511.985 
  
  "/>
<polyline clip-path="url(#clip032)" style="stroke:#000000; stroke-width:4.0002; stroke-opacity:1; fill:none" points="
  412.824,180.897 410.732,181.054 408.642,181.207 406.557,181.353 404.481,181.489 402.414,181.609 400.361,181.712 398.323,181.792 396.303,181.847 394.305,181.873 
  392.329,181.866 390.38,181.823 388.459,181.74 386.569,181.612 384.713,181.438 382.894,181.212 381.113,180.932 379.375,180.593 377.68,180.193 376.032,179.727 
  374.433,179.191 372.887,178.583 371.395,177.898 369.96,177.133 368.585,176.284 367.272,175.348 366.021,174.325 364.83,173.217 363.697,172.03 362.618,170.766 
  361.59,169.429 360.613,168.022 359.682,166.551 358.795,165.017 357.95,163.425 357.144,161.778 356.374,160.08 355.638,158.335 354.933,156.546 354.257,154.717 
  353.606,152.851 352.98,150.953 352.373,149.026 351.785,147.073 351.213,145.098 350.654,143.105 350.105,141.097 349.564,139.079 349.028,137.053 348.495,135.023 
  
  "/>
<polyline clip-path="url(#clip032)" style="stroke:#000000; stroke-width:4.0002; stroke-opacity:1; fill:none" points="
  614.727,320.926 612.563,320.101 610.404,319.274 608.251,318.443 606.11,317.603 603.984,316.754 601.876,315.892 599.791,315.016 597.732,314.122 595.702,313.208 
  593.706,312.272 591.747,311.311 589.83,310.323 587.957,309.305 586.132,308.254 584.36,307.169 582.643,306.047 580.986,304.885 579.392,303.68 577.865,302.431 
  576.41,301.135 575.028,299.789 573.725,298.391 572.503,296.938 571.368,295.428 570.321,293.859 569.364,292.23 568.493,290.544 567.703,288.803 566.992,287.011 
  566.355,285.168 565.788,283.278 565.289,281.344 564.853,279.367 564.477,277.351 564.157,275.298 563.888,273.209 563.669,271.089 563.493,268.938 563.359,266.76 
  563.262,264.558 563.199,262.333 563.165,260.088 563.158,257.826 563.172,255.549 563.206,253.259 563.254,250.96 563.313,248.653 563.38,246.341 563.451,244.027 
  
  "/>
<polyline clip-path="url(#clip032)" style="stroke:#000000; stroke-width:4.0002; stroke-opacity:1; fill:none" points="
  614.727,320.926 615.369,323.326 616.007,325.726 616.636,328.123 617.253,330.515 617.852,332.902 618.43,335.283 618.983,337.655 619.506,340.017 619.994,342.369 
  620.445,344.709 620.852,347.034 621.213,349.345 621.523,351.64 621.777,353.917 621.971,356.174 622.102,358.411 622.164,360.627 622.154,362.819 622.067,364.987 
  621.899,367.128 621.646,369.243 621.303,371.329 620.866,373.385 620.332,375.409 619.695,377.401 618.956,379.36 618.119,381.288 617.188,383.186 616.168,385.055 
  615.062,386.897 613.876,388.714 612.612,390.505 611.276,392.273 609.872,394.02 608.404,395.746 606.877,397.453 605.294,399.143 603.659,400.815 601.978,402.473 
  600.254,404.118 598.492,405.75 596.696,407.371 594.87,408.983 593.018,410.586 591.145,412.183 589.255,413.774 587.352,415.361 585.441,416.945 583.525,418.528 
  
  "/>
<polyline clip-path="url(#clip032)" style="stroke:#000000; stroke-width:4.0002; stroke-opacity:1; fill:none" points="
  614.727,320.926 615.712,322.603 616.699,324.276 617.688,325.941 618.681,327.592 619.678,329.226 620.682,330.839 621.693,332.426 622.713,333.983 623.743,335.506 
  624.783,336.989 625.836,338.43 626.902,339.823 627.984,341.165 629.081,342.45 630.195,343.676 631.328,344.837 632.48,345.929 633.653,346.947 634.849,347.889 
  636.067,348.748 637.31,349.521 638.579,350.204 639.875,350.793 641.2,351.282 642.553,351.668 643.936,351.951 645.348,352.135 646.786,352.224 648.25,352.223 
  649.739,352.136 651.25,351.967 652.785,351.72 654.339,351.4 655.914,351.012 657.507,350.559 659.117,350.045 660.743,349.476 662.384,348.855 664.039,348.186 
  665.705,347.475 667.383,346.725 669.07,345.94 670.767,345.125 672.47,344.285 674.18,343.423 675.894,342.543 677.612,341.651 679.333,340.75 681.055,339.845 
  
  "/>
<polyline clip-path="url(#clip032)" style="stroke:#000000; stroke-width:4.0002; stroke-opacity:1; fill:none" points="
  749.851,390.214 747.654,390.269 745.459,390.321 743.27,390.366 741.089,390.4 738.918,390.419 736.761,390.42 734.619,390.4 732.496,390.355 730.394,390.28 
  728.316,390.173 726.264,390.03 724.242,389.847 722.251,389.621 720.294,389.348 718.375,389.024 716.495,388.646 714.657,388.21 712.865,387.713 711.12,387.151 
  709.425,386.52 707.783,385.817 706.197,385.038 704.669,384.18 703.201,383.239 701.797,382.211 700.457,381.096 699.177,379.899 697.955,378.622 696.789,377.269 
  695.676,375.844 694.613,374.35 693.597,372.791 692.627,371.171 691.699,369.493 690.81,367.761 689.959,365.978 689.142,364.149 688.356,362.276 687.6,360.363 
  686.87,358.414 686.164,356.433 685.479,354.423 684.813,352.387 684.162,350.33 683.525,348.254 682.898,346.165 682.279,344.064 681.666,341.956 681.055,339.845 
  
  "/>
<polyline clip-path="url(#clip032)" style="stroke:#000000; stroke-width:4.0002; stroke-opacity:1; fill:none" points="
  583.525,418.528 584.398,420.735 585.266,422.94 586.126,425.144 586.972,427.345 587.801,429.541 588.609,431.733 589.39,433.919 590.141,436.097 590.856,438.268 
  591.533,440.43 592.165,442.581 592.75,444.722 593.282,446.851 593.758,448.967 594.173,451.069 594.522,453.155 594.801,455.226 595.006,457.28 595.133,459.316 
  595.177,461.333 595.133,463.33 594.998,465.306 594.767,467.261 594.435,469.192 593.999,471.099 593.458,472.982 592.817,474.843 592.08,476.681 591.252,478.499 
  590.336,480.296 589.337,482.075 588.259,483.835 587.108,485.579 585.886,487.307 584.6,489.02 583.252,490.718 581.847,492.404 580.39,494.078 578.885,495.741 
  577.336,497.394 575.748,499.037 574.126,500.673 572.472,502.302 570.793,503.925 569.091,505.543 567.373,507.157 565.641,508.768 563.9,510.377 562.155,511.985 
  
  "/>
<polyline clip-path="url(#clip032)" style="stroke:#000000; stroke-width:4.0002; stroke-opacity:1; fill:none" points="
  583.525,418.528 583.715,420.711 583.909,422.891 584.109,425.065 584.319,427.23 584.542,429.383 584.781,431.52 585.041,433.639 585.323,435.737 585.631,437.811 
  585.969,439.857 586.34,441.873 586.747,443.856 587.194,445.802 587.683,447.708 588.218,449.572 588.803,451.39 589.44,453.16 590.133,454.878 590.885,456.541 
  591.7,458.147 592.58,459.691 593.529,461.172 594.551,462.586 595.648,463.93 596.824,465.201 598.078,466.4 599.409,467.528 600.811,468.59 602.282,469.588 
  603.82,470.525 605.419,471.404 607.078,472.229 608.793,473.001 610.56,473.726 612.376,474.404 614.239,475.04 616.144,475.637 618.089,476.197 620.069,476.723 
  622.083,477.22 624.126,477.689 626.196,478.133 628.288,478.556 630.4,478.961 632.529,479.351 634.671,479.729 636.822,480.097 638.981,480.46 641.142,480.819 
  
  "/>
<path clip-path="url(#clip032)" d="
M602.123 153.615 L596.547 143.956 L585.396 143.956 L579.82 153.615 L585.396 163.273 L596.547 163.273 L602.123 153.615 L602.123 153.615  Z
  " fill="#009af9" fill-rule="evenodd" fill-opacity="1"/>
<polyline clip-path="url(#clip032)" style="stroke:#000000; stroke-width:4.0002; stroke-opacity:1; fill:none" points="
  602.123,153.615 596.547,143.956 585.396,143.956 579.82,153.615 585.396,163.273 596.547,163.273 602.123,153.615 
  "/>
<path clip-path="url(#clip032)" d="
M494.146 221.003 L488.39 211.032 L476.878 211.032 L471.123 221.003 L476.878 230.973 L488.39 230.973 L494.146 221.003 L494.146 221.003  Z
  " fill="#009af9" fill-rule="evenodd" fill-opacity="1"/>
<polyline clip-path="url(#clip032)" style="stroke:#000000; stroke-width:4.0002; stroke-opacity:1; fill:none" points="
  494.146,221.003 488.39,211.032 476.878,211.032 471.123,221.003 476.878,230.973 488.39,230.973 494.146,221.003 
  "/>
<path clip-path="url(#clip032)" d="
M720.135 282.983 L714.47 273.168 L703.138 273.168 L697.472 282.983 L703.138 292.797 L714.47 292.797 L720.135 282.983 L720.135 282.983  Z
  " fill="#009af9" fill-rule="evenodd" fill-opacity="1"/>
<polyline clip-path="url(#clip032)" style="stroke:#000000; stroke-width:4.0002; stroke-opacity:1; fill:none" points="
  720.135,282.983 714.47,273.168 703.138,273.168 697.472,282.983 703.138,292.797 714.47,292.797 720.135,282.983 
  "/>
<path clip-path="url(#clip032)" d="
M799.035 345.459 L793.189 335.333 L781.497 335.333 L775.651 345.459 L781.497 355.585 L793.189 355.585 L799.035 345.459 L799.035 345.459  Z
  " fill="#009af9" fill-rule="evenodd" fill-opacity="1"/>
<polyline clip-path="url(#clip032)" style="stroke:#000000; stroke-width:4.0002; stroke-opacity:1; fill:none" points="
  799.035,345.459 793.189,335.333 781.497,335.333 775.651,345.459 781.497,355.585 793.189,355.585 799.035,345.459 
  "/>
<path clip-path="url(#clip032)" d="
M805.819 454.766 L791.416 429.817 L762.61 429.817 L748.207 454.766 L762.61 479.715 L791.416 479.715 L805.819 454.766 L805.819 454.766  Z
  " fill="#009af9" fill-rule="evenodd" fill-opacity="1"/>
<polyline clip-path="url(#clip032)" style="stroke:#000000; stroke-width:4.0002; stroke-opacity:1; fill:none" points="
  805.819,454.766 791.416,429.817 762.61,429.817 748.207,454.766 762.61,479.715 791.416,479.715 805.819,454.766 
  "/>
<path clip-path="url(#clip032)" d="
M739.364 523.861 L725.232 499.38 L696.966 499.38 L682.833 523.861 L696.966 548.342 L725.232 548.342 L739.364 523.861 L739.364 523.861  Z
  " fill="#009af9" fill-rule="evenodd" fill-opacity="1"/>
<polyline clip-path="url(#clip032)" style="stroke:#000000; stroke-width:4.0002; stroke-opacity:1; fill:none" points="
  739.364,523.861 725.232,499.38 696.966,499.38 682.833,523.861 696.966,548.342 725.232,548.342 739.364,523.861 
  "/>
<path clip-path="url(#clip032)" d="
M648.859 573.908 L642.833 563.47 L630.781 563.47 L624.755 573.908 L630.781 584.346 L642.833 584.346 L648.859 573.908 L648.859 573.908  Z
  " fill="#009af9" fill-rule="evenodd" fill-opacity="1"/>
<polyline clip-path="url(#clip032)" style="stroke:#000000; stroke-width:4.0002; stroke-opacity:1; fill:none" points="
  648.859,573.908 642.833,563.47 630.781,563.47 624.755,573.908 630.781,584.346 642.833,584.346 648.859,573.908 
  "/>
<path clip-path="url(#clip032)" d="
M424.155 180.897 L418.49 171.082 L407.158 171.082 L401.492 180.897 L407.158 190.711 L418.49 190.711 L424.155 180.897 L424.155 180.897  Z
  " fill="#009af9" fill-rule="evenodd" fill-opacity="1"/>
<polyline clip-path="url(#clip032)" style="stroke:#000000; stroke-width:4.0002; stroke-opacity:1; fill:none" points="
  424.155,180.897 418.49,171.082 407.158,171.082 401.492,180.897 407.158,190.711 418.49,190.711 424.155,180.897 
  "/>
<path clip-path="url(#clip032)" d="
M643.713 320.926 L629.22 295.821 L600.234 295.821 L585.741 320.926 L600.234 346.031 L629.22 346.031 L643.713 320.926 L643.713 320.926  Z
  " fill="#009af9" fill-rule="evenodd" fill-opacity="1"/>
<polyline clip-path="url(#clip032)" style="stroke:#000000; stroke-width:4.0002; stroke-opacity:1; fill:none" points="
  643.713,320.926 629.22,295.821 600.234,295.821 585.741,320.926 600.234,346.031 629.22,346.031 643.713,320.926 
  "/>
<path clip-path="url(#clip032)" d="
M761.543 390.214 L755.697 380.087 L744.005 380.087 L738.159 390.214 L744.005 400.34 L755.697 400.34 L761.543 390.214 L761.543 390.214  Z
  " fill="#009af9" fill-rule="evenodd" fill-opacity="1"/>
<polyline clip-path="url(#clip032)" style="stroke:#000000; stroke-width:4.0002; stroke-opacity:1; fill:none" points="
  761.543,390.214 755.697,380.087 744.005,380.087 738.159,390.214 744.005,400.34 755.697,400.34 761.543,390.214 
  "/>
<path clip-path="url(#clip032)" d="
M592.077 244.027 L577.764 219.234 L549.138 219.234 L534.825 244.027 L549.138 268.82 L577.764 268.82 L592.077 244.027 L592.077 244.027  Z
  " fill="#009af9" fill-rule="evenodd" fill-opacity="1"/>
<polyline clip-path="url(#clip032)" style="stroke:#000000; stroke-width:4.0002; stroke-opacity:1; fill:none" points="
  592.077,244.027 577.764,219.234 549.138,219.234 534.825,244.027 549.138,268.82 577.764,268.82 592.077,244.027 
  "/>
<path clip-path="url(#clip032)" d="
M359.646 135.023 L354.07 125.365 L342.919 125.365 L337.343 135.023 L342.919 144.682 L354.07 144.682 L359.646 135.023 L359.646 135.023  Z
  " fill="#009af9" fill-rule="evenodd" fill-opacity="1"/>
<polyline clip-path="url(#clip032)" style="stroke:#000000; stroke-width:4.0002; stroke-opacity:1; fill:none" points="
  359.646,135.023 354.07,125.365 342.919,125.365 337.343,135.023 342.919,144.682 354.07,144.682 359.646,135.023 
  "/>
<path clip-path="url(#clip032)" d="
M611.43 418.528 L597.478 394.359 L569.572 394.359 L555.62 418.528 L569.572 442.697 L597.478 442.697 L611.43 418.528 L611.43 418.528  Z
  " fill="#009af9" fill-rule="evenodd" fill-opacity="1"/>
<polyline clip-path="url(#clip032)" style="stroke:#000000; stroke-width:4.0002; stroke-opacity:1; fill:none" points="
  611.43,418.528 597.478,394.359 569.572,394.359 555.62,418.528 569.572,442.697 597.478,442.697 611.43,418.528 
  "/>
<path clip-path="url(#clip032)" d="
M574.207 511.985 L568.181 501.546 L556.129 501.546 L550.103 511.985 L556.129 522.423 L568.181 522.423 L574.207 511.985 L574.207 511.985  Z
  " fill="#009af9" fill-rule="evenodd" fill-opacity="1"/>
<polyline clip-path="url(#clip032)" style="stroke:#000000; stroke-width:4.0002; stroke-opacity:1; fill:none" points="
  574.207,511.985 568.181,501.546 556.129,501.546 550.103,511.985 556.129,522.423 568.181,522.423 574.207,511.985 
  "/>
<path clip-path="url(#clip032)" d="
M692.747 339.845 L686.901 329.719 L675.209 329.719 L669.363 339.845 L675.209 349.971 L686.901 349.971 L692.747 339.845 L692.747 339.845  Z
  " fill="#009af9" fill-rule="evenodd" fill-opacity="1"/>
<polyline clip-path="url(#clip032)" style="stroke:#000000; stroke-width:4.0002; stroke-opacity:1; fill:none" points="
  692.747,339.845 686.901,329.719 675.209,329.719 669.363,339.845 675.209,349.971 686.901,349.971 692.747,339.845 
  "/>
<path clip-path="url(#clip032)" d="
M668.147 480.819 L654.644 457.431 L627.64 457.431 L614.137 480.819 L627.64 504.208 L654.644 504.208 L668.147 480.819 L668.147 480.819  Z
  " fill="#009af9" fill-rule="evenodd" fill-opacity="1"/>
<polyline clip-path="url(#clip032)" style="stroke:#000000; stroke-width:4.0002; stroke-opacity:1; fill:none" points="
  668.147,480.819 654.644,457.431 627.64,457.431 614.137,480.819 627.64,504.208 654.644,504.208 668.147,480.819 
  "/>
<circle clip-path="url(#clip032)" style="fill:#009af9; stroke:none; fill-opacity:1" cx="590.972" cy="153.615" r="2"/>
<circle clip-path="url(#clip032)" style="fill:#009af9; stroke:none; fill-opacity:1" cx="482.634" cy="221.003" r="2"/>
<circle clip-path="url(#clip032)" style="fill:#009af9; stroke:none; fill-opacity:1" cx="708.804" cy="282.983" r="2"/>
<circle clip-path="url(#clip032)" style="fill:#009af9; stroke:none; fill-opacity:1" cx="787.343" cy="345.459" r="2"/>
<circle clip-path="url(#clip032)" style="fill:#009af9; stroke:none; fill-opacity:1" cx="777.013" cy="454.766" r="2"/>
<circle clip-path="url(#clip032)" style="fill:#009af9; stroke:none; fill-opacity:1" cx="711.099" cy="523.861" r="2"/>
<circle clip-path="url(#clip032)" style="fill:#009af9; stroke:none; fill-opacity:1" cx="636.807" cy="573.908" r="2"/>
<circle clip-path="url(#clip032)" style="fill:#009af9; stroke:none; fill-opacity:1" cx="412.824" cy="180.897" r="2"/>
<circle clip-path="url(#clip032)" style="fill:#009af9; stroke:none; fill-opacity:1" cx="614.727" cy="320.926" r="2"/>
<circle clip-path="url(#clip032)" style="fill:#009af9; stroke:none; fill-opacity:1" cx="749.851" cy="390.214" r="2"/>
<circle clip-path="url(#clip032)" style="fill:#009af9; stroke:none; fill-opacity:1" cx="563.451" cy="244.027" r="2"/>
<circle clip-path="url(#clip032)" style="fill:#009af9; stroke:none; fill-opacity:1" cx="348.495" cy="135.023" r="2"/>
<circle clip-path="url(#clip032)" style="fill:#009af9; stroke:none; fill-opacity:1" cx="583.525" cy="418.528" r="2"/>
<circle clip-path="url(#clip032)" style="fill:#009af9; stroke:none; fill-opacity:1" cx="562.155" cy="511.985" r="2"/>
<circle clip-path="url(#clip032)" style="fill:#009af9; stroke:none; fill-opacity:1" cx="681.055" cy="339.845" r="2"/>
<circle clip-path="url(#clip032)" style="fill:#009af9; stroke:none; fill-opacity:1" cx="641.142" cy="480.819" r="2"/>
</svg>
