<?xml version="1.0" encoding="utf-8"?>
<svg xmlns="http://www.w3.org/2000/svg" xmlns:xlink="http://www.w3.org/1999/xlink" width="299.5" height="197.75" viewBox="0 0 1198 791">
<defs>
  <clipPath id="clip010">
    <rect x="0" y="0" width="1198" height="791"/>
  </clipPath>
</defs>
<path clip-path="url(#clip010)" d="
M0 791 L1198 791 L1198 0 L0 0  Z
  " fill="#ffffff" fill-rule="evenodd" fill-opacity="1"/>
<defs>
  <clipPath id="clip011">
    <rect x="239" y="0" width="840" height="791"/>
  </clipPath>
</defs>
<path clip-path="url(#clip010)" d="
M276.58 720.088 L949.144 720.088 L949.144 47.2517 L276.58 47.2517  Z
  " fill="#ffffff" fill-rule="evenodd" fill-opacity="1"/>
<defs>
  <clipPath id="clip012">
    <rect x="276" y="47" width="674" height="674"/>
  </clipPath>
</defs>
<polyline clip-path="url(#clip012)" style="stroke:#000000; stroke-width:4.00064; stroke-opacity:1; fill:none" points="
  732.224,225.324 730.787,227.183 729.349,229.038 727.909,230.883 726.465,232.714 725.017,234.525 723.563,236.313 722.102,238.072 720.633,239.798 719.155,241.486 
  717.666,243.131 716.166,244.728 714.654,246.273 713.127,247.76 711.586,249.186 710.028,250.545 708.454,251.832 706.861,253.043 705.248,254.174 703.615,255.218 
  701.96,256.172 700.282,257.03 698.579,257.789 696.852,258.443 695.098,258.987 693.317,259.416 691.508,259.732 689.672,259.938 687.812,260.04 685.927,260.041 
  684.019,259.947 682.089,259.762 680.139,259.492 678.169,259.14 676.181,258.712 674.176,258.213 672.154,257.647 670.118,257.02 668.067,256.335 666.005,255.597 
  663.93,254.812 661.845,253.984 659.752,253.118 657.65,252.218 655.541,251.29 653.426,250.339 651.307,249.368 649.184,248.382 647.059,247.388 644.933,246.388 
  
  "/>
<polyline clip-path="url(#clip012)" style="stroke:#000000; stroke-width:4.00064; stroke-opacity:1; fill:none" points="
  612.131,143.371 613.208,144.982 614.285,146.588 615.364,148.184 616.445,149.765 617.528,151.327 618.614,152.865 619.704,154.374 620.797,155.848 621.896,157.284 
  622.999,158.675 624.109,160.018 625.224,161.308 626.347,162.539 627.478,163.707 628.617,164.807 629.764,165.833 630.921,166.782 632.088,167.648 633.265,168.427 
  634.453,169.113 635.654,169.701 636.866,170.188 638.091,170.567 639.33,170.835 640.583,170.986 641.85,171.02 643.13,170.942 644.424,170.757 645.729,170.47 
  647.046,170.086 648.375,169.609 649.714,169.045 651.062,168.398 652.421,167.673 653.788,166.875 655.163,166.009 656.546,165.079 657.936,164.092 659.332,163.05 
  660.734,161.96 662.142,160.827 663.554,159.654 664.97,158.447 666.39,157.211 667.812,155.951 669.237,154.671 670.664,153.377 672.092,152.072 673.52,150.763 
  
  "/>
<polyline clip-path="url(#clip012)" style="stroke:#000000; stroke-width:4.00064; stroke-opacity:1; fill:none" points="
  612.131,143.371 611.399,145.92 610.673,148.467 609.956,151.011 609.253,153.551 608.569,156.085 607.908,158.611 607.275,161.129 606.675,163.636 606.112,166.131 
  605.591,168.612 605.116,171.079 604.694,173.53 604.327,175.962 604.021,178.376 603.78,180.768 603.609,183.138 603.513,185.485 603.496,187.806 603.564,190.1 
  603.72,192.366 603.969,194.602 604.317,196.807 604.767,198.979 605.324,201.117 605.994,203.22 606.775,205.287 607.664,207.319 608.655,209.319 609.745,211.287 
  610.927,213.226 612.199,215.137 613.555,217.02 614.99,218.879 616.499,220.714 618.079,222.526 619.724,224.317 621.43,226.089 623.191,227.844 625.005,229.582 
  626.864,231.305 628.766,233.014 630.705,234.712 632.677,236.399 634.677,238.078 636.7,239.749 638.742,241.414 640.798,243.074 642.863,244.732 644.933,246.388 
  
  "/>
<polyline clip-path="url(#clip012)" style="stroke:#000000; stroke-width:4.00064; stroke-opacity:1; fill:none" points="
  774.338,431.228 772.04,431.795 769.745,432.357 767.454,432.911 765.169,433.451 762.892,433.973 760.625,434.473 758.37,434.946 756.13,435.388 753.906,435.795 
  751.7,436.161 749.515,436.482 747.352,436.755 745.214,436.974 743.102,437.135 741.018,437.234 738.965,437.265 736.945,437.226 734.959,437.11 733.01,436.915 
  731.099,436.634 729.229,436.265 727.402,435.802 725.62,435.24 723.884,434.577 722.198,433.806 720.56,432.928 718.969,431.948 717.422,430.87 715.919,429.698 
  714.456,428.437 713.032,427.092 711.644,425.666 710.291,424.164 708.971,422.591 707.681,420.951 706.42,419.249 705.185,417.488 703.975,415.674 702.787,413.811 
  701.619,411.904 700.47,409.956 699.337,407.973 698.218,405.959 697.111,403.917 696.015,401.854 694.927,399.772 693.845,397.677 692.766,395.574 691.69,393.466 
  
  "/>
<polyline clip-path="url(#clip012)" style="stroke:#000000; stroke-width:4.00064; stroke-opacity:1; fill:none" points="
  774.338,431.228 775.388,433.246 776.44,435.26 777.496,437.265 778.558,439.255 779.627,441.228 780.705,443.178 781.794,445.101 782.897,446.992 784.014,448.847 
  785.148,450.661 786.3,452.43 787.473,454.149 788.668,455.813 789.887,457.418 791.132,458.96 792.405,460.434 793.708,461.835 795.042,463.159 796.409,464.401 
  797.812,465.557 799.252,466.622 800.731,467.592 802.25,468.463 803.813,469.229 805.419,469.886 807.07,470.434 808.764,470.878 810.499,471.223 812.272,471.471 
  814.083,471.63 815.928,471.702 817.808,471.692 819.718,471.605 821.659,471.446 823.627,471.218 825.621,470.927 827.639,470.577 829.68,470.173 831.741,469.719 
  833.82,469.219 835.916,468.678 838.027,468.102 840.151,467.493 842.286,466.857 844.43,466.199 846.582,465.522 848.74,464.832 850.901,464.132 853.063,463.429 
  
  "/>
<polyline clip-path="url(#clip012)" style="stroke:#000000; stroke-width:4.00064; stroke-opacity:1; fill:none" points="
  520.298,280.869 518.596,282.793 516.893,284.712 515.187,286.621 513.478,288.516 511.765,290.393 510.045,292.245 508.319,294.069 506.585,295.859 504.842,297.612 
  503.088,299.321 501.323,300.983 499.545,302.592 497.753,304.144 495.946,305.634 494.124,307.058 492.283,308.41 490.425,309.686 488.547,310.881 486.648,311.99 
  484.728,313.008 482.784,313.931 480.816,314.755 478.823,315.473 476.804,316.082 474.757,316.576 472.682,316.956 470.581,317.227 468.455,317.393 466.304,317.459 
  464.131,317.43 461.936,317.31 459.719,317.104 457.484,316.817 455.23,316.454 452.958,316.02 450.671,315.519 448.369,314.956 446.053,314.335 443.724,313.663 
  441.384,312.942 439.033,312.179 436.673,311.378 434.305,310.543 431.93,309.68 429.55,308.793 427.165,307.886 424.776,306.966 422.385,306.036 419.993,305.101 
  
  "/>
<polyline clip-path="url(#clip012)" style="stroke:#000000; stroke-width:4.00064; stroke-opacity:1; fill:none" points="
  520.298,280.869 521.125,283.443 521.956,286.013 522.792,288.576 523.638,291.127 524.496,293.663 525.37,296.18 526.263,298.675 527.177,301.142 528.116,303.58 
  529.082,305.983 530.08,308.348 531.112,310.672 532.181,312.95 533.29,315.178 534.443,317.354 535.642,319.472 536.891,321.53 538.193,323.523 539.55,325.448 
  540.966,327.3 542.444,329.077 543.987,330.774 545.599,332.388 547.281,333.914 549.038,335.349 550.87,336.693 552.772,337.95 554.743,339.123 556.778,340.217 
  558.876,341.234 561.033,342.18 563.245,343.057 565.51,343.869 567.825,344.621 570.186,345.316 572.59,345.958 575.035,346.55 577.517,347.097 580.033,347.602 
  582.58,348.069 585.155,348.502 587.755,348.904 590.376,349.28 593.016,349.634 595.672,349.968 598.34,350.287 601.017,350.594 603.7,350.894 606.387,351.19 
  
  "/>
<polyline clip-path="url(#clip012)" style="stroke:#000000; stroke-width:4.00064; stroke-opacity:1; fill:none" points="
  475.702,471.023 473.734,472.681 471.766,474.334 469.796,475.978 467.826,477.607 465.853,479.216 463.879,480.801 461.901,482.357 459.921,483.878 457.937,485.361 
  455.949,486.799 453.956,488.189 451.958,489.525 449.955,490.803 447.947,492.017 445.931,493.162 443.909,494.235 441.88,495.229 439.844,496.14 437.799,496.964 
  435.745,497.695 433.683,498.328 431.611,498.858 429.529,499.282 427.437,499.593 425.334,499.787 423.221,499.864 421.097,499.828 418.963,499.686 416.819,499.441 
  414.667,499.098 412.506,498.663 410.337,498.139 408.16,497.533 405.977,496.848 403.786,496.091 401.589,495.265 399.386,494.375 397.178,493.427 394.965,492.426 
  392.747,491.375 390.526,490.281 388.301,489.147 386.072,487.98 383.841,486.783 381.608,485.561 379.372,484.32 377.136,483.065 374.899,481.8 372.661,480.529 
  
  "/>
<polyline clip-path="url(#clip012)" style="stroke:#000000; stroke-width:4.00064; stroke-opacity:1; fill:none" points="
  475.702,471.023 477.817,472.28 479.932,473.533 482.045,474.776 484.157,476.004 486.267,477.212 488.375,478.397 490.479,479.552 492.58,480.673 494.677,481.755 
  496.769,482.793 498.856,483.782 500.938,484.718 503.013,485.595 505.082,486.408 507.143,487.154 509.197,487.826 511.243,488.421 513.281,488.932 515.309,489.356 
  517.327,489.687 519.335,489.921 521.333,490.052 523.319,490.076 525.294,489.987 527.256,489.782 529.206,489.461 531.145,489.027 533.072,488.485 534.989,487.842 
  536.895,487.101 538.792,486.267 540.68,485.345 542.559,484.341 544.43,483.259 546.293,482.103 548.149,480.879 549.998,479.592 551.842,478.246 553.68,476.847 
  555.512,475.399 557.34,473.907 559.164,472.376 560.985,470.811 562.802,469.217 564.617,467.598 566.43,465.96 568.241,464.307 570.052,462.644 571.861,460.977 
  
  "/>
<polyline clip-path="url(#clip012)" style="stroke:#000000; stroke-width:4.00064; stroke-opacity:1; fill:none" points="
  419.993,305.101 421.01,307.663 422.022,310.224 423.024,312.783 424.012,315.34 424.981,317.893 425.926,320.441 426.841,322.985 427.724,325.521 428.567,328.051 
  429.367,330.572 430.119,333.085 430.818,335.587 431.459,338.079 432.038,340.559 432.549,343.027 432.988,345.481 433.35,347.92 433.63,350.345 433.823,352.753 
  433.925,355.144 433.93,357.517 433.834,359.871 433.632,362.205 433.32,364.518 432.892,366.81 432.349,369.081 431.695,371.331 430.934,373.561 430.073,375.772 
  429.116,377.965 428.067,380.141 426.931,382.3 425.713,384.445 424.418,386.575 423.051,388.691 421.617,390.795 420.12,392.888 418.565,394.969 416.957,397.041 
  415.301,399.103 413.602,401.158 411.864,403.205 410.092,405.246 408.292,407.281 406.467,409.312 404.624,411.34 402.765,413.364 400.897,415.387 399.025,417.409 
  
  "/>
<polyline clip-path="url(#clip012)" style="stroke:#000000; stroke-width:4.00064; stroke-opacity:1; fill:none" points="
  372.661,480.529 374.555,479.808 376.445,479.085 378.325,478.358 380.192,477.625 382.041,476.885 383.868,476.136 385.667,475.375 387.435,474.601 389.166,473.811 
  390.857,473.005 392.502,472.18 394.098,471.334 395.64,470.465 397.122,469.572 398.542,468.652 399.894,467.704 401.173,466.726 402.375,465.715 403.497,464.671 
  404.532,463.591 405.476,462.472 406.326,461.315 407.077,460.115 407.723,458.872 408.261,457.584 408.691,456.251 409.016,454.874 409.243,453.455 409.374,451.997 
  409.415,450.501 409.37,448.969 409.244,447.403 409.04,445.805 408.765,444.177 408.421,442.52 408.015,440.837 407.549,439.13 407.029,437.399 406.46,435.648 
  405.845,433.878 405.19,432.091 404.498,430.289 403.775,428.474 403.025,426.647 402.252,424.811 401.461,422.967 400.656,421.118 399.843,419.264 399.025,417.409 
  
  "/>
<polyline clip-path="url(#clip012)" style="stroke:#000000; stroke-width:4.00064; stroke-opacity:1; fill:none" points="
  399.025,417.409 398.448,420.36 397.875,423.308 397.312,426.254 396.763,429.195 396.233,432.13 395.726,435.057 395.247,437.975 394.8,440.882 394.391,443.777 
  394.023,446.658 393.702,449.524 393.433,452.373 393.219,455.204 393.065,458.014 392.977,460.804 392.959,463.57 393.015,466.312 393.15,469.028 393.369,471.716 
  393.677,474.375 394.077,477.003 394.575,479.599 395.176,482.162 395.884,484.689 396.703,487.18 397.634,489.633 398.672,492.052 399.812,494.437 401.05,496.79 
  402.381,499.112 403.8,501.405 405.303,503.67 406.886,505.909 408.543,508.124 410.269,510.316 412.061,512.486 413.914,514.637 415.822,516.769 417.781,518.884 
  419.787,520.984 421.835,523.07 423.92,525.144 426.038,527.207 428.183,529.261 430.352,531.307 432.539,533.347 434.741,535.383 436.952,537.415 439.167,539.446 
  
  "/>
<polyline clip-path="url(#clip012)" style="stroke:#000000; stroke-width:4.00064; stroke-opacity:1; fill:none" points="
  399.025,417.409 401.227,416.986 403.425,416.559 405.615,416.126 407.794,415.684 409.958,415.229 412.102,414.76 414.223,414.273 416.317,413.764 418.381,413.231 
  420.409,412.671 422.4,412.081 424.347,411.457 426.249,410.797 428.1,410.097 429.898,409.355 431.637,408.568 433.316,407.732 434.928,406.845 436.471,405.903 
  437.941,404.904 439.334,403.844 440.646,402.721 441.873,401.531 443.012,400.271 444.058,398.939 445.012,397.534 445.878,396.059 446.658,394.518 447.358,392.914 
  447.981,391.248 448.53,389.525 449.01,387.748 449.425,385.919 449.777,384.042 450.073,382.119 450.314,380.154 450.505,378.15 450.65,376.109 450.752,374.035 
  450.816,371.93 450.845,369.799 450.844,367.643 450.815,365.466 450.764,363.271 450.693,361.06 450.606,358.838 450.508,356.606 450.403,354.368 450.293,352.128 
  
  "/>
<polyline clip-path="url(#clip012)" style="stroke:#000000; stroke-width:4.00064; stroke-opacity:1; fill:none" points="
  439.167,539.446 439.126,541.999 439.089,544.548 439.06,547.093 439.044,549.628 439.043,552.153 439.063,554.664 439.107,557.159 439.18,559.634 439.285,562.087 
  439.426,564.516 439.608,566.917 439.834,569.287 440.109,571.624 440.437,573.926 440.821,576.188 441.266,578.41 441.776,580.587 442.355,582.718 443.007,584.798 
  443.735,586.827 444.545,588.8 445.44,590.715 446.423,592.569 447.5,594.36 448.674,596.085 449.945,597.744 451.31,599.34 452.763,600.874 454.301,602.351 
  455.921,603.773 457.617,605.142 459.386,606.461 461.224,607.734 463.127,608.962 465.091,610.149 467.111,611.298 469.184,612.411 471.306,613.49 473.472,614.539 
  475.678,615.561 477.922,616.557 480.197,617.532 482.501,618.487 484.829,619.426 487.178,620.351 489.542,621.265 491.919,622.171 494.304,623.071 496.693,623.968 
  
  "/>
<polyline clip-path="url(#clip012)" style="stroke:#000000; stroke-width:4.00064; stroke-opacity:1; fill:none" points="
  439.167,539.446 441.064,540.766 442.961,542.081 444.857,543.386 446.752,544.677 448.645,545.948 450.537,547.194 452.425,548.412 454.312,549.595 456.194,550.739 
  458.074,551.839 459.949,552.89 461.82,553.888 463.686,554.826 465.547,555.702 467.402,556.509 469.251,557.242 471.094,557.898 472.93,558.47 474.759,558.954 
  476.58,559.346 478.394,559.64 480.199,559.831 481.995,559.915 483.782,559.887 485.559,559.741 487.327,559.478 489.085,559.103 490.835,558.621 492.576,558.036 
  494.31,557.353 496.035,556.577 497.754,555.714 499.466,554.767 501.171,553.742 502.87,552.644 504.564,551.478 506.253,550.248 507.936,548.959 509.616,547.617 
  511.291,546.225 512.963,544.79 514.631,543.316 516.297,541.807 517.96,540.269 519.622,538.707 521.281,537.125 522.94,535.529 524.598,533.923 526.255,532.312 
  
  "/>
<polyline clip-path="url(#clip012)" style="stroke:#000000; stroke-width:4.00064; stroke-opacity:1; fill:none" points="
  496.693,623.968 499.232,624.214 501.769,624.454 504.301,624.687 506.826,624.907 509.341,625.109 511.844,625.29 514.332,625.446 516.803,625.572 519.255,625.664 
  521.686,625.718 524.092,625.728 526.471,625.693 528.821,625.606 531.14,625.463 533.424,625.261 535.673,624.995 537.882,624.661 540.05,624.255 542.175,623.771 
  544.253,623.207 546.283,622.558 548.262,621.819 550.188,620.987 552.058,620.056 553.87,619.024 555.624,617.889 557.322,616.657 558.966,615.331 560.56,613.915 
  562.105,612.414 563.604,610.833 565.06,609.174 566.474,607.443 567.849,605.644 569.188,603.781 570.493,601.859 571.767,599.881 573.011,597.852 574.229,595.776 
  575.422,593.658 576.594,591.501 577.746,589.31 578.882,587.089 580.002,584.843 581.111,582.576 582.21,580.291 583.302,577.994 584.388,575.688 585.473,573.378 
  
  "/>
<polyline clip-path="url(#clip012)" style="stroke:#000000; stroke-width:4.00064; stroke-opacity:1; fill:none" points="
  691.69,393.466 689.297,393.92 686.906,394.371 684.519,394.812 682.139,395.241 679.767,395.652 677.407,396.041 675.059,396.403 672.726,396.735 670.411,397.032 
  668.116,397.289 665.842,397.502 663.592,397.667 661.369,397.779 659.173,397.835 657.008,397.828 654.876,397.756 652.779,397.613 650.718,397.396 648.697,397.1 
  646.717,396.72 644.78,396.252 642.889,395.693 641.046,395.036 639.253,394.279 637.512,393.416 635.823,392.448 634.185,391.379 632.594,390.213 631.049,388.955 
  629.547,387.609 628.087,386.18 626.665,384.672 625.281,383.089 623.932,381.436 622.615,379.717 621.328,377.936 620.07,376.098 618.838,374.208 617.63,372.269 
  616.444,370.286 615.277,368.264 614.128,366.207 612.994,364.119 611.873,362.004 610.762,359.868 609.661,357.714 608.566,355.547 607.475,353.371 606.387,351.19 
  
  "/>
<polyline clip-path="url(#clip012)" style="stroke:#000000; stroke-width:4.00064; stroke-opacity:1; fill:none" points="
  673.52,150.763 674.345,153.136 675.165,155.508 675.976,157.876 676.772,160.241 677.55,162.6 678.305,164.951 679.031,167.295 679.724,169.628 680.38,171.95 
  680.993,174.26 681.56,176.556 682.075,178.836 682.533,181.099 682.931,183.344 683.263,185.569 683.524,187.774 683.711,189.956 683.817,192.114 683.839,194.246 
  683.772,196.352 683.611,198.43 683.351,200.478 682.988,202.496 682.517,204.481 681.934,206.433 681.238,208.35 680.434,210.236 679.527,212.091 678.521,213.916 
  677.422,215.713 676.233,217.483 674.959,219.228 673.606,220.95 672.178,222.648 670.679,224.326 669.115,225.984 667.49,227.624 665.808,229.247 664.075,230.854 
  662.294,232.448 660.472,234.028 658.611,235.598 656.718,237.158 654.797,238.709 652.853,240.253 650.889,241.792 648.912,243.326 646.925,244.858 644.933,246.388 
  
  "/>
<polyline clip-path="url(#clip012)" style="stroke:#000000; stroke-width:4.00064; stroke-opacity:1; fill:none" points="
  606.387,351.19 608.553,349.559 610.715,347.927 612.867,346.29 615.005,344.649 617.125,343.001 619.222,341.345 621.292,339.678 623.329,338 625.33,336.308 
  627.289,334.6 629.202,332.876 631.064,331.133 632.872,329.37 634.619,327.585 636.303,325.776 637.917,323.942 639.457,322.081 640.92,320.191 642.3,318.27 
  643.592,316.318 644.792,314.331 645.896,312.309 646.899,310.25 647.795,308.151 648.582,306.013 649.259,303.833 649.829,301.615 650.299,299.359 650.672,297.068 
  650.953,294.743 651.146,292.386 651.257,289.999 651.29,287.582 651.249,285.139 651.139,282.67 650.965,280.177 650.731,277.663 650.442,275.128 650.102,272.574 
  649.716,270.004 649.289,267.418 648.825,264.819 648.329,262.208 647.805,259.587 647.258,256.957 646.693,254.321 646.114,251.68 645.526,249.035 644.933,246.388 
  
  "/>
<polyline clip-path="url(#clip012)" style="stroke:#000000; stroke-width:4.00064; stroke-opacity:1; fill:none" points="
  606.387,351.19 607.084,353.872 607.777,356.553 608.461,359.23 609.13,361.903 609.781,364.57 610.408,367.23 611.007,369.881 611.574,372.521 612.103,375.15 
  612.59,377.766 613.031,380.367 613.42,382.951 613.752,385.519 614.025,388.066 614.231,390.594 614.368,393.099 614.43,395.581 614.412,398.038 614.31,400.468 
  614.119,402.87 613.835,405.243 613.453,407.585 612.968,409.895 612.375,412.17 611.671,414.411 610.854,416.616 609.93,418.788 608.903,420.927 607.778,423.035 
  606.559,425.114 605.252,427.165 603.86,429.189 602.389,431.188 600.844,433.164 599.228,435.118 597.547,437.051 595.804,438.965 594.006,440.861 592.157,442.742 
  590.26,444.607 588.322,446.459 586.346,448.3 584.338,450.13 582.301,451.951 580.241,453.765 578.163,455.573 576.07,457.377 573.968,459.178 571.861,460.977 
  
  "/>
<polyline clip-path="url(#clip012)" style="stroke:#000000; stroke-width:4.00064; stroke-opacity:1; fill:none" points="
  606.387,351.19 604.702,352.327 603.018,353.46 601.336,354.582 599.658,355.691 597.983,356.78 596.314,357.845 594.651,358.882 592.995,359.885 591.348,360.85 
  589.71,361.771 588.082,362.645 586.466,363.466 584.863,364.229 583.273,364.931 581.698,365.565 580.138,366.127 578.595,366.613 577.07,367.017 575.564,367.335 
  574.077,367.563 572.612,367.694 571.168,367.725 569.748,367.65 568.351,367.465 566.979,367.166 565.633,366.752 564.31,366.227 563.011,365.598 561.733,364.867 
  560.477,364.041 559.24,363.124 558.022,362.121 556.822,361.036 555.638,359.875 554.47,358.642 553.317,357.341 552.178,355.979 551.051,354.559 549.935,353.086 
  548.83,351.566 547.734,350.002 546.647,348.4 545.567,346.765 544.493,345.1 543.424,343.412 542.36,341.705 541.299,339.983 540.239,338.252 539.181,336.516 
  
  "/>
<polyline clip-path="url(#clip012)" style="stroke:#000000; stroke-width:4.00064; stroke-opacity:1; fill:none" points="
  450.293,352.128 452.361,353.257 454.429,354.382 456.494,355.497 458.558,356.598 460.617,357.679 462.673,358.737 464.723,359.765 466.768,360.759 468.805,361.715 
  470.835,362.627 472.857,363.492 474.869,364.303 476.871,365.056 478.863,365.746 480.842,366.369 482.808,366.919 484.761,367.392 486.7,367.783 488.623,368.087 
  490.53,368.299 492.421,368.415 494.293,368.429 496.147,368.337 497.981,368.134 499.795,367.816 501.589,367.381 503.363,366.836 505.119,366.184 506.857,365.432 
  508.578,364.582 510.282,363.641 511.972,362.613 513.647,361.502 515.309,360.315 516.957,359.055 518.594,357.728 520.22,356.337 521.836,354.889 523.443,353.388 
  525.041,351.838 526.631,350.245 528.215,348.613 529.792,346.948 531.365,345.254 532.933,343.535 534.498,341.797 536.061,340.045 537.621,338.283 539.181,336.516 
  
  "/>
<polyline clip-path="url(#clip012)" style="stroke:#000000; stroke-width:4.00064; stroke-opacity:1; fill:none" points="
  571.861,460.977 570.68,463.448 569.503,465.918 568.337,468.387 567.185,470.854 566.052,473.319 564.943,475.781 563.864,478.239 562.819,480.693 561.813,483.143 
  560.85,485.587 559.937,488.025 559.076,490.457 558.274,492.882 557.536,495.299 556.865,497.708 556.268,500.108 555.748,502.498 555.311,504.879 554.961,507.249 
  554.704,509.608 554.544,511.954 554.487,514.289 554.536,516.611 554.697,518.919 554.975,521.213 555.369,523.492 555.875,525.759 556.489,528.012 557.204,530.253 
  558.017,532.482 558.922,534.7 559.914,536.907 560.99,539.104 562.143,541.292 563.369,543.471 564.663,545.641 566.021,547.805 567.437,549.96 568.906,552.11 
  570.424,554.254 571.986,556.392 573.587,558.525 575.221,560.655 576.885,562.781 578.574,564.904 580.281,567.024 582.004,569.143 583.736,571.261 585.473,573.378 
  
  "/>
<polyline clip-path="url(#clip012)" style="stroke:#000000; stroke-width:4.00064; stroke-opacity:1; fill:none" points="
  571.861,460.977 572.169,463.225 572.472,465.47 572.767,467.711 573.05,469.943 573.316,472.164 573.562,474.373 573.782,476.566 573.974,478.74 574.133,480.893 
  574.255,483.022 574.335,485.125 574.37,487.198 574.356,489.24 574.288,491.248 574.162,493.219 573.974,495.15 573.72,497.039 573.396,498.883 572.997,500.679 
  572.521,502.426 571.961,504.119 571.315,505.757 570.578,507.337 569.746,508.856 568.816,510.312 567.786,511.704 566.661,513.036 565.446,514.31 564.144,515.528 
  562.759,516.693 561.296,517.808 559.759,518.876 558.151,519.899 556.478,520.879 554.742,521.82 552.949,522.724 551.102,523.594 549.205,524.432 547.263,525.24 
  545.28,526.023 543.26,526.781 541.207,527.519 539.124,528.238 537.017,528.941 534.89,529.631 532.745,530.311 530.589,530.982 528.424,531.648 526.255,532.312 
  
  "/>
<path clip-path="url(#clip012)" d="
M743.521 225.324 L737.872 215.536 L726.575 215.536 L720.926 225.324 L726.575 235.112 L737.872 235.112 L743.521 225.324 L743.521 225.324  Z
  " fill="#009af9" fill-rule="evenodd" fill-opacity="1"/>
<polyline clip-path="url(#clip012)" style="stroke:#000000; stroke-width:4.00064; stroke-opacity:1; fill:none" points="
  743.521,225.324 737.872,215.536 726.575,215.536 720.926,225.324 726.575,235.112 737.872,235.112 743.521,225.324 
  "/>
<path clip-path="url(#clip012)" d="
M624.156 143.371 L618.143 132.953 L606.118 132.953 L600.105 143.371 L606.118 153.789 L618.143 153.789 L624.156 143.371 L624.156 143.371  Z
  " fill="#009af9" fill-rule="evenodd" fill-opacity="1"/>
<polyline clip-path="url(#clip012)" style="stroke:#000000; stroke-width:4.00064; stroke-opacity:1; fill:none" points="
  624.156,143.371 618.143,132.953 606.118,132.953 600.105,143.371 606.118,153.789 618.143,153.789 624.156,143.371 
  "/>
<path clip-path="url(#clip012)" d="
M785.635 431.228 L779.986 421.44 L768.689 421.44 L763.04 431.228 L768.689 441.016 L779.986 441.016 L785.635 431.228 L785.635 431.228  Z
  " fill="#009af9" fill-rule="evenodd" fill-opacity="1"/>
<polyline clip-path="url(#clip012)" style="stroke:#000000; stroke-width:4.00064; stroke-opacity:1; fill:none" points="
  785.635,431.228 779.986,421.44 768.689,421.44 763.04,431.228 768.689,441.016 779.986,441.016 785.635,431.228 
  "/>
<path clip-path="url(#clip012)" d="
M531.959 280.869 L526.128 270.766 L514.467 270.766 L508.637 280.869 L514.467 290.972 L526.128 290.972 L531.959 280.869 L531.959 280.869  Z
  " fill="#009af9" fill-rule="evenodd" fill-opacity="1"/>
<polyline clip-path="url(#clip012)" style="stroke:#000000; stroke-width:4.00064; stroke-opacity:1; fill:none" points="
  531.959,280.869 526.128,270.766 514.467,270.766 508.637,280.869 514.467,290.972 526.128,290.972 531.959,280.869 
  "/>
<path clip-path="url(#clip012)" d="
M487.545 471.023 L481.624 460.762 L469.78 460.762 L463.859 471.023 L469.78 481.283 L481.624 481.283 L487.545 471.023 L487.545 471.023  Z
  " fill="#009af9" fill-rule="evenodd" fill-opacity="1"/>
<polyline clip-path="url(#clip012)" style="stroke:#000000; stroke-width:4.00064; stroke-opacity:1; fill:none" points="
  487.545,471.023 481.624,460.762 469.78,460.762 463.859,471.023 469.78,481.283 481.624,481.283 487.545,471.023 
  "/>
<path clip-path="url(#clip012)" d="
M431.654 305.101 L425.824 294.998 L414.162 294.998 L408.332 305.101 L414.162 315.204 L425.824 315.204 L431.654 305.101 L431.654 305.101  Z
  " fill="#009af9" fill-rule="evenodd" fill-opacity="1"/>
<polyline clip-path="url(#clip012)" style="stroke:#000000; stroke-width:4.00064; stroke-opacity:1; fill:none" points="
  431.654,305.101 425.824,294.998 414.162,294.998 408.332,305.101 414.162,315.204 425.824,315.204 431.654,305.101 
  "/>
<path clip-path="url(#clip012)" d="
M384.868 480.529 L378.764 469.953 L366.557 469.953 L360.454 480.529 L366.557 491.105 L378.764 491.105 L384.868 480.529 L384.868 480.529  Z
  " fill="#009af9" fill-rule="evenodd" fill-opacity="1"/>
<polyline clip-path="url(#clip012)" style="stroke:#000000; stroke-width:4.00064; stroke-opacity:1; fill:none" points="
  384.868,480.529 378.764,469.953 366.557,469.953 360.454,480.529 366.557,491.105 378.764,491.105 384.868,480.529 
  "/>
<path clip-path="url(#clip012)" d="
M427.605 417.409 L413.315 392.648 L384.735 392.648 L370.445 417.409 L384.735 442.17 L413.315 442.17 L427.605 417.409 L427.605 417.409  Z
  " fill="#009af9" fill-rule="evenodd" fill-opacity="1"/>
<polyline clip-path="url(#clip012)" style="stroke:#000000; stroke-width:4.00064; stroke-opacity:1; fill:none" points="
  427.605,417.409 413.315,392.648 384.735,392.648 370.445,417.409 384.735,442.17 413.315,442.17 427.605,417.409 
  "/>
<path clip-path="url(#clip012)" d="
M466.655 539.446 L452.911 515.631 L425.423 515.631 L411.678 539.446 L425.423 563.261 L452.911 563.261 L466.655 539.446 L466.655 539.446  Z
  " fill="#009af9" fill-rule="evenodd" fill-opacity="1"/>
<polyline clip-path="url(#clip012)" style="stroke:#000000; stroke-width:4.00064; stroke-opacity:1; fill:none" points="
  466.655,539.446 452.911,515.631 425.423,515.631 411.678,539.446 425.423,563.261 452.911,563.261 466.655,539.446 
  "/>
<path clip-path="url(#clip012)" d="
M509.445 623.968 L503.069 612.92 L490.316 612.92 L483.94 623.968 L490.316 635.017 L503.069 635.017 L509.445 623.968 L509.445 623.968  Z
  " fill="#009af9" fill-rule="evenodd" fill-opacity="1"/>
<polyline clip-path="url(#clip012)" style="stroke:#000000; stroke-width:4.00064; stroke-opacity:1; fill:none" points="
  509.445,623.968 503.069,612.92 490.316,612.92 483.94,623.968 490.316,635.017 503.069,635.017 509.445,623.968 
  "/>
<path clip-path="url(#clip012)" d="
M702.988 393.466 L697.339 383.678 L686.042 383.678 L680.393 393.466 L686.042 403.253 L697.339 403.253 L702.988 393.466 L702.988 393.466  Z
  " fill="#009af9" fill-rule="evenodd" fill-opacity="1"/>
<polyline clip-path="url(#clip012)" style="stroke:#000000; stroke-width:4.00064; stroke-opacity:1; fill:none" points="
  702.988,393.466 697.339,383.678 686.042,383.678 680.393,393.466 686.042,403.253 697.339,403.253 702.988,393.466 
  "/>
<path clip-path="url(#clip012)" d="
M685.182 150.763 L679.351 140.66 L667.69 140.66 L661.859 150.763 L667.69 160.866 L679.351 160.866 L685.182 150.763 L685.182 150.763  Z
  " fill="#009af9" fill-rule="evenodd" fill-opacity="1"/>
<polyline clip-path="url(#clip012)" style="stroke:#000000; stroke-width:4.00064; stroke-opacity:1; fill:none" points="
  685.182,150.763 679.351,140.66 667.69,140.66 661.859,150.763 667.69,160.866 679.351,160.866 685.182,150.763 
  "/>
<path clip-path="url(#clip012)" d="
M864.361 463.429 L858.712 453.641 L847.415 453.641 L841.766 463.429 L847.415 473.216 L858.712 473.216 L864.361 463.429 L864.361 463.429  Z
  " fill="#009af9" fill-rule="evenodd" fill-opacity="1"/>
<polyline clip-path="url(#clip012)" style="stroke:#000000; stroke-width:4.00064; stroke-opacity:1; fill:none" points="
  864.361,463.429 858.712,453.641 847.415,453.641 841.766,463.429 847.415,473.216 858.712,473.216 864.361,463.429 
  "/>
<path clip-path="url(#clip012)" d="
M635.695 351.19 L621.041 325.799 L591.733 325.799 L577.079 351.19 L591.733 376.582 L621.041 376.582 L635.695 351.19 L635.695 351.19  Z
  " fill="#009af9" fill-rule="evenodd" fill-opacity="1"/>
<polyline clip-path="url(#clip012)" style="stroke:#000000; stroke-width:4.00064; stroke-opacity:1; fill:none" points="
  635.695,351.19 621.041,325.799 591.733,325.799 577.079,351.19 591.733,376.582 621.041,376.582 635.695,351.19 
  "/>
<path clip-path="url(#clip012)" d="
M462.864 352.128 L456.579 341.237 L444.008 341.237 L437.722 352.128 L444.008 363.019 L456.579 363.019 L462.864 352.128 L462.864 352.128  Z
  " fill="#009af9" fill-rule="evenodd" fill-opacity="1"/>
<polyline clip-path="url(#clip012)" style="stroke:#000000; stroke-width:4.00064; stroke-opacity:1; fill:none" points="
  462.864,352.128 456.579,341.237 444.008,341.237 437.722,352.128 444.008,363.019 456.579,363.019 462.864,352.128 
  "/>
<path clip-path="url(#clip012)" d="
M673.877 246.388 L659.405 221.312 L630.461 221.312 L615.989 246.388 L630.461 271.464 L659.405 271.464 L673.877 246.388 L673.877 246.388  Z
  " fill="#009af9" fill-rule="evenodd" fill-opacity="1"/>
<polyline clip-path="url(#clip012)" style="stroke:#000000; stroke-width:4.00064; stroke-opacity:1; fill:none" points="
  673.877,246.388 659.405,221.312 630.461,221.312 615.989,246.388 630.461,271.464 659.405,271.464 673.877,246.388 
  "/>
<path clip-path="url(#clip012)" d="
M599.168 460.977 L585.515 437.319 L558.208 437.319 L544.555 460.977 L558.208 484.635 L585.515 484.635 L599.168 460.977 L599.168 460.977  Z
  " fill="#009af9" fill-rule="evenodd" fill-opacity="1"/>
<polyline clip-path="url(#clip012)" style="stroke:#000000; stroke-width:4.00064; stroke-opacity:1; fill:none" points="
  599.168,460.977 585.515,437.319 558.208,437.319 544.555,460.977 558.208,484.635 585.515,484.635 599.168,460.977 
  "/>
<path clip-path="url(#clip012)" d="
M598.225 573.378 L591.849 562.329 L579.096 562.329 L572.72 573.378 L579.096 584.426 L591.849 584.426 L598.225 573.378 L598.225 573.378  Z
  " fill="#009af9" fill-rule="evenodd" fill-opacity="1"/>
<polyline clip-path="url(#clip012)" style="stroke:#000000; stroke-width:4.00064; stroke-opacity:1; fill:none" points="
  598.225,573.378 591.849,562.329 579.096,562.329 572.72,573.378 579.096,584.426 591.849,584.426 598.225,573.378 
  "/>
<path clip-path="url(#clip012)" d="
M551.752 336.516 L545.467 325.625 L532.896 325.625 L526.61 336.516 L532.896 347.407 L545.467 347.407 L551.752 336.516 L551.752 336.516  Z
  " fill="#009af9" fill-rule="evenodd" fill-opacity="1"/>
<polyline clip-path="url(#clip012)" style="stroke:#000000; stroke-width:4.00064; stroke-opacity:1; fill:none" points="
  551.752,336.516 545.467,325.625 532.896,325.625 526.61,336.516 532.896,347.407 545.467,347.407 551.752,336.516 
  "/>
<path clip-path="url(#clip012)" d="
M551.197 532.312 L538.726 510.703 L513.784 510.703 L501.314 532.312 L513.784 553.921 L538.726 553.921 L551.197 532.312 L551.197 532.312  Z
  " fill="#009af9" fill-rule="evenodd" fill-opacity="1"/>
<polyline clip-path="url(#clip012)" style="stroke:#000000; stroke-width:4.00064; stroke-opacity:1; fill:none" points="
  551.197,532.312 538.726,510.703 513.784,510.703 501.314,532.312 513.784,553.921 538.726,553.921 551.197,532.312 
  "/>
<circle clip-path="url(#clip012)" style="fill:#009af9; stroke:none; fill-opacity:1" cx="732.224" cy="225.324" r="2"/>
<circle clip-path="url(#clip012)" style="fill:#009af9; stroke:none; fill-opacity:1" cx="612.131" cy="143.371" r="2"/>
<circle clip-path="url(#clip012)" style="fill:#009af9; stroke:none; fill-opacity:1" cx="774.338" cy="431.228" r="2"/>
<circle clip-path="url(#clip012)" style="fill:#009af9; stroke:none; fill-opacity:1" cx="520.298" cy="280.869" r="2"/>
<circle clip-path="url(#clip012)" style="fill:#009af9; stroke:none; fill-opacity:1" cx="475.702" cy="471.023" r="2"/>
<circle clip-path="url(#clip012)" style="fill:#009af9; stroke:none; fill-opacity:1" cx="419.993" cy="305.101" r="2"/>
<circle clip-path="url(#clip012)" style="fill:#009af9; stroke:none; fill-opacity:1" cx="372.661" cy="480.529" r="2"/>
<circle clip-path="url(#clip012)" style="fill:#009af9; stroke:none; fill-opacity:1" cx="399.025" cy="417.409" r="2"/>
<circle clip-path="url(#clip012)" style="fill:#009af9; stroke:none; fill-opacity:1" cx="439.167" cy="539.446" r="2"/>
<circle clip-path="url(#clip012)" style="fill:#009af9; stroke:none; fill-opacity:1" cx="496.693" cy="623.968" r="2"/>
<circle clip-path="url(#clip012)" style="fill:#009af9; stroke:none; fill-opacity:1" cx="691.69" cy="393.466" r="2"/>
<circle clip-path="url(#clip012)" style="fill:#009af9; stroke:none; fill-opacity:1" cx="673.52" cy="150.763" r="2"/>
<circle clip-path="url(#clip012)" style="fill:#009af9; stroke:none; fill-opacity:1" cx="853.063" cy="463.429" r="2"/>
<circle clip-path="url(#clip012)" style="fill:#009af9; stroke:none; fill-opacity:1" cx="606.387" cy="351.19" r="2"/>
<circle clip-path="url(#clip012)" style="fill:#009af9; stroke:none; fill-opacity:1" cx="450.293" cy="352.128" r="2"/>
<circle clip-path="url(#clip012)" style="fill:#009af9; stroke:none; fill-opacity:1" cx="644.933" cy="246.388" r="2"/>
<circle clip-path="url(#clip012)" style="fill:#009af9; stroke:none; fill-opacity:1" cx="571.861" cy="460.977" r="2"/>
<circle clip-path="url(#clip012)" style="fill:#009af9; stroke:none; fill-opacity:1" cx="585.473" cy="573.378" r="2"/>
<circle clip-path="url(#clip012)" style="fill:#009af9; stroke:none; fill-opacity:1" cx="539.181" cy="336.516" r="2"/>
<circle clip-path="url(#clip012)" style="fill:#009af9; stroke:none; fill-opacity:1" cx="526.255" cy="532.312" r="2"/>
</svg>
