<?xml version="1.0" encoding="utf-8"?>
<svg xmlns="http://www.w3.org/2000/svg" xmlns:xlink="http://www.w3.org/1999/xlink" width="600" height="400" viewBox="0 0 2400 1600">
<defs>
  <clipPath id="clip7000">
    <rect x="0" y="0" width="2400" height="1600"/>
  </clipPath>
</defs>
<polygon clip-path="url(#clip7000)" points="
0,1600 2400,1600 2400,0 0,0 
  " fill="#ffffff" fill-rule="evenodd" fill-opacity="1"/>
<defs>
  <clipPath id="clip7001">
    <rect x="480" y="0" width="1681" height="1600"/>
  </clipPath>
</defs>
<polygon clip-path="url(#clip7000)" points="
202.373,1425.62 2352.76,1425.62 2352.76,109.1 202.373,109.1 
  " fill="#ffffff" fill-rule="evenodd" fill-opacity="1"/>
<defs>
  <clipPath id="clip7002">
    <rect x="202" y="109" width="2151" height="1318"/>
  </clipPath>
</defs>
<polyline clip-path="url(#clip7002)" style="stroke:#000000; stroke-width:2; stroke-opacity:0.1; fill:none" points="
  202.373,1425.62 202.373,109.1 
  "/>
<polyline clip-path="url(#clip7002)" style="stroke:#000000; stroke-width:2; stroke-opacity:0.1; fill:none" points="
  739.969,1425.62 739.969,109.1 
  "/>
<polyline clip-path="url(#clip7002)" style="stroke:#000000; stroke-width:2; stroke-opacity:0.1; fill:none" points="
  1277.56,1425.62 1277.56,109.1 
  "/>
<polyline clip-path="url(#clip7002)" style="stroke:#000000; stroke-width:2; stroke-opacity:0.1; fill:none" points="
  1815.16,1425.62 1815.16,109.1 
  "/>
<polyline clip-path="url(#clip7002)" style="stroke:#000000; stroke-width:2; stroke-opacity:0.1; fill:none" points="
  2352.76,1425.62 2352.76,109.1 
  "/>
<polyline clip-path="url(#clip7002)" style="stroke:#000000; stroke-width:2; stroke-opacity:0.1; fill:none" points="
  202.373,1378.02 2352.76,1378.02 
  "/>
<polyline clip-path="url(#clip7002)" style="stroke:#000000; stroke-width:2; stroke-opacity:0.1; fill:none" points="
  202.373,1187.63 2352.76,1187.63 
  "/>
<polyline clip-path="url(#clip7002)" style="stroke:#000000; stroke-width:2; stroke-opacity:0.1; fill:none" points="
  202.373,997.242 2352.76,997.242 
  "/>
<polyline clip-path="url(#clip7002)" style="stroke:#000000; stroke-width:2; stroke-opacity:0.1; fill:none" points="
  202.373,806.852 2352.76,806.852 
  "/>
<polyline clip-path="url(#clip7002)" style="stroke:#000000; stroke-width:2; stroke-opacity:0.1; fill:none" points="
  202.373,616.462 2352.76,616.462 
  "/>
<polyline clip-path="url(#clip7002)" style="stroke:#000000; stroke-width:2; stroke-opacity:0.1; fill:none" points="
  202.373,426.073 2352.76,426.073 
  "/>
<polyline clip-path="url(#clip7002)" style="stroke:#000000; stroke-width:2; stroke-opacity:0.1; fill:none" points="
  202.373,235.683 2352.76,235.683 
  "/>
<polyline clip-path="url(#clip7000)" style="stroke:#000000; stroke-width:4; stroke-opacity:1; fill:none" points="
  202.373,1425.62 2352.76,1425.62 
  "/>
<polyline clip-path="url(#clip7000)" style="stroke:#000000; stroke-width:4; stroke-opacity:1; fill:none" points="
  202.373,1425.62 202.373,109.1 
  "/>
<polyline clip-path="url(#clip7000)" style="stroke:#000000; stroke-width:4; stroke-opacity:1; fill:none" points="
  202.373,1425.62 202.373,1405.87 
  "/>
<polyline clip-path="url(#clip7000)" style="stroke:#000000; stroke-width:4; stroke-opacity:1; fill:none" points="
  739.969,1425.62 739.969,1405.87 
  "/>
<polyline clip-path="url(#clip7000)" style="stroke:#000000; stroke-width:4; stroke-opacity:1; fill:none" points="
  1277.56,1425.62 1277.56,1405.87 
  "/>
<polyline clip-path="url(#clip7000)" style="stroke:#000000; stroke-width:4; stroke-opacity:1; fill:none" points="
  1815.16,1425.62 1815.16,1405.87 
  "/>
<polyline clip-path="url(#clip7000)" style="stroke:#000000; stroke-width:4; stroke-opacity:1; fill:none" points="
  2352.76,1425.62 2352.76,1405.87 
  "/>
<polyline clip-path="url(#clip7000)" style="stroke:#000000; stroke-width:4; stroke-opacity:1; fill:none" points="
  202.373,1378.02 234.629,1378.02 
  "/>
<polyline clip-path="url(#clip7000)" style="stroke:#000000; stroke-width:4; stroke-opacity:1; fill:none" points="
  202.373,1187.63 234.629,1187.63 
  "/>
<polyline clip-path="url(#clip7000)" style="stroke:#000000; stroke-width:4; stroke-opacity:1; fill:none" points="
  202.373,997.242 234.629,997.242 
  "/>
<polyline clip-path="url(#clip7000)" style="stroke:#000000; stroke-width:4; stroke-opacity:1; fill:none" points="
  202.373,806.852 234.629,806.852 
  "/>
<polyline clip-path="url(#clip7000)" style="stroke:#000000; stroke-width:4; stroke-opacity:1; fill:none" points="
  202.373,616.462 234.629,616.462 
  "/>
<polyline clip-path="url(#clip7000)" style="stroke:#000000; stroke-width:4; stroke-opacity:1; fill:none" points="
  202.373,426.073 234.629,426.073 
  "/>
<polyline clip-path="url(#clip7000)" style="stroke:#000000; stroke-width:4; stroke-opacity:1; fill:none" points="
  202.373,235.683 234.629,235.683 
  "/>
<g clip-path="url(#clip7000)">
<text style="fill:#000000; fill-opacity:1; font-family:Arial,Helvetica Neue,Helvetica,sans-serif; font-size:48px; text-anchor:middle;" transform="rotate(0, 202.373, 1479.62)" x="202.373" y="1479.62">-0.5</text>
</g>
<g clip-path="url(#clip7000)">
<text style="fill:#000000; fill-opacity:1; font-family:Arial,Helvetica Neue,Helvetica,sans-serif; font-size:48px; text-anchor:middle;" transform="rotate(0, 739.969, 1479.62)" x="739.969" y="1479.62">0.0</text>
</g>
<g clip-path="url(#clip7000)">
<text style="fill:#000000; fill-opacity:1; font-family:Arial,Helvetica Neue,Helvetica,sans-serif; font-size:48px; text-anchor:middle;" transform="rotate(0, 1277.56, 1479.62)" x="1277.56" y="1479.62">0.5</text>
</g>
<g clip-path="url(#clip7000)">
<text style="fill:#000000; fill-opacity:1; font-family:Arial,Helvetica Neue,Helvetica,sans-serif; font-size:48px; text-anchor:middle;" transform="rotate(0, 1815.16, 1479.62)" x="1815.16" y="1479.62">1.0</text>
</g>
<g clip-path="url(#clip7000)">
<text style="fill:#000000; fill-opacity:1; font-family:Arial,Helvetica Neue,Helvetica,sans-serif; font-size:48px; text-anchor:middle;" transform="rotate(0, 2352.76, 1479.62)" x="2352.76" y="1479.62">1.5</text>
</g>
<g clip-path="url(#clip7000)">
<text style="fill:#000000; fill-opacity:1; font-family:Arial,Helvetica Neue,Helvetica,sans-serif; font-size:48px; text-anchor:end;" transform="rotate(0, 178.373, 1395.52)" x="178.373" y="1395.52">0</text>
</g>
<g clip-path="url(#clip7000)">
<text style="fill:#000000; fill-opacity:1; font-family:Arial,Helvetica Neue,Helvetica,sans-serif; font-size:48px; text-anchor:end;" transform="rotate(0, 178.373, 1205.13)" x="178.373" y="1205.13">2</text>
</g>
<g clip-path="url(#clip7000)">
<text style="fill:#000000; fill-opacity:1; font-family:Arial,Helvetica Neue,Helvetica,sans-serif; font-size:48px; text-anchor:end;" transform="rotate(0, 178.373, 1014.74)" x="178.373" y="1014.74">4</text>
</g>
<g clip-path="url(#clip7000)">
<text style="fill:#000000; fill-opacity:1; font-family:Arial,Helvetica Neue,Helvetica,sans-serif; font-size:48px; text-anchor:end;" transform="rotate(0, 178.373, 824.352)" x="178.373" y="824.352">6</text>
</g>
<g clip-path="url(#clip7000)">
<text style="fill:#000000; fill-opacity:1; font-family:Arial,Helvetica Neue,Helvetica,sans-serif; font-size:48px; text-anchor:end;" transform="rotate(0, 178.373, 633.962)" x="178.373" y="633.962">8</text>
</g>
<g clip-path="url(#clip7000)">
<text style="fill:#000000; fill-opacity:1; font-family:Arial,Helvetica Neue,Helvetica,sans-serif; font-size:48px; text-anchor:end;" transform="rotate(0, 178.373, 443.573)" x="178.373" y="443.573">10</text>
</g>
<g clip-path="url(#clip7000)">
<text style="fill:#000000; fill-opacity:1; font-family:Arial,Helvetica Neue,Helvetica,sans-serif; font-size:48px; text-anchor:end;" transform="rotate(0, 178.373, 253.183)" x="178.373" y="253.183">12</text>
</g>
<g clip-path="url(#clip7000)">
<text style="fill:#000000; fill-opacity:1; font-family:Arial,Helvetica Neue,Helvetica,sans-serif; font-size:66px; text-anchor:middle;" transform="rotate(0, 1277.56, 57.6)" x="1277.56" y="57.6">GCF_000868425.1_ViralProj17577_genomic.fna.K11.jf.histogram</text>
</g>
<g clip-path="url(#clip7000)">
<text style="fill:#000000; fill-opacity:1; font-family:Arial,Helvetica Neue,Helvetica,sans-serif; font-size:66px; text-anchor:middle;" transform="rotate(0, 1277.56, 1559.48)" x="1277.56" y="1559.48">log2(depth of coverage)</text>
</g>
<g clip-path="url(#clip7000)">
<text style="fill:#000000; fill-opacity:1; font-family:Arial,Helvetica Neue,Helvetica,sans-serif; font-size:66px; text-anchor:middle;" transform="rotate(-90, 89.2861, 767.359)" x="89.2861" y="767.359">log2(# kmers)</text>
</g>
<circle clip-path="url(#clip7002)" style="fill:#000000; stroke:none; fill-opacity:1" cx="739.969" cy="156.698" r="18"/>
<circle clip-path="url(#clip7002)" style="fill:#009af9; stroke:none; fill-opacity:1" cx="739.969" cy="156.698" r="14"/>
<circle clip-path="url(#clip7002)" style="fill:#000000; stroke:none; fill-opacity:1" cx="1815.16" cy="852.207" r="18"/>
<circle clip-path="url(#clip7002)" style="fill:#009af9; stroke:none; fill-opacity:1" cx="1815.16" cy="852.207" r="14"/>
<polyline clip-path="url(#clip7002)" style="stroke:#e26f46; stroke-width:4; stroke-opacity:1; fill:none" points="
  739.969,156.698 750.829,163.723 761.69,170.748 772.55,177.774 783.411,184.799 794.271,191.824 805.132,198.85 815.992,205.875 826.853,212.9 837.713,219.926 
  848.574,226.951 859.434,233.976 870.295,241.002 881.155,248.027 892.016,255.052 902.876,262.078 913.737,269.103 924.598,276.128 935.458,283.154 946.319,290.179 
  957.179,297.204 968.04,304.23 978.9,311.255 989.761,318.281 1000.62,325.306 1011.48,332.331 1022.34,339.357 1033.2,346.382 1044.06,353.407 1054.92,360.433 
  1065.78,367.458 1076.64,374.483 1087.51,381.509 1098.37,388.534 1109.23,395.559 1120.09,402.585 1130.95,409.61 1141.81,416.635 1152.67,423.661 1163.53,430.686 
  1174.39,437.711 1185.25,444.737 1196.11,451.762 1206.97,458.787 1217.83,465.813 1228.69,472.838 1239.55,479.863 1250.41,486.889 1261.27,493.914 1272.13,500.939 
  1282.99,507.965 1293.86,514.99 1304.72,522.015 1315.58,529.041 1326.44,536.066 1337.3,543.091 1348.16,550.117 1359.02,557.142 1369.88,564.167 1380.74,571.193 
  1391.6,578.218 1402.46,585.244 1413.32,592.269 1424.18,599.294 1435.04,606.32 1445.9,613.345 1456.76,620.37 1467.62,627.396 1478.48,634.421 1489.34,641.446 
  1500.21,648.472 1511.07,655.497 1521.93,662.522 1532.79,669.548 1543.65,676.573 1554.51,683.598 1565.37,690.624 1576.23,697.649 1587.09,704.674 1597.95,711.7 
  1608.81,718.725 1619.67,725.75 1630.53,732.776 1641.39,739.801 1652.25,746.826 1663.11,753.852 1673.97,760.877 1684.83,767.902 1695.69,774.928 1706.55,781.953 
  1717.42,788.978 1728.28,796.004 1739.14,803.029 1750,810.054 1760.86,817.08 1771.72,824.105 1782.58,831.13 1793.44,838.156 1804.3,845.181 1815.16,852.207 
  
  "/>
<g clip-path="url(#clip7000)">
<text style="fill:#000000; fill-opacity:1; font-family:Arial,Helvetica Neue,Helvetica,sans-serif; font-size:59px; text-anchor:start;" transform="rotate(0, 739.969, 1304.33)" x="739.969" y="1304.33">r = -1.0</text>
</g>
</svg>
