<?xml version="1.0" encoding="utf-8"?>
<svg xmlns="http://www.w3.org/2000/svg" xmlns:xlink="http://www.w3.org/1999/xlink" width="600" height="400" viewBox="0 0 2400 1600">
<defs>
  <clipPath id="clip1600">
    <rect x="0" y="0" width="2400" height="1600"/>
  </clipPath>
</defs>
<polygon clip-path="url(#clip1600)" points="
0,1600 2400,1600 2400,0 0,0 
  " fill="#ffffff" fill-rule="evenodd" fill-opacity="1"/>
<defs>
  <clipPath id="clip1601">
    <rect x="480" y="0" width="1681" height="1600"/>
  </clipPath>
</defs>
<polygon clip-path="url(#clip1600)" points="
202.373,1425.62 2352.76,1425.62 2352.76,109.1 202.373,109.1 
  " fill="#ffffff" fill-rule="evenodd" fill-opacity="1"/>
<defs>
  <clipPath id="clip1602">
    <rect x="202" y="109" width="2151" height="1318"/>
  </clipPath>
</defs>
<polyline clip-path="url(#clip1602)" style="stroke:#000000; stroke-width:2; stroke-opacity:0.1; fill:none" points="
  342.77,1425.62 342.77,109.1 
  "/>
<polyline clip-path="url(#clip1602)" style="stroke:#000000; stroke-width:2; stroke-opacity:0.1; fill:none" points="
  904.359,1425.62 904.359,109.1 
  "/>
<polyline clip-path="url(#clip1602)" style="stroke:#000000; stroke-width:2; stroke-opacity:0.1; fill:none" points="
  1465.95,1425.62 1465.95,109.1 
  "/>
<polyline clip-path="url(#clip1602)" style="stroke:#000000; stroke-width:2; stroke-opacity:0.1; fill:none" points="
  2027.54,1425.62 2027.54,109.1 
  "/>
<polyline clip-path="url(#clip1602)" style="stroke:#000000; stroke-width:2; stroke-opacity:0.1; fill:none" points="
  202.373,1398.68 2352.76,1398.68 
  "/>
<polyline clip-path="url(#clip1602)" style="stroke:#000000; stroke-width:2; stroke-opacity:0.1; fill:none" points="
  202.373,1129.34 2352.76,1129.34 
  "/>
<polyline clip-path="url(#clip1602)" style="stroke:#000000; stroke-width:2; stroke-opacity:0.1; fill:none" points="
  202.373,860.002 2352.76,860.002 
  "/>
<polyline clip-path="url(#clip1602)" style="stroke:#000000; stroke-width:2; stroke-opacity:0.1; fill:none" points="
  202.373,590.661 2352.76,590.661 
  "/>
<polyline clip-path="url(#clip1602)" style="stroke:#000000; stroke-width:2; stroke-opacity:0.1; fill:none" points="
  202.373,321.32 2352.76,321.32 
  "/>
<polyline clip-path="url(#clip1600)" style="stroke:#000000; stroke-width:4; stroke-opacity:1; fill:none" points="
  202.373,1425.62 2352.76,1425.62 
  "/>
<polyline clip-path="url(#clip1600)" style="stroke:#000000; stroke-width:4; stroke-opacity:1; fill:none" points="
  202.373,1425.62 202.373,109.1 
  "/>
<polyline clip-path="url(#clip1600)" style="stroke:#000000; stroke-width:4; stroke-opacity:1; fill:none" points="
  342.77,1425.62 342.77,1405.87 
  "/>
<polyline clip-path="url(#clip1600)" style="stroke:#000000; stroke-width:4; stroke-opacity:1; fill:none" points="
  904.359,1425.62 904.359,1405.87 
  "/>
<polyline clip-path="url(#clip1600)" style="stroke:#000000; stroke-width:4; stroke-opacity:1; fill:none" points="
  1465.95,1425.62 1465.95,1405.87 
  "/>
<polyline clip-path="url(#clip1600)" style="stroke:#000000; stroke-width:4; stroke-opacity:1; fill:none" points="
  2027.54,1425.62 2027.54,1405.87 
  "/>
<polyline clip-path="url(#clip1600)" style="stroke:#000000; stroke-width:4; stroke-opacity:1; fill:none" points="
  202.373,1398.68 234.629,1398.68 
  "/>
<polyline clip-path="url(#clip1600)" style="stroke:#000000; stroke-width:4; stroke-opacity:1; fill:none" points="
  202.373,1129.34 234.629,1129.34 
  "/>
<polyline clip-path="url(#clip1600)" style="stroke:#000000; stroke-width:4; stroke-opacity:1; fill:none" points="
  202.373,860.002 234.629,860.002 
  "/>
<polyline clip-path="url(#clip1600)" style="stroke:#000000; stroke-width:4; stroke-opacity:1; fill:none" points="
  202.373,590.661 234.629,590.661 
  "/>
<polyline clip-path="url(#clip1600)" style="stroke:#000000; stroke-width:4; stroke-opacity:1; fill:none" points="
  202.373,321.32 234.629,321.32 
  "/>
<g clip-path="url(#clip1600)">
<text style="fill:#000000; fill-opacity:1; font-family:Arial,Helvetica Neue,Helvetica,sans-serif; font-size:48px; text-anchor:middle;" transform="rotate(0, 342.77, 1479.62)" x="342.77" y="1479.62">0</text>
</g>
<g clip-path="url(#clip1600)">
<text style="fill:#000000; fill-opacity:1; font-family:Arial,Helvetica Neue,Helvetica,sans-serif; font-size:48px; text-anchor:middle;" transform="rotate(0, 904.359, 1479.62)" x="904.359" y="1479.62">2</text>
</g>
<g clip-path="url(#clip1600)">
<text style="fill:#000000; fill-opacity:1; font-family:Arial,Helvetica Neue,Helvetica,sans-serif; font-size:48px; text-anchor:middle;" transform="rotate(0, 1465.95, 1479.62)" x="1465.95" y="1479.62">4</text>
</g>
<g clip-path="url(#clip1600)">
<text style="fill:#000000; fill-opacity:1; font-family:Arial,Helvetica Neue,Helvetica,sans-serif; font-size:48px; text-anchor:middle;" transform="rotate(0, 2027.54, 1479.62)" x="2027.54" y="1479.62">6</text>
</g>
<g clip-path="url(#clip1600)">
<text style="fill:#000000; fill-opacity:1; font-family:Arial,Helvetica Neue,Helvetica,sans-serif; font-size:48px; text-anchor:end;" transform="rotate(0, 178.373, 1416.18)" x="178.373" y="1416.18">0</text>
</g>
<g clip-path="url(#clip1600)">
<text style="fill:#000000; fill-opacity:1; font-family:Arial,Helvetica Neue,Helvetica,sans-serif; font-size:48px; text-anchor:end;" transform="rotate(0, 178.373, 1146.84)" x="178.373" y="1146.84">5</text>
</g>
<g clip-path="url(#clip1600)">
<text style="fill:#000000; fill-opacity:1; font-family:Arial,Helvetica Neue,Helvetica,sans-serif; font-size:48px; text-anchor:end;" transform="rotate(0, 178.373, 877.502)" x="178.373" y="877.502">10</text>
</g>
<g clip-path="url(#clip1600)">
<text style="fill:#000000; fill-opacity:1; font-family:Arial,Helvetica Neue,Helvetica,sans-serif; font-size:48px; text-anchor:end;" transform="rotate(0, 178.373, 608.161)" x="178.373" y="608.161">15</text>
</g>
<g clip-path="url(#clip1600)">
<text style="fill:#000000; fill-opacity:1; font-family:Arial,Helvetica Neue,Helvetica,sans-serif; font-size:48px; text-anchor:end;" transform="rotate(0, 178.373, 338.82)" x="178.373" y="338.82">20</text>
</g>
<g clip-path="url(#clip1600)">
<text style="fill:#000000; fill-opacity:1; font-family:Arial,Helvetica Neue,Helvetica,sans-serif; font-size:66px; text-anchor:middle;" transform="rotate(0, 1277.56, 57.6)" x="1277.56" y="57.6">GCF_000146045.2_R64_genomic.fna.K31.jf.histogram</text>
</g>
<g clip-path="url(#clip1600)">
<text style="fill:#000000; fill-opacity:1; font-family:Arial,Helvetica Neue,Helvetica,sans-serif; font-size:66px; text-anchor:middle;" transform="rotate(0, 1277.56, 1559.48)" x="1277.56" y="1559.48">log2(depth of coverage)</text>
</g>
<g clip-path="url(#clip1600)">
<text style="fill:#000000; fill-opacity:1; font-family:Arial,Helvetica Neue,Helvetica,sans-serif; font-size:66px; text-anchor:middle;" transform="rotate(-90, 89.2861, 767.359)" x="89.2861" y="767.359">log2(# kmers)</text>
</g>
<circle clip-path="url(#clip1602)" style="fill:#000000; stroke:none; fill-opacity:1" cx="342.77" cy="136.034" r="18"/>
<circle clip-path="url(#clip1602)" style="fill:#009af9; stroke:none; fill-opacity:1" cx="342.77" cy="136.034" r="14"/>
<circle clip-path="url(#clip1602)" style="fill:#000000; stroke:none; fill-opacity:1" cx="623.565" cy="488.858" r="18"/>
<circle clip-path="url(#clip1602)" style="fill:#009af9; stroke:none; fill-opacity:1" cx="623.565" cy="488.858" r="14"/>
<circle clip-path="url(#clip1602)" style="fill:#000000; stroke:none; fill-opacity:1" cx="787.819" cy="603.848" r="18"/>
<circle clip-path="url(#clip1602)" style="fill:#009af9; stroke:none; fill-opacity:1" cx="787.819" cy="603.848" r="14"/>
<circle clip-path="url(#clip1602)" style="fill:#000000; stroke:none; fill-opacity:1" cx="904.359" cy="682.775" r="18"/>
<circle clip-path="url(#clip1602)" style="fill:#009af9; stroke:none; fill-opacity:1" cx="904.359" cy="682.775" r="14"/>
<circle clip-path="url(#clip1602)" style="fill:#000000; stroke:none; fill-opacity:1" cx="994.755" cy="775.847" r="18"/>
<circle clip-path="url(#clip1602)" style="fill:#009af9; stroke:none; fill-opacity:1" cx="994.755" cy="775.847" r="14"/>
<circle clip-path="url(#clip1602)" style="fill:#000000; stroke:none; fill-opacity:1" cx="1068.61" cy="798.239" r="18"/>
<circle clip-path="url(#clip1602)" style="fill:#009af9; stroke:none; fill-opacity:1" cx="1068.61" cy="798.239" r="14"/>
<circle clip-path="url(#clip1602)" style="fill:#000000; stroke:none; fill-opacity:1" cx="1131.06" cy="803.12" r="18"/>
<circle clip-path="url(#clip1602)" style="fill:#009af9; stroke:none; fill-opacity:1" cx="1131.06" cy="803.12" r="14"/>
<circle clip-path="url(#clip1602)" style="fill:#000000; stroke:none; fill-opacity:1" cx="1185.15" cy="822.271" r="18"/>
<circle clip-path="url(#clip1602)" style="fill:#009af9; stroke:none; fill-opacity:1" cx="1185.15" cy="822.271" r="14"/>
<circle clip-path="url(#clip1602)" style="fill:#000000; stroke:none; fill-opacity:1" cx="1232.87" cy="849.18" r="18"/>
<circle clip-path="url(#clip1602)" style="fill:#009af9; stroke:none; fill-opacity:1" cx="1232.87" cy="849.18" r="14"/>
<circle clip-path="url(#clip1602)" style="fill:#000000; stroke:none; fill-opacity:1" cx="1275.55" cy="875.581" r="18"/>
<circle clip-path="url(#clip1602)" style="fill:#009af9; stroke:none; fill-opacity:1" cx="1275.55" cy="875.581" r="14"/>
<circle clip-path="url(#clip1602)" style="fill:#000000; stroke:none; fill-opacity:1" cx="1314.16" cy="809.231" r="18"/>
<circle clip-path="url(#clip1602)" style="fill:#009af9; stroke:none; fill-opacity:1" cx="1314.16" cy="809.231" r="14"/>
<circle clip-path="url(#clip1602)" style="fill:#000000; stroke:none; fill-opacity:1" cx="1349.41" cy="853.177" r="18"/>
<circle clip-path="url(#clip1602)" style="fill:#009af9; stroke:none; fill-opacity:1" cx="1349.41" cy="853.177" r="14"/>
<circle clip-path="url(#clip1602)" style="fill:#000000; stroke:none; fill-opacity:1" cx="1381.83" cy="790.171" r="18"/>
<circle clip-path="url(#clip1602)" style="fill:#009af9; stroke:none; fill-opacity:1" cx="1381.83" cy="790.171" r="14"/>
<circle clip-path="url(#clip1602)" style="fill:#000000; stroke:none; fill-opacity:1" cx="1411.85" cy="886.41" r="18"/>
<circle clip-path="url(#clip1602)" style="fill:#009af9; stroke:none; fill-opacity:1" cx="1411.85" cy="886.41" r="14"/>
<circle clip-path="url(#clip1602)" style="fill:#000000; stroke:none; fill-opacity:1" cx="1439.8" cy="869.775" r="18"/>
<circle clip-path="url(#clip1602)" style="fill:#009af9; stroke:none; fill-opacity:1" cx="1439.8" cy="869.775" r="14"/>
<circle clip-path="url(#clip1602)" style="fill:#000000; stroke:none; fill-opacity:1" cx="1465.95" cy="867.736" r="18"/>
<circle clip-path="url(#clip1602)" style="fill:#009af9; stroke:none; fill-opacity:1" cx="1465.95" cy="867.736" r="14"/>
<circle clip-path="url(#clip1602)" style="fill:#000000; stroke:none; fill-opacity:1" cx="1490.51" cy="901.674" r="18"/>
<circle clip-path="url(#clip1602)" style="fill:#009af9; stroke:none; fill-opacity:1" cx="1490.51" cy="901.674" r="14"/>
<circle clip-path="url(#clip1602)" style="fill:#000000; stroke:none; fill-opacity:1" cx="1513.66" cy="879.187" r="18"/>
<circle clip-path="url(#clip1602)" style="fill:#009af9; stroke:none; fill-opacity:1" cx="1513.66" cy="879.187" r="14"/>
<circle clip-path="url(#clip1602)" style="fill:#000000; stroke:none; fill-opacity:1" cx="1535.56" cy="820.974" r="18"/>
<circle clip-path="url(#clip1602)" style="fill:#009af9; stroke:none; fill-opacity:1" cx="1535.56" cy="820.974" r="14"/>
<circle clip-path="url(#clip1602)" style="fill:#000000; stroke:none; fill-opacity:1" cx="1556.34" cy="953.367" r="18"/>
<circle clip-path="url(#clip1602)" style="fill:#009af9; stroke:none; fill-opacity:1" cx="1556.34" cy="953.367" r="14"/>
<circle clip-path="url(#clip1602)" style="fill:#000000; stroke:none; fill-opacity:1" cx="1576.11" cy="959.399" r="18"/>
<circle clip-path="url(#clip1602)" style="fill:#009af9; stroke:none; fill-opacity:1" cx="1576.11" cy="959.399" r="14"/>
<circle clip-path="url(#clip1602)" style="fill:#000000; stroke:none; fill-opacity:1" cx="1594.95" cy="996.858" r="18"/>
<circle clip-path="url(#clip1602)" style="fill:#009af9; stroke:none; fill-opacity:1" cx="1594.95" cy="996.858" r="14"/>
<circle clip-path="url(#clip1602)" style="fill:#000000; stroke:none; fill-opacity:1" cx="1612.96" cy="952.614" r="18"/>
<circle clip-path="url(#clip1602)" style="fill:#009af9; stroke:none; fill-opacity:1" cx="1612.96" cy="952.614" r="14"/>
<circle clip-path="url(#clip1602)" style="fill:#000000; stroke:none; fill-opacity:1" cx="1630.2" cy="1003.3" r="18"/>
<circle clip-path="url(#clip1602)" style="fill:#009af9; stroke:none; fill-opacity:1" cx="1630.2" cy="1003.3" r="14"/>
<circle clip-path="url(#clip1602)" style="fill:#000000; stroke:none; fill-opacity:1" cx="1646.74" cy="979.516" r="18"/>
<circle clip-path="url(#clip1602)" style="fill:#009af9; stroke:none; fill-opacity:1" cx="1646.74" cy="979.516" r="14"/>
<circle clip-path="url(#clip1602)" style="fill:#000000; stroke:none; fill-opacity:1" cx="1662.63" cy="938.904" r="18"/>
<circle clip-path="url(#clip1602)" style="fill:#009af9; stroke:none; fill-opacity:1" cx="1662.63" cy="938.904" r="14"/>
<circle clip-path="url(#clip1602)" style="fill:#000000; stroke:none; fill-opacity:1" cx="1677.92" cy="1012.99" r="18"/>
<circle clip-path="url(#clip1602)" style="fill:#009af9; stroke:none; fill-opacity:1" cx="1677.92" cy="1012.99" r="14"/>
<circle clip-path="url(#clip1602)" style="fill:#000000; stroke:none; fill-opacity:1" cx="1692.65" cy="931.707" r="18"/>
<circle clip-path="url(#clip1602)" style="fill:#009af9; stroke:none; fill-opacity:1" cx="1692.65" cy="931.707" r="14"/>
<circle clip-path="url(#clip1602)" style="fill:#000000; stroke:none; fill-opacity:1" cx="1706.86" cy="894.137" r="18"/>
<circle clip-path="url(#clip1602)" style="fill:#009af9; stroke:none; fill-opacity:1" cx="1706.86" cy="894.137" r="14"/>
<circle clip-path="url(#clip1602)" style="fill:#000000; stroke:none; fill-opacity:1" cx="1720.6" cy="907.463" r="18"/>
<circle clip-path="url(#clip1602)" style="fill:#009af9; stroke:none; fill-opacity:1" cx="1720.6" cy="907.463" r="14"/>
<circle clip-path="url(#clip1602)" style="fill:#000000; stroke:none; fill-opacity:1" cx="1733.88" cy="977.77" r="18"/>
<circle clip-path="url(#clip1602)" style="fill:#009af9; stroke:none; fill-opacity:1" cx="1733.88" cy="977.77" r="14"/>
<circle clip-path="url(#clip1602)" style="fill:#000000; stroke:none; fill-opacity:1" cx="1746.74" cy="888.572" r="18"/>
<circle clip-path="url(#clip1602)" style="fill:#009af9; stroke:none; fill-opacity:1" cx="1746.74" cy="888.572" r="14"/>
<circle clip-path="url(#clip1602)" style="fill:#000000; stroke:none; fill-opacity:1" cx="1759.21" cy="913.719" r="18"/>
<circle clip-path="url(#clip1602)" style="fill:#009af9; stroke:none; fill-opacity:1" cx="1759.21" cy="913.719" r="14"/>
<circle clip-path="url(#clip1602)" style="fill:#000000; stroke:none; fill-opacity:1" cx="1771.3" cy="1118.06" r="18"/>
<circle clip-path="url(#clip1602)" style="fill:#009af9; stroke:none; fill-opacity:1" cx="1771.3" cy="1118.06" r="14"/>
<circle clip-path="url(#clip1602)" style="fill:#000000; stroke:none; fill-opacity:1" cx="1783.04" cy="1145.48" r="18"/>
<circle clip-path="url(#clip1602)" style="fill:#009af9; stroke:none; fill-opacity:1" cx="1783.04" cy="1145.48" r="14"/>
<circle clip-path="url(#clip1602)" style="fill:#000000; stroke:none; fill-opacity:1" cx="1794.46" cy="1106.38" r="18"/>
<circle clip-path="url(#clip1602)" style="fill:#009af9; stroke:none; fill-opacity:1" cx="1794.46" cy="1106.38" r="14"/>
<circle clip-path="url(#clip1602)" style="fill:#000000; stroke:none; fill-opacity:1" cx="1805.56" cy="1151.7" r="18"/>
<circle clip-path="url(#clip1602)" style="fill:#009af9; stroke:none; fill-opacity:1" cx="1805.56" cy="1151.7" r="14"/>
<circle clip-path="url(#clip1602)" style="fill:#000000; stroke:none; fill-opacity:1" cx="1816.36" cy="1313.31" r="18"/>
<circle clip-path="url(#clip1602)" style="fill:#009af9; stroke:none; fill-opacity:1" cx="1816.36" cy="1313.31" r="14"/>
<circle clip-path="url(#clip1602)" style="fill:#000000; stroke:none; fill-opacity:1" cx="1826.88" cy="1205.57" r="18"/>
<circle clip-path="url(#clip1602)" style="fill:#009af9; stroke:none; fill-opacity:1" cx="1826.88" cy="1205.57" r="14"/>
<circle clip-path="url(#clip1602)" style="fill:#000000; stroke:none; fill-opacity:1" cx="1837.14" cy="1290.95" r="18"/>
<circle clip-path="url(#clip1602)" style="fill:#009af9; stroke:none; fill-opacity:1" cx="1837.14" cy="1290.95" r="14"/>
<circle clip-path="url(#clip1602)" style="fill:#000000; stroke:none; fill-opacity:1" cx="1847.14" cy="1155.01" r="18"/>
<circle clip-path="url(#clip1602)" style="fill:#009af9; stroke:none; fill-opacity:1" cx="1847.14" cy="1155.01" r="14"/>
<circle clip-path="url(#clip1602)" style="fill:#000000; stroke:none; fill-opacity:1" cx="1856.9" cy="1237.08" r="18"/>
<circle clip-path="url(#clip1602)" style="fill:#009af9; stroke:none; fill-opacity:1" cx="1856.9" cy="1237.08" r="14"/>
<circle clip-path="url(#clip1602)" style="fill:#000000; stroke:none; fill-opacity:1" cx="1866.43" cy="1199.35" r="18"/>
<circle clip-path="url(#clip1602)" style="fill:#009af9; stroke:none; fill-opacity:1" cx="1866.43" cy="1199.35" r="14"/>
<circle clip-path="url(#clip1602)" style="fill:#000000; stroke:none; fill-opacity:1" cx="1875.75" cy="1313.31" r="18"/>
<circle clip-path="url(#clip1602)" style="fill:#009af9; stroke:none; fill-opacity:1" cx="1875.75" cy="1313.31" r="14"/>
<circle clip-path="url(#clip1602)" style="fill:#000000; stroke:none; fill-opacity:1" cx="1884.85" cy="1124.63" r="18"/>
<circle clip-path="url(#clip1602)" style="fill:#009af9; stroke:none; fill-opacity:1" cx="1884.85" cy="1124.63" r="14"/>
<circle clip-path="url(#clip1602)" style="fill:#000000; stroke:none; fill-opacity:1" cx="1893.76" cy="1188.23" r="18"/>
<circle clip-path="url(#clip1602)" style="fill:#009af9; stroke:none; fill-opacity:1" cx="1893.76" cy="1188.23" r="14"/>
<circle clip-path="url(#clip1602)" style="fill:#000000; stroke:none; fill-opacity:1" cx="1902.47" cy="1151.7" r="18"/>
<circle clip-path="url(#clip1602)" style="fill:#009af9; stroke:none; fill-opacity:1" cx="1902.47" cy="1151.7" r="14"/>
<circle clip-path="url(#clip1602)" style="fill:#000000; stroke:none; fill-opacity:1" cx="1911" cy="1183.21" r="18"/>
<circle clip-path="url(#clip1602)" style="fill:#009af9; stroke:none; fill-opacity:1" cx="1911" cy="1183.21" r="14"/>
<circle clip-path="url(#clip1602)" style="fill:#000000; stroke:none; fill-opacity:1" cx="1919.35" cy="1237.08" r="18"/>
<circle clip-path="url(#clip1602)" style="fill:#009af9; stroke:none; fill-opacity:1" cx="1919.35" cy="1237.08" r="14"/>
<circle clip-path="url(#clip1602)" style="fill:#000000; stroke:none; fill-opacity:1" cx="1927.53" cy="1290.95" r="18"/>
<circle clip-path="url(#clip1602)" style="fill:#009af9; stroke:none; fill-opacity:1" cx="1927.53" cy="1290.95" r="14"/>
<circle clip-path="url(#clip1602)" style="fill:#000000; stroke:none; fill-opacity:1" cx="1935.56" cy="1106.38" r="18"/>
<circle clip-path="url(#clip1602)" style="fill:#009af9; stroke:none; fill-opacity:1" cx="1935.56" cy="1106.38" r="14"/>
<circle clip-path="url(#clip1602)" style="fill:#000000; stroke:none; fill-opacity:1" cx="1943.42" cy="1178.5" r="18"/>
<circle clip-path="url(#clip1602)" style="fill:#009af9; stroke:none; fill-opacity:1" cx="1943.42" cy="1178.5" r="14"/>
<circle clip-path="url(#clip1602)" style="fill:#000000; stroke:none; fill-opacity:1" cx="1951.14" cy="1165.87" r="18"/>
<circle clip-path="url(#clip1602)" style="fill:#009af9; stroke:none; fill-opacity:1" cx="1951.14" cy="1165.87" r="14"/>
<circle clip-path="url(#clip1602)" style="fill:#000000; stroke:none; fill-opacity:1" cx="1958.71" cy="1212.33" r="18"/>
<circle clip-path="url(#clip1602)" style="fill:#009af9; stroke:none; fill-opacity:1" cx="1958.71" cy="1212.33" r="14"/>
<circle clip-path="url(#clip1602)" style="fill:#000000; stroke:none; fill-opacity:1" cx="1966.14" cy="1212.33" r="18"/>
<circle clip-path="url(#clip1602)" style="fill:#009af9; stroke:none; fill-opacity:1" cx="1966.14" cy="1212.33" r="14"/>
<circle clip-path="url(#clip1602)" style="fill:#000000; stroke:none; fill-opacity:1" cx="1973.44" cy="1290.95" r="18"/>
<circle clip-path="url(#clip1602)" style="fill:#009af9; stroke:none; fill-opacity:1" cx="1973.44" cy="1290.95" r="14"/>
<circle clip-path="url(#clip1602)" style="fill:#000000; stroke:none; fill-opacity:1" cx="1980.61" cy="1290.95" r="18"/>
<circle clip-path="url(#clip1602)" style="fill:#009af9; stroke:none; fill-opacity:1" cx="1980.61" cy="1290.95" r="14"/>
<circle clip-path="url(#clip1602)" style="fill:#000000; stroke:none; fill-opacity:1" cx="1987.66" cy="1398.68" r="18"/>
<circle clip-path="url(#clip1602)" style="fill:#009af9; stroke:none; fill-opacity:1" cx="1987.66" cy="1398.68" r="14"/>
<circle clip-path="url(#clip1602)" style="fill:#000000; stroke:none; fill-opacity:1" cx="1994.58" cy="1398.68" r="18"/>
<circle clip-path="url(#clip1602)" style="fill:#009af9; stroke:none; fill-opacity:1" cx="1994.58" cy="1398.68" r="14"/>
<circle clip-path="url(#clip1602)" style="fill:#000000; stroke:none; fill-opacity:1" cx="2001.39" cy="1205.57" r="18"/>
<circle clip-path="url(#clip1602)" style="fill:#009af9; stroke:none; fill-opacity:1" cx="2001.39" cy="1205.57" r="14"/>
<circle clip-path="url(#clip1602)" style="fill:#000000; stroke:none; fill-opacity:1" cx="2008.09" cy="1131.81" r="18"/>
<circle clip-path="url(#clip1602)" style="fill:#009af9; stroke:none; fill-opacity:1" cx="2008.09" cy="1131.81" r="14"/>
<circle clip-path="url(#clip1602)" style="fill:#000000; stroke:none; fill-opacity:1" cx="2014.68" cy="1247.46" r="18"/>
<circle clip-path="url(#clip1602)" style="fill:#009af9; stroke:none; fill-opacity:1" cx="2014.68" cy="1247.46" r="14"/>
<circle clip-path="url(#clip1602)" style="fill:#000000; stroke:none; fill-opacity:1" cx="2021.16" cy="1151.7" r="18"/>
<circle clip-path="url(#clip1602)" style="fill:#009af9; stroke:none; fill-opacity:1" cx="2021.16" cy="1151.7" r="14"/>
<circle clip-path="url(#clip1602)" style="fill:#000000; stroke:none; fill-opacity:1" cx="2027.54" cy="1237.08" r="18"/>
<circle clip-path="url(#clip1602)" style="fill:#009af9; stroke:none; fill-opacity:1" cx="2027.54" cy="1237.08" r="14"/>
<circle clip-path="url(#clip1602)" style="fill:#000000; stroke:none; fill-opacity:1" cx="2033.82" cy="1344.82" r="18"/>
<circle clip-path="url(#clip1602)" style="fill:#009af9; stroke:none; fill-opacity:1" cx="2033.82" cy="1344.82" r="14"/>
<circle clip-path="url(#clip1602)" style="fill:#000000; stroke:none; fill-opacity:1" cx="2040" cy="1344.82" r="18"/>
<circle clip-path="url(#clip1602)" style="fill:#009af9; stroke:none; fill-opacity:1" cx="2040" cy="1344.82" r="14"/>
<circle clip-path="url(#clip1602)" style="fill:#000000; stroke:none; fill-opacity:1" cx="2046.09" cy="1273.61" r="18"/>
<circle clip-path="url(#clip1602)" style="fill:#009af9; stroke:none; fill-opacity:1" cx="2046.09" cy="1273.61" r="14"/>
<circle clip-path="url(#clip1602)" style="fill:#000000; stroke:none; fill-opacity:1" cx="2052.1" cy="1344.82" r="18"/>
<circle clip-path="url(#clip1602)" style="fill:#009af9; stroke:none; fill-opacity:1" cx="2052.1" cy="1344.82" r="14"/>
<circle clip-path="url(#clip1602)" style="fill:#000000; stroke:none; fill-opacity:1" cx="2075.25" cy="1398.68" r="18"/>
<circle clip-path="url(#clip1602)" style="fill:#009af9; stroke:none; fill-opacity:1" cx="2075.25" cy="1398.68" r="14"/>
<circle clip-path="url(#clip1602)" style="fill:#000000; stroke:none; fill-opacity:1" cx="2080.84" cy="1290.95" r="18"/>
<circle clip-path="url(#clip1602)" style="fill:#009af9; stroke:none; fill-opacity:1" cx="2080.84" cy="1290.95" r="14"/>
<circle clip-path="url(#clip1602)" style="fill:#000000; stroke:none; fill-opacity:1" cx="2086.35" cy="1398.68" r="18"/>
<circle clip-path="url(#clip1602)" style="fill:#009af9; stroke:none; fill-opacity:1" cx="2086.35" cy="1398.68" r="14"/>
<circle clip-path="url(#clip1602)" style="fill:#000000; stroke:none; fill-opacity:1" cx="2091.79" cy="1344.82" r="18"/>
<circle clip-path="url(#clip1602)" style="fill:#009af9; stroke:none; fill-opacity:1" cx="2091.79" cy="1344.82" r="14"/>
<circle clip-path="url(#clip1602)" style="fill:#000000; stroke:none; fill-opacity:1" cx="2097.15" cy="1145.48" r="18"/>
<circle clip-path="url(#clip1602)" style="fill:#009af9; stroke:none; fill-opacity:1" cx="2097.15" cy="1145.48" r="14"/>
<circle clip-path="url(#clip1602)" style="fill:#000000; stroke:none; fill-opacity:1" cx="2102.45" cy="1174.06" r="18"/>
<circle clip-path="url(#clip1602)" style="fill:#009af9; stroke:none; fill-opacity:1" cx="2102.45" cy="1174.06" r="14"/>
<circle clip-path="url(#clip1602)" style="fill:#000000; stroke:none; fill-opacity:1" cx="2107.68" cy="1158.46" r="18"/>
<circle clip-path="url(#clip1602)" style="fill:#009af9; stroke:none; fill-opacity:1" cx="2107.68" cy="1158.46" r="14"/>
<circle clip-path="url(#clip1602)" style="fill:#000000; stroke:none; fill-opacity:1" cx="2112.84" cy="1398.68" r="18"/>
<circle clip-path="url(#clip1602)" style="fill:#009af9; stroke:none; fill-opacity:1" cx="2112.84" cy="1398.68" r="14"/>
<circle clip-path="url(#clip1602)" style="fill:#000000; stroke:none; fill-opacity:1" cx="2122.96" cy="1151.7" r="18"/>
<circle clip-path="url(#clip1602)" style="fill:#009af9; stroke:none; fill-opacity:1" cx="2122.96" cy="1151.7" r="14"/>
<circle clip-path="url(#clip1602)" style="fill:#000000; stroke:none; fill-opacity:1" cx="2127.94" cy="1205.57" r="18"/>
<circle clip-path="url(#clip1602)" style="fill:#009af9; stroke:none; fill-opacity:1" cx="2127.94" cy="1205.57" r="14"/>
<circle clip-path="url(#clip1602)" style="fill:#000000; stroke:none; fill-opacity:1" cx="2132.85" cy="1290.95" r="18"/>
<circle clip-path="url(#clip1602)" style="fill:#009af9; stroke:none; fill-opacity:1" cx="2132.85" cy="1290.95" r="14"/>
<circle clip-path="url(#clip1602)" style="fill:#000000; stroke:none; fill-opacity:1" cx="2137.7" cy="1398.68" r="18"/>
<circle clip-path="url(#clip1602)" style="fill:#009af9; stroke:none; fill-opacity:1" cx="2137.7" cy="1398.68" r="14"/>
<circle clip-path="url(#clip1602)" style="fill:#000000; stroke:none; fill-opacity:1" cx="2165.65" cy="1344.82" r="18"/>
<circle clip-path="url(#clip1602)" style="fill:#009af9; stroke:none; fill-opacity:1" cx="2165.65" cy="1344.82" r="14"/>
<circle clip-path="url(#clip1602)" style="fill:#000000; stroke:none; fill-opacity:1" cx="2178.93" cy="1398.68" r="18"/>
<circle clip-path="url(#clip1602)" style="fill:#009af9; stroke:none; fill-opacity:1" cx="2178.93" cy="1398.68" r="14"/>
<circle clip-path="url(#clip1602)" style="fill:#000000; stroke:none; fill-opacity:1" cx="2183.26" cy="1398.68" r="18"/>
<circle clip-path="url(#clip1602)" style="fill:#009af9; stroke:none; fill-opacity:1" cx="2183.26" cy="1398.68" r="14"/>
<circle clip-path="url(#clip1602)" style="fill:#000000; stroke:none; fill-opacity:1" cx="2204.26" cy="1259.44" r="18"/>
<circle clip-path="url(#clip1602)" style="fill:#009af9; stroke:none; fill-opacity:1" cx="2204.26" cy="1259.44" r="14"/>
<circle clip-path="url(#clip1602)" style="fill:#000000; stroke:none; fill-opacity:1" cx="2208.33" cy="1237.08" r="18"/>
<circle clip-path="url(#clip1602)" style="fill:#009af9; stroke:none; fill-opacity:1" cx="2208.33" cy="1237.08" r="14"/>
<circle clip-path="url(#clip1602)" style="fill:#000000; stroke:none; fill-opacity:1" cx="2212.36" cy="1313.31" r="18"/>
<circle clip-path="url(#clip1602)" style="fill:#009af9; stroke:none; fill-opacity:1" cx="2212.36" cy="1313.31" r="14"/>
<polyline clip-path="url(#clip1602)" style="stroke:#e26f46; stroke-width:4; stroke-opacity:1; fill:none" points="
  342.77,278.048 361.655,288.894 380.54,299.741 399.424,310.587 418.309,321.433 437.194,332.28 456.079,343.126 474.963,353.972 493.848,364.818 512.733,375.665 
  531.617,386.511 550.502,397.357 569.387,408.204 588.272,419.05 607.156,429.896 626.041,440.743 644.926,451.589 663.811,462.435 682.695,473.281 701.58,484.128 
  720.465,494.974 739.35,505.82 758.234,516.667 777.119,527.513 796.004,538.359 814.888,549.206 833.773,560.052 852.658,570.898 871.543,581.744 890.427,592.591 
  909.312,603.437 928.197,614.283 947.082,625.13 965.966,635.976 984.851,646.822 1003.74,657.668 1022.62,668.515 1041.51,679.361 1060.39,690.207 1079.27,701.054 
  1098.16,711.9 1117.04,722.746 1135.93,733.593 1154.81,744.439 1173.7,755.285 1192.58,766.131 1211.47,776.978 1230.35,787.824 1249.24,798.67 1268.12,809.517 
  1287.01,820.363 1305.89,831.209 1324.78,842.056 1343.66,852.902 1362.55,863.748 1381.43,874.594 1400.32,885.441 1419.2,896.287 1438.08,907.133 1456.97,917.98 
  1475.85,928.826 1494.74,939.672 1513.62,950.519 1532.51,961.365 1551.39,972.211 1570.28,983.057 1589.16,993.904 1608.05,1004.75 1626.93,1015.6 1645.82,1026.44 
  1664.7,1037.29 1683.59,1048.14 1702.47,1058.98 1721.36,1069.83 1740.24,1080.67 1759.13,1091.52 1778.01,1102.37 1796.89,1113.21 1815.78,1124.06 1834.66,1134.91 
  1853.55,1145.75 1872.43,1156.6 1891.32,1167.44 1910.2,1178.29 1929.09,1189.14 1947.97,1199.98 1966.86,1210.83 1985.74,1221.68 2004.63,1232.52 2023.51,1243.37 
  2042.4,1254.21 2061.28,1265.06 2080.17,1275.91 2099.05,1286.75 2117.94,1297.6 2136.82,1308.45 2155.7,1319.29 2174.59,1330.14 2193.47,1340.99 2212.36,1351.83 
  
  "/>
<g clip-path="url(#clip1600)">
<text style="fill:#000000; fill-opacity:1; font-family:Arial,Helvetica Neue,Helvetica,sans-serif; font-size:59px; text-anchor:start;" transform="rotate(0, 342.77, 1366.32)" x="342.77" y="1366.32">r = -0.92</text>
</g>
</svg>
