<?xml version="1.0" encoding="utf-8"?>
<svg xmlns="http://www.w3.org/2000/svg" xmlns:xlink="http://www.w3.org/1999/xlink" width="600" height="400" viewBox="0 0 2400 1600">
<defs>
  <clipPath id="clip7700">
    <rect x="0" y="0" width="2400" height="1600"/>
  </clipPath>
</defs>
<polygon clip-path="url(#clip7700)" points="
0,1600 2400,1600 2400,0 0,0 
  " fill="#ffffff" fill-rule="evenodd" fill-opacity="1"/>
<defs>
  <clipPath id="clip7701">
    <rect x="480" y="0" width="1681" height="1600"/>
  </clipPath>
</defs>
<polygon clip-path="url(#clip7700)" points="
202.373,1425.62 2352.76,1425.62 2352.76,109.1 202.373,109.1 
  " fill="#ffffff" fill-rule="evenodd" fill-opacity="1"/>
<defs>
  <clipPath id="clip7702">
    <rect x="202" y="109" width="2151" height="1318"/>
  </clipPath>
</defs>
<polyline clip-path="url(#clip7702)" style="stroke:#000000; stroke-width:2; stroke-opacity:0.1; fill:none" points="
  202.373,1425.62 202.373,109.1 
  "/>
<polyline clip-path="url(#clip7702)" style="stroke:#000000; stroke-width:2; stroke-opacity:0.1; fill:none" points="
  739.969,1425.62 739.969,109.1 
  "/>
<polyline clip-path="url(#clip7702)" style="stroke:#000000; stroke-width:2; stroke-opacity:0.1; fill:none" points="
  1277.56,1425.62 1277.56,109.1 
  "/>
<polyline clip-path="url(#clip7702)" style="stroke:#000000; stroke-width:2; stroke-opacity:0.1; fill:none" points="
  1815.16,1425.62 1815.16,109.1 
  "/>
<polyline clip-path="url(#clip7702)" style="stroke:#000000; stroke-width:2; stroke-opacity:0.1; fill:none" points="
  2352.76,1425.62 2352.76,109.1 
  "/>
<polyline clip-path="url(#clip7702)" style="stroke:#000000; stroke-width:2; stroke-opacity:0.1; fill:none" points="
  202.373,1378.07 2352.76,1378.07 
  "/>
<polyline clip-path="url(#clip7702)" style="stroke:#000000; stroke-width:2; stroke-opacity:0.1; fill:none" points="
  202.373,1187.88 2352.76,1187.88 
  "/>
<polyline clip-path="url(#clip7702)" style="stroke:#000000; stroke-width:2; stroke-opacity:0.1; fill:none" points="
  202.373,997.693 2352.76,997.693 
  "/>
<polyline clip-path="url(#clip7702)" style="stroke:#000000; stroke-width:2; stroke-opacity:0.1; fill:none" points="
  202.373,807.504 2352.76,807.504 
  "/>
<polyline clip-path="url(#clip7702)" style="stroke:#000000; stroke-width:2; stroke-opacity:0.1; fill:none" points="
  202.373,617.315 2352.76,617.315 
  "/>
<polyline clip-path="url(#clip7702)" style="stroke:#000000; stroke-width:2; stroke-opacity:0.1; fill:none" points="
  202.373,427.126 2352.76,427.126 
  "/>
<polyline clip-path="url(#clip7702)" style="stroke:#000000; stroke-width:2; stroke-opacity:0.1; fill:none" points="
  202.373,236.937 2352.76,236.937 
  "/>
<polyline clip-path="url(#clip7700)" style="stroke:#000000; stroke-width:4; stroke-opacity:1; fill:none" points="
  202.373,1425.62 2352.76,1425.62 
  "/>
<polyline clip-path="url(#clip7700)" style="stroke:#000000; stroke-width:4; stroke-opacity:1; fill:none" points="
  202.373,1425.62 202.373,109.1 
  "/>
<polyline clip-path="url(#clip7700)" style="stroke:#000000; stroke-width:4; stroke-opacity:1; fill:none" points="
  202.373,1425.62 202.373,1405.87 
  "/>
<polyline clip-path="url(#clip7700)" style="stroke:#000000; stroke-width:4; stroke-opacity:1; fill:none" points="
  739.969,1425.62 739.969,1405.87 
  "/>
<polyline clip-path="url(#clip7700)" style="stroke:#000000; stroke-width:4; stroke-opacity:1; fill:none" points="
  1277.56,1425.62 1277.56,1405.87 
  "/>
<polyline clip-path="url(#clip7700)" style="stroke:#000000; stroke-width:4; stroke-opacity:1; fill:none" points="
  1815.16,1425.62 1815.16,1405.87 
  "/>
<polyline clip-path="url(#clip7700)" style="stroke:#000000; stroke-width:4; stroke-opacity:1; fill:none" points="
  2352.76,1425.62 2352.76,1405.87 
  "/>
<polyline clip-path="url(#clip7700)" style="stroke:#000000; stroke-width:4; stroke-opacity:1; fill:none" points="
  202.373,1378.07 234.629,1378.07 
  "/>
<polyline clip-path="url(#clip7700)" style="stroke:#000000; stroke-width:4; stroke-opacity:1; fill:none" points="
  202.373,1187.88 234.629,1187.88 
  "/>
<polyline clip-path="url(#clip7700)" style="stroke:#000000; stroke-width:4; stroke-opacity:1; fill:none" points="
  202.373,997.693 234.629,997.693 
  "/>
<polyline clip-path="url(#clip7700)" style="stroke:#000000; stroke-width:4; stroke-opacity:1; fill:none" points="
  202.373,807.504 234.629,807.504 
  "/>
<polyline clip-path="url(#clip7700)" style="stroke:#000000; stroke-width:4; stroke-opacity:1; fill:none" points="
  202.373,617.315 234.629,617.315 
  "/>
<polyline clip-path="url(#clip7700)" style="stroke:#000000; stroke-width:4; stroke-opacity:1; fill:none" points="
  202.373,427.126 234.629,427.126 
  "/>
<polyline clip-path="url(#clip7700)" style="stroke:#000000; stroke-width:4; stroke-opacity:1; fill:none" points="
  202.373,236.937 234.629,236.937 
  "/>
<g clip-path="url(#clip7700)">
<text style="fill:#000000; fill-opacity:1; font-family:Arial,Helvetica Neue,Helvetica,sans-serif; font-size:48px; text-anchor:middle;" transform="rotate(0, 202.373, 1479.62)" x="202.373" y="1479.62">-0.5</text>
</g>
<g clip-path="url(#clip7700)">
<text style="fill:#000000; fill-opacity:1; font-family:Arial,Helvetica Neue,Helvetica,sans-serif; font-size:48px; text-anchor:middle;" transform="rotate(0, 739.969, 1479.62)" x="739.969" y="1479.62">0.0</text>
</g>
<g clip-path="url(#clip7700)">
<text style="fill:#000000; fill-opacity:1; font-family:Arial,Helvetica Neue,Helvetica,sans-serif; font-size:48px; text-anchor:middle;" transform="rotate(0, 1277.56, 1479.62)" x="1277.56" y="1479.62">0.5</text>
</g>
<g clip-path="url(#clip7700)">
<text style="fill:#000000; fill-opacity:1; font-family:Arial,Helvetica Neue,Helvetica,sans-serif; font-size:48px; text-anchor:middle;" transform="rotate(0, 1815.16, 1479.62)" x="1815.16" y="1479.62">1.0</text>
</g>
<g clip-path="url(#clip7700)">
<text style="fill:#000000; fill-opacity:1; font-family:Arial,Helvetica Neue,Helvetica,sans-serif; font-size:48px; text-anchor:middle;" transform="rotate(0, 2352.76, 1479.62)" x="2352.76" y="1479.62">1.5</text>
</g>
<g clip-path="url(#clip7700)">
<text style="fill:#000000; fill-opacity:1; font-family:Arial,Helvetica Neue,Helvetica,sans-serif; font-size:48px; text-anchor:end;" transform="rotate(0, 178.373, 1395.57)" x="178.373" y="1395.57">0</text>
</g>
<g clip-path="url(#clip7700)">
<text style="fill:#000000; fill-opacity:1; font-family:Arial,Helvetica Neue,Helvetica,sans-serif; font-size:48px; text-anchor:end;" transform="rotate(0, 178.373, 1205.38)" x="178.373" y="1205.38">2</text>
</g>
<g clip-path="url(#clip7700)">
<text style="fill:#000000; fill-opacity:1; font-family:Arial,Helvetica Neue,Helvetica,sans-serif; font-size:48px; text-anchor:end;" transform="rotate(0, 178.373, 1015.19)" x="178.373" y="1015.19">4</text>
</g>
<g clip-path="url(#clip7700)">
<text style="fill:#000000; fill-opacity:1; font-family:Arial,Helvetica Neue,Helvetica,sans-serif; font-size:48px; text-anchor:end;" transform="rotate(0, 178.373, 825.004)" x="178.373" y="825.004">6</text>
</g>
<g clip-path="url(#clip7700)">
<text style="fill:#000000; fill-opacity:1; font-family:Arial,Helvetica Neue,Helvetica,sans-serif; font-size:48px; text-anchor:end;" transform="rotate(0, 178.373, 634.815)" x="178.373" y="634.815">8</text>
</g>
<g clip-path="url(#clip7700)">
<text style="fill:#000000; fill-opacity:1; font-family:Arial,Helvetica Neue,Helvetica,sans-serif; font-size:48px; text-anchor:end;" transform="rotate(0, 178.373, 444.626)" x="178.373" y="444.626">10</text>
</g>
<g clip-path="url(#clip7700)">
<text style="fill:#000000; fill-opacity:1; font-family:Arial,Helvetica Neue,Helvetica,sans-serif; font-size:48px; text-anchor:end;" transform="rotate(0, 178.373, 254.437)" x="178.373" y="254.437">12</text>
</g>
<g clip-path="url(#clip7700)">
<text style="fill:#000000; fill-opacity:1; font-family:Arial,Helvetica Neue,Helvetica,sans-serif; font-size:66px; text-anchor:middle;" transform="rotate(0, 1277.56, 57.6)" x="1277.56" y="57.6">GCF_000868425.1_ViralProj17577_genomic.fna.K13.jf.histogram</text>
</g>
<g clip-path="url(#clip7700)">
<text style="fill:#000000; fill-opacity:1; font-family:Arial,Helvetica Neue,Helvetica,sans-serif; font-size:66px; text-anchor:middle;" transform="rotate(0, 1277.56, 1559.48)" x="1277.56" y="1559.48">log2(depth of coverage)</text>
</g>
<g clip-path="url(#clip7700)">
<text style="fill:#000000; fill-opacity:1; font-family:Arial,Helvetica Neue,Helvetica,sans-serif; font-size:66px; text-anchor:middle;" transform="rotate(-90, 89.2861, 767.359)" x="89.2861" y="767.359">log2(# kmers)</text>
</g>
<circle clip-path="url(#clip7702)" style="fill:#000000; stroke:none; fill-opacity:1" cx="739.969" cy="156.647" r="18"/>
<circle clip-path="url(#clip7702)" style="fill:#009af9; stroke:none; fill-opacity:1" cx="739.969" cy="156.647" r="14"/>
<circle clip-path="url(#clip7702)" style="fill:#000000; stroke:none; fill-opacity:1" cx="1815.16" cy="1092.79" r="18"/>
<circle clip-path="url(#clip7702)" style="fill:#009af9; stroke:none; fill-opacity:1" cx="1815.16" cy="1092.79" r="14"/>
<polyline clip-path="url(#clip7702)" style="stroke:#e26f46; stroke-width:4; stroke-opacity:1; fill:none" points="
  739.969,156.647 750.829,166.103 761.69,175.559 772.55,185.015 783.411,194.471 794.271,203.927 805.132,213.383 815.992,222.839 826.853,232.295 837.713,241.751 
  848.574,251.207 859.434,260.663 870.295,270.119 881.155,279.575 892.016,289.031 902.876,298.487 913.737,307.943 924.598,317.399 935.458,326.855 946.319,336.311 
  957.179,345.767 968.04,355.223 978.9,364.679 989.761,374.135 1000.62,383.591 1011.48,393.047 1022.34,402.502 1033.2,411.958 1044.06,421.414 1054.92,430.87 
  1065.78,440.326 1076.64,449.782 1087.51,459.238 1098.37,468.694 1109.23,478.15 1120.09,487.606 1130.95,497.062 1141.81,506.518 1152.67,515.974 1163.53,525.43 
  1174.39,534.886 1185.25,544.342 1196.11,553.798 1206.97,563.254 1217.83,572.71 1228.69,582.166 1239.55,591.622 1250.41,601.078 1261.27,610.534 1272.13,619.99 
  1282.99,629.446 1293.86,638.902 1304.72,648.358 1315.58,657.813 1326.44,667.269 1337.3,676.725 1348.16,686.181 1359.02,695.637 1369.88,705.093 1380.74,714.549 
  1391.6,724.005 1402.46,733.461 1413.32,742.917 1424.18,752.373 1435.04,761.829 1445.9,771.285 1456.76,780.741 1467.62,790.197 1478.48,799.653 1489.34,809.109 
  1500.21,818.565 1511.07,828.021 1521.93,837.477 1532.79,846.933 1543.65,856.389 1554.51,865.845 1565.37,875.301 1576.23,884.757 1587.09,894.213 1597.95,903.669 
  1608.81,913.124 1619.67,922.58 1630.53,932.036 1641.39,941.492 1652.25,950.948 1663.11,960.404 1673.97,969.86 1684.83,979.316 1695.69,988.772 1706.55,998.228 
  1717.42,1007.68 1728.28,1017.14 1739.14,1026.6 1750,1036.05 1760.86,1045.51 1771.72,1054.96 1782.58,1064.42 1793.44,1073.88 1804.3,1083.33 1815.16,1092.79 
  
  "/>
<g clip-path="url(#clip7700)">
<text style="fill:#000000; fill-opacity:1; font-family:Arial,Helvetica Neue,Helvetica,sans-serif; font-size:59px; text-anchor:start;" transform="rotate(0, 739.969, 1304.48)" x="739.969" y="1304.48">r = -1.0</text>
</g>
</svg>
