<?xml version="1.0" encoding="utf-8"?>
<svg xmlns="http://www.w3.org/2000/svg" xmlns:xlink="http://www.w3.org/1999/xlink" width="600" height="400" viewBox="0 0 2400 1600">
<defs>
  <clipPath id="clip3200">
    <rect x="0" y="0" width="2400" height="1600"/>
  </clipPath>
</defs>
<polygon clip-path="url(#clip3200)" points="
0,1600 2400,1600 2400,0 0,0 
  " fill="#ffffff" fill-rule="evenodd" fill-opacity="1"/>
<defs>
  <clipPath id="clip3201">
    <rect x="480" y="0" width="1681" height="1600"/>
  </clipPath>
</defs>
<polygon clip-path="url(#clip3200)" points="
202.373,1425.62 2352.76,1425.62 2352.76,109.1 202.373,109.1 
  " fill="#ffffff" fill-rule="evenodd" fill-opacity="1"/>
<defs>
  <clipPath id="clip3202">
    <rect x="202" y="109" width="2151" height="1318"/>
  </clipPath>
</defs>
<polyline clip-path="url(#clip3202)" style="stroke:#000000; stroke-width:2; stroke-opacity:0.1; fill:none" points="
  300.605,1425.62 300.605,109.1 
  "/>
<polyline clip-path="url(#clip3202)" style="stroke:#000000; stroke-width:2; stroke-opacity:0.1; fill:none" points="
  791.764,1425.62 791.764,109.1 
  "/>
<polyline clip-path="url(#clip3202)" style="stroke:#000000; stroke-width:2; stroke-opacity:0.1; fill:none" points="
  1282.92,1425.62 1282.92,109.1 
  "/>
<polyline clip-path="url(#clip3202)" style="stroke:#000000; stroke-width:2; stroke-opacity:0.1; fill:none" points="
  1774.08,1425.62 1774.08,109.1 
  "/>
<polyline clip-path="url(#clip3202)" style="stroke:#000000; stroke-width:2; stroke-opacity:0.1; fill:none" points="
  2265.24,1425.62 2265.24,109.1 
  "/>
<polyline clip-path="url(#clip3202)" style="stroke:#000000; stroke-width:2; stroke-opacity:0.1; fill:none" points="
  202.373,1398.67 2352.76,1398.67 
  "/>
<polyline clip-path="url(#clip3202)" style="stroke:#000000; stroke-width:2; stroke-opacity:0.1; fill:none" points="
  202.373,1129.17 2352.76,1129.17 
  "/>
<polyline clip-path="url(#clip3202)" style="stroke:#000000; stroke-width:2; stroke-opacity:0.1; fill:none" points="
  202.373,859.677 2352.76,859.677 
  "/>
<polyline clip-path="url(#clip3202)" style="stroke:#000000; stroke-width:2; stroke-opacity:0.1; fill:none" points="
  202.373,590.18 2352.76,590.18 
  "/>
<polyline clip-path="url(#clip3202)" style="stroke:#000000; stroke-width:2; stroke-opacity:0.1; fill:none" points="
  202.373,320.684 2352.76,320.684 
  "/>
<polyline clip-path="url(#clip3200)" style="stroke:#000000; stroke-width:4; stroke-opacity:1; fill:none" points="
  202.373,1425.62 2352.76,1425.62 
  "/>
<polyline clip-path="url(#clip3200)" style="stroke:#000000; stroke-width:4; stroke-opacity:1; fill:none" points="
  202.373,1425.62 202.373,109.1 
  "/>
<polyline clip-path="url(#clip3200)" style="stroke:#000000; stroke-width:4; stroke-opacity:1; fill:none" points="
  300.605,1425.62 300.605,1405.87 
  "/>
<polyline clip-path="url(#clip3200)" style="stroke:#000000; stroke-width:4; stroke-opacity:1; fill:none" points="
  791.764,1425.62 791.764,1405.87 
  "/>
<polyline clip-path="url(#clip3200)" style="stroke:#000000; stroke-width:4; stroke-opacity:1; fill:none" points="
  1282.92,1425.62 1282.92,1405.87 
  "/>
<polyline clip-path="url(#clip3200)" style="stroke:#000000; stroke-width:4; stroke-opacity:1; fill:none" points="
  1774.08,1425.62 1774.08,1405.87 
  "/>
<polyline clip-path="url(#clip3200)" style="stroke:#000000; stroke-width:4; stroke-opacity:1; fill:none" points="
  2265.24,1425.62 2265.24,1405.87 
  "/>
<polyline clip-path="url(#clip3200)" style="stroke:#000000; stroke-width:4; stroke-opacity:1; fill:none" points="
  202.373,1398.67 234.629,1398.67 
  "/>
<polyline clip-path="url(#clip3200)" style="stroke:#000000; stroke-width:4; stroke-opacity:1; fill:none" points="
  202.373,1129.17 234.629,1129.17 
  "/>
<polyline clip-path="url(#clip3200)" style="stroke:#000000; stroke-width:4; stroke-opacity:1; fill:none" points="
  202.373,859.677 234.629,859.677 
  "/>
<polyline clip-path="url(#clip3200)" style="stroke:#000000; stroke-width:4; stroke-opacity:1; fill:none" points="
  202.373,590.18 234.629,590.18 
  "/>
<polyline clip-path="url(#clip3200)" style="stroke:#000000; stroke-width:4; stroke-opacity:1; fill:none" points="
  202.373,320.684 234.629,320.684 
  "/>
<g clip-path="url(#clip3200)">
<text style="fill:#000000; fill-opacity:1; font-family:Arial,Helvetica Neue,Helvetica,sans-serif; font-size:48px; text-anchor:middle;" transform="rotate(0, 300.605, 1479.62)" x="300.605" y="1479.62">0.0</text>
</g>
<g clip-path="url(#clip3200)">
<text style="fill:#000000; fill-opacity:1; font-family:Arial,Helvetica Neue,Helvetica,sans-serif; font-size:48px; text-anchor:middle;" transform="rotate(0, 791.764, 1479.62)" x="791.764" y="1479.62">2.5</text>
</g>
<g clip-path="url(#clip3200)">
<text style="fill:#000000; fill-opacity:1; font-family:Arial,Helvetica Neue,Helvetica,sans-serif; font-size:48px; text-anchor:middle;" transform="rotate(0, 1282.92, 1479.62)" x="1282.92" y="1479.62">5.0</text>
</g>
<g clip-path="url(#clip3200)">
<text style="fill:#000000; fill-opacity:1; font-family:Arial,Helvetica Neue,Helvetica,sans-serif; font-size:48px; text-anchor:middle;" transform="rotate(0, 1774.08, 1479.62)" x="1774.08" y="1479.62">7.5</text>
</g>
<g clip-path="url(#clip3200)">
<text style="fill:#000000; fill-opacity:1; font-family:Arial,Helvetica Neue,Helvetica,sans-serif; font-size:48px; text-anchor:middle;" transform="rotate(0, 2265.24, 1479.62)" x="2265.24" y="1479.62">10.0</text>
</g>
<g clip-path="url(#clip3200)">
<text style="fill:#000000; fill-opacity:1; font-family:Arial,Helvetica Neue,Helvetica,sans-serif; font-size:48px; text-anchor:end;" transform="rotate(0, 178.373, 1416.17)" x="178.373" y="1416.17">0</text>
</g>
<g clip-path="url(#clip3200)">
<text style="fill:#000000; fill-opacity:1; font-family:Arial,Helvetica Neue,Helvetica,sans-serif; font-size:48px; text-anchor:end;" transform="rotate(0, 178.373, 1146.67)" x="178.373" y="1146.67">5</text>
</g>
<g clip-path="url(#clip3200)">
<text style="fill:#000000; fill-opacity:1; font-family:Arial,Helvetica Neue,Helvetica,sans-serif; font-size:48px; text-anchor:end;" transform="rotate(0, 178.373, 877.177)" x="178.373" y="877.177">10</text>
</g>
<g clip-path="url(#clip3200)">
<text style="fill:#000000; fill-opacity:1; font-family:Arial,Helvetica Neue,Helvetica,sans-serif; font-size:48px; text-anchor:end;" transform="rotate(0, 178.373, 607.68)" x="178.373" y="607.68">15</text>
</g>
<g clip-path="url(#clip3200)">
<text style="fill:#000000; fill-opacity:1; font-family:Arial,Helvetica Neue,Helvetica,sans-serif; font-size:48px; text-anchor:end;" transform="rotate(0, 178.373, 338.184)" x="178.373" y="338.184">20</text>
</g>
<g clip-path="url(#clip3200)">
<text style="fill:#000000; fill-opacity:1; font-family:Arial,Helvetica Neue,Helvetica,sans-serif; font-size:66px; text-anchor:middle;" transform="rotate(0, 1277.56, 57.6)" x="1277.56" y="57.6">GCF_000146045.2_R64_genomic.fna.K19.jf.histogram</text>
</g>
<g clip-path="url(#clip3200)">
<text style="fill:#000000; fill-opacity:1; font-family:Arial,Helvetica Neue,Helvetica,sans-serif; font-size:66px; text-anchor:middle;" transform="rotate(0, 1277.56, 1559.48)" x="1277.56" y="1559.48">log2(depth of coverage)</text>
</g>
<g clip-path="url(#clip3200)">
<text style="fill:#000000; fill-opacity:1; font-family:Arial,Helvetica Neue,Helvetica,sans-serif; font-size:66px; text-anchor:middle;" transform="rotate(-90, 89.2861, 767.359)" x="89.2861" y="767.359">log2(# kmers)</text>
</g>
<circle clip-path="url(#clip3202)" style="fill:#000000; stroke:none; fill-opacity:1" cx="300.605" cy="136.05" r="18"/>
<circle clip-path="url(#clip3202)" style="fill:#009af9; stroke:none; fill-opacity:1" cx="300.605" cy="136.05" r="14"/>
<circle clip-path="url(#clip3202)" style="fill:#000000; stroke:none; fill-opacity:1" cx="497.069" cy="478.058" r="18"/>
<circle clip-path="url(#clip3202)" style="fill:#009af9; stroke:none; fill-opacity:1" cx="497.069" cy="478.058" r="14"/>
<circle clip-path="url(#clip3202)" style="fill:#000000; stroke:none; fill-opacity:1" cx="611.992" cy="589.017" r="18"/>
<circle clip-path="url(#clip3202)" style="fill:#009af9; stroke:none; fill-opacity:1" cx="611.992" cy="589.017" r="14"/>
<circle clip-path="url(#clip3202)" style="fill:#000000; stroke:none; fill-opacity:1" cx="693.532" cy="675.315" r="18"/>
<circle clip-path="url(#clip3202)" style="fill:#009af9; stroke:none; fill-opacity:1" cx="693.532" cy="675.315" r="14"/>
<circle clip-path="url(#clip3202)" style="fill:#000000; stroke:none; fill-opacity:1" cx="756.78" cy="767.558" r="18"/>
<circle clip-path="url(#clip3202)" style="fill:#009af9; stroke:none; fill-opacity:1" cx="756.78" cy="767.558" r="14"/>
<circle clip-path="url(#clip3202)" style="fill:#000000; stroke:none; fill-opacity:1" cx="808.456" cy="789.836" r="18"/>
<circle clip-path="url(#clip3202)" style="fill:#009af9; stroke:none; fill-opacity:1" cx="808.456" cy="789.836" r="14"/>
<circle clip-path="url(#clip3202)" style="fill:#000000; stroke:none; fill-opacity:1" cx="852.148" cy="805.588" r="18"/>
<circle clip-path="url(#clip3202)" style="fill:#009af9; stroke:none; fill-opacity:1" cx="852.148" cy="805.588" r="14"/>
<circle clip-path="url(#clip3202)" style="fill:#000000; stroke:none; fill-opacity:1" cx="889.996" cy="817.253" r="18"/>
<circle clip-path="url(#clip3202)" style="fill:#009af9; stroke:none; fill-opacity:1" cx="889.996" cy="817.253" r="14"/>
<circle clip-path="url(#clip3202)" style="fill:#000000; stroke:none; fill-opacity:1" cx="923.38" cy="843.611" r="18"/>
<circle clip-path="url(#clip3202)" style="fill:#009af9; stroke:none; fill-opacity:1" cx="923.38" cy="843.611" r="14"/>
<circle clip-path="url(#clip3202)" style="fill:#000000; stroke:none; fill-opacity:1" cx="953.243" cy="867.331" r="18"/>
<circle clip-path="url(#clip3202)" style="fill:#009af9; stroke:none; fill-opacity:1" cx="953.243" cy="867.331" r="14"/>
<circle clip-path="url(#clip3202)" style="fill:#000000; stroke:none; fill-opacity:1" cx="980.258" cy="808.757" r="18"/>
<circle clip-path="url(#clip3202)" style="fill:#009af9; stroke:none; fill-opacity:1" cx="980.258" cy="808.757" r="14"/>
<circle clip-path="url(#clip3202)" style="fill:#000000; stroke:none; fill-opacity:1" cx="1004.92" cy="855.536" r="18"/>
<circle clip-path="url(#clip3202)" style="fill:#009af9; stroke:none; fill-opacity:1" cx="1004.92" cy="855.536" r="14"/>
<circle clip-path="url(#clip3202)" style="fill:#000000; stroke:none; fill-opacity:1" cx="1027.61" cy="777.163" r="18"/>
<circle clip-path="url(#clip3202)" style="fill:#009af9; stroke:none; fill-opacity:1" cx="1027.61" cy="777.163" r="14"/>
<circle clip-path="url(#clip3202)" style="fill:#000000; stroke:none; fill-opacity:1" cx="1048.61" cy="892.084" r="18"/>
<circle clip-path="url(#clip3202)" style="fill:#009af9; stroke:none; fill-opacity:1" cx="1048.61" cy="892.084" r="14"/>
<circle clip-path="url(#clip3202)" style="fill:#000000; stroke:none; fill-opacity:1" cx="1068.17" cy="880.941" r="18"/>
<circle clip-path="url(#clip3202)" style="fill:#009af9; stroke:none; fill-opacity:1" cx="1068.17" cy="880.941" r="14"/>
<circle clip-path="url(#clip3202)" style="fill:#000000; stroke:none; fill-opacity:1" cx="1086.46" cy="867.583" r="18"/>
<circle clip-path="url(#clip3202)" style="fill:#009af9; stroke:none; fill-opacity:1" cx="1086.46" cy="867.583" r="14"/>
<circle clip-path="url(#clip3202)" style="fill:#000000; stroke:none; fill-opacity:1" cx="1103.64" cy="904.823" r="18"/>
<circle clip-path="url(#clip3202)" style="fill:#009af9; stroke:none; fill-opacity:1" cx="1103.64" cy="904.823" r="14"/>
<circle clip-path="url(#clip3202)" style="fill:#000000; stroke:none; fill-opacity:1" cx="1119.84" cy="869.455" r="18"/>
<circle clip-path="url(#clip3202)" style="fill:#009af9; stroke:none; fill-opacity:1" cx="1119.84" cy="869.455" r="14"/>
<circle clip-path="url(#clip3202)" style="fill:#000000; stroke:none; fill-opacity:1" cx="1135.17" cy="796.416" r="18"/>
<circle clip-path="url(#clip3202)" style="fill:#009af9; stroke:none; fill-opacity:1" cx="1135.17" cy="796.416" r="14"/>
<circle clip-path="url(#clip3202)" style="fill:#000000; stroke:none; fill-opacity:1" cx="1149.71" cy="965.377" r="18"/>
<circle clip-path="url(#clip3202)" style="fill:#009af9; stroke:none; fill-opacity:1" cx="1149.71" cy="965.377" r="14"/>
<circle clip-path="url(#clip3202)" style="fill:#000000; stroke:none; fill-opacity:1" cx="1163.54" cy="966.569" r="18"/>
<circle clip-path="url(#clip3202)" style="fill:#009af9; stroke:none; fill-opacity:1" cx="1163.54" cy="966.569" r="14"/>
<circle clip-path="url(#clip3202)" style="fill:#000000; stroke:none; fill-opacity:1" cx="1176.72" cy="1012.22" r="18"/>
<circle clip-path="url(#clip3202)" style="fill:#009af9; stroke:none; fill-opacity:1" cx="1176.72" cy="1012.22" r="14"/>
<circle clip-path="url(#clip3202)" style="fill:#000000; stroke:none; fill-opacity:1" cx="1189.32" cy="958.587" r="18"/>
<circle clip-path="url(#clip3202)" style="fill:#009af9; stroke:none; fill-opacity:1" cx="1189.32" cy="958.587" r="14"/>
<circle clip-path="url(#clip3202)" style="fill:#000000; stroke:none; fill-opacity:1" cx="1201.38" cy="996.611" r="18"/>
<circle clip-path="url(#clip3202)" style="fill:#009af9; stroke:none; fill-opacity:1" cx="1201.38" cy="996.611" r="14"/>
<circle clip-path="url(#clip3202)" style="fill:#000000; stroke:none; fill-opacity:1" cx="1212.95" cy="977.858" r="18"/>
<circle clip-path="url(#clip3202)" style="fill:#009af9; stroke:none; fill-opacity:1" cx="1212.95" cy="977.858" r="14"/>
<circle clip-path="url(#clip3202)" style="fill:#000000; stroke:none; fill-opacity:1" cx="1224.07" cy="961.908" r="18"/>
<circle clip-path="url(#clip3202)" style="fill:#009af9; stroke:none; fill-opacity:1" cx="1224.07" cy="961.908" r="14"/>
<circle clip-path="url(#clip3202)" style="fill:#000000; stroke:none; fill-opacity:1" cx="1234.77" cy="993.578" r="18"/>
<circle clip-path="url(#clip3202)" style="fill:#009af9; stroke:none; fill-opacity:1" cx="1234.77" cy="993.578" r="14"/>
<circle clip-path="url(#clip3202)" style="fill:#000000; stroke:none; fill-opacity:1" cx="1245.08" cy="939.467" r="18"/>
<circle clip-path="url(#clip3202)" style="fill:#009af9; stroke:none; fill-opacity:1" cx="1245.08" cy="939.467" r="14"/>
<circle clip-path="url(#clip3202)" style="fill:#000000; stroke:none; fill-opacity:1" cx="1255.02" cy="893.596" r="18"/>
<circle clip-path="url(#clip3202)" style="fill:#009af9; stroke:none; fill-opacity:1" cx="1255.02" cy="893.596" r="14"/>
<circle clip-path="url(#clip3202)" style="fill:#000000; stroke:none; fill-opacity:1" cx="1264.63" cy="905.095" r="18"/>
<circle clip-path="url(#clip3202)" style="fill:#009af9; stroke:none; fill-opacity:1" cx="1264.63" cy="905.095" r="14"/>
<circle clip-path="url(#clip3202)" style="fill:#000000; stroke:none; fill-opacity:1" cx="1273.92" cy="972.818" r="18"/>
<circle clip-path="url(#clip3202)" style="fill:#009af9; stroke:none; fill-opacity:1" cx="1273.92" cy="972.818" r="14"/>
<circle clip-path="url(#clip3202)" style="fill:#000000; stroke:none; fill-opacity:1" cx="1282.92" cy="869.714" r="18"/>
<circle clip-path="url(#clip3202)" style="fill:#009af9; stroke:none; fill-opacity:1" cx="1282.92" cy="869.714" r="14"/>
<circle clip-path="url(#clip3202)" style="fill:#000000; stroke:none; fill-opacity:1" cx="1291.65" cy="880.543" r="18"/>
<circle clip-path="url(#clip3202)" style="fill:#009af9; stroke:none; fill-opacity:1" cx="1291.65" cy="880.543" r="14"/>
<circle clip-path="url(#clip3202)" style="fill:#000000; stroke:none; fill-opacity:1" cx="1300.11" cy="1056" r="18"/>
<circle clip-path="url(#clip3202)" style="fill:#009af9; stroke:none; fill-opacity:1" cx="1300.11" cy="1056" r="14"/>
<circle clip-path="url(#clip3202)" style="fill:#000000; stroke:none; fill-opacity:1" cx="1308.32" cy="1139.56" r="18"/>
<circle clip-path="url(#clip3202)" style="fill:#009af9; stroke:none; fill-opacity:1" cx="1308.32" cy="1139.56" r="14"/>
<circle clip-path="url(#clip3202)" style="fill:#000000; stroke:none; fill-opacity:1" cx="1316.31" cy="1099.28" r="18"/>
<circle clip-path="url(#clip3202)" style="fill:#009af9; stroke:none; fill-opacity:1" cx="1316.31" cy="1099.28" r="14"/>
<circle clip-path="url(#clip3202)" style="fill:#000000; stroke:none; fill-opacity:1" cx="1324.07" cy="1145.32" r="18"/>
<circle clip-path="url(#clip3202)" style="fill:#009af9; stroke:none; fill-opacity:1" cx="1324.07" cy="1145.32" r="14"/>
<circle clip-path="url(#clip3202)" style="fill:#000000; stroke:none; fill-opacity:1" cx="1331.63" cy="1173.91" r="18"/>
<circle clip-path="url(#clip3202)" style="fill:#009af9; stroke:none; fill-opacity:1" cx="1331.63" cy="1173.91" r="14"/>
<circle clip-path="url(#clip3202)" style="fill:#000000; stroke:none; fill-opacity:1" cx="1338.99" cy="1148.37" r="18"/>
<circle clip-path="url(#clip3202)" style="fill:#009af9; stroke:none; fill-opacity:1" cx="1338.99" cy="1148.37" r="14"/>
<circle clip-path="url(#clip3202)" style="fill:#000000; stroke:none; fill-opacity:1" cx="1346.17" cy="1173.91" r="18"/>
<circle clip-path="url(#clip3202)" style="fill:#009af9; stroke:none; fill-opacity:1" cx="1346.17" cy="1173.91" r="14"/>
<circle clip-path="url(#clip3202)" style="fill:#000000; stroke:none; fill-opacity:1" cx="1353.17" cy="1099.28" r="18"/>
<circle clip-path="url(#clip3202)" style="fill:#009af9; stroke:none; fill-opacity:1" cx="1353.17" cy="1099.28" r="14"/>
<circle clip-path="url(#clip3202)" style="fill:#000000; stroke:none; fill-opacity:1" cx="1360" cy="1183.07" r="18"/>
<circle clip-path="url(#clip3202)" style="fill:#009af9; stroke:none; fill-opacity:1" cx="1360" cy="1183.07" r="14"/>
<circle clip-path="url(#clip3202)" style="fill:#000000; stroke:none; fill-opacity:1" cx="1366.67" cy="1124.46" r="18"/>
<circle clip-path="url(#clip3202)" style="fill:#009af9; stroke:none; fill-opacity:1" cx="1366.67" cy="1124.46" r="14"/>
<circle clip-path="url(#clip3202)" style="fill:#000000; stroke:none; fill-opacity:1" cx="1373.19" cy="1173.91" r="18"/>
<circle clip-path="url(#clip3202)" style="fill:#009af9; stroke:none; fill-opacity:1" cx="1373.19" cy="1173.91" r="14"/>
<circle clip-path="url(#clip3202)" style="fill:#000000; stroke:none; fill-opacity:1" cx="1379.55" cy="1058.9" r="18"/>
<circle clip-path="url(#clip3202)" style="fill:#009af9; stroke:none; fill-opacity:1" cx="1379.55" cy="1058.9" r="14"/>
<circle clip-path="url(#clip3202)" style="fill:#000000; stroke:none; fill-opacity:1" cx="1385.78" cy="1344.77" r="18"/>
<circle clip-path="url(#clip3202)" style="fill:#009af9; stroke:none; fill-opacity:1" cx="1385.78" cy="1344.77" r="14"/>
<circle clip-path="url(#clip3202)" style="fill:#000000; stroke:none; fill-opacity:1" cx="1391.88" cy="1205.44" r="18"/>
<circle clip-path="url(#clip3202)" style="fill:#009af9; stroke:none; fill-opacity:1" cx="1391.88" cy="1205.44" r="14"/>
<circle clip-path="url(#clip3202)" style="fill:#000000; stroke:none; fill-opacity:1" cx="1397.85" cy="1161.93" r="18"/>
<circle clip-path="url(#clip3202)" style="fill:#009af9; stroke:none; fill-opacity:1" cx="1397.85" cy="1161.93" r="14"/>
<circle clip-path="url(#clip3202)" style="fill:#000000; stroke:none; fill-opacity:1" cx="1403.69" cy="1169.71" r="18"/>
<circle clip-path="url(#clip3202)" style="fill:#009af9; stroke:none; fill-opacity:1" cx="1403.69" cy="1169.71" r="14"/>
<circle clip-path="url(#clip3202)" style="fill:#000000; stroke:none; fill-opacity:1" cx="1409.42" cy="1188.09" r="18"/>
<circle clip-path="url(#clip3202)" style="fill:#009af9; stroke:none; fill-opacity:1" cx="1409.42" cy="1188.09" r="14"/>
<circle clip-path="url(#clip3202)" style="fill:#000000; stroke:none; fill-opacity:1" cx="1415.03" cy="1212.21" r="18"/>
<circle clip-path="url(#clip3202)" style="fill:#009af9; stroke:none; fill-opacity:1" cx="1415.03" cy="1212.21" r="14"/>
<circle clip-path="url(#clip3202)" style="fill:#000000; stroke:none; fill-opacity:1" cx="1420.53" cy="1205.44" r="18"/>
<circle clip-path="url(#clip3202)" style="fill:#009af9; stroke:none; fill-opacity:1" cx="1420.53" cy="1205.44" r="14"/>
<circle clip-path="url(#clip3202)" style="fill:#000000; stroke:none; fill-opacity:1" cx="1425.93" cy="1169.71" r="18"/>
<circle clip-path="url(#clip3202)" style="fill:#009af9; stroke:none; fill-opacity:1" cx="1425.93" cy="1169.71" r="14"/>
<circle clip-path="url(#clip3202)" style="fill:#000000; stroke:none; fill-opacity:1" cx="1431.23" cy="1169.71" r="18"/>
<circle clip-path="url(#clip3202)" style="fill:#009af9; stroke:none; fill-opacity:1" cx="1431.23" cy="1169.71" r="14"/>
<circle clip-path="url(#clip3202)" style="fill:#000000; stroke:none; fill-opacity:1" cx="1436.43" cy="1183.07" r="18"/>
<circle clip-path="url(#clip3202)" style="fill:#009af9; stroke:none; fill-opacity:1" cx="1436.43" cy="1183.07" r="14"/>
<circle clip-path="url(#clip3202)" style="fill:#000000; stroke:none; fill-opacity:1" cx="1441.54" cy="1273.52" r="18"/>
<circle clip-path="url(#clip3202)" style="fill:#009af9; stroke:none; fill-opacity:1" cx="1441.54" cy="1273.52" r="14"/>
<circle clip-path="url(#clip3202)" style="fill:#000000; stroke:none; fill-opacity:1" cx="1446.56" cy="1161.93" r="18"/>
<circle clip-path="url(#clip3202)" style="fill:#009af9; stroke:none; fill-opacity:1" cx="1446.56" cy="1161.93" r="14"/>
<circle clip-path="url(#clip3202)" style="fill:#000000; stroke:none; fill-opacity:1" cx="1451.49" cy="1154.85" r="18"/>
<circle clip-path="url(#clip3202)" style="fill:#009af9; stroke:none; fill-opacity:1" cx="1451.49" cy="1154.85" r="14"/>
<circle clip-path="url(#clip3202)" style="fill:#000000; stroke:none; fill-opacity:1" cx="1456.33" cy="1219.62" r="18"/>
<circle clip-path="url(#clip3202)" style="fill:#009af9; stroke:none; fill-opacity:1" cx="1456.33" cy="1219.62" r="14"/>
<circle clip-path="url(#clip3202)" style="fill:#000000; stroke:none; fill-opacity:1" cx="1461.09" cy="1205.44" r="18"/>
<circle clip-path="url(#clip3202)" style="fill:#009af9; stroke:none; fill-opacity:1" cx="1461.09" cy="1205.44" r="14"/>
<circle clip-path="url(#clip3202)" style="fill:#000000; stroke:none; fill-opacity:1" cx="1465.78" cy="1169.71" r="18"/>
<circle clip-path="url(#clip3202)" style="fill:#009af9; stroke:none; fill-opacity:1" cx="1465.78" cy="1169.71" r="14"/>
<circle clip-path="url(#clip3202)" style="fill:#000000; stroke:none; fill-opacity:1" cx="1470.39" cy="1188.09" r="18"/>
<circle clip-path="url(#clip3202)" style="fill:#009af9; stroke:none; fill-opacity:1" cx="1470.39" cy="1188.09" r="14"/>
<circle clip-path="url(#clip3202)" style="fill:#000000; stroke:none; fill-opacity:1" cx="1474.92" cy="1212.21" r="18"/>
<circle clip-path="url(#clip3202)" style="fill:#009af9; stroke:none; fill-opacity:1" cx="1474.92" cy="1212.21" r="14"/>
<circle clip-path="url(#clip3202)" style="fill:#000000; stroke:none; fill-opacity:1" cx="1479.39" cy="1142.38" r="18"/>
<circle clip-path="url(#clip3202)" style="fill:#009af9; stroke:none; fill-opacity:1" cx="1479.39" cy="1142.38" r="14"/>
<circle clip-path="url(#clip3202)" style="fill:#000000; stroke:none; fill-opacity:1" cx="1483.78" cy="1247.35" r="18"/>
<circle clip-path="url(#clip3202)" style="fill:#009af9; stroke:none; fill-opacity:1" cx="1483.78" cy="1247.35" r="14"/>
<circle clip-path="url(#clip3202)" style="fill:#000000; stroke:none; fill-opacity:1" cx="1488.11" cy="1313.24" r="18"/>
<circle clip-path="url(#clip3202)" style="fill:#009af9; stroke:none; fill-opacity:1" cx="1488.11" cy="1313.24" r="14"/>
<circle clip-path="url(#clip3202)" style="fill:#000000; stroke:none; fill-opacity:1" cx="1492.37" cy="1219.62" r="18"/>
<circle clip-path="url(#clip3202)" style="fill:#009af9; stroke:none; fill-opacity:1" cx="1492.37" cy="1219.62" r="14"/>
<circle clip-path="url(#clip3202)" style="fill:#000000; stroke:none; fill-opacity:1" cx="1496.57" cy="1205.44" r="18"/>
<circle clip-path="url(#clip3202)" style="fill:#009af9; stroke:none; fill-opacity:1" cx="1496.57" cy="1205.44" r="14"/>
<circle clip-path="url(#clip3202)" style="fill:#000000; stroke:none; fill-opacity:1" cx="1500.71" cy="1313.24" r="18"/>
<circle clip-path="url(#clip3202)" style="fill:#009af9; stroke:none; fill-opacity:1" cx="1500.71" cy="1313.24" r="14"/>
<circle clip-path="url(#clip3202)" style="fill:#000000; stroke:none; fill-opacity:1" cx="1504.79" cy="1344.77" r="18"/>
<circle clip-path="url(#clip3202)" style="fill:#009af9; stroke:none; fill-opacity:1" cx="1504.79" cy="1344.77" r="14"/>
<circle clip-path="url(#clip3202)" style="fill:#000000; stroke:none; fill-opacity:1" cx="1508.81" cy="1219.62" r="18"/>
<circle clip-path="url(#clip3202)" style="fill:#009af9; stroke:none; fill-opacity:1" cx="1508.81" cy="1219.62" r="14"/>
<circle clip-path="url(#clip3202)" style="fill:#000000; stroke:none; fill-opacity:1" cx="1512.77" cy="1247.35" r="18"/>
<circle clip-path="url(#clip3202)" style="fill:#009af9; stroke:none; fill-opacity:1" cx="1512.77" cy="1247.35" r="14"/>
<circle clip-path="url(#clip3202)" style="fill:#000000; stroke:none; fill-opacity:1" cx="1516.68" cy="1219.62" r="18"/>
<circle clip-path="url(#clip3202)" style="fill:#009af9; stroke:none; fill-opacity:1" cx="1516.68" cy="1219.62" r="14"/>
<circle clip-path="url(#clip3202)" style="fill:#000000; stroke:none; fill-opacity:1" cx="1520.54" cy="1273.52" r="18"/>
<circle clip-path="url(#clip3202)" style="fill:#009af9; stroke:none; fill-opacity:1" cx="1520.54" cy="1273.52" r="14"/>
<circle clip-path="url(#clip3202)" style="fill:#000000; stroke:none; fill-opacity:1" cx="1524.34" cy="1344.77" r="18"/>
<circle clip-path="url(#clip3202)" style="fill:#009af9; stroke:none; fill-opacity:1" cx="1524.34" cy="1344.77" r="14"/>
<circle clip-path="url(#clip3202)" style="fill:#000000; stroke:none; fill-opacity:1" cx="1528.1" cy="1398.67" r="18"/>
<circle clip-path="url(#clip3202)" style="fill:#009af9; stroke:none; fill-opacity:1" cx="1528.1" cy="1398.67" r="14"/>
<circle clip-path="url(#clip3202)" style="fill:#000000; stroke:none; fill-opacity:1" cx="1531.8" cy="1398.67" r="18"/>
<circle clip-path="url(#clip3202)" style="fill:#009af9; stroke:none; fill-opacity:1" cx="1531.8" cy="1398.67" r="14"/>
<circle clip-path="url(#clip3202)" style="fill:#000000; stroke:none; fill-opacity:1" cx="1535.46" cy="1219.62" r="18"/>
<circle clip-path="url(#clip3202)" style="fill:#009af9; stroke:none; fill-opacity:1" cx="1535.46" cy="1219.62" r="14"/>
<circle clip-path="url(#clip3202)" style="fill:#000000; stroke:none; fill-opacity:1" cx="1539.07" cy="1183.07" r="18"/>
<circle clip-path="url(#clip3202)" style="fill:#009af9; stroke:none; fill-opacity:1" cx="1539.07" cy="1183.07" r="14"/>
<circle clip-path="url(#clip3202)" style="fill:#000000; stroke:none; fill-opacity:1" cx="1542.63" cy="1259.34" r="18"/>
<circle clip-path="url(#clip3202)" style="fill:#009af9; stroke:none; fill-opacity:1" cx="1542.63" cy="1259.34" r="14"/>
<circle clip-path="url(#clip3202)" style="fill:#000000; stroke:none; fill-opacity:1" cx="1546.16" cy="1236.97" r="18"/>
<circle clip-path="url(#clip3202)" style="fill:#009af9; stroke:none; fill-opacity:1" cx="1546.16" cy="1236.97" r="14"/>
<circle clip-path="url(#clip3202)" style="fill:#000000; stroke:none; fill-opacity:1" cx="1549.63" cy="1173.91" r="18"/>
<circle clip-path="url(#clip3202)" style="fill:#009af9; stroke:none; fill-opacity:1" cx="1549.63" cy="1173.91" r="14"/>
<circle clip-path="url(#clip3202)" style="fill:#000000; stroke:none; fill-opacity:1" cx="1553.07" cy="1212.21" r="18"/>
<circle clip-path="url(#clip3202)" style="fill:#009af9; stroke:none; fill-opacity:1" cx="1553.07" cy="1212.21" r="14"/>
<circle clip-path="url(#clip3202)" style="fill:#000000; stroke:none; fill-opacity:1" cx="1556.46" cy="1193.46" r="18"/>
<circle clip-path="url(#clip3202)" style="fill:#009af9; stroke:none; fill-opacity:1" cx="1556.46" cy="1193.46" r="14"/>
<circle clip-path="url(#clip3202)" style="fill:#000000; stroke:none; fill-opacity:1" cx="1559.82" cy="1183.07" r="18"/>
<circle clip-path="url(#clip3202)" style="fill:#009af9; stroke:none; fill-opacity:1" cx="1559.82" cy="1183.07" r="14"/>
<circle clip-path="url(#clip3202)" style="fill:#000000; stroke:none; fill-opacity:1" cx="1563.13" cy="1199.22" r="18"/>
<circle clip-path="url(#clip3202)" style="fill:#009af9; stroke:none; fill-opacity:1" cx="1563.13" cy="1199.22" r="14"/>
<circle clip-path="url(#clip3202)" style="fill:#000000; stroke:none; fill-opacity:1" cx="1566.41" cy="1219.62" r="18"/>
<circle clip-path="url(#clip3202)" style="fill:#009af9; stroke:none; fill-opacity:1" cx="1566.41" cy="1219.62" r="14"/>
<circle clip-path="url(#clip3202)" style="fill:#000000; stroke:none; fill-opacity:1" cx="1569.65" cy="1344.77" r="18"/>
<circle clip-path="url(#clip3202)" style="fill:#009af9; stroke:none; fill-opacity:1" cx="1569.65" cy="1344.77" r="14"/>
<circle clip-path="url(#clip3202)" style="fill:#000000; stroke:none; fill-opacity:1" cx="1572.85" cy="1398.67" r="18"/>
<circle clip-path="url(#clip3202)" style="fill:#009af9; stroke:none; fill-opacity:1" cx="1572.85" cy="1398.67" r="14"/>
<circle clip-path="url(#clip3202)" style="fill:#000000; stroke:none; fill-opacity:1" cx="1576.02" cy="1290.87" r="18"/>
<circle clip-path="url(#clip3202)" style="fill:#009af9; stroke:none; fill-opacity:1" cx="1576.02" cy="1290.87" r="14"/>
<circle clip-path="url(#clip3202)" style="fill:#000000; stroke:none; fill-opacity:1" cx="1582.25" cy="1344.77" r="18"/>
<circle clip-path="url(#clip3202)" style="fill:#009af9; stroke:none; fill-opacity:1" cx="1582.25" cy="1344.77" r="14"/>
<circle clip-path="url(#clip3202)" style="fill:#000000; stroke:none; fill-opacity:1" cx="1591.34" cy="1398.67" r="18"/>
<circle clip-path="url(#clip3202)" style="fill:#009af9; stroke:none; fill-opacity:1" cx="1591.34" cy="1398.67" r="14"/>
<circle clip-path="url(#clip3202)" style="fill:#000000; stroke:none; fill-opacity:1" cx="1594.31" cy="1398.67" r="18"/>
<circle clip-path="url(#clip3202)" style="fill:#009af9; stroke:none; fill-opacity:1" cx="1594.31" cy="1398.67" r="14"/>
<circle clip-path="url(#clip3202)" style="fill:#000000; stroke:none; fill-opacity:1" cx="1597.25" cy="1398.67" r="18"/>
<circle clip-path="url(#clip3202)" style="fill:#009af9; stroke:none; fill-opacity:1" cx="1597.25" cy="1398.67" r="14"/>
<circle clip-path="url(#clip3202)" style="fill:#000000; stroke:none; fill-opacity:1" cx="1600.16" cy="1398.67" r="18"/>
<circle clip-path="url(#clip3202)" style="fill:#009af9; stroke:none; fill-opacity:1" cx="1600.16" cy="1398.67" r="14"/>
<circle clip-path="url(#clip3202)" style="fill:#000000; stroke:none; fill-opacity:1" cx="1603.03" cy="1344.77" r="18"/>
<circle clip-path="url(#clip3202)" style="fill:#009af9; stroke:none; fill-opacity:1" cx="1603.03" cy="1344.77" r="14"/>
<circle clip-path="url(#clip3202)" style="fill:#000000; stroke:none; fill-opacity:1" cx="1608.7" cy="1169.71" r="18"/>
<circle clip-path="url(#clip3202)" style="fill:#009af9; stroke:none; fill-opacity:1" cx="1608.7" cy="1169.71" r="14"/>
<circle clip-path="url(#clip3202)" style="fill:#000000; stroke:none; fill-opacity:1" cx="1611.49" cy="1290.87" r="18"/>
<circle clip-path="url(#clip3202)" style="fill:#009af9; stroke:none; fill-opacity:1" cx="1611.49" cy="1290.87" r="14"/>
<circle clip-path="url(#clip3202)" style="fill:#000000; stroke:none; fill-opacity:1" cx="1622.4" cy="1398.67" r="18"/>
<circle clip-path="url(#clip3202)" style="fill:#009af9; stroke:none; fill-opacity:1" cx="1622.4" cy="1398.67" r="14"/>
<circle clip-path="url(#clip3202)" style="fill:#000000; stroke:none; fill-opacity:1" cx="1625.06" cy="1344.77" r="18"/>
<circle clip-path="url(#clip3202)" style="fill:#009af9; stroke:none; fill-opacity:1" cx="1625.06" cy="1344.77" r="14"/>
<circle clip-path="url(#clip3202)" style="fill:#000000; stroke:none; fill-opacity:1" cx="1632.9" cy="1398.67" r="18"/>
<circle clip-path="url(#clip3202)" style="fill:#009af9; stroke:none; fill-opacity:1" cx="1632.9" cy="1398.67" r="14"/>
<circle clip-path="url(#clip3202)" style="fill:#000000; stroke:none; fill-opacity:1" cx="1638" cy="1344.77" r="18"/>
<circle clip-path="url(#clip3202)" style="fill:#009af9; stroke:none; fill-opacity:1" cx="1638" cy="1344.77" r="14"/>
<circle clip-path="url(#clip3202)" style="fill:#000000; stroke:none; fill-opacity:1" cx="1640.52" cy="1344.77" r="18"/>
<circle clip-path="url(#clip3202)" style="fill:#009af9; stroke:none; fill-opacity:1" cx="1640.52" cy="1344.77" r="14"/>
<circle clip-path="url(#clip3202)" style="fill:#000000; stroke:none; fill-opacity:1" cx="1643.02" cy="1344.77" r="18"/>
<circle clip-path="url(#clip3202)" style="fill:#009af9; stroke:none; fill-opacity:1" cx="1643.02" cy="1344.77" r="14"/>
<circle clip-path="url(#clip3202)" style="fill:#000000; stroke:none; fill-opacity:1" cx="1652.79" cy="1344.77" r="18"/>
<circle clip-path="url(#clip3202)" style="fill:#009af9; stroke:none; fill-opacity:1" cx="1652.79" cy="1344.77" r="14"/>
<circle clip-path="url(#clip3202)" style="fill:#000000; stroke:none; fill-opacity:1" cx="1657.56" cy="1344.77" r="18"/>
<circle clip-path="url(#clip3202)" style="fill:#009af9; stroke:none; fill-opacity:1" cx="1657.56" cy="1344.77" r="14"/>
<circle clip-path="url(#clip3202)" style="fill:#000000; stroke:none; fill-opacity:1" cx="1659.91" cy="1398.67" r="18"/>
<circle clip-path="url(#clip3202)" style="fill:#009af9; stroke:none; fill-opacity:1" cx="1659.91" cy="1398.67" r="14"/>
<circle clip-path="url(#clip3202)" style="fill:#000000; stroke:none; fill-opacity:1" cx="1709.24" cy="1398.67" r="18"/>
<circle clip-path="url(#clip3202)" style="fill:#009af9; stroke:none; fill-opacity:1" cx="1709.24" cy="1398.67" r="14"/>
<circle clip-path="url(#clip3202)" style="fill:#000000; stroke:none; fill-opacity:1" cx="1713.14" cy="1398.67" r="18"/>
<circle clip-path="url(#clip3202)" style="fill:#009af9; stroke:none; fill-opacity:1" cx="1713.14" cy="1398.67" r="14"/>
<circle clip-path="url(#clip3202)" style="fill:#000000; stroke:none; fill-opacity:1" cx="1720.81" cy="1398.67" r="18"/>
<circle clip-path="url(#clip3202)" style="fill:#009af9; stroke:none; fill-opacity:1" cx="1720.81" cy="1398.67" r="14"/>
<circle clip-path="url(#clip3202)" style="fill:#000000; stroke:none; fill-opacity:1" cx="1722.69" cy="1398.67" r="18"/>
<circle clip-path="url(#clip3202)" style="fill:#009af9; stroke:none; fill-opacity:1" cx="1722.69" cy="1398.67" r="14"/>
<circle clip-path="url(#clip3202)" style="fill:#000000; stroke:none; fill-opacity:1" cx="1724.56" cy="1398.67" r="18"/>
<circle clip-path="url(#clip3202)" style="fill:#009af9; stroke:none; fill-opacity:1" cx="1724.56" cy="1398.67" r="14"/>
<circle clip-path="url(#clip3202)" style="fill:#000000; stroke:none; fill-opacity:1" cx="1726.42" cy="1313.24" r="18"/>
<circle clip-path="url(#clip3202)" style="fill:#009af9; stroke:none; fill-opacity:1" cx="1726.42" cy="1313.24" r="14"/>
<circle clip-path="url(#clip3202)" style="fill:#000000; stroke:none; fill-opacity:1" cx="1728.26" cy="1313.24" r="18"/>
<circle clip-path="url(#clip3202)" style="fill:#009af9; stroke:none; fill-opacity:1" cx="1728.26" cy="1313.24" r="14"/>
<circle clip-path="url(#clip3202)" style="fill:#000000; stroke:none; fill-opacity:1" cx="1730.1" cy="1344.77" r="18"/>
<circle clip-path="url(#clip3202)" style="fill:#009af9; stroke:none; fill-opacity:1" cx="1730.1" cy="1344.77" r="14"/>
<circle clip-path="url(#clip3202)" style="fill:#000000; stroke:none; fill-opacity:1" cx="1733.73" cy="1398.67" r="18"/>
<circle clip-path="url(#clip3202)" style="fill:#009af9; stroke:none; fill-opacity:1" cx="1733.73" cy="1398.67" r="14"/>
<circle clip-path="url(#clip3202)" style="fill:#000000; stroke:none; fill-opacity:1" cx="1841.96" cy="1398.67" r="18"/>
<circle clip-path="url(#clip3202)" style="fill:#009af9; stroke:none; fill-opacity:1" cx="1841.96" cy="1398.67" r="14"/>
<circle clip-path="url(#clip3202)" style="fill:#000000; stroke:none; fill-opacity:1" cx="1854.02" cy="1398.67" r="18"/>
<circle clip-path="url(#clip3202)" style="fill:#009af9; stroke:none; fill-opacity:1" cx="1854.02" cy="1398.67" r="14"/>
<circle clip-path="url(#clip3202)" style="fill:#000000; stroke:none; fill-opacity:1" cx="1855.2" cy="1398.67" r="18"/>
<circle clip-path="url(#clip3202)" style="fill:#009af9; stroke:none; fill-opacity:1" cx="1855.2" cy="1398.67" r="14"/>
<circle clip-path="url(#clip3202)" style="fill:#000000; stroke:none; fill-opacity:1" cx="2205.37" cy="1398.67" r="18"/>
<circle clip-path="url(#clip3202)" style="fill:#009af9; stroke:none; fill-opacity:1" cx="2205.37" cy="1398.67" r="14"/>
<circle clip-path="url(#clip3202)" style="fill:#000000; stroke:none; fill-opacity:1" cx="2254.52" cy="1398.67" r="18"/>
<circle clip-path="url(#clip3202)" style="fill:#009af9; stroke:none; fill-opacity:1" cx="2254.52" cy="1398.67" r="14"/>
<polyline clip-path="url(#clip3202)" style="stroke:#e26f46; stroke-width:4; stroke-opacity:1; fill:none" points="
  300.605,369.417 320.341,383.35 340.078,397.284 359.814,411.218 379.551,425.151 399.288,439.085 419.024,453.018 438.761,466.952 458.497,480.885 478.234,494.819 
  497.97,508.752 517.707,522.686 537.443,536.62 557.18,550.553 576.917,564.487 596.653,578.42 616.39,592.354 636.126,606.287 655.863,620.221 675.599,634.155 
  695.336,648.088 715.073,662.022 734.809,675.955 754.546,689.889 774.282,703.822 794.019,717.756 813.755,731.689 833.492,745.623 853.228,759.557 872.965,773.49 
  892.702,787.424 912.438,801.357 932.175,815.291 951.911,829.224 971.648,843.158 991.384,857.092 1011.12,871.025 1030.86,884.959 1050.59,898.892 1070.33,912.826 
  1090.07,926.759 1109.8,940.693 1129.54,954.626 1149.28,968.56 1169.01,982.494 1188.75,996.427 1208.49,1010.36 1228.22,1024.29 1247.96,1038.23 1267.7,1052.16 
  1287.43,1066.09 1307.17,1080.03 1326.91,1093.96 1346.64,1107.9 1366.38,1121.83 1386.12,1135.76 1405.85,1149.7 1425.59,1163.63 1445.33,1177.56 1465.06,1191.5 
  1484.8,1205.43 1504.53,1219.36 1524.27,1233.3 1544.01,1247.23 1563.74,1261.16 1583.48,1275.1 1603.22,1289.03 1622.95,1302.97 1642.69,1316.9 1662.43,1330.83 
  1682.16,1344.77 1701.9,1358.7 1721.64,1372.63 1741.37,1386.57 1761.11,1400.5 1780.85,1414.43 1800.58,1428.37 1820.32,1442.3 1840.06,1456.23 1859.79,1470.17 
  1879.53,1484.1 1899.27,1498.04 1919,1511.97 1938.74,1525.9 1958.48,1539.84 1978.21,1553.77 1997.95,1567.7 2017.69,1581.64 2037.42,1595.57 2057.16,1609.5 
  2076.9,1623.44 2096.63,1637.37 2116.37,1651.3 2136.1,1665.24 2155.84,1679.17 2175.58,1693.11 2195.31,1707.04 2215.05,1720.97 2234.79,1734.91 2254.52,1748.84 
  
  "/>
<g clip-path="url(#clip3200)">
<text style="fill:#000000; fill-opacity:1; font-family:Arial,Helvetica Neue,Helvetica,sans-serif; font-size:59px; text-anchor:start;" transform="rotate(0, 300.605, 1366.27)" x="300.605" y="1366.27">r = -0.93</text>
</g>
</svg>
