<?xml version="1.0" encoding="utf-8"?>
<svg xmlns="http://www.w3.org/2000/svg" xmlns:xlink="http://www.w3.org/1999/xlink" width="600" height="400" viewBox="0 0 2400 1600">
<defs>
  <clipPath id="clip0800">
    <rect x="0" y="0" width="2400" height="1600"/>
  </clipPath>
</defs>
<polygon clip-path="url(#clip0800)" points="
0,1600 2400,1600 2400,0 0,0 
  " fill="#ffffff" fill-rule="evenodd" fill-opacity="1"/>
<defs>
  <clipPath id="clip0801">
    <rect x="480" y="0" width="1681" height="1600"/>
  </clipPath>
</defs>
<polygon clip-path="url(#clip0800)" points="
243.864,1425.62 2352.76,1425.62 2352.76,109.1 243.864,109.1 
  " fill="#ffffff" fill-rule="evenodd" fill-opacity="1"/>
<defs>
  <clipPath id="clip0802">
    <rect x="243" y="109" width="2110" height="1318"/>
  </clipPath>
</defs>
<polyline clip-path="url(#clip0802)" style="stroke:#000000; stroke-width:2; stroke-opacity:0.1; fill:none" points="
  355.978,1425.62 355.978,109.1 
  "/>
<polyline clip-path="url(#clip0802)" style="stroke:#000000; stroke-width:2; stroke-opacity:0.1; fill:none" points="
  804.433,1425.62 804.433,109.1 
  "/>
<polyline clip-path="url(#clip0802)" style="stroke:#000000; stroke-width:2; stroke-opacity:0.1; fill:none" points="
  1252.89,1425.62 1252.89,109.1 
  "/>
<polyline clip-path="url(#clip0802)" style="stroke:#000000; stroke-width:2; stroke-opacity:0.1; fill:none" points="
  1701.34,1425.62 1701.34,109.1 
  "/>
<polyline clip-path="url(#clip0802)" style="stroke:#000000; stroke-width:2; stroke-opacity:0.1; fill:none" points="
  2149.8,1425.62 2149.8,109.1 
  "/>
<polyline clip-path="url(#clip0802)" style="stroke:#000000; stroke-width:2; stroke-opacity:0.1; fill:none" points="
  243.864,1425.62 2352.76,1425.62 
  "/>
<polyline clip-path="url(#clip0802)" style="stroke:#000000; stroke-width:2; stroke-opacity:0.1; fill:none" points="
  243.864,1096.49 2352.76,1096.49 
  "/>
<polyline clip-path="url(#clip0802)" style="stroke:#000000; stroke-width:2; stroke-opacity:0.1; fill:none" points="
  243.864,767.359 2352.76,767.359 
  "/>
<polyline clip-path="url(#clip0802)" style="stroke:#000000; stroke-width:2; stroke-opacity:0.1; fill:none" points="
  243.864,438.23 2352.76,438.23 
  "/>
<polyline clip-path="url(#clip0802)" style="stroke:#000000; stroke-width:2; stroke-opacity:0.1; fill:none" points="
  243.864,109.1 2352.76,109.1 
  "/>
<polyline clip-path="url(#clip0800)" style="stroke:#000000; stroke-width:4; stroke-opacity:1; fill:none" points="
  243.864,1425.62 2352.76,1425.62 
  "/>
<polyline clip-path="url(#clip0800)" style="stroke:#000000; stroke-width:4; stroke-opacity:1; fill:none" points="
  243.864,1425.62 243.864,109.1 
  "/>
<polyline clip-path="url(#clip0800)" style="stroke:#000000; stroke-width:4; stroke-opacity:1; fill:none" points="
  355.978,1425.62 355.978,1405.87 
  "/>
<polyline clip-path="url(#clip0800)" style="stroke:#000000; stroke-width:4; stroke-opacity:1; fill:none" points="
  804.433,1425.62 804.433,1405.87 
  "/>
<polyline clip-path="url(#clip0800)" style="stroke:#000000; stroke-width:4; stroke-opacity:1; fill:none" points="
  1252.89,1425.62 1252.89,1405.87 
  "/>
<polyline clip-path="url(#clip0800)" style="stroke:#000000; stroke-width:4; stroke-opacity:1; fill:none" points="
  1701.34,1425.62 1701.34,1405.87 
  "/>
<polyline clip-path="url(#clip0800)" style="stroke:#000000; stroke-width:4; stroke-opacity:1; fill:none" points="
  2149.8,1425.62 2149.8,1405.87 
  "/>
<polyline clip-path="url(#clip0800)" style="stroke:#000000; stroke-width:4; stroke-opacity:1; fill:none" points="
  243.864,1425.62 275.498,1425.62 
  "/>
<polyline clip-path="url(#clip0800)" style="stroke:#000000; stroke-width:4; stroke-opacity:1; fill:none" points="
  243.864,1096.49 275.498,1096.49 
  "/>
<polyline clip-path="url(#clip0800)" style="stroke:#000000; stroke-width:4; stroke-opacity:1; fill:none" points="
  243.864,767.359 275.498,767.359 
  "/>
<polyline clip-path="url(#clip0800)" style="stroke:#000000; stroke-width:4; stroke-opacity:1; fill:none" points="
  243.864,438.23 275.498,438.23 
  "/>
<polyline clip-path="url(#clip0800)" style="stroke:#000000; stroke-width:4; stroke-opacity:1; fill:none" points="
  243.864,109.1 275.498,109.1 
  "/>
<g clip-path="url(#clip0800)">
<text style="fill:#000000; fill-opacity:1; font-family:Arial,Helvetica Neue,Helvetica,sans-serif; font-size:48px; text-anchor:middle;" transform="rotate(0, 355.978, 1479.62)" x="355.978" y="1479.62">0</text>
</g>
<g clip-path="url(#clip0800)">
<text style="fill:#000000; fill-opacity:1; font-family:Arial,Helvetica Neue,Helvetica,sans-serif; font-size:48px; text-anchor:middle;" transform="rotate(0, 804.433, 1479.62)" x="804.433" y="1479.62">2</text>
</g>
<g clip-path="url(#clip0800)">
<text style="fill:#000000; fill-opacity:1; font-family:Arial,Helvetica Neue,Helvetica,sans-serif; font-size:48px; text-anchor:middle;" transform="rotate(0, 1252.89, 1479.62)" x="1252.89" y="1479.62">4</text>
</g>
<g clip-path="url(#clip0800)">
<text style="fill:#000000; fill-opacity:1; font-family:Arial,Helvetica Neue,Helvetica,sans-serif; font-size:48px; text-anchor:middle;" transform="rotate(0, 1701.34, 1479.62)" x="1701.34" y="1479.62">6</text>
</g>
<g clip-path="url(#clip0800)">
<text style="fill:#000000; fill-opacity:1; font-family:Arial,Helvetica Neue,Helvetica,sans-serif; font-size:48px; text-anchor:middle;" transform="rotate(0, 2149.8, 1479.62)" x="2149.8" y="1479.62">8</text>
</g>
<g clip-path="url(#clip0800)">
<text style="fill:#000000; fill-opacity:1; font-family:Arial,Helvetica Neue,Helvetica,sans-serif; font-size:48px; text-anchor:end;" transform="rotate(0, 219.864, 1443.12)" x="219.864" y="1443.12">-0.5</text>
</g>
<g clip-path="url(#clip0800)">
<text style="fill:#000000; fill-opacity:1; font-family:Arial,Helvetica Neue,Helvetica,sans-serif; font-size:48px; text-anchor:end;" transform="rotate(0, 219.864, 1113.99)" x="219.864" y="1113.99">0.0</text>
</g>
<g clip-path="url(#clip0800)">
<text style="fill:#000000; fill-opacity:1; font-family:Arial,Helvetica Neue,Helvetica,sans-serif; font-size:48px; text-anchor:end;" transform="rotate(0, 219.864, 784.859)" x="219.864" y="784.859">0.5</text>
</g>
<g clip-path="url(#clip0800)">
<text style="fill:#000000; fill-opacity:1; font-family:Arial,Helvetica Neue,Helvetica,sans-serif; font-size:48px; text-anchor:end;" transform="rotate(0, 219.864, 455.73)" x="219.864" y="455.73">1.0</text>
</g>
<g clip-path="url(#clip0800)">
<text style="fill:#000000; fill-opacity:1; font-family:Arial,Helvetica Neue,Helvetica,sans-serif; font-size:48px; text-anchor:end;" transform="rotate(0, 219.864, 126.6)" x="219.864" y="126.6">1.5</text>
</g>
<g clip-path="url(#clip0800)">
<text style="fill:#000000; fill-opacity:1; font-family:Arial,Helvetica Neue,Helvetica,sans-serif; font-size:66px; text-anchor:middle;" transform="rotate(0, 1298.31, 57.6)" x="1298.31" y="57.6">GCF_000849665.1_ViralProj14593_genomic.fna.K3.jf.histogram</text>
</g>
<g clip-path="url(#clip0800)">
<text style="fill:#000000; fill-opacity:1; font-family:Arial,Helvetica Neue,Helvetica,sans-serif; font-size:66px; text-anchor:middle;" transform="rotate(0, 1298.31, 1559.48)" x="1298.31" y="1559.48">log2(depth of coverage)</text>
</g>
<g clip-path="url(#clip0800)">
<text style="fill:#000000; fill-opacity:1; font-family:Arial,Helvetica Neue,Helvetica,sans-serif; font-size:66px; text-anchor:middle;" transform="rotate(-90, 89.2861, 767.359)" x="89.2861" y="767.359">log2(# kmers)</text>
</g>
<circle clip-path="url(#clip0802)" style="fill:#000000; stroke:none; fill-opacity:1" cx="1580.13" cy="1096.49" r="18"/>
<circle clip-path="url(#clip0802)" style="fill:#009af9; stroke:none; fill-opacity:1" cx="1580.13" cy="1096.49" r="14"/>
<circle clip-path="url(#clip0802)" style="fill:#000000; stroke:none; fill-opacity:1" cx="1658.15" cy="1096.49" r="18"/>
<circle clip-path="url(#clip0802)" style="fill:#009af9; stroke:none; fill-opacity:1" cx="1658.15" cy="1096.49" r="14"/>
<circle clip-path="url(#clip0802)" style="fill:#000000; stroke:none; fill-opacity:1" cx="1739.45" cy="1096.49" r="18"/>
<circle clip-path="url(#clip0802)" style="fill:#009af9; stroke:none; fill-opacity:1" cx="1739.45" cy="1096.49" r="14"/>
<circle clip-path="url(#clip0802)" style="fill:#000000; stroke:none; fill-opacity:1" cx="1777.55" cy="1096.49" r="18"/>
<circle clip-path="url(#clip0802)" style="fill:#009af9; stroke:none; fill-opacity:1" cx="1777.55" cy="1096.49" r="14"/>
<circle clip-path="url(#clip0802)" style="fill:#000000; stroke:none; fill-opacity:1" cx="1781.52" cy="438.23" r="18"/>
<circle clip-path="url(#clip0802)" style="fill:#009af9; stroke:none; fill-opacity:1" cx="1781.52" cy="438.23" r="14"/>
<circle clip-path="url(#clip0802)" style="fill:#000000; stroke:none; fill-opacity:1" cx="1808.02" cy="1096.49" r="18"/>
<circle clip-path="url(#clip0802)" style="fill:#009af9; stroke:none; fill-opacity:1" cx="1808.02" cy="1096.49" r="14"/>
<circle clip-path="url(#clip0802)" style="fill:#000000; stroke:none; fill-opacity:1" cx="1815.2" cy="1096.49" r="18"/>
<circle clip-path="url(#clip0802)" style="fill:#009af9; stroke:none; fill-opacity:1" cx="1815.2" cy="1096.49" r="14"/>
<circle clip-path="url(#clip0802)" style="fill:#000000; stroke:none; fill-opacity:1" cx="1855.28" cy="1096.49" r="18"/>
<circle clip-path="url(#clip0802)" style="fill:#009af9; stroke:none; fill-opacity:1" cx="1855.28" cy="1096.49" r="14"/>
<circle clip-path="url(#clip0802)" style="fill:#000000; stroke:none; fill-opacity:1" cx="1867.6" cy="1096.49" r="18"/>
<circle clip-path="url(#clip0802)" style="fill:#009af9; stroke:none; fill-opacity:1" cx="1867.6" cy="1096.49" r="14"/>
<circle clip-path="url(#clip0802)" style="fill:#000000; stroke:none; fill-opacity:1" cx="1879.47" cy="1096.49" r="18"/>
<circle clip-path="url(#clip0802)" style="fill:#009af9; stroke:none; fill-opacity:1" cx="1879.47" cy="1096.49" r="14"/>
<circle clip-path="url(#clip0802)" style="fill:#000000; stroke:none; fill-opacity:1" cx="1907.38" cy="1096.49" r="18"/>
<circle clip-path="url(#clip0802)" style="fill:#009af9; stroke:none; fill-opacity:1" cx="1907.38" cy="1096.49" r="14"/>
<circle clip-path="url(#clip0802)" style="fill:#000000; stroke:none; fill-opacity:1" cx="1910.04" cy="1096.49" r="18"/>
<circle clip-path="url(#clip0802)" style="fill:#009af9; stroke:none; fill-opacity:1" cx="1910.04" cy="1096.49" r="14"/>
<circle clip-path="url(#clip0802)" style="fill:#000000; stroke:none; fill-opacity:1" cx="1917.9" cy="1096.49" r="18"/>
<circle clip-path="url(#clip0802)" style="fill:#009af9; stroke:none; fill-opacity:1" cx="1917.9" cy="1096.49" r="14"/>
<circle clip-path="url(#clip0802)" style="fill:#000000; stroke:none; fill-opacity:1" cx="1928.09" cy="438.23" r="18"/>
<circle clip-path="url(#clip0802)" style="fill:#009af9; stroke:none; fill-opacity:1" cx="1928.09" cy="438.23" r="14"/>
<circle clip-path="url(#clip0802)" style="fill:#000000; stroke:none; fill-opacity:1" cx="1952.24" cy="1096.49" r="18"/>
<circle clip-path="url(#clip0802)" style="fill:#009af9; stroke:none; fill-opacity:1" cx="1952.24" cy="1096.49" r="14"/>
<circle clip-path="url(#clip0802)" style="fill:#000000; stroke:none; fill-opacity:1" cx="1965.91" cy="1096.49" r="18"/>
<circle clip-path="url(#clip0802)" style="fill:#009af9; stroke:none; fill-opacity:1" cx="1965.91" cy="1096.49" r="14"/>
<circle clip-path="url(#clip0802)" style="fill:#000000; stroke:none; fill-opacity:1" cx="1968.13" cy="1096.49" r="18"/>
<circle clip-path="url(#clip0802)" style="fill:#009af9; stroke:none; fill-opacity:1" cx="1968.13" cy="1096.49" r="14"/>
<circle clip-path="url(#clip0802)" style="fill:#000000; stroke:none; fill-opacity:1" cx="1983.28" cy="438.23" r="18"/>
<circle clip-path="url(#clip0802)" style="fill:#009af9; stroke:none; fill-opacity:1" cx="1983.28" cy="438.23" r="14"/>
<circle clip-path="url(#clip0802)" style="fill:#000000; stroke:none; fill-opacity:1" cx="1989.57" cy="1096.49" r="18"/>
<circle clip-path="url(#clip0802)" style="fill:#009af9; stroke:none; fill-opacity:1" cx="1989.57" cy="1096.49" r="14"/>
<circle clip-path="url(#clip0802)" style="fill:#000000; stroke:none; fill-opacity:1" cx="1993.69" cy="1096.49" r="18"/>
<circle clip-path="url(#clip0802)" style="fill:#009af9; stroke:none; fill-opacity:1" cx="1993.69" cy="1096.49" r="14"/>
<circle clip-path="url(#clip0802)" style="fill:#000000; stroke:none; fill-opacity:1" cx="2001.77" cy="1096.49" r="18"/>
<circle clip-path="url(#clip0802)" style="fill:#009af9; stroke:none; fill-opacity:1" cx="2001.77" cy="1096.49" r="14"/>
<circle clip-path="url(#clip0802)" style="fill:#000000; stroke:none; fill-opacity:1" cx="2035.86" cy="1096.49" r="18"/>
<circle clip-path="url(#clip0802)" style="fill:#009af9; stroke:none; fill-opacity:1" cx="2035.86" cy="1096.49" r="14"/>
<circle clip-path="url(#clip0802)" style="fill:#000000; stroke:none; fill-opacity:1" cx="2046.46" cy="1096.49" r="18"/>
<circle clip-path="url(#clip0802)" style="fill:#009af9; stroke:none; fill-opacity:1" cx="2046.46" cy="1096.49" r="14"/>
<circle clip-path="url(#clip0802)" style="fill:#000000; stroke:none; fill-opacity:1" cx="2051.64" cy="1096.49" r="18"/>
<circle clip-path="url(#clip0802)" style="fill:#009af9; stroke:none; fill-opacity:1" cx="2051.64" cy="1096.49" r="14"/>
<circle clip-path="url(#clip0802)" style="fill:#000000; stroke:none; fill-opacity:1" cx="2088.79" cy="1096.49" r="18"/>
<circle clip-path="url(#clip0802)" style="fill:#009af9; stroke:none; fill-opacity:1" cx="2088.79" cy="1096.49" r="14"/>
<circle clip-path="url(#clip0802)" style="fill:#000000; stroke:none; fill-opacity:1" cx="2115.15" cy="1096.49" r="18"/>
<circle clip-path="url(#clip0802)" style="fill:#009af9; stroke:none; fill-opacity:1" cx="2115.15" cy="1096.49" r="14"/>
<circle clip-path="url(#clip0802)" style="fill:#000000; stroke:none; fill-opacity:1" cx="2120.73" cy="1096.49" r="18"/>
<circle clip-path="url(#clip0802)" style="fill:#009af9; stroke:none; fill-opacity:1" cx="2120.73" cy="1096.49" r="14"/>
<circle clip-path="url(#clip0802)" style="fill:#000000; stroke:none; fill-opacity:1" cx="2122.11" cy="1096.49" r="18"/>
<circle clip-path="url(#clip0802)" style="fill:#009af9; stroke:none; fill-opacity:1" cx="2122.11" cy="1096.49" r="14"/>
<circle clip-path="url(#clip0802)" style="fill:#000000; stroke:none; fill-opacity:1" cx="2240.64" cy="1096.49" r="18"/>
<circle clip-path="url(#clip0802)" style="fill:#009af9; stroke:none; fill-opacity:1" cx="2240.64" cy="1096.49" r="14"/>
<polyline clip-path="url(#clip0802)" style="stroke:#e26f46; stroke-width:4; stroke-opacity:1; fill:none" points="
  1580.13,985.771 1586.8,986.573 1593.48,987.376 1600.15,988.178 1606.82,988.98 1613.49,989.783 1620.16,990.585 1626.84,991.388 1633.51,992.19 1640.18,992.992 
  1646.85,993.795 1653.52,994.597 1660.19,995.399 1666.87,996.202 1673.54,997.004 1680.21,997.806 1686.88,998.609 1693.55,999.411 1700.23,1000.21 1706.9,1001.02 
  1713.57,1001.82 1720.24,1002.62 1726.91,1003.42 1733.58,1004.23 1740.26,1005.03 1746.93,1005.83 1753.6,1006.63 1760.27,1007.43 1766.94,1008.24 1773.62,1009.04 
  1780.29,1009.84 1786.96,1010.64 1793.63,1011.45 1800.3,1012.25 1806.97,1013.05 1813.65,1013.85 1820.32,1014.66 1826.99,1015.46 1833.66,1016.26 1840.33,1017.06 
  1847.01,1017.87 1853.68,1018.67 1860.35,1019.47 1867.02,1020.27 1873.69,1021.08 1880.36,1021.88 1887.04,1022.68 1893.71,1023.48 1900.38,1024.28 1907.05,1025.09 
  1913.72,1025.89 1920.4,1026.69 1927.07,1027.49 1933.74,1028.3 1940.41,1029.1 1947.08,1029.9 1953.75,1030.7 1960.43,1031.51 1967.1,1032.31 1973.77,1033.11 
  1980.44,1033.91 1987.11,1034.72 1993.79,1035.52 2000.46,1036.32 2007.13,1037.12 2013.8,1037.92 2020.47,1038.73 2027.14,1039.53 2033.82,1040.33 2040.49,1041.13 
  2047.16,1041.94 2053.83,1042.74 2060.5,1043.54 2067.18,1044.34 2073.85,1045.15 2080.52,1045.95 2087.19,1046.75 2093.86,1047.55 2100.53,1048.36 2107.21,1049.16 
  2113.88,1049.96 2120.55,1050.76 2127.22,1051.57 2133.89,1052.37 2140.56,1053.17 2147.24,1053.97 2153.91,1054.77 2160.58,1055.58 2167.25,1056.38 2173.92,1057.18 
  2180.6,1057.98 2187.27,1058.79 2193.94,1059.59 2200.61,1060.39 2207.28,1061.19 2213.95,1062 2220.63,1062.8 2227.3,1063.6 2233.97,1064.4 2240.64,1065.21 
  
  "/>
<g clip-path="url(#clip0800)">
<text style="fill:#000000; fill-opacity:1; font-family:Arial,Helvetica Neue,Helvetica,sans-serif; font-size:59px; text-anchor:start;" transform="rotate(0, 355.978, 459.73)" x="355.978" y="459.73">r = -0.09</text>
</g>
</svg>
