<?xml version="1.0" encoding="utf-8"?>
<svg xmlns="http://www.w3.org/2000/svg" xmlns:xlink="http://www.w3.org/1999/xlink" width="600" height="400" viewBox="0 0 2400 1600">
<defs>
  <clipPath id="clip2600">
    <rect x="0" y="0" width="2400" height="1600"/>
  </clipPath>
</defs>
<polygon clip-path="url(#clip2600)" points="
0,1600 2400,1600 2400,0 0,0 
  " fill="#ffffff" fill-rule="evenodd" fill-opacity="1"/>
<defs>
  <clipPath id="clip2601">
    <rect x="480" y="0" width="1681" height="1600"/>
  </clipPath>
</defs>
<polygon clip-path="url(#clip2600)" points="
242.516,1425.62 2352.76,1425.62 2352.76,109.1 242.516,109.1 
  " fill="#ffffff" fill-rule="evenodd" fill-opacity="1"/>
<defs>
  <clipPath id="clip2602">
    <rect x="242" y="109" width="2111" height="1318"/>
  </clipPath>
</defs>
<polyline clip-path="url(#clip2602)" style="stroke:#000000; stroke-width:2; stroke-opacity:0.1; fill:none" points="
  495.547,1425.62 495.547,109.1 
  "/>
<polyline clip-path="url(#clip2602)" style="stroke:#000000; stroke-width:2; stroke-opacity:0.1; fill:none" points="
  1001.61,1425.62 1001.61,109.1 
  "/>
<polyline clip-path="url(#clip2602)" style="stroke:#000000; stroke-width:2; stroke-opacity:0.1; fill:none" points="
  1507.67,1425.62 1507.67,109.1 
  "/>
<polyline clip-path="url(#clip2602)" style="stroke:#000000; stroke-width:2; stroke-opacity:0.1; fill:none" points="
  2013.73,1425.62 2013.73,109.1 
  "/>
<polyline clip-path="url(#clip2602)" style="stroke:#000000; stroke-width:2; stroke-opacity:0.1; fill:none" points="
  242.516,1371.78 2352.76,1371.78 
  "/>
<polyline clip-path="url(#clip2602)" style="stroke:#000000; stroke-width:2; stroke-opacity:0.1; fill:none" points="
  242.516,1102.57 2352.76,1102.57 
  "/>
<polyline clip-path="url(#clip2602)" style="stroke:#000000; stroke-width:2; stroke-opacity:0.1; fill:none" points="
  242.516,833.359 2352.76,833.359 
  "/>
<polyline clip-path="url(#clip2602)" style="stroke:#000000; stroke-width:2; stroke-opacity:0.1; fill:none" points="
  242.516,564.15 2352.76,564.15 
  "/>
<polyline clip-path="url(#clip2602)" style="stroke:#000000; stroke-width:2; stroke-opacity:0.1; fill:none" points="
  242.516,294.942 2352.76,294.942 
  "/>
<polyline clip-path="url(#clip2600)" style="stroke:#000000; stroke-width:4; stroke-opacity:1; fill:none" points="
  242.516,1425.62 2352.76,1425.62 
  "/>
<polyline clip-path="url(#clip2600)" style="stroke:#000000; stroke-width:4; stroke-opacity:1; fill:none" points="
  242.516,1425.62 242.516,109.1 
  "/>
<polyline clip-path="url(#clip2600)" style="stroke:#000000; stroke-width:4; stroke-opacity:1; fill:none" points="
  495.547,1425.62 495.547,1405.87 
  "/>
<polyline clip-path="url(#clip2600)" style="stroke:#000000; stroke-width:4; stroke-opacity:1; fill:none" points="
  1001.61,1425.62 1001.61,1405.87 
  "/>
<polyline clip-path="url(#clip2600)" style="stroke:#000000; stroke-width:4; stroke-opacity:1; fill:none" points="
  1507.67,1425.62 1507.67,1405.87 
  "/>
<polyline clip-path="url(#clip2600)" style="stroke:#000000; stroke-width:4; stroke-opacity:1; fill:none" points="
  2013.73,1425.62 2013.73,1405.87 
  "/>
<polyline clip-path="url(#clip2600)" style="stroke:#000000; stroke-width:4; stroke-opacity:1; fill:none" points="
  242.516,1371.78 274.17,1371.78 
  "/>
<polyline clip-path="url(#clip2600)" style="stroke:#000000; stroke-width:4; stroke-opacity:1; fill:none" points="
  242.516,1102.57 274.17,1102.57 
  "/>
<polyline clip-path="url(#clip2600)" style="stroke:#000000; stroke-width:4; stroke-opacity:1; fill:none" points="
  242.516,833.359 274.17,833.359 
  "/>
<polyline clip-path="url(#clip2600)" style="stroke:#000000; stroke-width:4; stroke-opacity:1; fill:none" points="
  242.516,564.15 274.17,564.15 
  "/>
<polyline clip-path="url(#clip2600)" style="stroke:#000000; stroke-width:4; stroke-opacity:1; fill:none" points="
  242.516,294.942 274.17,294.942 
  "/>
<g clip-path="url(#clip2600)">
<text style="fill:#000000; fill-opacity:1; font-family:Arial,Helvetica Neue,Helvetica,sans-serif; font-size:48px; text-anchor:middle;" transform="rotate(0, 495.547, 1479.62)" x="495.547" y="1479.62">0</text>
</g>
<g clip-path="url(#clip2600)">
<text style="fill:#000000; fill-opacity:1; font-family:Arial,Helvetica Neue,Helvetica,sans-serif; font-size:48px; text-anchor:middle;" transform="rotate(0, 1001.61, 1479.62)" x="1001.61" y="1479.62">1</text>
</g>
<g clip-path="url(#clip2600)">
<text style="fill:#000000; fill-opacity:1; font-family:Arial,Helvetica Neue,Helvetica,sans-serif; font-size:48px; text-anchor:middle;" transform="rotate(0, 1507.67, 1479.62)" x="1507.67" y="1479.62">2</text>
</g>
<g clip-path="url(#clip2600)">
<text style="fill:#000000; fill-opacity:1; font-family:Arial,Helvetica Neue,Helvetica,sans-serif; font-size:48px; text-anchor:middle;" transform="rotate(0, 2013.73, 1479.62)" x="2013.73" y="1479.62">3</text>
</g>
<g clip-path="url(#clip2600)">
<text style="fill:#000000; fill-opacity:1; font-family:Arial,Helvetica Neue,Helvetica,sans-serif; font-size:48px; text-anchor:end;" transform="rotate(0, 218.516, 1389.28)" x="218.516" y="1389.28">0.0</text>
</g>
<g clip-path="url(#clip2600)">
<text style="fill:#000000; fill-opacity:1; font-family:Arial,Helvetica Neue,Helvetica,sans-serif; font-size:48px; text-anchor:end;" transform="rotate(0, 218.516, 1120.07)" x="218.516" y="1120.07">2.5</text>
</g>
<g clip-path="url(#clip2600)">
<text style="fill:#000000; fill-opacity:1; font-family:Arial,Helvetica Neue,Helvetica,sans-serif; font-size:48px; text-anchor:end;" transform="rotate(0, 218.516, 850.859)" x="218.516" y="850.859">5.0</text>
</g>
<g clip-path="url(#clip2600)">
<text style="fill:#000000; fill-opacity:1; font-family:Arial,Helvetica Neue,Helvetica,sans-serif; font-size:48px; text-anchor:end;" transform="rotate(0, 218.516, 581.65)" x="218.516" y="581.65">7.5</text>
</g>
<g clip-path="url(#clip2600)">
<text style="fill:#000000; fill-opacity:1; font-family:Arial,Helvetica Neue,Helvetica,sans-serif; font-size:48px; text-anchor:end;" transform="rotate(0, 218.516, 312.442)" x="218.516" y="312.442">10.0</text>
</g>
<g clip-path="url(#clip2600)">
<text style="fill:#000000; fill-opacity:1; font-family:Arial,Helvetica Neue,Helvetica,sans-serif; font-size:66px; text-anchor:middle;" transform="rotate(0, 1297.64, 57.6)" x="1297.64" y="57.6">GCF_000868425.1_ViralProj17577_genomic.fna.K7.jf.histogram</text>
</g>
<g clip-path="url(#clip2600)">
<text style="fill:#000000; fill-opacity:1; font-family:Arial,Helvetica Neue,Helvetica,sans-serif; font-size:66px; text-anchor:middle;" transform="rotate(0, 1297.64, 1559.48)" x="1297.64" y="1559.48">log2(depth of coverage)</text>
</g>
<g clip-path="url(#clip2600)">
<text style="fill:#000000; fill-opacity:1; font-family:Arial,Helvetica Neue,Helvetica,sans-serif; font-size:66px; text-anchor:middle;" transform="rotate(-90, 89.2861, 767.359)" x="89.2861" y="767.359">log2(# kmers)</text>
</g>
<circle clip-path="url(#clip2602)" style="fill:#000000; stroke:none; fill-opacity:1" cx="495.547" cy="162.942" r="18"/>
<circle clip-path="url(#clip2602)" style="fill:#009af9; stroke:none; fill-opacity:1" cx="495.547" cy="162.942" r="14"/>
<circle clip-path="url(#clip2602)" style="fill:#000000; stroke:none; fill-opacity:1" cx="1001.61" cy="287.246" r="18"/>
<circle clip-path="url(#clip2602)" style="fill:#009af9; stroke:none; fill-opacity:1" cx="1001.61" cy="287.246" r="14"/>
<circle clip-path="url(#clip2602)" style="fill:#000000; stroke:none; fill-opacity:1" cx="1297.64" cy="409.765" r="18"/>
<circle clip-path="url(#clip2602)" style="fill:#009af9; stroke:none; fill-opacity:1" cx="1297.64" cy="409.765" r="14"/>
<circle clip-path="url(#clip2602)" style="fill:#000000; stroke:none; fill-opacity:1" cx="1507.67" cy="552.593" r="18"/>
<circle clip-path="url(#clip2602)" style="fill:#009af9; stroke:none; fill-opacity:1" cx="1507.67" cy="552.593" r="14"/>
<circle clip-path="url(#clip2602)" style="fill:#000000; stroke:none; fill-opacity:1" cx="1670.59" cy="709.55" r="18"/>
<circle clip-path="url(#clip2602)" style="fill:#009af9; stroke:none; fill-opacity:1" cx="1670.59" cy="709.55" r="14"/>
<circle clip-path="url(#clip2602)" style="fill:#000000; stroke:none; fill-opacity:1" cx="1803.7" cy="871.71" r="18"/>
<circle clip-path="url(#clip2602)" style="fill:#009af9; stroke:none; fill-opacity:1" cx="1803.7" cy="871.71" r="14"/>
<circle clip-path="url(#clip2602)" style="fill:#000000; stroke:none; fill-opacity:1" cx="1916.24" cy="1156.41" r="18"/>
<circle clip-path="url(#clip2602)" style="fill:#009af9; stroke:none; fill-opacity:1" cx="1916.24" cy="1156.41" r="14"/>
<circle clip-path="url(#clip2602)" style="fill:#000000; stroke:none; fill-opacity:1" cx="2013.73" cy="1121.74" r="18"/>
<circle clip-path="url(#clip2602)" style="fill:#009af9; stroke:none; fill-opacity:1" cx="2013.73" cy="1121.74" r="14"/>
<circle clip-path="url(#clip2602)" style="fill:#000000; stroke:none; fill-opacity:1" cx="2099.73" cy="1371.78" r="18"/>
<circle clip-path="url(#clip2602)" style="fill:#009af9; stroke:none; fill-opacity:1" cx="2099.73" cy="1371.78" r="14"/>
<polyline clip-path="url(#clip2602)" style="stroke:#e26f46; stroke-width:4; stroke-opacity:1; fill:none" points="
  495.547,-40.591 511.751,-28.4395 527.955,-16.2881 544.159,-4.13672 560.363,8.01469 576.566,20.1661 592.77,32.3175 608.974,44.4689 625.178,56.6203 641.382,68.7718 
  657.585,80.9232 673.789,93.0746 689.993,105.226 706.197,117.377 722.401,129.529 738.605,141.68 754.808,153.832 771.012,165.983 787.216,178.134 803.42,190.286 
  819.624,202.437 835.827,214.589 852.031,226.74 868.235,238.892 884.439,251.043 900.643,263.194 916.846,275.346 933.05,287.497 949.254,299.649 965.458,311.8 
  981.662,323.951 997.866,336.103 1014.07,348.254 1030.27,360.406 1046.48,372.557 1062.68,384.708 1078.88,396.86 1095.09,409.011 1111.29,421.163 1127.5,433.314 
  1143.7,445.466 1159.9,457.617 1176.11,469.768 1192.31,481.92 1208.52,494.071 1224.72,506.223 1240.92,518.374 1257.13,530.525 1273.33,542.677 1289.53,554.828 
  1305.74,566.98 1321.94,579.131 1338.15,591.283 1354.35,603.434 1370.55,615.585 1386.76,627.737 1402.96,639.888 1419.16,652.04 1435.37,664.191 1451.57,676.342 
  1467.78,688.494 1483.98,700.645 1500.18,712.797 1516.39,724.948 1532.59,737.099 1548.8,749.251 1565,761.402 1581.2,773.554 1597.41,785.705 1613.61,797.857 
  1629.81,810.008 1646.02,822.159 1662.22,834.311 1678.43,846.462 1694.63,858.614 1710.83,870.765 1727.04,882.916 1743.24,895.068 1759.44,907.219 1775.65,919.371 
  1791.85,931.522 1808.06,943.673 1824.26,955.825 1840.46,967.976 1856.67,980.128 1872.87,992.279 1889.08,1004.43 1905.28,1016.58 1921.48,1028.73 1937.69,1040.88 
  1953.89,1053.04 1970.09,1065.19 1986.3,1077.34 2002.5,1089.49 2018.71,1101.64 2034.91,1113.79 2051.11,1125.94 2067.32,1138.1 2083.52,1150.25 2099.73,1162.4 
  
  "/>
<g clip-path="url(#clip2600)">
<text style="fill:#000000; fill-opacity:1; font-family:Arial,Helvetica Neue,Helvetica,sans-serif; font-size:59px; text-anchor:start;" transform="rotate(0, 495.547, 1285.59)" x="495.547" y="1285.59">r = -0.94</text>
</g>
</svg>
