<?xml version="1.0" encoding="utf-8"?>
<svg xmlns="http://www.w3.org/2000/svg" xmlns:xlink="http://www.w3.org/1999/xlink" width="600" height="400" viewBox="0 0 2400 1600">
<defs>
  <clipPath id="clip9500">
    <rect x="0" y="0" width="2400" height="1600"/>
  </clipPath>
</defs>
<polygon clip-path="url(#clip9500)" points="
0,1600 2400,1600 2400,0 0,0 
  " fill="#ffffff" fill-rule="evenodd" fill-opacity="1"/>
<defs>
  <clipPath id="clip9501">
    <rect x="480" y="0" width="1681" height="1600"/>
  </clipPath>
</defs>
<polygon clip-path="url(#clip9500)" points="
202.373,1425.62 2352.76,1425.62 2352.76,109.1 202.373,109.1 
  " fill="#ffffff" fill-rule="evenodd" fill-opacity="1"/>
<defs>
  <clipPath id="clip9502">
    <rect x="202" y="109" width="2151" height="1318"/>
  </clipPath>
</defs>
<polyline clip-path="url(#clip9502)" style="stroke:#000000; stroke-width:2; stroke-opacity:0.1; fill:none" points="
  322.528,1425.62 322.528,109.1 
  "/>
<polyline clip-path="url(#clip9502)" style="stroke:#000000; stroke-width:2; stroke-opacity:0.1; fill:none" points="
  803.148,1425.62 803.148,109.1 
  "/>
<polyline clip-path="url(#clip9502)" style="stroke:#000000; stroke-width:2; stroke-opacity:0.1; fill:none" points="
  1283.77,1425.62 1283.77,109.1 
  "/>
<polyline clip-path="url(#clip9502)" style="stroke:#000000; stroke-width:2; stroke-opacity:0.1; fill:none" points="
  1764.39,1425.62 1764.39,109.1 
  "/>
<polyline clip-path="url(#clip9502)" style="stroke:#000000; stroke-width:2; stroke-opacity:0.1; fill:none" points="
  2245.01,1425.62 2245.01,109.1 
  "/>
<polyline clip-path="url(#clip9502)" style="stroke:#000000; stroke-width:2; stroke-opacity:0.1; fill:none" points="
  202.373,1392.11 2352.76,1392.11 
  "/>
<polyline clip-path="url(#clip9502)" style="stroke:#000000; stroke-width:2; stroke-opacity:0.1; fill:none" points="
  202.373,1057.02 2352.76,1057.02 
  "/>
<polyline clip-path="url(#clip9502)" style="stroke:#000000; stroke-width:2; stroke-opacity:0.1; fill:none" points="
  202.373,721.939 2352.76,721.939 
  "/>
<polyline clip-path="url(#clip9502)" style="stroke:#000000; stroke-width:2; stroke-opacity:0.1; fill:none" points="
  202.373,386.854 2352.76,386.854 
  "/>
<polyline clip-path="url(#clip9500)" style="stroke:#000000; stroke-width:4; stroke-opacity:1; fill:none" points="
  202.373,1425.62 2352.76,1425.62 
  "/>
<polyline clip-path="url(#clip9500)" style="stroke:#000000; stroke-width:4; stroke-opacity:1; fill:none" points="
  202.373,1425.62 202.373,109.1 
  "/>
<polyline clip-path="url(#clip9500)" style="stroke:#000000; stroke-width:4; stroke-opacity:1; fill:none" points="
  322.528,1425.62 322.528,1405.87 
  "/>
<polyline clip-path="url(#clip9500)" style="stroke:#000000; stroke-width:4; stroke-opacity:1; fill:none" points="
  803.148,1425.62 803.148,1405.87 
  "/>
<polyline clip-path="url(#clip9500)" style="stroke:#000000; stroke-width:4; stroke-opacity:1; fill:none" points="
  1283.77,1425.62 1283.77,1405.87 
  "/>
<polyline clip-path="url(#clip9500)" style="stroke:#000000; stroke-width:4; stroke-opacity:1; fill:none" points="
  1764.39,1425.62 1764.39,1405.87 
  "/>
<polyline clip-path="url(#clip9500)" style="stroke:#000000; stroke-width:4; stroke-opacity:1; fill:none" points="
  2245.01,1425.62 2245.01,1405.87 
  "/>
<polyline clip-path="url(#clip9500)" style="stroke:#000000; stroke-width:4; stroke-opacity:1; fill:none" points="
  202.373,1392.11 234.629,1392.11 
  "/>
<polyline clip-path="url(#clip9500)" style="stroke:#000000; stroke-width:4; stroke-opacity:1; fill:none" points="
  202.373,1057.02 234.629,1057.02 
  "/>
<polyline clip-path="url(#clip9500)" style="stroke:#000000; stroke-width:4; stroke-opacity:1; fill:none" points="
  202.373,721.939 234.629,721.939 
  "/>
<polyline clip-path="url(#clip9500)" style="stroke:#000000; stroke-width:4; stroke-opacity:1; fill:none" points="
  202.373,386.854 234.629,386.854 
  "/>
<g clip-path="url(#clip9500)">
<text style="fill:#000000; fill-opacity:1; font-family:Arial,Helvetica Neue,Helvetica,sans-serif; font-size:48px; text-anchor:middle;" transform="rotate(0, 322.528, 1479.62)" x="322.528" y="1479.62">0</text>
</g>
<g clip-path="url(#clip9500)">
<text style="fill:#000000; fill-opacity:1; font-family:Arial,Helvetica Neue,Helvetica,sans-serif; font-size:48px; text-anchor:middle;" transform="rotate(0, 803.148, 1479.62)" x="803.148" y="1479.62">2</text>
</g>
<g clip-path="url(#clip9500)">
<text style="fill:#000000; fill-opacity:1; font-family:Arial,Helvetica Neue,Helvetica,sans-serif; font-size:48px; text-anchor:middle;" transform="rotate(0, 1283.77, 1479.62)" x="1283.77" y="1479.62">4</text>
</g>
<g clip-path="url(#clip9500)">
<text style="fill:#000000; fill-opacity:1; font-family:Arial,Helvetica Neue,Helvetica,sans-serif; font-size:48px; text-anchor:middle;" transform="rotate(0, 1764.39, 1479.62)" x="1764.39" y="1479.62">6</text>
</g>
<g clip-path="url(#clip9500)">
<text style="fill:#000000; fill-opacity:1; font-family:Arial,Helvetica Neue,Helvetica,sans-serif; font-size:48px; text-anchor:middle;" transform="rotate(0, 2245.01, 1479.62)" x="2245.01" y="1479.62">8</text>
</g>
<g clip-path="url(#clip9500)">
<text style="fill:#000000; fill-opacity:1; font-family:Arial,Helvetica Neue,Helvetica,sans-serif; font-size:48px; text-anchor:end;" transform="rotate(0, 178.373, 1409.61)" x="178.373" y="1409.61">0</text>
</g>
<g clip-path="url(#clip9500)">
<text style="fill:#000000; fill-opacity:1; font-family:Arial,Helvetica Neue,Helvetica,sans-serif; font-size:48px; text-anchor:end;" transform="rotate(0, 178.373, 1074.52)" x="178.373" y="1074.52">5</text>
</g>
<g clip-path="url(#clip9500)">
<text style="fill:#000000; fill-opacity:1; font-family:Arial,Helvetica Neue,Helvetica,sans-serif; font-size:48px; text-anchor:end;" transform="rotate(0, 178.373, 739.439)" x="178.373" y="739.439">10</text>
</g>
<g clip-path="url(#clip9500)">
<text style="fill:#000000; fill-opacity:1; font-family:Arial,Helvetica Neue,Helvetica,sans-serif; font-size:48px; text-anchor:end;" transform="rotate(0, 178.373, 404.354)" x="178.373" y="404.354">15</text>
</g>
<g clip-path="url(#clip9500)">
<text style="fill:#000000; fill-opacity:1; font-family:Arial,Helvetica Neue,Helvetica,sans-serif; font-size:66px; text-anchor:middle;" transform="rotate(0, 1277.56, 57.6)" x="1277.56" y="57.6">GCF_000064305.2_ASM6430v2_genomic.fna.K11.jf.histogram</text>
</g>
<g clip-path="url(#clip9500)">
<text style="fill:#000000; fill-opacity:1; font-family:Arial,Helvetica Neue,Helvetica,sans-serif; font-size:66px; text-anchor:middle;" transform="rotate(0, 1277.56, 1559.48)" x="1277.56" y="1559.48">log2(depth of coverage)</text>
</g>
<g clip-path="url(#clip9500)">
<text style="fill:#000000; fill-opacity:1; font-family:Arial,Helvetica Neue,Helvetica,sans-serif; font-size:66px; text-anchor:middle;" transform="rotate(-90, 89.2861, 767.359)" x="89.2861" y="767.359">log2(# kmers)</text>
</g>
<circle clip-path="url(#clip9502)" style="fill:#000000; stroke:none; fill-opacity:1" cx="322.528" cy="142.609" r="18"/>
<circle clip-path="url(#clip9502)" style="fill:#009af9; stroke:none; fill-opacity:1" cx="322.528" cy="142.609" r="14"/>
<circle clip-path="url(#clip9502)" style="fill:#000000; stroke:none; fill-opacity:1" cx="562.838" cy="220.852" r="18"/>
<circle clip-path="url(#clip9502)" style="fill:#009af9; stroke:none; fill-opacity:1" cx="562.838" cy="220.852" r="14"/>
<circle clip-path="url(#clip9502)" style="fill:#000000; stroke:none; fill-opacity:1" cx="703.41" cy="281.912" r="18"/>
<circle clip-path="url(#clip9502)" style="fill:#009af9; stroke:none; fill-opacity:1" cx="703.41" cy="281.912" r="14"/>
<circle clip-path="url(#clip9502)" style="fill:#000000; stroke:none; fill-opacity:1" cx="803.148" cy="332.556" r="18"/>
<circle clip-path="url(#clip9502)" style="fill:#009af9; stroke:none; fill-opacity:1" cx="803.148" cy="332.556" r="14"/>
<circle clip-path="url(#clip9502)" style="fill:#000000; stroke:none; fill-opacity:1" cx="880.511" cy="374.849" r="18"/>
<circle clip-path="url(#clip9502)" style="fill:#009af9; stroke:none; fill-opacity:1" cx="880.511" cy="374.849" r="14"/>
<circle clip-path="url(#clip9502)" style="fill:#000000; stroke:none; fill-opacity:1" cx="943.721" cy="402.501" r="18"/>
<circle clip-path="url(#clip9502)" style="fill:#009af9; stroke:none; fill-opacity:1" cx="943.721" cy="402.501" r="14"/>
<circle clip-path="url(#clip9502)" style="fill:#000000; stroke:none; fill-opacity:1" cx="997.164" cy="438.713" r="18"/>
<circle clip-path="url(#clip9502)" style="fill:#009af9; stroke:none; fill-opacity:1" cx="997.164" cy="438.713" r="14"/>
<circle clip-path="url(#clip9502)" style="fill:#000000; stroke:none; fill-opacity:1" cx="1043.46" cy="469.351" r="18"/>
<circle clip-path="url(#clip9502)" style="fill:#009af9; stroke:none; fill-opacity:1" cx="1043.46" cy="469.351" r="14"/>
<circle clip-path="url(#clip9502)" style="fill:#000000; stroke:none; fill-opacity:1" cx="1084.29" cy="498.402" r="18"/>
<circle clip-path="url(#clip9502)" style="fill:#009af9; stroke:none; fill-opacity:1" cx="1084.29" cy="498.402" r="14"/>
<circle clip-path="url(#clip9502)" style="fill:#000000; stroke:none; fill-opacity:1" cx="1120.82" cy="522.904" r="18"/>
<circle clip-path="url(#clip9502)" style="fill:#009af9; stroke:none; fill-opacity:1" cx="1120.82" cy="522.904" r="14"/>
<circle clip-path="url(#clip9502)" style="fill:#000000; stroke:none; fill-opacity:1" cx="1153.86" cy="544.064" r="18"/>
<circle clip-path="url(#clip9502)" style="fill:#009af9; stroke:none; fill-opacity:1" cx="1153.86" cy="544.064" r="14"/>
<circle clip-path="url(#clip9502)" style="fill:#000000; stroke:none; fill-opacity:1" cx="1184.03" cy="566.274" r="18"/>
<circle clip-path="url(#clip9502)" style="fill:#009af9; stroke:none; fill-opacity:1" cx="1184.03" cy="566.274" r="14"/>
<circle clip-path="url(#clip9502)" style="fill:#000000; stroke:none; fill-opacity:1" cx="1211.78" cy="586.546" r="18"/>
<circle clip-path="url(#clip9502)" style="fill:#009af9; stroke:none; fill-opacity:1" cx="1211.78" cy="586.546" r="14"/>
<circle clip-path="url(#clip9502)" style="fill:#000000; stroke:none; fill-opacity:1" cx="1237.47" cy="602.503" r="18"/>
<circle clip-path="url(#clip9502)" style="fill:#009af9; stroke:none; fill-opacity:1" cx="1237.47" cy="602.503" r="14"/>
<circle clip-path="url(#clip9502)" style="fill:#000000; stroke:none; fill-opacity:1" cx="1261.39" cy="619.769" r="18"/>
<circle clip-path="url(#clip9502)" style="fill:#009af9; stroke:none; fill-opacity:1" cx="1261.39" cy="619.769" r="14"/>
<circle clip-path="url(#clip9502)" style="fill:#000000; stroke:none; fill-opacity:1" cx="1283.77" cy="637.436" r="18"/>
<circle clip-path="url(#clip9502)" style="fill:#009af9; stroke:none; fill-opacity:1" cx="1283.77" cy="637.436" r="14"/>
<circle clip-path="url(#clip9502)" style="fill:#000000; stroke:none; fill-opacity:1" cx="1304.79" cy="657.312" r="18"/>
<circle clip-path="url(#clip9502)" style="fill:#009af9; stroke:none; fill-opacity:1" cx="1304.79" cy="657.312" r="14"/>
<circle clip-path="url(#clip9502)" style="fill:#000000; stroke:none; fill-opacity:1" cx="1324.6" cy="674.708" r="18"/>
<circle clip-path="url(#clip9502)" style="fill:#009af9; stroke:none; fill-opacity:1" cx="1324.6" cy="674.708" r="14"/>
<circle clip-path="url(#clip9502)" style="fill:#000000; stroke:none; fill-opacity:1" cx="1343.35" cy="689.718" r="18"/>
<circle clip-path="url(#clip9502)" style="fill:#009af9; stroke:none; fill-opacity:1" cx="1343.35" cy="689.718" r="14"/>
<circle clip-path="url(#clip9502)" style="fill:#000000; stroke:none; fill-opacity:1" cx="1361.13" cy="700.516" r="18"/>
<circle clip-path="url(#clip9502)" style="fill:#009af9; stroke:none; fill-opacity:1" cx="1361.13" cy="700.516" r="14"/>
<circle clip-path="url(#clip9502)" style="fill:#000000; stroke:none; fill-opacity:1" cx="1378.05" cy="713.795" r="18"/>
<circle clip-path="url(#clip9502)" style="fill:#009af9; stroke:none; fill-opacity:1" cx="1378.05" cy="713.795" r="14"/>
<circle clip-path="url(#clip9502)" style="fill:#000000; stroke:none; fill-opacity:1" cx="1394.17" cy="733.351" r="18"/>
<circle clip-path="url(#clip9502)" style="fill:#009af9; stroke:none; fill-opacity:1" cx="1394.17" cy="733.351" r="14"/>
<circle clip-path="url(#clip9502)" style="fill:#000000; stroke:none; fill-opacity:1" cx="1409.59" cy="740.402" r="18"/>
<circle clip-path="url(#clip9502)" style="fill:#009af9; stroke:none; fill-opacity:1" cx="1409.59" cy="740.402" r="14"/>
<circle clip-path="url(#clip9502)" style="fill:#000000; stroke:none; fill-opacity:1" cx="1424.34" cy="757.619" r="18"/>
<circle clip-path="url(#clip9502)" style="fill:#009af9; stroke:none; fill-opacity:1" cx="1424.34" cy="757.619" r="14"/>
<circle clip-path="url(#clip9502)" style="fill:#000000; stroke:none; fill-opacity:1" cx="1438.49" cy="770.608" r="18"/>
<circle clip-path="url(#clip9502)" style="fill:#009af9; stroke:none; fill-opacity:1" cx="1438.49" cy="770.608" r="14"/>
<circle clip-path="url(#clip9502)" style="fill:#000000; stroke:none; fill-opacity:1" cx="1452.09" cy="783.451" r="18"/>
<circle clip-path="url(#clip9502)" style="fill:#009af9; stroke:none; fill-opacity:1" cx="1452.09" cy="783.451" r="14"/>
<circle clip-path="url(#clip9502)" style="fill:#000000; stroke:none; fill-opacity:1" cx="1465.18" cy="793.4" r="18"/>
<circle clip-path="url(#clip9502)" style="fill:#009af9; stroke:none; fill-opacity:1" cx="1465.18" cy="793.4" r="14"/>
<circle clip-path="url(#clip9502)" style="fill:#000000; stroke:none; fill-opacity:1" cx="1477.78" cy="803.39" r="18"/>
<circle clip-path="url(#clip9502)" style="fill:#009af9; stroke:none; fill-opacity:1" cx="1477.78" cy="803.39" r="14"/>
<circle clip-path="url(#clip9502)" style="fill:#000000; stroke:none; fill-opacity:1" cx="1489.95" cy="800.794" r="18"/>
<circle clip-path="url(#clip9502)" style="fill:#009af9; stroke:none; fill-opacity:1" cx="1489.95" cy="800.794" r="14"/>
<circle clip-path="url(#clip9502)" style="fill:#000000; stroke:none; fill-opacity:1" cx="1501.7" cy="816.019" r="18"/>
<circle clip-path="url(#clip9502)" style="fill:#009af9; stroke:none; fill-opacity:1" cx="1501.7" cy="816.019" r="14"/>
<circle clip-path="url(#clip9502)" style="fill:#000000; stroke:none; fill-opacity:1" cx="1513.07" cy="838.094" r="18"/>
<circle clip-path="url(#clip9502)" style="fill:#009af9; stroke:none; fill-opacity:1" cx="1513.07" cy="838.094" r="14"/>
<circle clip-path="url(#clip9502)" style="fill:#000000; stroke:none; fill-opacity:1" cx="1524.08" cy="843.584" r="18"/>
<circle clip-path="url(#clip9502)" style="fill:#009af9; stroke:none; fill-opacity:1" cx="1524.08" cy="843.584" r="14"/>
<circle clip-path="url(#clip9502)" style="fill:#000000; stroke:none; fill-opacity:1" cx="1534.75" cy="842.922" r="18"/>
<circle clip-path="url(#clip9502)" style="fill:#009af9; stroke:none; fill-opacity:1" cx="1534.75" cy="842.922" r="14"/>
<circle clip-path="url(#clip9502)" style="fill:#000000; stroke:none; fill-opacity:1" cx="1545.1" cy="867.173" r="18"/>
<circle clip-path="url(#clip9502)" style="fill:#009af9; stroke:none; fill-opacity:1" cx="1545.1" cy="867.173" r="14"/>
<circle clip-path="url(#clip9502)" style="fill:#000000; stroke:none; fill-opacity:1" cx="1555.15" cy="877.454" r="18"/>
<circle clip-path="url(#clip9502)" style="fill:#009af9; stroke:none; fill-opacity:1" cx="1555.15" cy="877.454" r="14"/>
<circle clip-path="url(#clip9502)" style="fill:#000000; stroke:none; fill-opacity:1" cx="1564.91" cy="884.801" r="18"/>
<circle clip-path="url(#clip9502)" style="fill:#009af9; stroke:none; fill-opacity:1" cx="1564.91" cy="884.801" r="14"/>
<circle clip-path="url(#clip9502)" style="fill:#000000; stroke:none; fill-opacity:1" cx="1574.41" cy="880.326" r="18"/>
<circle clip-path="url(#clip9502)" style="fill:#009af9; stroke:none; fill-opacity:1" cx="1574.41" cy="880.326" r="14"/>
<circle clip-path="url(#clip9502)" style="fill:#000000; stroke:none; fill-opacity:1" cx="1583.66" cy="885.311" r="18"/>
<circle clip-path="url(#clip9502)" style="fill:#009af9; stroke:none; fill-opacity:1" cx="1583.66" cy="885.311" r="14"/>
<circle clip-path="url(#clip9502)" style="fill:#000000; stroke:none; fill-opacity:1" cx="1592.66" cy="904.486" r="18"/>
<circle clip-path="url(#clip9502)" style="fill:#009af9; stroke:none; fill-opacity:1" cx="1592.66" cy="904.486" r="14"/>
<circle clip-path="url(#clip9502)" style="fill:#000000; stroke:none; fill-opacity:1" cx="1601.44" cy="911.603" r="18"/>
<circle clip-path="url(#clip9502)" style="fill:#009af9; stroke:none; fill-opacity:1" cx="1601.44" cy="911.603" r="14"/>
<circle clip-path="url(#clip9502)" style="fill:#000000; stroke:none; fill-opacity:1" cx="1610" cy="910.269" r="18"/>
<circle clip-path="url(#clip9502)" style="fill:#009af9; stroke:none; fill-opacity:1" cx="1610" cy="910.269" r="14"/>
<circle clip-path="url(#clip9502)" style="fill:#000000; stroke:none; fill-opacity:1" cx="1618.36" cy="921.492" r="18"/>
<circle clip-path="url(#clip9502)" style="fill:#009af9; stroke:none; fill-opacity:1" cx="1618.36" cy="921.492" r="14"/>
<circle clip-path="url(#clip9502)" style="fill:#000000; stroke:none; fill-opacity:1" cx="1626.51" cy="928.428" r="18"/>
<circle clip-path="url(#clip9502)" style="fill:#009af9; stroke:none; fill-opacity:1" cx="1626.51" cy="928.428" r="14"/>
<circle clip-path="url(#clip9502)" style="fill:#000000; stroke:none; fill-opacity:1" cx="1634.48" cy="938.526" r="18"/>
<circle clip-path="url(#clip9502)" style="fill:#009af9; stroke:none; fill-opacity:1" cx="1634.48" cy="938.526" r="14"/>
<circle clip-path="url(#clip9502)" style="fill:#000000; stroke:none; fill-opacity:1" cx="1642.28" cy="969.649" r="18"/>
<circle clip-path="url(#clip9502)" style="fill:#009af9; stroke:none; fill-opacity:1" cx="1642.28" cy="969.649" r="14"/>
<circle clip-path="url(#clip9502)" style="fill:#000000; stroke:none; fill-opacity:1" cx="1649.9" cy="953.875" r="18"/>
<circle clip-path="url(#clip9502)" style="fill:#009af9; stroke:none; fill-opacity:1" cx="1649.9" cy="953.875" r="14"/>
<circle clip-path="url(#clip9502)" style="fill:#000000; stroke:none; fill-opacity:1" cx="1657.35" cy="981.344" r="18"/>
<circle clip-path="url(#clip9502)" style="fill:#009af9; stroke:none; fill-opacity:1" cx="1657.35" cy="981.344" r="14"/>
<circle clip-path="url(#clip9502)" style="fill:#000000; stroke:none; fill-opacity:1" cx="1664.65" cy="978.62" r="18"/>
<circle clip-path="url(#clip9502)" style="fill:#009af9; stroke:none; fill-opacity:1" cx="1664.65" cy="978.62" r="14"/>
<circle clip-path="url(#clip9502)" style="fill:#000000; stroke:none; fill-opacity:1" cx="1671.8" cy="979.972" r="18"/>
<circle clip-path="url(#clip9502)" style="fill:#009af9; stroke:none; fill-opacity:1" cx="1671.8" cy="979.972" r="14"/>
<circle clip-path="url(#clip9502)" style="fill:#000000; stroke:none; fill-opacity:1" cx="1678.8" cy="975.971" r="18"/>
<circle clip-path="url(#clip9502)" style="fill:#009af9; stroke:none; fill-opacity:1" cx="1678.8" cy="975.971" r="14"/>
<circle clip-path="url(#clip9502)" style="fill:#000000; stroke:none; fill-opacity:1" cx="1685.67" cy="987.033" r="18"/>
<circle clip-path="url(#clip9502)" style="fill:#009af9; stroke:none; fill-opacity:1" cx="1685.67" cy="987.033" r="14"/>
<circle clip-path="url(#clip9502)" style="fill:#000000; stroke:none; fill-opacity:1" cx="1692.4" cy="985.579" r="18"/>
<circle clip-path="url(#clip9502)" style="fill:#009af9; stroke:none; fill-opacity:1" cx="1692.4" cy="985.579" r="14"/>
<circle clip-path="url(#clip9502)" style="fill:#000000; stroke:none; fill-opacity:1" cx="1699.01" cy="1017.82" r="18"/>
<circle clip-path="url(#clip9502)" style="fill:#009af9; stroke:none; fill-opacity:1" cx="1699.01" cy="1017.82" r="14"/>
<circle clip-path="url(#clip9502)" style="fill:#000000; stroke:none; fill-opacity:1" cx="1705.49" cy="1013.88" r="18"/>
<circle clip-path="url(#clip9502)" style="fill:#009af9; stroke:none; fill-opacity:1" cx="1705.49" cy="1013.88" r="14"/>
<circle clip-path="url(#clip9502)" style="fill:#000000; stroke:none; fill-opacity:1" cx="1711.85" cy="1030.73" r="18"/>
<circle clip-path="url(#clip9502)" style="fill:#009af9; stroke:none; fill-opacity:1" cx="1711.85" cy="1030.73" r="14"/>
<circle clip-path="url(#clip9502)" style="fill:#000000; stroke:none; fill-opacity:1" cx="1718.09" cy="1035.45" r="18"/>
<circle clip-path="url(#clip9502)" style="fill:#009af9; stroke:none; fill-opacity:1" cx="1718.09" cy="1035.45" r="14"/>
<circle clip-path="url(#clip9502)" style="fill:#000000; stroke:none; fill-opacity:1" cx="1724.23" cy="1040.41" r="18"/>
<circle clip-path="url(#clip9502)" style="fill:#009af9; stroke:none; fill-opacity:1" cx="1724.23" cy="1040.41" r="14"/>
<circle clip-path="url(#clip9502)" style="fill:#000000; stroke:none; fill-opacity:1" cx="1730.26" cy="1054.05" r="18"/>
<circle clip-path="url(#clip9502)" style="fill:#009af9; stroke:none; fill-opacity:1" cx="1730.26" cy="1054.05" r="14"/>
<circle clip-path="url(#clip9502)" style="fill:#000000; stroke:none; fill-opacity:1" cx="1736.19" cy="1048.36" r="18"/>
<circle clip-path="url(#clip9502)" style="fill:#009af9; stroke:none; fill-opacity:1" cx="1736.19" cy="1048.36" r="14"/>
<circle clip-path="url(#clip9502)" style="fill:#000000; stroke:none; fill-opacity:1" cx="1742.01" cy="1033.06" r="18"/>
<circle clip-path="url(#clip9502)" style="fill:#009af9; stroke:none; fill-opacity:1" cx="1742.01" cy="1033.06" r="14"/>
<circle clip-path="url(#clip9502)" style="fill:#000000; stroke:none; fill-opacity:1" cx="1747.74" cy="1080.89" r="18"/>
<circle clip-path="url(#clip9502)" style="fill:#009af9; stroke:none; fill-opacity:1" cx="1747.74" cy="1080.89" r="14"/>
<circle clip-path="url(#clip9502)" style="fill:#000000; stroke:none; fill-opacity:1" cx="1753.38" cy="1080.89" r="18"/>
<circle clip-path="url(#clip9502)" style="fill:#009af9; stroke:none; fill-opacity:1" cx="1753.38" cy="1080.89" r="14"/>
<circle clip-path="url(#clip9502)" style="fill:#000000; stroke:none; fill-opacity:1" cx="1758.93" cy="1063.26" r="18"/>
<circle clip-path="url(#clip9502)" style="fill:#009af9; stroke:none; fill-opacity:1" cx="1758.93" cy="1063.26" r="14"/>
<circle clip-path="url(#clip9502)" style="fill:#000000; stroke:none; fill-opacity:1" cx="1764.39" cy="1077.1" r="18"/>
<circle clip-path="url(#clip9502)" style="fill:#009af9; stroke:none; fill-opacity:1" cx="1764.39" cy="1077.1" r="14"/>
<circle clip-path="url(#clip9502)" style="fill:#000000; stroke:none; fill-opacity:1" cx="1769.76" cy="1063.26" r="18"/>
<circle clip-path="url(#clip9502)" style="fill:#009af9; stroke:none; fill-opacity:1" cx="1769.76" cy="1063.26" r="14"/>
<circle clip-path="url(#clip9502)" style="fill:#000000; stroke:none; fill-opacity:1" cx="1775.06" cy="1063.26" r="18"/>
<circle clip-path="url(#clip9502)" style="fill:#009af9; stroke:none; fill-opacity:1" cx="1775.06" cy="1063.26" r="14"/>
<circle clip-path="url(#clip9502)" style="fill:#000000; stroke:none; fill-opacity:1" cx="1780.27" cy="1107.43" r="18"/>
<circle clip-path="url(#clip9502)" style="fill:#009af9; stroke:none; fill-opacity:1" cx="1780.27" cy="1107.43" r="14"/>
<circle clip-path="url(#clip9502)" style="fill:#000000; stroke:none; fill-opacity:1" cx="1785.41" cy="1107.43" r="18"/>
<circle clip-path="url(#clip9502)" style="fill:#009af9; stroke:none; fill-opacity:1" cx="1785.41" cy="1107.43" r="14"/>
<circle clip-path="url(#clip9502)" style="fill:#000000; stroke:none; fill-opacity:1" cx="1790.47" cy="1118.18" r="18"/>
<circle clip-path="url(#clip9502)" style="fill:#009af9; stroke:none; fill-opacity:1" cx="1790.47" cy="1118.18" r="14"/>
<circle clip-path="url(#clip9502)" style="fill:#000000; stroke:none; fill-opacity:1" cx="1795.46" cy="1130.28" r="18"/>
<circle clip-path="url(#clip9502)" style="fill:#009af9; stroke:none; fill-opacity:1" cx="1795.46" cy="1130.28" r="14"/>
<circle clip-path="url(#clip9502)" style="fill:#000000; stroke:none; fill-opacity:1" cx="1800.37" cy="1118.18" r="18"/>
<circle clip-path="url(#clip9502)" style="fill:#009af9; stroke:none; fill-opacity:1" cx="1800.37" cy="1118.18" r="14"/>
<circle clip-path="url(#clip9502)" style="fill:#000000; stroke:none; fill-opacity:1" cx="1805.22" cy="1124.04" r="18"/>
<circle clip-path="url(#clip9502)" style="fill:#009af9; stroke:none; fill-opacity:1" cx="1805.22" cy="1124.04" r="14"/>
<circle clip-path="url(#clip9502)" style="fill:#000000; stroke:none; fill-opacity:1" cx="1810.01" cy="1093.25" r="18"/>
<circle clip-path="url(#clip9502)" style="fill:#009af9; stroke:none; fill-opacity:1" cx="1810.01" cy="1093.25" r="14"/>
<circle clip-path="url(#clip9502)" style="fill:#000000; stroke:none; fill-opacity:1" cx="1814.72" cy="1107.43" r="18"/>
<circle clip-path="url(#clip9502)" style="fill:#009af9; stroke:none; fill-opacity:1" cx="1814.72" cy="1107.43" r="14"/>
<circle clip-path="url(#clip9502)" style="fill:#000000; stroke:none; fill-opacity:1" cx="1819.38" cy="1097.75" r="18"/>
<circle clip-path="url(#clip9502)" style="fill:#009af9; stroke:none; fill-opacity:1" cx="1819.38" cy="1097.75" r="14"/>
<circle clip-path="url(#clip9502)" style="fill:#000000; stroke:none; fill-opacity:1" cx="1823.97" cy="1160.27" r="18"/>
<circle clip-path="url(#clip9502)" style="fill:#009af9; stroke:none; fill-opacity:1" cx="1823.97" cy="1160.27" r="14"/>
<circle clip-path="url(#clip9502)" style="fill:#000000; stroke:none; fill-opacity:1" cx="1828.5" cy="1151.86" r="18"/>
<circle clip-path="url(#clip9502)" style="fill:#009af9; stroke:none; fill-opacity:1" cx="1828.5" cy="1151.86" r="14"/>
<circle clip-path="url(#clip9502)" style="fill:#000000; stroke:none; fill-opacity:1" cx="1832.97" cy="1191.06" r="18"/>
<circle clip-path="url(#clip9502)" style="fill:#009af9; stroke:none; fill-opacity:1" cx="1832.97" cy="1191.06" r="14"/>
<circle clip-path="url(#clip9502)" style="fill:#000000; stroke:none; fill-opacity:1" cx="1837.39" cy="1151.86" r="18"/>
<circle clip-path="url(#clip9502)" style="fill:#009af9; stroke:none; fill-opacity:1" cx="1837.39" cy="1151.86" r="14"/>
<circle clip-path="url(#clip9502)" style="fill:#000000; stroke:none; fill-opacity:1" cx="1841.75" cy="1160.27" r="18"/>
<circle clip-path="url(#clip9502)" style="fill:#009af9; stroke:none; fill-opacity:1" cx="1841.75" cy="1160.27" r="14"/>
<circle clip-path="url(#clip9502)" style="fill:#000000; stroke:none; fill-opacity:1" cx="1846.06" cy="1203.97" r="18"/>
<circle clip-path="url(#clip9502)" style="fill:#009af9; stroke:none; fill-opacity:1" cx="1846.06" cy="1203.97" r="14"/>
<circle clip-path="url(#clip9502)" style="fill:#000000; stroke:none; fill-opacity:1" cx="1850.31" cy="1136.95" r="18"/>
<circle clip-path="url(#clip9502)" style="fill:#009af9; stroke:none; fill-opacity:1" cx="1850.31" cy="1136.95" r="14"/>
<circle clip-path="url(#clip9502)" style="fill:#000000; stroke:none; fill-opacity:1" cx="1854.51" cy="1218.87" r="18"/>
<circle clip-path="url(#clip9502)" style="fill:#009af9; stroke:none; fill-opacity:1" cx="1854.51" cy="1218.87" r="14"/>
<circle clip-path="url(#clip9502)" style="fill:#000000; stroke:none; fill-opacity:1" cx="1858.67" cy="1179.67" r="18"/>
<circle clip-path="url(#clip9502)" style="fill:#009af9; stroke:none; fill-opacity:1" cx="1858.67" cy="1179.67" r="14"/>
<circle clip-path="url(#clip9502)" style="fill:#000000; stroke:none; fill-opacity:1" cx="1862.77" cy="1191.06" r="18"/>
<circle clip-path="url(#clip9502)" style="fill:#009af9; stroke:none; fill-opacity:1" cx="1862.77" cy="1191.06" r="14"/>
<circle clip-path="url(#clip9502)" style="fill:#000000; stroke:none; fill-opacity:1" cx="1866.82" cy="1160.27" r="18"/>
<circle clip-path="url(#clip9502)" style="fill:#009af9; stroke:none; fill-opacity:1" cx="1866.82" cy="1160.27" r="14"/>
<circle clip-path="url(#clip9502)" style="fill:#000000; stroke:none; fill-opacity:1" cx="1870.83" cy="1203.97" r="18"/>
<circle clip-path="url(#clip9502)" style="fill:#009af9; stroke:none; fill-opacity:1" cx="1870.83" cy="1203.97" r="14"/>
<circle clip-path="url(#clip9502)" style="fill:#000000; stroke:none; fill-opacity:1" cx="1874.79" cy="1203.97" r="18"/>
<circle clip-path="url(#clip9502)" style="fill:#009af9; stroke:none; fill-opacity:1" cx="1874.79" cy="1203.97" r="14"/>
<circle clip-path="url(#clip9502)" style="fill:#000000; stroke:none; fill-opacity:1" cx="1878.71" cy="1144.12" r="18"/>
<circle clip-path="url(#clip9502)" style="fill:#009af9; stroke:none; fill-opacity:1" cx="1878.71" cy="1144.12" r="14"/>
<circle clip-path="url(#clip9502)" style="fill:#000000; stroke:none; fill-opacity:1" cx="1882.59" cy="1236.5" r="18"/>
<circle clip-path="url(#clip9502)" style="fill:#009af9; stroke:none; fill-opacity:1" cx="1882.59" cy="1236.5" r="14"/>
<circle clip-path="url(#clip9502)" style="fill:#000000; stroke:none; fill-opacity:1" cx="1886.42" cy="1218.87" r="18"/>
<circle clip-path="url(#clip9502)" style="fill:#009af9; stroke:none; fill-opacity:1" cx="1886.42" cy="1218.87" r="14"/>
<circle clip-path="url(#clip9502)" style="fill:#000000; stroke:none; fill-opacity:1" cx="1890.21" cy="1160.27" r="18"/>
<circle clip-path="url(#clip9502)" style="fill:#009af9; stroke:none; fill-opacity:1" cx="1890.21" cy="1160.27" r="14"/>
<circle clip-path="url(#clip9502)" style="fill:#000000; stroke:none; fill-opacity:1" cx="1893.95" cy="1218.87" r="18"/>
<circle clip-path="url(#clip9502)" style="fill:#009af9; stroke:none; fill-opacity:1" cx="1893.95" cy="1218.87" r="14"/>
<circle clip-path="url(#clip9502)" style="fill:#000000; stroke:none; fill-opacity:1" cx="1897.66" cy="1218.87" r="18"/>
<circle clip-path="url(#clip9502)" style="fill:#009af9; stroke:none; fill-opacity:1" cx="1897.66" cy="1218.87" r="14"/>
<circle clip-path="url(#clip9502)" style="fill:#000000; stroke:none; fill-opacity:1" cx="1901.33" cy="1236.5" r="18"/>
<circle clip-path="url(#clip9502)" style="fill:#009af9; stroke:none; fill-opacity:1" cx="1901.33" cy="1236.5" r="14"/>
<circle clip-path="url(#clip9502)" style="fill:#000000; stroke:none; fill-opacity:1" cx="1904.96" cy="1218.87" r="18"/>
<circle clip-path="url(#clip9502)" style="fill:#009af9; stroke:none; fill-opacity:1" cx="1904.96" cy="1218.87" r="14"/>
<circle clip-path="url(#clip9502)" style="fill:#000000; stroke:none; fill-opacity:1" cx="1908.55" cy="1236.5" r="18"/>
<circle clip-path="url(#clip9502)" style="fill:#009af9; stroke:none; fill-opacity:1" cx="1908.55" cy="1236.5" r="14"/>
<circle clip-path="url(#clip9502)" style="fill:#000000; stroke:none; fill-opacity:1" cx="1915.63" cy="1285.89" r="18"/>
<circle clip-path="url(#clip9502)" style="fill:#009af9; stroke:none; fill-opacity:1" cx="1915.63" cy="1285.89" r="14"/>
<circle clip-path="url(#clip9502)" style="fill:#000000; stroke:none; fill-opacity:1" cx="1919.11" cy="1236.5" r="18"/>
<circle clip-path="url(#clip9502)" style="fill:#009af9; stroke:none; fill-opacity:1" cx="1919.11" cy="1236.5" r="14"/>
<circle clip-path="url(#clip9502)" style="fill:#000000; stroke:none; fill-opacity:1" cx="1922.56" cy="1258.08" r="18"/>
<circle clip-path="url(#clip9502)" style="fill:#009af9; stroke:none; fill-opacity:1" cx="1922.56" cy="1258.08" r="14"/>
<circle clip-path="url(#clip9502)" style="fill:#000000; stroke:none; fill-opacity:1" cx="1925.98" cy="1325.09" r="18"/>
<circle clip-path="url(#clip9502)" style="fill:#009af9; stroke:none; fill-opacity:1" cx="1925.98" cy="1325.09" r="14"/>
<circle clip-path="url(#clip9502)" style="fill:#000000; stroke:none; fill-opacity:1" cx="1929.36" cy="1236.5" r="18"/>
<circle clip-path="url(#clip9502)" style="fill:#009af9; stroke:none; fill-opacity:1" cx="1929.36" cy="1236.5" r="14"/>
<circle clip-path="url(#clip9502)" style="fill:#000000; stroke:none; fill-opacity:1" cx="1932.71" cy="1285.89" r="18"/>
<circle clip-path="url(#clip9502)" style="fill:#009af9; stroke:none; fill-opacity:1" cx="1932.71" cy="1285.89" r="14"/>
<circle clip-path="url(#clip9502)" style="fill:#000000; stroke:none; fill-opacity:1" cx="1939.32" cy="1392.11" r="18"/>
<circle clip-path="url(#clip9502)" style="fill:#009af9; stroke:none; fill-opacity:1" cx="1939.32" cy="1392.11" r="14"/>
<circle clip-path="url(#clip9502)" style="fill:#000000; stroke:none; fill-opacity:1" cx="1942.57" cy="1325.09" r="18"/>
<circle clip-path="url(#clip9502)" style="fill:#009af9; stroke:none; fill-opacity:1" cx="1942.57" cy="1325.09" r="14"/>
<circle clip-path="url(#clip9502)" style="fill:#000000; stroke:none; fill-opacity:1" cx="1945.8" cy="1258.08" r="18"/>
<circle clip-path="url(#clip9502)" style="fill:#009af9; stroke:none; fill-opacity:1" cx="1945.8" cy="1258.08" r="14"/>
<circle clip-path="url(#clip9502)" style="fill:#000000; stroke:none; fill-opacity:1" cx="1948.99" cy="1258.08" r="18"/>
<circle clip-path="url(#clip9502)" style="fill:#009af9; stroke:none; fill-opacity:1" cx="1948.99" cy="1258.08" r="14"/>
<circle clip-path="url(#clip9502)" style="fill:#000000; stroke:none; fill-opacity:1" cx="1955.29" cy="1236.5" r="18"/>
<circle clip-path="url(#clip9502)" style="fill:#009af9; stroke:none; fill-opacity:1" cx="1955.29" cy="1236.5" r="14"/>
<circle clip-path="url(#clip9502)" style="fill:#000000; stroke:none; fill-opacity:1" cx="1961.49" cy="1392.11" r="18"/>
<circle clip-path="url(#clip9502)" style="fill:#009af9; stroke:none; fill-opacity:1" cx="1961.49" cy="1392.11" r="14"/>
<circle clip-path="url(#clip9502)" style="fill:#000000; stroke:none; fill-opacity:1" cx="1964.54" cy="1392.11" r="18"/>
<circle clip-path="url(#clip9502)" style="fill:#009af9; stroke:none; fill-opacity:1" cx="1964.54" cy="1392.11" r="14"/>
<circle clip-path="url(#clip9502)" style="fill:#000000; stroke:none; fill-opacity:1" cx="1967.57" cy="1258.08" r="18"/>
<circle clip-path="url(#clip9502)" style="fill:#009af9; stroke:none; fill-opacity:1" cx="1967.57" cy="1258.08" r="14"/>
<circle clip-path="url(#clip9502)" style="fill:#000000; stroke:none; fill-opacity:1" cx="1970.57" cy="1392.11" r="18"/>
<circle clip-path="url(#clip9502)" style="fill:#009af9; stroke:none; fill-opacity:1" cx="1970.57" cy="1392.11" r="14"/>
<circle clip-path="url(#clip9502)" style="fill:#000000; stroke:none; fill-opacity:1" cx="1973.55" cy="1325.09" r="18"/>
<circle clip-path="url(#clip9502)" style="fill:#009af9; stroke:none; fill-opacity:1" cx="1973.55" cy="1325.09" r="14"/>
<circle clip-path="url(#clip9502)" style="fill:#000000; stroke:none; fill-opacity:1" cx="1979.42" cy="1285.89" r="18"/>
<circle clip-path="url(#clip9502)" style="fill:#009af9; stroke:none; fill-opacity:1" cx="1979.42" cy="1285.89" r="14"/>
<circle clip-path="url(#clip9502)" style="fill:#000000; stroke:none; fill-opacity:1" cx="1982.32" cy="1392.11" r="18"/>
<circle clip-path="url(#clip9502)" style="fill:#009af9; stroke:none; fill-opacity:1" cx="1982.32" cy="1392.11" r="14"/>
<circle clip-path="url(#clip9502)" style="fill:#000000; stroke:none; fill-opacity:1" cx="1985.2" cy="1236.5" r="18"/>
<circle clip-path="url(#clip9502)" style="fill:#009af9; stroke:none; fill-opacity:1" cx="1985.2" cy="1236.5" r="14"/>
<circle clip-path="url(#clip9502)" style="fill:#000000; stroke:none; fill-opacity:1" cx="1988.05" cy="1325.09" r="18"/>
<circle clip-path="url(#clip9502)" style="fill:#009af9; stroke:none; fill-opacity:1" cx="1988.05" cy="1325.09" r="14"/>
<circle clip-path="url(#clip9502)" style="fill:#000000; stroke:none; fill-opacity:1" cx="1996.48" cy="1325.09" r="18"/>
<circle clip-path="url(#clip9502)" style="fill:#009af9; stroke:none; fill-opacity:1" cx="1996.48" cy="1325.09" r="14"/>
<circle clip-path="url(#clip9502)" style="fill:#000000; stroke:none; fill-opacity:1" cx="1999.24" cy="1325.09" r="18"/>
<circle clip-path="url(#clip9502)" style="fill:#009af9; stroke:none; fill-opacity:1" cx="1999.24" cy="1325.09" r="14"/>
<circle clip-path="url(#clip9502)" style="fill:#000000; stroke:none; fill-opacity:1" cx="2001.98" cy="1392.11" r="18"/>
<circle clip-path="url(#clip9502)" style="fill:#009af9; stroke:none; fill-opacity:1" cx="2001.98" cy="1392.11" r="14"/>
<circle clip-path="url(#clip9502)" style="fill:#000000; stroke:none; fill-opacity:1" cx="2004.7" cy="1392.11" r="18"/>
<circle clip-path="url(#clip9502)" style="fill:#009af9; stroke:none; fill-opacity:1" cx="2004.7" cy="1392.11" r="14"/>
<circle clip-path="url(#clip9502)" style="fill:#000000; stroke:none; fill-opacity:1" cx="2007.4" cy="1325.09" r="18"/>
<circle clip-path="url(#clip9502)" style="fill:#009af9; stroke:none; fill-opacity:1" cx="2007.4" cy="1325.09" r="14"/>
<circle clip-path="url(#clip9502)" style="fill:#000000; stroke:none; fill-opacity:1" cx="2010.07" cy="1392.11" r="18"/>
<circle clip-path="url(#clip9502)" style="fill:#009af9; stroke:none; fill-opacity:1" cx="2010.07" cy="1392.11" r="14"/>
<circle clip-path="url(#clip9502)" style="fill:#000000; stroke:none; fill-opacity:1" cx="2012.73" cy="1325.09" r="18"/>
<circle clip-path="url(#clip9502)" style="fill:#009af9; stroke:none; fill-opacity:1" cx="2012.73" cy="1325.09" r="14"/>
<circle clip-path="url(#clip9502)" style="fill:#000000; stroke:none; fill-opacity:1" cx="2017.98" cy="1392.11" r="18"/>
<circle clip-path="url(#clip9502)" style="fill:#009af9; stroke:none; fill-opacity:1" cx="2017.98" cy="1392.11" r="14"/>
<circle clip-path="url(#clip9502)" style="fill:#000000; stroke:none; fill-opacity:1" cx="2020.58" cy="1285.89" r="18"/>
<circle clip-path="url(#clip9502)" style="fill:#009af9; stroke:none; fill-opacity:1" cx="2020.58" cy="1285.89" r="14"/>
<circle clip-path="url(#clip9502)" style="fill:#000000; stroke:none; fill-opacity:1" cx="2023.16" cy="1392.11" r="18"/>
<circle clip-path="url(#clip9502)" style="fill:#009af9; stroke:none; fill-opacity:1" cx="2023.16" cy="1392.11" r="14"/>
<circle clip-path="url(#clip9502)" style="fill:#000000; stroke:none; fill-opacity:1" cx="2025.72" cy="1392.11" r="18"/>
<circle clip-path="url(#clip9502)" style="fill:#009af9; stroke:none; fill-opacity:1" cx="2025.72" cy="1392.11" r="14"/>
<circle clip-path="url(#clip9502)" style="fill:#000000; stroke:none; fill-opacity:1" cx="2035.77" cy="1392.11" r="18"/>
<circle clip-path="url(#clip9502)" style="fill:#009af9; stroke:none; fill-opacity:1" cx="2035.77" cy="1392.11" r="14"/>
<circle clip-path="url(#clip9502)" style="fill:#000000; stroke:none; fill-opacity:1" cx="2045.53" cy="1325.09" r="18"/>
<circle clip-path="url(#clip9502)" style="fill:#009af9; stroke:none; fill-opacity:1" cx="2045.53" cy="1325.09" r="14"/>
<circle clip-path="url(#clip9502)" style="fill:#000000; stroke:none; fill-opacity:1" cx="2047.93" cy="1392.11" r="18"/>
<circle clip-path="url(#clip9502)" style="fill:#009af9; stroke:none; fill-opacity:1" cx="2047.93" cy="1392.11" r="14"/>
<circle clip-path="url(#clip9502)" style="fill:#000000; stroke:none; fill-opacity:1" cx="2052.68" cy="1392.11" r="18"/>
<circle clip-path="url(#clip9502)" style="fill:#009af9; stroke:none; fill-opacity:1" cx="2052.68" cy="1392.11" r="14"/>
<circle clip-path="url(#clip9502)" style="fill:#000000; stroke:none; fill-opacity:1" cx="2055.03" cy="1325.09" r="18"/>
<circle clip-path="url(#clip9502)" style="fill:#009af9; stroke:none; fill-opacity:1" cx="2055.03" cy="1325.09" r="14"/>
<circle clip-path="url(#clip9502)" style="fill:#000000; stroke:none; fill-opacity:1" cx="2061.99" cy="1392.11" r="18"/>
<circle clip-path="url(#clip9502)" style="fill:#009af9; stroke:none; fill-opacity:1" cx="2061.99" cy="1392.11" r="14"/>
<circle clip-path="url(#clip9502)" style="fill:#000000; stroke:none; fill-opacity:1" cx="2066.55" cy="1325.09" r="18"/>
<circle clip-path="url(#clip9502)" style="fill:#009af9; stroke:none; fill-opacity:1" cx="2066.55" cy="1325.09" r="14"/>
<circle clip-path="url(#clip9502)" style="fill:#000000; stroke:none; fill-opacity:1" cx="2068.81" cy="1392.11" r="18"/>
<circle clip-path="url(#clip9502)" style="fill:#009af9; stroke:none; fill-opacity:1" cx="2068.81" cy="1392.11" r="14"/>
<circle clip-path="url(#clip9502)" style="fill:#000000; stroke:none; fill-opacity:1" cx="2071.05" cy="1392.11" r="18"/>
<circle clip-path="url(#clip9502)" style="fill:#009af9; stroke:none; fill-opacity:1" cx="2071.05" cy="1392.11" r="14"/>
<circle clip-path="url(#clip9502)" style="fill:#000000; stroke:none; fill-opacity:1" cx="2073.28" cy="1325.09" r="18"/>
<circle clip-path="url(#clip9502)" style="fill:#009af9; stroke:none; fill-opacity:1" cx="2073.28" cy="1325.09" r="14"/>
<circle clip-path="url(#clip9502)" style="fill:#000000; stroke:none; fill-opacity:1" cx="2075.5" cy="1392.11" r="18"/>
<circle clip-path="url(#clip9502)" style="fill:#009af9; stroke:none; fill-opacity:1" cx="2075.5" cy="1392.11" r="14"/>
<circle clip-path="url(#clip9502)" style="fill:#000000; stroke:none; fill-opacity:1" cx="2079.89" cy="1392.11" r="18"/>
<circle clip-path="url(#clip9502)" style="fill:#009af9; stroke:none; fill-opacity:1" cx="2079.89" cy="1392.11" r="14"/>
<circle clip-path="url(#clip9502)" style="fill:#000000; stroke:none; fill-opacity:1" cx="2086.37" cy="1392.11" r="18"/>
<circle clip-path="url(#clip9502)" style="fill:#009af9; stroke:none; fill-opacity:1" cx="2086.37" cy="1392.11" r="14"/>
<circle clip-path="url(#clip9502)" style="fill:#000000; stroke:none; fill-opacity:1" cx="2088.5" cy="1392.11" r="18"/>
<circle clip-path="url(#clip9502)" style="fill:#009af9; stroke:none; fill-opacity:1" cx="2088.5" cy="1392.11" r="14"/>
<circle clip-path="url(#clip9502)" style="fill:#000000; stroke:none; fill-opacity:1" cx="2090.62" cy="1392.11" r="18"/>
<circle clip-path="url(#clip9502)" style="fill:#009af9; stroke:none; fill-opacity:1" cx="2090.62" cy="1392.11" r="14"/>
<circle clip-path="url(#clip9502)" style="fill:#000000; stroke:none; fill-opacity:1" cx="2094.82" cy="1392.11" r="18"/>
<circle clip-path="url(#clip9502)" style="fill:#009af9; stroke:none; fill-opacity:1" cx="2094.82" cy="1392.11" r="14"/>
<circle clip-path="url(#clip9502)" style="fill:#000000; stroke:none; fill-opacity:1" cx="2096.91" cy="1392.11" r="18"/>
<circle clip-path="url(#clip9502)" style="fill:#009af9; stroke:none; fill-opacity:1" cx="2096.91" cy="1392.11" r="14"/>
<circle clip-path="url(#clip9502)" style="fill:#000000; stroke:none; fill-opacity:1" cx="2103.08" cy="1392.11" r="18"/>
<circle clip-path="url(#clip9502)" style="fill:#009af9; stroke:none; fill-opacity:1" cx="2103.08" cy="1392.11" r="14"/>
<circle clip-path="url(#clip9502)" style="fill:#000000; stroke:none; fill-opacity:1" cx="2107.13" cy="1392.11" r="18"/>
<circle clip-path="url(#clip9502)" style="fill:#009af9; stroke:none; fill-opacity:1" cx="2107.13" cy="1392.11" r="14"/>
<circle clip-path="url(#clip9502)" style="fill:#000000; stroke:none; fill-opacity:1" cx="2109.14" cy="1325.09" r="18"/>
<circle clip-path="url(#clip9502)" style="fill:#009af9; stroke:none; fill-opacity:1" cx="2109.14" cy="1325.09" r="14"/>
<circle clip-path="url(#clip9502)" style="fill:#000000; stroke:none; fill-opacity:1" cx="2130.52" cy="1392.11" r="18"/>
<circle clip-path="url(#clip9502)" style="fill:#009af9; stroke:none; fill-opacity:1" cx="2130.52" cy="1392.11" r="14"/>
<circle clip-path="url(#clip9502)" style="fill:#000000; stroke:none; fill-opacity:1" cx="2132.39" cy="1392.11" r="18"/>
<circle clip-path="url(#clip9502)" style="fill:#009af9; stroke:none; fill-opacity:1" cx="2132.39" cy="1392.11" r="14"/>
<circle clip-path="url(#clip9502)" style="fill:#000000; stroke:none; fill-opacity:1" cx="2154.18" cy="1392.11" r="18"/>
<circle clip-path="url(#clip9502)" style="fill:#009af9; stroke:none; fill-opacity:1" cx="2154.18" cy="1392.11" r="14"/>
<circle clip-path="url(#clip9502)" style="fill:#000000; stroke:none; fill-opacity:1" cx="2174.68" cy="1392.11" r="18"/>
<circle clip-path="url(#clip9502)" style="fill:#009af9; stroke:none; fill-opacity:1" cx="2174.68" cy="1392.11" r="14"/>
<circle clip-path="url(#clip9502)" style="fill:#000000; stroke:none; fill-opacity:1" cx="2187.71" cy="1392.11" r="18"/>
<circle clip-path="url(#clip9502)" style="fill:#009af9; stroke:none; fill-opacity:1" cx="2187.71" cy="1392.11" r="14"/>
<circle clip-path="url(#clip9502)" style="fill:#000000; stroke:none; fill-opacity:1" cx="2194.04" cy="1392.11" r="18"/>
<circle clip-path="url(#clip9502)" style="fill:#009af9; stroke:none; fill-opacity:1" cx="2194.04" cy="1392.11" r="14"/>
<circle clip-path="url(#clip9502)" style="fill:#000000; stroke:none; fill-opacity:1" cx="2224.08" cy="1392.11" r="18"/>
<circle clip-path="url(#clip9502)" style="fill:#009af9; stroke:none; fill-opacity:1" cx="2224.08" cy="1392.11" r="14"/>
<circle clip-path="url(#clip9502)" style="fill:#000000; stroke:none; fill-opacity:1" cx="2232.6" cy="1392.11" r="18"/>
<circle clip-path="url(#clip9502)" style="fill:#009af9; stroke:none; fill-opacity:1" cx="2232.6" cy="1392.11" r="14"/>
<polyline clip-path="url(#clip9502)" style="stroke:#e26f46; stroke-width:4; stroke-opacity:1; fill:none" points="
  322.528,-137.295 341.822,-120.818 361.115,-104.342 380.409,-87.8661 399.703,-71.3899 418.996,-54.9136 438.29,-38.4374 457.584,-21.9612 476.877,-5.48499 496.171,10.9912 
  515.465,27.4674 534.758,43.9437 554.052,60.4199 573.346,76.8961 592.639,93.3723 611.933,109.849 631.227,126.325 650.52,142.801 669.814,159.277 689.108,175.753 
  708.401,192.23 727.695,208.706 746.989,225.182 766.282,241.658 785.576,258.134 804.87,274.611 824.163,291.087 843.457,307.563 862.751,324.039 882.044,340.516 
  901.338,356.992 920.632,373.468 939.925,389.944 959.219,406.42 978.513,422.897 997.806,439.373 1017.1,455.849 1036.39,472.325 1055.69,488.801 1074.98,505.278 
  1094.27,521.754 1113.57,538.23 1132.86,554.706 1152.16,571.183 1171.45,587.659 1190.74,604.135 1210.04,620.611 1229.33,637.087 1248.62,653.564 1267.92,670.04 
  1287.21,686.516 1306.5,702.992 1325.8,719.468 1345.09,735.945 1364.39,752.421 1383.68,768.897 1402.97,785.373 1422.27,801.85 1441.56,818.326 1460.85,834.802 
  1480.15,851.278 1499.44,867.754 1518.74,884.231 1538.03,900.707 1557.32,917.183 1576.62,933.659 1595.91,950.135 1615.2,966.612 1634.5,983.088 1653.79,999.564 
  1673.08,1016.04 1692.38,1032.52 1711.67,1048.99 1730.97,1065.47 1750.26,1081.95 1769.55,1098.42 1788.85,1114.9 1808.14,1131.37 1827.43,1147.85 1846.73,1164.33 
  1866.02,1180.8 1885.31,1197.28 1904.61,1213.75 1923.9,1230.23 1943.2,1246.71 1962.49,1263.18 1981.78,1279.66 2001.08,1296.14 2020.37,1312.61 2039.66,1329.09 
  2058.96,1345.56 2078.25,1362.04 2097.55,1378.52 2116.84,1394.99 2136.13,1411.47 2155.43,1427.95 2174.72,1444.42 2194.01,1460.9 2213.31,1477.37 2232.6,1493.85 
  
  "/>
<g clip-path="url(#clip9500)">
<text style="fill:#000000; fill-opacity:1; font-family:Arial,Helvetica Neue,Helvetica,sans-serif; font-size:59px; text-anchor:start;" transform="rotate(0, 322.528, 1346.59)" x="322.528" y="1346.59">r = -0.98</text>
</g>
</svg>
