<?xml version="1.0" encoding="utf-8"?>
<svg xmlns="http://www.w3.org/2000/svg" xmlns:xlink="http://www.w3.org/1999/xlink" width="600" height="400" viewBox="0 0 2400 1600">
<defs>
  <clipPath id="clip0800">
    <rect x="0" y="0" width="2400" height="1600"/>
  </clipPath>
</defs>
<polygon clip-path="url(#clip0800)" points="
0,1600 2400,1600 2400,0 0,0 
  " fill="#ffffff" fill-rule="evenodd" fill-opacity="1"/>
<defs>
  <clipPath id="clip0801">
    <rect x="480" y="0" width="1681" height="1600"/>
  </clipPath>
</defs>
<polygon clip-path="url(#clip0800)" points="
202.373,1425.62 2352.76,1425.62 2352.76,109.1 202.373,109.1 
  " fill="#ffffff" fill-rule="evenodd" fill-opacity="1"/>
<defs>
  <clipPath id="clip0802">
    <rect x="202" y="109" width="2151" height="1318"/>
  </clipPath>
</defs>
<polyline clip-path="url(#clip0802)" style="stroke:#000000; stroke-width:2; stroke-opacity:0.1; fill:none" points="
  202.373,1425.62 202.373,109.1 
  "/>
<polyline clip-path="url(#clip0802)" style="stroke:#000000; stroke-width:2; stroke-opacity:0.1; fill:none" points="
  618.314,1425.62 618.314,109.1 
  "/>
<polyline clip-path="url(#clip0802)" style="stroke:#000000; stroke-width:2; stroke-opacity:0.1; fill:none" points="
  1034.25,1425.62 1034.25,109.1 
  "/>
<polyline clip-path="url(#clip0802)" style="stroke:#000000; stroke-width:2; stroke-opacity:0.1; fill:none" points="
  1450.2,1425.62 1450.2,109.1 
  "/>
<polyline clip-path="url(#clip0802)" style="stroke:#000000; stroke-width:2; stroke-opacity:0.1; fill:none" points="
  1866.14,1425.62 1866.14,109.1 
  "/>
<polyline clip-path="url(#clip0802)" style="stroke:#000000; stroke-width:2; stroke-opacity:0.1; fill:none" points="
  2282.08,1425.62 2282.08,109.1 
  "/>
<polyline clip-path="url(#clip0802)" style="stroke:#000000; stroke-width:2; stroke-opacity:0.1; fill:none" points="
  202.373,1375.5 2352.76,1375.5 
  "/>
<polyline clip-path="url(#clip0802)" style="stroke:#000000; stroke-width:2; stroke-opacity:0.1; fill:none" points="
  202.373,1175.02 2352.76,1175.02 
  "/>
<polyline clip-path="url(#clip0802)" style="stroke:#000000; stroke-width:2; stroke-opacity:0.1; fill:none" points="
  202.373,974.543 2352.76,974.543 
  "/>
<polyline clip-path="url(#clip0802)" style="stroke:#000000; stroke-width:2; stroke-opacity:0.1; fill:none" points="
  202.373,774.065 2352.76,774.065 
  "/>
<polyline clip-path="url(#clip0802)" style="stroke:#000000; stroke-width:2; stroke-opacity:0.1; fill:none" points="
  202.373,573.586 2352.76,573.586 
  "/>
<polyline clip-path="url(#clip0802)" style="stroke:#000000; stroke-width:2; stroke-opacity:0.1; fill:none" points="
  202.373,373.108 2352.76,373.108 
  "/>
<polyline clip-path="url(#clip0802)" style="stroke:#000000; stroke-width:2; stroke-opacity:0.1; fill:none" points="
  202.373,172.63 2352.76,172.63 
  "/>
<polyline clip-path="url(#clip0800)" style="stroke:#000000; stroke-width:4; stroke-opacity:1; fill:none" points="
  202.373,1425.62 2352.76,1425.62 
  "/>
<polyline clip-path="url(#clip0800)" style="stroke:#000000; stroke-width:4; stroke-opacity:1; fill:none" points="
  202.373,1425.62 202.373,109.1 
  "/>
<polyline clip-path="url(#clip0800)" style="stroke:#000000; stroke-width:4; stroke-opacity:1; fill:none" points="
  202.373,1425.62 202.373,1405.87 
  "/>
<polyline clip-path="url(#clip0800)" style="stroke:#000000; stroke-width:4; stroke-opacity:1; fill:none" points="
  618.314,1425.62 618.314,1405.87 
  "/>
<polyline clip-path="url(#clip0800)" style="stroke:#000000; stroke-width:4; stroke-opacity:1; fill:none" points="
  1034.25,1425.62 1034.25,1405.87 
  "/>
<polyline clip-path="url(#clip0800)" style="stroke:#000000; stroke-width:4; stroke-opacity:1; fill:none" points="
  1450.2,1425.62 1450.2,1405.87 
  "/>
<polyline clip-path="url(#clip0800)" style="stroke:#000000; stroke-width:4; stroke-opacity:1; fill:none" points="
  1866.14,1425.62 1866.14,1405.87 
  "/>
<polyline clip-path="url(#clip0800)" style="stroke:#000000; stroke-width:4; stroke-opacity:1; fill:none" points="
  2282.08,1425.62 2282.08,1405.87 
  "/>
<polyline clip-path="url(#clip0800)" style="stroke:#000000; stroke-width:4; stroke-opacity:1; fill:none" points="
  202.373,1375.5 234.629,1375.5 
  "/>
<polyline clip-path="url(#clip0800)" style="stroke:#000000; stroke-width:4; stroke-opacity:1; fill:none" points="
  202.373,1175.02 234.629,1175.02 
  "/>
<polyline clip-path="url(#clip0800)" style="stroke:#000000; stroke-width:4; stroke-opacity:1; fill:none" points="
  202.373,974.543 234.629,974.543 
  "/>
<polyline clip-path="url(#clip0800)" style="stroke:#000000; stroke-width:4; stroke-opacity:1; fill:none" points="
  202.373,774.065 234.629,774.065 
  "/>
<polyline clip-path="url(#clip0800)" style="stroke:#000000; stroke-width:4; stroke-opacity:1; fill:none" points="
  202.373,573.586 234.629,573.586 
  "/>
<polyline clip-path="url(#clip0800)" style="stroke:#000000; stroke-width:4; stroke-opacity:1; fill:none" points="
  202.373,373.108 234.629,373.108 
  "/>
<polyline clip-path="url(#clip0800)" style="stroke:#000000; stroke-width:4; stroke-opacity:1; fill:none" points="
  202.373,172.63 234.629,172.63 
  "/>
<g clip-path="url(#clip0800)">
<text style="fill:#000000; fill-opacity:1; font-family:Arial,Helvetica Neue,Helvetica,sans-serif; font-size:48px; text-anchor:middle;" transform="rotate(0, 202.373, 1479.62)" x="202.373" y="1479.62">-0.5</text>
</g>
<g clip-path="url(#clip0800)">
<text style="fill:#000000; fill-opacity:1; font-family:Arial,Helvetica Neue,Helvetica,sans-serif; font-size:48px; text-anchor:middle;" transform="rotate(0, 618.314, 1479.62)" x="618.314" y="1479.62">0.0</text>
</g>
<g clip-path="url(#clip0800)">
<text style="fill:#000000; fill-opacity:1; font-family:Arial,Helvetica Neue,Helvetica,sans-serif; font-size:48px; text-anchor:middle;" transform="rotate(0, 1034.25, 1479.62)" x="1034.25" y="1479.62">0.5</text>
</g>
<g clip-path="url(#clip0800)">
<text style="fill:#000000; fill-opacity:1; font-family:Arial,Helvetica Neue,Helvetica,sans-serif; font-size:48px; text-anchor:middle;" transform="rotate(0, 1450.2, 1479.62)" x="1450.2" y="1479.62">1.0</text>
</g>
<g clip-path="url(#clip0800)">
<text style="fill:#000000; fill-opacity:1; font-family:Arial,Helvetica Neue,Helvetica,sans-serif; font-size:48px; text-anchor:middle;" transform="rotate(0, 1866.14, 1479.62)" x="1866.14" y="1479.62">1.5</text>
</g>
<g clip-path="url(#clip0800)">
<text style="fill:#000000; fill-opacity:1; font-family:Arial,Helvetica Neue,Helvetica,sans-serif; font-size:48px; text-anchor:middle;" transform="rotate(0, 2282.08, 1479.62)" x="2282.08" y="1479.62">2.0</text>
</g>
<g clip-path="url(#clip0800)">
<text style="fill:#000000; fill-opacity:1; font-family:Arial,Helvetica Neue,Helvetica,sans-serif; font-size:48px; text-anchor:end;" transform="rotate(0, 178.373, 1393)" x="178.373" y="1393">0</text>
</g>
<g clip-path="url(#clip0800)">
<text style="fill:#000000; fill-opacity:1; font-family:Arial,Helvetica Neue,Helvetica,sans-serif; font-size:48px; text-anchor:end;" transform="rotate(0, 178.373, 1192.52)" x="178.373" y="1192.52">2</text>
</g>
<g clip-path="url(#clip0800)">
<text style="fill:#000000; fill-opacity:1; font-family:Arial,Helvetica Neue,Helvetica,sans-serif; font-size:48px; text-anchor:end;" transform="rotate(0, 178.373, 992.043)" x="178.373" y="992.043">4</text>
</g>
<g clip-path="url(#clip0800)">
<text style="fill:#000000; fill-opacity:1; font-family:Arial,Helvetica Neue,Helvetica,sans-serif; font-size:48px; text-anchor:end;" transform="rotate(0, 178.373, 791.565)" x="178.373" y="791.565">6</text>
</g>
<g clip-path="url(#clip0800)">
<text style="fill:#000000; fill-opacity:1; font-family:Arial,Helvetica Neue,Helvetica,sans-serif; font-size:48px; text-anchor:end;" transform="rotate(0, 178.373, 591.086)" x="178.373" y="591.086">8</text>
</g>
<g clip-path="url(#clip0800)">
<text style="fill:#000000; fill-opacity:1; font-family:Arial,Helvetica Neue,Helvetica,sans-serif; font-size:48px; text-anchor:end;" transform="rotate(0, 178.373, 390.608)" x="178.373" y="390.608">10</text>
</g>
<g clip-path="url(#clip0800)">
<text style="fill:#000000; fill-opacity:1; font-family:Arial,Helvetica Neue,Helvetica,sans-serif; font-size:48px; text-anchor:end;" transform="rotate(0, 178.373, 190.13)" x="178.373" y="190.13">12</text>
</g>
<g clip-path="url(#clip0800)">
<text style="fill:#000000; fill-opacity:1; font-family:Arial,Helvetica Neue,Helvetica,sans-serif; font-size:66px; text-anchor:middle;" transform="rotate(0, 1277.56, 57.6)" x="1277.56" y="57.6">GCF_000849665.1_ViralProj14593_genomic.fna.K11.jf.histogram</text>
</g>
<g clip-path="url(#clip0800)">
<text style="fill:#000000; fill-opacity:1; font-family:Arial,Helvetica Neue,Helvetica,sans-serif; font-size:66px; text-anchor:middle;" transform="rotate(0, 1277.56, 1559.48)" x="1277.56" y="1559.48">log2(depth of coverage)</text>
</g>
<g clip-path="url(#clip0800)">
<text style="fill:#000000; fill-opacity:1; font-family:Arial,Helvetica Neue,Helvetica,sans-serif; font-size:66px; text-anchor:middle;" transform="rotate(-90, 89.2861, 767.359)" x="89.2861" y="767.359">log2(# kmers)</text>
</g>
<circle clip-path="url(#clip0802)" style="fill:#000000; stroke:none; fill-opacity:1" cx="618.314" cy="159.22" r="18"/>
<circle clip-path="url(#clip0802)" style="fill:#009af9; stroke:none; fill-opacity:1" cx="618.314" cy="159.22" r="14"/>
<circle clip-path="url(#clip0802)" style="fill:#000000; stroke:none; fill-opacity:1" cx="1450.2" cy="893.614" r="18"/>
<circle clip-path="url(#clip0802)" style="fill:#009af9; stroke:none; fill-opacity:1" cx="1450.2" cy="893.614" r="14"/>
<circle clip-path="url(#clip0802)" style="fill:#000000; stroke:none; fill-opacity:1" cx="1936.82" cy="1375.5" r="18"/>
<circle clip-path="url(#clip0802)" style="fill:#009af9; stroke:none; fill-opacity:1" cx="1936.82" cy="1375.5" r="14"/>
<polyline clip-path="url(#clip0802)" style="stroke:#e26f46; stroke-width:4; stroke-opacity:1; fill:none" points="
  618.314,151.283 631.632,163.512 644.95,175.741 658.268,187.97 671.587,200.199 684.905,212.427 698.223,224.656 711.541,236.885 724.859,249.114 738.178,261.342 
  751.496,273.571 764.814,285.8 778.132,298.029 791.45,310.258 804.768,322.486 818.087,334.715 831.405,346.944 844.723,359.173 858.041,371.401 871.359,383.63 
  884.678,395.859 897.996,408.088 911.314,420.316 924.632,432.545 937.95,444.774 951.269,457.003 964.587,469.232 977.905,481.46 991.223,493.689 1004.54,505.918 
  1017.86,518.147 1031.18,530.375 1044.5,542.604 1057.81,554.833 1071.13,567.062 1084.45,579.291 1097.77,591.519 1111.09,603.748 1124.41,615.977 1137.72,628.206 
  1151.04,640.434 1164.36,652.663 1177.68,664.892 1191,677.121 1204.31,689.349 1217.63,701.578 1230.95,713.807 1244.27,726.036 1257.59,738.265 1270.91,750.493 
  1284.22,762.722 1297.54,774.951 1310.86,787.18 1324.18,799.408 1337.5,811.637 1350.81,823.866 1364.13,836.095 1377.45,848.324 1390.77,860.552 1404.09,872.781 
  1417.41,885.01 1430.72,897.239 1444.04,909.467 1457.36,921.696 1470.68,933.925 1484,946.154 1497.31,958.382 1510.63,970.611 1523.95,982.84 1537.27,995.069 
  1550.59,1007.3 1563.91,1019.53 1577.22,1031.76 1590.54,1043.98 1603.86,1056.21 1617.18,1068.44 1630.5,1080.67 1643.81,1092.9 1657.13,1105.13 1670.45,1117.36 
  1683.77,1129.59 1697.09,1141.81 1710.41,1154.04 1723.72,1166.27 1737.04,1178.5 1750.36,1190.73 1763.68,1202.96 1777,1215.19 1790.31,1227.42 1803.63,1239.64 
  1816.95,1251.87 1830.27,1264.1 1843.59,1276.33 1856.91,1288.56 1870.22,1300.79 1883.54,1313.02 1896.86,1325.25 1910.18,1337.47 1923.5,1349.7 1936.82,1361.93 
  
  "/>
<g clip-path="url(#clip0800)">
<text style="fill:#000000; fill-opacity:1; font-family:Arial,Helvetica Neue,Helvetica,sans-serif; font-size:59px; text-anchor:start;" transform="rotate(0, 618.314, 1296.76)" x="618.314" y="1296.76">r = -1.0</text>
</g>
</svg>
