<?xml version="1.0" encoding="utf-8"?>
<svg xmlns="http://www.w3.org/2000/svg" xmlns:xlink="http://www.w3.org/1999/xlink" width="600" height="400" viewBox="0 0 2400 1600">
<defs>
  <clipPath id="clip5600">
    <rect x="0" y="0" width="2400" height="1600"/>
  </clipPath>
</defs>
<polygon clip-path="url(#clip5600)" points="
0,1600 2400,1600 2400,0 0,0 
  " fill="#ffffff" fill-rule="evenodd" fill-opacity="1"/>
<defs>
  <clipPath id="clip5601">
    <rect x="480" y="0" width="1681" height="1600"/>
  </clipPath>
</defs>
<polygon clip-path="url(#clip5600)" points="
184.243,1440.48 2321.26,1440.48 2321.26,125.984 184.243,125.984 
  " fill="#ffffff" fill-rule="evenodd" fill-opacity="1"/>
<defs>
  <clipPath id="clip5602">
    <rect x="184" y="125" width="2138" height="1315"/>
  </clipPath>
</defs>
<polyline clip-path="url(#clip5602)" style="stroke:#000000; stroke-width:2; stroke-opacity:0.1; fill:none" points="
  346.508,1440.48 346.508,125.984 
  "/>
<polyline clip-path="url(#clip5602)" style="stroke:#000000; stroke-width:2; stroke-opacity:0.1; fill:none" points="
  671.037,1440.48 671.037,125.984 
  "/>
<polyline clip-path="url(#clip5602)" style="stroke:#000000; stroke-width:2; stroke-opacity:0.1; fill:none" points="
  995.567,1440.48 995.567,125.984 
  "/>
<polyline clip-path="url(#clip5602)" style="stroke:#000000; stroke-width:2; stroke-opacity:0.1; fill:none" points="
  1320.1,1440.48 1320.1,125.984 
  "/>
<polyline clip-path="url(#clip5602)" style="stroke:#000000; stroke-width:2; stroke-opacity:0.1; fill:none" points="
  1644.63,1440.48 1644.63,125.984 
  "/>
<polyline clip-path="url(#clip5602)" style="stroke:#000000; stroke-width:2; stroke-opacity:0.1; fill:none" points="
  1969.16,1440.48 1969.16,125.984 
  "/>
<polyline clip-path="url(#clip5602)" style="stroke:#000000; stroke-width:2; stroke-opacity:0.1; fill:none" points="
  2293.69,1440.48 2293.69,125.984 
  "/>
<polyline clip-path="url(#clip5602)" style="stroke:#000000; stroke-width:2; stroke-opacity:0.1; fill:none" points="
  184.243,1338.21 2321.26,1338.21 
  "/>
<polyline clip-path="url(#clip5602)" style="stroke:#000000; stroke-width:2; stroke-opacity:0.1; fill:none" points="
  184.243,1133.66 2321.26,1133.66 
  "/>
<polyline clip-path="url(#clip5602)" style="stroke:#000000; stroke-width:2; stroke-opacity:0.1; fill:none" points="
  184.243,929.105 2321.26,929.105 
  "/>
<polyline clip-path="url(#clip5602)" style="stroke:#000000; stroke-width:2; stroke-opacity:0.1; fill:none" points="
  184.243,724.554 2321.26,724.554 
  "/>
<polyline clip-path="url(#clip5602)" style="stroke:#000000; stroke-width:2; stroke-opacity:0.1; fill:none" points="
  184.243,520.003 2321.26,520.003 
  "/>
<polyline clip-path="url(#clip5602)" style="stroke:#000000; stroke-width:2; stroke-opacity:0.1; fill:none" points="
  184.243,315.453 2321.26,315.453 
  "/>
<polyline clip-path="url(#clip5600)" style="stroke:#000000; stroke-width:4; stroke-opacity:1; fill:none" points="
  184.243,1440.48 2321.26,1440.48 
  "/>
<polyline clip-path="url(#clip5600)" style="stroke:#000000; stroke-width:4; stroke-opacity:1; fill:none" points="
  184.243,1440.48 184.243,125.984 
  "/>
<polyline clip-path="url(#clip5600)" style="stroke:#000000; stroke-width:4; stroke-opacity:1; fill:none" points="
  346.508,1440.48 346.508,1420.77 
  "/>
<polyline clip-path="url(#clip5600)" style="stroke:#000000; stroke-width:4; stroke-opacity:1; fill:none" points="
  671.037,1440.48 671.037,1420.77 
  "/>
<polyline clip-path="url(#clip5600)" style="stroke:#000000; stroke-width:4; stroke-opacity:1; fill:none" points="
  995.567,1440.48 995.567,1420.77 
  "/>
<polyline clip-path="url(#clip5600)" style="stroke:#000000; stroke-width:4; stroke-opacity:1; fill:none" points="
  1320.1,1440.48 1320.1,1420.77 
  "/>
<polyline clip-path="url(#clip5600)" style="stroke:#000000; stroke-width:4; stroke-opacity:1; fill:none" points="
  1644.63,1440.48 1644.63,1420.77 
  "/>
<polyline clip-path="url(#clip5600)" style="stroke:#000000; stroke-width:4; stroke-opacity:1; fill:none" points="
  1969.16,1440.48 1969.16,1420.77 
  "/>
<polyline clip-path="url(#clip5600)" style="stroke:#000000; stroke-width:4; stroke-opacity:1; fill:none" points="
  2293.69,1440.48 2293.69,1420.77 
  "/>
<polyline clip-path="url(#clip5600)" style="stroke:#000000; stroke-width:4; stroke-opacity:1; fill:none" points="
  184.243,1338.21 216.298,1338.21 
  "/>
<polyline clip-path="url(#clip5600)" style="stroke:#000000; stroke-width:4; stroke-opacity:1; fill:none" points="
  184.243,1133.66 216.298,1133.66 
  "/>
<polyline clip-path="url(#clip5600)" style="stroke:#000000; stroke-width:4; stroke-opacity:1; fill:none" points="
  184.243,929.105 216.298,929.105 
  "/>
<polyline clip-path="url(#clip5600)" style="stroke:#000000; stroke-width:4; stroke-opacity:1; fill:none" points="
  184.243,724.554 216.298,724.554 
  "/>
<polyline clip-path="url(#clip5600)" style="stroke:#000000; stroke-width:4; stroke-opacity:1; fill:none" points="
  184.243,520.003 216.298,520.003 
  "/>
<polyline clip-path="url(#clip5600)" style="stroke:#000000; stroke-width:4; stroke-opacity:1; fill:none" points="
  184.243,315.453 216.298,315.453 
  "/>
<g clip-path="url(#clip5600)">
<text style="fill:#000000; fill-opacity:1; font-family:Arial,Helvetica Neue,Helvetica,sans-serif; font-size:48px; text-anchor:middle;" transform="rotate(0, 346.508, 1494.48)" x="346.508" y="1494.48">0</text>
</g>
<g clip-path="url(#clip5600)">
<text style="fill:#000000; fill-opacity:1; font-family:Arial,Helvetica Neue,Helvetica,sans-serif; font-size:48px; text-anchor:middle;" transform="rotate(0, 671.037, 1494.48)" x="671.037" y="1494.48">1</text>
</g>
<g clip-path="url(#clip5600)">
<text style="fill:#000000; fill-opacity:1; font-family:Arial,Helvetica Neue,Helvetica,sans-serif; font-size:48px; text-anchor:middle;" transform="rotate(0, 995.567, 1494.48)" x="995.567" y="1494.48">2</text>
</g>
<g clip-path="url(#clip5600)">
<text style="fill:#000000; fill-opacity:1; font-family:Arial,Helvetica Neue,Helvetica,sans-serif; font-size:48px; text-anchor:middle;" transform="rotate(0, 1320.1, 1494.48)" x="1320.1" y="1494.48">3</text>
</g>
<g clip-path="url(#clip5600)">
<text style="fill:#000000; fill-opacity:1; font-family:Arial,Helvetica Neue,Helvetica,sans-serif; font-size:48px; text-anchor:middle;" transform="rotate(0, 1644.63, 1494.48)" x="1644.63" y="1494.48">4</text>
</g>
<g clip-path="url(#clip5600)">
<text style="fill:#000000; fill-opacity:1; font-family:Arial,Helvetica Neue,Helvetica,sans-serif; font-size:48px; text-anchor:middle;" transform="rotate(0, 1969.16, 1494.48)" x="1969.16" y="1494.48">5</text>
</g>
<g clip-path="url(#clip5600)">
<text style="fill:#000000; fill-opacity:1; font-family:Arial,Helvetica Neue,Helvetica,sans-serif; font-size:48px; text-anchor:middle;" transform="rotate(0, 2293.69, 1494.48)" x="2293.69" y="1494.48">6</text>
</g>
<g clip-path="url(#clip5600)">
<text style="fill:#000000; fill-opacity:1; font-family:Arial,Helvetica Neue,Helvetica,sans-serif; font-size:48px; text-anchor:end;" transform="rotate(0, 160.243, 1355.71)" x="160.243" y="1355.71">0</text>
</g>
<g clip-path="url(#clip5600)">
<text style="fill:#000000; fill-opacity:1; font-family:Arial,Helvetica Neue,Helvetica,sans-serif; font-size:48px; text-anchor:end;" transform="rotate(0, 160.243, 1151.16)" x="160.243" y="1151.16">1</text>
</g>
<g clip-path="url(#clip5600)">
<text style="fill:#000000; fill-opacity:1; font-family:Arial,Helvetica Neue,Helvetica,sans-serif; font-size:48px; text-anchor:end;" transform="rotate(0, 160.243, 946.605)" x="160.243" y="946.605">2</text>
</g>
<g clip-path="url(#clip5600)">
<text style="fill:#000000; fill-opacity:1; font-family:Arial,Helvetica Neue,Helvetica,sans-serif; font-size:48px; text-anchor:end;" transform="rotate(0, 160.243, 742.054)" x="160.243" y="742.054">3</text>
</g>
<g clip-path="url(#clip5600)">
<text style="fill:#000000; fill-opacity:1; font-family:Arial,Helvetica Neue,Helvetica,sans-serif; font-size:48px; text-anchor:end;" transform="rotate(0, 160.243, 537.503)" x="160.243" y="537.503">4</text>
</g>
<g clip-path="url(#clip5600)">
<text style="fill:#000000; fill-opacity:1; font-family:Arial,Helvetica Neue,Helvetica,sans-serif; font-size:48px; text-anchor:end;" transform="rotate(0, 160.243, 332.953)" x="160.243" y="332.953">5</text>
</g>
<g clip-path="url(#clip5600)">
<text style="fill:#000000; fill-opacity:1; font-family:Arial,Helvetica Neue,Helvetica,sans-serif; font-size:66px; text-anchor:middle;" transform="rotate(0, 1252.75, 57.6)" x="1252.75" y="57.6">GCF_000849665.1_ViralProj14593_genomic.fna.K5.counts.histogram</text>
</g>
<g clip-path="url(#clip5600)">
<text style="fill:#000000; fill-opacity:1; font-family:Arial,Helvetica Neue,Helvetica,sans-serif; font-size:66px; text-anchor:middle;" transform="rotate(0, 1252.75, 1590.4)" x="1252.75" y="1590.4">log2(depth of coverage)</text>
</g>
<g clip-path="url(#clip5600)">
<text style="fill:#000000; fill-opacity:1; font-family:Arial,Helvetica Neue,Helvetica,sans-serif; font-size:66px; text-anchor:middle;" transform="rotate(-90, 57.6, 783.233)" x="57.6" y="783.233">log2(# kmers)</text>
</g>
<circle clip-path="url(#clip5602)" style="fill:#000000; stroke:none; fill-opacity:1" cx="346.508" cy="502.113" r="18"/>
<circle clip-path="url(#clip5602)" style="fill:#009af9; stroke:none; fill-opacity:1" cx="346.508" cy="502.113" r="14"/>
<circle clip-path="url(#clip5602)" style="fill:#000000; stroke:none; fill-opacity:1" cx="671.037" cy="376.728" r="18"/>
<circle clip-path="url(#clip5602)" style="fill:#009af9; stroke:none; fill-opacity:1" cx="671.037" cy="376.728" r="14"/>
<circle clip-path="url(#clip5602)" style="fill:#000000; stroke:none; fill-opacity:1" cx="860.875" cy="306.372" r="18"/>
<circle clip-path="url(#clip5602)" style="fill:#009af9; stroke:none; fill-opacity:1" cx="860.875" cy="306.372" r="14"/>
<circle clip-path="url(#clip5602)" style="fill:#000000; stroke:none; fill-opacity:1" cx="995.567" cy="228.26" r="18"/>
<circle clip-path="url(#clip5602)" style="fill:#009af9; stroke:none; fill-opacity:1" cx="995.567" cy="228.26" r="14"/>
<circle clip-path="url(#clip5602)" style="fill:#000000; stroke:none; fill-opacity:1" cx="1100.04" cy="257.073" r="18"/>
<circle clip-path="url(#clip5602)" style="fill:#009af9; stroke:none; fill-opacity:1" cx="1100.04" cy="257.073" r="14"/>
<circle clip-path="url(#clip5602)" style="fill:#000000; stroke:none; fill-opacity:1" cx="1185.41" cy="228.26" r="18"/>
<circle clip-path="url(#clip5602)" style="fill:#009af9; stroke:none; fill-opacity:1" cx="1185.41" cy="228.26" r="14"/>
<circle clip-path="url(#clip5602)" style="fill:#000000; stroke:none; fill-opacity:1" cx="1257.58" cy="228.26" r="18"/>
<circle clip-path="url(#clip5602)" style="fill:#009af9; stroke:none; fill-opacity:1" cx="1257.58" cy="228.26" r="14"/>
<circle clip-path="url(#clip5602)" style="fill:#000000; stroke:none; fill-opacity:1" cx="1320.1" cy="228.26" r="18"/>
<circle clip-path="url(#clip5602)" style="fill:#009af9; stroke:none; fill-opacity:1" cx="1320.1" cy="228.26" r="14"/>
<circle clip-path="url(#clip5602)" style="fill:#000000; stroke:none; fill-opacity:1" cx="1375.24" cy="334.498" r="18"/>
<circle clip-path="url(#clip5602)" style="fill:#009af9; stroke:none; fill-opacity:1" cx="1375.24" cy="334.498" r="14"/>
<circle clip-path="url(#clip5602)" style="fill:#000000; stroke:none; fill-opacity:1" cx="1424.57" cy="412.908" r="18"/>
<circle clip-path="url(#clip5602)" style="fill:#009af9; stroke:none; fill-opacity:1" cx="1424.57" cy="412.908" r="14"/>
<circle clip-path="url(#clip5602)" style="fill:#000000; stroke:none; fill-opacity:1" cx="1469.2" cy="365.591" r="18"/>
<circle clip-path="url(#clip5602)" style="fill:#009af9; stroke:none; fill-opacity:1" cx="1469.2" cy="365.591" r="14"/>
<circle clip-path="url(#clip5602)" style="fill:#000000; stroke:none; fill-opacity:1" cx="1509.94" cy="469.29" r="18"/>
<circle clip-path="url(#clip5602)" style="fill:#009af9; stroke:none; fill-opacity:1" cx="1509.94" cy="469.29" r="14"/>
<circle clip-path="url(#clip5602)" style="fill:#000000; stroke:none; fill-opacity:1" cx="1547.41" cy="559.409" r="18"/>
<circle clip-path="url(#clip5602)" style="fill:#009af9; stroke:none; fill-opacity:1" cx="1547.41" cy="559.409" r="14"/>
<circle clip-path="url(#clip5602)" style="fill:#000000; stroke:none; fill-opacity:1" cx="1582.11" cy="502.113" r="18"/>
<circle clip-path="url(#clip5602)" style="fill:#009af9; stroke:none; fill-opacity:1" cx="1582.11" cy="502.113" r="14"/>
<circle clip-path="url(#clip5602)" style="fill:#000000; stroke:none; fill-opacity:1" cx="1614.41" cy="559.409" r="18"/>
<circle clip-path="url(#clip5602)" style="fill:#009af9; stroke:none; fill-opacity:1" cx="1614.41" cy="559.409" r="14"/>
<circle clip-path="url(#clip5602)" style="fill:#000000; stroke:none; fill-opacity:1" cx="1644.63" cy="658.704" r="18"/>
<circle clip-path="url(#clip5602)" style="fill:#009af9; stroke:none; fill-opacity:1" cx="1644.63" cy="658.704" r="14"/>
<circle clip-path="url(#clip5602)" style="fill:#000000; stroke:none; fill-opacity:1" cx="1673.01" cy="581.279" r="18"/>
<circle clip-path="url(#clip5602)" style="fill:#009af9; stroke:none; fill-opacity:1" cx="1673.01" cy="581.279" r="14"/>
<circle clip-path="url(#clip5602)" style="fill:#000000; stroke:none; fill-opacity:1" cx="1699.77" cy="630.577" r="18"/>
<circle clip-path="url(#clip5602)" style="fill:#009af9; stroke:none; fill-opacity:1" cx="1699.77" cy="630.577" r="14"/>
<circle clip-path="url(#clip5602)" style="fill:#000000; stroke:none; fill-opacity:1" cx="1725.09" cy="763.96" r="18"/>
<circle clip-path="url(#clip5602)" style="fill:#009af9; stroke:none; fill-opacity:1" cx="1725.09" cy="763.96" r="14"/>
<circle clip-path="url(#clip5602)" style="fill:#000000; stroke:none; fill-opacity:1" cx="1749.1" cy="763.96" r="18"/>
<circle clip-path="url(#clip5602)" style="fill:#009af9; stroke:none; fill-opacity:1" cx="1749.1" cy="763.96" r="14"/>
<circle clip-path="url(#clip5602)" style="fill:#000000; stroke:none; fill-opacity:1" cx="1771.95" cy="1014" r="18"/>
<circle clip-path="url(#clip5602)" style="fill:#009af9; stroke:none; fill-opacity:1" cx="1771.95" cy="1014" r="14"/>
<circle clip-path="url(#clip5602)" style="fill:#000000; stroke:none; fill-opacity:1" cx="1793.73" cy="1014" r="18"/>
<circle clip-path="url(#clip5602)" style="fill:#009af9; stroke:none; fill-opacity:1" cx="1793.73" cy="1014" r="14"/>
<circle clip-path="url(#clip5602)" style="fill:#000000; stroke:none; fill-opacity:1" cx="1814.54" cy="1133.66" r="18"/>
<circle clip-path="url(#clip5602)" style="fill:#009af9; stroke:none; fill-opacity:1" cx="1814.54" cy="1133.66" r="14"/>
<circle clip-path="url(#clip5602)" style="fill:#000000; stroke:none; fill-opacity:1" cx="1834.47" cy="1338.21" r="18"/>
<circle clip-path="url(#clip5602)" style="fill:#009af9; stroke:none; fill-opacity:1" cx="1834.47" cy="1338.21" r="14"/>
<circle clip-path="url(#clip5602)" style="fill:#000000; stroke:none; fill-opacity:1" cx="1853.58" cy="1014" r="18"/>
<circle clip-path="url(#clip5602)" style="fill:#009af9; stroke:none; fill-opacity:1" cx="1853.58" cy="1014" r="14"/>
<circle clip-path="url(#clip5602)" style="fill:#000000; stroke:none; fill-opacity:1" cx="1871.94" cy="1338.21" r="18"/>
<circle clip-path="url(#clip5602)" style="fill:#009af9; stroke:none; fill-opacity:1" cx="1871.94" cy="1338.21" r="14"/>
<circle clip-path="url(#clip5602)" style="fill:#000000; stroke:none; fill-opacity:1" cx="1889.61" cy="1133.66" r="18"/>
<circle clip-path="url(#clip5602)" style="fill:#009af9; stroke:none; fill-opacity:1" cx="1889.61" cy="1133.66" r="14"/>
<circle clip-path="url(#clip5602)" style="fill:#000000; stroke:none; fill-opacity:1" cx="1906.64" cy="1338.21" r="18"/>
<circle clip-path="url(#clip5602)" style="fill:#009af9; stroke:none; fill-opacity:1" cx="1906.64" cy="1338.21" r="14"/>
<circle clip-path="url(#clip5602)" style="fill:#000000; stroke:none; fill-opacity:1" cx="1938.94" cy="929.105" r="18"/>
<circle clip-path="url(#clip5602)" style="fill:#009af9; stroke:none; fill-opacity:1" cx="1938.94" cy="929.105" r="14"/>
<circle clip-path="url(#clip5602)" style="fill:#000000; stroke:none; fill-opacity:1" cx="1954.29" cy="1338.21" r="18"/>
<circle clip-path="url(#clip5602)" style="fill:#009af9; stroke:none; fill-opacity:1" cx="1954.29" cy="1338.21" r="14"/>
<circle clip-path="url(#clip5602)" style="fill:#000000; stroke:none; fill-opacity:1" cx="1983.56" cy="1338.21" r="18"/>
<circle clip-path="url(#clip5602)" style="fill:#009af9; stroke:none; fill-opacity:1" cx="1983.56" cy="1338.21" r="14"/>
<circle clip-path="url(#clip5602)" style="fill:#000000; stroke:none; fill-opacity:1" cx="2158.99" cy="1338.21" r="18"/>
<circle clip-path="url(#clip5602)" style="fill:#009af9; stroke:none; fill-opacity:1" cx="2158.99" cy="1338.21" r="14"/>
<polyline clip-path="url(#clip5602)" style="stroke:#e26f46; stroke-width:4; stroke-opacity:1; fill:none" points="
  346.508,-175.755 364.816,-162.014 383.124,-148.272 401.431,-134.531 419.739,-120.789 438.047,-107.048 456.355,-93.306 474.663,-79.5645 492.971,-65.8229 511.279,-52.0814 
  529.587,-38.3399 547.895,-24.5984 566.203,-10.8568 584.511,2.88468 602.819,16.6262 621.127,30.3677 639.435,44.1092 657.743,57.8508 676.051,71.5923 694.359,85.3338 
  712.667,99.0753 730.975,112.817 749.283,126.558 767.591,140.3 785.898,154.041 804.206,167.783 822.514,181.524 840.822,195.266 859.13,209.008 877.438,222.749 
  895.746,236.491 914.054,250.232 932.362,263.974 950.67,277.715 968.978,291.457 987.286,305.198 1005.59,318.94 1023.9,332.681 1042.21,346.423 1060.52,360.164 
  1078.83,373.906 1097.13,387.647 1115.44,401.389 1133.75,415.13 1152.06,428.872 1170.37,442.613 1188.67,456.355 1206.98,470.096 1225.29,483.838 1243.6,497.579 
  1261.91,511.321 1280.21,525.063 1298.52,538.804 1316.83,552.546 1335.14,566.287 1353.44,580.029 1371.75,593.77 1390.06,607.512 1408.37,621.253 1426.68,634.995 
  1444.98,648.736 1463.29,662.478 1481.6,676.219 1499.91,689.961 1518.22,703.702 1536.52,717.444 1554.83,731.185 1573.14,744.927 1591.45,758.668 1609.76,772.41 
  1628.06,786.151 1646.37,799.893 1664.68,813.635 1682.99,827.376 1701.3,841.118 1719.6,854.859 1737.91,868.601 1756.22,882.342 1774.53,896.084 1792.84,909.825 
  1811.14,923.567 1829.45,937.308 1847.76,951.05 1866.07,964.791 1884.38,978.533 1902.68,992.274 1920.99,1006.02 1939.3,1019.76 1957.61,1033.5 1975.92,1047.24 
  1994.22,1060.98 2012.53,1074.72 2030.84,1088.46 2049.15,1102.21 2067.46,1115.95 2085.76,1129.69 2104.07,1143.43 2122.38,1157.17 2140.69,1170.91 2158.99,1184.66 
  
  "/>
<g clip-path="url(#clip5600)">
<text style="fill:#000000; fill-opacity:1; font-family:Arial,Helvetica Neue,Helvetica,sans-serif; font-size:59px; text-anchor:start;" transform="rotate(0, 346.508, 1155.16)" x="346.508" y="1155.16">r = -0.77</text>
</g>
</svg>
