<?xml version="1.0" encoding="utf-8"?>
<svg xmlns="http://www.w3.org/2000/svg" xmlns:xlink="http://www.w3.org/1999/xlink" width="600" height="400" viewBox="0 0 2400 1600">
<defs>
  <clipPath id="clip7300">
    <rect x="0" y="0" width="2400" height="1600"/>
  </clipPath>
</defs>
<polygon clip-path="url(#clip7300)" points="
0,1600 2400,1600 2400,0 0,0 
  " fill="#ffffff" fill-rule="evenodd" fill-opacity="1"/>
<defs>
  <clipPath id="clip7301">
    <rect x="480" y="0" width="1681" height="1600"/>
  </clipPath>
</defs>
<polygon clip-path="url(#clip7300)" points="
202.373,1425.62 2352.76,1425.62 2352.76,109.1 202.373,109.1 
  " fill="#ffffff" fill-rule="evenodd" fill-opacity="1"/>
<defs>
  <clipPath id="clip7302">
    <rect x="202" y="109" width="2151" height="1318"/>
  </clipPath>
</defs>
<polyline clip-path="url(#clip7302)" style="stroke:#000000; stroke-width:2; stroke-opacity:0.1; fill:none" points="
  202.373,1425.62 202.373,109.1 
  "/>
<polyline clip-path="url(#clip7302)" style="stroke:#000000; stroke-width:2; stroke-opacity:0.1; fill:none" points="
  739.969,1425.62 739.969,109.1 
  "/>
<polyline clip-path="url(#clip7302)" style="stroke:#000000; stroke-width:2; stroke-opacity:0.1; fill:none" points="
  1277.56,1425.62 1277.56,109.1 
  "/>
<polyline clip-path="url(#clip7302)" style="stroke:#000000; stroke-width:2; stroke-opacity:0.1; fill:none" points="
  1815.16,1425.62 1815.16,109.1 
  "/>
<polyline clip-path="url(#clip7302)" style="stroke:#000000; stroke-width:2; stroke-opacity:0.1; fill:none" points="
  2352.76,1425.62 2352.76,109.1 
  "/>
<polyline clip-path="url(#clip7302)" style="stroke:#000000; stroke-width:2; stroke-opacity:0.1; fill:none" points="
  202.373,1375.55 2352.76,1375.55 
  "/>
<polyline clip-path="url(#clip7302)" style="stroke:#000000; stroke-width:2; stroke-opacity:0.1; fill:none" points="
  202.373,1175.28 2352.76,1175.28 
  "/>
<polyline clip-path="url(#clip7302)" style="stroke:#000000; stroke-width:2; stroke-opacity:0.1; fill:none" points="
  202.373,975.014 2352.76,975.014 
  "/>
<polyline clip-path="url(#clip7302)" style="stroke:#000000; stroke-width:2; stroke-opacity:0.1; fill:none" points="
  202.373,774.745 2352.76,774.745 
  "/>
<polyline clip-path="url(#clip7302)" style="stroke:#000000; stroke-width:2; stroke-opacity:0.1; fill:none" points="
  202.373,574.477 2352.76,574.477 
  "/>
<polyline clip-path="url(#clip7302)" style="stroke:#000000; stroke-width:2; stroke-opacity:0.1; fill:none" points="
  202.373,374.208 2352.76,374.208 
  "/>
<polyline clip-path="url(#clip7302)" style="stroke:#000000; stroke-width:2; stroke-opacity:0.1; fill:none" points="
  202.373,173.939 2352.76,173.939 
  "/>
<polyline clip-path="url(#clip7300)" style="stroke:#000000; stroke-width:4; stroke-opacity:1; fill:none" points="
  202.373,1425.62 2352.76,1425.62 
  "/>
<polyline clip-path="url(#clip7300)" style="stroke:#000000; stroke-width:4; stroke-opacity:1; fill:none" points="
  202.373,1425.62 202.373,109.1 
  "/>
<polyline clip-path="url(#clip7300)" style="stroke:#000000; stroke-width:4; stroke-opacity:1; fill:none" points="
  202.373,1425.62 202.373,1405.87 
  "/>
<polyline clip-path="url(#clip7300)" style="stroke:#000000; stroke-width:4; stroke-opacity:1; fill:none" points="
  739.969,1425.62 739.969,1405.87 
  "/>
<polyline clip-path="url(#clip7300)" style="stroke:#000000; stroke-width:4; stroke-opacity:1; fill:none" points="
  1277.56,1425.62 1277.56,1405.87 
  "/>
<polyline clip-path="url(#clip7300)" style="stroke:#000000; stroke-width:4; stroke-opacity:1; fill:none" points="
  1815.16,1425.62 1815.16,1405.87 
  "/>
<polyline clip-path="url(#clip7300)" style="stroke:#000000; stroke-width:4; stroke-opacity:1; fill:none" points="
  2352.76,1425.62 2352.76,1405.87 
  "/>
<polyline clip-path="url(#clip7300)" style="stroke:#000000; stroke-width:4; stroke-opacity:1; fill:none" points="
  202.373,1375.55 234.629,1375.55 
  "/>
<polyline clip-path="url(#clip7300)" style="stroke:#000000; stroke-width:4; stroke-opacity:1; fill:none" points="
  202.373,1175.28 234.629,1175.28 
  "/>
<polyline clip-path="url(#clip7300)" style="stroke:#000000; stroke-width:4; stroke-opacity:1; fill:none" points="
  202.373,975.014 234.629,975.014 
  "/>
<polyline clip-path="url(#clip7300)" style="stroke:#000000; stroke-width:4; stroke-opacity:1; fill:none" points="
  202.373,774.745 234.629,774.745 
  "/>
<polyline clip-path="url(#clip7300)" style="stroke:#000000; stroke-width:4; stroke-opacity:1; fill:none" points="
  202.373,574.477 234.629,574.477 
  "/>
<polyline clip-path="url(#clip7300)" style="stroke:#000000; stroke-width:4; stroke-opacity:1; fill:none" points="
  202.373,374.208 234.629,374.208 
  "/>
<polyline clip-path="url(#clip7300)" style="stroke:#000000; stroke-width:4; stroke-opacity:1; fill:none" points="
  202.373,173.939 234.629,173.939 
  "/>
<g clip-path="url(#clip7300)">
<text style="fill:#000000; fill-opacity:1; font-family:Arial,Helvetica Neue,Helvetica,sans-serif; font-size:48px; text-anchor:middle;" transform="rotate(0, 202.373, 1479.62)" x="202.373" y="1479.62">-0.5</text>
</g>
<g clip-path="url(#clip7300)">
<text style="fill:#000000; fill-opacity:1; font-family:Arial,Helvetica Neue,Helvetica,sans-serif; font-size:48px; text-anchor:middle;" transform="rotate(0, 739.969, 1479.62)" x="739.969" y="1479.62">0.0</text>
</g>
<g clip-path="url(#clip7300)">
<text style="fill:#000000; fill-opacity:1; font-family:Arial,Helvetica Neue,Helvetica,sans-serif; font-size:48px; text-anchor:middle;" transform="rotate(0, 1277.56, 1479.62)" x="1277.56" y="1479.62">0.5</text>
</g>
<g clip-path="url(#clip7300)">
<text style="fill:#000000; fill-opacity:1; font-family:Arial,Helvetica Neue,Helvetica,sans-serif; font-size:48px; text-anchor:middle;" transform="rotate(0, 1815.16, 1479.62)" x="1815.16" y="1479.62">1.0</text>
</g>
<g clip-path="url(#clip7300)">
<text style="fill:#000000; fill-opacity:1; font-family:Arial,Helvetica Neue,Helvetica,sans-serif; font-size:48px; text-anchor:middle;" transform="rotate(0, 2352.76, 1479.62)" x="2352.76" y="1479.62">1.5</text>
</g>
<g clip-path="url(#clip7300)">
<text style="fill:#000000; fill-opacity:1; font-family:Arial,Helvetica Neue,Helvetica,sans-serif; font-size:48px; text-anchor:end;" transform="rotate(0, 178.373, 1393.05)" x="178.373" y="1393.05">0</text>
</g>
<g clip-path="url(#clip7300)">
<text style="fill:#000000; fill-opacity:1; font-family:Arial,Helvetica Neue,Helvetica,sans-serif; font-size:48px; text-anchor:end;" transform="rotate(0, 178.373, 1192.78)" x="178.373" y="1192.78">2</text>
</g>
<g clip-path="url(#clip7300)">
<text style="fill:#000000; fill-opacity:1; font-family:Arial,Helvetica Neue,Helvetica,sans-serif; font-size:48px; text-anchor:end;" transform="rotate(0, 178.373, 992.514)" x="178.373" y="992.514">4</text>
</g>
<g clip-path="url(#clip7300)">
<text style="fill:#000000; fill-opacity:1; font-family:Arial,Helvetica Neue,Helvetica,sans-serif; font-size:48px; text-anchor:end;" transform="rotate(0, 178.373, 792.245)" x="178.373" y="792.245">6</text>
</g>
<g clip-path="url(#clip7300)">
<text style="fill:#000000; fill-opacity:1; font-family:Arial,Helvetica Neue,Helvetica,sans-serif; font-size:48px; text-anchor:end;" transform="rotate(0, 178.373, 591.977)" x="178.373" y="591.977">8</text>
</g>
<g clip-path="url(#clip7300)">
<text style="fill:#000000; fill-opacity:1; font-family:Arial,Helvetica Neue,Helvetica,sans-serif; font-size:48px; text-anchor:end;" transform="rotate(0, 178.373, 391.708)" x="178.373" y="391.708">10</text>
</g>
<g clip-path="url(#clip7300)">
<text style="fill:#000000; fill-opacity:1; font-family:Arial,Helvetica Neue,Helvetica,sans-serif; font-size:48px; text-anchor:end;" transform="rotate(0, 178.373, 191.439)" x="178.373" y="191.439">12</text>
</g>
<g clip-path="url(#clip7300)">
<text style="fill:#000000; fill-opacity:1; font-family:Arial,Helvetica Neue,Helvetica,sans-serif; font-size:66px; text-anchor:middle;" transform="rotate(0, 1277.56, 57.6)" x="1277.56" y="57.6">GCF_000849665.1_ViralProj14593_genomic.fna.K13.jf.histogram</text>
</g>
<g clip-path="url(#clip7300)">
<text style="fill:#000000; fill-opacity:1; font-family:Arial,Helvetica Neue,Helvetica,sans-serif; font-size:66px; text-anchor:middle;" transform="rotate(0, 1277.56, 1559.48)" x="1277.56" y="1559.48">log2(depth of coverage)</text>
</g>
<g clip-path="url(#clip7300)">
<text style="fill:#000000; fill-opacity:1; font-family:Arial,Helvetica Neue,Helvetica,sans-serif; font-size:66px; text-anchor:middle;" transform="rotate(-90, 89.2861, 767.359)" x="89.2861" y="767.359">log2(# kmers)</text>
</g>
<circle clip-path="url(#clip7302)" style="fill:#000000; stroke:none; fill-opacity:1" cx="739.969" cy="159.167" r="18"/>
<circle clip-path="url(#clip7302)" style="fill:#009af9; stroke:none; fill-opacity:1" cx="739.969" cy="159.167" r="14"/>
<circle clip-path="url(#clip7302)" style="fill:#000000; stroke:none; fill-opacity:1" cx="1815.16" cy="1094.44" r="18"/>
<circle clip-path="url(#clip7302)" style="fill:#009af9; stroke:none; fill-opacity:1" cx="1815.16" cy="1094.44" r="14"/>
<polyline clip-path="url(#clip7302)" style="stroke:#e26f46; stroke-width:4; stroke-opacity:1; fill:none" points="
  739.969,159.167 750.829,168.615 761.69,178.062 772.55,187.509 783.411,196.956 794.271,206.403 805.132,215.85 815.992,225.298 826.853,234.745 837.713,244.192 
  848.574,253.639 859.434,263.086 870.295,272.534 881.155,281.981 892.016,291.428 902.876,300.875 913.737,310.322 924.598,319.77 935.458,329.217 946.319,338.664 
  957.179,348.111 968.04,357.558 978.9,367.005 989.761,376.453 1000.62,385.9 1011.48,395.347 1022.34,404.794 1033.2,414.241 1044.06,423.689 1054.92,433.136 
  1065.78,442.583 1076.64,452.03 1087.51,461.477 1098.37,470.925 1109.23,480.372 1120.09,489.819 1130.95,499.266 1141.81,508.713 1152.67,518.16 1163.53,527.608 
  1174.39,537.055 1185.25,546.502 1196.11,555.949 1206.97,565.396 1217.83,574.844 1228.69,584.291 1239.55,593.738 1250.41,603.185 1261.27,612.632 1272.13,622.08 
  1282.99,631.527 1293.86,640.974 1304.72,650.421 1315.58,659.868 1326.44,669.315 1337.3,678.763 1348.16,688.21 1359.02,697.657 1369.88,707.104 1380.74,716.551 
  1391.6,725.999 1402.46,735.446 1413.32,744.893 1424.18,754.34 1435.04,763.787 1445.9,773.234 1456.76,782.682 1467.62,792.129 1478.48,801.576 1489.34,811.023 
  1500.21,820.47 1511.07,829.918 1521.93,839.365 1532.79,848.812 1543.65,858.259 1554.51,867.706 1565.37,877.154 1576.23,886.601 1587.09,896.048 1597.95,905.495 
  1608.81,914.942 1619.67,924.389 1630.53,933.837 1641.39,943.284 1652.25,952.731 1663.11,962.178 1673.97,971.625 1684.83,981.073 1695.69,990.52 1706.55,999.967 
  1717.42,1009.41 1728.28,1018.86 1739.14,1028.31 1750,1037.76 1760.86,1047.2 1771.72,1056.65 1782.58,1066.1 1793.44,1075.54 1804.3,1084.99 1815.16,1094.44 
  
  "/>
<g clip-path="url(#clip7300)">
<text style="fill:#000000; fill-opacity:1; font-family:Arial,Helvetica Neue,Helvetica,sans-serif; font-size:59px; text-anchor:start;" transform="rotate(0, 739.969, 1296.92)" x="739.969" y="1296.92">r = -1.0</text>
</g>
</svg>
