<?xml version="1.0" encoding="utf-8"?>
<svg xmlns="http://www.w3.org/2000/svg" xmlns:xlink="http://www.w3.org/1999/xlink" width="600" height="400" viewBox="0 0 2400 1600">
<defs>
  <clipPath id="clip8800">
    <rect x="0" y="0" width="2400" height="1600"/>
  </clipPath>
</defs>
<polygon clip-path="url(#clip8800)" points="
0,1600 2400,1600 2400,0 0,0 
  " fill="#ffffff" fill-rule="evenodd" fill-opacity="1"/>
<defs>
  <clipPath id="clip8801">
    <rect x="480" y="0" width="1681" height="1600"/>
  </clipPath>
</defs>
<polygon clip-path="url(#clip8800)" points="
270.627,1425.62 2352.76,1425.62 2352.76,109.1 270.627,109.1 
  " fill="#ffffff" fill-rule="evenodd" fill-opacity="1"/>
<defs>
  <clipPath id="clip8802">
    <rect x="270" y="109" width="2083" height="1318"/>
  </clipPath>
</defs>
<polyline clip-path="url(#clip8802)" style="stroke:#000000; stroke-width:2; stroke-opacity:0.1; fill:none" points="
  324.239,1425.62 324.239,109.1 
  "/>
<polyline clip-path="url(#clip8802)" style="stroke:#000000; stroke-width:2; stroke-opacity:0.1; fill:none" points="
  860.364,1425.62 860.364,109.1 
  "/>
<polyline clip-path="url(#clip8802)" style="stroke:#000000; stroke-width:2; stroke-opacity:0.1; fill:none" points="
  1396.49,1425.62 1396.49,109.1 
  "/>
<polyline clip-path="url(#clip8802)" style="stroke:#000000; stroke-width:2; stroke-opacity:0.1; fill:none" points="
  1932.61,1425.62 1932.61,109.1 
  "/>
<polyline clip-path="url(#clip8802)" style="stroke:#000000; stroke-width:2; stroke-opacity:0.1; fill:none" points="
  270.627,1425.62 2352.76,1425.62 
  "/>
<polyline clip-path="url(#clip8802)" style="stroke:#000000; stroke-width:2; stroke-opacity:0.1; fill:none" points="
  270.627,1096.49 2352.76,1096.49 
  "/>
<polyline clip-path="url(#clip8802)" style="stroke:#000000; stroke-width:2; stroke-opacity:0.1; fill:none" points="
  270.627,767.359 2352.76,767.359 
  "/>
<polyline clip-path="url(#clip8802)" style="stroke:#000000; stroke-width:2; stroke-opacity:0.1; fill:none" points="
  270.627,438.23 2352.76,438.23 
  "/>
<polyline clip-path="url(#clip8802)" style="stroke:#000000; stroke-width:2; stroke-opacity:0.1; fill:none" points="
  270.627,109.1 2352.76,109.1 
  "/>
<polyline clip-path="url(#clip8800)" style="stroke:#000000; stroke-width:4; stroke-opacity:1; fill:none" points="
  270.627,1425.62 2352.76,1425.62 
  "/>
<polyline clip-path="url(#clip8800)" style="stroke:#000000; stroke-width:4; stroke-opacity:1; fill:none" points="
  270.627,1425.62 270.627,109.1 
  "/>
<polyline clip-path="url(#clip8800)" style="stroke:#000000; stroke-width:4; stroke-opacity:1; fill:none" points="
  324.239,1425.62 324.239,1405.87 
  "/>
<polyline clip-path="url(#clip8800)" style="stroke:#000000; stroke-width:4; stroke-opacity:1; fill:none" points="
  860.364,1425.62 860.364,1405.87 
  "/>
<polyline clip-path="url(#clip8800)" style="stroke:#000000; stroke-width:4; stroke-opacity:1; fill:none" points="
  1396.49,1425.62 1396.49,1405.87 
  "/>
<polyline clip-path="url(#clip8800)" style="stroke:#000000; stroke-width:4; stroke-opacity:1; fill:none" points="
  1932.61,1425.62 1932.61,1405.87 
  "/>
<polyline clip-path="url(#clip8800)" style="stroke:#000000; stroke-width:4; stroke-opacity:1; fill:none" points="
  270.627,1425.62 301.858,1425.62 
  "/>
<polyline clip-path="url(#clip8800)" style="stroke:#000000; stroke-width:4; stroke-opacity:1; fill:none" points="
  270.627,1096.49 301.858,1096.49 
  "/>
<polyline clip-path="url(#clip8800)" style="stroke:#000000; stroke-width:4; stroke-opacity:1; fill:none" points="
  270.627,767.359 301.858,767.359 
  "/>
<polyline clip-path="url(#clip8800)" style="stroke:#000000; stroke-width:4; stroke-opacity:1; fill:none" points="
  270.627,438.23 301.858,438.23 
  "/>
<polyline clip-path="url(#clip8800)" style="stroke:#000000; stroke-width:4; stroke-opacity:1; fill:none" points="
  270.627,109.1 301.858,109.1 
  "/>
<g clip-path="url(#clip8800)">
<text style="fill:#000000; fill-opacity:1; font-family:Arial,Helvetica Neue,Helvetica,sans-serif; font-size:48px; text-anchor:middle;" transform="rotate(0, 324.239, 1479.62)" x="324.239" y="1479.62">0</text>
</g>
<g clip-path="url(#clip8800)">
<text style="fill:#000000; fill-opacity:1; font-family:Arial,Helvetica Neue,Helvetica,sans-serif; font-size:48px; text-anchor:middle;" transform="rotate(0, 860.364, 1479.62)" x="860.364" y="1479.62">5</text>
</g>
<g clip-path="url(#clip8800)">
<text style="fill:#000000; fill-opacity:1; font-family:Arial,Helvetica Neue,Helvetica,sans-serif; font-size:48px; text-anchor:middle;" transform="rotate(0, 1396.49, 1479.62)" x="1396.49" y="1479.62">10</text>
</g>
<g clip-path="url(#clip8800)">
<text style="fill:#000000; fill-opacity:1; font-family:Arial,Helvetica Neue,Helvetica,sans-serif; font-size:48px; text-anchor:middle;" transform="rotate(0, 1932.61, 1479.62)" x="1932.61" y="1479.62">15</text>
</g>
<g clip-path="url(#clip8800)">
<text style="fill:#000000; fill-opacity:1; font-family:Arial,Helvetica Neue,Helvetica,sans-serif; font-size:48px; text-anchor:end;" transform="rotate(0, 246.627, 1443.12)" x="246.627" y="1443.12">-0.50</text>
</g>
<g clip-path="url(#clip8800)">
<text style="fill:#000000; fill-opacity:1; font-family:Arial,Helvetica Neue,Helvetica,sans-serif; font-size:48px; text-anchor:end;" transform="rotate(0, 246.627, 1113.99)" x="246.627" y="1113.99">-0.25</text>
</g>
<g clip-path="url(#clip8800)">
<text style="fill:#000000; fill-opacity:1; font-family:Arial,Helvetica Neue,Helvetica,sans-serif; font-size:48px; text-anchor:end;" transform="rotate(0, 246.627, 784.859)" x="246.627" y="784.859">0.00</text>
</g>
<g clip-path="url(#clip8800)">
<text style="fill:#000000; fill-opacity:1; font-family:Arial,Helvetica Neue,Helvetica,sans-serif; font-size:48px; text-anchor:end;" transform="rotate(0, 246.627, 455.73)" x="246.627" y="455.73">0.25</text>
</g>
<g clip-path="url(#clip8800)">
<text style="fill:#000000; fill-opacity:1; font-family:Arial,Helvetica Neue,Helvetica,sans-serif; font-size:48px; text-anchor:end;" transform="rotate(0, 246.627, 126.6)" x="246.627" y="126.6">0.50</text>
</g>
<g clip-path="url(#clip8800)">
<text style="fill:#000000; fill-opacity:1; font-family:Arial,Helvetica Neue,Helvetica,sans-serif; font-size:66px; text-anchor:middle;" transform="rotate(0, 1311.69, 57.6)" x="1311.69" y="57.6">GCF_000064305.2_ASM6430v2_genomic.fna.K3.jf.histogram</text>
</g>
<g clip-path="url(#clip8800)">
<text style="fill:#000000; fill-opacity:1; font-family:Arial,Helvetica Neue,Helvetica,sans-serif; font-size:66px; text-anchor:middle;" transform="rotate(0, 1311.69, 1559.48)" x="1311.69" y="1559.48">log2(depth of coverage)</text>
</g>
<g clip-path="url(#clip8800)">
<text style="fill:#000000; fill-opacity:1; font-family:Arial,Helvetica Neue,Helvetica,sans-serif; font-size:66px; text-anchor:middle;" transform="rotate(-90, 89.2861, 767.359)" x="89.2861" y="767.359">log2(# kmers)</text>
</g>
<circle clip-path="url(#clip8802)" style="fill:#000000; stroke:none; fill-opacity:1" cx="1892.84" cy="767.359" r="18"/>
<circle clip-path="url(#clip8802)" style="fill:#009af9; stroke:none; fill-opacity:1" cx="1892.84" cy="767.359" r="14"/>
<circle clip-path="url(#clip8802)" style="fill:#000000; stroke:none; fill-opacity:1" cx="1905.24" cy="767.359" r="18"/>
<circle clip-path="url(#clip8802)" style="fill:#009af9; stroke:none; fill-opacity:1" cx="1905.24" cy="767.359" r="14"/>
<circle clip-path="url(#clip8802)" style="fill:#000000; stroke:none; fill-opacity:1" cx="1907.16" cy="767.359" r="18"/>
<circle clip-path="url(#clip8802)" style="fill:#009af9; stroke:none; fill-opacity:1" cx="1907.16" cy="767.359" r="14"/>
<circle clip-path="url(#clip8802)" style="fill:#000000; stroke:none; fill-opacity:1" cx="1932.66" cy="767.359" r="18"/>
<circle clip-path="url(#clip8802)" style="fill:#009af9; stroke:none; fill-opacity:1" cx="1932.66" cy="767.359" r="14"/>
<circle clip-path="url(#clip8802)" style="fill:#000000; stroke:none; fill-opacity:1" cx="1950.19" cy="767.359" r="18"/>
<circle clip-path="url(#clip8802)" style="fill:#009af9; stroke:none; fill-opacity:1" cx="1950.19" cy="767.359" r="14"/>
<circle clip-path="url(#clip8802)" style="fill:#000000; stroke:none; fill-opacity:1" cx="1952.98" cy="767.359" r="18"/>
<circle clip-path="url(#clip8802)" style="fill:#009af9; stroke:none; fill-opacity:1" cx="1952.98" cy="767.359" r="14"/>
<circle clip-path="url(#clip8802)" style="fill:#000000; stroke:none; fill-opacity:1" cx="1964.25" cy="767.359" r="18"/>
<circle clip-path="url(#clip8802)" style="fill:#009af9; stroke:none; fill-opacity:1" cx="1964.25" cy="767.359" r="14"/>
<circle clip-path="url(#clip8802)" style="fill:#000000; stroke:none; fill-opacity:1" cx="1971.73" cy="767.359" r="18"/>
<circle clip-path="url(#clip8802)" style="fill:#009af9; stroke:none; fill-opacity:1" cx="1971.73" cy="767.359" r="14"/>
<circle clip-path="url(#clip8802)" style="fill:#000000; stroke:none; fill-opacity:1" cx="1999.17" cy="767.359" r="18"/>
<circle clip-path="url(#clip8802)" style="fill:#009af9; stroke:none; fill-opacity:1" cx="1999.17" cy="767.359" r="14"/>
<circle clip-path="url(#clip8802)" style="fill:#000000; stroke:none; fill-opacity:1" cx="2007.23" cy="767.359" r="18"/>
<circle clip-path="url(#clip8802)" style="fill:#009af9; stroke:none; fill-opacity:1" cx="2007.23" cy="767.359" r="14"/>
<circle clip-path="url(#clip8802)" style="fill:#000000; stroke:none; fill-opacity:1" cx="2008.91" cy="767.359" r="18"/>
<circle clip-path="url(#clip8802)" style="fill:#009af9; stroke:none; fill-opacity:1" cx="2008.91" cy="767.359" r="14"/>
<circle clip-path="url(#clip8802)" style="fill:#000000; stroke:none; fill-opacity:1" cx="2015.22" cy="767.359" r="18"/>
<circle clip-path="url(#clip8802)" style="fill:#009af9; stroke:none; fill-opacity:1" cx="2015.22" cy="767.359" r="14"/>
<circle clip-path="url(#clip8802)" style="fill:#000000; stroke:none; fill-opacity:1" cx="2021.32" cy="767.359" r="18"/>
<circle clip-path="url(#clip8802)" style="fill:#009af9; stroke:none; fill-opacity:1" cx="2021.32" cy="767.359" r="14"/>
<circle clip-path="url(#clip8802)" style="fill:#000000; stroke:none; fill-opacity:1" cx="2032.32" cy="767.359" r="18"/>
<circle clip-path="url(#clip8802)" style="fill:#009af9; stroke:none; fill-opacity:1" cx="2032.32" cy="767.359" r="14"/>
<circle clip-path="url(#clip8802)" style="fill:#000000; stroke:none; fill-opacity:1" cx="2050.96" cy="767.359" r="18"/>
<circle clip-path="url(#clip8802)" style="fill:#009af9; stroke:none; fill-opacity:1" cx="2050.96" cy="767.359" r="14"/>
<circle clip-path="url(#clip8802)" style="fill:#000000; stroke:none; fill-opacity:1" cx="2058.88" cy="767.359" r="18"/>
<circle clip-path="url(#clip8802)" style="fill:#009af9; stroke:none; fill-opacity:1" cx="2058.88" cy="767.359" r="14"/>
<circle clip-path="url(#clip8802)" style="fill:#000000; stroke:none; fill-opacity:1" cx="2060.44" cy="767.359" r="18"/>
<circle clip-path="url(#clip8802)" style="fill:#009af9; stroke:none; fill-opacity:1" cx="2060.44" cy="767.359" r="14"/>
<circle clip-path="url(#clip8802)" style="fill:#000000; stroke:none; fill-opacity:1" cx="2070.44" cy="767.359" r="18"/>
<circle clip-path="url(#clip8802)" style="fill:#009af9; stroke:none; fill-opacity:1" cx="2070.44" cy="767.359" r="14"/>
<circle clip-path="url(#clip8802)" style="fill:#000000; stroke:none; fill-opacity:1" cx="2075.7" cy="767.359" r="18"/>
<circle clip-path="url(#clip8802)" style="fill:#009af9; stroke:none; fill-opacity:1" cx="2075.7" cy="767.359" r="14"/>
<circle clip-path="url(#clip8802)" style="fill:#000000; stroke:none; fill-opacity:1" cx="2077.52" cy="767.359" r="18"/>
<circle clip-path="url(#clip8802)" style="fill:#009af9; stroke:none; fill-opacity:1" cx="2077.52" cy="767.359" r="14"/>
<circle clip-path="url(#clip8802)" style="fill:#000000; stroke:none; fill-opacity:1" cx="2083.05" cy="767.359" r="18"/>
<circle clip-path="url(#clip8802)" style="fill:#009af9; stroke:none; fill-opacity:1" cx="2083.05" cy="767.359" r="14"/>
<circle clip-path="url(#clip8802)" style="fill:#000000; stroke:none; fill-opacity:1" cx="2083.97" cy="767.359" r="18"/>
<circle clip-path="url(#clip8802)" style="fill:#009af9; stroke:none; fill-opacity:1" cx="2083.97" cy="767.359" r="14"/>
<circle clip-path="url(#clip8802)" style="fill:#000000; stroke:none; fill-opacity:1" cx="2097.99" cy="767.359" r="18"/>
<circle clip-path="url(#clip8802)" style="fill:#009af9; stroke:none; fill-opacity:1" cx="2097.99" cy="767.359" r="14"/>
<circle clip-path="url(#clip8802)" style="fill:#000000; stroke:none; fill-opacity:1" cx="2101.68" cy="767.359" r="18"/>
<circle clip-path="url(#clip8802)" style="fill:#009af9; stroke:none; fill-opacity:1" cx="2101.68" cy="767.359" r="14"/>
<circle clip-path="url(#clip8802)" style="fill:#000000; stroke:none; fill-opacity:1" cx="2118.74" cy="767.359" r="18"/>
<circle clip-path="url(#clip8802)" style="fill:#009af9; stroke:none; fill-opacity:1" cx="2118.74" cy="767.359" r="14"/>
<circle clip-path="url(#clip8802)" style="fill:#000000; stroke:none; fill-opacity:1" cx="2124.6" cy="767.359" r="18"/>
<circle clip-path="url(#clip8802)" style="fill:#009af9; stroke:none; fill-opacity:1" cx="2124.6" cy="767.359" r="14"/>
<circle clip-path="url(#clip8802)" style="fill:#000000; stroke:none; fill-opacity:1" cx="2143.57" cy="767.359" r="18"/>
<circle clip-path="url(#clip8802)" style="fill:#009af9; stroke:none; fill-opacity:1" cx="2143.57" cy="767.359" r="14"/>
<circle clip-path="url(#clip8802)" style="fill:#000000; stroke:none; fill-opacity:1" cx="2156.29" cy="767.359" r="18"/>
<circle clip-path="url(#clip8802)" style="fill:#009af9; stroke:none; fill-opacity:1" cx="2156.29" cy="767.359" r="14"/>
<circle clip-path="url(#clip8802)" style="fill:#000000; stroke:none; fill-opacity:1" cx="2177.46" cy="767.359" r="18"/>
<circle clip-path="url(#clip8802)" style="fill:#009af9; stroke:none; fill-opacity:1" cx="2177.46" cy="767.359" r="14"/>
<circle clip-path="url(#clip8802)" style="fill:#000000; stroke:none; fill-opacity:1" cx="2204.5" cy="767.359" r="18"/>
<circle clip-path="url(#clip8802)" style="fill:#009af9; stroke:none; fill-opacity:1" cx="2204.5" cy="767.359" r="14"/>
<circle clip-path="url(#clip8802)" style="fill:#000000; stroke:none; fill-opacity:1" cx="2237.23" cy="767.359" r="18"/>
<circle clip-path="url(#clip8802)" style="fill:#009af9; stroke:none; fill-opacity:1" cx="2237.23" cy="767.359" r="14"/>
<circle clip-path="url(#clip8802)" style="fill:#000000; stroke:none; fill-opacity:1" cx="2299.14" cy="767.359" r="18"/>
<circle clip-path="url(#clip8802)" style="fill:#009af9; stroke:none; fill-opacity:1" cx="2299.14" cy="767.359" r="14"/>
<polyline clip-path="url(#clip8802)" style="stroke:#e26f46; stroke-width:4; stroke-opacity:1; fill:none" points="
  1892.84,767.359 1896.95,767.359 1901.05,767.359 1905.15,767.359 1909.26,767.359 1913.36,767.359 1917.47,767.359 1921.57,767.359 1925.67,767.359 1929.78,767.359 
  1933.88,767.359 1937.99,767.359 1942.09,767.359 1946.19,767.359 1950.3,767.359 1954.4,767.359 1958.51,767.359 1962.61,767.359 1966.71,767.359 1970.82,767.359 
  1974.92,767.359 1979.03,767.359 1983.13,767.359 1987.23,767.359 1991.34,767.359 1995.44,767.359 1999.55,767.359 2003.65,767.359 2007.76,767.359 2011.86,767.359 
  2015.96,767.359 2020.07,767.359 2024.17,767.359 2028.28,767.359 2032.38,767.359 2036.48,767.359 2040.59,767.359 2044.69,767.359 2048.8,767.359 2052.9,767.359 
  2057,767.359 2061.11,767.359 2065.21,767.359 2069.32,767.359 2073.42,767.359 2077.52,767.359 2081.63,767.359 2085.73,767.359 2089.84,767.359 2093.94,767.359 
  2098.04,767.359 2102.15,767.359 2106.25,767.359 2110.36,767.359 2114.46,767.359 2118.56,767.359 2122.67,767.359 2126.77,767.359 2130.88,767.359 2134.98,767.359 
  2139.09,767.359 2143.19,767.359 2147.29,767.359 2151.4,767.359 2155.5,767.359 2159.61,767.359 2163.71,767.359 2167.81,767.359 2171.92,767.359 2176.02,767.359 
  2180.13,767.359 2184.23,767.359 2188.33,767.359 2192.44,767.359 2196.54,767.359 2200.65,767.359 2204.75,767.359 2208.85,767.359 2212.96,767.359 2217.06,767.359 
  2221.17,767.359 2225.27,767.359 2229.37,767.359 2233.48,767.359 2237.58,767.359 2241.69,767.359 2245.79,767.359 2249.89,767.359 2254,767.359 2258.1,767.359 
  2262.21,767.359 2266.31,767.359 2270.41,767.359 2274.52,767.359 2278.62,767.359 2282.73,767.359 2286.83,767.359 2290.94,767.359 2295.04,767.359 2299.14,767.359 
  
  "/>
<g clip-path="url(#clip8800)">
<text style="fill:#000000; fill-opacity:1; font-family:Arial,Helvetica Neue,Helvetica,sans-serif; font-size:59px; text-anchor:start;" transform="rotate(0, 324.239, -527.659)" x="324.239" y="-527.659">r = NaN</text>
</g>
</svg>
