<?xml version="1.0" encoding="utf-8"?>
<svg xmlns="http://www.w3.org/2000/svg" xmlns:xlink="http://www.w3.org/1999/xlink" width="600" height="400" viewBox="0 0 2400 1600">
<defs>
  <clipPath id="clip1600">
    <rect x="0" y="0" width="2400" height="1600"/>
  </clipPath>
</defs>
<polygon clip-path="url(#clip1600)" points="
0,1600 2400,1600 2400,0 0,0 
  " fill="#ffffff" fill-rule="evenodd" fill-opacity="1"/>
<defs>
  <clipPath id="clip1601">
    <rect x="480" y="0" width="1681" height="1600"/>
  </clipPath>
</defs>
<polygon clip-path="url(#clip1600)" points="
202.373,1425.62 2352.76,1425.62 2352.76,109.1 202.373,109.1 
  " fill="#ffffff" fill-rule="evenodd" fill-opacity="1"/>
<defs>
  <clipPath id="clip1602">
    <rect x="202" y="109" width="2151" height="1318"/>
  </clipPath>
</defs>
<polyline clip-path="url(#clip1602)" style="stroke:#000000; stroke-width:2; stroke-opacity:0.1; fill:none" points="
  333.035,1425.62 333.035,109.1 
  "/>
<polyline clip-path="url(#clip1602)" style="stroke:#000000; stroke-width:2; stroke-opacity:0.1; fill:none" points="
  855.681,1425.62 855.681,109.1 
  "/>
<polyline clip-path="url(#clip1602)" style="stroke:#000000; stroke-width:2; stroke-opacity:0.1; fill:none" points="
  1378.33,1425.62 1378.33,109.1 
  "/>
<polyline clip-path="url(#clip1602)" style="stroke:#000000; stroke-width:2; stroke-opacity:0.1; fill:none" points="
  1900.98,1425.62 1900.98,109.1 
  "/>
<polyline clip-path="url(#clip1602)" style="stroke:#000000; stroke-width:2; stroke-opacity:0.1; fill:none" points="
  202.373,1398.68 2352.76,1398.68 
  "/>
<polyline clip-path="url(#clip1602)" style="stroke:#000000; stroke-width:2; stroke-opacity:0.1; fill:none" points="
  202.373,1129.33 2352.76,1129.33 
  "/>
<polyline clip-path="url(#clip1602)" style="stroke:#000000; stroke-width:2; stroke-opacity:0.1; fill:none" points="
  202.373,859.971 2352.76,859.971 
  "/>
<polyline clip-path="url(#clip1602)" style="stroke:#000000; stroke-width:2; stroke-opacity:0.1; fill:none" points="
  202.373,590.615 2352.76,590.615 
  "/>
<polyline clip-path="url(#clip1602)" style="stroke:#000000; stroke-width:2; stroke-opacity:0.1; fill:none" points="
  202.373,321.258 2352.76,321.258 
  "/>
<polyline clip-path="url(#clip1600)" style="stroke:#000000; stroke-width:4; stroke-opacity:1; fill:none" points="
  202.373,1425.62 2352.76,1425.62 
  "/>
<polyline clip-path="url(#clip1600)" style="stroke:#000000; stroke-width:4; stroke-opacity:1; fill:none" points="
  202.373,1425.62 202.373,109.1 
  "/>
<polyline clip-path="url(#clip1600)" style="stroke:#000000; stroke-width:4; stroke-opacity:1; fill:none" points="
  333.035,1425.62 333.035,1405.87 
  "/>
<polyline clip-path="url(#clip1600)" style="stroke:#000000; stroke-width:4; stroke-opacity:1; fill:none" points="
  855.681,1425.62 855.681,1405.87 
  "/>
<polyline clip-path="url(#clip1600)" style="stroke:#000000; stroke-width:4; stroke-opacity:1; fill:none" points="
  1378.33,1425.62 1378.33,1405.87 
  "/>
<polyline clip-path="url(#clip1600)" style="stroke:#000000; stroke-width:4; stroke-opacity:1; fill:none" points="
  1900.98,1425.62 1900.98,1405.87 
  "/>
<polyline clip-path="url(#clip1600)" style="stroke:#000000; stroke-width:4; stroke-opacity:1; fill:none" points="
  202.373,1398.68 234.629,1398.68 
  "/>
<polyline clip-path="url(#clip1600)" style="stroke:#000000; stroke-width:4; stroke-opacity:1; fill:none" points="
  202.373,1129.33 234.629,1129.33 
  "/>
<polyline clip-path="url(#clip1600)" style="stroke:#000000; stroke-width:4; stroke-opacity:1; fill:none" points="
  202.373,859.971 234.629,859.971 
  "/>
<polyline clip-path="url(#clip1600)" style="stroke:#000000; stroke-width:4; stroke-opacity:1; fill:none" points="
  202.373,590.615 234.629,590.615 
  "/>
<polyline clip-path="url(#clip1600)" style="stroke:#000000; stroke-width:4; stroke-opacity:1; fill:none" points="
  202.373,321.258 234.629,321.258 
  "/>
<g clip-path="url(#clip1600)">
<text style="fill:#000000; fill-opacity:1; font-family:Arial,Helvetica Neue,Helvetica,sans-serif; font-size:48px; text-anchor:middle;" transform="rotate(0, 333.035, 1479.62)" x="333.035" y="1479.62">0</text>
</g>
<g clip-path="url(#clip1600)">
<text style="fill:#000000; fill-opacity:1; font-family:Arial,Helvetica Neue,Helvetica,sans-serif; font-size:48px; text-anchor:middle;" transform="rotate(0, 855.681, 1479.62)" x="855.681" y="1479.62">2</text>
</g>
<g clip-path="url(#clip1600)">
<text style="fill:#000000; fill-opacity:1; font-family:Arial,Helvetica Neue,Helvetica,sans-serif; font-size:48px; text-anchor:middle;" transform="rotate(0, 1378.33, 1479.62)" x="1378.33" y="1479.62">4</text>
</g>
<g clip-path="url(#clip1600)">
<text style="fill:#000000; fill-opacity:1; font-family:Arial,Helvetica Neue,Helvetica,sans-serif; font-size:48px; text-anchor:middle;" transform="rotate(0, 1900.98, 1479.62)" x="1900.98" y="1479.62">6</text>
</g>
<g clip-path="url(#clip1600)">
<text style="fill:#000000; fill-opacity:1; font-family:Arial,Helvetica Neue,Helvetica,sans-serif; font-size:48px; text-anchor:end;" transform="rotate(0, 178.373, 1416.18)" x="178.373" y="1416.18">0</text>
</g>
<g clip-path="url(#clip1600)">
<text style="fill:#000000; fill-opacity:1; font-family:Arial,Helvetica Neue,Helvetica,sans-serif; font-size:48px; text-anchor:end;" transform="rotate(0, 178.373, 1146.83)" x="178.373" y="1146.83">5</text>
</g>
<g clip-path="url(#clip1600)">
<text style="fill:#000000; fill-opacity:1; font-family:Arial,Helvetica Neue,Helvetica,sans-serif; font-size:48px; text-anchor:end;" transform="rotate(0, 178.373, 877.471)" x="178.373" y="877.471">10</text>
</g>
<g clip-path="url(#clip1600)">
<text style="fill:#000000; fill-opacity:1; font-family:Arial,Helvetica Neue,Helvetica,sans-serif; font-size:48px; text-anchor:end;" transform="rotate(0, 178.373, 608.115)" x="178.373" y="608.115">15</text>
</g>
<g clip-path="url(#clip1600)">
<text style="fill:#000000; fill-opacity:1; font-family:Arial,Helvetica Neue,Helvetica,sans-serif; font-size:48px; text-anchor:end;" transform="rotate(0, 178.373, 338.758)" x="178.373" y="338.758">20</text>
</g>
<g clip-path="url(#clip1600)">
<text style="fill:#000000; fill-opacity:1; font-family:Arial,Helvetica Neue,Helvetica,sans-serif; font-size:66px; text-anchor:middle;" transform="rotate(0, 1277.56, 57.6)" x="1277.56" y="57.6">GCF_000146045.2_R64_genomic.fna.K29.jf.histogram</text>
</g>
<g clip-path="url(#clip1600)">
<text style="fill:#000000; fill-opacity:1; font-family:Arial,Helvetica Neue,Helvetica,sans-serif; font-size:66px; text-anchor:middle;" transform="rotate(0, 1277.56, 1559.48)" x="1277.56" y="1559.48">log2(depth of coverage)</text>
</g>
<g clip-path="url(#clip1600)">
<text style="fill:#000000; fill-opacity:1; font-family:Arial,Helvetica Neue,Helvetica,sans-serif; font-size:66px; text-anchor:middle;" transform="rotate(-90, 89.2861, 767.359)" x="89.2861" y="767.359">log2(# kmers)</text>
</g>
<circle clip-path="url(#clip1602)" style="fill:#000000; stroke:none; fill-opacity:1" cx="333.035" cy="136.036" r="18"/>
<circle clip-path="url(#clip1602)" style="fill:#009af9; stroke:none; fill-opacity:1" cx="333.035" cy="136.036" r="14"/>
<circle clip-path="url(#clip1602)" style="fill:#000000; stroke:none; fill-opacity:1" cx="594.358" cy="488.052" r="18"/>
<circle clip-path="url(#clip1602)" style="fill:#009af9; stroke:none; fill-opacity:1" cx="594.358" cy="488.052" r="14"/>
<circle clip-path="url(#clip1602)" style="fill:#000000; stroke:none; fill-opacity:1" cx="747.222" cy="602.085" r="18"/>
<circle clip-path="url(#clip1602)" style="fill:#009af9; stroke:none; fill-opacity:1" cx="747.222" cy="602.085" r="14"/>
<circle clip-path="url(#clip1602)" style="fill:#000000; stroke:none; fill-opacity:1" cx="855.681" cy="682.054" r="18"/>
<circle clip-path="url(#clip1602)" style="fill:#009af9; stroke:none; fill-opacity:1" cx="855.681" cy="682.054" r="14"/>
<circle clip-path="url(#clip1602)" style="fill:#000000; stroke:none; fill-opacity:1" cx="939.809" cy="775.811" r="18"/>
<circle clip-path="url(#clip1602)" style="fill:#009af9; stroke:none; fill-opacity:1" cx="939.809" cy="775.811" r="14"/>
<circle clip-path="url(#clip1602)" style="fill:#000000; stroke:none; fill-opacity:1" cx="1008.55" cy="797.148" r="18"/>
<circle clip-path="url(#clip1602)" style="fill:#009af9; stroke:none; fill-opacity:1" cx="1008.55" cy="797.148" r="14"/>
<circle clip-path="url(#clip1602)" style="fill:#000000; stroke:none; fill-opacity:1" cx="1066.66" cy="804.003" r="18"/>
<circle clip-path="url(#clip1602)" style="fill:#009af9; stroke:none; fill-opacity:1" cx="1066.66" cy="804.003" r="14"/>
<circle clip-path="url(#clip1602)" style="fill:#000000; stroke:none; fill-opacity:1" cx="1117" cy="822.237" r="18"/>
<circle clip-path="url(#clip1602)" style="fill:#009af9; stroke:none; fill-opacity:1" cx="1117" cy="822.237" r="14"/>
<circle clip-path="url(#clip1602)" style="fill:#000000; stroke:none; fill-opacity:1" cx="1161.41" cy="850.547" r="18"/>
<circle clip-path="url(#clip1602)" style="fill:#009af9; stroke:none; fill-opacity:1" cx="1161.41" cy="850.547" r="14"/>
<circle clip-path="url(#clip1602)" style="fill:#000000; stroke:none; fill-opacity:1" cx="1201.13" cy="874.354" r="18"/>
<circle clip-path="url(#clip1602)" style="fill:#009af9; stroke:none; fill-opacity:1" cx="1201.13" cy="874.354" r="14"/>
<circle clip-path="url(#clip1602)" style="fill:#000000; stroke:none; fill-opacity:1" cx="1237.07" cy="809.711" r="18"/>
<circle clip-path="url(#clip1602)" style="fill:#009af9; stroke:none; fill-opacity:1" cx="1237.07" cy="809.711" r="14"/>
<circle clip-path="url(#clip1602)" style="fill:#000000; stroke:none; fill-opacity:1" cx="1269.87" cy="853.215" r="18"/>
<circle clip-path="url(#clip1602)" style="fill:#009af9; stroke:none; fill-opacity:1" cx="1269.87" cy="853.215" r="14"/>
<circle clip-path="url(#clip1602)" style="fill:#000000; stroke:none; fill-opacity:1" cx="1300.05" cy="788.393" r="18"/>
<circle clip-path="url(#clip1602)" style="fill:#009af9; stroke:none; fill-opacity:1" cx="1300.05" cy="788.393" r="14"/>
<circle clip-path="url(#clip1602)" style="fill:#000000; stroke:none; fill-opacity:1" cx="1327.99" cy="887.453" r="18"/>
<circle clip-path="url(#clip1602)" style="fill:#009af9; stroke:none; fill-opacity:1" cx="1327.99" cy="887.453" r="14"/>
<circle clip-path="url(#clip1602)" style="fill:#000000; stroke:none; fill-opacity:1" cx="1354" cy="870.958" r="18"/>
<circle clip-path="url(#clip1602)" style="fill:#009af9; stroke:none; fill-opacity:1" cx="1354" cy="870.958" r="14"/>
<circle clip-path="url(#clip1602)" style="fill:#000000; stroke:none; fill-opacity:1" cx="1378.33" cy="867.204" r="18"/>
<circle clip-path="url(#clip1602)" style="fill:#009af9; stroke:none; fill-opacity:1" cx="1378.33" cy="867.204" r="14"/>
<circle clip-path="url(#clip1602)" style="fill:#000000; stroke:none; fill-opacity:1" cx="1401.18" cy="901.386" r="18"/>
<circle clip-path="url(#clip1602)" style="fill:#009af9; stroke:none; fill-opacity:1" cx="1401.18" cy="901.386" r="14"/>
<circle clip-path="url(#clip1602)" style="fill:#000000; stroke:none; fill-opacity:1" cx="1422.73" cy="877.808" r="18"/>
<circle clip-path="url(#clip1602)" style="fill:#009af9; stroke:none; fill-opacity:1" cx="1422.73" cy="877.808" r="14"/>
<circle clip-path="url(#clip1602)" style="fill:#000000; stroke:none; fill-opacity:1" cx="1443.12" cy="817.043" r="18"/>
<circle clip-path="url(#clip1602)" style="fill:#009af9; stroke:none; fill-opacity:1" cx="1443.12" cy="817.043" r="14"/>
<circle clip-path="url(#clip1602)" style="fill:#000000; stroke:none; fill-opacity:1" cx="1462.46" cy="954.613" r="18"/>
<circle clip-path="url(#clip1602)" style="fill:#009af9; stroke:none; fill-opacity:1" cx="1462.46" cy="954.613" r="14"/>
<circle clip-path="url(#clip1602)" style="fill:#000000; stroke:none; fill-opacity:1" cx="1480.85" cy="963.575" r="18"/>
<circle clip-path="url(#clip1602)" style="fill:#009af9; stroke:none; fill-opacity:1" cx="1480.85" cy="963.575" r="14"/>
<circle clip-path="url(#clip1602)" style="fill:#000000; stroke:none; fill-opacity:1" cx="1498.39" cy="994.657" r="18"/>
<circle clip-path="url(#clip1602)" style="fill:#009af9; stroke:none; fill-opacity:1" cx="1498.39" cy="994.657" r="14"/>
<circle clip-path="url(#clip1602)" style="fill:#000000; stroke:none; fill-opacity:1" cx="1515.15" cy="951.842" r="18"/>
<circle clip-path="url(#clip1602)" style="fill:#009af9; stroke:none; fill-opacity:1" cx="1515.15" cy="951.842" r="14"/>
<circle clip-path="url(#clip1602)" style="fill:#000000; stroke:none; fill-opacity:1" cx="1531.19" cy="1004.73" r="18"/>
<circle clip-path="url(#clip1602)" style="fill:#009af9; stroke:none; fill-opacity:1" cx="1531.19" cy="1004.73" r="14"/>
<circle clip-path="url(#clip1602)" style="fill:#000000; stroke:none; fill-opacity:1" cx="1546.58" cy="978.091" r="18"/>
<circle clip-path="url(#clip1602)" style="fill:#009af9; stroke:none; fill-opacity:1" cx="1546.58" cy="978.091" r="14"/>
<circle clip-path="url(#clip1602)" style="fill:#000000; stroke:none; fill-opacity:1" cx="1561.37" cy="941.216" r="18"/>
<circle clip-path="url(#clip1602)" style="fill:#009af9; stroke:none; fill-opacity:1" cx="1561.37" cy="941.216" r="14"/>
<circle clip-path="url(#clip1602)" style="fill:#000000; stroke:none; fill-opacity:1" cx="1575.6" cy="1017.45" r="18"/>
<circle clip-path="url(#clip1602)" style="fill:#009af9; stroke:none; fill-opacity:1" cx="1575.6" cy="1017.45" r="14"/>
<circle clip-path="url(#clip1602)" style="fill:#000000; stroke:none; fill-opacity:1" cx="1589.31" cy="932.255" r="18"/>
<circle clip-path="url(#clip1602)" style="fill:#009af9; stroke:none; fill-opacity:1" cx="1589.31" cy="932.255" r="14"/>
<circle clip-path="url(#clip1602)" style="fill:#000000; stroke:none; fill-opacity:1" cx="1602.54" cy="893.638" r="18"/>
<circle clip-path="url(#clip1602)" style="fill:#009af9; stroke:none; fill-opacity:1" cx="1602.54" cy="893.638" r="14"/>
<circle clip-path="url(#clip1602)" style="fill:#000000; stroke:none; fill-opacity:1" cx="1615.32" cy="907.295" r="18"/>
<circle clip-path="url(#clip1602)" style="fill:#009af9; stroke:none; fill-opacity:1" cx="1615.32" cy="907.295" r="14"/>
<circle clip-path="url(#clip1602)" style="fill:#000000; stroke:none; fill-opacity:1" cx="1627.68" cy="978.439" r="18"/>
<circle clip-path="url(#clip1602)" style="fill:#009af9; stroke:none; fill-opacity:1" cx="1627.68" cy="978.439" r="14"/>
<circle clip-path="url(#clip1602)" style="fill:#000000; stroke:none; fill-opacity:1" cx="1639.65" cy="884.588" r="18"/>
<circle clip-path="url(#clip1602)" style="fill:#009af9; stroke:none; fill-opacity:1" cx="1639.65" cy="884.588" r="14"/>
<circle clip-path="url(#clip1602)" style="fill:#000000; stroke:none; fill-opacity:1" cx="1651.25" cy="908.561" r="18"/>
<circle clip-path="url(#clip1602)" style="fill:#009af9; stroke:none; fill-opacity:1" cx="1651.25" cy="908.561" r="14"/>
<circle clip-path="url(#clip1602)" style="fill:#000000; stroke:none; fill-opacity:1" cx="1662.51" cy="1104.58" r="18"/>
<circle clip-path="url(#clip1602)" style="fill:#009af9; stroke:none; fill-opacity:1" cx="1662.51" cy="1104.58" r="14"/>
<circle clip-path="url(#clip1602)" style="fill:#000000; stroke:none; fill-opacity:1" cx="1673.44" cy="1165.86" r="18"/>
<circle clip-path="url(#clip1602)" style="fill:#009af9; stroke:none; fill-opacity:1" cx="1673.44" cy="1165.86" r="14"/>
<circle clip-path="url(#clip1602)" style="fill:#000000; stroke:none; fill-opacity:1" cx="1684.06" cy="1101.12" r="18"/>
<circle clip-path="url(#clip1602)" style="fill:#009af9; stroke:none; fill-opacity:1" cx="1684.06" cy="1101.12" r="14"/>
<circle clip-path="url(#clip1602)" style="fill:#000000; stroke:none; fill-opacity:1" cx="1694.39" cy="1151.69" r="18"/>
<circle clip-path="url(#clip1602)" style="fill:#009af9; stroke:none; fill-opacity:1" cx="1694.39" cy="1151.69" r="14"/>
<circle clip-path="url(#clip1602)" style="fill:#000000; stroke:none; fill-opacity:1" cx="1704.44" cy="1313.3" r="18"/>
<circle clip-path="url(#clip1602)" style="fill:#009af9; stroke:none; fill-opacity:1" cx="1704.44" cy="1313.3" r="14"/>
<circle clip-path="url(#clip1602)" style="fill:#000000; stroke:none; fill-opacity:1" cx="1714.23" cy="1178.49" r="18"/>
<circle clip-path="url(#clip1602)" style="fill:#009af9; stroke:none; fill-opacity:1" cx="1714.23" cy="1178.49" r="14"/>
<circle clip-path="url(#clip1602)" style="fill:#000000; stroke:none; fill-opacity:1" cx="1723.78" cy="1290.94" r="18"/>
<circle clip-path="url(#clip1602)" style="fill:#009af9; stroke:none; fill-opacity:1" cx="1723.78" cy="1290.94" r="14"/>
<circle clip-path="url(#clip1602)" style="fill:#000000; stroke:none; fill-opacity:1" cx="1733.09" cy="1134.34" r="18"/>
<circle clip-path="url(#clip1602)" style="fill:#009af9; stroke:none; fill-opacity:1" cx="1733.09" cy="1134.34" r="14"/>
<circle clip-path="url(#clip1602)" style="fill:#000000; stroke:none; fill-opacity:1" cx="1742.17" cy="1247.45" r="18"/>
<circle clip-path="url(#clip1602)" style="fill:#009af9; stroke:none; fill-opacity:1" cx="1742.17" cy="1247.45" r="14"/>
<circle clip-path="url(#clip1602)" style="fill:#000000; stroke:none; fill-opacity:1" cx="1751.04" cy="1165.86" r="18"/>
<circle clip-path="url(#clip1602)" style="fill:#009af9; stroke:none; fill-opacity:1" cx="1751.04" cy="1165.86" r="14"/>
<circle clip-path="url(#clip1602)" style="fill:#000000; stroke:none; fill-opacity:1" cx="1759.71" cy="1398.68" r="18"/>
<circle clip-path="url(#clip1602)" style="fill:#009af9; stroke:none; fill-opacity:1" cx="1759.71" cy="1398.68" r="14"/>
<circle clip-path="url(#clip1602)" style="fill:#000000; stroke:none; fill-opacity:1" cx="1768.18" cy="1118.04" r="18"/>
<circle clip-path="url(#clip1602)" style="fill:#009af9; stroke:none; fill-opacity:1" cx="1768.18" cy="1118.04" r="14"/>
<circle clip-path="url(#clip1602)" style="fill:#000000; stroke:none; fill-opacity:1" cx="1776.47" cy="1212.32" r="18"/>
<circle clip-path="url(#clip1602)" style="fill:#009af9; stroke:none; fill-opacity:1" cx="1776.47" cy="1212.32" r="14"/>
<circle clip-path="url(#clip1602)" style="fill:#000000; stroke:none; fill-opacity:1" cx="1784.58" cy="1151.69" r="18"/>
<circle clip-path="url(#clip1602)" style="fill:#009af9; stroke:none; fill-opacity:1" cx="1784.58" cy="1151.69" r="14"/>
<circle clip-path="url(#clip1602)" style="fill:#000000; stroke:none; fill-opacity:1" cx="1792.52" cy="1183.2" r="18"/>
<circle clip-path="url(#clip1602)" style="fill:#009af9; stroke:none; fill-opacity:1" cx="1792.52" cy="1183.2" r="14"/>
<circle clip-path="url(#clip1602)" style="fill:#000000; stroke:none; fill-opacity:1" cx="1800.29" cy="1199.34" r="18"/>
<circle clip-path="url(#clip1602)" style="fill:#009af9; stroke:none; fill-opacity:1" cx="1800.29" cy="1199.34" r="14"/>
<circle clip-path="url(#clip1602)" style="fill:#000000; stroke:none; fill-opacity:1" cx="1807.91" cy="1344.81" r="18"/>
<circle clip-path="url(#clip1602)" style="fill:#009af9; stroke:none; fill-opacity:1" cx="1807.91" cy="1344.81" r="14"/>
<circle clip-path="url(#clip1602)" style="fill:#000000; stroke:none; fill-opacity:1" cx="1815.37" cy="1122.36" r="18"/>
<circle clip-path="url(#clip1602)" style="fill:#009af9; stroke:none; fill-opacity:1" cx="1815.37" cy="1122.36" r="14"/>
<circle clip-path="url(#clip1602)" style="fill:#000000; stroke:none; fill-opacity:1" cx="1822.69" cy="1148.51" r="18"/>
<circle clip-path="url(#clip1602)" style="fill:#009af9; stroke:none; fill-opacity:1" cx="1822.69" cy="1148.51" r="14"/>
<circle clip-path="url(#clip1602)" style="fill:#000000; stroke:none; fill-opacity:1" cx="1829.87" cy="1174.04" r="18"/>
<circle clip-path="url(#clip1602)" style="fill:#009af9; stroke:none; fill-opacity:1" cx="1829.87" cy="1174.04" r="14"/>
<circle clip-path="url(#clip1602)" style="fill:#000000; stroke:none; fill-opacity:1" cx="1836.92" cy="1199.34" r="18"/>
<circle clip-path="url(#clip1602)" style="fill:#009af9; stroke:none; fill-opacity:1" cx="1836.92" cy="1199.34" r="14"/>
<circle clip-path="url(#clip1602)" style="fill:#000000; stroke:none; fill-opacity:1" cx="1843.84" cy="1188.21" r="18"/>
<circle clip-path="url(#clip1602)" style="fill:#009af9; stroke:none; fill-opacity:1" cx="1843.84" cy="1188.21" r="14"/>
<circle clip-path="url(#clip1602)" style="fill:#000000; stroke:none; fill-opacity:1" cx="1850.63" cy="1247.45" r="18"/>
<circle clip-path="url(#clip1602)" style="fill:#009af9; stroke:none; fill-opacity:1" cx="1850.63" cy="1247.45" r="14"/>
<circle clip-path="url(#clip1602)" style="fill:#000000; stroke:none; fill-opacity:1" cx="1857.31" cy="1290.94" r="18"/>
<circle clip-path="url(#clip1602)" style="fill:#009af9; stroke:none; fill-opacity:1" cx="1857.31" cy="1290.94" r="14"/>
<circle clip-path="url(#clip1602)" style="fill:#000000; stroke:none; fill-opacity:1" cx="1863.86" cy="1398.68" r="18"/>
<circle clip-path="url(#clip1602)" style="fill:#009af9; stroke:none; fill-opacity:1" cx="1863.86" cy="1398.68" r="14"/>
<circle clip-path="url(#clip1602)" style="fill:#000000; stroke:none; fill-opacity:1" cx="1870.31" cy="1398.68" r="18"/>
<circle clip-path="url(#clip1602)" style="fill:#009af9; stroke:none; fill-opacity:1" cx="1870.31" cy="1398.68" r="14"/>
<circle clip-path="url(#clip1602)" style="fill:#000000; stroke:none; fill-opacity:1" cx="1876.64" cy="1237.07" r="18"/>
<circle clip-path="url(#clip1602)" style="fill:#009af9; stroke:none; fill-opacity:1" cx="1876.64" cy="1237.07" r="14"/>
<circle clip-path="url(#clip1602)" style="fill:#000000; stroke:none; fill-opacity:1" cx="1882.88" cy="1129.33" r="18"/>
<circle clip-path="url(#clip1602)" style="fill:#009af9; stroke:none; fill-opacity:1" cx="1882.88" cy="1129.33" r="14"/>
<circle clip-path="url(#clip1602)" style="fill:#000000; stroke:none; fill-opacity:1" cx="1889.01" cy="1290.94" r="18"/>
<circle clip-path="url(#clip1602)" style="fill:#009af9; stroke:none; fill-opacity:1" cx="1889.01" cy="1290.94" r="14"/>
<circle clip-path="url(#clip1602)" style="fill:#000000; stroke:none; fill-opacity:1" cx="1895.04" cy="1148.51" r="18"/>
<circle clip-path="url(#clip1602)" style="fill:#009af9; stroke:none; fill-opacity:1" cx="1895.04" cy="1148.51" r="14"/>
<circle clip-path="url(#clip1602)" style="fill:#000000; stroke:none; fill-opacity:1" cx="1900.98" cy="1199.34" r="18"/>
<circle clip-path="url(#clip1602)" style="fill:#009af9; stroke:none; fill-opacity:1" cx="1900.98" cy="1199.34" r="14"/>
<circle clip-path="url(#clip1602)" style="fill:#000000; stroke:none; fill-opacity:1" cx="1912.58" cy="1398.68" r="18"/>
<circle clip-path="url(#clip1602)" style="fill:#009af9; stroke:none; fill-opacity:1" cx="1912.58" cy="1398.68" r="14"/>
<circle clip-path="url(#clip1602)" style="fill:#000000; stroke:none; fill-opacity:1" cx="1918.25" cy="1237.07" r="18"/>
<circle clip-path="url(#clip1602)" style="fill:#009af9; stroke:none; fill-opacity:1" cx="1918.25" cy="1237.07" r="14"/>
<circle clip-path="url(#clip1602)" style="fill:#000000; stroke:none; fill-opacity:1" cx="1923.83" cy="1313.3" r="18"/>
<circle clip-path="url(#clip1602)" style="fill:#009af9; stroke:none; fill-opacity:1" cx="1923.83" cy="1313.3" r="14"/>
<circle clip-path="url(#clip1602)" style="fill:#000000; stroke:none; fill-opacity:1" cx="1929.34" cy="1344.81" r="18"/>
<circle clip-path="url(#clip1602)" style="fill:#009af9; stroke:none; fill-opacity:1" cx="1929.34" cy="1344.81" r="14"/>
<circle clip-path="url(#clip1602)" style="fill:#000000; stroke:none; fill-opacity:1" cx="1940.11" cy="1398.68" r="18"/>
<circle clip-path="url(#clip1602)" style="fill:#009af9; stroke:none; fill-opacity:1" cx="1940.11" cy="1398.68" r="14"/>
<circle clip-path="url(#clip1602)" style="fill:#000000; stroke:none; fill-opacity:1" cx="1950.58" cy="1344.81" r="18"/>
<circle clip-path="url(#clip1602)" style="fill:#009af9; stroke:none; fill-opacity:1" cx="1950.58" cy="1344.81" r="14"/>
<circle clip-path="url(#clip1602)" style="fill:#000000; stroke:none; fill-opacity:1" cx="1955.71" cy="1344.81" r="18"/>
<circle clip-path="url(#clip1602)" style="fill:#009af9; stroke:none; fill-opacity:1" cx="1955.71" cy="1344.81" r="14"/>
<circle clip-path="url(#clip1602)" style="fill:#000000; stroke:none; fill-opacity:1" cx="1960.77" cy="1344.81" r="18"/>
<circle clip-path="url(#clip1602)" style="fill:#009af9; stroke:none; fill-opacity:1" cx="1960.77" cy="1344.81" r="14"/>
<circle clip-path="url(#clip1602)" style="fill:#000000; stroke:none; fill-opacity:1" cx="1965.76" cy="1193.58" r="18"/>
<circle clip-path="url(#clip1602)" style="fill:#009af9; stroke:none; fill-opacity:1" cx="1965.76" cy="1193.58" r="14"/>
<circle clip-path="url(#clip1602)" style="fill:#000000; stroke:none; fill-opacity:1" cx="1970.69" cy="1165.86" r="18"/>
<circle clip-path="url(#clip1602)" style="fill:#009af9; stroke:none; fill-opacity:1" cx="1970.69" cy="1165.86" r="14"/>
<circle clip-path="url(#clip1602)" style="fill:#000000; stroke:none; fill-opacity:1" cx="1975.56" cy="1139.7" r="18"/>
<circle clip-path="url(#clip1602)" style="fill:#009af9; stroke:none; fill-opacity:1" cx="1975.56" cy="1139.7" r="14"/>
<circle clip-path="url(#clip1602)" style="fill:#000000; stroke:none; fill-opacity:1" cx="1980.36" cy="1259.43" r="18"/>
<circle clip-path="url(#clip1602)" style="fill:#009af9; stroke:none; fill-opacity:1" cx="1980.36" cy="1259.43" r="14"/>
<circle clip-path="url(#clip1602)" style="fill:#000000; stroke:none; fill-opacity:1" cx="1985.1" cy="1398.68" r="18"/>
<circle clip-path="url(#clip1602)" style="fill:#009af9; stroke:none; fill-opacity:1" cx="1985.1" cy="1398.68" r="14"/>
<circle clip-path="url(#clip1602)" style="fill:#000000; stroke:none; fill-opacity:1" cx="1989.79" cy="1162.06" r="18"/>
<circle clip-path="url(#clip1602)" style="fill:#009af9; stroke:none; fill-opacity:1" cx="1989.79" cy="1162.06" r="14"/>
<circle clip-path="url(#clip1602)" style="fill:#000000; stroke:none; fill-opacity:1" cx="1994.41" cy="1183.2" r="18"/>
<circle clip-path="url(#clip1602)" style="fill:#009af9; stroke:none; fill-opacity:1" cx="1994.41" cy="1183.2" r="14"/>
<circle clip-path="url(#clip1602)" style="fill:#000000; stroke:none; fill-opacity:1" cx="1998.98" cy="1290.94" r="18"/>
<circle clip-path="url(#clip1602)" style="fill:#009af9; stroke:none; fill-opacity:1" cx="1998.98" cy="1290.94" r="14"/>
<circle clip-path="url(#clip1602)" style="fill:#000000; stroke:none; fill-opacity:1" cx="2003.5" cy="1273.6" r="18"/>
<circle clip-path="url(#clip1602)" style="fill:#009af9; stroke:none; fill-opacity:1" cx="2003.5" cy="1273.6" r="14"/>
<circle clip-path="url(#clip1602)" style="fill:#000000; stroke:none; fill-opacity:1" cx="2065.44" cy="1290.94" r="18"/>
<circle clip-path="url(#clip1602)" style="fill:#009af9; stroke:none; fill-opacity:1" cx="2065.44" cy="1290.94" r="14"/>
<circle clip-path="url(#clip1602)" style="fill:#000000; stroke:none; fill-opacity:1" cx="2069.23" cy="1237.07" r="18"/>
<circle clip-path="url(#clip1602)" style="fill:#009af9; stroke:none; fill-opacity:1" cx="2069.23" cy="1237.07" r="14"/>
<circle clip-path="url(#clip1602)" style="fill:#000000; stroke:none; fill-opacity:1" cx="2072.98" cy="1247.45" r="18"/>
<circle clip-path="url(#clip1602)" style="fill:#009af9; stroke:none; fill-opacity:1" cx="2072.98" cy="1247.45" r="14"/>
<circle clip-path="url(#clip1602)" style="fill:#000000; stroke:none; fill-opacity:1" cx="2076.7" cy="1398.68" r="18"/>
<circle clip-path="url(#clip1602)" style="fill:#009af9; stroke:none; fill-opacity:1" cx="2076.7" cy="1398.68" r="14"/>
<circle clip-path="url(#clip1602)" style="fill:#000000; stroke:none; fill-opacity:1" cx="2087.62" cy="1398.68" r="18"/>
<circle clip-path="url(#clip1602)" style="fill:#009af9; stroke:none; fill-opacity:1" cx="2087.62" cy="1398.68" r="14"/>
<circle clip-path="url(#clip1602)" style="fill:#000000; stroke:none; fill-opacity:1" cx="2091.2" cy="1398.68" r="18"/>
<circle clip-path="url(#clip1602)" style="fill:#009af9; stroke:none; fill-opacity:1" cx="2091.2" cy="1398.68" r="14"/>
<circle clip-path="url(#clip1602)" style="fill:#000000; stroke:none; fill-opacity:1" cx="2222.09" cy="1398.68" r="18"/>
<circle clip-path="url(#clip1602)" style="fill:#009af9; stroke:none; fill-opacity:1" cx="2222.09" cy="1398.68" r="14"/>
<polyline clip-path="url(#clip1602)" style="stroke:#e26f46; stroke-width:4; stroke-opacity:1; fill:none" points="
  333.035,286.713 352.116,298.316 371.197,309.918 390.279,321.521 409.36,333.123 428.442,344.726 447.523,356.329 466.604,367.931 485.686,379.534 504.767,391.137 
  523.849,402.739 542.93,414.342 562.012,425.944 581.093,437.547 600.174,449.15 619.256,460.752 638.337,472.355 657.419,483.957 676.5,495.56 695.581,507.163 
  714.663,518.765 733.744,530.368 752.826,541.971 771.907,553.573 790.988,565.176 810.07,576.778 829.151,588.381 848.233,599.984 867.314,611.586 886.396,623.189 
  905.477,634.792 924.558,646.394 943.64,657.997 962.721,669.599 981.803,681.202 1000.88,692.805 1019.97,704.407 1039.05,716.01 1058.13,727.613 1077.21,739.215 
  1096.29,750.818 1115.37,762.42 1134.45,774.023 1153.54,785.626 1172.62,797.228 1191.7,808.831 1210.78,820.433 1229.86,832.036 1248.94,843.639 1268.02,855.241 
  1287.11,866.844 1306.19,878.447 1325.27,890.049 1344.35,901.652 1363.43,913.254 1382.51,924.857 1401.59,936.46 1420.67,948.062 1439.76,959.665 1458.84,971.268 
  1477.92,982.87 1497,994.473 1516.08,1006.08 1535.16,1017.68 1554.24,1029.28 1573.33,1040.88 1592.41,1052.49 1611.49,1064.09 1630.57,1075.69 1649.65,1087.29 
  1668.73,1098.9 1687.81,1110.5 1706.9,1122.1 1725.98,1133.7 1745.06,1145.31 1764.14,1156.91 1783.22,1168.51 1802.3,1180.11 1821.38,1191.72 1840.47,1203.32 
  1859.55,1214.92 1878.63,1226.53 1897.71,1238.13 1916.79,1249.73 1935.87,1261.33 1954.95,1272.94 1974.04,1284.54 1993.12,1296.14 2012.2,1307.74 2031.28,1319.35 
  2050.36,1330.95 2069.44,1342.55 2088.52,1354.15 2107.61,1365.76 2126.69,1377.36 2145.77,1388.96 2164.85,1400.56 2183.93,1412.17 2203.01,1423.77 2222.09,1435.37 
  
  "/>
<g clip-path="url(#clip1600)">
<text style="fill:#000000; fill-opacity:1; font-family:Arial,Helvetica Neue,Helvetica,sans-serif; font-size:59px; text-anchor:start;" transform="rotate(0, 333.035, 1366.31)" x="333.035" y="1366.31">r = -0.92</text>
</g>
</svg>
