<?xml version="1.0" encoding="utf-8"?>
<svg xmlns="http://www.w3.org/2000/svg" xmlns:xlink="http://www.w3.org/1999/xlink" width="600" height="400" viewBox="0 0 2400 1600">
<defs>
  <clipPath id="clip7700">
    <rect x="0" y="0" width="2400" height="1600"/>
  </clipPath>
</defs>
<polygon clip-path="url(#clip7700)" points="
0,1600 2400,1600 2400,0 0,0 
  " fill="#ffffff" fill-rule="evenodd" fill-opacity="1"/>
<defs>
  <clipPath id="clip7701">
    <rect x="480" y="0" width="1681" height="1600"/>
  </clipPath>
</defs>
<polygon clip-path="url(#clip7700)" points="
243.864,1425.62 2352.76,1425.62 2352.76,109.1 243.864,109.1 
  " fill="#ffffff" fill-rule="evenodd" fill-opacity="1"/>
<defs>
  <clipPath id="clip7702">
    <rect x="243" y="109" width="2110" height="1318"/>
  </clipPath>
</defs>
<polyline clip-path="url(#clip7702)" style="stroke:#000000; stroke-width:2; stroke-opacity:0.1; fill:none" points="
  352.88,1425.62 352.88,109.1 
  "/>
<polyline clip-path="url(#clip7702)" style="stroke:#000000; stroke-width:2; stroke-opacity:0.1; fill:none" points="
  788.942,1425.62 788.942,109.1 
  "/>
<polyline clip-path="url(#clip7702)" style="stroke:#000000; stroke-width:2; stroke-opacity:0.1; fill:none" points="
  1225.01,1425.62 1225.01,109.1 
  "/>
<polyline clip-path="url(#clip7702)" style="stroke:#000000; stroke-width:2; stroke-opacity:0.1; fill:none" points="
  1661.07,1425.62 1661.07,109.1 
  "/>
<polyline clip-path="url(#clip7702)" style="stroke:#000000; stroke-width:2; stroke-opacity:0.1; fill:none" points="
  2097.13,1425.62 2097.13,109.1 
  "/>
<polyline clip-path="url(#clip7702)" style="stroke:#000000; stroke-width:2; stroke-opacity:0.1; fill:none" points="
  243.864,1425.62 2352.76,1425.62 
  "/>
<polyline clip-path="url(#clip7702)" style="stroke:#000000; stroke-width:2; stroke-opacity:0.1; fill:none" points="
  243.864,1096.49 2352.76,1096.49 
  "/>
<polyline clip-path="url(#clip7702)" style="stroke:#000000; stroke-width:2; stroke-opacity:0.1; fill:none" points="
  243.864,767.359 2352.76,767.359 
  "/>
<polyline clip-path="url(#clip7702)" style="stroke:#000000; stroke-width:2; stroke-opacity:0.1; fill:none" points="
  243.864,438.23 2352.76,438.23 
  "/>
<polyline clip-path="url(#clip7702)" style="stroke:#000000; stroke-width:2; stroke-opacity:0.1; fill:none" points="
  243.864,109.1 2352.76,109.1 
  "/>
<polyline clip-path="url(#clip7700)" style="stroke:#000000; stroke-width:4; stroke-opacity:1; fill:none" points="
  243.864,1425.62 2352.76,1425.62 
  "/>
<polyline clip-path="url(#clip7700)" style="stroke:#000000; stroke-width:4; stroke-opacity:1; fill:none" points="
  243.864,1425.62 243.864,109.1 
  "/>
<polyline clip-path="url(#clip7700)" style="stroke:#000000; stroke-width:4; stroke-opacity:1; fill:none" points="
  352.88,1425.62 352.88,1405.87 
  "/>
<polyline clip-path="url(#clip7700)" style="stroke:#000000; stroke-width:4; stroke-opacity:1; fill:none" points="
  788.942,1425.62 788.942,1405.87 
  "/>
<polyline clip-path="url(#clip7700)" style="stroke:#000000; stroke-width:4; stroke-opacity:1; fill:none" points="
  1225.01,1425.62 1225.01,1405.87 
  "/>
<polyline clip-path="url(#clip7700)" style="stroke:#000000; stroke-width:4; stroke-opacity:1; fill:none" points="
  1661.07,1425.62 1661.07,1405.87 
  "/>
<polyline clip-path="url(#clip7700)" style="stroke:#000000; stroke-width:4; stroke-opacity:1; fill:none" points="
  2097.13,1425.62 2097.13,1405.87 
  "/>
<polyline clip-path="url(#clip7700)" style="stroke:#000000; stroke-width:4; stroke-opacity:1; fill:none" points="
  243.864,1425.62 275.498,1425.62 
  "/>
<polyline clip-path="url(#clip7700)" style="stroke:#000000; stroke-width:4; stroke-opacity:1; fill:none" points="
  243.864,1096.49 275.498,1096.49 
  "/>
<polyline clip-path="url(#clip7700)" style="stroke:#000000; stroke-width:4; stroke-opacity:1; fill:none" points="
  243.864,767.359 275.498,767.359 
  "/>
<polyline clip-path="url(#clip7700)" style="stroke:#000000; stroke-width:4; stroke-opacity:1; fill:none" points="
  243.864,438.23 275.498,438.23 
  "/>
<polyline clip-path="url(#clip7700)" style="stroke:#000000; stroke-width:4; stroke-opacity:1; fill:none" points="
  243.864,109.1 275.498,109.1 
  "/>
<g clip-path="url(#clip7700)">
<text style="fill:#000000; fill-opacity:1; font-family:Arial,Helvetica Neue,Helvetica,sans-serif; font-size:48px; text-anchor:middle;" transform="rotate(0, 352.88, 1479.62)" x="352.88" y="1479.62">0</text>
</g>
<g clip-path="url(#clip7700)">
<text style="fill:#000000; fill-opacity:1; font-family:Arial,Helvetica Neue,Helvetica,sans-serif; font-size:48px; text-anchor:middle;" transform="rotate(0, 788.942, 1479.62)" x="788.942" y="1479.62">2</text>
</g>
<g clip-path="url(#clip7700)">
<text style="fill:#000000; fill-opacity:1; font-family:Arial,Helvetica Neue,Helvetica,sans-serif; font-size:48px; text-anchor:middle;" transform="rotate(0, 1225.01, 1479.62)" x="1225.01" y="1479.62">4</text>
</g>
<g clip-path="url(#clip7700)">
<text style="fill:#000000; fill-opacity:1; font-family:Arial,Helvetica Neue,Helvetica,sans-serif; font-size:48px; text-anchor:middle;" transform="rotate(0, 1661.07, 1479.62)" x="1661.07" y="1479.62">6</text>
</g>
<g clip-path="url(#clip7700)">
<text style="fill:#000000; fill-opacity:1; font-family:Arial,Helvetica Neue,Helvetica,sans-serif; font-size:48px; text-anchor:middle;" transform="rotate(0, 2097.13, 1479.62)" x="2097.13" y="1479.62">8</text>
</g>
<g clip-path="url(#clip7700)">
<text style="fill:#000000; fill-opacity:1; font-family:Arial,Helvetica Neue,Helvetica,sans-serif; font-size:48px; text-anchor:end;" transform="rotate(0, 219.864, 1443.12)" x="219.864" y="1443.12">-0.5</text>
</g>
<g clip-path="url(#clip7700)">
<text style="fill:#000000; fill-opacity:1; font-family:Arial,Helvetica Neue,Helvetica,sans-serif; font-size:48px; text-anchor:end;" transform="rotate(0, 219.864, 1113.99)" x="219.864" y="1113.99">0.0</text>
</g>
<g clip-path="url(#clip7700)">
<text style="fill:#000000; fill-opacity:1; font-family:Arial,Helvetica Neue,Helvetica,sans-serif; font-size:48px; text-anchor:end;" transform="rotate(0, 219.864, 784.859)" x="219.864" y="784.859">0.5</text>
</g>
<g clip-path="url(#clip7700)">
<text style="fill:#000000; fill-opacity:1; font-family:Arial,Helvetica Neue,Helvetica,sans-serif; font-size:48px; text-anchor:end;" transform="rotate(0, 219.864, 455.73)" x="219.864" y="455.73">1.0</text>
</g>
<g clip-path="url(#clip7700)">
<text style="fill:#000000; fill-opacity:1; font-family:Arial,Helvetica Neue,Helvetica,sans-serif; font-size:48px; text-anchor:end;" transform="rotate(0, 219.864, 126.6)" x="219.864" y="126.6">1.5</text>
</g>
<g clip-path="url(#clip7700)">
<text style="fill:#000000; fill-opacity:1; font-family:Arial,Helvetica Neue,Helvetica,sans-serif; font-size:66px; text-anchor:middle;" transform="rotate(0, 1298.31, 57.6)" x="1298.31" y="57.6">GCF_000868425.1_ViralProj17577_genomic.fna.K3.jf.histogram</text>
</g>
<g clip-path="url(#clip7700)">
<text style="fill:#000000; fill-opacity:1; font-family:Arial,Helvetica Neue,Helvetica,sans-serif; font-size:66px; text-anchor:middle;" transform="rotate(0, 1298.31, 1559.48)" x="1298.31" y="1559.48">log2(depth of coverage)</text>
</g>
<g clip-path="url(#clip7700)">
<text style="fill:#000000; fill-opacity:1; font-family:Arial,Helvetica Neue,Helvetica,sans-serif; font-size:66px; text-anchor:middle;" transform="rotate(-90, 89.2861, 767.359)" x="89.2861" y="767.359">log2(# kmers)</text>
</g>
<circle clip-path="url(#clip7702)" style="fill:#000000; stroke:none; fill-opacity:1" cx="1684.73" cy="1096.49" r="18"/>
<circle clip-path="url(#clip7702)" style="fill:#009af9; stroke:none; fill-opacity:1" cx="1684.73" cy="1096.49" r="14"/>
<circle clip-path="url(#clip7702)" style="fill:#000000; stroke:none; fill-opacity:1" cx="1742.84" cy="1096.49" r="18"/>
<circle clip-path="url(#clip7702)" style="fill:#009af9; stroke:none; fill-opacity:1" cx="1742.84" cy="1096.49" r="14"/>
<circle clip-path="url(#clip7702)" style="fill:#000000; stroke:none; fill-opacity:1" cx="1791.87" cy="1096.49" r="18"/>
<circle clip-path="url(#clip7702)" style="fill:#009af9; stroke:none; fill-opacity:1" cx="1791.87" cy="1096.49" r="14"/>
<circle clip-path="url(#clip7702)" style="fill:#000000; stroke:none; fill-opacity:1" cx="1804.58" cy="1096.49" r="18"/>
<circle clip-path="url(#clip7702)" style="fill:#009af9; stroke:none; fill-opacity:1" cx="1804.58" cy="1096.49" r="14"/>
<circle clip-path="url(#clip7702)" style="fill:#000000; stroke:none; fill-opacity:1" cx="1902.76" cy="1096.49" r="18"/>
<circle clip-path="url(#clip7702)" style="fill:#009af9; stroke:none; fill-opacity:1" cx="1902.76" cy="1096.49" r="14"/>
<circle clip-path="url(#clip7702)" style="fill:#000000; stroke:none; fill-opacity:1" cx="1909.53" cy="1096.49" r="18"/>
<circle clip-path="url(#clip7702)" style="fill:#009af9; stroke:none; fill-opacity:1" cx="1909.53" cy="1096.49" r="14"/>
<circle clip-path="url(#clip7702)" style="fill:#000000; stroke:none; fill-opacity:1" cx="1913.96" cy="1096.49" r="18"/>
<circle clip-path="url(#clip7702)" style="fill:#009af9; stroke:none; fill-opacity:1" cx="1913.96" cy="1096.49" r="14"/>
<circle clip-path="url(#clip7702)" style="fill:#000000; stroke:none; fill-opacity:1" cx="1928.99" cy="1096.49" r="18"/>
<circle clip-path="url(#clip7702)" style="fill:#009af9; stroke:none; fill-opacity:1" cx="1928.99" cy="1096.49" r="14"/>
<circle clip-path="url(#clip7702)" style="fill:#000000; stroke:none; fill-opacity:1" cx="1960.87" cy="1096.49" r="18"/>
<circle clip-path="url(#clip7702)" style="fill:#009af9; stroke:none; fill-opacity:1" cx="1960.87" cy="1096.49" r="14"/>
<circle clip-path="url(#clip7702)" style="fill:#000000; stroke:none; fill-opacity:1" cx="1968.36" cy="1096.49" r="18"/>
<circle clip-path="url(#clip7702)" style="fill:#009af9; stroke:none; fill-opacity:1" cx="1968.36" cy="1096.49" r="14"/>
<circle clip-path="url(#clip7702)" style="fill:#000000; stroke:none; fill-opacity:1" cx="1989.81" cy="1096.49" r="18"/>
<circle clip-path="url(#clip7702)" style="fill:#009af9; stroke:none; fill-opacity:1" cx="1989.81" cy="1096.49" r="14"/>
<circle clip-path="url(#clip7702)" style="fill:#000000; stroke:none; fill-opacity:1" cx="2027.25" cy="1096.49" r="18"/>
<circle clip-path="url(#clip7702)" style="fill:#009af9; stroke:none; fill-opacity:1" cx="2027.25" cy="1096.49" r="14"/>
<circle clip-path="url(#clip7702)" style="fill:#000000; stroke:none; fill-opacity:1" cx="2052.31" cy="1096.49" r="18"/>
<circle clip-path="url(#clip7702)" style="fill:#009af9; stroke:none; fill-opacity:1" cx="2052.31" cy="1096.49" r="14"/>
<circle clip-path="url(#clip7702)" style="fill:#000000; stroke:none; fill-opacity:1" cx="2053.72" cy="1096.49" r="18"/>
<circle clip-path="url(#clip7702)" style="fill:#009af9; stroke:none; fill-opacity:1" cx="2053.72" cy="1096.49" r="14"/>
<circle clip-path="url(#clip7702)" style="fill:#000000; stroke:none; fill-opacity:1" cx="2070.21" cy="1096.49" r="18"/>
<circle clip-path="url(#clip7702)" style="fill:#009af9; stroke:none; fill-opacity:1" cx="2070.21" cy="1096.49" r="14"/>
<circle clip-path="url(#clip7702)" style="fill:#000000; stroke:none; fill-opacity:1" cx="2076.83" cy="1096.49" r="18"/>
<circle clip-path="url(#clip7702)" style="fill:#009af9; stroke:none; fill-opacity:1" cx="2076.83" cy="1096.49" r="14"/>
<circle clip-path="url(#clip7702)" style="fill:#000000; stroke:none; fill-opacity:1" cx="2083.32" cy="1096.49" r="18"/>
<circle clip-path="url(#clip7702)" style="fill:#009af9; stroke:none; fill-opacity:1" cx="2083.32" cy="1096.49" r="14"/>
<circle clip-path="url(#clip7702)" style="fill:#000000; stroke:none; fill-opacity:1" cx="2084.6" cy="1096.49" r="18"/>
<circle clip-path="url(#clip7702)" style="fill:#009af9; stroke:none; fill-opacity:1" cx="2084.6" cy="1096.49" r="14"/>
<circle clip-path="url(#clip7702)" style="fill:#000000; stroke:none; fill-opacity:1" cx="2105.62" cy="1096.49" r="18"/>
<circle clip-path="url(#clip7702)" style="fill:#009af9; stroke:none; fill-opacity:1" cx="2105.62" cy="1096.49" r="14"/>
<circle clip-path="url(#clip7702)" style="fill:#000000; stroke:none; fill-opacity:1" cx="2112.71" cy="438.23" r="18"/>
<circle clip-path="url(#clip7702)" style="fill:#009af9; stroke:none; fill-opacity:1" cx="2112.71" cy="438.23" r="14"/>
<circle clip-path="url(#clip7702)" style="fill:#000000; stroke:none; fill-opacity:1" cx="2113.88" cy="1096.49" r="18"/>
<circle clip-path="url(#clip7702)" style="fill:#009af9; stroke:none; fill-opacity:1" cx="2113.88" cy="1096.49" r="14"/>
<circle clip-path="url(#clip7702)" style="fill:#000000; stroke:none; fill-opacity:1" cx="2119.65" cy="1096.49" r="18"/>
<circle clip-path="url(#clip7702)" style="fill:#009af9; stroke:none; fill-opacity:1" cx="2119.65" cy="1096.49" r="14"/>
<circle clip-path="url(#clip7702)" style="fill:#000000; stroke:none; fill-opacity:1" cx="2120.79" cy="1096.49" r="18"/>
<circle clip-path="url(#clip7702)" style="fill:#009af9; stroke:none; fill-opacity:1" cx="2120.79" cy="1096.49" r="14"/>
<circle clip-path="url(#clip7702)" style="fill:#000000; stroke:none; fill-opacity:1" cx="2121.93" cy="1096.49" r="18"/>
<circle clip-path="url(#clip7702)" style="fill:#009af9; stroke:none; fill-opacity:1" cx="2121.93" cy="1096.49" r="14"/>
<circle clip-path="url(#clip7702)" style="fill:#000000; stroke:none; fill-opacity:1" cx="2139.59" cy="1096.49" r="18"/>
<circle clip-path="url(#clip7702)" style="fill:#009af9; stroke:none; fill-opacity:1" cx="2139.59" cy="1096.49" r="14"/>
<circle clip-path="url(#clip7702)" style="fill:#000000; stroke:none; fill-opacity:1" cx="2145.97" cy="1096.49" r="18"/>
<circle clip-path="url(#clip7702)" style="fill:#009af9; stroke:none; fill-opacity:1" cx="2145.97" cy="1096.49" r="14"/>
<circle clip-path="url(#clip7702)" style="fill:#000000; stroke:none; fill-opacity:1" cx="2171.23" cy="1096.49" r="18"/>
<circle clip-path="url(#clip7702)" style="fill:#009af9; stroke:none; fill-opacity:1" cx="2171.23" cy="1096.49" r="14"/>
<circle clip-path="url(#clip7702)" style="fill:#000000; stroke:none; fill-opacity:1" cx="2184.53" cy="1096.49" r="18"/>
<circle clip-path="url(#clip7702)" style="fill:#009af9; stroke:none; fill-opacity:1" cx="2184.53" cy="1096.49" r="14"/>
<circle clip-path="url(#clip7702)" style="fill:#000000; stroke:none; fill-opacity:1" cx="2206.98" cy="1096.49" r="18"/>
<circle clip-path="url(#clip7702)" style="fill:#009af9; stroke:none; fill-opacity:1" cx="2206.98" cy="1096.49" r="14"/>
<circle clip-path="url(#clip7702)" style="fill:#000000; stroke:none; fill-opacity:1" cx="2237.51" cy="1096.49" r="18"/>
<circle clip-path="url(#clip7702)" style="fill:#009af9; stroke:none; fill-opacity:1" cx="2237.51" cy="1096.49" r="14"/>
<circle clip-path="url(#clip7702)" style="fill:#000000; stroke:none; fill-opacity:1" cx="2243.74" cy="1096.49" r="18"/>
<circle clip-path="url(#clip7702)" style="fill:#009af9; stroke:none; fill-opacity:1" cx="2243.74" cy="1096.49" r="14"/>
<polyline clip-path="url(#clip7702)" style="stroke:#e26f46; stroke-width:4; stroke-opacity:1; fill:none" points="
  1684.73,1104.41 1690.38,1103.94 1696.02,1103.46 1701.67,1102.99 1707.32,1102.52 1712.96,1102.05 1718.61,1101.58 1724.26,1101.11 1729.9,1100.64 1735.55,1100.17 
  1741.2,1099.7 1746.84,1099.23 1752.49,1098.76 1758.13,1098.29 1763.78,1097.82 1769.43,1097.35 1775.07,1096.88 1780.72,1096.41 1786.37,1095.94 1792.01,1095.47 
  1797.66,1094.99 1803.31,1094.52 1808.95,1094.05 1814.6,1093.58 1820.25,1093.11 1825.89,1092.64 1831.54,1092.17 1837.19,1091.7 1842.83,1091.23 1848.48,1090.76 
  1854.13,1090.29 1859.77,1089.82 1865.42,1089.35 1871.07,1088.88 1876.71,1088.41 1882.36,1087.94 1888.01,1087.47 1893.65,1087 1899.3,1086.52 1904.95,1086.05 
  1910.59,1085.58 1916.24,1085.11 1921.89,1084.64 1927.53,1084.17 1933.18,1083.7 1938.83,1083.23 1944.47,1082.76 1950.12,1082.29 1955.77,1081.82 1961.41,1081.35 
  1967.06,1080.88 1972.7,1080.41 1978.35,1079.94 1984,1079.47 1989.64,1079 1995.29,1078.53 2000.94,1078.05 2006.58,1077.58 2012.23,1077.11 2017.88,1076.64 
  2023.52,1076.17 2029.17,1075.7 2034.82,1075.23 2040.46,1074.76 2046.11,1074.29 2051.76,1073.82 2057.4,1073.35 2063.05,1072.88 2068.7,1072.41 2074.34,1071.94 
  2079.99,1071.47 2085.64,1071 2091.28,1070.53 2096.93,1070.06 2102.58,1069.58 2108.22,1069.11 2113.87,1068.64 2119.52,1068.17 2125.16,1067.7 2130.81,1067.23 
  2136.46,1066.76 2142.1,1066.29 2147.75,1065.82 2153.4,1065.35 2159.04,1064.88 2164.69,1064.41 2170.33,1063.94 2175.98,1063.47 2181.63,1063 2187.27,1062.53 
  2192.92,1062.06 2198.57,1061.59 2204.21,1061.12 2209.86,1060.64 2215.51,1060.17 2221.15,1059.7 2226.8,1059.23 2232.45,1058.76 2238.09,1058.29 2243.74,1057.82 
  
  "/>
<g clip-path="url(#clip7700)">
<text style="fill:#000000; fill-opacity:1; font-family:Arial,Helvetica Neue,Helvetica,sans-serif; font-size:59px; text-anchor:start;" transform="rotate(0, 352.88, 459.73)" x="352.88" y="459.73">r = 0.1</text>
</g>
</svg>
