<?xml version="1.0" encoding="utf-8"?>
<svg xmlns="http://www.w3.org/2000/svg" xmlns:xlink="http://www.w3.org/1999/xlink" width="600" height="400" viewBox="0 0 2400 1600">
<defs>
  <clipPath id="clip3200">
    <rect x="0" y="0" width="2400" height="1600"/>
  </clipPath>
</defs>
<polygon clip-path="url(#clip3200)" points="
0,1600 2400,1600 2400,0 0,0 
  " fill="#ffffff" fill-rule="evenodd" fill-opacity="1"/>
<defs>
  <clipPath id="clip3201">
    <rect x="480" y="0" width="1681" height="1600"/>
  </clipPath>
</defs>
<polygon clip-path="url(#clip3200)" points="
202.373,1425.62 2352.76,1425.62 2352.76,109.1 202.373,109.1 
  " fill="#ffffff" fill-rule="evenodd" fill-opacity="1"/>
<defs>
  <clipPath id="clip3202">
    <rect x="202" y="109" width="2151" height="1318"/>
  </clipPath>
</defs>
<polyline clip-path="url(#clip3202)" style="stroke:#000000; stroke-width:2; stroke-opacity:0.1; fill:none" points="
  296.36,1425.62 296.36,109.1 
  "/>
<polyline clip-path="url(#clip3202)" style="stroke:#000000; stroke-width:2; stroke-opacity:0.1; fill:none" points="
  766.293,1425.62 766.293,109.1 
  "/>
<polyline clip-path="url(#clip3202)" style="stroke:#000000; stroke-width:2; stroke-opacity:0.1; fill:none" points="
  1236.23,1425.62 1236.23,109.1 
  "/>
<polyline clip-path="url(#clip3202)" style="stroke:#000000; stroke-width:2; stroke-opacity:0.1; fill:none" points="
  1706.16,1425.62 1706.16,109.1 
  "/>
<polyline clip-path="url(#clip3202)" style="stroke:#000000; stroke-width:2; stroke-opacity:0.1; fill:none" points="
  2176.09,1425.62 2176.09,109.1 
  "/>
<polyline clip-path="url(#clip3202)" style="stroke:#000000; stroke-width:2; stroke-opacity:0.1; fill:none" points="
  202.373,1398.65 2352.76,1398.65 
  "/>
<polyline clip-path="url(#clip3202)" style="stroke:#000000; stroke-width:2; stroke-opacity:0.1; fill:none" points="
  202.373,1128.99 2352.76,1128.99 
  "/>
<polyline clip-path="url(#clip3202)" style="stroke:#000000; stroke-width:2; stroke-opacity:0.1; fill:none" points="
  202.373,859.334 2352.76,859.334 
  "/>
<polyline clip-path="url(#clip3202)" style="stroke:#000000; stroke-width:2; stroke-opacity:0.1; fill:none" points="
  202.373,589.675 2352.76,589.675 
  "/>
<polyline clip-path="url(#clip3202)" style="stroke:#000000; stroke-width:2; stroke-opacity:0.1; fill:none" points="
  202.373,320.016 2352.76,320.016 
  "/>
<polyline clip-path="url(#clip3200)" style="stroke:#000000; stroke-width:4; stroke-opacity:1; fill:none" points="
  202.373,1425.62 2352.76,1425.62 
  "/>
<polyline clip-path="url(#clip3200)" style="stroke:#000000; stroke-width:4; stroke-opacity:1; fill:none" points="
  202.373,1425.62 202.373,109.1 
  "/>
<polyline clip-path="url(#clip3200)" style="stroke:#000000; stroke-width:4; stroke-opacity:1; fill:none" points="
  296.36,1425.62 296.36,1405.87 
  "/>
<polyline clip-path="url(#clip3200)" style="stroke:#000000; stroke-width:4; stroke-opacity:1; fill:none" points="
  766.293,1425.62 766.293,1405.87 
  "/>
<polyline clip-path="url(#clip3200)" style="stroke:#000000; stroke-width:4; stroke-opacity:1; fill:none" points="
  1236.23,1425.62 1236.23,1405.87 
  "/>
<polyline clip-path="url(#clip3200)" style="stroke:#000000; stroke-width:4; stroke-opacity:1; fill:none" points="
  1706.16,1425.62 1706.16,1405.87 
  "/>
<polyline clip-path="url(#clip3200)" style="stroke:#000000; stroke-width:4; stroke-opacity:1; fill:none" points="
  2176.09,1425.62 2176.09,1405.87 
  "/>
<polyline clip-path="url(#clip3200)" style="stroke:#000000; stroke-width:4; stroke-opacity:1; fill:none" points="
  202.373,1398.65 234.629,1398.65 
  "/>
<polyline clip-path="url(#clip3200)" style="stroke:#000000; stroke-width:4; stroke-opacity:1; fill:none" points="
  202.373,1128.99 234.629,1128.99 
  "/>
<polyline clip-path="url(#clip3200)" style="stroke:#000000; stroke-width:4; stroke-opacity:1; fill:none" points="
  202.373,859.334 234.629,859.334 
  "/>
<polyline clip-path="url(#clip3200)" style="stroke:#000000; stroke-width:4; stroke-opacity:1; fill:none" points="
  202.373,589.675 234.629,589.675 
  "/>
<polyline clip-path="url(#clip3200)" style="stroke:#000000; stroke-width:4; stroke-opacity:1; fill:none" points="
  202.373,320.016 234.629,320.016 
  "/>
<g clip-path="url(#clip3200)">
<text style="fill:#000000; fill-opacity:1; font-family:Arial,Helvetica Neue,Helvetica,sans-serif; font-size:48px; text-anchor:middle;" transform="rotate(0, 296.36, 1479.62)" x="296.36" y="1479.62">0.0</text>
</g>
<g clip-path="url(#clip3200)">
<text style="fill:#000000; fill-opacity:1; font-family:Arial,Helvetica Neue,Helvetica,sans-serif; font-size:48px; text-anchor:middle;" transform="rotate(0, 766.293, 1479.62)" x="766.293" y="1479.62">2.5</text>
</g>
<g clip-path="url(#clip3200)">
<text style="fill:#000000; fill-opacity:1; font-family:Arial,Helvetica Neue,Helvetica,sans-serif; font-size:48px; text-anchor:middle;" transform="rotate(0, 1236.23, 1479.62)" x="1236.23" y="1479.62">5.0</text>
</g>
<g clip-path="url(#clip3200)">
<text style="fill:#000000; fill-opacity:1; font-family:Arial,Helvetica Neue,Helvetica,sans-serif; font-size:48px; text-anchor:middle;" transform="rotate(0, 1706.16, 1479.62)" x="1706.16" y="1479.62">7.5</text>
</g>
<g clip-path="url(#clip3200)">
<text style="fill:#000000; fill-opacity:1; font-family:Arial,Helvetica Neue,Helvetica,sans-serif; font-size:48px; text-anchor:middle;" transform="rotate(0, 2176.09, 1479.62)" x="2176.09" y="1479.62">10.0</text>
</g>
<g clip-path="url(#clip3200)">
<text style="fill:#000000; fill-opacity:1; font-family:Arial,Helvetica Neue,Helvetica,sans-serif; font-size:48px; text-anchor:end;" transform="rotate(0, 178.373, 1416.15)" x="178.373" y="1416.15">0</text>
</g>
<g clip-path="url(#clip3200)">
<text style="fill:#000000; fill-opacity:1; font-family:Arial,Helvetica Neue,Helvetica,sans-serif; font-size:48px; text-anchor:end;" transform="rotate(0, 178.373, 1146.49)" x="178.373" y="1146.49">5</text>
</g>
<g clip-path="url(#clip3200)">
<text style="fill:#000000; fill-opacity:1; font-family:Arial,Helvetica Neue,Helvetica,sans-serif; font-size:48px; text-anchor:end;" transform="rotate(0, 178.373, 876.834)" x="178.373" y="876.834">10</text>
</g>
<g clip-path="url(#clip3200)">
<text style="fill:#000000; fill-opacity:1; font-family:Arial,Helvetica Neue,Helvetica,sans-serif; font-size:48px; text-anchor:end;" transform="rotate(0, 178.373, 607.175)" x="178.373" y="607.175">15</text>
</g>
<g clip-path="url(#clip3200)">
<text style="fill:#000000; fill-opacity:1; font-family:Arial,Helvetica Neue,Helvetica,sans-serif; font-size:48px; text-anchor:end;" transform="rotate(0, 178.373, 337.516)" x="178.373" y="337.516">20</text>
</g>
<g clip-path="url(#clip3200)">
<text style="fill:#000000; fill-opacity:1; font-family:Arial,Helvetica Neue,Helvetica,sans-serif; font-size:66px; text-anchor:middle;" transform="rotate(0, 1277.56, 57.6)" x="1277.56" y="57.6">GCF_000146045.2_R64_genomic.fna.K17.jf.histogram</text>
</g>
<g clip-path="url(#clip3200)">
<text style="fill:#000000; fill-opacity:1; font-family:Arial,Helvetica Neue,Helvetica,sans-serif; font-size:66px; text-anchor:middle;" transform="rotate(0, 1277.56, 1559.48)" x="1277.56" y="1559.48">log2(depth of coverage)</text>
</g>
<g clip-path="url(#clip3200)">
<text style="fill:#000000; fill-opacity:1; font-family:Arial,Helvetica Neue,Helvetica,sans-serif; font-size:66px; text-anchor:middle;" transform="rotate(-90, 89.2861, 767.359)" x="89.2861" y="767.359">log2(# kmers)</text>
</g>
<circle clip-path="url(#clip3202)" style="fill:#000000; stroke:none; fill-opacity:1" cx="296.36" cy="136.066" r="18"/>
<circle clip-path="url(#clip3202)" style="fill:#009af9; stroke:none; fill-opacity:1" cx="296.36" cy="136.066" r="14"/>
<circle clip-path="url(#clip3202)" style="fill:#000000; stroke:none; fill-opacity:1" cx="484.333" cy="458.501" r="18"/>
<circle clip-path="url(#clip3202)" style="fill:#009af9; stroke:none; fill-opacity:1" cx="484.333" cy="458.501" r="14"/>
<circle clip-path="url(#clip3202)" style="fill:#000000; stroke:none; fill-opacity:1" cx="594.29" cy="580.336" r="18"/>
<circle clip-path="url(#clip3202)" style="fill:#009af9; stroke:none; fill-opacity:1" cx="594.29" cy="580.336" r="14"/>
<circle clip-path="url(#clip3202)" style="fill:#000000; stroke:none; fill-opacity:1" cx="672.306" cy="667.674" r="18"/>
<circle clip-path="url(#clip3202)" style="fill:#009af9; stroke:none; fill-opacity:1" cx="672.306" cy="667.674" r="14"/>
<circle clip-path="url(#clip3202)" style="fill:#000000; stroke:none; fill-opacity:1" cx="732.82" cy="758.483" r="18"/>
<circle clip-path="url(#clip3202)" style="fill:#009af9; stroke:none; fill-opacity:1" cx="732.82" cy="758.483" r="14"/>
<circle clip-path="url(#clip3202)" style="fill:#000000; stroke:none; fill-opacity:1" cx="782.264" cy="783.18" r="18"/>
<circle clip-path="url(#clip3202)" style="fill:#009af9; stroke:none; fill-opacity:1" cx="782.264" cy="783.18" r="14"/>
<circle clip-path="url(#clip3202)" style="fill:#000000; stroke:none; fill-opacity:1" cx="824.067" cy="801.693" r="18"/>
<circle clip-path="url(#clip3202)" style="fill:#009af9; stroke:none; fill-opacity:1" cx="824.067" cy="801.693" r="14"/>
<circle clip-path="url(#clip3202)" style="fill:#000000; stroke:none; fill-opacity:1" cx="860.28" cy="815.058" r="18"/>
<circle clip-path="url(#clip3202)" style="fill:#009af9; stroke:none; fill-opacity:1" cx="860.28" cy="815.058" r="14"/>
<circle clip-path="url(#clip3202)" style="fill:#000000; stroke:none; fill-opacity:1" cx="892.221" cy="837.657" r="18"/>
<circle clip-path="url(#clip3202)" style="fill:#009af9; stroke:none; fill-opacity:1" cx="892.221" cy="837.657" r="14"/>
<circle clip-path="url(#clip3202)" style="fill:#000000; stroke:none; fill-opacity:1" cx="920.793" cy="862.99" r="18"/>
<circle clip-path="url(#clip3202)" style="fill:#009af9; stroke:none; fill-opacity:1" cx="920.793" cy="862.99" r="14"/>
<circle clip-path="url(#clip3202)" style="fill:#000000; stroke:none; fill-opacity:1" cx="946.64" cy="807.209" r="18"/>
<circle clip-path="url(#clip3202)" style="fill:#009af9; stroke:none; fill-opacity:1" cx="946.64" cy="807.209" r="14"/>
<circle clip-path="url(#clip3202)" style="fill:#000000; stroke:none; fill-opacity:1" cx="970.237" cy="853.976" r="18"/>
<circle clip-path="url(#clip3202)" style="fill:#009af9; stroke:none; fill-opacity:1" cx="970.237" cy="853.976" r="14"/>
<circle clip-path="url(#clip3202)" style="fill:#000000; stroke:none; fill-opacity:1" cx="991.944" cy="774.134" r="18"/>
<circle clip-path="url(#clip3202)" style="fill:#009af9; stroke:none; fill-opacity:1" cx="991.944" cy="774.134" r="14"/>
<circle clip-path="url(#clip3202)" style="fill:#000000; stroke:none; fill-opacity:1" cx="1012.04" cy="889.826" r="18"/>
<circle clip-path="url(#clip3202)" style="fill:#009af9; stroke:none; fill-opacity:1" cx="1012.04" cy="889.826" r="14"/>
<circle clip-path="url(#clip3202)" style="fill:#000000; stroke:none; fill-opacity:1" cx="1030.75" cy="883.98" r="18"/>
<circle clip-path="url(#clip3202)" style="fill:#009af9; stroke:none; fill-opacity:1" cx="1030.75" cy="883.98" r="14"/>
<circle clip-path="url(#clip3202)" style="fill:#000000; stroke:none; fill-opacity:1" cx="1048.25" cy="867.752" r="18"/>
<circle clip-path="url(#clip3202)" style="fill:#009af9; stroke:none; fill-opacity:1" cx="1048.25" cy="867.752" r="14"/>
<circle clip-path="url(#clip3202)" style="fill:#000000; stroke:none; fill-opacity:1" cx="1064.69" cy="901.185" r="18"/>
<circle clip-path="url(#clip3202)" style="fill:#009af9; stroke:none; fill-opacity:1" cx="1064.69" cy="901.185" r="14"/>
<circle clip-path="url(#clip3202)" style="fill:#000000; stroke:none; fill-opacity:1" cx="1080.19" cy="868.177" r="18"/>
<circle clip-path="url(#clip3202)" style="fill:#009af9; stroke:none; fill-opacity:1" cx="1080.19" cy="868.177" r="14"/>
<circle clip-path="url(#clip3202)" style="fill:#000000; stroke:none; fill-opacity:1" cx="1094.86" cy="791.267" r="18"/>
<circle clip-path="url(#clip3202)" style="fill:#009af9; stroke:none; fill-opacity:1" cx="1094.86" cy="791.267" r="14"/>
<circle clip-path="url(#clip3202)" style="fill:#000000; stroke:none; fill-opacity:1" cx="1108.77" cy="959.672" r="18"/>
<circle clip-path="url(#clip3202)" style="fill:#009af9; stroke:none; fill-opacity:1" cx="1108.77" cy="959.672" r="14"/>
<circle clip-path="url(#clip3202)" style="fill:#000000; stroke:none; fill-opacity:1" cx="1122" cy="959.396" r="18"/>
<circle clip-path="url(#clip3202)" style="fill:#009af9; stroke:none; fill-opacity:1" cx="1122" cy="959.396" r="14"/>
<circle clip-path="url(#clip3202)" style="fill:#000000; stroke:none; fill-opacity:1" cx="1134.61" cy="1005.24" r="18"/>
<circle clip-path="url(#clip3202)" style="fill:#009af9; stroke:none; fill-opacity:1" cx="1134.61" cy="1005.24" r="14"/>
<circle clip-path="url(#clip3202)" style="fill:#000000; stroke:none; fill-opacity:1" cx="1146.67" cy="961.345" r="18"/>
<circle clip-path="url(#clip3202)" style="fill:#009af9; stroke:none; fill-opacity:1" cx="1146.67" cy="961.345" r="14"/>
<circle clip-path="url(#clip3202)" style="fill:#000000; stroke:none; fill-opacity:1" cx="1158.21" cy="1000.9" r="18"/>
<circle clip-path="url(#clip3202)" style="fill:#009af9; stroke:none; fill-opacity:1" cx="1158.21" cy="1000.9" r="14"/>
<circle clip-path="url(#clip3202)" style="fill:#000000; stroke:none; fill-opacity:1" cx="1169.28" cy="975.531" r="18"/>
<circle clip-path="url(#clip3202)" style="fill:#009af9; stroke:none; fill-opacity:1" cx="1169.28" cy="975.531" r="14"/>
<circle clip-path="url(#clip3202)" style="fill:#000000; stroke:none; fill-opacity:1" cx="1179.92" cy="966.895" r="18"/>
<circle clip-path="url(#clip3202)" style="fill:#009af9; stroke:none; fill-opacity:1" cx="1179.92" cy="966.895" r="14"/>
<circle clip-path="url(#clip3202)" style="fill:#000000; stroke:none; fill-opacity:1" cx="1190.15" cy="992.893" r="18"/>
<circle clip-path="url(#clip3202)" style="fill:#009af9; stroke:none; fill-opacity:1" cx="1190.15" cy="992.893" r="14"/>
<circle clip-path="url(#clip3202)" style="fill:#000000; stroke:none; fill-opacity:1" cx="1200.01" cy="937.703" r="18"/>
<circle clip-path="url(#clip3202)" style="fill:#009af9; stroke:none; fill-opacity:1" cx="1200.01" cy="937.703" r="14"/>
<circle clip-path="url(#clip3202)" style="fill:#000000; stroke:none; fill-opacity:1" cx="1209.53" cy="894.818" r="18"/>
<circle clip-path="url(#clip3202)" style="fill:#009af9; stroke:none; fill-opacity:1" cx="1209.53" cy="894.818" r="14"/>
<circle clip-path="url(#clip3202)" style="fill:#000000; stroke:none; fill-opacity:1" cx="1218.72" cy="904.372" r="18"/>
<circle clip-path="url(#clip3202)" style="fill:#009af9; stroke:none; fill-opacity:1" cx="1218.72" cy="904.372" r="14"/>
<circle clip-path="url(#clip3202)" style="fill:#000000; stroke:none; fill-opacity:1" cx="1227.62" cy="971.253" r="18"/>
<circle clip-path="url(#clip3202)" style="fill:#009af9; stroke:none; fill-opacity:1" cx="1227.62" cy="971.253" r="14"/>
<circle clip-path="url(#clip3202)" style="fill:#000000; stroke:none; fill-opacity:1" cx="1236.23" cy="867.583" r="18"/>
<circle clip-path="url(#clip3202)" style="fill:#009af9; stroke:none; fill-opacity:1" cx="1236.23" cy="867.583" r="14"/>
<circle clip-path="url(#clip3202)" style="fill:#000000; stroke:none; fill-opacity:1" cx="1244.57" cy="874.746" r="18"/>
<circle clip-path="url(#clip3202)" style="fill:#009af9; stroke:none; fill-opacity:1" cx="1244.57" cy="874.746" r="14"/>
<circle clip-path="url(#clip3202)" style="fill:#000000; stroke:none; fill-opacity:1" cx="1252.67" cy="1041.12" r="18"/>
<circle clip-path="url(#clip3202)" style="fill:#009af9; stroke:none; fill-opacity:1" cx="1252.67" cy="1041.12" r="14"/>
<circle clip-path="url(#clip3202)" style="fill:#000000; stroke:none; fill-opacity:1" cx="1260.53" cy="1139.38" r="18"/>
<circle clip-path="url(#clip3202)" style="fill:#009af9; stroke:none; fill-opacity:1" cx="1260.53" cy="1139.38" r="14"/>
<circle clip-path="url(#clip3202)" style="fill:#000000; stroke:none; fill-opacity:1" cx="1268.17" cy="1088.28" r="18"/>
<circle clip-path="url(#clip3202)" style="fill:#009af9; stroke:none; fill-opacity:1" cx="1268.17" cy="1088.28" r="14"/>
<circle clip-path="url(#clip3202)" style="fill:#000000; stroke:none; fill-opacity:1" cx="1275.6" cy="1142.21" r="18"/>
<circle clip-path="url(#clip3202)" style="fill:#009af9; stroke:none; fill-opacity:1" cx="1275.6" cy="1142.21" r="14"/>
<circle clip-path="url(#clip3202)" style="fill:#000000; stroke:none; fill-opacity:1" cx="1282.83" cy="1165.56" r="18"/>
<circle clip-path="url(#clip3202)" style="fill:#009af9; stroke:none; fill-opacity:1" cx="1282.83" cy="1165.56" r="14"/>
<circle clip-path="url(#clip3202)" style="fill:#000000; stroke:none; fill-opacity:1" cx="1289.87" cy="1142.21" r="18"/>
<circle clip-path="url(#clip3202)" style="fill:#009af9; stroke:none; fill-opacity:1" cx="1289.87" cy="1142.21" r="14"/>
<circle clip-path="url(#clip3202)" style="fill:#000000; stroke:none; fill-opacity:1" cx="1296.74" cy="1154.69" r="18"/>
<circle clip-path="url(#clip3202)" style="fill:#009af9; stroke:none; fill-opacity:1" cx="1296.74" cy="1154.69" r="14"/>
<circle clip-path="url(#clip3202)" style="fill:#000000; stroke:none; fill-opacity:1" cx="1303.44" cy="1095.84" r="18"/>
<circle clip-path="url(#clip3202)" style="fill:#009af9; stroke:none; fill-opacity:1" cx="1303.44" cy="1095.84" r="14"/>
<circle clip-path="url(#clip3202)" style="fill:#000000; stroke:none; fill-opacity:1" cx="1309.97" cy="1161.77" r="18"/>
<circle clip-path="url(#clip3202)" style="fill:#009af9; stroke:none; fill-opacity:1" cx="1309.97" cy="1161.77" r="14"/>
<circle clip-path="url(#clip3202)" style="fill:#000000; stroke:none; fill-opacity:1" cx="1316.35" cy="1113.6" r="18"/>
<circle clip-path="url(#clip3202)" style="fill:#009af9; stroke:none; fill-opacity:1" cx="1316.35" cy="1113.6" r="14"/>
<circle clip-path="url(#clip3202)" style="fill:#000000; stroke:none; fill-opacity:1" cx="1322.59" cy="1142.21" r="18"/>
<circle clip-path="url(#clip3202)" style="fill:#009af9; stroke:none; fill-opacity:1" cx="1322.59" cy="1142.21" r="14"/>
<circle clip-path="url(#clip3202)" style="fill:#000000; stroke:none; fill-opacity:1" cx="1328.68" cy="1045.15" r="18"/>
<circle clip-path="url(#clip3202)" style="fill:#009af9; stroke:none; fill-opacity:1" cx="1328.68" cy="1045.15" r="14"/>
<circle clip-path="url(#clip3202)" style="fill:#000000; stroke:none; fill-opacity:1" cx="1334.64" cy="1247.25" r="18"/>
<circle clip-path="url(#clip3202)" style="fill:#009af9; stroke:none; fill-opacity:1" cx="1334.64" cy="1247.25" r="14"/>
<circle clip-path="url(#clip3202)" style="fill:#000000; stroke:none; fill-opacity:1" cx="1340.47" cy="1236.86" r="18"/>
<circle clip-path="url(#clip3202)" style="fill:#009af9; stroke:none; fill-opacity:1" cx="1340.47" cy="1236.86" r="14"/>
<circle clip-path="url(#clip3202)" style="fill:#000000; stroke:none; fill-opacity:1" cx="1346.18" cy="1169.55" r="18"/>
<circle clip-path="url(#clip3202)" style="fill:#009af9; stroke:none; fill-opacity:1" cx="1346.18" cy="1169.55" r="14"/>
<circle clip-path="url(#clip3202)" style="fill:#000000; stroke:none; fill-opacity:1" cx="1351.78" cy="1187.95" r="18"/>
<circle clip-path="url(#clip3202)" style="fill:#009af9; stroke:none; fill-opacity:1" cx="1351.78" cy="1187.95" r="14"/>
<circle clip-path="url(#clip3202)" style="fill:#000000; stroke:none; fill-opacity:1" cx="1357.25" cy="1165.56" r="18"/>
<circle clip-path="url(#clip3202)" style="fill:#009af9; stroke:none; fill-opacity:1" cx="1357.25" cy="1165.56" r="14"/>
<circle clip-path="url(#clip3202)" style="fill:#000000; stroke:none; fill-opacity:1" cx="1362.62" cy="1259.24" r="18"/>
<circle clip-path="url(#clip3202)" style="fill:#009af9; stroke:none; fill-opacity:1" cx="1362.62" cy="1259.24" r="14"/>
<circle clip-path="url(#clip3202)" style="fill:#000000; stroke:none; fill-opacity:1" cx="1367.89" cy="1182.93" r="18"/>
<circle clip-path="url(#clip3202)" style="fill:#009af9; stroke:none; fill-opacity:1" cx="1367.89" cy="1182.93" r="14"/>
<circle clip-path="url(#clip3202)" style="fill:#000000; stroke:none; fill-opacity:1" cx="1373.06" cy="1187.95" r="18"/>
<circle clip-path="url(#clip3202)" style="fill:#009af9; stroke:none; fill-opacity:1" cx="1373.06" cy="1187.95" r="14"/>
<circle clip-path="url(#clip3202)" style="fill:#000000; stroke:none; fill-opacity:1" cx="1378.12" cy="1227.69" r="18"/>
<circle clip-path="url(#clip3202)" style="fill:#009af9; stroke:none; fill-opacity:1" cx="1378.12" cy="1227.69" r="14"/>
<circle clip-path="url(#clip3202)" style="fill:#000000; stroke:none; fill-opacity:1" cx="1383.1" cy="1212.08" r="18"/>
<circle clip-path="url(#clip3202)" style="fill:#009af9; stroke:none; fill-opacity:1" cx="1383.1" cy="1212.08" r="14"/>
<circle clip-path="url(#clip3202)" style="fill:#000000; stroke:none; fill-opacity:1" cx="1387.99" cy="1193.32" r="18"/>
<circle clip-path="url(#clip3202)" style="fill:#009af9; stroke:none; fill-opacity:1" cx="1387.99" cy="1193.32" r="14"/>
<circle clip-path="url(#clip3202)" style="fill:#000000; stroke:none; fill-opacity:1" cx="1392.79" cy="1205.31" r="18"/>
<circle clip-path="url(#clip3202)" style="fill:#009af9; stroke:none; fill-opacity:1" cx="1392.79" cy="1205.31" r="14"/>
<circle clip-path="url(#clip3202)" style="fill:#000000; stroke:none; fill-opacity:1" cx="1397.5" cy="1161.77" r="18"/>
<circle clip-path="url(#clip3202)" style="fill:#009af9; stroke:none; fill-opacity:1" cx="1397.5" cy="1161.77" r="14"/>
<circle clip-path="url(#clip3202)" style="fill:#000000; stroke:none; fill-opacity:1" cx="1402.14" cy="1169.55" r="18"/>
<circle clip-path="url(#clip3202)" style="fill:#009af9; stroke:none; fill-opacity:1" cx="1402.14" cy="1169.55" r="14"/>
<circle clip-path="url(#clip3202)" style="fill:#000000; stroke:none; fill-opacity:1" cx="1406.7" cy="1219.5" r="18"/>
<circle clip-path="url(#clip3202)" style="fill:#009af9; stroke:none; fill-opacity:1" cx="1406.7" cy="1219.5" r="14"/>
<circle clip-path="url(#clip3202)" style="fill:#000000; stroke:none; fill-opacity:1" cx="1411.18" cy="1165.56" r="18"/>
<circle clip-path="url(#clip3202)" style="fill:#009af9; stroke:none; fill-opacity:1" cx="1411.18" cy="1165.56" r="14"/>
<circle clip-path="url(#clip3202)" style="fill:#000000; stroke:none; fill-opacity:1" cx="1415.59" cy="1165.56" r="18"/>
<circle clip-path="url(#clip3202)" style="fill:#009af9; stroke:none; fill-opacity:1" cx="1415.59" cy="1165.56" r="14"/>
<circle clip-path="url(#clip3202)" style="fill:#000000; stroke:none; fill-opacity:1" cx="1419.93" cy="1178.21" r="18"/>
<circle clip-path="url(#clip3202)" style="fill:#009af9; stroke:none; fill-opacity:1" cx="1419.93" cy="1178.21" r="14"/>
<circle clip-path="url(#clip3202)" style="fill:#000000; stroke:none; fill-opacity:1" cx="1424.2" cy="1142.21" r="18"/>
<circle clip-path="url(#clip3202)" style="fill:#009af9; stroke:none; fill-opacity:1" cx="1424.2" cy="1142.21" r="14"/>
<circle clip-path="url(#clip3202)" style="fill:#000000; stroke:none; fill-opacity:1" cx="1428.4" cy="1199.08" r="18"/>
<circle clip-path="url(#clip3202)" style="fill:#009af9; stroke:none; fill-opacity:1" cx="1428.4" cy="1199.08" r="14"/>
<circle clip-path="url(#clip3202)" style="fill:#000000; stroke:none; fill-opacity:1" cx="1436.62" cy="1193.32" r="18"/>
<circle clip-path="url(#clip3202)" style="fill:#009af9; stroke:none; fill-opacity:1" cx="1436.62" cy="1193.32" r="14"/>
<circle clip-path="url(#clip3202)" style="fill:#000000; stroke:none; fill-opacity:1" cx="1440.64" cy="1187.95" r="18"/>
<circle clip-path="url(#clip3202)" style="fill:#009af9; stroke:none; fill-opacity:1" cx="1440.64" cy="1187.95" r="14"/>
<circle clip-path="url(#clip3202)" style="fill:#000000; stroke:none; fill-opacity:1" cx="1444.6" cy="1247.25" r="18"/>
<circle clip-path="url(#clip3202)" style="fill:#009af9; stroke:none; fill-opacity:1" cx="1444.6" cy="1247.25" r="14"/>
<circle clip-path="url(#clip3202)" style="fill:#000000; stroke:none; fill-opacity:1" cx="1448.5" cy="1398.65" r="18"/>
<circle clip-path="url(#clip3202)" style="fill:#009af9; stroke:none; fill-opacity:1" cx="1448.5" cy="1398.65" r="14"/>
<circle clip-path="url(#clip3202)" style="fill:#000000; stroke:none; fill-opacity:1" cx="1452.35" cy="1247.25" r="18"/>
<circle clip-path="url(#clip3202)" style="fill:#009af9; stroke:none; fill-opacity:1" cx="1452.35" cy="1247.25" r="14"/>
<circle clip-path="url(#clip3202)" style="fill:#000000; stroke:none; fill-opacity:1" cx="1456.14" cy="1219.5" r="18"/>
<circle clip-path="url(#clip3202)" style="fill:#009af9; stroke:none; fill-opacity:1" cx="1456.14" cy="1219.5" r="14"/>
<circle clip-path="url(#clip3202)" style="fill:#000000; stroke:none; fill-opacity:1" cx="1459.88" cy="1193.32" r="18"/>
<circle clip-path="url(#clip3202)" style="fill:#009af9; stroke:none; fill-opacity:1" cx="1459.88" cy="1193.32" r="14"/>
<circle clip-path="url(#clip3202)" style="fill:#000000; stroke:none; fill-opacity:1" cx="1463.57" cy="1212.08" r="18"/>
<circle clip-path="url(#clip3202)" style="fill:#009af9; stroke:none; fill-opacity:1" cx="1463.57" cy="1212.08" r="14"/>
<circle clip-path="url(#clip3202)" style="fill:#000000; stroke:none; fill-opacity:1" cx="1467.21" cy="1344.72" r="18"/>
<circle clip-path="url(#clip3202)" style="fill:#009af9; stroke:none; fill-opacity:1" cx="1467.21" cy="1344.72" r="14"/>
<circle clip-path="url(#clip3202)" style="fill:#000000; stroke:none; fill-opacity:1" cx="1470.8" cy="1290.79" r="18"/>
<circle clip-path="url(#clip3202)" style="fill:#009af9; stroke:none; fill-opacity:1" cx="1470.8" cy="1290.79" r="14"/>
<circle clip-path="url(#clip3202)" style="fill:#000000; stroke:none; fill-opacity:1" cx="1474.35" cy="1398.65" r="18"/>
<circle clip-path="url(#clip3202)" style="fill:#009af9; stroke:none; fill-opacity:1" cx="1474.35" cy="1398.65" r="14"/>
<circle clip-path="url(#clip3202)" style="fill:#000000; stroke:none; fill-opacity:1" cx="1477.85" cy="1259.24" r="18"/>
<circle clip-path="url(#clip3202)" style="fill:#009af9; stroke:none; fill-opacity:1" cx="1477.85" cy="1259.24" r="14"/>
<circle clip-path="url(#clip3202)" style="fill:#000000; stroke:none; fill-opacity:1" cx="1481.3" cy="1182.93" r="18"/>
<circle clip-path="url(#clip3202)" style="fill:#009af9; stroke:none; fill-opacity:1" cx="1481.3" cy="1182.93" r="14"/>
<circle clip-path="url(#clip3202)" style="fill:#000000; stroke:none; fill-opacity:1" cx="1484.71" cy="1219.5" r="18"/>
<circle clip-path="url(#clip3202)" style="fill:#009af9; stroke:none; fill-opacity:1" cx="1484.71" cy="1219.5" r="14"/>
<circle clip-path="url(#clip3202)" style="fill:#000000; stroke:none; fill-opacity:1" cx="1488.08" cy="1273.43" r="18"/>
<circle clip-path="url(#clip3202)" style="fill:#009af9; stroke:none; fill-opacity:1" cx="1488.08" cy="1273.43" r="14"/>
<circle clip-path="url(#clip3202)" style="fill:#000000; stroke:none; fill-opacity:1" cx="1491.41" cy="1173.76" r="18"/>
<circle clip-path="url(#clip3202)" style="fill:#009af9; stroke:none; fill-opacity:1" cx="1491.41" cy="1173.76" r="14"/>
<circle clip-path="url(#clip3202)" style="fill:#000000; stroke:none; fill-opacity:1" cx="1494.7" cy="1219.5" r="18"/>
<circle clip-path="url(#clip3202)" style="fill:#009af9; stroke:none; fill-opacity:1" cx="1494.7" cy="1219.5" r="14"/>
<circle clip-path="url(#clip3202)" style="fill:#000000; stroke:none; fill-opacity:1" cx="1497.94" cy="1227.69" r="18"/>
<circle clip-path="url(#clip3202)" style="fill:#009af9; stroke:none; fill-opacity:1" cx="1497.94" cy="1227.69" r="14"/>
<circle clip-path="url(#clip3202)" style="fill:#000000; stroke:none; fill-opacity:1" cx="1501.15" cy="1178.21" r="18"/>
<circle clip-path="url(#clip3202)" style="fill:#009af9; stroke:none; fill-opacity:1" cx="1501.15" cy="1178.21" r="14"/>
<circle clip-path="url(#clip3202)" style="fill:#000000; stroke:none; fill-opacity:1" cx="1504.33" cy="1178.21" r="18"/>
<circle clip-path="url(#clip3202)" style="fill:#009af9; stroke:none; fill-opacity:1" cx="1504.33" cy="1178.21" r="14"/>
<circle clip-path="url(#clip3202)" style="fill:#000000; stroke:none; fill-opacity:1" cx="1507.46" cy="1247.25" r="18"/>
<circle clip-path="url(#clip3202)" style="fill:#009af9; stroke:none; fill-opacity:1" cx="1507.46" cy="1247.25" r="14"/>
<circle clip-path="url(#clip3202)" style="fill:#000000; stroke:none; fill-opacity:1" cx="1510.56" cy="1313.17" r="18"/>
<circle clip-path="url(#clip3202)" style="fill:#009af9; stroke:none; fill-opacity:1" cx="1510.56" cy="1313.17" r="14"/>
<circle clip-path="url(#clip3202)" style="fill:#000000; stroke:none; fill-opacity:1" cx="1513.62" cy="1273.43" r="18"/>
<circle clip-path="url(#clip3202)" style="fill:#009af9; stroke:none; fill-opacity:1" cx="1513.62" cy="1273.43" r="14"/>
<circle clip-path="url(#clip3202)" style="fill:#000000; stroke:none; fill-opacity:1" cx="1516.65" cy="1313.17" r="18"/>
<circle clip-path="url(#clip3202)" style="fill:#009af9; stroke:none; fill-opacity:1" cx="1516.65" cy="1313.17" r="14"/>
<circle clip-path="url(#clip3202)" style="fill:#000000; stroke:none; fill-opacity:1" cx="1519.65" cy="1290.79" r="18"/>
<circle clip-path="url(#clip3202)" style="fill:#009af9; stroke:none; fill-opacity:1" cx="1519.65" cy="1290.79" r="14"/>
<circle clip-path="url(#clip3202)" style="fill:#000000; stroke:none; fill-opacity:1" cx="1522.62" cy="1398.65" r="18"/>
<circle clip-path="url(#clip3202)" style="fill:#009af9; stroke:none; fill-opacity:1" cx="1522.62" cy="1398.65" r="14"/>
<circle clip-path="url(#clip3202)" style="fill:#000000; stroke:none; fill-opacity:1" cx="1525.55" cy="1313.17" r="18"/>
<circle clip-path="url(#clip3202)" style="fill:#009af9; stroke:none; fill-opacity:1" cx="1525.55" cy="1313.17" r="14"/>
<circle clip-path="url(#clip3202)" style="fill:#000000; stroke:none; fill-opacity:1" cx="1528.45" cy="1398.65" r="18"/>
<circle clip-path="url(#clip3202)" style="fill:#009af9; stroke:none; fill-opacity:1" cx="1528.45" cy="1398.65" r="14"/>
<circle clip-path="url(#clip3202)" style="fill:#000000; stroke:none; fill-opacity:1" cx="1531.32" cy="1273.43" r="18"/>
<circle clip-path="url(#clip3202)" style="fill:#009af9; stroke:none; fill-opacity:1" cx="1531.32" cy="1273.43" r="14"/>
<circle clip-path="url(#clip3202)" style="fill:#000000; stroke:none; fill-opacity:1" cx="1534.16" cy="1398.65" r="18"/>
<circle clip-path="url(#clip3202)" style="fill:#009af9; stroke:none; fill-opacity:1" cx="1534.16" cy="1398.65" r="14"/>
<circle clip-path="url(#clip3202)" style="fill:#000000; stroke:none; fill-opacity:1" cx="1542.5" cy="1344.72" r="18"/>
<circle clip-path="url(#clip3202)" style="fill:#009af9; stroke:none; fill-opacity:1" cx="1542.5" cy="1344.72" r="14"/>
<circle clip-path="url(#clip3202)" style="fill:#000000; stroke:none; fill-opacity:1" cx="1545.23" cy="1398.65" r="18"/>
<circle clip-path="url(#clip3202)" style="fill:#009af9; stroke:none; fill-opacity:1" cx="1545.23" cy="1398.65" r="14"/>
<circle clip-path="url(#clip3202)" style="fill:#000000; stroke:none; fill-opacity:1" cx="1547.93" cy="1193.32" r="18"/>
<circle clip-path="url(#clip3202)" style="fill:#009af9; stroke:none; fill-opacity:1" cx="1547.93" cy="1193.32" r="14"/>
<circle clip-path="url(#clip3202)" style="fill:#000000; stroke:none; fill-opacity:1" cx="1550.6" cy="1227.69" r="18"/>
<circle clip-path="url(#clip3202)" style="fill:#009af9; stroke:none; fill-opacity:1" cx="1550.6" cy="1227.69" r="14"/>
<circle clip-path="url(#clip3202)" style="fill:#000000; stroke:none; fill-opacity:1" cx="1553.24" cy="1398.65" r="18"/>
<circle clip-path="url(#clip3202)" style="fill:#009af9; stroke:none; fill-opacity:1" cx="1553.24" cy="1398.65" r="14"/>
<circle clip-path="url(#clip3202)" style="fill:#000000; stroke:none; fill-opacity:1" cx="1558.46" cy="1398.65" r="18"/>
<circle clip-path="url(#clip3202)" style="fill:#009af9; stroke:none; fill-opacity:1" cx="1558.46" cy="1398.65" r="14"/>
<circle clip-path="url(#clip3202)" style="fill:#000000; stroke:none; fill-opacity:1" cx="1561.03" cy="1398.65" r="18"/>
<circle clip-path="url(#clip3202)" style="fill:#009af9; stroke:none; fill-opacity:1" cx="1561.03" cy="1398.65" r="14"/>
<circle clip-path="url(#clip3202)" style="fill:#000000; stroke:none; fill-opacity:1" cx="1566.1" cy="1344.72" r="18"/>
<circle clip-path="url(#clip3202)" style="fill:#009af9; stroke:none; fill-opacity:1" cx="1566.1" cy="1344.72" r="14"/>
<circle clip-path="url(#clip3202)" style="fill:#000000; stroke:none; fill-opacity:1" cx="1568.6" cy="1313.17" r="18"/>
<circle clip-path="url(#clip3202)" style="fill:#009af9; stroke:none; fill-opacity:1" cx="1568.6" cy="1313.17" r="14"/>
<circle clip-path="url(#clip3202)" style="fill:#000000; stroke:none; fill-opacity:1" cx="1571.07" cy="1344.72" r="18"/>
<circle clip-path="url(#clip3202)" style="fill:#009af9; stroke:none; fill-opacity:1" cx="1571.07" cy="1344.72" r="14"/>
<circle clip-path="url(#clip3202)" style="fill:#000000; stroke:none; fill-opacity:1" cx="1578.37" cy="1398.65" r="18"/>
<circle clip-path="url(#clip3202)" style="fill:#009af9; stroke:none; fill-opacity:1" cx="1578.37" cy="1398.65" r="14"/>
<circle clip-path="url(#clip3202)" style="fill:#000000; stroke:none; fill-opacity:1" cx="1583.13" cy="1344.72" r="18"/>
<circle clip-path="url(#clip3202)" style="fill:#009af9; stroke:none; fill-opacity:1" cx="1583.13" cy="1344.72" r="14"/>
<circle clip-path="url(#clip3202)" style="fill:#000000; stroke:none; fill-opacity:1" cx="1585.48" cy="1398.65" r="18"/>
<circle clip-path="url(#clip3202)" style="fill:#009af9; stroke:none; fill-opacity:1" cx="1585.48" cy="1398.65" r="14"/>
<circle clip-path="url(#clip3202)" style="fill:#000000; stroke:none; fill-opacity:1" cx="1590.11" cy="1398.65" r="18"/>
<circle clip-path="url(#clip3202)" style="fill:#009af9; stroke:none; fill-opacity:1" cx="1590.11" cy="1398.65" r="14"/>
<circle clip-path="url(#clip3202)" style="fill:#000000; stroke:none; fill-opacity:1" cx="1594.67" cy="1398.65" r="18"/>
<circle clip-path="url(#clip3202)" style="fill:#009af9; stroke:none; fill-opacity:1" cx="1594.67" cy="1398.65" r="14"/>
<circle clip-path="url(#clip3202)" style="fill:#000000; stroke:none; fill-opacity:1" cx="1596.92" cy="1344.72" r="18"/>
<circle clip-path="url(#clip3202)" style="fill:#009af9; stroke:none; fill-opacity:1" cx="1596.92" cy="1344.72" r="14"/>
<circle clip-path="url(#clip3202)" style="fill:#000000; stroke:none; fill-opacity:1" cx="1599.15" cy="1313.17" r="18"/>
<circle clip-path="url(#clip3202)" style="fill:#009af9; stroke:none; fill-opacity:1" cx="1599.15" cy="1313.17" r="14"/>
<circle clip-path="url(#clip3202)" style="fill:#000000; stroke:none; fill-opacity:1" cx="1601.37" cy="1398.65" r="18"/>
<circle clip-path="url(#clip3202)" style="fill:#009af9; stroke:none; fill-opacity:1" cx="1601.37" cy="1398.65" r="14"/>
<circle clip-path="url(#clip3202)" style="fill:#000000; stroke:none; fill-opacity:1" cx="1603.56" cy="1398.65" r="18"/>
<circle clip-path="url(#clip3202)" style="fill:#009af9; stroke:none; fill-opacity:1" cx="1603.56" cy="1398.65" r="14"/>
<circle clip-path="url(#clip3202)" style="fill:#000000; stroke:none; fill-opacity:1" cx="1616.38" cy="1398.65" r="18"/>
<circle clip-path="url(#clip3202)" style="fill:#009af9; stroke:none; fill-opacity:1" cx="1616.38" cy="1398.65" r="14"/>
<circle clip-path="url(#clip3202)" style="fill:#000000; stroke:none; fill-opacity:1" cx="1626.61" cy="1398.65" r="18"/>
<circle clip-path="url(#clip3202)" style="fill:#009af9; stroke:none; fill-opacity:1" cx="1626.61" cy="1398.65" r="14"/>
<circle clip-path="url(#clip3202)" style="fill:#000000; stroke:none; fill-opacity:1" cx="1628.61" cy="1398.65" r="18"/>
<circle clip-path="url(#clip3202)" style="fill:#009af9; stroke:none; fill-opacity:1" cx="1628.61" cy="1398.65" r="14"/>
<circle clip-path="url(#clip3202)" style="fill:#000000; stroke:none; fill-opacity:1" cx="1638.4" cy="1398.65" r="18"/>
<circle clip-path="url(#clip3202)" style="fill:#009af9; stroke:none; fill-opacity:1" cx="1638.4" cy="1398.65" r="14"/>
<circle clip-path="url(#clip3202)" style="fill:#000000; stroke:none; fill-opacity:1" cx="1647.85" cy="1344.72" r="18"/>
<circle clip-path="url(#clip3202)" style="fill:#009af9; stroke:none; fill-opacity:1" cx="1647.85" cy="1344.72" r="14"/>
<circle clip-path="url(#clip3202)" style="fill:#000000; stroke:none; fill-opacity:1" cx="1649.71" cy="1398.65" r="18"/>
<circle clip-path="url(#clip3202)" style="fill:#009af9; stroke:none; fill-opacity:1" cx="1649.71" cy="1398.65" r="14"/>
<circle clip-path="url(#clip3202)" style="fill:#000000; stroke:none; fill-opacity:1" cx="1655.18" cy="1398.65" r="18"/>
<circle clip-path="url(#clip3202)" style="fill:#009af9; stroke:none; fill-opacity:1" cx="1655.18" cy="1398.65" r="14"/>
<circle clip-path="url(#clip3202)" style="fill:#000000; stroke:none; fill-opacity:1" cx="1656.99" cy="1398.65" r="18"/>
<circle clip-path="url(#clip3202)" style="fill:#009af9; stroke:none; fill-opacity:1" cx="1656.99" cy="1398.65" r="14"/>
<circle clip-path="url(#clip3202)" style="fill:#000000; stroke:none; fill-opacity:1" cx="1658.78" cy="1398.65" r="18"/>
<circle clip-path="url(#clip3202)" style="fill:#009af9; stroke:none; fill-opacity:1" cx="1658.78" cy="1398.65" r="14"/>
<circle clip-path="url(#clip3202)" style="fill:#000000; stroke:none; fill-opacity:1" cx="1660.55" cy="1398.65" r="18"/>
<circle clip-path="url(#clip3202)" style="fill:#009af9; stroke:none; fill-opacity:1" cx="1660.55" cy="1398.65" r="14"/>
<circle clip-path="url(#clip3202)" style="fill:#000000; stroke:none; fill-opacity:1" cx="1662.32" cy="1398.65" r="18"/>
<circle clip-path="url(#clip3202)" style="fill:#009af9; stroke:none; fill-opacity:1" cx="1662.32" cy="1398.65" r="14"/>
<circle clip-path="url(#clip3202)" style="fill:#000000; stroke:none; fill-opacity:1" cx="1664.08" cy="1313.17" r="18"/>
<circle clip-path="url(#clip3202)" style="fill:#009af9; stroke:none; fill-opacity:1" cx="1664.08" cy="1313.17" r="14"/>
<circle clip-path="url(#clip3202)" style="fill:#000000; stroke:none; fill-opacity:1" cx="1665.82" cy="1313.17" r="18"/>
<circle clip-path="url(#clip3202)" style="fill:#009af9; stroke:none; fill-opacity:1" cx="1665.82" cy="1313.17" r="14"/>
<circle clip-path="url(#clip3202)" style="fill:#000000; stroke:none; fill-opacity:1" cx="1667.55" cy="1313.17" r="18"/>
<circle clip-path="url(#clip3202)" style="fill:#009af9; stroke:none; fill-opacity:1" cx="1667.55" cy="1313.17" r="14"/>
<circle clip-path="url(#clip3202)" style="fill:#000000; stroke:none; fill-opacity:1" cx="1669.28" cy="1344.72" r="18"/>
<circle clip-path="url(#clip3202)" style="fill:#009af9; stroke:none; fill-opacity:1" cx="1669.28" cy="1344.72" r="14"/>
<circle clip-path="url(#clip3202)" style="fill:#000000; stroke:none; fill-opacity:1" cx="1670.99" cy="1313.17" r="18"/>
<circle clip-path="url(#clip3202)" style="fill:#009af9; stroke:none; fill-opacity:1" cx="1670.99" cy="1313.17" r="14"/>
<circle clip-path="url(#clip3202)" style="fill:#000000; stroke:none; fill-opacity:1" cx="1672.69" cy="1344.72" r="18"/>
<circle clip-path="url(#clip3202)" style="fill:#009af9; stroke:none; fill-opacity:1" cx="1672.69" cy="1344.72" r="14"/>
<circle clip-path="url(#clip3202)" style="fill:#000000; stroke:none; fill-opacity:1" cx="1830.2" cy="1398.65" r="18"/>
<circle clip-path="url(#clip3202)" style="fill:#009af9; stroke:none; fill-opacity:1" cx="1830.2" cy="1398.65" r="14"/>
<circle clip-path="url(#clip3202)" style="fill:#000000; stroke:none; fill-opacity:1" cx="1836.76" cy="1398.65" r="18"/>
<circle clip-path="url(#clip3202)" style="fill:#009af9; stroke:none; fill-opacity:1" cx="1836.76" cy="1398.65" r="14"/>
<circle clip-path="url(#clip3202)" style="fill:#000000; stroke:none; fill-opacity:1" cx="1839.52" cy="1398.65" r="18"/>
<circle clip-path="url(#clip3202)" style="fill:#009af9; stroke:none; fill-opacity:1" cx="1839.52" cy="1398.65" r="14"/>
<circle clip-path="url(#clip3202)" style="fill:#000000; stroke:none; fill-opacity:1" cx="2231.69" cy="1398.65" r="18"/>
<circle clip-path="url(#clip3202)" style="fill:#009af9; stroke:none; fill-opacity:1" cx="2231.69" cy="1398.65" r="14"/>
<circle clip-path="url(#clip3202)" style="fill:#000000; stroke:none; fill-opacity:1" cx="2258.77" cy="1398.65" r="18"/>
<circle clip-path="url(#clip3202)" style="fill:#009af9; stroke:none; fill-opacity:1" cx="2258.77" cy="1398.65" r="14"/>
<polyline clip-path="url(#clip3202)" style="stroke:#e26f46; stroke-width:4; stroke-opacity:1; fill:none" points="
  296.36,381.207 316.182,395.523 336.004,409.839 355.827,424.156 375.649,438.472 395.471,452.789 415.293,467.105 435.116,481.421 454.938,495.738 474.76,510.054 
  494.583,524.371 514.405,538.687 534.227,553.003 554.05,567.32 573.872,581.636 593.694,595.953 613.517,610.269 633.339,624.585 653.161,638.902 672.984,653.218 
  692.806,667.535 712.628,681.851 732.451,696.167 752.273,710.484 772.095,724.8 791.918,739.117 811.74,753.433 831.562,767.749 851.385,782.066 871.207,796.382 
  891.029,810.699 910.851,825.015 930.674,839.331 950.496,853.648 970.318,867.964 990.141,882.281 1009.96,896.597 1029.79,910.913 1049.61,925.23 1069.43,939.546 
  1089.25,953.863 1109.07,968.179 1128.9,982.495 1148.72,996.812 1168.54,1011.13 1188.36,1025.44 1208.19,1039.76 1228.01,1054.08 1247.83,1068.39 1267.65,1082.71 
  1287.48,1097.03 1307.3,1111.34 1327.12,1125.66 1346.94,1139.98 1366.76,1154.29 1386.59,1168.61 1406.41,1182.93 1426.23,1197.24 1446.05,1211.56 1465.88,1225.87 
  1485.7,1240.19 1505.52,1254.51 1525.34,1268.82 1545.17,1283.14 1564.99,1297.46 1584.81,1311.77 1604.63,1326.09 1624.46,1340.41 1644.28,1354.72 1664.1,1369.04 
  1683.92,1383.35 1703.74,1397.67 1723.57,1411.99 1743.39,1426.3 1763.21,1440.62 1783.03,1454.94 1802.86,1469.25 1822.68,1483.57 1842.5,1497.89 1862.32,1512.2 
  1882.15,1526.52 1901.97,1540.84 1921.79,1555.15 1941.61,1569.47 1961.43,1583.78 1981.26,1598.1 2001.08,1612.42 2020.9,1626.73 2040.72,1641.05 2060.55,1655.37 
  2080.37,1669.68 2100.19,1684 2120.01,1698.32 2139.84,1712.63 2159.66,1726.95 2179.48,1741.26 2199.3,1755.58 2219.12,1769.9 2238.95,1784.21 2258.77,1798.53 
  
  "/>
<g clip-path="url(#clip3200)">
<text style="fill:#000000; fill-opacity:1; font-family:Arial,Helvetica Neue,Helvetica,sans-serif; font-size:59px; text-anchor:start;" transform="rotate(0, 296.36, 1366.22)" x="296.36" y="1366.22">r = -0.93</text>
</g>
</svg>
