<?xml version="1.0" encoding="utf-8"?>
<svg xmlns="http://www.w3.org/2000/svg" xmlns:xlink="http://www.w3.org/1999/xlink" width="600" height="400" viewBox="0 0 2400 1600">
<defs>
  <clipPath id="clip8800">
    <rect x="0" y="0" width="2400" height="1600"/>
  </clipPath>
</defs>
<polygon clip-path="url(#clip8800)" points="
0,1600 2400,1600 2400,0 0,0 
  " fill="#ffffff" fill-rule="evenodd" fill-opacity="1"/>
<defs>
  <clipPath id="clip8801">
    <rect x="480" y="0" width="1681" height="1600"/>
  </clipPath>
</defs>
<polygon clip-path="url(#clip8800)" points="
202.373,1425.62 2352.76,1425.62 2352.76,109.1 202.373,109.1 
  " fill="#ffffff" fill-rule="evenodd" fill-opacity="1"/>
<defs>
  <clipPath id="clip8802">
    <rect x="202" y="109" width="2151" height="1318"/>
  </clipPath>
</defs>
<polyline clip-path="url(#clip8802)" style="stroke:#000000; stroke-width:2; stroke-opacity:0.1; fill:none" points="
  355.972,1425.62 355.972,109.1 
  "/>
<polyline clip-path="url(#clip8802)" style="stroke:#000000; stroke-width:2; stroke-opacity:0.1; fill:none" points="
  663.169,1425.62 663.169,109.1 
  "/>
<polyline clip-path="url(#clip8802)" style="stroke:#000000; stroke-width:2; stroke-opacity:0.1; fill:none" points="
  970.367,1425.62 970.367,109.1 
  "/>
<polyline clip-path="url(#clip8802)" style="stroke:#000000; stroke-width:2; stroke-opacity:0.1; fill:none" points="
  1277.56,1425.62 1277.56,109.1 
  "/>
<polyline clip-path="url(#clip8802)" style="stroke:#000000; stroke-width:2; stroke-opacity:0.1; fill:none" points="
  1584.76,1425.62 1584.76,109.1 
  "/>
<polyline clip-path="url(#clip8802)" style="stroke:#000000; stroke-width:2; stroke-opacity:0.1; fill:none" points="
  1891.96,1425.62 1891.96,109.1 
  "/>
<polyline clip-path="url(#clip8802)" style="stroke:#000000; stroke-width:2; stroke-opacity:0.1; fill:none" points="
  2199.16,1425.62 2199.16,109.1 
  "/>
<polyline clip-path="url(#clip8802)" style="stroke:#000000; stroke-width:2; stroke-opacity:0.1; fill:none" points="
  202.373,1396.19 2352.76,1396.19 
  "/>
<polyline clip-path="url(#clip8802)" style="stroke:#000000; stroke-width:2; stroke-opacity:0.1; fill:none" points="
  202.373,1101.94 2352.76,1101.94 
  "/>
<polyline clip-path="url(#clip8802)" style="stroke:#000000; stroke-width:2; stroke-opacity:0.1; fill:none" points="
  202.373,807.678 2352.76,807.678 
  "/>
<polyline clip-path="url(#clip8802)" style="stroke:#000000; stroke-width:2; stroke-opacity:0.1; fill:none" points="
  202.373,513.421 2352.76,513.421 
  "/>
<polyline clip-path="url(#clip8802)" style="stroke:#000000; stroke-width:2; stroke-opacity:0.1; fill:none" points="
  202.373,219.164 2352.76,219.164 
  "/>
<polyline clip-path="url(#clip8800)" style="stroke:#000000; stroke-width:4; stroke-opacity:1; fill:none" points="
  202.373,1425.62 2352.76,1425.62 
  "/>
<polyline clip-path="url(#clip8800)" style="stroke:#000000; stroke-width:4; stroke-opacity:1; fill:none" points="
  202.373,1425.62 202.373,109.1 
  "/>
<polyline clip-path="url(#clip8800)" style="stroke:#000000; stroke-width:4; stroke-opacity:1; fill:none" points="
  355.972,1425.62 355.972,1405.87 
  "/>
<polyline clip-path="url(#clip8800)" style="stroke:#000000; stroke-width:4; stroke-opacity:1; fill:none" points="
  663.169,1425.62 663.169,1405.87 
  "/>
<polyline clip-path="url(#clip8800)" style="stroke:#000000; stroke-width:4; stroke-opacity:1; fill:none" points="
  970.367,1425.62 970.367,1405.87 
  "/>
<polyline clip-path="url(#clip8800)" style="stroke:#000000; stroke-width:4; stroke-opacity:1; fill:none" points="
  1277.56,1425.62 1277.56,1405.87 
  "/>
<polyline clip-path="url(#clip8800)" style="stroke:#000000; stroke-width:4; stroke-opacity:1; fill:none" points="
  1584.76,1425.62 1584.76,1405.87 
  "/>
<polyline clip-path="url(#clip8800)" style="stroke:#000000; stroke-width:4; stroke-opacity:1; fill:none" points="
  1891.96,1425.62 1891.96,1405.87 
  "/>
<polyline clip-path="url(#clip8800)" style="stroke:#000000; stroke-width:4; stroke-opacity:1; fill:none" points="
  2199.16,1425.62 2199.16,1405.87 
  "/>
<polyline clip-path="url(#clip8800)" style="stroke:#000000; stroke-width:4; stroke-opacity:1; fill:none" points="
  202.373,1396.19 234.629,1396.19 
  "/>
<polyline clip-path="url(#clip8800)" style="stroke:#000000; stroke-width:4; stroke-opacity:1; fill:none" points="
  202.373,1101.94 234.629,1101.94 
  "/>
<polyline clip-path="url(#clip8800)" style="stroke:#000000; stroke-width:4; stroke-opacity:1; fill:none" points="
  202.373,807.678 234.629,807.678 
  "/>
<polyline clip-path="url(#clip8800)" style="stroke:#000000; stroke-width:4; stroke-opacity:1; fill:none" points="
  202.373,513.421 234.629,513.421 
  "/>
<polyline clip-path="url(#clip8800)" style="stroke:#000000; stroke-width:4; stroke-opacity:1; fill:none" points="
  202.373,219.164 234.629,219.164 
  "/>
<g clip-path="url(#clip8800)">
<text style="fill:#000000; fill-opacity:1; font-family:Arial,Helvetica Neue,Helvetica,sans-serif; font-size:48px; text-anchor:middle;" transform="rotate(0, 355.972, 1479.62)" x="355.972" y="1479.62">0</text>
</g>
<g clip-path="url(#clip8800)">
<text style="fill:#000000; fill-opacity:1; font-family:Arial,Helvetica Neue,Helvetica,sans-serif; font-size:48px; text-anchor:middle;" transform="rotate(0, 663.169, 1479.62)" x="663.169" y="1479.62">1</text>
</g>
<g clip-path="url(#clip8800)">
<text style="fill:#000000; fill-opacity:1; font-family:Arial,Helvetica Neue,Helvetica,sans-serif; font-size:48px; text-anchor:middle;" transform="rotate(0, 970.367, 1479.62)" x="970.367" y="1479.62">2</text>
</g>
<g clip-path="url(#clip8800)">
<text style="fill:#000000; fill-opacity:1; font-family:Arial,Helvetica Neue,Helvetica,sans-serif; font-size:48px; text-anchor:middle;" transform="rotate(0, 1277.56, 1479.62)" x="1277.56" y="1479.62">3</text>
</g>
<g clip-path="url(#clip8800)">
<text style="fill:#000000; fill-opacity:1; font-family:Arial,Helvetica Neue,Helvetica,sans-serif; font-size:48px; text-anchor:middle;" transform="rotate(0, 1584.76, 1479.62)" x="1584.76" y="1479.62">4</text>
</g>
<g clip-path="url(#clip8800)">
<text style="fill:#000000; fill-opacity:1; font-family:Arial,Helvetica Neue,Helvetica,sans-serif; font-size:48px; text-anchor:middle;" transform="rotate(0, 1891.96, 1479.62)" x="1891.96" y="1479.62">5</text>
</g>
<g clip-path="url(#clip8800)">
<text style="fill:#000000; fill-opacity:1; font-family:Arial,Helvetica Neue,Helvetica,sans-serif; font-size:48px; text-anchor:middle;" transform="rotate(0, 2199.16, 1479.62)" x="2199.16" y="1479.62">6</text>
</g>
<g clip-path="url(#clip8800)">
<text style="fill:#000000; fill-opacity:1; font-family:Arial,Helvetica Neue,Helvetica,sans-serif; font-size:48px; text-anchor:end;" transform="rotate(0, 178.373, 1413.69)" x="178.373" y="1413.69">0</text>
</g>
<g clip-path="url(#clip8800)">
<text style="fill:#000000; fill-opacity:1; font-family:Arial,Helvetica Neue,Helvetica,sans-serif; font-size:48px; text-anchor:end;" transform="rotate(0, 178.373, 1119.44)" x="178.373" y="1119.44">5</text>
</g>
<g clip-path="url(#clip8800)">
<text style="fill:#000000; fill-opacity:1; font-family:Arial,Helvetica Neue,Helvetica,sans-serif; font-size:48px; text-anchor:end;" transform="rotate(0, 178.373, 825.178)" x="178.373" y="825.178">10</text>
</g>
<g clip-path="url(#clip8800)">
<text style="fill:#000000; fill-opacity:1; font-family:Arial,Helvetica Neue,Helvetica,sans-serif; font-size:48px; text-anchor:end;" transform="rotate(0, 178.373, 530.921)" x="178.373" y="530.921">15</text>
</g>
<g clip-path="url(#clip8800)">
<text style="fill:#000000; fill-opacity:1; font-family:Arial,Helvetica Neue,Helvetica,sans-serif; font-size:48px; text-anchor:end;" transform="rotate(0, 178.373, 236.664)" x="178.373" y="236.664">20</text>
</g>
<g clip-path="url(#clip8800)">
<text style="fill:#000000; fill-opacity:1; font-family:Arial,Helvetica Neue,Helvetica,sans-serif; font-size:66px; text-anchor:middle;" transform="rotate(0, 1277.56, 57.6)" x="1277.56" y="57.6">GCF_000064305.2_ASM6430v2_genomic.fna.K23.jf.histogram</text>
</g>
<g clip-path="url(#clip8800)">
<text style="fill:#000000; fill-opacity:1; font-family:Arial,Helvetica Neue,Helvetica,sans-serif; font-size:66px; text-anchor:middle;" transform="rotate(0, 1277.56, 1559.48)" x="1277.56" y="1559.48">log2(depth of coverage)</text>
</g>
<g clip-path="url(#clip8800)">
<text style="fill:#000000; fill-opacity:1; font-family:Arial,Helvetica Neue,Helvetica,sans-serif; font-size:66px; text-anchor:middle;" transform="rotate(-90, 89.2861, 767.359)" x="89.2861" y="767.359">log2(# kmers)</text>
</g>
<circle clip-path="url(#clip8802)" style="fill:#000000; stroke:none; fill-opacity:1" cx="355.972" cy="138.526" r="18"/>
<circle clip-path="url(#clip8802)" style="fill:#009af9; stroke:none; fill-opacity:1" cx="355.972" cy="138.526" r="14"/>
<circle clip-path="url(#clip8802)" style="fill:#000000; stroke:none; fill-opacity:1" cx="663.169" cy="573.836" r="18"/>
<circle clip-path="url(#clip8802)" style="fill:#009af9; stroke:none; fill-opacity:1" cx="663.169" cy="573.836" r="14"/>
<circle clip-path="url(#clip8802)" style="fill:#000000; stroke:none; fill-opacity:1" cx="842.868" cy="644.366" r="18"/>
<circle clip-path="url(#clip8802)" style="fill:#009af9; stroke:none; fill-opacity:1" cx="842.868" cy="644.366" r="14"/>
<circle clip-path="url(#clip8802)" style="fill:#000000; stroke:none; fill-opacity:1" cx="970.367" cy="770.854" r="18"/>
<circle clip-path="url(#clip8802)" style="fill:#009af9; stroke:none; fill-opacity:1" cx="970.367" cy="770.854" r="14"/>
<circle clip-path="url(#clip8802)" style="fill:#000000; stroke:none; fill-opacity:1" cx="1069.26" cy="801.061" r="18"/>
<circle clip-path="url(#clip8802)" style="fill:#009af9; stroke:none; fill-opacity:1" cx="1069.26" cy="801.061" r="14"/>
<circle clip-path="url(#clip8802)" style="fill:#000000; stroke:none; fill-opacity:1" cx="1150.07" cy="649.419" r="18"/>
<circle clip-path="url(#clip8802)" style="fill:#009af9; stroke:none; fill-opacity:1" cx="1150.07" cy="649.419" r="14"/>
<circle clip-path="url(#clip8802)" style="fill:#000000; stroke:none; fill-opacity:1" cx="1218.38" cy="758.336" r="18"/>
<circle clip-path="url(#clip8802)" style="fill:#009af9; stroke:none; fill-opacity:1" cx="1218.38" cy="758.336" r="14"/>
<circle clip-path="url(#clip8802)" style="fill:#000000; stroke:none; fill-opacity:1" cx="1277.56" cy="882.943" r="18"/>
<circle clip-path="url(#clip8802)" style="fill:#009af9; stroke:none; fill-opacity:1" cx="1277.56" cy="882.943" r="14"/>
<circle clip-path="url(#clip8802)" style="fill:#000000; stroke:none; fill-opacity:1" cx="1329.76" cy="887.066" r="18"/>
<circle clip-path="url(#clip8802)" style="fill:#009af9; stroke:none; fill-opacity:1" cx="1329.76" cy="887.066" r="14"/>
<circle clip-path="url(#clip8802)" style="fill:#000000; stroke:none; fill-opacity:1" cx="1376.46" cy="864.563" r="18"/>
<circle clip-path="url(#clip8802)" style="fill:#009af9; stroke:none; fill-opacity:1" cx="1376.46" cy="864.563" r="14"/>
<circle clip-path="url(#clip8802)" style="fill:#000000; stroke:none; fill-opacity:1" cx="1418.7" cy="847.85" r="18"/>
<circle clip-path="url(#clip8802)" style="fill:#009af9; stroke:none; fill-opacity:1" cx="1418.7" cy="847.85" r="14"/>
<circle clip-path="url(#clip8802)" style="fill:#000000; stroke:none; fill-opacity:1" cx="1457.26" cy="936.34" r="18"/>
<circle clip-path="url(#clip8802)" style="fill:#009af9; stroke:none; fill-opacity:1" cx="1457.26" cy="936.34" r="14"/>
<circle clip-path="url(#clip8802)" style="fill:#000000; stroke:none; fill-opacity:1" cx="1492.74" cy="1126.36" r="18"/>
<circle clip-path="url(#clip8802)" style="fill:#009af9; stroke:none; fill-opacity:1" cx="1492.74" cy="1126.36" r="14"/>
<circle clip-path="url(#clip8802)" style="fill:#000000; stroke:none; fill-opacity:1" cx="1525.58" cy="1055.95" r="18"/>
<circle clip-path="url(#clip8802)" style="fill:#009af9; stroke:none; fill-opacity:1" cx="1525.58" cy="1055.95" r="14"/>
<circle clip-path="url(#clip8802)" style="fill:#000000; stroke:none; fill-opacity:1" cx="1556.16" cy="957.678" r="18"/>
<circle clip-path="url(#clip8802)" style="fill:#009af9; stroke:none; fill-opacity:1" cx="1556.16" cy="957.678" r="14"/>
<circle clip-path="url(#clip8802)" style="fill:#000000; stroke:none; fill-opacity:1" cx="1584.76" cy="1113.27" r="18"/>
<circle clip-path="url(#clip8802)" style="fill:#009af9; stroke:none; fill-opacity:1" cx="1584.76" cy="1113.27" r="14"/>
<circle clip-path="url(#clip8802)" style="fill:#000000; stroke:none; fill-opacity:1" cx="1611.63" cy="1119.57" r="18"/>
<circle clip-path="url(#clip8802)" style="fill:#009af9; stroke:none; fill-opacity:1" cx="1611.63" cy="1119.57" r="14"/>
<circle clip-path="url(#clip8802)" style="fill:#000000; stroke:none; fill-opacity:1" cx="1636.96" cy="1107.42" r="18"/>
<circle clip-path="url(#clip8802)" style="fill:#009af9; stroke:none; fill-opacity:1" cx="1636.96" cy="1107.42" r="14"/>
<circle clip-path="url(#clip8802)" style="fill:#000000; stroke:none; fill-opacity:1" cx="1660.92" cy="1104.63" r="18"/>
<circle clip-path="url(#clip8802)" style="fill:#009af9; stroke:none; fill-opacity:1" cx="1660.92" cy="1104.63" r="14"/>
<circle clip-path="url(#clip8802)" style="fill:#000000; stroke:none; fill-opacity:1" cx="1683.66" cy="1200.69" r="18"/>
<circle clip-path="url(#clip8802)" style="fill:#009af9; stroke:none; fill-opacity:1" cx="1683.66" cy="1200.69" r="14"/>
<circle clip-path="url(#clip8802)" style="fill:#000000; stroke:none; fill-opacity:1" cx="1705.28" cy="1396.19" r="18"/>
<circle clip-path="url(#clip8802)" style="fill:#009af9; stroke:none; fill-opacity:1" cx="1705.28" cy="1396.19" r="14"/>
<circle clip-path="url(#clip8802)" style="fill:#000000; stroke:none; fill-opacity:1" cx="1725.9" cy="1259.54" r="18"/>
<circle clip-path="url(#clip8802)" style="fill:#009af9; stroke:none; fill-opacity:1" cx="1725.9" cy="1259.54" r="14"/>
<circle clip-path="url(#clip8802)" style="fill:#000000; stroke:none; fill-opacity:1" cx="1745.6" cy="1278.49" r="18"/>
<circle clip-path="url(#clip8802)" style="fill:#009af9; stroke:none; fill-opacity:1" cx="1745.6" cy="1278.49" r="14"/>
<circle clip-path="url(#clip8802)" style="fill:#000000; stroke:none; fill-opacity:1" cx="1764.46" cy="1230.98" r="18"/>
<circle clip-path="url(#clip8802)" style="fill:#009af9; stroke:none; fill-opacity:1" cx="1764.46" cy="1230.98" r="14"/>
<circle clip-path="url(#clip8802)" style="fill:#000000; stroke:none; fill-opacity:1" cx="1782.55" cy="1230.98" r="18"/>
<circle clip-path="url(#clip8802)" style="fill:#009af9; stroke:none; fill-opacity:1" cx="1782.55" cy="1230.98" r="14"/>
<circle clip-path="url(#clip8802)" style="fill:#000000; stroke:none; fill-opacity:1" cx="1799.94" cy="1219.64" r="18"/>
<circle clip-path="url(#clip8802)" style="fill:#009af9; stroke:none; fill-opacity:1" cx="1799.94" cy="1219.64" r="14"/>
<circle clip-path="url(#clip8802)" style="fill:#000000; stroke:none; fill-opacity:1" cx="1816.66" cy="1230.98" r="18"/>
<circle clip-path="url(#clip8802)" style="fill:#009af9; stroke:none; fill-opacity:1" cx="1816.66" cy="1230.98" r="14"/>
<circle clip-path="url(#clip8802)" style="fill:#000000; stroke:none; fill-opacity:1" cx="1832.78" cy="1209.64" r="18"/>
<circle clip-path="url(#clip8802)" style="fill:#009af9; stroke:none; fill-opacity:1" cx="1832.78" cy="1209.64" r="14"/>
<circle clip-path="url(#clip8802)" style="fill:#000000; stroke:none; fill-opacity:1" cx="1848.33" cy="1178.42" r="18"/>
<circle clip-path="url(#clip8802)" style="fill:#009af9; stroke:none; fill-opacity:1" cx="1848.33" cy="1178.42" r="14"/>
<circle clip-path="url(#clip8802)" style="fill:#000000; stroke:none; fill-opacity:1" cx="1863.36" cy="1209.64" r="18"/>
<circle clip-path="url(#clip8802)" style="fill:#009af9; stroke:none; fill-opacity:1" cx="1863.36" cy="1209.64" r="14"/>
<circle clip-path="url(#clip8802)" style="fill:#000000; stroke:none; fill-opacity:1" cx="1877.89" cy="1150.79" r="18"/>
<circle clip-path="url(#clip8802)" style="fill:#009af9; stroke:none; fill-opacity:1" cx="1877.89" cy="1150.79" r="14"/>
<circle clip-path="url(#clip8802)" style="fill:#000000; stroke:none; fill-opacity:1" cx="1891.96" cy="1178.42" r="18"/>
<circle clip-path="url(#clip8802)" style="fill:#009af9; stroke:none; fill-opacity:1" cx="1891.96" cy="1178.42" r="14"/>
<circle clip-path="url(#clip8802)" style="fill:#000000; stroke:none; fill-opacity:1" cx="1905.6" cy="1178.42" r="18"/>
<circle clip-path="url(#clip8802)" style="fill:#009af9; stroke:none; fill-opacity:1" cx="1905.6" cy="1178.42" r="14"/>
<circle clip-path="url(#clip8802)" style="fill:#000000; stroke:none; fill-opacity:1" cx="1918.83" cy="1244.06" r="18"/>
<circle clip-path="url(#clip8802)" style="fill:#009af9; stroke:none; fill-opacity:1" cx="1918.83" cy="1244.06" r="14"/>
<circle clip-path="url(#clip8802)" style="fill:#000000; stroke:none; fill-opacity:1" cx="1931.67" cy="1278.49" r="18"/>
<circle clip-path="url(#clip8802)" style="fill:#009af9; stroke:none; fill-opacity:1" cx="1931.67" cy="1278.49" r="14"/>
<circle clip-path="url(#clip8802)" style="fill:#000000; stroke:none; fill-opacity:1" cx="1944.16" cy="1302.92" r="18"/>
<circle clip-path="url(#clip8802)" style="fill:#009af9; stroke:none; fill-opacity:1" cx="1944.16" cy="1302.92" r="14"/>
<circle clip-path="url(#clip8802)" style="fill:#000000; stroke:none; fill-opacity:1" cx="1956.3" cy="1244.06" r="18"/>
<circle clip-path="url(#clip8802)" style="fill:#009af9; stroke:none; fill-opacity:1" cx="1956.3" cy="1244.06" r="14"/>
<circle clip-path="url(#clip8802)" style="fill:#000000; stroke:none; fill-opacity:1" cx="2163.11" cy="1396.19" r="18"/>
<circle clip-path="url(#clip8802)" style="fill:#009af9; stroke:none; fill-opacity:1" cx="2163.11" cy="1396.19" r="14"/>
<circle clip-path="url(#clip8802)" style="fill:#000000; stroke:none; fill-opacity:1" cx="2177.88" cy="1337.34" r="18"/>
<circle clip-path="url(#clip8802)" style="fill:#009af9; stroke:none; fill-opacity:1" cx="2177.88" cy="1337.34" r="14"/>
<circle clip-path="url(#clip8802)" style="fill:#000000; stroke:none; fill-opacity:1" cx="2185.09" cy="1396.19" r="18"/>
<circle clip-path="url(#clip8802)" style="fill:#009af9; stroke:none; fill-opacity:1" cx="2185.09" cy="1396.19" r="14"/>
<circle clip-path="url(#clip8802)" style="fill:#000000; stroke:none; fill-opacity:1" cx="2192.18" cy="1396.19" r="18"/>
<circle clip-path="url(#clip8802)" style="fill:#009af9; stroke:none; fill-opacity:1" cx="2192.18" cy="1396.19" r="14"/>
<circle clip-path="url(#clip8802)" style="fill:#000000; stroke:none; fill-opacity:1" cx="2199.16" cy="1337.34" r="18"/>
<circle clip-path="url(#clip8802)" style="fill:#009af9; stroke:none; fill-opacity:1" cx="2199.16" cy="1337.34" r="14"/>
<polyline clip-path="url(#clip8802)" style="stroke:#e26f46; stroke-width:4; stroke-opacity:1; fill:none" points="
  355.972,308.278 374.59,319.653 393.208,331.028 411.826,342.402 430.444,353.777 449.062,365.151 467.68,376.526 486.298,387.901 504.916,399.275 523.534,410.65 
  542.152,422.024 560.77,433.399 579.388,444.774 598.006,456.148 616.624,467.523 635.242,478.897 653.86,490.272 672.478,501.647 691.096,513.021 709.714,524.396 
  728.332,535.77 746.95,547.145 765.568,558.52 784.186,569.894 802.805,581.269 821.423,592.643 840.041,604.018 858.659,615.393 877.277,626.767 895.895,638.142 
  914.513,649.517 933.131,660.891 951.749,672.266 970.367,683.64 988.985,695.015 1007.6,706.39 1026.22,717.764 1044.84,729.139 1063.46,740.513 1082.08,751.888 
  1100.69,763.263 1119.31,774.637 1137.93,786.012 1156.55,797.386 1175.17,808.761 1193.78,820.136 1212.4,831.51 1231.02,842.885 1249.64,854.259 1268.26,865.634 
  1286.87,877.009 1305.49,888.383 1324.11,899.758 1342.73,911.132 1361.35,922.507 1379.96,933.882 1398.58,945.256 1417.2,956.631 1435.82,968.005 1454.44,979.38 
  1473.05,990.755 1491.67,1002.13 1510.29,1013.5 1528.91,1024.88 1547.53,1036.25 1566.14,1047.63 1584.76,1059 1603.38,1070.38 1622,1081.75 1640.62,1093.13 
  1659.23,1104.5 1677.85,1115.88 1696.47,1127.25 1715.09,1138.62 1733.71,1150 1752.32,1161.37 1770.94,1172.75 1789.56,1184.12 1808.18,1195.5 1826.8,1206.87 
  1845.41,1218.25 1864.03,1229.62 1882.65,1241 1901.27,1252.37 1919.89,1263.75 1938.5,1275.12 1957.12,1286.49 1975.74,1297.87 1994.36,1309.24 2012.98,1320.62 
  2031.59,1331.99 2050.21,1343.37 2068.83,1354.74 2087.45,1366.12 2106.07,1377.49 2124.68,1388.87 2143.3,1400.24 2161.92,1411.62 2180.54,1422.99 2199.16,1434.36 
  
  "/>
<g clip-path="url(#clip8800)">
<text style="fill:#000000; fill-opacity:1; font-family:Arial,Helvetica Neue,Helvetica,sans-serif; font-size:59px; text-anchor:start;" transform="rotate(0, 355.972, 1358.84)" x="355.972" y="1358.84">r = -0.95</text>
</g>
</svg>
