<?xml version="1.0" encoding="utf-8"?>
<svg xmlns="http://www.w3.org/2000/svg" xmlns:xlink="http://www.w3.org/1999/xlink" width="600" height="400" viewBox="0 0 2400 1600">
<defs>
  <clipPath id="clip1000">
    <rect x="0" y="0" width="2400" height="1600"/>
  </clipPath>
</defs>
<polygon clip-path="url(#clip1000)" points="
0,1600 2400,1600 2400,0 0,0 
  " fill="#ffffff" fill-rule="evenodd" fill-opacity="1"/>
<defs>
  <clipPath id="clip1001">
    <rect x="480" y="0" width="1681" height="1600"/>
  </clipPath>
</defs>
<polygon clip-path="url(#clip1000)" points="
270.627,1425.62 2352.76,1425.62 2352.76,109.1 270.627,109.1 
  " fill="#ffffff" fill-rule="evenodd" fill-opacity="1"/>
<defs>
  <clipPath id="clip1002">
    <rect x="270" y="109" width="2083" height="1318"/>
  </clipPath>
</defs>
<polyline clip-path="url(#clip1002)" style="stroke:#000000; stroke-width:2; stroke-opacity:0.1; fill:none" points="
  313.423,1425.62 313.423,109.1 
  "/>
<polyline clip-path="url(#clip1002)" style="stroke:#000000; stroke-width:2; stroke-opacity:0.1; fill:none" points="
  741.386,1425.62 741.386,109.1 
  "/>
<polyline clip-path="url(#clip1002)" style="stroke:#000000; stroke-width:2; stroke-opacity:0.1; fill:none" points="
  1169.35,1425.62 1169.35,109.1 
  "/>
<polyline clip-path="url(#clip1002)" style="stroke:#000000; stroke-width:2; stroke-opacity:0.1; fill:none" points="
  1597.31,1425.62 1597.31,109.1 
  "/>
<polyline clip-path="url(#clip1002)" style="stroke:#000000; stroke-width:2; stroke-opacity:0.1; fill:none" points="
  2025.28,1425.62 2025.28,109.1 
  "/>
<polyline clip-path="url(#clip1002)" style="stroke:#000000; stroke-width:2; stroke-opacity:0.1; fill:none" points="
  270.627,1425.62 2352.76,1425.62 
  "/>
<polyline clip-path="url(#clip1002)" style="stroke:#000000; stroke-width:2; stroke-opacity:0.1; fill:none" points="
  270.627,1096.49 2352.76,1096.49 
  "/>
<polyline clip-path="url(#clip1002)" style="stroke:#000000; stroke-width:2; stroke-opacity:0.1; fill:none" points="
  270.627,767.359 2352.76,767.359 
  "/>
<polyline clip-path="url(#clip1002)" style="stroke:#000000; stroke-width:2; stroke-opacity:0.1; fill:none" points="
  270.627,438.23 2352.76,438.23 
  "/>
<polyline clip-path="url(#clip1002)" style="stroke:#000000; stroke-width:2; stroke-opacity:0.1; fill:none" points="
  270.627,109.1 2352.76,109.1 
  "/>
<polyline clip-path="url(#clip1000)" style="stroke:#000000; stroke-width:4; stroke-opacity:1; fill:none" points="
  270.627,1425.62 2352.76,1425.62 
  "/>
<polyline clip-path="url(#clip1000)" style="stroke:#000000; stroke-width:4; stroke-opacity:1; fill:none" points="
  270.627,1425.62 270.627,109.1 
  "/>
<polyline clip-path="url(#clip1000)" style="stroke:#000000; stroke-width:4; stroke-opacity:1; fill:none" points="
  313.423,1425.62 313.423,1405.87 
  "/>
<polyline clip-path="url(#clip1000)" style="stroke:#000000; stroke-width:4; stroke-opacity:1; fill:none" points="
  741.386,1425.62 741.386,1405.87 
  "/>
<polyline clip-path="url(#clip1000)" style="stroke:#000000; stroke-width:4; stroke-opacity:1; fill:none" points="
  1169.35,1425.62 1169.35,1405.87 
  "/>
<polyline clip-path="url(#clip1000)" style="stroke:#000000; stroke-width:4; stroke-opacity:1; fill:none" points="
  1597.31,1425.62 1597.31,1405.87 
  "/>
<polyline clip-path="url(#clip1000)" style="stroke:#000000; stroke-width:4; stroke-opacity:1; fill:none" points="
  2025.28,1425.62 2025.28,1405.87 
  "/>
<polyline clip-path="url(#clip1000)" style="stroke:#000000; stroke-width:4; stroke-opacity:1; fill:none" points="
  270.627,1425.62 301.858,1425.62 
  "/>
<polyline clip-path="url(#clip1000)" style="stroke:#000000; stroke-width:4; stroke-opacity:1; fill:none" points="
  270.627,1096.49 301.858,1096.49 
  "/>
<polyline clip-path="url(#clip1000)" style="stroke:#000000; stroke-width:4; stroke-opacity:1; fill:none" points="
  270.627,767.359 301.858,767.359 
  "/>
<polyline clip-path="url(#clip1000)" style="stroke:#000000; stroke-width:4; stroke-opacity:1; fill:none" points="
  270.627,438.23 301.858,438.23 
  "/>
<polyline clip-path="url(#clip1000)" style="stroke:#000000; stroke-width:4; stroke-opacity:1; fill:none" points="
  270.627,109.1 301.858,109.1 
  "/>
<g clip-path="url(#clip1000)">
<text style="fill:#000000; fill-opacity:1; font-family:Arial,Helvetica Neue,Helvetica,sans-serif; font-size:48px; text-anchor:middle;" transform="rotate(0, 313.423, 1479.62)" x="313.423" y="1479.62">0</text>
</g>
<g clip-path="url(#clip1000)">
<text style="fill:#000000; fill-opacity:1; font-family:Arial,Helvetica Neue,Helvetica,sans-serif; font-size:48px; text-anchor:middle;" transform="rotate(0, 741.386, 1479.62)" x="741.386" y="1479.62">5</text>
</g>
<g clip-path="url(#clip1000)">
<text style="fill:#000000; fill-opacity:1; font-family:Arial,Helvetica Neue,Helvetica,sans-serif; font-size:48px; text-anchor:middle;" transform="rotate(0, 1169.35, 1479.62)" x="1169.35" y="1479.62">10</text>
</g>
<g clip-path="url(#clip1000)">
<text style="fill:#000000; fill-opacity:1; font-family:Arial,Helvetica Neue,Helvetica,sans-serif; font-size:48px; text-anchor:middle;" transform="rotate(0, 1597.31, 1479.62)" x="1597.31" y="1479.62">15</text>
</g>
<g clip-path="url(#clip1000)">
<text style="fill:#000000; fill-opacity:1; font-family:Arial,Helvetica Neue,Helvetica,sans-serif; font-size:48px; text-anchor:middle;" transform="rotate(0, 2025.28, 1479.62)" x="2025.28" y="1479.62">20</text>
</g>
<g clip-path="url(#clip1000)">
<text style="fill:#000000; fill-opacity:1; font-family:Arial,Helvetica Neue,Helvetica,sans-serif; font-size:48px; text-anchor:end;" transform="rotate(0, 246.627, 1443.12)" x="246.627" y="1443.12">-0.50</text>
</g>
<g clip-path="url(#clip1000)">
<text style="fill:#000000; fill-opacity:1; font-family:Arial,Helvetica Neue,Helvetica,sans-serif; font-size:48px; text-anchor:end;" transform="rotate(0, 246.627, 1113.99)" x="246.627" y="1113.99">-0.25</text>
</g>
<g clip-path="url(#clip1000)">
<text style="fill:#000000; fill-opacity:1; font-family:Arial,Helvetica Neue,Helvetica,sans-serif; font-size:48px; text-anchor:end;" transform="rotate(0, 246.627, 784.859)" x="246.627" y="784.859">0.00</text>
</g>
<g clip-path="url(#clip1000)">
<text style="fill:#000000; fill-opacity:1; font-family:Arial,Helvetica Neue,Helvetica,sans-serif; font-size:48px; text-anchor:end;" transform="rotate(0, 246.627, 455.73)" x="246.627" y="455.73">0.25</text>
</g>
<g clip-path="url(#clip1000)">
<text style="fill:#000000; fill-opacity:1; font-family:Arial,Helvetica Neue,Helvetica,sans-serif; font-size:48px; text-anchor:end;" transform="rotate(0, 246.627, 126.6)" x="246.627" y="126.6">0.50</text>
</g>
<g clip-path="url(#clip1000)">
<text style="fill:#000000; fill-opacity:1; font-family:Arial,Helvetica Neue,Helvetica,sans-serif; font-size:66px; text-anchor:middle;" transform="rotate(0, 1311.69, 57.6)" x="1311.69" y="57.6">GCF_000001735.4_TAIR10.1_genomic.fna.K3.jf.histogram</text>
</g>
<g clip-path="url(#clip1000)">
<text style="fill:#000000; fill-opacity:1; font-family:Arial,Helvetica Neue,Helvetica,sans-serif; font-size:66px; text-anchor:middle;" transform="rotate(0, 1311.69, 1559.48)" x="1311.69" y="1559.48">log2(depth of coverage)</text>
</g>
<g clip-path="url(#clip1000)">
<text style="fill:#000000; fill-opacity:1; font-family:Arial,Helvetica Neue,Helvetica,sans-serif; font-size:66px; text-anchor:middle;" transform="rotate(-90, 89.2861, 767.359)" x="89.2861" y="767.359">log2(# kmers)</text>
</g>
<circle clip-path="url(#clip1002)" style="fill:#000000; stroke:none; fill-opacity:1" cx="2001.76" cy="767.359" r="18"/>
<circle clip-path="url(#clip1002)" style="fill:#009af9; stroke:none; fill-opacity:1" cx="2001.76" cy="767.359" r="14"/>
<circle clip-path="url(#clip1002)" style="fill:#000000; stroke:none; fill-opacity:1" cx="2039.61" cy="767.359" r="18"/>
<circle clip-path="url(#clip1002)" style="fill:#009af9; stroke:none; fill-opacity:1" cx="2039.61" cy="767.359" r="14"/>
<circle clip-path="url(#clip1002)" style="fill:#000000; stroke:none; fill-opacity:1" cx="2053.83" cy="767.359" r="18"/>
<circle clip-path="url(#clip1002)" style="fill:#009af9; stroke:none; fill-opacity:1" cx="2053.83" cy="767.359" r="14"/>
<circle clip-path="url(#clip1002)" style="fill:#000000; stroke:none; fill-opacity:1" cx="2055.86" cy="767.359" r="18"/>
<circle clip-path="url(#clip1002)" style="fill:#009af9; stroke:none; fill-opacity:1" cx="2055.86" cy="767.359" r="14"/>
<circle clip-path="url(#clip1002)" style="fill:#000000; stroke:none; fill-opacity:1" cx="2078.1" cy="767.359" r="18"/>
<circle clip-path="url(#clip1002)" style="fill:#009af9; stroke:none; fill-opacity:1" cx="2078.1" cy="767.359" r="14"/>
<circle clip-path="url(#clip1002)" style="fill:#000000; stroke:none; fill-opacity:1" cx="2101.99" cy="767.359" r="18"/>
<circle clip-path="url(#clip1002)" style="fill:#009af9; stroke:none; fill-opacity:1" cx="2101.99" cy="767.359" r="14"/>
<circle clip-path="url(#clip1002)" style="fill:#000000; stroke:none; fill-opacity:1" cx="2117.39" cy="767.359" r="18"/>
<circle clip-path="url(#clip1002)" style="fill:#009af9; stroke:none; fill-opacity:1" cx="2117.39" cy="767.359" r="14"/>
<circle clip-path="url(#clip1002)" style="fill:#000000; stroke:none; fill-opacity:1" cx="2129.44" cy="767.359" r="18"/>
<circle clip-path="url(#clip1002)" style="fill:#009af9; stroke:none; fill-opacity:1" cx="2129.44" cy="767.359" r="14"/>
<circle clip-path="url(#clip1002)" style="fill:#000000; stroke:none; fill-opacity:1" cx="2129.77" cy="767.359" r="18"/>
<circle clip-path="url(#clip1002)" style="fill:#009af9; stroke:none; fill-opacity:1" cx="2129.77" cy="767.359" r="14"/>
<circle clip-path="url(#clip1002)" style="fill:#000000; stroke:none; fill-opacity:1" cx="2131.35" cy="767.359" r="18"/>
<circle clip-path="url(#clip1002)" style="fill:#009af9; stroke:none; fill-opacity:1" cx="2131.35" cy="767.359" r="14"/>
<circle clip-path="url(#clip1002)" style="fill:#000000; stroke:none; fill-opacity:1" cx="2135.01" cy="767.359" r="18"/>
<circle clip-path="url(#clip1002)" style="fill:#009af9; stroke:none; fill-opacity:1" cx="2135.01" cy="767.359" r="14"/>
<circle clip-path="url(#clip1002)" style="fill:#000000; stroke:none; fill-opacity:1" cx="2135.03" cy="767.359" r="18"/>
<circle clip-path="url(#clip1002)" style="fill:#009af9; stroke:none; fill-opacity:1" cx="2135.03" cy="767.359" r="14"/>
<circle clip-path="url(#clip1002)" style="fill:#000000; stroke:none; fill-opacity:1" cx="2135.86" cy="767.359" r="18"/>
<circle clip-path="url(#clip1002)" style="fill:#009af9; stroke:none; fill-opacity:1" cx="2135.86" cy="767.359" r="14"/>
<circle clip-path="url(#clip1002)" style="fill:#000000; stroke:none; fill-opacity:1" cx="2150.26" cy="767.359" r="18"/>
<circle clip-path="url(#clip1002)" style="fill:#009af9; stroke:none; fill-opacity:1" cx="2150.26" cy="767.359" r="14"/>
<circle clip-path="url(#clip1002)" style="fill:#000000; stroke:none; fill-opacity:1" cx="2154.87" cy="767.359" r="18"/>
<circle clip-path="url(#clip1002)" style="fill:#009af9; stroke:none; fill-opacity:1" cx="2154.87" cy="767.359" r="14"/>
<circle clip-path="url(#clip1002)" style="fill:#000000; stroke:none; fill-opacity:1" cx="2160.52" cy="767.359" r="18"/>
<circle clip-path="url(#clip1002)" style="fill:#009af9; stroke:none; fill-opacity:1" cx="2160.52" cy="767.359" r="14"/>
<circle clip-path="url(#clip1002)" style="fill:#000000; stroke:none; fill-opacity:1" cx="2160.8" cy="767.359" r="18"/>
<circle clip-path="url(#clip1002)" style="fill:#009af9; stroke:none; fill-opacity:1" cx="2160.8" cy="767.359" r="14"/>
<circle clip-path="url(#clip1002)" style="fill:#000000; stroke:none; fill-opacity:1" cx="2167.6" cy="767.359" r="18"/>
<circle clip-path="url(#clip1002)" style="fill:#009af9; stroke:none; fill-opacity:1" cx="2167.6" cy="767.359" r="14"/>
<circle clip-path="url(#clip1002)" style="fill:#000000; stroke:none; fill-opacity:1" cx="2180.5" cy="767.359" r="18"/>
<circle clip-path="url(#clip1002)" style="fill:#009af9; stroke:none; fill-opacity:1" cx="2180.5" cy="767.359" r="14"/>
<circle clip-path="url(#clip1002)" style="fill:#000000; stroke:none; fill-opacity:1" cx="2202.25" cy="767.359" r="18"/>
<circle clip-path="url(#clip1002)" style="fill:#009af9; stroke:none; fill-opacity:1" cx="2202.25" cy="767.359" r="14"/>
<circle clip-path="url(#clip1002)" style="fill:#000000; stroke:none; fill-opacity:1" cx="2204.27" cy="767.359" r="18"/>
<circle clip-path="url(#clip1002)" style="fill:#009af9; stroke:none; fill-opacity:1" cx="2204.27" cy="767.359" r="14"/>
<circle clip-path="url(#clip1002)" style="fill:#000000; stroke:none; fill-opacity:1" cx="2209.23" cy="767.359" r="18"/>
<circle clip-path="url(#clip1002)" style="fill:#009af9; stroke:none; fill-opacity:1" cx="2209.23" cy="767.359" r="14"/>
<circle clip-path="url(#clip1002)" style="fill:#000000; stroke:none; fill-opacity:1" cx="2211.1" cy="767.359" r="18"/>
<circle clip-path="url(#clip1002)" style="fill:#009af9; stroke:none; fill-opacity:1" cx="2211.1" cy="767.359" r="14"/>
<circle clip-path="url(#clip1002)" style="fill:#000000; stroke:none; fill-opacity:1" cx="2216.73" cy="767.359" r="18"/>
<circle clip-path="url(#clip1002)" style="fill:#009af9; stroke:none; fill-opacity:1" cx="2216.73" cy="767.359" r="14"/>
<circle clip-path="url(#clip1002)" style="fill:#000000; stroke:none; fill-opacity:1" cx="2224.68" cy="767.359" r="18"/>
<circle clip-path="url(#clip1002)" style="fill:#009af9; stroke:none; fill-opacity:1" cx="2224.68" cy="767.359" r="14"/>
<circle clip-path="url(#clip1002)" style="fill:#000000; stroke:none; fill-opacity:1" cx="2227.25" cy="767.359" r="18"/>
<circle clip-path="url(#clip1002)" style="fill:#009af9; stroke:none; fill-opacity:1" cx="2227.25" cy="767.359" r="14"/>
<circle clip-path="url(#clip1002)" style="fill:#000000; stroke:none; fill-opacity:1" cx="2230.59" cy="767.359" r="18"/>
<circle clip-path="url(#clip1002)" style="fill:#009af9; stroke:none; fill-opacity:1" cx="2230.59" cy="767.359" r="14"/>
<circle clip-path="url(#clip1002)" style="fill:#000000; stroke:none; fill-opacity:1" cx="2233.37" cy="767.359" r="18"/>
<circle clip-path="url(#clip1002)" style="fill:#009af9; stroke:none; fill-opacity:1" cx="2233.37" cy="767.359" r="14"/>
<circle clip-path="url(#clip1002)" style="fill:#000000; stroke:none; fill-opacity:1" cx="2242.02" cy="767.359" r="18"/>
<circle clip-path="url(#clip1002)" style="fill:#009af9; stroke:none; fill-opacity:1" cx="2242.02" cy="767.359" r="14"/>
<circle clip-path="url(#clip1002)" style="fill:#000000; stroke:none; fill-opacity:1" cx="2242.81" cy="767.359" r="18"/>
<circle clip-path="url(#clip1002)" style="fill:#009af9; stroke:none; fill-opacity:1" cx="2242.81" cy="767.359" r="14"/>
<circle clip-path="url(#clip1002)" style="fill:#000000; stroke:none; fill-opacity:1" cx="2261.62" cy="767.359" r="18"/>
<circle clip-path="url(#clip1002)" style="fill:#009af9; stroke:none; fill-opacity:1" cx="2261.62" cy="767.359" r="14"/>
<circle clip-path="url(#clip1002)" style="fill:#000000; stroke:none; fill-opacity:1" cx="2309.96" cy="767.359" r="18"/>
<circle clip-path="url(#clip1002)" style="fill:#009af9; stroke:none; fill-opacity:1" cx="2309.96" cy="767.359" r="14"/>
<polyline clip-path="url(#clip1002)" style="stroke:#e26f46; stroke-width:4; stroke-opacity:1; fill:none" points="
  2001.76,767.359 2004.87,767.359 2007.99,767.359 2011.1,767.359 2014.21,767.359 2017.33,767.359 2020.44,767.359 2023.55,767.359 2026.67,767.359 2029.78,767.359 
  2032.89,767.359 2036.01,767.359 2039.12,767.359 2042.23,767.359 2045.34,767.359 2048.46,767.359 2051.57,767.359 2054.68,767.359 2057.8,767.359 2060.91,767.359 
  2064.02,767.359 2067.14,767.359 2070.25,767.359 2073.36,767.359 2076.48,767.359 2079.59,767.359 2082.7,767.359 2085.82,767.359 2088.93,767.359 2092.04,767.359 
  2095.15,767.359 2098.27,767.359 2101.38,767.359 2104.49,767.359 2107.61,767.359 2110.72,767.359 2113.83,767.359 2116.95,767.359 2120.06,767.359 2123.17,767.359 
  2126.29,767.359 2129.4,767.359 2132.51,767.359 2135.62,767.359 2138.74,767.359 2141.85,767.359 2144.96,767.359 2148.08,767.359 2151.19,767.359 2154.3,767.359 
  2157.42,767.359 2160.53,767.359 2163.64,767.359 2166.76,767.359 2169.87,767.359 2172.98,767.359 2176.1,767.359 2179.21,767.359 2182.32,767.359 2185.43,767.359 
  2188.55,767.359 2191.66,767.359 2194.77,767.359 2197.89,767.359 2201,767.359 2204.11,767.359 2207.23,767.359 2210.34,767.359 2213.45,767.359 2216.57,767.359 
  2219.68,767.359 2222.79,767.359 2225.91,767.359 2229.02,767.359 2232.13,767.359 2235.24,767.359 2238.36,767.359 2241.47,767.359 2244.58,767.359 2247.7,767.359 
  2250.81,767.359 2253.92,767.359 2257.04,767.359 2260.15,767.359 2263.26,767.359 2266.38,767.359 2269.49,767.359 2272.6,767.359 2275.72,767.359 2278.83,767.359 
  2281.94,767.359 2285.05,767.359 2288.17,767.359 2291.28,767.359 2294.39,767.359 2297.51,767.359 2300.62,767.359 2303.73,767.359 2306.85,767.359 2309.96,767.359 
  
  "/>
<g clip-path="url(#clip1000)">
<text style="fill:#000000; fill-opacity:1; font-family:Arial,Helvetica Neue,Helvetica,sans-serif; font-size:59px; text-anchor:start;" transform="rotate(0, 313.423, -527.659)" x="313.423" y="-527.659">r = NaN</text>
</g>
</svg>
