<?xml version="1.0" encoding="utf-8"?>
<svg xmlns="http://www.w3.org/2000/svg" xmlns:xlink="http://www.w3.org/1999/xlink" width="600" height="400" viewBox="0 0 2400 1600">
<defs>
  <clipPath id="clip9700">
    <rect x="0" y="0" width="2400" height="1600"/>
  </clipPath>
</defs>
<polygon clip-path="url(#clip9700)" points="
0,1600 2400,1600 2400,0 0,0 
  " fill="#ffffff" fill-rule="evenodd" fill-opacity="1"/>
<defs>
  <clipPath id="clip9701">
    <rect x="480" y="0" width="1681" height="1600"/>
  </clipPath>
</defs>
<polygon clip-path="url(#clip9700)" points="
270.627,1425.62 2352.76,1425.62 2352.76,109.1 270.627,109.1 
  " fill="#ffffff" fill-rule="evenodd" fill-opacity="1"/>
<defs>
  <clipPath id="clip9702">
    <rect x="270" y="109" width="2083" height="1318"/>
  </clipPath>
</defs>
<polyline clip-path="url(#clip9702)" style="stroke:#000000; stroke-width:2; stroke-opacity:0.1; fill:none" points="
  312.974,1425.62 312.974,109.1 
  "/>
<polyline clip-path="url(#clip9702)" style="stroke:#000000; stroke-width:2; stroke-opacity:0.1; fill:none" points="
  736.449,1425.62 736.449,109.1 
  "/>
<polyline clip-path="url(#clip9702)" style="stroke:#000000; stroke-width:2; stroke-opacity:0.1; fill:none" points="
  1159.92,1425.62 1159.92,109.1 
  "/>
<polyline clip-path="url(#clip9702)" style="stroke:#000000; stroke-width:2; stroke-opacity:0.1; fill:none" points="
  1583.4,1425.62 1583.4,109.1 
  "/>
<polyline clip-path="url(#clip9702)" style="stroke:#000000; stroke-width:2; stroke-opacity:0.1; fill:none" points="
  2006.87,1425.62 2006.87,109.1 
  "/>
<polyline clip-path="url(#clip9702)" style="stroke:#000000; stroke-width:2; stroke-opacity:0.1; fill:none" points="
  270.627,1425.62 2352.76,1425.62 
  "/>
<polyline clip-path="url(#clip9702)" style="stroke:#000000; stroke-width:2; stroke-opacity:0.1; fill:none" points="
  270.627,1096.49 2352.76,1096.49 
  "/>
<polyline clip-path="url(#clip9702)" style="stroke:#000000; stroke-width:2; stroke-opacity:0.1; fill:none" points="
  270.627,767.359 2352.76,767.359 
  "/>
<polyline clip-path="url(#clip9702)" style="stroke:#000000; stroke-width:2; stroke-opacity:0.1; fill:none" points="
  270.627,438.23 2352.76,438.23 
  "/>
<polyline clip-path="url(#clip9702)" style="stroke:#000000; stroke-width:2; stroke-opacity:0.1; fill:none" points="
  270.627,109.1 2352.76,109.1 
  "/>
<polyline clip-path="url(#clip9700)" style="stroke:#000000; stroke-width:4; stroke-opacity:1; fill:none" points="
  270.627,1425.62 2352.76,1425.62 
  "/>
<polyline clip-path="url(#clip9700)" style="stroke:#000000; stroke-width:4; stroke-opacity:1; fill:none" points="
  270.627,1425.62 270.627,109.1 
  "/>
<polyline clip-path="url(#clip9700)" style="stroke:#000000; stroke-width:4; stroke-opacity:1; fill:none" points="
  312.974,1425.62 312.974,1405.87 
  "/>
<polyline clip-path="url(#clip9700)" style="stroke:#000000; stroke-width:4; stroke-opacity:1; fill:none" points="
  736.449,1425.62 736.449,1405.87 
  "/>
<polyline clip-path="url(#clip9700)" style="stroke:#000000; stroke-width:4; stroke-opacity:1; fill:none" points="
  1159.92,1425.62 1159.92,1405.87 
  "/>
<polyline clip-path="url(#clip9700)" style="stroke:#000000; stroke-width:4; stroke-opacity:1; fill:none" points="
  1583.4,1425.62 1583.4,1405.87 
  "/>
<polyline clip-path="url(#clip9700)" style="stroke:#000000; stroke-width:4; stroke-opacity:1; fill:none" points="
  2006.87,1425.62 2006.87,1405.87 
  "/>
<polyline clip-path="url(#clip9700)" style="stroke:#000000; stroke-width:4; stroke-opacity:1; fill:none" points="
  270.627,1425.62 301.858,1425.62 
  "/>
<polyline clip-path="url(#clip9700)" style="stroke:#000000; stroke-width:4; stroke-opacity:1; fill:none" points="
  270.627,1096.49 301.858,1096.49 
  "/>
<polyline clip-path="url(#clip9700)" style="stroke:#000000; stroke-width:4; stroke-opacity:1; fill:none" points="
  270.627,767.359 301.858,767.359 
  "/>
<polyline clip-path="url(#clip9700)" style="stroke:#000000; stroke-width:4; stroke-opacity:1; fill:none" points="
  270.627,438.23 301.858,438.23 
  "/>
<polyline clip-path="url(#clip9700)" style="stroke:#000000; stroke-width:4; stroke-opacity:1; fill:none" points="
  270.627,109.1 301.858,109.1 
  "/>
<g clip-path="url(#clip9700)">
<text style="fill:#000000; fill-opacity:1; font-family:Arial,Helvetica Neue,Helvetica,sans-serif; font-size:48px; text-anchor:middle;" transform="rotate(0, 312.974, 1479.62)" x="312.974" y="1479.62">0</text>
</g>
<g clip-path="url(#clip9700)">
<text style="fill:#000000; fill-opacity:1; font-family:Arial,Helvetica Neue,Helvetica,sans-serif; font-size:48px; text-anchor:middle;" transform="rotate(0, 736.449, 1479.62)" x="736.449" y="1479.62">5</text>
</g>
<g clip-path="url(#clip9700)">
<text style="fill:#000000; fill-opacity:1; font-family:Arial,Helvetica Neue,Helvetica,sans-serif; font-size:48px; text-anchor:middle;" transform="rotate(0, 1159.92, 1479.62)" x="1159.92" y="1479.62">10</text>
</g>
<g clip-path="url(#clip9700)">
<text style="fill:#000000; fill-opacity:1; font-family:Arial,Helvetica Neue,Helvetica,sans-serif; font-size:48px; text-anchor:middle;" transform="rotate(0, 1583.4, 1479.62)" x="1583.4" y="1479.62">15</text>
</g>
<g clip-path="url(#clip9700)">
<text style="fill:#000000; fill-opacity:1; font-family:Arial,Helvetica Neue,Helvetica,sans-serif; font-size:48px; text-anchor:middle;" transform="rotate(0, 2006.87, 1479.62)" x="2006.87" y="1479.62">20</text>
</g>
<g clip-path="url(#clip9700)">
<text style="fill:#000000; fill-opacity:1; font-family:Arial,Helvetica Neue,Helvetica,sans-serif; font-size:48px; text-anchor:end;" transform="rotate(0, 246.627, 1443.12)" x="246.627" y="1443.12">-0.50</text>
</g>
<g clip-path="url(#clip9700)">
<text style="fill:#000000; fill-opacity:1; font-family:Arial,Helvetica Neue,Helvetica,sans-serif; font-size:48px; text-anchor:end;" transform="rotate(0, 246.627, 1113.99)" x="246.627" y="1113.99">-0.25</text>
</g>
<g clip-path="url(#clip9700)">
<text style="fill:#000000; fill-opacity:1; font-family:Arial,Helvetica Neue,Helvetica,sans-serif; font-size:48px; text-anchor:end;" transform="rotate(0, 246.627, 784.859)" x="246.627" y="784.859">0.00</text>
</g>
<g clip-path="url(#clip9700)">
<text style="fill:#000000; fill-opacity:1; font-family:Arial,Helvetica Neue,Helvetica,sans-serif; font-size:48px; text-anchor:end;" transform="rotate(0, 246.627, 455.73)" x="246.627" y="455.73">0.25</text>
</g>
<g clip-path="url(#clip9700)">
<text style="fill:#000000; fill-opacity:1; font-family:Arial,Helvetica Neue,Helvetica,sans-serif; font-size:48px; text-anchor:end;" transform="rotate(0, 246.627, 126.6)" x="246.627" y="126.6">0.50</text>
</g>
<g clip-path="url(#clip9700)">
<text style="fill:#000000; fill-opacity:1; font-family:Arial,Helvetica Neue,Helvetica,sans-serif; font-size:66px; text-anchor:middle;" transform="rotate(0, 1311.69, 57.6)" x="1311.69" y="57.6">GCF_000002985.6_WBcel235_genomic.fna.K3.jf.histogram</text>
</g>
<g clip-path="url(#clip9700)">
<text style="fill:#000000; fill-opacity:1; font-family:Arial,Helvetica Neue,Helvetica,sans-serif; font-size:66px; text-anchor:middle;" transform="rotate(0, 1311.69, 1559.48)" x="1311.69" y="1559.48">log2(depth of coverage)</text>
</g>
<g clip-path="url(#clip9700)">
<text style="fill:#000000; fill-opacity:1; font-family:Arial,Helvetica Neue,Helvetica,sans-serif; font-size:66px; text-anchor:middle;" transform="rotate(-90, 89.2861, 767.359)" x="89.2861" y="767.359">log2(# kmers)</text>
</g>
<circle clip-path="url(#clip9702)" style="fill:#000000; stroke:none; fill-opacity:1" cx="2013.69" cy="767.359" r="18"/>
<circle clip-path="url(#clip9702)" style="fill:#009af9; stroke:none; fill-opacity:1" cx="2013.69" cy="767.359" r="14"/>
<circle clip-path="url(#clip9702)" style="fill:#000000; stroke:none; fill-opacity:1" cx="2021.68" cy="767.359" r="18"/>
<circle clip-path="url(#clip9702)" style="fill:#009af9; stroke:none; fill-opacity:1" cx="2021.68" cy="767.359" r="14"/>
<circle clip-path="url(#clip9702)" style="fill:#000000; stroke:none; fill-opacity:1" cx="2040.76" cy="767.359" r="18"/>
<circle clip-path="url(#clip9702)" style="fill:#009af9; stroke:none; fill-opacity:1" cx="2040.76" cy="767.359" r="14"/>
<circle clip-path="url(#clip9702)" style="fill:#000000; stroke:none; fill-opacity:1" cx="2041.22" cy="767.359" r="18"/>
<circle clip-path="url(#clip9702)" style="fill:#009af9; stroke:none; fill-opacity:1" cx="2041.22" cy="767.359" r="14"/>
<circle clip-path="url(#clip9702)" style="fill:#000000; stroke:none; fill-opacity:1" cx="2057.45" cy="767.359" r="18"/>
<circle clip-path="url(#clip9702)" style="fill:#009af9; stroke:none; fill-opacity:1" cx="2057.45" cy="767.359" r="14"/>
<circle clip-path="url(#clip9702)" style="fill:#000000; stroke:none; fill-opacity:1" cx="2063.96" cy="767.359" r="18"/>
<circle clip-path="url(#clip9702)" style="fill:#009af9; stroke:none; fill-opacity:1" cx="2063.96" cy="767.359" r="14"/>
<circle clip-path="url(#clip9702)" style="fill:#000000; stroke:none; fill-opacity:1" cx="2066.67" cy="767.359" r="18"/>
<circle clip-path="url(#clip9702)" style="fill:#009af9; stroke:none; fill-opacity:1" cx="2066.67" cy="767.359" r="14"/>
<circle clip-path="url(#clip9702)" style="fill:#000000; stroke:none; fill-opacity:1" cx="2067.38" cy="767.359" r="18"/>
<circle clip-path="url(#clip9702)" style="fill:#009af9; stroke:none; fill-opacity:1" cx="2067.38" cy="767.359" r="14"/>
<circle clip-path="url(#clip9702)" style="fill:#000000; stroke:none; fill-opacity:1" cx="2081.75" cy="767.359" r="18"/>
<circle clip-path="url(#clip9702)" style="fill:#009af9; stroke:none; fill-opacity:1" cx="2081.75" cy="767.359" r="14"/>
<circle clip-path="url(#clip9702)" style="fill:#000000; stroke:none; fill-opacity:1" cx="2092.23" cy="767.359" r="18"/>
<circle clip-path="url(#clip9702)" style="fill:#009af9; stroke:none; fill-opacity:1" cx="2092.23" cy="767.359" r="14"/>
<circle clip-path="url(#clip9702)" style="fill:#000000; stroke:none; fill-opacity:1" cx="2093.61" cy="767.359" r="18"/>
<circle clip-path="url(#clip9702)" style="fill:#009af9; stroke:none; fill-opacity:1" cx="2093.61" cy="767.359" r="14"/>
<circle clip-path="url(#clip9702)" style="fill:#000000; stroke:none; fill-opacity:1" cx="2096.56" cy="767.359" r="18"/>
<circle clip-path="url(#clip9702)" style="fill:#009af9; stroke:none; fill-opacity:1" cx="2096.56" cy="767.359" r="14"/>
<circle clip-path="url(#clip9702)" style="fill:#000000; stroke:none; fill-opacity:1" cx="2097.7" cy="767.359" r="18"/>
<circle clip-path="url(#clip9702)" style="fill:#009af9; stroke:none; fill-opacity:1" cx="2097.7" cy="767.359" r="14"/>
<circle clip-path="url(#clip9702)" style="fill:#000000; stroke:none; fill-opacity:1" cx="2100.07" cy="767.359" r="18"/>
<circle clip-path="url(#clip9702)" style="fill:#009af9; stroke:none; fill-opacity:1" cx="2100.07" cy="767.359" r="14"/>
<circle clip-path="url(#clip9702)" style="fill:#000000; stroke:none; fill-opacity:1" cx="2102.07" cy="767.359" r="18"/>
<circle clip-path="url(#clip9702)" style="fill:#009af9; stroke:none; fill-opacity:1" cx="2102.07" cy="767.359" r="14"/>
<circle clip-path="url(#clip9702)" style="fill:#000000; stroke:none; fill-opacity:1" cx="2103.22" cy="767.359" r="18"/>
<circle clip-path="url(#clip9702)" style="fill:#009af9; stroke:none; fill-opacity:1" cx="2103.22" cy="767.359" r="14"/>
<circle clip-path="url(#clip9702)" style="fill:#000000; stroke:none; fill-opacity:1" cx="2109.46" cy="767.359" r="18"/>
<circle clip-path="url(#clip9702)" style="fill:#009af9; stroke:none; fill-opacity:1" cx="2109.46" cy="767.359" r="14"/>
<circle clip-path="url(#clip9702)" style="fill:#000000; stroke:none; fill-opacity:1" cx="2111.59" cy="767.359" r="18"/>
<circle clip-path="url(#clip9702)" style="fill:#009af9; stroke:none; fill-opacity:1" cx="2111.59" cy="767.359" r="14"/>
<circle clip-path="url(#clip9702)" style="fill:#000000; stroke:none; fill-opacity:1" cx="2133.25" cy="767.359" r="18"/>
<circle clip-path="url(#clip9702)" style="fill:#009af9; stroke:none; fill-opacity:1" cx="2133.25" cy="767.359" r="14"/>
<circle clip-path="url(#clip9702)" style="fill:#000000; stroke:none; fill-opacity:1" cx="2138.04" cy="767.359" r="18"/>
<circle clip-path="url(#clip9702)" style="fill:#009af9; stroke:none; fill-opacity:1" cx="2138.04" cy="767.359" r="14"/>
<circle clip-path="url(#clip9702)" style="fill:#000000; stroke:none; fill-opacity:1" cx="2141.75" cy="767.359" r="18"/>
<circle clip-path="url(#clip9702)" style="fill:#009af9; stroke:none; fill-opacity:1" cx="2141.75" cy="767.359" r="14"/>
<circle clip-path="url(#clip9702)" style="fill:#000000; stroke:none; fill-opacity:1" cx="2152.12" cy="767.359" r="18"/>
<circle clip-path="url(#clip9702)" style="fill:#009af9; stroke:none; fill-opacity:1" cx="2152.12" cy="767.359" r="14"/>
<circle clip-path="url(#clip9702)" style="fill:#000000; stroke:none; fill-opacity:1" cx="2152.59" cy="767.359" r="18"/>
<circle clip-path="url(#clip9702)" style="fill:#009af9; stroke:none; fill-opacity:1" cx="2152.59" cy="767.359" r="14"/>
<circle clip-path="url(#clip9702)" style="fill:#000000; stroke:none; fill-opacity:1" cx="2157.54" cy="767.359" r="18"/>
<circle clip-path="url(#clip9702)" style="fill:#009af9; stroke:none; fill-opacity:1" cx="2157.54" cy="767.359" r="14"/>
<circle clip-path="url(#clip9702)" style="fill:#000000; stroke:none; fill-opacity:1" cx="2158.63" cy="767.359" r="18"/>
<circle clip-path="url(#clip9702)" style="fill:#009af9; stroke:none; fill-opacity:1" cx="2158.63" cy="767.359" r="14"/>
<circle clip-path="url(#clip9702)" style="fill:#000000; stroke:none; fill-opacity:1" cx="2171.5" cy="767.359" r="18"/>
<circle clip-path="url(#clip9702)" style="fill:#009af9; stroke:none; fill-opacity:1" cx="2171.5" cy="767.359" r="14"/>
<circle clip-path="url(#clip9702)" style="fill:#000000; stroke:none; fill-opacity:1" cx="2177.88" cy="767.359" r="18"/>
<circle clip-path="url(#clip9702)" style="fill:#009af9; stroke:none; fill-opacity:1" cx="2177.88" cy="767.359" r="14"/>
<circle clip-path="url(#clip9702)" style="fill:#000000; stroke:none; fill-opacity:1" cx="2181.5" cy="767.359" r="18"/>
<circle clip-path="url(#clip9702)" style="fill:#009af9; stroke:none; fill-opacity:1" cx="2181.5" cy="767.359" r="14"/>
<circle clip-path="url(#clip9702)" style="fill:#000000; stroke:none; fill-opacity:1" cx="2193.54" cy="767.359" r="18"/>
<circle clip-path="url(#clip9702)" style="fill:#009af9; stroke:none; fill-opacity:1" cx="2193.54" cy="767.359" r="14"/>
<circle clip-path="url(#clip9702)" style="fill:#000000; stroke:none; fill-opacity:1" cx="2206.36" cy="767.359" r="18"/>
<circle clip-path="url(#clip9702)" style="fill:#009af9; stroke:none; fill-opacity:1" cx="2206.36" cy="767.359" r="14"/>
<circle clip-path="url(#clip9702)" style="fill:#000000; stroke:none; fill-opacity:1" cx="2247.1" cy="767.359" r="18"/>
<circle clip-path="url(#clip9702)" style="fill:#009af9; stroke:none; fill-opacity:1" cx="2247.1" cy="767.359" r="14"/>
<circle clip-path="url(#clip9702)" style="fill:#000000; stroke:none; fill-opacity:1" cx="2310.41" cy="767.359" r="18"/>
<circle clip-path="url(#clip9702)" style="fill:#009af9; stroke:none; fill-opacity:1" cx="2310.41" cy="767.359" r="14"/>
<polyline clip-path="url(#clip9702)" style="stroke:#e26f46; stroke-width:4; stroke-opacity:1; fill:none" points="
  2013.69,767.359 2016.68,767.359 2019.68,767.359 2022.68,767.359 2025.67,767.359 2028.67,767.359 2031.67,767.359 2034.67,767.359 2037.66,767.359 2040.66,767.359 
  2043.66,767.359 2046.66,767.359 2049.65,767.359 2052.65,767.359 2055.65,767.359 2058.64,767.359 2061.64,767.359 2064.64,767.359 2067.64,767.359 2070.63,767.359 
  2073.63,767.359 2076.63,767.359 2079.62,767.359 2082.62,767.359 2085.62,767.359 2088.62,767.359 2091.61,767.359 2094.61,767.359 2097.61,767.359 2100.6,767.359 
  2103.6,767.359 2106.6,767.359 2109.6,767.359 2112.59,767.359 2115.59,767.359 2118.59,767.359 2121.59,767.359 2124.58,767.359 2127.58,767.359 2130.58,767.359 
  2133.57,767.359 2136.57,767.359 2139.57,767.359 2142.57,767.359 2145.56,767.359 2148.56,767.359 2151.56,767.359 2154.55,767.359 2157.55,767.359 2160.55,767.359 
  2163.55,767.359 2166.54,767.359 2169.54,767.359 2172.54,767.359 2175.53,767.359 2178.53,767.359 2181.53,767.359 2184.53,767.359 2187.52,767.359 2190.52,767.359 
  2193.52,767.359 2196.51,767.359 2199.51,767.359 2202.51,767.359 2205.51,767.359 2208.5,767.359 2211.5,767.359 2214.5,767.359 2217.5,767.359 2220.49,767.359 
  2223.49,767.359 2226.49,767.359 2229.48,767.359 2232.48,767.359 2235.48,767.359 2238.48,767.359 2241.47,767.359 2244.47,767.359 2247.47,767.359 2250.46,767.359 
  2253.46,767.359 2256.46,767.359 2259.46,767.359 2262.45,767.359 2265.45,767.359 2268.45,767.359 2271.44,767.359 2274.44,767.359 2277.44,767.359 2280.44,767.359 
  2283.43,767.359 2286.43,767.359 2289.43,767.359 2292.43,767.359 2295.42,767.359 2298.42,767.359 2301.42,767.359 2304.41,767.359 2307.41,767.359 2310.41,767.359 
  
  "/>
<g clip-path="url(#clip9700)">
<text style="fill:#000000; fill-opacity:1; font-family:Arial,Helvetica Neue,Helvetica,sans-serif; font-size:59px; text-anchor:start;" transform="rotate(0, 312.974, -527.659)" x="312.974" y="-527.659">r = NaN</text>
</g>
</svg>
