<?xml version="1.0" encoding="utf-8"?>
<svg xmlns="http://www.w3.org/2000/svg" xmlns:xlink="http://www.w3.org/1999/xlink" width="600" height="400" viewBox="0 0 2400 1600">
<defs>
  <clipPath id="clip9500">
    <rect x="0" y="0" width="2400" height="1600"/>
  </clipPath>
</defs>
<polygon clip-path="url(#clip9500)" points="
0,1600 2400,1600 2400,0 0,0 
  " fill="#ffffff" fill-rule="evenodd" fill-opacity="1"/>
<defs>
  <clipPath id="clip9501">
    <rect x="480" y="0" width="1681" height="1600"/>
  </clipPath>
</defs>
<polygon clip-path="url(#clip9500)" points="
202.373,1425.62 2352.76,1425.62 2352.76,109.1 202.373,109.1 
  " fill="#ffffff" fill-rule="evenodd" fill-opacity="1"/>
<defs>
  <clipPath id="clip9502">
    <rect x="202" y="109" width="2151" height="1318"/>
  </clipPath>
</defs>
<polyline clip-path="url(#clip9502)" style="stroke:#000000; stroke-width:2; stroke-opacity:0.1; fill:none" points="
  353.627,1425.62 353.627,109.1 
  "/>
<polyline clip-path="url(#clip9502)" style="stroke:#000000; stroke-width:2; stroke-opacity:0.1; fill:none" points="
  656.134,1425.62 656.134,109.1 
  "/>
<polyline clip-path="url(#clip9502)" style="stroke:#000000; stroke-width:2; stroke-opacity:0.1; fill:none" points="
  958.642,1425.62 958.642,109.1 
  "/>
<polyline clip-path="url(#clip9502)" style="stroke:#000000; stroke-width:2; stroke-opacity:0.1; fill:none" points="
  1261.15,1425.62 1261.15,109.1 
  "/>
<polyline clip-path="url(#clip9502)" style="stroke:#000000; stroke-width:2; stroke-opacity:0.1; fill:none" points="
  1563.66,1425.62 1563.66,109.1 
  "/>
<polyline clip-path="url(#clip9502)" style="stroke:#000000; stroke-width:2; stroke-opacity:0.1; fill:none" points="
  1866.16,1425.62 1866.16,109.1 
  "/>
<polyline clip-path="url(#clip9502)" style="stroke:#000000; stroke-width:2; stroke-opacity:0.1; fill:none" points="
  2168.67,1425.62 2168.67,109.1 
  "/>
<polyline clip-path="url(#clip9502)" style="stroke:#000000; stroke-width:2; stroke-opacity:0.1; fill:none" points="
  202.373,1396.17 2352.76,1396.17 
  "/>
<polyline clip-path="url(#clip9502)" style="stroke:#000000; stroke-width:2; stroke-opacity:0.1; fill:none" points="
  202.373,1101.67 2352.76,1101.67 
  "/>
<polyline clip-path="url(#clip9502)" style="stroke:#000000; stroke-width:2; stroke-opacity:0.1; fill:none" points="
  202.373,807.177 2352.76,807.177 
  "/>
<polyline clip-path="url(#clip9502)" style="stroke:#000000; stroke-width:2; stroke-opacity:0.1; fill:none" points="
  202.373,512.681 2352.76,512.681 
  "/>
<polyline clip-path="url(#clip9502)" style="stroke:#000000; stroke-width:2; stroke-opacity:0.1; fill:none" points="
  202.373,218.185 2352.76,218.185 
  "/>
<polyline clip-path="url(#clip9500)" style="stroke:#000000; stroke-width:4; stroke-opacity:1; fill:none" points="
  202.373,1425.62 2352.76,1425.62 
  "/>
<polyline clip-path="url(#clip9500)" style="stroke:#000000; stroke-width:4; stroke-opacity:1; fill:none" points="
  202.373,1425.62 202.373,109.1 
  "/>
<polyline clip-path="url(#clip9500)" style="stroke:#000000; stroke-width:4; stroke-opacity:1; fill:none" points="
  353.627,1425.62 353.627,1405.87 
  "/>
<polyline clip-path="url(#clip9500)" style="stroke:#000000; stroke-width:4; stroke-opacity:1; fill:none" points="
  656.134,1425.62 656.134,1405.87 
  "/>
<polyline clip-path="url(#clip9500)" style="stroke:#000000; stroke-width:4; stroke-opacity:1; fill:none" points="
  958.642,1425.62 958.642,1405.87 
  "/>
<polyline clip-path="url(#clip9500)" style="stroke:#000000; stroke-width:4; stroke-opacity:1; fill:none" points="
  1261.15,1425.62 1261.15,1405.87 
  "/>
<polyline clip-path="url(#clip9500)" style="stroke:#000000; stroke-width:4; stroke-opacity:1; fill:none" points="
  1563.66,1425.62 1563.66,1405.87 
  "/>
<polyline clip-path="url(#clip9500)" style="stroke:#000000; stroke-width:4; stroke-opacity:1; fill:none" points="
  1866.16,1425.62 1866.16,1405.87 
  "/>
<polyline clip-path="url(#clip9500)" style="stroke:#000000; stroke-width:4; stroke-opacity:1; fill:none" points="
  2168.67,1425.62 2168.67,1405.87 
  "/>
<polyline clip-path="url(#clip9500)" style="stroke:#000000; stroke-width:4; stroke-opacity:1; fill:none" points="
  202.373,1396.17 234.629,1396.17 
  "/>
<polyline clip-path="url(#clip9500)" style="stroke:#000000; stroke-width:4; stroke-opacity:1; fill:none" points="
  202.373,1101.67 234.629,1101.67 
  "/>
<polyline clip-path="url(#clip9500)" style="stroke:#000000; stroke-width:4; stroke-opacity:1; fill:none" points="
  202.373,807.177 234.629,807.177 
  "/>
<polyline clip-path="url(#clip9500)" style="stroke:#000000; stroke-width:4; stroke-opacity:1; fill:none" points="
  202.373,512.681 234.629,512.681 
  "/>
<polyline clip-path="url(#clip9500)" style="stroke:#000000; stroke-width:4; stroke-opacity:1; fill:none" points="
  202.373,218.185 234.629,218.185 
  "/>
<g clip-path="url(#clip9500)">
<text style="fill:#000000; fill-opacity:1; font-family:Arial,Helvetica Neue,Helvetica,sans-serif; font-size:48px; text-anchor:middle;" transform="rotate(0, 353.627, 1479.62)" x="353.627" y="1479.62">0</text>
</g>
<g clip-path="url(#clip9500)">
<text style="fill:#000000; fill-opacity:1; font-family:Arial,Helvetica Neue,Helvetica,sans-serif; font-size:48px; text-anchor:middle;" transform="rotate(0, 656.134, 1479.62)" x="656.134" y="1479.62">1</text>
</g>
<g clip-path="url(#clip9500)">
<text style="fill:#000000; fill-opacity:1; font-family:Arial,Helvetica Neue,Helvetica,sans-serif; font-size:48px; text-anchor:middle;" transform="rotate(0, 958.642, 1479.62)" x="958.642" y="1479.62">2</text>
</g>
<g clip-path="url(#clip9500)">
<text style="fill:#000000; fill-opacity:1; font-family:Arial,Helvetica Neue,Helvetica,sans-serif; font-size:48px; text-anchor:middle;" transform="rotate(0, 1261.15, 1479.62)" x="1261.15" y="1479.62">3</text>
</g>
<g clip-path="url(#clip9500)">
<text style="fill:#000000; fill-opacity:1; font-family:Arial,Helvetica Neue,Helvetica,sans-serif; font-size:48px; text-anchor:middle;" transform="rotate(0, 1563.66, 1479.62)" x="1563.66" y="1479.62">4</text>
</g>
<g clip-path="url(#clip9500)">
<text style="fill:#000000; fill-opacity:1; font-family:Arial,Helvetica Neue,Helvetica,sans-serif; font-size:48px; text-anchor:middle;" transform="rotate(0, 1866.16, 1479.62)" x="1866.16" y="1479.62">5</text>
</g>
<g clip-path="url(#clip9500)">
<text style="fill:#000000; fill-opacity:1; font-family:Arial,Helvetica Neue,Helvetica,sans-serif; font-size:48px; text-anchor:middle;" transform="rotate(0, 2168.67, 1479.62)" x="2168.67" y="1479.62">6</text>
</g>
<g clip-path="url(#clip9500)">
<text style="fill:#000000; fill-opacity:1; font-family:Arial,Helvetica Neue,Helvetica,sans-serif; font-size:48px; text-anchor:end;" transform="rotate(0, 178.373, 1413.67)" x="178.373" y="1413.67">0</text>
</g>
<g clip-path="url(#clip9500)">
<text style="fill:#000000; fill-opacity:1; font-family:Arial,Helvetica Neue,Helvetica,sans-serif; font-size:48px; text-anchor:end;" transform="rotate(0, 178.373, 1119.17)" x="178.373" y="1119.17">5</text>
</g>
<g clip-path="url(#clip9500)">
<text style="fill:#000000; fill-opacity:1; font-family:Arial,Helvetica Neue,Helvetica,sans-serif; font-size:48px; text-anchor:end;" transform="rotate(0, 178.373, 824.677)" x="178.373" y="824.677">10</text>
</g>
<g clip-path="url(#clip9500)">
<text style="fill:#000000; fill-opacity:1; font-family:Arial,Helvetica Neue,Helvetica,sans-serif; font-size:48px; text-anchor:end;" transform="rotate(0, 178.373, 530.181)" x="178.373" y="530.181">15</text>
</g>
<g clip-path="url(#clip9500)">
<text style="fill:#000000; fill-opacity:1; font-family:Arial,Helvetica Neue,Helvetica,sans-serif; font-size:48px; text-anchor:end;" transform="rotate(0, 178.373, 235.685)" x="178.373" y="235.685">20</text>
</g>
<g clip-path="url(#clip9500)">
<text style="fill:#000000; fill-opacity:1; font-family:Arial,Helvetica Neue,Helvetica,sans-serif; font-size:66px; text-anchor:middle;" transform="rotate(0, 1277.56, 57.6)" x="1277.56" y="57.6">GCF_000064305.2_ASM6430v2_genomic.fna.K17.jf.histogram</text>
</g>
<g clip-path="url(#clip9500)">
<text style="fill:#000000; fill-opacity:1; font-family:Arial,Helvetica Neue,Helvetica,sans-serif; font-size:66px; text-anchor:middle;" transform="rotate(0, 1277.56, 1559.48)" x="1277.56" y="1559.48">log2(depth of coverage)</text>
</g>
<g clip-path="url(#clip9500)">
<text style="fill:#000000; fill-opacity:1; font-family:Arial,Helvetica Neue,Helvetica,sans-serif; font-size:66px; text-anchor:middle;" transform="rotate(-90, 89.2861, 767.359)" x="89.2861" y="767.359">log2(# kmers)</text>
</g>
<circle clip-path="url(#clip9502)" style="fill:#000000; stroke:none; fill-opacity:1" cx="353.627" cy="138.55" r="18"/>
<circle clip-path="url(#clip9502)" style="fill:#009af9; stroke:none; fill-opacity:1" cx="353.627" cy="138.55" r="14"/>
<circle clip-path="url(#clip9502)" style="fill:#000000; stroke:none; fill-opacity:1" cx="656.134" cy="525.233" r="18"/>
<circle clip-path="url(#clip9502)" style="fill:#009af9; stroke:none; fill-opacity:1" cx="656.134" cy="525.233" r="14"/>
<circle clip-path="url(#clip9502)" style="fill:#000000; stroke:none; fill-opacity:1" cx="833.09" cy="637.685" r="18"/>
<circle clip-path="url(#clip9502)" style="fill:#009af9; stroke:none; fill-opacity:1" cx="833.09" cy="637.685" r="14"/>
<circle clip-path="url(#clip9502)" style="fill:#000000; stroke:none; fill-opacity:1" cx="958.642" cy="766.691" r="18"/>
<circle clip-path="url(#clip9502)" style="fill:#009af9; stroke:none; fill-opacity:1" cx="958.642" cy="766.691" r="14"/>
<circle clip-path="url(#clip9502)" style="fill:#000000; stroke:none; fill-opacity:1" cx="1056.03" cy="797.909" r="18"/>
<circle clip-path="url(#clip9502)" style="fill:#009af9; stroke:none; fill-opacity:1" cx="1056.03" cy="797.909" r="14"/>
<circle clip-path="url(#clip9502)" style="fill:#000000; stroke:none; fill-opacity:1" cx="1135.6" cy="648.098" r="18"/>
<circle clip-path="url(#clip9502)" style="fill:#009af9; stroke:none; fill-opacity:1" cx="1135.6" cy="648.098" r="14"/>
<circle clip-path="url(#clip9502)" style="fill:#000000; stroke:none; fill-opacity:1" cx="1202.87" cy="756.551" r="18"/>
<circle clip-path="url(#clip9502)" style="fill:#009af9; stroke:none; fill-opacity:1" cx="1202.87" cy="756.551" r="14"/>
<circle clip-path="url(#clip9502)" style="fill:#000000; stroke:none; fill-opacity:1" cx="1261.15" cy="877.613" r="18"/>
<circle clip-path="url(#clip9502)" style="fill:#009af9; stroke:none; fill-opacity:1" cx="1261.15" cy="877.613" r="14"/>
<circle clip-path="url(#clip9502)" style="fill:#000000; stroke:none; fill-opacity:1" cx="1312.55" cy="878.185" r="18"/>
<circle clip-path="url(#clip9502)" style="fill:#009af9; stroke:none; fill-opacity:1" cx="1312.55" cy="878.185" r="14"/>
<circle clip-path="url(#clip9502)" style="fill:#000000; stroke:none; fill-opacity:1" cx="1358.54" cy="849.95" r="18"/>
<circle clip-path="url(#clip9502)" style="fill:#009af9; stroke:none; fill-opacity:1" cx="1358.54" cy="849.95" r="14"/>
<circle clip-path="url(#clip9502)" style="fill:#000000; stroke:none; fill-opacity:1" cx="1400.13" cy="832.512" r="18"/>
<circle clip-path="url(#clip9502)" style="fill:#009af9; stroke:none; fill-opacity:1" cx="1400.13" cy="832.512" r="14"/>
<circle clip-path="url(#clip9502)" style="fill:#000000; stroke:none; fill-opacity:1" cx="1438.11" cy="905.485" r="18"/>
<circle clip-path="url(#clip9502)" style="fill:#009af9; stroke:none; fill-opacity:1" cx="1438.11" cy="905.485" r="14"/>
<circle clip-path="url(#clip9502)" style="fill:#000000; stroke:none; fill-opacity:1" cx="1473.04" cy="1074.61" r="18"/>
<circle clip-path="url(#clip9502)" style="fill:#009af9; stroke:none; fill-opacity:1" cx="1473.04" cy="1074.61" r="14"/>
<circle clip-path="url(#clip9502)" style="fill:#000000; stroke:none; fill-opacity:1" cx="1505.38" cy="1044.11" r="18"/>
<circle clip-path="url(#clip9502)" style="fill:#009af9; stroke:none; fill-opacity:1" cx="1505.38" cy="1044.11" r="14"/>
<circle clip-path="url(#clip9502)" style="fill:#000000; stroke:none; fill-opacity:1" cx="1535.49" cy="948.103" r="18"/>
<circle clip-path="url(#clip9502)" style="fill:#009af9; stroke:none; fill-opacity:1" cx="1535.49" cy="948.103" r="14"/>
<circle clip-path="url(#clip9502)" style="fill:#000000; stroke:none; fill-opacity:1" cx="1563.66" cy="1096.52" r="18"/>
<circle clip-path="url(#clip9502)" style="fill:#009af9; stroke:none; fill-opacity:1" cx="1563.66" cy="1096.52" r="14"/>
<circle clip-path="url(#clip9502)" style="fill:#000000; stroke:none; fill-opacity:1" cx="1590.12" cy="1104.37" r="18"/>
<circle clip-path="url(#clip9502)" style="fill:#009af9; stroke:none; fill-opacity:1" cx="1590.12" cy="1104.37" r="14"/>
<circle clip-path="url(#clip9502)" style="fill:#000000; stroke:none; fill-opacity:1" cx="1615.06" cy="1078.57" r="18"/>
<circle clip-path="url(#clip9502)" style="fill:#009af9; stroke:none; fill-opacity:1" cx="1615.06" cy="1078.57" r="14"/>
<circle clip-path="url(#clip9502)" style="fill:#000000; stroke:none; fill-opacity:1" cx="1638.66" cy="1069.01" r="18"/>
<circle clip-path="url(#clip9502)" style="fill:#009af9; stroke:none; fill-opacity:1" cx="1638.66" cy="1069.01" r="14"/>
<circle clip-path="url(#clip9502)" style="fill:#000000; stroke:none; fill-opacity:1" cx="1661.04" cy="1116.11" r="18"/>
<circle clip-path="url(#clip9502)" style="fill:#009af9; stroke:none; fill-opacity:1" cx="1661.04" cy="1116.11" r="14"/>
<circle clip-path="url(#clip9502)" style="fill:#000000; stroke:none; fill-opacity:1" cx="1682.34" cy="1200.51" r="18"/>
<circle clip-path="url(#clip9502)" style="fill:#009af9; stroke:none; fill-opacity:1" cx="1682.34" cy="1200.51" r="14"/>
<circle clip-path="url(#clip9502)" style="fill:#000000; stroke:none; fill-opacity:1" cx="1702.64" cy="1259.41" r="18"/>
<circle clip-path="url(#clip9502)" style="fill:#009af9; stroke:none; fill-opacity:1" cx="1702.64" cy="1259.41" r="14"/>
<circle clip-path="url(#clip9502)" style="fill:#000000; stroke:none; fill-opacity:1" cx="1740.61" cy="1230.82" r="18"/>
<circle clip-path="url(#clip9502)" style="fill:#009af9; stroke:none; fill-opacity:1" cx="1740.61" cy="1230.82" r="14"/>
<circle clip-path="url(#clip9502)" style="fill:#000000; stroke:none; fill-opacity:1" cx="1758.43" cy="1259.41" r="18"/>
<circle clip-path="url(#clip9502)" style="fill:#009af9; stroke:none; fill-opacity:1" cx="1758.43" cy="1259.41" r="14"/>
<circle clip-path="url(#clip9502)" style="fill:#000000; stroke:none; fill-opacity:1" cx="1775.55" cy="1337.27" r="18"/>
<circle clip-path="url(#clip9502)" style="fill:#009af9; stroke:none; fill-opacity:1" cx="1775.55" cy="1337.27" r="14"/>
<circle clip-path="url(#clip9502)" style="fill:#000000; stroke:none; fill-opacity:1" cx="1792.02" cy="1230.82" r="18"/>
<circle clip-path="url(#clip9502)" style="fill:#009af9; stroke:none; fill-opacity:1" cx="1792.02" cy="1230.82" r="14"/>
<circle clip-path="url(#clip9502)" style="fill:#000000; stroke:none; fill-opacity:1" cx="1807.89" cy="1259.41" r="18"/>
<circle clip-path="url(#clip9502)" style="fill:#009af9; stroke:none; fill-opacity:1" cx="1807.89" cy="1259.41" r="14"/>
<circle clip-path="url(#clip9502)" style="fill:#000000; stroke:none; fill-opacity:1" cx="1823.2" cy="1166.06" r="18"/>
<circle clip-path="url(#clip9502)" style="fill:#009af9; stroke:none; fill-opacity:1" cx="1823.2" cy="1166.06" r="14"/>
<circle clip-path="url(#clip9502)" style="fill:#000000; stroke:none; fill-opacity:1" cx="1838" cy="1243.92" r="18"/>
<circle clip-path="url(#clip9502)" style="fill:#009af9; stroke:none; fill-opacity:1" cx="1838" cy="1243.92" r="14"/>
<circle clip-path="url(#clip9502)" style="fill:#000000; stroke:none; fill-opacity:1" cx="1852.31" cy="1166.06" r="18"/>
<circle clip-path="url(#clip9502)" style="fill:#009af9; stroke:none; fill-opacity:1" cx="1852.31" cy="1166.06" r="14"/>
<circle clip-path="url(#clip9502)" style="fill:#000000; stroke:none; fill-opacity:1" cx="1866.16" cy="1219.47" r="18"/>
<circle clip-path="url(#clip9502)" style="fill:#009af9; stroke:none; fill-opacity:1" cx="1866.16" cy="1219.47" r="14"/>
<circle clip-path="url(#clip9502)" style="fill:#000000; stroke:none; fill-opacity:1" cx="1879.59" cy="1243.92" r="18"/>
<circle clip-path="url(#clip9502)" style="fill:#009af9; stroke:none; fill-opacity:1" cx="1879.59" cy="1243.92" r="14"/>
<circle clip-path="url(#clip9502)" style="fill:#000000; stroke:none; fill-opacity:1" cx="1892.62" cy="1171.92" r="18"/>
<circle clip-path="url(#clip9502)" style="fill:#009af9; stroke:none; fill-opacity:1" cx="1892.62" cy="1171.92" r="14"/>
<circle clip-path="url(#clip9502)" style="fill:#000000; stroke:none; fill-opacity:1" cx="1905.27" cy="1166.06" r="18"/>
<circle clip-path="url(#clip9502)" style="fill:#009af9; stroke:none; fill-opacity:1" cx="1905.27" cy="1166.06" r="14"/>
<circle clip-path="url(#clip9502)" style="fill:#000000; stroke:none; fill-opacity:1" cx="1917.57" cy="1209.46" r="18"/>
<circle clip-path="url(#clip9502)" style="fill:#009af9; stroke:none; fill-opacity:1" cx="1917.57" cy="1209.46" r="14"/>
<circle clip-path="url(#clip9502)" style="fill:#000000; stroke:none; fill-opacity:1" cx="1929.53" cy="1209.46" r="18"/>
<circle clip-path="url(#clip9502)" style="fill:#009af9; stroke:none; fill-opacity:1" cx="1929.53" cy="1209.46" r="14"/>
<circle clip-path="url(#clip9502)" style="fill:#000000; stroke:none; fill-opacity:1" cx="1941.16" cy="1209.46" r="18"/>
<circle clip-path="url(#clip9502)" style="fill:#009af9; stroke:none; fill-opacity:1" cx="1941.16" cy="1209.46" r="14"/>
<circle clip-path="url(#clip9502)" style="fill:#000000; stroke:none; fill-opacity:1" cx="1952.5" cy="1396.17" r="18"/>
<circle clip-path="url(#clip9502)" style="fill:#009af9; stroke:none; fill-opacity:1" cx="1952.5" cy="1396.17" r="14"/>
<circle clip-path="url(#clip9502)" style="fill:#000000; stroke:none; fill-opacity:1" cx="1963.55" cy="1302.82" r="18"/>
<circle clip-path="url(#clip9502)" style="fill:#009af9; stroke:none; fill-opacity:1" cx="1963.55" cy="1302.82" r="14"/>
<circle clip-path="url(#clip9502)" style="fill:#000000; stroke:none; fill-opacity:1" cx="2014.95" cy="1396.17" r="18"/>
<circle clip-path="url(#clip9502)" style="fill:#009af9; stroke:none; fill-opacity:1" cx="2014.95" cy="1396.17" r="14"/>
<circle clip-path="url(#clip9502)" style="fill:#000000; stroke:none; fill-opacity:1" cx="2182.1" cy="1302.82" r="18"/>
<circle clip-path="url(#clip9502)" style="fill:#009af9; stroke:none; fill-opacity:1" cx="2182.1" cy="1302.82" r="14"/>
<circle clip-path="url(#clip9502)" style="fill:#000000; stroke:none; fill-opacity:1" cx="2188.67" cy="1278.37" r="18"/>
<circle clip-path="url(#clip9502)" style="fill:#009af9; stroke:none; fill-opacity:1" cx="2188.67" cy="1278.37" r="14"/>
<circle clip-path="url(#clip9502)" style="fill:#000000; stroke:none; fill-opacity:1" cx="2195.13" cy="1278.37" r="18"/>
<circle clip-path="url(#clip9502)" style="fill:#009af9; stroke:none; fill-opacity:1" cx="2195.13" cy="1278.37" r="14"/>
<circle clip-path="url(#clip9502)" style="fill:#000000; stroke:none; fill-opacity:1" cx="2201.5" cy="1337.27" r="18"/>
<circle clip-path="url(#clip9502)" style="fill:#009af9; stroke:none; fill-opacity:1" cx="2201.5" cy="1337.27" r="14"/>
<polyline clip-path="url(#clip9502)" style="stroke:#e26f46; stroke-width:4; stroke-opacity:1; fill:none" points="
  353.627,310.766 372.292,321.99 390.958,333.213 409.623,344.436 428.288,355.66 446.954,366.883 465.619,378.106 484.285,389.33 502.95,400.553 521.615,411.776 
  540.281,423 558.946,434.223 577.612,445.446 596.277,456.67 614.942,467.893 633.608,479.116 652.273,490.34 670.939,501.563 689.604,512.786 708.269,524.009 
  726.935,535.233 745.6,546.456 764.266,557.679 782.931,568.903 801.597,580.126 820.262,591.349 838.927,602.573 857.593,613.796 876.258,625.019 894.924,636.243 
  913.589,647.466 932.254,658.689 950.92,669.913 969.585,681.136 988.251,692.359 1006.92,703.583 1025.58,714.806 1044.25,726.029 1062.91,737.253 1081.58,748.476 
  1100.24,759.699 1118.91,770.923 1137.57,782.146 1156.24,793.369 1174.9,804.593 1193.57,815.816 1212.24,827.039 1230.9,838.262 1249.57,849.486 1268.23,860.709 
  1286.9,871.932 1305.56,883.156 1324.23,894.379 1342.89,905.602 1361.56,916.826 1380.22,928.049 1398.89,939.272 1417.55,950.496 1436.22,961.719 1454.89,972.942 
  1473.55,984.166 1492.22,995.389 1510.88,1006.61 1529.55,1017.84 1548.21,1029.06 1566.88,1040.28 1585.54,1051.51 1604.21,1062.73 1622.87,1073.95 1641.54,1085.18 
  1660.21,1096.4 1678.87,1107.62 1697.54,1118.85 1716.2,1130.07 1734.87,1141.29 1753.53,1152.52 1772.2,1163.74 1790.86,1174.96 1809.53,1186.19 1828.19,1197.41 
  1846.86,1208.63 1865.52,1219.86 1884.19,1231.08 1902.86,1242.3 1921.52,1253.53 1940.19,1264.75 1958.85,1275.97 1977.52,1287.2 1996.18,1298.42 2014.85,1309.64 
  2033.51,1320.87 2052.18,1332.09 2070.84,1343.31 2089.51,1354.54 2108.18,1365.76 2126.84,1376.98 2145.51,1388.21 2164.17,1399.43 2182.84,1410.65 2201.5,1421.88 
  
  "/>
<g clip-path="url(#clip9500)">
<text style="fill:#000000; fill-opacity:1; font-family:Arial,Helvetica Neue,Helvetica,sans-serif; font-size:59px; text-anchor:start;" transform="rotate(0, 353.627, 1358.77)" x="353.627" y="1358.77">r = -0.95</text>
</g>
</svg>
