<?xml version="1.0" encoding="utf-8"?>
<svg xmlns="http://www.w3.org/2000/svg" xmlns:xlink="http://www.w3.org/1999/xlink" width="600" height="400" viewBox="0 0 2400 1600">
<defs>
  <clipPath id="clip3200">
    <rect x="0" y="0" width="2400" height="1600"/>
  </clipPath>
</defs>
<polygon clip-path="url(#clip3200)" points="
0,1600 2400,1600 2400,0 0,0 
  " fill="#ffffff" fill-rule="evenodd" fill-opacity="1"/>
<defs>
  <clipPath id="clip3201">
    <rect x="480" y="0" width="1681" height="1600"/>
  </clipPath>
</defs>
<polygon clip-path="url(#clip3200)" points="
270.627,1425.62 2352.76,1425.62 2352.76,109.1 270.627,109.1 
  " fill="#ffffff" fill-rule="evenodd" fill-opacity="1"/>
<defs>
  <clipPath id="clip3202">
    <rect x="270" y="109" width="2083" height="1318"/>
  </clipPath>
</defs>
<polyline clip-path="url(#clip3202)" style="stroke:#000000; stroke-width:2; stroke-opacity:0.1; fill:none" points="
  320.523,1425.62 320.523,109.1 
  "/>
<polyline clip-path="url(#clip3202)" style="stroke:#000000; stroke-width:2; stroke-opacity:0.1; fill:none" points="
  819.492,1425.62 819.492,109.1 
  "/>
<polyline clip-path="url(#clip3202)" style="stroke:#000000; stroke-width:2; stroke-opacity:0.1; fill:none" points="
  1318.46,1425.62 1318.46,109.1 
  "/>
<polyline clip-path="url(#clip3202)" style="stroke:#000000; stroke-width:2; stroke-opacity:0.1; fill:none" points="
  1817.43,1425.62 1817.43,109.1 
  "/>
<polyline clip-path="url(#clip3202)" style="stroke:#000000; stroke-width:2; stroke-opacity:0.1; fill:none" points="
  2316.4,1425.62 2316.4,109.1 
  "/>
<polyline clip-path="url(#clip3202)" style="stroke:#000000; stroke-width:2; stroke-opacity:0.1; fill:none" points="
  270.627,1425.62 2352.76,1425.62 
  "/>
<polyline clip-path="url(#clip3202)" style="stroke:#000000; stroke-width:2; stroke-opacity:0.1; fill:none" points="
  270.627,1096.49 2352.76,1096.49 
  "/>
<polyline clip-path="url(#clip3202)" style="stroke:#000000; stroke-width:2; stroke-opacity:0.1; fill:none" points="
  270.627,767.359 2352.76,767.359 
  "/>
<polyline clip-path="url(#clip3202)" style="stroke:#000000; stroke-width:2; stroke-opacity:0.1; fill:none" points="
  270.627,438.23 2352.76,438.23 
  "/>
<polyline clip-path="url(#clip3202)" style="stroke:#000000; stroke-width:2; stroke-opacity:0.1; fill:none" points="
  270.627,109.1 2352.76,109.1 
  "/>
<polyline clip-path="url(#clip3200)" style="stroke:#000000; stroke-width:4; stroke-opacity:1; fill:none" points="
  270.627,1425.62 2352.76,1425.62 
  "/>
<polyline clip-path="url(#clip3200)" style="stroke:#000000; stroke-width:4; stroke-opacity:1; fill:none" points="
  270.627,1425.62 270.627,109.1 
  "/>
<polyline clip-path="url(#clip3200)" style="stroke:#000000; stroke-width:4; stroke-opacity:1; fill:none" points="
  320.523,1425.62 320.523,1405.87 
  "/>
<polyline clip-path="url(#clip3200)" style="stroke:#000000; stroke-width:4; stroke-opacity:1; fill:none" points="
  819.492,1425.62 819.492,1405.87 
  "/>
<polyline clip-path="url(#clip3200)" style="stroke:#000000; stroke-width:4; stroke-opacity:1; fill:none" points="
  1318.46,1425.62 1318.46,1405.87 
  "/>
<polyline clip-path="url(#clip3200)" style="stroke:#000000; stroke-width:4; stroke-opacity:1; fill:none" points="
  1817.43,1425.62 1817.43,1405.87 
  "/>
<polyline clip-path="url(#clip3200)" style="stroke:#000000; stroke-width:4; stroke-opacity:1; fill:none" points="
  2316.4,1425.62 2316.4,1405.87 
  "/>
<polyline clip-path="url(#clip3200)" style="stroke:#000000; stroke-width:4; stroke-opacity:1; fill:none" points="
  270.627,1425.62 301.858,1425.62 
  "/>
<polyline clip-path="url(#clip3200)" style="stroke:#000000; stroke-width:4; stroke-opacity:1; fill:none" points="
  270.627,1096.49 301.858,1096.49 
  "/>
<polyline clip-path="url(#clip3200)" style="stroke:#000000; stroke-width:4; stroke-opacity:1; fill:none" points="
  270.627,767.359 301.858,767.359 
  "/>
<polyline clip-path="url(#clip3200)" style="stroke:#000000; stroke-width:4; stroke-opacity:1; fill:none" points="
  270.627,438.23 301.858,438.23 
  "/>
<polyline clip-path="url(#clip3200)" style="stroke:#000000; stroke-width:4; stroke-opacity:1; fill:none" points="
  270.627,109.1 301.858,109.1 
  "/>
<g clip-path="url(#clip3200)">
<text style="fill:#000000; fill-opacity:1; font-family:Arial,Helvetica Neue,Helvetica,sans-serif; font-size:48px; text-anchor:middle;" transform="rotate(0, 320.523, 1479.62)" x="320.523" y="1479.62">0</text>
</g>
<g clip-path="url(#clip3200)">
<text style="fill:#000000; fill-opacity:1; font-family:Arial,Helvetica Neue,Helvetica,sans-serif; font-size:48px; text-anchor:middle;" transform="rotate(0, 819.492, 1479.62)" x="819.492" y="1479.62">5</text>
</g>
<g clip-path="url(#clip3200)">
<text style="fill:#000000; fill-opacity:1; font-family:Arial,Helvetica Neue,Helvetica,sans-serif; font-size:48px; text-anchor:middle;" transform="rotate(0, 1318.46, 1479.62)" x="1318.46" y="1479.62">10</text>
</g>
<g clip-path="url(#clip3200)">
<text style="fill:#000000; fill-opacity:1; font-family:Arial,Helvetica Neue,Helvetica,sans-serif; font-size:48px; text-anchor:middle;" transform="rotate(0, 1817.43, 1479.62)" x="1817.43" y="1479.62">15</text>
</g>
<g clip-path="url(#clip3200)">
<text style="fill:#000000; fill-opacity:1; font-family:Arial,Helvetica Neue,Helvetica,sans-serif; font-size:48px; text-anchor:middle;" transform="rotate(0, 2316.4, 1479.62)" x="2316.4" y="1479.62">20</text>
</g>
<g clip-path="url(#clip3200)">
<text style="fill:#000000; fill-opacity:1; font-family:Arial,Helvetica Neue,Helvetica,sans-serif; font-size:48px; text-anchor:end;" transform="rotate(0, 246.627, 1443.12)" x="246.627" y="1443.12">-0.50</text>
</g>
<g clip-path="url(#clip3200)">
<text style="fill:#000000; fill-opacity:1; font-family:Arial,Helvetica Neue,Helvetica,sans-serif; font-size:48px; text-anchor:end;" transform="rotate(0, 246.627, 1113.99)" x="246.627" y="1113.99">-0.25</text>
</g>
<g clip-path="url(#clip3200)">
<text style="fill:#000000; fill-opacity:1; font-family:Arial,Helvetica Neue,Helvetica,sans-serif; font-size:48px; text-anchor:end;" transform="rotate(0, 246.627, 784.859)" x="246.627" y="784.859">0.00</text>
</g>
<g clip-path="url(#clip3200)">
<text style="fill:#000000; fill-opacity:1; font-family:Arial,Helvetica Neue,Helvetica,sans-serif; font-size:48px; text-anchor:end;" transform="rotate(0, 246.627, 455.73)" x="246.627" y="455.73">0.25</text>
</g>
<g clip-path="url(#clip3200)">
<text style="fill:#000000; fill-opacity:1; font-family:Arial,Helvetica Neue,Helvetica,sans-serif; font-size:48px; text-anchor:end;" transform="rotate(0, 246.627, 126.6)" x="246.627" y="126.6">0.50</text>
</g>
<g clip-path="url(#clip3200)">
<text style="fill:#000000; fill-opacity:1; font-family:Arial,Helvetica Neue,Helvetica,sans-serif; font-size:66px; text-anchor:middle;" transform="rotate(0, 1311.69, 57.6)" x="1311.69" y="57.6">GCF_000146045.2_R64_genomic.fna.K3.jf.histogram</text>
</g>
<g clip-path="url(#clip3200)">
<text style="fill:#000000; fill-opacity:1; font-family:Arial,Helvetica Neue,Helvetica,sans-serif; font-size:66px; text-anchor:middle;" transform="rotate(0, 1311.69, 1559.48)" x="1311.69" y="1559.48">log2(depth of coverage)</text>
</g>
<g clip-path="url(#clip3200)">
<text style="fill:#000000; fill-opacity:1; font-family:Arial,Helvetica Neue,Helvetica,sans-serif; font-size:66px; text-anchor:middle;" transform="rotate(-90, 89.2861, 767.359)" x="89.2861" y="767.359">log2(# kmers)</text>
</g>
<circle clip-path="url(#clip3202)" style="fill:#000000; stroke:none; fill-opacity:1" cx="2022.72" cy="767.359" r="18"/>
<circle clip-path="url(#clip3202)" style="fill:#009af9; stroke:none; fill-opacity:1" cx="2022.72" cy="767.359" r="14"/>
<circle clip-path="url(#clip3202)" style="fill:#000000; stroke:none; fill-opacity:1" cx="2027.92" cy="767.359" r="18"/>
<circle clip-path="url(#clip3202)" style="fill:#009af9; stroke:none; fill-opacity:1" cx="2027.92" cy="767.359" r="14"/>
<circle clip-path="url(#clip3202)" style="fill:#000000; stroke:none; fill-opacity:1" cx="2049.45" cy="767.359" r="18"/>
<circle clip-path="url(#clip3202)" style="fill:#009af9; stroke:none; fill-opacity:1" cx="2049.45" cy="767.359" r="14"/>
<circle clip-path="url(#clip3202)" style="fill:#000000; stroke:none; fill-opacity:1" cx="2070.98" cy="767.359" r="18"/>
<circle clip-path="url(#clip3202)" style="fill:#009af9; stroke:none; fill-opacity:1" cx="2070.98" cy="767.359" r="14"/>
<circle clip-path="url(#clip3202)" style="fill:#000000; stroke:none; fill-opacity:1" cx="2086.17" cy="767.359" r="18"/>
<circle clip-path="url(#clip3202)" style="fill:#009af9; stroke:none; fill-opacity:1" cx="2086.17" cy="767.359" r="14"/>
<circle clip-path="url(#clip3202)" style="fill:#000000; stroke:none; fill-opacity:1" cx="2092.2" cy="767.359" r="18"/>
<circle clip-path="url(#clip3202)" style="fill:#009af9; stroke:none; fill-opacity:1" cx="2092.2" cy="767.359" r="14"/>
<circle clip-path="url(#clip3202)" style="fill:#000000; stroke:none; fill-opacity:1" cx="2101.33" cy="767.359" r="18"/>
<circle clip-path="url(#clip3202)" style="fill:#009af9; stroke:none; fill-opacity:1" cx="2101.33" cy="767.359" r="14"/>
<circle clip-path="url(#clip3202)" style="fill:#000000; stroke:none; fill-opacity:1" cx="2114.81" cy="767.359" r="18"/>
<circle clip-path="url(#clip3202)" style="fill:#009af9; stroke:none; fill-opacity:1" cx="2114.81" cy="767.359" r="14"/>
<circle clip-path="url(#clip3202)" style="fill:#000000; stroke:none; fill-opacity:1" cx="2122.09" cy="767.359" r="18"/>
<circle clip-path="url(#clip3202)" style="fill:#009af9; stroke:none; fill-opacity:1" cx="2122.09" cy="767.359" r="14"/>
<circle clip-path="url(#clip3202)" style="fill:#000000; stroke:none; fill-opacity:1" cx="2124.9" cy="767.359" r="18"/>
<circle clip-path="url(#clip3202)" style="fill:#009af9; stroke:none; fill-opacity:1" cx="2124.9" cy="767.359" r="14"/>
<circle clip-path="url(#clip3202)" style="fill:#000000; stroke:none; fill-opacity:1" cx="2125.46" cy="767.359" r="18"/>
<circle clip-path="url(#clip3202)" style="fill:#009af9; stroke:none; fill-opacity:1" cx="2125.46" cy="767.359" r="14"/>
<circle clip-path="url(#clip3202)" style="fill:#000000; stroke:none; fill-opacity:1" cx="2126.7" cy="767.359" r="18"/>
<circle clip-path="url(#clip3202)" style="fill:#009af9; stroke:none; fill-opacity:1" cx="2126.7" cy="767.359" r="14"/>
<circle clip-path="url(#clip3202)" style="fill:#000000; stroke:none; fill-opacity:1" cx="2136.88" cy="767.359" r="18"/>
<circle clip-path="url(#clip3202)" style="fill:#009af9; stroke:none; fill-opacity:1" cx="2136.88" cy="767.359" r="14"/>
<circle clip-path="url(#clip3202)" style="fill:#000000; stroke:none; fill-opacity:1" cx="2138.51" cy="767.359" r="18"/>
<circle clip-path="url(#clip3202)" style="fill:#009af9; stroke:none; fill-opacity:1" cx="2138.51" cy="767.359" r="14"/>
<circle clip-path="url(#clip3202)" style="fill:#000000; stroke:none; fill-opacity:1" cx="2140.26" cy="767.359" r="18"/>
<circle clip-path="url(#clip3202)" style="fill:#009af9; stroke:none; fill-opacity:1" cx="2140.26" cy="767.359" r="14"/>
<circle clip-path="url(#clip3202)" style="fill:#000000; stroke:none; fill-opacity:1" cx="2142.07" cy="767.359" r="18"/>
<circle clip-path="url(#clip3202)" style="fill:#009af9; stroke:none; fill-opacity:1" cx="2142.07" cy="767.359" r="14"/>
<circle clip-path="url(#clip3202)" style="fill:#000000; stroke:none; fill-opacity:1" cx="2156.38" cy="767.359" r="18"/>
<circle clip-path="url(#clip3202)" style="fill:#009af9; stroke:none; fill-opacity:1" cx="2156.38" cy="767.359" r="14"/>
<circle clip-path="url(#clip3202)" style="fill:#000000; stroke:none; fill-opacity:1" cx="2162.99" cy="767.359" r="18"/>
<circle clip-path="url(#clip3202)" style="fill:#009af9; stroke:none; fill-opacity:1" cx="2162.99" cy="767.359" r="14"/>
<circle clip-path="url(#clip3202)" style="fill:#000000; stroke:none; fill-opacity:1" cx="2165.43" cy="767.359" r="18"/>
<circle clip-path="url(#clip3202)" style="fill:#009af9; stroke:none; fill-opacity:1" cx="2165.43" cy="767.359" r="14"/>
<circle clip-path="url(#clip3202)" style="fill:#000000; stroke:none; fill-opacity:1" cx="2183.45" cy="767.359" r="18"/>
<circle clip-path="url(#clip3202)" style="fill:#009af9; stroke:none; fill-opacity:1" cx="2183.45" cy="767.359" r="14"/>
<circle clip-path="url(#clip3202)" style="fill:#000000; stroke:none; fill-opacity:1" cx="2187.14" cy="767.359" r="18"/>
<circle clip-path="url(#clip3202)" style="fill:#009af9; stroke:none; fill-opacity:1" cx="2187.14" cy="767.359" r="14"/>
<circle clip-path="url(#clip3202)" style="fill:#000000; stroke:none; fill-opacity:1" cx="2190.57" cy="767.359" r="18"/>
<circle clip-path="url(#clip3202)" style="fill:#009af9; stroke:none; fill-opacity:1" cx="2190.57" cy="767.359" r="14"/>
<circle clip-path="url(#clip3202)" style="fill:#000000; stroke:none; fill-opacity:1" cx="2192.92" cy="767.359" r="18"/>
<circle clip-path="url(#clip3202)" style="fill:#009af9; stroke:none; fill-opacity:1" cx="2192.92" cy="767.359" r="14"/>
<circle clip-path="url(#clip3202)" style="fill:#000000; stroke:none; fill-opacity:1" cx="2206.78" cy="767.359" r="18"/>
<circle clip-path="url(#clip3202)" style="fill:#009af9; stroke:none; fill-opacity:1" cx="2206.78" cy="767.359" r="14"/>
<circle clip-path="url(#clip3202)" style="fill:#000000; stroke:none; fill-opacity:1" cx="2207.15" cy="767.359" r="18"/>
<circle clip-path="url(#clip3202)" style="fill:#009af9; stroke:none; fill-opacity:1" cx="2207.15" cy="767.359" r="14"/>
<circle clip-path="url(#clip3202)" style="fill:#000000; stroke:none; fill-opacity:1" cx="2216.79" cy="767.359" r="18"/>
<circle clip-path="url(#clip3202)" style="fill:#009af9; stroke:none; fill-opacity:1" cx="2216.79" cy="767.359" r="14"/>
<circle clip-path="url(#clip3202)" style="fill:#000000; stroke:none; fill-opacity:1" cx="2221.87" cy="767.359" r="18"/>
<circle clip-path="url(#clip3202)" style="fill:#009af9; stroke:none; fill-opacity:1" cx="2221.87" cy="767.359" r="14"/>
<circle clip-path="url(#clip3202)" style="fill:#000000; stroke:none; fill-opacity:1" cx="2226.27" cy="767.359" r="18"/>
<circle clip-path="url(#clip3202)" style="fill:#009af9; stroke:none; fill-opacity:1" cx="2226.27" cy="767.359" r="14"/>
<circle clip-path="url(#clip3202)" style="fill:#000000; stroke:none; fill-opacity:1" cx="2230.03" cy="767.359" r="18"/>
<circle clip-path="url(#clip3202)" style="fill:#009af9; stroke:none; fill-opacity:1" cx="2230.03" cy="767.359" r="14"/>
<circle clip-path="url(#clip3202)" style="fill:#000000; stroke:none; fill-opacity:1" cx="2237.14" cy="767.359" r="18"/>
<circle clip-path="url(#clip3202)" style="fill:#009af9; stroke:none; fill-opacity:1" cx="2237.14" cy="767.359" r="14"/>
<circle clip-path="url(#clip3202)" style="fill:#000000; stroke:none; fill-opacity:1" cx="2261.78" cy="767.359" r="18"/>
<circle clip-path="url(#clip3202)" style="fill:#009af9; stroke:none; fill-opacity:1" cx="2261.78" cy="767.359" r="14"/>
<circle clip-path="url(#clip3202)" style="fill:#000000; stroke:none; fill-opacity:1" cx="2302.86" cy="767.359" r="18"/>
<circle clip-path="url(#clip3202)" style="fill:#009af9; stroke:none; fill-opacity:1" cx="2302.86" cy="767.359" r="14"/>
<polyline clip-path="url(#clip3202)" style="stroke:#e26f46; stroke-width:4; stroke-opacity:1; fill:none" points="
  2022.72,767.359 2025.55,767.359 2028.38,767.359 2031.21,767.359 2034.04,767.359 2036.87,767.359 2039.7,767.359 2042.53,767.359 2045.36,767.359 2048.19,767.359 
  2051.02,767.359 2053.84,767.359 2056.67,767.359 2059.5,767.359 2062.33,767.359 2065.16,767.359 2067.99,767.359 2070.82,767.359 2073.65,767.359 2076.48,767.359 
  2079.31,767.359 2082.14,767.359 2084.97,767.359 2087.8,767.359 2090.63,767.359 2093.46,767.359 2096.29,767.359 2099.12,767.359 2101.95,767.359 2104.78,767.359 
  2107.61,767.359 2110.44,767.359 2113.27,767.359 2116.1,767.359 2118.93,767.359 2121.76,767.359 2124.59,767.359 2127.42,767.359 2130.25,767.359 2133.08,767.359 
  2135.91,767.359 2138.74,767.359 2141.57,767.359 2144.4,767.359 2147.23,767.359 2150.05,767.359 2152.88,767.359 2155.71,767.359 2158.54,767.359 2161.37,767.359 
  2164.2,767.359 2167.03,767.359 2169.86,767.359 2172.69,767.359 2175.52,767.359 2178.35,767.359 2181.18,767.359 2184.01,767.359 2186.84,767.359 2189.67,767.359 
  2192.5,767.359 2195.33,767.359 2198.16,767.359 2200.99,767.359 2203.82,767.359 2206.65,767.359 2209.48,767.359 2212.31,767.359 2215.14,767.359 2217.97,767.359 
  2220.8,767.359 2223.63,767.359 2226.46,767.359 2229.29,767.359 2232.12,767.359 2234.95,767.359 2237.78,767.359 2240.61,767.359 2243.44,767.359 2246.26,767.359 
  2249.09,767.359 2251.92,767.359 2254.75,767.359 2257.58,767.359 2260.41,767.359 2263.24,767.359 2266.07,767.359 2268.9,767.359 2271.73,767.359 2274.56,767.359 
  2277.39,767.359 2280.22,767.359 2283.05,767.359 2285.88,767.359 2288.71,767.359 2291.54,767.359 2294.37,767.359 2297.2,767.359 2300.03,767.359 2302.86,767.359 
  
  "/>
<g clip-path="url(#clip3200)">
<text style="fill:#000000; fill-opacity:1; font-family:Arial,Helvetica Neue,Helvetica,sans-serif; font-size:59px; text-anchor:start;" transform="rotate(0, 320.523, -527.659)" x="320.523" y="-527.659">r = NaN</text>
</g>
</svg>
