<?xml version="1.0" encoding="utf-8"?>
<svg xmlns="http://www.w3.org/2000/svg" xmlns:xlink="http://www.w3.org/1999/xlink" width="600" height="400" viewBox="0 0 2400 1600">
<defs>
  <clipPath id="clip0800">
    <rect x="0" y="0" width="2400" height="1600"/>
  </clipPath>
</defs>
<polygon clip-path="url(#clip0800)" points="
0,1600 2400,1600 2400,0 0,0 
  " fill="#ffffff" fill-rule="evenodd" fill-opacity="1"/>
<defs>
  <clipPath id="clip0801">
    <rect x="480" y="0" width="1681" height="1600"/>
  </clipPath>
</defs>
<polygon clip-path="url(#clip0800)" points="
242.516,1425.62 2352.76,1425.62 2352.76,109.1 242.516,109.1 
  " fill="#ffffff" fill-rule="evenodd" fill-opacity="1"/>
<defs>
  <clipPath id="clip0802">
    <rect x="242" y="109" width="2111" height="1318"/>
  </clipPath>
</defs>
<polyline clip-path="url(#clip0802)" style="stroke:#000000; stroke-width:2; stroke-opacity:0.1; fill:none" points="
  495.547,1425.62 495.547,109.1 
  "/>
<polyline clip-path="url(#clip0802)" style="stroke:#000000; stroke-width:2; stroke-opacity:0.1; fill:none" points="
  1001.61,1425.62 1001.61,109.1 
  "/>
<polyline clip-path="url(#clip0802)" style="stroke:#000000; stroke-width:2; stroke-opacity:0.1; fill:none" points="
  1507.67,1425.62 1507.67,109.1 
  "/>
<polyline clip-path="url(#clip0802)" style="stroke:#000000; stroke-width:2; stroke-opacity:0.1; fill:none" points="
  2013.73,1425.62 2013.73,109.1 
  "/>
<polyline clip-path="url(#clip0802)" style="stroke:#000000; stroke-width:2; stroke-opacity:0.1; fill:none" points="
  242.516,1371.01 2352.76,1371.01 
  "/>
<polyline clip-path="url(#clip0802)" style="stroke:#000000; stroke-width:2; stroke-opacity:0.1; fill:none" points="
  242.516,1097.96 2352.76,1097.96 
  "/>
<polyline clip-path="url(#clip0802)" style="stroke:#000000; stroke-width:2; stroke-opacity:0.1; fill:none" points="
  242.516,824.914 2352.76,824.914 
  "/>
<polyline clip-path="url(#clip0802)" style="stroke:#000000; stroke-width:2; stroke-opacity:0.1; fill:none" points="
  242.516,551.866 2352.76,551.866 
  "/>
<polyline clip-path="url(#clip0802)" style="stroke:#000000; stroke-width:2; stroke-opacity:0.1; fill:none" points="
  242.516,278.819 2352.76,278.819 
  "/>
<polyline clip-path="url(#clip0800)" style="stroke:#000000; stroke-width:4; stroke-opacity:1; fill:none" points="
  242.516,1425.62 2352.76,1425.62 
  "/>
<polyline clip-path="url(#clip0800)" style="stroke:#000000; stroke-width:4; stroke-opacity:1; fill:none" points="
  242.516,1425.62 242.516,109.1 
  "/>
<polyline clip-path="url(#clip0800)" style="stroke:#000000; stroke-width:4; stroke-opacity:1; fill:none" points="
  495.547,1425.62 495.547,1405.87 
  "/>
<polyline clip-path="url(#clip0800)" style="stroke:#000000; stroke-width:4; stroke-opacity:1; fill:none" points="
  1001.61,1425.62 1001.61,1405.87 
  "/>
<polyline clip-path="url(#clip0800)" style="stroke:#000000; stroke-width:4; stroke-opacity:1; fill:none" points="
  1507.67,1425.62 1507.67,1405.87 
  "/>
<polyline clip-path="url(#clip0800)" style="stroke:#000000; stroke-width:4; stroke-opacity:1; fill:none" points="
  2013.73,1425.62 2013.73,1405.87 
  "/>
<polyline clip-path="url(#clip0800)" style="stroke:#000000; stroke-width:4; stroke-opacity:1; fill:none" points="
  242.516,1371.01 274.17,1371.01 
  "/>
<polyline clip-path="url(#clip0800)" style="stroke:#000000; stroke-width:4; stroke-opacity:1; fill:none" points="
  242.516,1097.96 274.17,1097.96 
  "/>
<polyline clip-path="url(#clip0800)" style="stroke:#000000; stroke-width:4; stroke-opacity:1; fill:none" points="
  242.516,824.914 274.17,824.914 
  "/>
<polyline clip-path="url(#clip0800)" style="stroke:#000000; stroke-width:4; stroke-opacity:1; fill:none" points="
  242.516,551.866 274.17,551.866 
  "/>
<polyline clip-path="url(#clip0800)" style="stroke:#000000; stroke-width:4; stroke-opacity:1; fill:none" points="
  242.516,278.819 274.17,278.819 
  "/>
<g clip-path="url(#clip0800)">
<text style="fill:#000000; fill-opacity:1; font-family:Arial,Helvetica Neue,Helvetica,sans-serif; font-size:48px; text-anchor:middle;" transform="rotate(0, 495.547, 1479.62)" x="495.547" y="1479.62">0</text>
</g>
<g clip-path="url(#clip0800)">
<text style="fill:#000000; fill-opacity:1; font-family:Arial,Helvetica Neue,Helvetica,sans-serif; font-size:48px; text-anchor:middle;" transform="rotate(0, 1001.61, 1479.62)" x="1001.61" y="1479.62">1</text>
</g>
<g clip-path="url(#clip0800)">
<text style="fill:#000000; fill-opacity:1; font-family:Arial,Helvetica Neue,Helvetica,sans-serif; font-size:48px; text-anchor:middle;" transform="rotate(0, 1507.67, 1479.62)" x="1507.67" y="1479.62">2</text>
</g>
<g clip-path="url(#clip0800)">
<text style="fill:#000000; fill-opacity:1; font-family:Arial,Helvetica Neue,Helvetica,sans-serif; font-size:48px; text-anchor:middle;" transform="rotate(0, 2013.73, 1479.62)" x="2013.73" y="1479.62">3</text>
</g>
<g clip-path="url(#clip0800)">
<text style="fill:#000000; fill-opacity:1; font-family:Arial,Helvetica Neue,Helvetica,sans-serif; font-size:48px; text-anchor:end;" transform="rotate(0, 218.516, 1388.51)" x="218.516" y="1388.51">0.0</text>
</g>
<g clip-path="url(#clip0800)">
<text style="fill:#000000; fill-opacity:1; font-family:Arial,Helvetica Neue,Helvetica,sans-serif; font-size:48px; text-anchor:end;" transform="rotate(0, 218.516, 1115.46)" x="218.516" y="1115.46">2.5</text>
</g>
<g clip-path="url(#clip0800)">
<text style="fill:#000000; fill-opacity:1; font-family:Arial,Helvetica Neue,Helvetica,sans-serif; font-size:48px; text-anchor:end;" transform="rotate(0, 218.516, 842.414)" x="218.516" y="842.414">5.0</text>
</g>
<g clip-path="url(#clip0800)">
<text style="fill:#000000; fill-opacity:1; font-family:Arial,Helvetica Neue,Helvetica,sans-serif; font-size:48px; text-anchor:end;" transform="rotate(0, 218.516, 569.366)" x="218.516" y="569.366">7.5</text>
</g>
<g clip-path="url(#clip0800)">
<text style="fill:#000000; fill-opacity:1; font-family:Arial,Helvetica Neue,Helvetica,sans-serif; font-size:48px; text-anchor:end;" transform="rotate(0, 218.516, 296.319)" x="218.516" y="296.319">10.0</text>
</g>
<g clip-path="url(#clip0800)">
<text style="fill:#000000; fill-opacity:1; font-family:Arial,Helvetica Neue,Helvetica,sans-serif; font-size:66px; text-anchor:middle;" transform="rotate(0, 1297.64, 57.6)" x="1297.64" y="57.6">GCF_000849665.1_ViralProj14593_genomic.fna.K7.jf.histogram</text>
</g>
<g clip-path="url(#clip0800)">
<text style="fill:#000000; fill-opacity:1; font-family:Arial,Helvetica Neue,Helvetica,sans-serif; font-size:66px; text-anchor:middle;" transform="rotate(0, 1297.64, 1559.48)" x="1297.64" y="1559.48">log2(depth of coverage)</text>
</g>
<g clip-path="url(#clip0800)">
<text style="fill:#000000; fill-opacity:1; font-family:Arial,Helvetica Neue,Helvetica,sans-serif; font-size:66px; text-anchor:middle;" transform="rotate(-90, 89.2861, 767.359)" x="89.2861" y="767.359">log2(# kmers)</text>
</g>
<circle clip-path="url(#clip0802)" style="fill:#000000; stroke:none; fill-opacity:1" cx="495.547" cy="163.71" r="18"/>
<circle clip-path="url(#clip0802)" style="fill:#009af9; stroke:none; fill-opacity:1" cx="495.547" cy="163.71" r="14"/>
<circle clip-path="url(#clip0802)" style="fill:#000000; stroke:none; fill-opacity:1" cx="1001.61" cy="350.919" r="18"/>
<circle clip-path="url(#clip0802)" style="fill:#009af9; stroke:none; fill-opacity:1" cx="1001.61" cy="350.919" r="14"/>
<circle clip-path="url(#clip0802)" style="fill:#000000; stroke:none; fill-opacity:1" cx="1297.64" cy="525.493" r="18"/>
<circle clip-path="url(#clip0802)" style="fill:#009af9; stroke:none; fill-opacity:1" cx="1297.64" cy="525.493" r="14"/>
<circle clip-path="url(#clip0802)" style="fill:#000000; stroke:none; fill-opacity:1" cx="1507.67" cy="686.557" r="18"/>
<circle clip-path="url(#clip0802)" style="fill:#009af9; stroke:none; fill-opacity:1" cx="1507.67" cy="686.557" r="14"/>
<circle clip-path="url(#clip0802)" style="fill:#000000; stroke:none; fill-opacity:1" cx="1670.59" cy="870.244" r="18"/>
<circle clip-path="url(#clip0802)" style="fill:#009af9; stroke:none; fill-opacity:1" cx="1670.59" cy="870.244" r="14"/>
<circle clip-path="url(#clip0802)" style="fill:#000000; stroke:none; fill-opacity:1" cx="1803.7" cy="1064.39" r="18"/>
<circle clip-path="url(#clip0802)" style="fill:#009af9; stroke:none; fill-opacity:1" cx="1803.7" cy="1064.39" r="14"/>
<circle clip-path="url(#clip0802)" style="fill:#000000; stroke:none; fill-opacity:1" cx="1916.24" cy="1261.79" r="18"/>
<circle clip-path="url(#clip0802)" style="fill:#009af9; stroke:none; fill-opacity:1" cx="1916.24" cy="1261.79" r="14"/>
<circle clip-path="url(#clip0802)" style="fill:#000000; stroke:none; fill-opacity:1" cx="2099.73" cy="1371.01" r="18"/>
<circle clip-path="url(#clip0802)" style="fill:#009af9; stroke:none; fill-opacity:1" cx="2099.73" cy="1371.01" r="14"/>
<polyline clip-path="url(#clip0802)" style="stroke:#e26f46; stroke-width:4; stroke-opacity:1; fill:none" points="
  495.547,11.9479 511.751,24.7781 527.955,37.6084 544.159,50.4387 560.363,63.269 576.566,76.0993 592.77,88.9296 608.974,101.76 625.178,114.59 641.382,127.421 
  657.585,140.251 673.789,153.081 689.993,165.911 706.197,178.742 722.401,191.572 738.605,204.402 754.808,217.233 771.012,230.063 787.216,242.893 803.42,255.723 
  819.624,268.554 835.827,281.384 852.031,294.214 868.235,307.045 884.439,319.875 900.643,332.705 916.846,345.536 933.05,358.366 949.254,371.196 965.458,384.026 
  981.662,396.857 997.866,409.687 1014.07,422.517 1030.27,435.348 1046.48,448.178 1062.68,461.008 1078.88,473.838 1095.09,486.669 1111.29,499.499 1127.5,512.329 
  1143.7,525.16 1159.9,537.99 1176.11,550.82 1192.31,563.651 1208.52,576.481 1224.72,589.311 1240.92,602.141 1257.13,614.972 1273.33,627.802 1289.53,640.632 
  1305.74,653.463 1321.94,666.293 1338.15,679.123 1354.35,691.953 1370.55,704.784 1386.76,717.614 1402.96,730.444 1419.16,743.275 1435.37,756.105 1451.57,768.935 
  1467.78,781.766 1483.98,794.596 1500.18,807.426 1516.39,820.256 1532.59,833.087 1548.8,845.917 1565,858.747 1581.2,871.578 1597.41,884.408 1613.61,897.238 
  1629.81,910.069 1646.02,922.899 1662.22,935.729 1678.43,948.559 1694.63,961.39 1710.83,974.22 1727.04,987.05 1743.24,999.881 1759.44,1012.71 1775.65,1025.54 
  1791.85,1038.37 1808.06,1051.2 1824.26,1064.03 1840.46,1076.86 1856.67,1089.69 1872.87,1102.52 1889.08,1115.35 1905.28,1128.18 1921.48,1141.01 1937.69,1153.84 
  1953.89,1166.67 1970.09,1179.5 1986.3,1192.34 2002.5,1205.17 2018.71,1218 2034.91,1230.83 2051.11,1243.66 2067.32,1256.49 2083.52,1269.32 2099.73,1282.15 
  
  "/>
<g clip-path="url(#clip0800)">
<text style="fill:#000000; fill-opacity:1; font-family:Arial,Helvetica Neue,Helvetica,sans-serif; font-size:59px; text-anchor:start;" transform="rotate(0, 495.547, 1283.29)" x="495.547" y="1283.29">r = -0.97</text>
</g>
</svg>
