<?xml version="1.0" encoding="utf-8"?>
<svg xmlns="http://www.w3.org/2000/svg" xmlns:xlink="http://www.w3.org/1999/xlink" width="600" height="400" viewBox="0 0 2400 1600">
<defs>
  <clipPath id="clip0800">
    <rect x="0" y="0" width="2400" height="1600"/>
  </clipPath>
</defs>
<polygon clip-path="url(#clip0800)" points="
0,1600 2400,1600 2400,0 0,0 
  " fill="#ffffff" fill-rule="evenodd" fill-opacity="1"/>
<defs>
  <clipPath id="clip0801">
    <rect x="480" y="0" width="1681" height="1600"/>
  </clipPath>
</defs>
<polygon clip-path="url(#clip0800)" points="
252.496,1440.48 2321.26,1440.48 2321.26,125.984 252.496,125.984 
  " fill="#ffffff" fill-rule="evenodd" fill-opacity="1"/>
<defs>
  <clipPath id="clip0802">
    <rect x="252" y="125" width="2070" height="1315"/>
  </clipPath>
</defs>
<polyline clip-path="url(#clip0802)" style="stroke:#000000; stroke-width:2; stroke-opacity:0.1; fill:none" points="
  359.438,1440.48 359.438,125.984 
  "/>
<polyline clip-path="url(#clip0802)" style="stroke:#000000; stroke-width:2; stroke-opacity:0.1; fill:none" points="
  787.203,1440.48 787.203,125.984 
  "/>
<polyline clip-path="url(#clip0802)" style="stroke:#000000; stroke-width:2; stroke-opacity:0.1; fill:none" points="
  1214.97,1440.48 1214.97,125.984 
  "/>
<polyline clip-path="url(#clip0802)" style="stroke:#000000; stroke-width:2; stroke-opacity:0.1; fill:none" points="
  1642.73,1440.48 1642.73,125.984 
  "/>
<polyline clip-path="url(#clip0802)" style="stroke:#000000; stroke-width:2; stroke-opacity:0.1; fill:none" points="
  2070.5,1440.48 2070.5,125.984 
  "/>
<polyline clip-path="url(#clip0802)" style="stroke:#000000; stroke-width:2; stroke-opacity:0.1; fill:none" points="
  252.496,1440.48 2321.26,1440.48 
  "/>
<polyline clip-path="url(#clip0802)" style="stroke:#000000; stroke-width:2; stroke-opacity:0.1; fill:none" points="
  252.496,1111.86 2321.26,1111.86 
  "/>
<polyline clip-path="url(#clip0802)" style="stroke:#000000; stroke-width:2; stroke-opacity:0.1; fill:none" points="
  252.496,783.233 2321.26,783.233 
  "/>
<polyline clip-path="url(#clip0802)" style="stroke:#000000; stroke-width:2; stroke-opacity:0.1; fill:none" points="
  252.496,454.609 2321.26,454.609 
  "/>
<polyline clip-path="url(#clip0802)" style="stroke:#000000; stroke-width:2; stroke-opacity:0.1; fill:none" points="
  252.496,125.984 2321.26,125.984 
  "/>
<polyline clip-path="url(#clip0800)" style="stroke:#000000; stroke-width:4; stroke-opacity:1; fill:none" points="
  252.496,1440.48 2321.26,1440.48 
  "/>
<polyline clip-path="url(#clip0800)" style="stroke:#000000; stroke-width:4; stroke-opacity:1; fill:none" points="
  252.496,1440.48 252.496,125.984 
  "/>
<polyline clip-path="url(#clip0800)" style="stroke:#000000; stroke-width:4; stroke-opacity:1; fill:none" points="
  359.438,1440.48 359.438,1420.77 
  "/>
<polyline clip-path="url(#clip0800)" style="stroke:#000000; stroke-width:4; stroke-opacity:1; fill:none" points="
  787.203,1440.48 787.203,1420.77 
  "/>
<polyline clip-path="url(#clip0800)" style="stroke:#000000; stroke-width:4; stroke-opacity:1; fill:none" points="
  1214.97,1440.48 1214.97,1420.77 
  "/>
<polyline clip-path="url(#clip0800)" style="stroke:#000000; stroke-width:4; stroke-opacity:1; fill:none" points="
  1642.73,1440.48 1642.73,1420.77 
  "/>
<polyline clip-path="url(#clip0800)" style="stroke:#000000; stroke-width:4; stroke-opacity:1; fill:none" points="
  2070.5,1440.48 2070.5,1420.77 
  "/>
<polyline clip-path="url(#clip0800)" style="stroke:#000000; stroke-width:4; stroke-opacity:1; fill:none" points="
  252.496,1440.48 283.528,1440.48 
  "/>
<polyline clip-path="url(#clip0800)" style="stroke:#000000; stroke-width:4; stroke-opacity:1; fill:none" points="
  252.496,1111.86 283.528,1111.86 
  "/>
<polyline clip-path="url(#clip0800)" style="stroke:#000000; stroke-width:4; stroke-opacity:1; fill:none" points="
  252.496,783.233 283.528,783.233 
  "/>
<polyline clip-path="url(#clip0800)" style="stroke:#000000; stroke-width:4; stroke-opacity:1; fill:none" points="
  252.496,454.609 283.528,454.609 
  "/>
<polyline clip-path="url(#clip0800)" style="stroke:#000000; stroke-width:4; stroke-opacity:1; fill:none" points="
  252.496,125.984 283.528,125.984 
  "/>
<g clip-path="url(#clip0800)">
<text style="fill:#000000; fill-opacity:1; font-family:Arial,Helvetica Neue,Helvetica,sans-serif; font-size:48px; text-anchor:middle;" transform="rotate(0, 359.438, 1494.48)" x="359.438" y="1494.48">0</text>
</g>
<g clip-path="url(#clip0800)">
<text style="fill:#000000; fill-opacity:1; font-family:Arial,Helvetica Neue,Helvetica,sans-serif; font-size:48px; text-anchor:middle;" transform="rotate(0, 787.203, 1494.48)" x="787.203" y="1494.48">2</text>
</g>
<g clip-path="url(#clip0800)">
<text style="fill:#000000; fill-opacity:1; font-family:Arial,Helvetica Neue,Helvetica,sans-serif; font-size:48px; text-anchor:middle;" transform="rotate(0, 1214.97, 1494.48)" x="1214.97" y="1494.48">4</text>
</g>
<g clip-path="url(#clip0800)">
<text style="fill:#000000; fill-opacity:1; font-family:Arial,Helvetica Neue,Helvetica,sans-serif; font-size:48px; text-anchor:middle;" transform="rotate(0, 1642.73, 1494.48)" x="1642.73" y="1494.48">6</text>
</g>
<g clip-path="url(#clip0800)">
<text style="fill:#000000; fill-opacity:1; font-family:Arial,Helvetica Neue,Helvetica,sans-serif; font-size:48px; text-anchor:middle;" transform="rotate(0, 2070.5, 1494.48)" x="2070.5" y="1494.48">8</text>
</g>
<g clip-path="url(#clip0800)">
<text style="fill:#000000; fill-opacity:1; font-family:Arial,Helvetica Neue,Helvetica,sans-serif; font-size:48px; text-anchor:end;" transform="rotate(0, 228.496, 1457.98)" x="228.496" y="1457.98">-0.5</text>
</g>
<g clip-path="url(#clip0800)">
<text style="fill:#000000; fill-opacity:1; font-family:Arial,Helvetica Neue,Helvetica,sans-serif; font-size:48px; text-anchor:end;" transform="rotate(0, 228.496, 1129.36)" x="228.496" y="1129.36">0.0</text>
</g>
<g clip-path="url(#clip0800)">
<text style="fill:#000000; fill-opacity:1; font-family:Arial,Helvetica Neue,Helvetica,sans-serif; font-size:48px; text-anchor:end;" transform="rotate(0, 228.496, 800.733)" x="228.496" y="800.733">0.5</text>
</g>
<g clip-path="url(#clip0800)">
<text style="fill:#000000; fill-opacity:1; font-family:Arial,Helvetica Neue,Helvetica,sans-serif; font-size:48px; text-anchor:end;" transform="rotate(0, 228.496, 472.109)" x="228.496" y="472.109">1.0</text>
</g>
<g clip-path="url(#clip0800)">
<text style="fill:#000000; fill-opacity:1; font-family:Arial,Helvetica Neue,Helvetica,sans-serif; font-size:48px; text-anchor:end;" transform="rotate(0, 228.496, 143.484)" x="228.496" y="143.484">1.5</text>
</g>
<g clip-path="url(#clip0800)">
<text style="fill:#000000; fill-opacity:1; font-family:Arial,Helvetica Neue,Helvetica,sans-serif; font-size:66px; text-anchor:middle;" transform="rotate(0, 1286.88, 57.6)" x="1286.88" y="57.6">GCF_000868425.1_ViralProj17577_genomic.fna.K3.counts.histogram</text>
</g>
<g clip-path="url(#clip0800)">
<text style="fill:#000000; fill-opacity:1; font-family:Arial,Helvetica Neue,Helvetica,sans-serif; font-size:66px; text-anchor:middle;" transform="rotate(0, 1286.88, 1590.4)" x="1286.88" y="1590.4">log2(depth of coverage)</text>
</g>
<g clip-path="url(#clip0800)">
<text style="fill:#000000; fill-opacity:1; font-family:Arial,Helvetica Neue,Helvetica,sans-serif; font-size:66px; text-anchor:middle;" transform="rotate(-90, 57.6, 783.233)" x="57.6" y="783.233">log2(# kmers)</text>
</g>
<circle clip-path="url(#clip0802)" style="fill:#000000; stroke:none; fill-opacity:1" cx="1665.94" cy="1111.86" r="18"/>
<circle clip-path="url(#clip0802)" style="fill:#009af9; stroke:none; fill-opacity:1" cx="1665.94" cy="1111.86" r="14"/>
<circle clip-path="url(#clip0802)" style="fill:#000000; stroke:none; fill-opacity:1" cx="1722.95" cy="1111.86" r="18"/>
<circle clip-path="url(#clip0802)" style="fill:#009af9; stroke:none; fill-opacity:1" cx="1722.95" cy="1111.86" r="14"/>
<circle clip-path="url(#clip0802)" style="fill:#000000; stroke:none; fill-opacity:1" cx="1771.04" cy="1111.86" r="18"/>
<circle clip-path="url(#clip0802)" style="fill:#009af9; stroke:none; fill-opacity:1" cx="1771.04" cy="1111.86" r="14"/>
<circle clip-path="url(#clip0802)" style="fill:#000000; stroke:none; fill-opacity:1" cx="1783.51" cy="1111.86" r="18"/>
<circle clip-path="url(#clip0802)" style="fill:#009af9; stroke:none; fill-opacity:1" cx="1783.51" cy="1111.86" r="14"/>
<circle clip-path="url(#clip0802)" style="fill:#000000; stroke:none; fill-opacity:1" cx="1879.83" cy="1111.86" r="18"/>
<circle clip-path="url(#clip0802)" style="fill:#009af9; stroke:none; fill-opacity:1" cx="1879.83" cy="1111.86" r="14"/>
<circle clip-path="url(#clip0802)" style="fill:#000000; stroke:none; fill-opacity:1" cx="1886.46" cy="1111.86" r="18"/>
<circle clip-path="url(#clip0802)" style="fill:#009af9; stroke:none; fill-opacity:1" cx="1886.46" cy="1111.86" r="14"/>
<circle clip-path="url(#clip0802)" style="fill:#000000; stroke:none; fill-opacity:1" cx="1890.81" cy="1111.86" r="18"/>
<circle clip-path="url(#clip0802)" style="fill:#009af9; stroke:none; fill-opacity:1" cx="1890.81" cy="1111.86" r="14"/>
<circle clip-path="url(#clip0802)" style="fill:#000000; stroke:none; fill-opacity:1" cx="1905.56" cy="1111.86" r="18"/>
<circle clip-path="url(#clip0802)" style="fill:#009af9; stroke:none; fill-opacity:1" cx="1905.56" cy="1111.86" r="14"/>
<circle clip-path="url(#clip0802)" style="fill:#000000; stroke:none; fill-opacity:1" cx="1936.83" cy="1111.86" r="18"/>
<circle clip-path="url(#clip0802)" style="fill:#009af9; stroke:none; fill-opacity:1" cx="1936.83" cy="1111.86" r="14"/>
<circle clip-path="url(#clip0802)" style="fill:#000000; stroke:none; fill-opacity:1" cx="1944.18" cy="1111.86" r="18"/>
<circle clip-path="url(#clip0802)" style="fill:#009af9; stroke:none; fill-opacity:1" cx="1944.18" cy="1111.86" r="14"/>
<circle clip-path="url(#clip0802)" style="fill:#000000; stroke:none; fill-opacity:1" cx="1965.22" cy="1111.86" r="18"/>
<circle clip-path="url(#clip0802)" style="fill:#009af9; stroke:none; fill-opacity:1" cx="1965.22" cy="1111.86" r="14"/>
<circle clip-path="url(#clip0802)" style="fill:#000000; stroke:none; fill-opacity:1" cx="2001.94" cy="1111.86" r="18"/>
<circle clip-path="url(#clip0802)" style="fill:#009af9; stroke:none; fill-opacity:1" cx="2001.94" cy="1111.86" r="14"/>
<circle clip-path="url(#clip0802)" style="fill:#000000; stroke:none; fill-opacity:1" cx="2026.53" cy="1111.86" r="18"/>
<circle clip-path="url(#clip0802)" style="fill:#009af9; stroke:none; fill-opacity:1" cx="2026.53" cy="1111.86" r="14"/>
<circle clip-path="url(#clip0802)" style="fill:#000000; stroke:none; fill-opacity:1" cx="2027.91" cy="1111.86" r="18"/>
<circle clip-path="url(#clip0802)" style="fill:#009af9; stroke:none; fill-opacity:1" cx="2027.91" cy="1111.86" r="14"/>
<circle clip-path="url(#clip0802)" style="fill:#000000; stroke:none; fill-opacity:1" cx="2044.09" cy="1111.86" r="18"/>
<circle clip-path="url(#clip0802)" style="fill:#009af9; stroke:none; fill-opacity:1" cx="2044.09" cy="1111.86" r="14"/>
<circle clip-path="url(#clip0802)" style="fill:#000000; stroke:none; fill-opacity:1" cx="2050.58" cy="1111.86" r="18"/>
<circle clip-path="url(#clip0802)" style="fill:#009af9; stroke:none; fill-opacity:1" cx="2050.58" cy="1111.86" r="14"/>
<circle clip-path="url(#clip0802)" style="fill:#000000; stroke:none; fill-opacity:1" cx="2056.95" cy="1111.86" r="18"/>
<circle clip-path="url(#clip0802)" style="fill:#009af9; stroke:none; fill-opacity:1" cx="2056.95" cy="1111.86" r="14"/>
<circle clip-path="url(#clip0802)" style="fill:#000000; stroke:none; fill-opacity:1" cx="2058.2" cy="1111.86" r="18"/>
<circle clip-path="url(#clip0802)" style="fill:#009af9; stroke:none; fill-opacity:1" cx="2058.2" cy="1111.86" r="14"/>
<circle clip-path="url(#clip0802)" style="fill:#000000; stroke:none; fill-opacity:1" cx="2078.82" cy="1111.86" r="18"/>
<circle clip-path="url(#clip0802)" style="fill:#009af9; stroke:none; fill-opacity:1" cx="2078.82" cy="1111.86" r="14"/>
<circle clip-path="url(#clip0802)" style="fill:#000000; stroke:none; fill-opacity:1" cx="2085.78" cy="454.609" r="18"/>
<circle clip-path="url(#clip0802)" style="fill:#009af9; stroke:none; fill-opacity:1" cx="2085.78" cy="454.609" r="14"/>
<circle clip-path="url(#clip0802)" style="fill:#000000; stroke:none; fill-opacity:1" cx="2086.93" cy="1111.86" r="18"/>
<circle clip-path="url(#clip0802)" style="fill:#009af9; stroke:none; fill-opacity:1" cx="2086.93" cy="1111.86" r="14"/>
<circle clip-path="url(#clip0802)" style="fill:#000000; stroke:none; fill-opacity:1" cx="2092.59" cy="1111.86" r="18"/>
<circle clip-path="url(#clip0802)" style="fill:#009af9; stroke:none; fill-opacity:1" cx="2092.59" cy="1111.86" r="14"/>
<circle clip-path="url(#clip0802)" style="fill:#000000; stroke:none; fill-opacity:1" cx="2093.71" cy="1111.86" r="18"/>
<circle clip-path="url(#clip0802)" style="fill:#009af9; stroke:none; fill-opacity:1" cx="2093.71" cy="1111.86" r="14"/>
<circle clip-path="url(#clip0802)" style="fill:#000000; stroke:none; fill-opacity:1" cx="2094.83" cy="1111.86" r="18"/>
<circle clip-path="url(#clip0802)" style="fill:#009af9; stroke:none; fill-opacity:1" cx="2094.83" cy="1111.86" r="14"/>
<circle clip-path="url(#clip0802)" style="fill:#000000; stroke:none; fill-opacity:1" cx="2112.15" cy="1111.86" r="18"/>
<circle clip-path="url(#clip0802)" style="fill:#009af9; stroke:none; fill-opacity:1" cx="2112.15" cy="1111.86" r="14"/>
<circle clip-path="url(#clip0802)" style="fill:#000000; stroke:none; fill-opacity:1" cx="2118.41" cy="1111.86" r="18"/>
<circle clip-path="url(#clip0802)" style="fill:#009af9; stroke:none; fill-opacity:1" cx="2118.41" cy="1111.86" r="14"/>
<circle clip-path="url(#clip0802)" style="fill:#000000; stroke:none; fill-opacity:1" cx="2143.19" cy="1111.86" r="18"/>
<circle clip-path="url(#clip0802)" style="fill:#009af9; stroke:none; fill-opacity:1" cx="2143.19" cy="1111.86" r="14"/>
<circle clip-path="url(#clip0802)" style="fill:#000000; stroke:none; fill-opacity:1" cx="2156.24" cy="1111.86" r="18"/>
<circle clip-path="url(#clip0802)" style="fill:#009af9; stroke:none; fill-opacity:1" cx="2156.24" cy="1111.86" r="14"/>
<circle clip-path="url(#clip0802)" style="fill:#000000; stroke:none; fill-opacity:1" cx="2178.26" cy="1111.86" r="18"/>
<circle clip-path="url(#clip0802)" style="fill:#009af9; stroke:none; fill-opacity:1" cx="2178.26" cy="1111.86" r="14"/>
<circle clip-path="url(#clip0802)" style="fill:#000000; stroke:none; fill-opacity:1" cx="2208.21" cy="1111.86" r="18"/>
<circle clip-path="url(#clip0802)" style="fill:#009af9; stroke:none; fill-opacity:1" cx="2208.21" cy="1111.86" r="14"/>
<circle clip-path="url(#clip0802)" style="fill:#000000; stroke:none; fill-opacity:1" cx="2214.32" cy="1111.86" r="18"/>
<circle clip-path="url(#clip0802)" style="fill:#009af9; stroke:none; fill-opacity:1" cx="2214.32" cy="1111.86" r="14"/>
<polyline clip-path="url(#clip0802)" style="stroke:#e26f46; stroke-width:4; stroke-opacity:1; fill:none" points="
  1665.94,1119.76 1671.48,1119.29 1677.02,1118.82 1682.56,1118.35 1688.1,1117.88 1693.64,1117.41 1699.18,1116.94 1704.72,1116.47 1710.26,1116 1715.8,1115.53 
  1721.34,1115.06 1726.88,1114.59 1732.41,1114.12 1737.95,1113.65 1743.49,1113.18 1749.03,1112.72 1754.57,1112.25 1760.11,1111.78 1765.65,1111.31 1771.19,1110.84 
  1776.73,1110.37 1782.27,1109.9 1787.81,1109.43 1793.34,1108.96 1798.88,1108.49 1804.42,1108.02 1809.96,1107.55 1815.5,1107.08 1821.04,1106.61 1826.58,1106.14 
  1832.12,1105.67 1837.66,1105.2 1843.2,1104.73 1848.74,1104.26 1854.28,1103.79 1859.81,1103.32 1865.35,1102.85 1870.89,1102.38 1876.43,1101.91 1881.97,1101.44 
  1887.51,1100.97 1893.05,1100.5 1898.59,1100.03 1904.13,1099.56 1909.67,1099.09 1915.21,1098.62 1920.74,1098.15 1926.28,1097.68 1931.82,1097.21 1937.36,1096.74 
  1942.9,1096.27 1948.44,1095.8 1953.98,1095.33 1959.52,1094.86 1965.06,1094.39 1970.6,1093.92 1976.14,1093.45 1981.68,1092.98 1987.21,1092.51 1992.75,1092.04 
  1998.29,1091.57 2003.83,1091.1 2009.37,1090.63 2014.91,1090.16 2020.45,1089.69 2025.99,1089.22 2031.53,1088.75 2037.07,1088.28 2042.61,1087.81 2048.14,1087.34 
  2053.68,1086.87 2059.22,1086.4 2064.76,1085.93 2070.3,1085.47 2075.84,1085 2081.38,1084.53 2086.92,1084.06 2092.46,1083.59 2098,1083.12 2103.54,1082.65 
  2109.08,1082.18 2114.61,1081.71 2120.15,1081.24 2125.69,1080.77 2131.23,1080.3 2136.77,1079.83 2142.31,1079.36 2147.85,1078.89 2153.39,1078.42 2158.93,1077.95 
  2164.47,1077.48 2170.01,1077.01 2175.54,1076.54 2181.08,1076.07 2186.62,1075.6 2192.16,1075.13 2197.7,1074.66 2203.24,1074.19 2208.78,1073.72 2214.32,1073.25 
  
  "/>
<g clip-path="url(#clip0800)">
<text style="fill:#000000; fill-opacity:1; font-family:Arial,Helvetica Neue,Helvetica,sans-serif; font-size:59px; text-anchor:start;" transform="rotate(0, 359.438, 476.109)" x="359.438" y="476.109">r = 0.1</text>
</g>
</svg>
