<?xml version="1.0" encoding="utf-8"?>
<svg xmlns="http://www.w3.org/2000/svg" xmlns:xlink="http://www.w3.org/1999/xlink" width="600" height="400" viewBox="0 0 2400 1600">
<defs>
  <clipPath id="clip3300">
    <rect x="0" y="0" width="2400" height="1600"/>
  </clipPath>
</defs>
<polygon clip-path="url(#clip3300)" points="
0,1600 2400,1600 2400,0 0,0 
  " fill="#ffffff" fill-rule="evenodd" fill-opacity="1"/>
<defs>
  <clipPath id="clip3301">
    <rect x="480" y="0" width="1681" height="1600"/>
  </clipPath>
</defs>
<polygon clip-path="url(#clip3300)" points="
243.864,1425.62 2352.76,1425.62 2352.76,109.1 243.864,109.1 
  " fill="#ffffff" fill-rule="evenodd" fill-opacity="1"/>
<defs>
  <clipPath id="clip3302">
    <rect x="243" y="109" width="2110" height="1318"/>
  </clipPath>
</defs>
<polyline clip-path="url(#clip3302)" style="stroke:#000000; stroke-width:2; stroke-opacity:0.1; fill:none" points="
  352.88,1425.62 352.88,109.1 
  "/>
<polyline clip-path="url(#clip3302)" style="stroke:#000000; stroke-width:2; stroke-opacity:0.1; fill:none" points="
  788.942,1425.62 788.942,109.1 
  "/>
<polyline clip-path="url(#clip3302)" style="stroke:#000000; stroke-width:2; stroke-opacity:0.1; fill:none" points="
  1225.01,1425.62 1225.01,109.1 
  "/>
<polyline clip-path="url(#clip3302)" style="stroke:#000000; stroke-width:2; stroke-opacity:0.1; fill:none" points="
  1661.07,1425.62 1661.07,109.1 
  "/>
<polyline clip-path="url(#clip3302)" style="stroke:#000000; stroke-width:2; stroke-opacity:0.1; fill:none" points="
  2097.13,1425.62 2097.13,109.1 
  "/>
<polyline clip-path="url(#clip3302)" style="stroke:#000000; stroke-width:2; stroke-opacity:0.1; fill:none" points="
  243.864,1425.62 2352.76,1425.62 
  "/>
<polyline clip-path="url(#clip3302)" style="stroke:#000000; stroke-width:2; stroke-opacity:0.1; fill:none" points="
  243.864,1096.49 2352.76,1096.49 
  "/>
<polyline clip-path="url(#clip3302)" style="stroke:#000000; stroke-width:2; stroke-opacity:0.1; fill:none" points="
  243.864,767.359 2352.76,767.359 
  "/>
<polyline clip-path="url(#clip3302)" style="stroke:#000000; stroke-width:2; stroke-opacity:0.1; fill:none" points="
  243.864,438.23 2352.76,438.23 
  "/>
<polyline clip-path="url(#clip3302)" style="stroke:#000000; stroke-width:2; stroke-opacity:0.1; fill:none" points="
  243.864,109.1 2352.76,109.1 
  "/>
<polyline clip-path="url(#clip3300)" style="stroke:#000000; stroke-width:4; stroke-opacity:1; fill:none" points="
  243.864,1425.62 2352.76,1425.62 
  "/>
<polyline clip-path="url(#clip3300)" style="stroke:#000000; stroke-width:4; stroke-opacity:1; fill:none" points="
  243.864,1425.62 243.864,109.1 
  "/>
<polyline clip-path="url(#clip3300)" style="stroke:#000000; stroke-width:4; stroke-opacity:1; fill:none" points="
  352.88,1425.62 352.88,1405.87 
  "/>
<polyline clip-path="url(#clip3300)" style="stroke:#000000; stroke-width:4; stroke-opacity:1; fill:none" points="
  788.942,1425.62 788.942,1405.87 
  "/>
<polyline clip-path="url(#clip3300)" style="stroke:#000000; stroke-width:4; stroke-opacity:1; fill:none" points="
  1225.01,1425.62 1225.01,1405.87 
  "/>
<polyline clip-path="url(#clip3300)" style="stroke:#000000; stroke-width:4; stroke-opacity:1; fill:none" points="
  1661.07,1425.62 1661.07,1405.87 
  "/>
<polyline clip-path="url(#clip3300)" style="stroke:#000000; stroke-width:4; stroke-opacity:1; fill:none" points="
  2097.13,1425.62 2097.13,1405.87 
  "/>
<polyline clip-path="url(#clip3300)" style="stroke:#000000; stroke-width:4; stroke-opacity:1; fill:none" points="
  243.864,1425.62 275.498,1425.62 
  "/>
<polyline clip-path="url(#clip3300)" style="stroke:#000000; stroke-width:4; stroke-opacity:1; fill:none" points="
  243.864,1096.49 275.498,1096.49 
  "/>
<polyline clip-path="url(#clip3300)" style="stroke:#000000; stroke-width:4; stroke-opacity:1; fill:none" points="
  243.864,767.359 275.498,767.359 
  "/>
<polyline clip-path="url(#clip3300)" style="stroke:#000000; stroke-width:4; stroke-opacity:1; fill:none" points="
  243.864,438.23 275.498,438.23 
  "/>
<polyline clip-path="url(#clip3300)" style="stroke:#000000; stroke-width:4; stroke-opacity:1; fill:none" points="
  243.864,109.1 275.498,109.1 
  "/>
<g clip-path="url(#clip3300)">
<text style="fill:#000000; fill-opacity:1; font-family:Arial,Helvetica Neue,Helvetica,sans-serif; font-size:48px; text-anchor:middle;" transform="rotate(0, 352.88, 1479.62)" x="352.88" y="1479.62">0</text>
</g>
<g clip-path="url(#clip3300)">
<text style="fill:#000000; fill-opacity:1; font-family:Arial,Helvetica Neue,Helvetica,sans-serif; font-size:48px; text-anchor:middle;" transform="rotate(0, 788.942, 1479.62)" x="788.942" y="1479.62">2</text>
</g>
<g clip-path="url(#clip3300)">
<text style="fill:#000000; fill-opacity:1; font-family:Arial,Helvetica Neue,Helvetica,sans-serif; font-size:48px; text-anchor:middle;" transform="rotate(0, 1225.01, 1479.62)" x="1225.01" y="1479.62">4</text>
</g>
<g clip-path="url(#clip3300)">
<text style="fill:#000000; fill-opacity:1; font-family:Arial,Helvetica Neue,Helvetica,sans-serif; font-size:48px; text-anchor:middle;" transform="rotate(0, 1661.07, 1479.62)" x="1661.07" y="1479.62">6</text>
</g>
<g clip-path="url(#clip3300)">
<text style="fill:#000000; fill-opacity:1; font-family:Arial,Helvetica Neue,Helvetica,sans-serif; font-size:48px; text-anchor:middle;" transform="rotate(0, 2097.13, 1479.62)" x="2097.13" y="1479.62">8</text>
</g>
<g clip-path="url(#clip3300)">
<text style="fill:#000000; fill-opacity:1; font-family:Arial,Helvetica Neue,Helvetica,sans-serif; font-size:48px; text-anchor:end;" transform="rotate(0, 219.864, 1443.12)" x="219.864" y="1443.12">-0.5</text>
</g>
<g clip-path="url(#clip3300)">
<text style="fill:#000000; fill-opacity:1; font-family:Arial,Helvetica Neue,Helvetica,sans-serif; font-size:48px; text-anchor:end;" transform="rotate(0, 219.864, 1113.99)" x="219.864" y="1113.99">0.0</text>
</g>
<g clip-path="url(#clip3300)">
<text style="fill:#000000; fill-opacity:1; font-family:Arial,Helvetica Neue,Helvetica,sans-serif; font-size:48px; text-anchor:end;" transform="rotate(0, 219.864, 784.859)" x="219.864" y="784.859">0.5</text>
</g>
<g clip-path="url(#clip3300)">
<text style="fill:#000000; fill-opacity:1; font-family:Arial,Helvetica Neue,Helvetica,sans-serif; font-size:48px; text-anchor:end;" transform="rotate(0, 219.864, 455.73)" x="219.864" y="455.73">1.0</text>
</g>
<g clip-path="url(#clip3300)">
<text style="fill:#000000; fill-opacity:1; font-family:Arial,Helvetica Neue,Helvetica,sans-serif; font-size:48px; text-anchor:end;" transform="rotate(0, 219.864, 126.6)" x="219.864" y="126.6">1.5</text>
</g>
<g clip-path="url(#clip3300)">
<text style="fill:#000000; fill-opacity:1; font-family:Arial,Helvetica Neue,Helvetica,sans-serif; font-size:66px; text-anchor:middle;" transform="rotate(0, 1298.31, 57.6)" x="1298.31" y="57.6">GCF_000868425.1_ViralProj17577_genomic.fna.K3.jf.histogram</text>
</g>
<g clip-path="url(#clip3300)">
<text style="fill:#000000; fill-opacity:1; font-family:Arial,Helvetica Neue,Helvetica,sans-serif; font-size:66px; text-anchor:middle;" transform="rotate(0, 1298.31, 1559.48)" x="1298.31" y="1559.48">log2(depth of coverage)</text>
</g>
<g clip-path="url(#clip3300)">
<text style="fill:#000000; fill-opacity:1; font-family:Arial,Helvetica Neue,Helvetica,sans-serif; font-size:66px; text-anchor:middle;" transform="rotate(-90, 89.2861, 767.359)" x="89.2861" y="767.359">log2(# kmers)</text>
</g>
<circle clip-path="url(#clip3302)" style="fill:#000000; stroke:none; fill-opacity:1" cx="1325.18" cy="1096.49" r="18"/>
<circle clip-path="url(#clip3302)" style="fill:#009af9; stroke:none; fill-opacity:1" cx="1325.18" cy="1096.49" r="14"/>
<circle clip-path="url(#clip3302)" style="fill:#000000; stroke:none; fill-opacity:1" cx="1684.73" cy="1096.49" r="18"/>
<circle clip-path="url(#clip3302)" style="fill:#009af9; stroke:none; fill-opacity:1" cx="1684.73" cy="1096.49" r="14"/>
<circle clip-path="url(#clip3302)" style="fill:#000000; stroke:none; fill-opacity:1" cx="1742.84" cy="1096.49" r="18"/>
<circle clip-path="url(#clip3302)" style="fill:#009af9; stroke:none; fill-opacity:1" cx="1742.84" cy="1096.49" r="14"/>
<circle clip-path="url(#clip3302)" style="fill:#000000; stroke:none; fill-opacity:1" cx="1791.87" cy="1096.49" r="18"/>
<circle clip-path="url(#clip3302)" style="fill:#009af9; stroke:none; fill-opacity:1" cx="1791.87" cy="1096.49" r="14"/>
<circle clip-path="url(#clip3302)" style="fill:#000000; stroke:none; fill-opacity:1" cx="1804.58" cy="1096.49" r="18"/>
<circle clip-path="url(#clip3302)" style="fill:#009af9; stroke:none; fill-opacity:1" cx="1804.58" cy="1096.49" r="14"/>
<circle clip-path="url(#clip3302)" style="fill:#000000; stroke:none; fill-opacity:1" cx="1902.76" cy="1096.49" r="18"/>
<circle clip-path="url(#clip3302)" style="fill:#009af9; stroke:none; fill-opacity:1" cx="1902.76" cy="1096.49" r="14"/>
<circle clip-path="url(#clip3302)" style="fill:#000000; stroke:none; fill-opacity:1" cx="1909.53" cy="1096.49" r="18"/>
<circle clip-path="url(#clip3302)" style="fill:#009af9; stroke:none; fill-opacity:1" cx="1909.53" cy="1096.49" r="14"/>
<circle clip-path="url(#clip3302)" style="fill:#000000; stroke:none; fill-opacity:1" cx="1913.96" cy="1096.49" r="18"/>
<circle clip-path="url(#clip3302)" style="fill:#009af9; stroke:none; fill-opacity:1" cx="1913.96" cy="1096.49" r="14"/>
<circle clip-path="url(#clip3302)" style="fill:#000000; stroke:none; fill-opacity:1" cx="1960.87" cy="1096.49" r="18"/>
<circle clip-path="url(#clip3302)" style="fill:#009af9; stroke:none; fill-opacity:1" cx="1960.87" cy="1096.49" r="14"/>
<circle clip-path="url(#clip3302)" style="fill:#000000; stroke:none; fill-opacity:1" cx="1968.36" cy="1096.49" r="18"/>
<circle clip-path="url(#clip3302)" style="fill:#009af9; stroke:none; fill-opacity:1" cx="1968.36" cy="1096.49" r="14"/>
<circle clip-path="url(#clip3302)" style="fill:#000000; stroke:none; fill-opacity:1" cx="1989.81" cy="1096.49" r="18"/>
<circle clip-path="url(#clip3302)" style="fill:#009af9; stroke:none; fill-opacity:1" cx="1989.81" cy="1096.49" r="14"/>
<circle clip-path="url(#clip3302)" style="fill:#000000; stroke:none; fill-opacity:1" cx="2027.25" cy="1096.49" r="18"/>
<circle clip-path="url(#clip3302)" style="fill:#009af9; stroke:none; fill-opacity:1" cx="2027.25" cy="1096.49" r="14"/>
<circle clip-path="url(#clip3302)" style="fill:#000000; stroke:none; fill-opacity:1" cx="2052.31" cy="1096.49" r="18"/>
<circle clip-path="url(#clip3302)" style="fill:#009af9; stroke:none; fill-opacity:1" cx="2052.31" cy="1096.49" r="14"/>
<circle clip-path="url(#clip3302)" style="fill:#000000; stroke:none; fill-opacity:1" cx="2053.72" cy="1096.49" r="18"/>
<circle clip-path="url(#clip3302)" style="fill:#009af9; stroke:none; fill-opacity:1" cx="2053.72" cy="1096.49" r="14"/>
<circle clip-path="url(#clip3302)" style="fill:#000000; stroke:none; fill-opacity:1" cx="2070.21" cy="1096.49" r="18"/>
<circle clip-path="url(#clip3302)" style="fill:#009af9; stroke:none; fill-opacity:1" cx="2070.21" cy="1096.49" r="14"/>
<circle clip-path="url(#clip3302)" style="fill:#000000; stroke:none; fill-opacity:1" cx="2076.83" cy="1096.49" r="18"/>
<circle clip-path="url(#clip3302)" style="fill:#009af9; stroke:none; fill-opacity:1" cx="2076.83" cy="1096.49" r="14"/>
<circle clip-path="url(#clip3302)" style="fill:#000000; stroke:none; fill-opacity:1" cx="2083.32" cy="1096.49" r="18"/>
<circle clip-path="url(#clip3302)" style="fill:#009af9; stroke:none; fill-opacity:1" cx="2083.32" cy="1096.49" r="14"/>
<circle clip-path="url(#clip3302)" style="fill:#000000; stroke:none; fill-opacity:1" cx="2084.6" cy="1096.49" r="18"/>
<circle clip-path="url(#clip3302)" style="fill:#009af9; stroke:none; fill-opacity:1" cx="2084.6" cy="1096.49" r="14"/>
<circle clip-path="url(#clip3302)" style="fill:#000000; stroke:none; fill-opacity:1" cx="2105.62" cy="1096.49" r="18"/>
<circle clip-path="url(#clip3302)" style="fill:#009af9; stroke:none; fill-opacity:1" cx="2105.62" cy="1096.49" r="14"/>
<circle clip-path="url(#clip3302)" style="fill:#000000; stroke:none; fill-opacity:1" cx="2112.71" cy="438.23" r="18"/>
<circle clip-path="url(#clip3302)" style="fill:#009af9; stroke:none; fill-opacity:1" cx="2112.71" cy="438.23" r="14"/>
<circle clip-path="url(#clip3302)" style="fill:#000000; stroke:none; fill-opacity:1" cx="2113.88" cy="1096.49" r="18"/>
<circle clip-path="url(#clip3302)" style="fill:#009af9; stroke:none; fill-opacity:1" cx="2113.88" cy="1096.49" r="14"/>
<circle clip-path="url(#clip3302)" style="fill:#000000; stroke:none; fill-opacity:1" cx="2119.65" cy="1096.49" r="18"/>
<circle clip-path="url(#clip3302)" style="fill:#009af9; stroke:none; fill-opacity:1" cx="2119.65" cy="1096.49" r="14"/>
<circle clip-path="url(#clip3302)" style="fill:#000000; stroke:none; fill-opacity:1" cx="2120.79" cy="1096.49" r="18"/>
<circle clip-path="url(#clip3302)" style="fill:#009af9; stroke:none; fill-opacity:1" cx="2120.79" cy="1096.49" r="14"/>
<circle clip-path="url(#clip3302)" style="fill:#000000; stroke:none; fill-opacity:1" cx="2121.93" cy="1096.49" r="18"/>
<circle clip-path="url(#clip3302)" style="fill:#009af9; stroke:none; fill-opacity:1" cx="2121.93" cy="1096.49" r="14"/>
<circle clip-path="url(#clip3302)" style="fill:#000000; stroke:none; fill-opacity:1" cx="2139.59" cy="1096.49" r="18"/>
<circle clip-path="url(#clip3302)" style="fill:#009af9; stroke:none; fill-opacity:1" cx="2139.59" cy="1096.49" r="14"/>
<circle clip-path="url(#clip3302)" style="fill:#000000; stroke:none; fill-opacity:1" cx="2145.97" cy="1096.49" r="18"/>
<circle clip-path="url(#clip3302)" style="fill:#009af9; stroke:none; fill-opacity:1" cx="2145.97" cy="1096.49" r="14"/>
<circle clip-path="url(#clip3302)" style="fill:#000000; stroke:none; fill-opacity:1" cx="2171.23" cy="1096.49" r="18"/>
<circle clip-path="url(#clip3302)" style="fill:#009af9; stroke:none; fill-opacity:1" cx="2171.23" cy="1096.49" r="14"/>
<circle clip-path="url(#clip3302)" style="fill:#000000; stroke:none; fill-opacity:1" cx="2184.53" cy="1096.49" r="18"/>
<circle clip-path="url(#clip3302)" style="fill:#009af9; stroke:none; fill-opacity:1" cx="2184.53" cy="1096.49" r="14"/>
<circle clip-path="url(#clip3302)" style="fill:#000000; stroke:none; fill-opacity:1" cx="2206.98" cy="1096.49" r="18"/>
<circle clip-path="url(#clip3302)" style="fill:#009af9; stroke:none; fill-opacity:1" cx="2206.98" cy="1096.49" r="14"/>
<circle clip-path="url(#clip3302)" style="fill:#000000; stroke:none; fill-opacity:1" cx="2237.51" cy="1096.49" r="18"/>
<circle clip-path="url(#clip3302)" style="fill:#009af9; stroke:none; fill-opacity:1" cx="2237.51" cy="1096.49" r="14"/>
<circle clip-path="url(#clip3302)" style="fill:#000000; stroke:none; fill-opacity:1" cx="2243.74" cy="1096.49" r="18"/>
<circle clip-path="url(#clip3302)" style="fill:#009af9; stroke:none; fill-opacity:1" cx="2243.74" cy="1096.49" r="14"/>
<polyline clip-path="url(#clip3302)" style="stroke:#e26f46; stroke-width:4; stroke-opacity:1; fill:none" points="
  1325.18,1115.65 1334.45,1115.11 1343.73,1114.56 1353.01,1114.02 1362.29,1113.48 1371.57,1112.93 1380.85,1112.39 1390.12,1111.85 1399.4,1111.3 1408.68,1110.76 
  1417.96,1110.22 1427.24,1109.67 1436.52,1109.13 1445.8,1108.59 1455.07,1108.04 1464.35,1107.5 1473.63,1106.96 1482.91,1106.41 1492.19,1105.87 1501.47,1105.33 
  1510.74,1104.78 1520.02,1104.24 1529.3,1103.7 1538.58,1103.15 1547.86,1102.61 1557.14,1102.07 1566.41,1101.52 1575.69,1100.98 1584.97,1100.44 1594.25,1099.89 
  1603.53,1099.35 1612.81,1098.81 1622.09,1098.27 1631.36,1097.72 1640.64,1097.18 1649.92,1096.64 1659.2,1096.09 1668.48,1095.55 1677.76,1095.01 1687.03,1094.46 
  1696.31,1093.92 1705.59,1093.38 1714.87,1092.83 1724.15,1092.29 1733.43,1091.75 1742.7,1091.2 1751.98,1090.66 1761.26,1090.12 1770.54,1089.57 1779.82,1089.03 
  1789.1,1088.49 1798.38,1087.94 1807.65,1087.4 1816.93,1086.86 1826.21,1086.31 1835.49,1085.77 1844.77,1085.23 1854.05,1084.68 1863.32,1084.14 1872.6,1083.6 
  1881.88,1083.05 1891.16,1082.51 1900.44,1081.97 1909.72,1081.42 1919,1080.88 1928.27,1080.34 1937.55,1079.79 1946.83,1079.25 1956.11,1078.71 1965.39,1078.16 
  1974.67,1077.62 1983.94,1077.08 1993.22,1076.53 2002.5,1075.99 2011.78,1075.45 2021.06,1074.9 2030.34,1074.36 2039.61,1073.82 2048.89,1073.27 2058.17,1072.73 
  2067.45,1072.19 2076.73,1071.64 2086.01,1071.1 2095.29,1070.56 2104.56,1070.01 2113.84,1069.47 2123.12,1068.93 2132.4,1068.38 2141.68,1067.84 2150.96,1067.3 
  2160.23,1066.75 2169.51,1066.21 2178.79,1065.67 2188.07,1065.12 2197.35,1064.58 2206.63,1064.04 2215.9,1063.49 2225.18,1062.95 2234.46,1062.41 2243.74,1061.86 
  
  "/>
<g clip-path="url(#clip3300)">
<text style="fill:#000000; fill-opacity:1; font-family:Arial,Helvetica Neue,Helvetica,sans-serif; font-size:59px; text-anchor:start;" transform="rotate(0, 352.88, 459.73)" x="352.88" y="459.73">r = 0.09</text>
</g>
</svg>
