<?xml version="1.0" encoding="utf-8"?>
<svg xmlns="http://www.w3.org/2000/svg" xmlns:xlink="http://www.w3.org/1999/xlink" width="600" height="400" viewBox="0 0 2400 1600">
<defs>
  <clipPath id="clip8800">
    <rect x="0" y="0" width="2400" height="1600"/>
  </clipPath>
</defs>
<polygon clip-path="url(#clip8800)" points="
0,1600 2400,1600 2400,0 0,0 
  " fill="#ffffff" fill-rule="evenodd" fill-opacity="1"/>
<defs>
  <clipPath id="clip8801">
    <rect x="480" y="0" width="1681" height="1600"/>
  </clipPath>
</defs>
<polygon clip-path="url(#clip8800)" points="
202.373,1425.62 2352.76,1425.62 2352.76,109.1 202.373,109.1 
  " fill="#ffffff" fill-rule="evenodd" fill-opacity="1"/>
<defs>
  <clipPath id="clip8802">
    <rect x="202" y="109" width="2151" height="1318"/>
  </clipPath>
</defs>
<polyline clip-path="url(#clip8802)" style="stroke:#000000; stroke-width:2; stroke-opacity:0.1; fill:none" points="
  349.955,1425.62 349.955,109.1 
  "/>
<polyline clip-path="url(#clip8802)" style="stroke:#000000; stroke-width:2; stroke-opacity:0.1; fill:none" points="
  645.118,1425.62 645.118,109.1 
  "/>
<polyline clip-path="url(#clip8802)" style="stroke:#000000; stroke-width:2; stroke-opacity:0.1; fill:none" points="
  940.281,1425.62 940.281,109.1 
  "/>
<polyline clip-path="url(#clip8802)" style="stroke:#000000; stroke-width:2; stroke-opacity:0.1; fill:none" points="
  1235.44,1425.62 1235.44,109.1 
  "/>
<polyline clip-path="url(#clip8802)" style="stroke:#000000; stroke-width:2; stroke-opacity:0.1; fill:none" points="
  1530.61,1425.62 1530.61,109.1 
  "/>
<polyline clip-path="url(#clip8802)" style="stroke:#000000; stroke-width:2; stroke-opacity:0.1; fill:none" points="
  1825.77,1425.62 1825.77,109.1 
  "/>
<polyline clip-path="url(#clip8802)" style="stroke:#000000; stroke-width:2; stroke-opacity:0.1; fill:none" points="
  2120.93,1425.62 2120.93,109.1 
  "/>
<polyline clip-path="url(#clip8802)" style="stroke:#000000; stroke-width:2; stroke-opacity:0.1; fill:none" points="
  202.373,1395.31 2352.76,1395.31 
  "/>
<polyline clip-path="url(#clip8802)" style="stroke:#000000; stroke-width:2; stroke-opacity:0.1; fill:none" points="
  202.373,1092.26 2352.76,1092.26 
  "/>
<polyline clip-path="url(#clip8802)" style="stroke:#000000; stroke-width:2; stroke-opacity:0.1; fill:none" points="
  202.373,789.21 2352.76,789.21 
  "/>
<polyline clip-path="url(#clip8802)" style="stroke:#000000; stroke-width:2; stroke-opacity:0.1; fill:none" points="
  202.373,486.159 2352.76,486.159 
  "/>
<polyline clip-path="url(#clip8802)" style="stroke:#000000; stroke-width:2; stroke-opacity:0.1; fill:none" points="
  202.373,183.107 2352.76,183.107 
  "/>
<polyline clip-path="url(#clip8800)" style="stroke:#000000; stroke-width:4; stroke-opacity:1; fill:none" points="
  202.373,1425.62 2352.76,1425.62 
  "/>
<polyline clip-path="url(#clip8800)" style="stroke:#000000; stroke-width:4; stroke-opacity:1; fill:none" points="
  202.373,1425.62 202.373,109.1 
  "/>
<polyline clip-path="url(#clip8800)" style="stroke:#000000; stroke-width:4; stroke-opacity:1; fill:none" points="
  349.955,1425.62 349.955,1405.87 
  "/>
<polyline clip-path="url(#clip8800)" style="stroke:#000000; stroke-width:4; stroke-opacity:1; fill:none" points="
  645.118,1425.62 645.118,1405.87 
  "/>
<polyline clip-path="url(#clip8800)" style="stroke:#000000; stroke-width:4; stroke-opacity:1; fill:none" points="
  940.281,1425.62 940.281,1405.87 
  "/>
<polyline clip-path="url(#clip8800)" style="stroke:#000000; stroke-width:4; stroke-opacity:1; fill:none" points="
  1235.44,1425.62 1235.44,1405.87 
  "/>
<polyline clip-path="url(#clip8800)" style="stroke:#000000; stroke-width:4; stroke-opacity:1; fill:none" points="
  1530.61,1425.62 1530.61,1405.87 
  "/>
<polyline clip-path="url(#clip8800)" style="stroke:#000000; stroke-width:4; stroke-opacity:1; fill:none" points="
  1825.77,1425.62 1825.77,1405.87 
  "/>
<polyline clip-path="url(#clip8800)" style="stroke:#000000; stroke-width:4; stroke-opacity:1; fill:none" points="
  2120.93,1425.62 2120.93,1405.87 
  "/>
<polyline clip-path="url(#clip8800)" style="stroke:#000000; stroke-width:4; stroke-opacity:1; fill:none" points="
  202.373,1395.31 234.629,1395.31 
  "/>
<polyline clip-path="url(#clip8800)" style="stroke:#000000; stroke-width:4; stroke-opacity:1; fill:none" points="
  202.373,1092.26 234.629,1092.26 
  "/>
<polyline clip-path="url(#clip8800)" style="stroke:#000000; stroke-width:4; stroke-opacity:1; fill:none" points="
  202.373,789.21 234.629,789.21 
  "/>
<polyline clip-path="url(#clip8800)" style="stroke:#000000; stroke-width:4; stroke-opacity:1; fill:none" points="
  202.373,486.159 234.629,486.159 
  "/>
<polyline clip-path="url(#clip8800)" style="stroke:#000000; stroke-width:4; stroke-opacity:1; fill:none" points="
  202.373,183.107 234.629,183.107 
  "/>
<g clip-path="url(#clip8800)">
<text style="fill:#000000; fill-opacity:1; font-family:Arial,Helvetica Neue,Helvetica,sans-serif; font-size:48px; text-anchor:middle;" transform="rotate(0, 349.955, 1479.62)" x="349.955" y="1479.62">0</text>
</g>
<g clip-path="url(#clip8800)">
<text style="fill:#000000; fill-opacity:1; font-family:Arial,Helvetica Neue,Helvetica,sans-serif; font-size:48px; text-anchor:middle;" transform="rotate(0, 645.118, 1479.62)" x="645.118" y="1479.62">1</text>
</g>
<g clip-path="url(#clip8800)">
<text style="fill:#000000; fill-opacity:1; font-family:Arial,Helvetica Neue,Helvetica,sans-serif; font-size:48px; text-anchor:middle;" transform="rotate(0, 940.281, 1479.62)" x="940.281" y="1479.62">2</text>
</g>
<g clip-path="url(#clip8800)">
<text style="fill:#000000; fill-opacity:1; font-family:Arial,Helvetica Neue,Helvetica,sans-serif; font-size:48px; text-anchor:middle;" transform="rotate(0, 1235.44, 1479.62)" x="1235.44" y="1479.62">3</text>
</g>
<g clip-path="url(#clip8800)">
<text style="fill:#000000; fill-opacity:1; font-family:Arial,Helvetica Neue,Helvetica,sans-serif; font-size:48px; text-anchor:middle;" transform="rotate(0, 1530.61, 1479.62)" x="1530.61" y="1479.62">4</text>
</g>
<g clip-path="url(#clip8800)">
<text style="fill:#000000; fill-opacity:1; font-family:Arial,Helvetica Neue,Helvetica,sans-serif; font-size:48px; text-anchor:middle;" transform="rotate(0, 1825.77, 1479.62)" x="1825.77" y="1479.62">5</text>
</g>
<g clip-path="url(#clip8800)">
<text style="fill:#000000; fill-opacity:1; font-family:Arial,Helvetica Neue,Helvetica,sans-serif; font-size:48px; text-anchor:middle;" transform="rotate(0, 2120.93, 1479.62)" x="2120.93" y="1479.62">6</text>
</g>
<g clip-path="url(#clip8800)">
<text style="fill:#000000; fill-opacity:1; font-family:Arial,Helvetica Neue,Helvetica,sans-serif; font-size:48px; text-anchor:end;" transform="rotate(0, 178.373, 1412.81)" x="178.373" y="1412.81">0</text>
</g>
<g clip-path="url(#clip8800)">
<text style="fill:#000000; fill-opacity:1; font-family:Arial,Helvetica Neue,Helvetica,sans-serif; font-size:48px; text-anchor:end;" transform="rotate(0, 178.373, 1109.76)" x="178.373" y="1109.76">5</text>
</g>
<g clip-path="url(#clip8800)">
<text style="fill:#000000; fill-opacity:1; font-family:Arial,Helvetica Neue,Helvetica,sans-serif; font-size:48px; text-anchor:end;" transform="rotate(0, 178.373, 806.71)" x="178.373" y="806.71">10</text>
</g>
<g clip-path="url(#clip8800)">
<text style="fill:#000000; fill-opacity:1; font-family:Arial,Helvetica Neue,Helvetica,sans-serif; font-size:48px; text-anchor:end;" transform="rotate(0, 178.373, 503.659)" x="178.373" y="503.659">15</text>
</g>
<g clip-path="url(#clip8800)">
<text style="fill:#000000; fill-opacity:1; font-family:Arial,Helvetica Neue,Helvetica,sans-serif; font-size:48px; text-anchor:end;" transform="rotate(0, 178.373, 200.607)" x="178.373" y="200.607">20</text>
</g>
<g clip-path="url(#clip8800)">
<text style="fill:#000000; fill-opacity:1; font-family:Arial,Helvetica Neue,Helvetica,sans-serif; font-size:66px; text-anchor:middle;" transform="rotate(0, 1277.56, 57.6)" x="1277.56" y="57.6">GCF_000064305.2_ASM6430v2_genomic.fna.K13.jf.histogram</text>
</g>
<g clip-path="url(#clip8800)">
<text style="fill:#000000; fill-opacity:1; font-family:Arial,Helvetica Neue,Helvetica,sans-serif; font-size:66px; text-anchor:middle;" transform="rotate(0, 1277.56, 1559.48)" x="1277.56" y="1559.48">log2(depth of coverage)</text>
</g>
<g clip-path="url(#clip8800)">
<text style="fill:#000000; fill-opacity:1; font-family:Arial,Helvetica Neue,Helvetica,sans-serif; font-size:66px; text-anchor:middle;" transform="rotate(-90, 89.2861, 767.359)" x="89.2861" y="767.359">log2(# kmers)</text>
</g>
<circle clip-path="url(#clip8802)" style="fill:#000000; stroke:none; fill-opacity:1" cx="349.955" cy="139.405" r="18"/>
<circle clip-path="url(#clip8802)" style="fill:#009af9; stroke:none; fill-opacity:1" cx="349.955" cy="139.405" r="14"/>
<circle clip-path="url(#clip8802)" style="fill:#000000; stroke:none; fill-opacity:1" cx="645.118" cy="303.01" r="18"/>
<circle clip-path="url(#clip8802)" style="fill:#009af9; stroke:none; fill-opacity:1" cx="645.118" cy="303.01" r="14"/>
<circle clip-path="url(#clip8802)" style="fill:#000000; stroke:none; fill-opacity:1" cx="817.777" cy="416.181" r="18"/>
<circle clip-path="url(#clip8802)" style="fill:#009af9; stroke:none; fill-opacity:1" cx="817.777" cy="416.181" r="14"/>
<circle clip-path="url(#clip8802)" style="fill:#000000; stroke:none; fill-opacity:1" cx="940.281" cy="505.556" r="18"/>
<circle clip-path="url(#clip8802)" style="fill:#009af9; stroke:none; fill-opacity:1" cx="940.281" cy="505.556" r="14"/>
<circle clip-path="url(#clip8802)" style="fill:#000000; stroke:none; fill-opacity:1" cx="1035.3" cy="573.439" r="18"/>
<circle clip-path="url(#clip8802)" style="fill:#009af9; stroke:none; fill-opacity:1" cx="1035.3" cy="573.439" r="14"/>
<circle clip-path="url(#clip8802)" style="fill:#000000; stroke:none; fill-opacity:1" cx="1112.94" cy="579.922" r="18"/>
<circle clip-path="url(#clip8802)" style="fill:#009af9; stroke:none; fill-opacity:1" cx="1112.94" cy="579.922" r="14"/>
<circle clip-path="url(#clip8802)" style="fill:#000000; stroke:none; fill-opacity:1" cx="1178.58" cy="651.713" r="18"/>
<circle clip-path="url(#clip8802)" style="fill:#009af9; stroke:none; fill-opacity:1" cx="1178.58" cy="651.713" r="14"/>
<circle clip-path="url(#clip8802)" style="fill:#000000; stroke:none; fill-opacity:1" cx="1235.44" cy="705.704" r="18"/>
<circle clip-path="url(#clip8802)" style="fill:#009af9; stroke:none; fill-opacity:1" cx="1235.44" cy="705.704" r="14"/>
<circle clip-path="url(#clip8802)" style="fill:#000000; stroke:none; fill-opacity:1" cx="1285.6" cy="750.131" r="18"/>
<circle clip-path="url(#clip8802)" style="fill:#009af9; stroke:none; fill-opacity:1" cx="1285.6" cy="750.131" r="14"/>
<circle clip-path="url(#clip8802)" style="fill:#000000; stroke:none; fill-opacity:1" cx="1330.47" cy="764.076" r="18"/>
<circle clip-path="url(#clip8802)" style="fill:#009af9; stroke:none; fill-opacity:1" cx="1330.47" cy="764.076" r="14"/>
<circle clip-path="url(#clip8802)" style="fill:#000000; stroke:none; fill-opacity:1" cx="1371.05" cy="770.453" r="18"/>
<circle clip-path="url(#clip8802)" style="fill:#009af9; stroke:none; fill-opacity:1" cx="1371.05" cy="770.453" r="14"/>
<circle clip-path="url(#clip8802)" style="fill:#000000; stroke:none; fill-opacity:1" cx="1408.1" cy="804.473" r="18"/>
<circle clip-path="url(#clip8802)" style="fill:#009af9; stroke:none; fill-opacity:1" cx="1408.1" cy="804.473" r="14"/>
<circle clip-path="url(#clip8802)" style="fill:#000000; stroke:none; fill-opacity:1" cx="1442.19" cy="856.564" r="18"/>
<circle clip-path="url(#clip8802)" style="fill:#009af9; stroke:none; fill-opacity:1" cx="1442.19" cy="856.564" r="14"/>
<circle clip-path="url(#clip8802)" style="fill:#000000; stroke:none; fill-opacity:1" cx="1473.75" cy="893.413" r="18"/>
<circle clip-path="url(#clip8802)" style="fill:#009af9; stroke:none; fill-opacity:1" cx="1473.75" cy="893.413" r="14"/>
<circle clip-path="url(#clip8802)" style="fill:#000000; stroke:none; fill-opacity:1" cx="1503.13" cy="881.351" r="18"/>
<circle clip-path="url(#clip8802)" style="fill:#009af9; stroke:none; fill-opacity:1" cx="1503.13" cy="881.351" r="14"/>
<circle clip-path="url(#clip8802)" style="fill:#000000; stroke:none; fill-opacity:1" cx="1530.61" cy="937.894" r="18"/>
<circle clip-path="url(#clip8802)" style="fill:#009af9; stroke:none; fill-opacity:1" cx="1530.61" cy="937.894" r="14"/>
<circle clip-path="url(#clip8802)" style="fill:#000000; stroke:none; fill-opacity:1" cx="1556.42" cy="968.351" r="18"/>
<circle clip-path="url(#clip8802)" style="fill:#009af9; stroke:none; fill-opacity:1" cx="1556.42" cy="968.351" r="14"/>
<circle clip-path="url(#clip8802)" style="fill:#000000; stroke:none; fill-opacity:1" cx="1580.76" cy="989.198" r="18"/>
<circle clip-path="url(#clip8802)" style="fill:#009af9; stroke:none; fill-opacity:1" cx="1580.76" cy="989.198" r="14"/>
<circle clip-path="url(#clip8802)" style="fill:#000000; stroke:none; fill-opacity:1" cx="1603.79" cy="992.627" r="18"/>
<circle clip-path="url(#clip8802)" style="fill:#009af9; stroke:none; fill-opacity:1" cx="1603.79" cy="992.627" r="14"/>
<circle clip-path="url(#clip8802)" style="fill:#000000; stroke:none; fill-opacity:1" cx="1625.63" cy="1015.48" r="18"/>
<circle clip-path="url(#clip8802)" style="fill:#009af9; stroke:none; fill-opacity:1" cx="1625.63" cy="1015.48" r="14"/>
<circle clip-path="url(#clip8802)" style="fill:#000000; stroke:none; fill-opacity:1" cx="1646.41" cy="1031.65" r="18"/>
<circle clip-path="url(#clip8802)" style="fill:#009af9; stroke:none; fill-opacity:1" cx="1646.41" cy="1031.65" r="14"/>
<circle clip-path="url(#clip8802)" style="fill:#000000; stroke:none; fill-opacity:1" cx="1666.21" cy="1062.45" r="18"/>
<circle clip-path="url(#clip8802)" style="fill:#009af9; stroke:none; fill-opacity:1" cx="1666.21" cy="1062.45" r="14"/>
<circle clip-path="url(#clip8802)" style="fill:#000000; stroke:none; fill-opacity:1" cx="1685.14" cy="1068.48" r="18"/>
<circle clip-path="url(#clip8802)" style="fill:#009af9; stroke:none; fill-opacity:1" cx="1685.14" cy="1068.48" r="14"/>
<circle clip-path="url(#clip8802)" style="fill:#000000; stroke:none; fill-opacity:1" cx="1703.27" cy="1081.96" r="18"/>
<circle clip-path="url(#clip8802)" style="fill:#009af9; stroke:none; fill-opacity:1" cx="1703.27" cy="1081.96" r="14"/>
<circle clip-path="url(#clip8802)" style="fill:#000000; stroke:none; fill-opacity:1" cx="1720.65" cy="1164.55" r="18"/>
<circle clip-path="url(#clip8802)" style="fill:#009af9; stroke:none; fill-opacity:1" cx="1720.65" cy="1164.55" r="14"/>
<circle clip-path="url(#clip8802)" style="fill:#000000; stroke:none; fill-opacity:1" cx="1737.35" cy="1137.85" r="18"/>
<circle clip-path="url(#clip8802)" style="fill:#009af9; stroke:none; fill-opacity:1" cx="1737.35" cy="1137.85" r="14"/>
<circle clip-path="url(#clip8802)" style="fill:#000000; stroke:none; fill-opacity:1" cx="1753.42" cy="1142.57" r="18"/>
<circle clip-path="url(#clip8802)" style="fill:#009af9; stroke:none; fill-opacity:1" cx="1753.42" cy="1142.57" r="14"/>
<circle clip-path="url(#clip8802)" style="fill:#000000; stroke:none; fill-opacity:1" cx="1768.91" cy="1193.97" r="18"/>
<circle clip-path="url(#clip8802)" style="fill:#009af9; stroke:none; fill-opacity:1" cx="1768.91" cy="1193.97" r="14"/>
<circle clip-path="url(#clip8802)" style="fill:#000000; stroke:none; fill-opacity:1" cx="1783.85" cy="1133.36" r="18"/>
<circle clip-path="url(#clip8802)" style="fill:#009af9; stroke:none; fill-opacity:1" cx="1783.85" cy="1133.36" r="14"/>
<circle clip-path="url(#clip8802)" style="fill:#000000; stroke:none; fill-opacity:1" cx="1798.29" cy="1171.03" r="18"/>
<circle clip-path="url(#clip8802)" style="fill:#009af9; stroke:none; fill-opacity:1" cx="1798.29" cy="1171.03" r="14"/>
<circle clip-path="url(#clip8802)" style="fill:#000000; stroke:none; fill-opacity:1" cx="1812.25" cy="1185.64" r="18"/>
<circle clip-path="url(#clip8802)" style="fill:#009af9; stroke:none; fill-opacity:1" cx="1812.25" cy="1185.64" r="14"/>
<circle clip-path="url(#clip8802)" style="fill:#000000; stroke:none; fill-opacity:1" cx="1825.77" cy="1185.64" r="18"/>
<circle clip-path="url(#clip8802)" style="fill:#009af9; stroke:none; fill-opacity:1" cx="1825.77" cy="1185.64" r="14"/>
<circle clip-path="url(#clip8802)" style="fill:#000000; stroke:none; fill-opacity:1" cx="1838.87" cy="1203.18" r="18"/>
<circle clip-path="url(#clip8802)" style="fill:#009af9; stroke:none; fill-opacity:1" cx="1838.87" cy="1203.18" r="14"/>
<circle clip-path="url(#clip8802)" style="fill:#000000; stroke:none; fill-opacity:1" cx="1851.59" cy="1171.03" r="18"/>
<circle clip-path="url(#clip8802)" style="fill:#009af9; stroke:none; fill-opacity:1" cx="1851.59" cy="1171.03" r="14"/>
<circle clip-path="url(#clip8802)" style="fill:#000000; stroke:none; fill-opacity:1" cx="1863.93" cy="1142.57" r="18"/>
<circle clip-path="url(#clip8802)" style="fill:#009af9; stroke:none; fill-opacity:1" cx="1863.93" cy="1142.57" r="14"/>
<circle clip-path="url(#clip8802)" style="fill:#000000; stroke:none; fill-opacity:1" cx="1875.93" cy="1137.85" r="18"/>
<circle clip-path="url(#clip8802)" style="fill:#009af9; stroke:none; fill-opacity:1" cx="1875.93" cy="1137.85" r="14"/>
<circle clip-path="url(#clip8802)" style="fill:#000000; stroke:none; fill-opacity:1" cx="1887.59" cy="1142.57" r="18"/>
<circle clip-path="url(#clip8802)" style="fill:#009af9; stroke:none; fill-opacity:1" cx="1887.59" cy="1142.57" r="14"/>
<circle clip-path="url(#clip8802)" style="fill:#000000; stroke:none; fill-opacity:1" cx="1898.95" cy="1171.03" r="18"/>
<circle clip-path="url(#clip8802)" style="fill:#009af9; stroke:none; fill-opacity:1" cx="1898.95" cy="1171.03" r="14"/>
<circle clip-path="url(#clip8802)" style="fill:#000000; stroke:none; fill-opacity:1" cx="1910.01" cy="1203.18" r="18"/>
<circle clip-path="url(#clip8802)" style="fill:#009af9; stroke:none; fill-opacity:1" cx="1910.01" cy="1203.18" r="14"/>
<circle clip-path="url(#clip8802)" style="fill:#000000; stroke:none; fill-opacity:1" cx="1920.79" cy="1299.25" r="18"/>
<circle clip-path="url(#clip8802)" style="fill:#009af9; stroke:none; fill-opacity:1" cx="1920.79" cy="1299.25" r="14"/>
<circle clip-path="url(#clip8802)" style="fill:#000000; stroke:none; fill-opacity:1" cx="1931.31" cy="1238.64" r="18"/>
<circle clip-path="url(#clip8802)" style="fill:#009af9; stroke:none; fill-opacity:1" cx="1931.31" cy="1238.64" r="14"/>
<circle clip-path="url(#clip8802)" style="fill:#000000; stroke:none; fill-opacity:1" cx="1941.57" cy="1334.7" r="18"/>
<circle clip-path="url(#clip8802)" style="fill:#009af9; stroke:none; fill-opacity:1" cx="1941.57" cy="1334.7" r="14"/>
<circle clip-path="url(#clip8802)" style="fill:#000000; stroke:none; fill-opacity:1" cx="1951.59" cy="1299.25" r="18"/>
<circle clip-path="url(#clip8802)" style="fill:#009af9; stroke:none; fill-opacity:1" cx="1951.59" cy="1299.25" r="14"/>
<circle clip-path="url(#clip8802)" style="fill:#000000; stroke:none; fill-opacity:1" cx="1961.38" cy="1334.7" r="18"/>
<circle clip-path="url(#clip8802)" style="fill:#009af9; stroke:none; fill-opacity:1" cx="1961.38" cy="1334.7" r="14"/>
<circle clip-path="url(#clip8802)" style="fill:#000000; stroke:none; fill-opacity:1" cx="1970.95" cy="1334.7" r="18"/>
<circle clip-path="url(#clip8802)" style="fill:#009af9; stroke:none; fill-opacity:1" cx="1970.95" cy="1334.7" r="14"/>
<circle clip-path="url(#clip8802)" style="fill:#000000; stroke:none; fill-opacity:1" cx="1980.31" cy="1395.31" r="18"/>
<circle clip-path="url(#clip8802)" style="fill:#009af9; stroke:none; fill-opacity:1" cx="1980.31" cy="1395.31" r="14"/>
<circle clip-path="url(#clip8802)" style="fill:#000000; stroke:none; fill-opacity:1" cx="1989.47" cy="1334.7" r="18"/>
<circle clip-path="url(#clip8802)" style="fill:#009af9; stroke:none; fill-opacity:1" cx="1989.47" cy="1334.7" r="14"/>
<circle clip-path="url(#clip8802)" style="fill:#000000; stroke:none; fill-opacity:1" cx="1998.43" cy="1334.7" r="18"/>
<circle clip-path="url(#clip8802)" style="fill:#009af9; stroke:none; fill-opacity:1" cx="1998.43" cy="1334.7" r="14"/>
<circle clip-path="url(#clip8802)" style="fill:#000000; stroke:none; fill-opacity:1" cx="2007.21" cy="1395.31" r="18"/>
<circle clip-path="url(#clip8802)" style="fill:#009af9; stroke:none; fill-opacity:1" cx="2007.21" cy="1395.31" r="14"/>
<circle clip-path="url(#clip8802)" style="fill:#000000; stroke:none; fill-opacity:1" cx="2015.81" cy="1395.31" r="18"/>
<circle clip-path="url(#clip8802)" style="fill:#009af9; stroke:none; fill-opacity:1" cx="2015.81" cy="1395.31" r="14"/>
<circle clip-path="url(#clip8802)" style="fill:#000000; stroke:none; fill-opacity:1" cx="2024.25" cy="1395.31" r="18"/>
<circle clip-path="url(#clip8802)" style="fill:#009af9; stroke:none; fill-opacity:1" cx="2024.25" cy="1395.31" r="14"/>
<circle clip-path="url(#clip8802)" style="fill:#000000; stroke:none; fill-opacity:1" cx="2048.59" cy="1395.31" r="18"/>
<circle clip-path="url(#clip8802)" style="fill:#009af9; stroke:none; fill-opacity:1" cx="2048.59" cy="1395.31" r="14"/>
<circle clip-path="url(#clip8802)" style="fill:#000000; stroke:none; fill-opacity:1" cx="2100.49" cy="1334.7" r="18"/>
<circle clip-path="url(#clip8802)" style="fill:#009af9; stroke:none; fill-opacity:1" cx="2100.49" cy="1334.7" r="14"/>
<circle clip-path="url(#clip8802)" style="fill:#000000; stroke:none; fill-opacity:1" cx="2114.23" cy="1395.31" r="18"/>
<circle clip-path="url(#clip8802)" style="fill:#009af9; stroke:none; fill-opacity:1" cx="2114.23" cy="1395.31" r="14"/>
<circle clip-path="url(#clip8802)" style="fill:#000000; stroke:none; fill-opacity:1" cx="2146.75" cy="1395.31" r="18"/>
<circle clip-path="url(#clip8802)" style="fill:#009af9; stroke:none; fill-opacity:1" cx="2146.75" cy="1395.31" r="14"/>
<circle clip-path="url(#clip8802)" style="fill:#000000; stroke:none; fill-opacity:1" cx="2152.97" cy="1274.09" r="18"/>
<circle clip-path="url(#clip8802)" style="fill:#009af9; stroke:none; fill-opacity:1" cx="2152.97" cy="1274.09" r="14"/>
<circle clip-path="url(#clip8802)" style="fill:#000000; stroke:none; fill-opacity:1" cx="2165.13" cy="1274.09" r="18"/>
<circle clip-path="url(#clip8802)" style="fill:#009af9; stroke:none; fill-opacity:1" cx="2165.13" cy="1274.09" r="14"/>
<circle clip-path="url(#clip8802)" style="fill:#000000; stroke:none; fill-opacity:1" cx="2171.09" cy="1299.25" r="18"/>
<circle clip-path="url(#clip8802)" style="fill:#009af9; stroke:none; fill-opacity:1" cx="2171.09" cy="1299.25" r="14"/>
<circle clip-path="url(#clip8802)" style="fill:#000000; stroke:none; fill-opacity:1" cx="2176.96" cy="1395.31" r="18"/>
<circle clip-path="url(#clip8802)" style="fill:#009af9; stroke:none; fill-opacity:1" cx="2176.96" cy="1395.31" r="14"/>
<circle clip-path="url(#clip8802)" style="fill:#000000; stroke:none; fill-opacity:1" cx="2182.76" cy="1299.25" r="18"/>
<circle clip-path="url(#clip8802)" style="fill:#009af9; stroke:none; fill-opacity:1" cx="2182.76" cy="1299.25" r="14"/>
<circle clip-path="url(#clip8802)" style="fill:#000000; stroke:none; fill-opacity:1" cx="2205.17" cy="1395.31" r="18"/>
<circle clip-path="url(#clip8802)" style="fill:#009af9; stroke:none; fill-opacity:1" cx="2205.17" cy="1395.31" r="14"/>
<polyline clip-path="url(#clip8802)" style="stroke:#e26f46; stroke-width:4; stroke-opacity:1; fill:none" points="
  349.955,78.1439 368.694,91.9416 387.434,105.739 406.173,119.537 424.913,133.335 443.653,147.132 462.392,160.93 481.132,174.728 499.871,188.526 518.611,202.323 
  537.35,216.121 556.09,229.919 574.83,243.716 593.569,257.514 612.309,271.312 631.048,285.11 649.788,298.907 668.528,312.705 687.267,326.503 706.007,340.3 
  724.746,354.098 743.486,367.896 762.226,381.694 780.965,395.491 799.705,409.289 818.444,423.087 837.184,436.884 855.924,450.682 874.663,464.48 893.403,478.278 
  912.142,492.075 930.882,505.873 949.622,519.671 968.361,533.468 987.101,547.266 1005.84,561.064 1024.58,574.862 1043.32,588.659 1062.06,602.457 1080.8,616.255 
  1099.54,630.052 1118.28,643.85 1137.02,657.648 1155.76,671.446 1174.5,685.243 1193.24,699.041 1211.98,712.839 1230.72,726.636 1249.46,740.434 1268.19,754.232 
  1286.93,768.03 1305.67,781.827 1324.41,795.625 1343.15,809.423 1361.89,823.22 1380.63,837.018 1399.37,850.816 1418.11,864.614 1436.85,878.411 1455.59,892.209 
  1474.33,906.007 1493.07,919.804 1511.81,933.602 1530.55,947.4 1549.29,961.198 1568.03,974.995 1586.77,988.793 1605.51,1002.59 1624.25,1016.39 1642.99,1030.19 
  1661.73,1043.98 1680.47,1057.78 1699.21,1071.58 1717.94,1085.38 1736.68,1099.17 1755.42,1112.97 1774.16,1126.77 1792.9,1140.57 1811.64,1154.37 1830.38,1168.16 
  1849.12,1181.96 1867.86,1195.76 1886.6,1209.56 1905.34,1223.35 1924.08,1237.15 1942.82,1250.95 1961.56,1264.75 1980.3,1278.55 1999.04,1292.34 2017.78,1306.14 
  2036.52,1319.94 2055.26,1333.74 2074,1347.53 2092.74,1361.33 2111.48,1375.13 2130.22,1388.93 2148.96,1402.72 2167.7,1416.52 2186.43,1430.32 2205.17,1444.12 
  
  "/>
<g clip-path="url(#clip8800)">
<text style="fill:#000000; fill-opacity:1; font-family:Arial,Helvetica Neue,Helvetica,sans-serif; font-size:59px; text-anchor:start;" transform="rotate(0, 349.955, 1356.2)" x="349.955" y="1356.2">r = -0.98</text>
</g>
</svg>
