<?xml version="1.0" encoding="utf-8"?>
<svg xmlns="http://www.w3.org/2000/svg" xmlns:xlink="http://www.w3.org/1999/xlink" width="600" height="400" viewBox="0 0 2400 1600">
<defs>
  <clipPath id="clip0900">
    <rect x="0" y="0" width="2400" height="1600"/>
  </clipPath>
</defs>
<polygon clip-path="url(#clip0900)" points="
0,1600 2400,1600 2400,0 0,0 
  " fill="#ffffff" fill-rule="evenodd" fill-opacity="1"/>
<defs>
  <clipPath id="clip0901">
    <rect x="480" y="0" width="1681" height="1600"/>
  </clipPath>
</defs>
<polygon clip-path="url(#clip0900)" points="
270.627,1425.62 2352.76,1425.62 2352.76,109.1 270.627,109.1 
  " fill="#ffffff" fill-rule="evenodd" fill-opacity="1"/>
<defs>
  <clipPath id="clip0902">
    <rect x="270" y="109" width="2083" height="1318"/>
  </clipPath>
</defs>
<polyline clip-path="url(#clip0902)" style="stroke:#000000; stroke-width:2; stroke-opacity:0.1; fill:none" points="
  313.29,1425.62 313.29,109.1 
  "/>
<polyline clip-path="url(#clip0902)" style="stroke:#000000; stroke-width:2; stroke-opacity:0.1; fill:none" points="
  739.927,1425.62 739.927,109.1 
  "/>
<polyline clip-path="url(#clip0902)" style="stroke:#000000; stroke-width:2; stroke-opacity:0.1; fill:none" points="
  1166.56,1425.62 1166.56,109.1 
  "/>
<polyline clip-path="url(#clip0902)" style="stroke:#000000; stroke-width:2; stroke-opacity:0.1; fill:none" points="
  1593.2,1425.62 1593.2,109.1 
  "/>
<polyline clip-path="url(#clip0902)" style="stroke:#000000; stroke-width:2; stroke-opacity:0.1; fill:none" points="
  2019.84,1425.62 2019.84,109.1 
  "/>
<polyline clip-path="url(#clip0902)" style="stroke:#000000; stroke-width:2; stroke-opacity:0.1; fill:none" points="
  270.627,1425.62 2352.76,1425.62 
  "/>
<polyline clip-path="url(#clip0902)" style="stroke:#000000; stroke-width:2; stroke-opacity:0.1; fill:none" points="
  270.627,1096.49 2352.76,1096.49 
  "/>
<polyline clip-path="url(#clip0902)" style="stroke:#000000; stroke-width:2; stroke-opacity:0.1; fill:none" points="
  270.627,767.359 2352.76,767.359 
  "/>
<polyline clip-path="url(#clip0902)" style="stroke:#000000; stroke-width:2; stroke-opacity:0.1; fill:none" points="
  270.627,438.23 2352.76,438.23 
  "/>
<polyline clip-path="url(#clip0902)" style="stroke:#000000; stroke-width:2; stroke-opacity:0.1; fill:none" points="
  270.627,109.1 2352.76,109.1 
  "/>
<polyline clip-path="url(#clip0900)" style="stroke:#000000; stroke-width:4; stroke-opacity:1; fill:none" points="
  270.627,1425.62 2352.76,1425.62 
  "/>
<polyline clip-path="url(#clip0900)" style="stroke:#000000; stroke-width:4; stroke-opacity:1; fill:none" points="
  270.627,1425.62 270.627,109.1 
  "/>
<polyline clip-path="url(#clip0900)" style="stroke:#000000; stroke-width:4; stroke-opacity:1; fill:none" points="
  313.29,1425.62 313.29,1405.87 
  "/>
<polyline clip-path="url(#clip0900)" style="stroke:#000000; stroke-width:4; stroke-opacity:1; fill:none" points="
  739.927,1425.62 739.927,1405.87 
  "/>
<polyline clip-path="url(#clip0900)" style="stroke:#000000; stroke-width:4; stroke-opacity:1; fill:none" points="
  1166.56,1425.62 1166.56,1405.87 
  "/>
<polyline clip-path="url(#clip0900)" style="stroke:#000000; stroke-width:4; stroke-opacity:1; fill:none" points="
  1593.2,1425.62 1593.2,1405.87 
  "/>
<polyline clip-path="url(#clip0900)" style="stroke:#000000; stroke-width:4; stroke-opacity:1; fill:none" points="
  2019.84,1425.62 2019.84,1405.87 
  "/>
<polyline clip-path="url(#clip0900)" style="stroke:#000000; stroke-width:4; stroke-opacity:1; fill:none" points="
  270.627,1425.62 301.858,1425.62 
  "/>
<polyline clip-path="url(#clip0900)" style="stroke:#000000; stroke-width:4; stroke-opacity:1; fill:none" points="
  270.627,1096.49 301.858,1096.49 
  "/>
<polyline clip-path="url(#clip0900)" style="stroke:#000000; stroke-width:4; stroke-opacity:1; fill:none" points="
  270.627,767.359 301.858,767.359 
  "/>
<polyline clip-path="url(#clip0900)" style="stroke:#000000; stroke-width:4; stroke-opacity:1; fill:none" points="
  270.627,438.23 301.858,438.23 
  "/>
<polyline clip-path="url(#clip0900)" style="stroke:#000000; stroke-width:4; stroke-opacity:1; fill:none" points="
  270.627,109.1 301.858,109.1 
  "/>
<g clip-path="url(#clip0900)">
<text style="fill:#000000; fill-opacity:1; font-family:Arial,Helvetica Neue,Helvetica,sans-serif; font-size:48px; text-anchor:middle;" transform="rotate(0, 313.29, 1479.62)" x="313.29" y="1479.62">0</text>
</g>
<g clip-path="url(#clip0900)">
<text style="fill:#000000; fill-opacity:1; font-family:Arial,Helvetica Neue,Helvetica,sans-serif; font-size:48px; text-anchor:middle;" transform="rotate(0, 739.927, 1479.62)" x="739.927" y="1479.62">5</text>
</g>
<g clip-path="url(#clip0900)">
<text style="fill:#000000; fill-opacity:1; font-family:Arial,Helvetica Neue,Helvetica,sans-serif; font-size:48px; text-anchor:middle;" transform="rotate(0, 1166.56, 1479.62)" x="1166.56" y="1479.62">10</text>
</g>
<g clip-path="url(#clip0900)">
<text style="fill:#000000; fill-opacity:1; font-family:Arial,Helvetica Neue,Helvetica,sans-serif; font-size:48px; text-anchor:middle;" transform="rotate(0, 1593.2, 1479.62)" x="1593.2" y="1479.62">15</text>
</g>
<g clip-path="url(#clip0900)">
<text style="fill:#000000; fill-opacity:1; font-family:Arial,Helvetica Neue,Helvetica,sans-serif; font-size:48px; text-anchor:middle;" transform="rotate(0, 2019.84, 1479.62)" x="2019.84" y="1479.62">20</text>
</g>
<g clip-path="url(#clip0900)">
<text style="fill:#000000; fill-opacity:1; font-family:Arial,Helvetica Neue,Helvetica,sans-serif; font-size:48px; text-anchor:end;" transform="rotate(0, 246.627, 1443.12)" x="246.627" y="1443.12">-0.50</text>
</g>
<g clip-path="url(#clip0900)">
<text style="fill:#000000; fill-opacity:1; font-family:Arial,Helvetica Neue,Helvetica,sans-serif; font-size:48px; text-anchor:end;" transform="rotate(0, 246.627, 1113.99)" x="246.627" y="1113.99">-0.25</text>
</g>
<g clip-path="url(#clip0900)">
<text style="fill:#000000; fill-opacity:1; font-family:Arial,Helvetica Neue,Helvetica,sans-serif; font-size:48px; text-anchor:end;" transform="rotate(0, 246.627, 784.859)" x="246.627" y="784.859">0.00</text>
</g>
<g clip-path="url(#clip0900)">
<text style="fill:#000000; fill-opacity:1; font-family:Arial,Helvetica Neue,Helvetica,sans-serif; font-size:48px; text-anchor:end;" transform="rotate(0, 246.627, 455.73)" x="246.627" y="455.73">0.25</text>
</g>
<g clip-path="url(#clip0900)">
<text style="fill:#000000; fill-opacity:1; font-family:Arial,Helvetica Neue,Helvetica,sans-serif; font-size:48px; text-anchor:end;" transform="rotate(0, 246.627, 126.6)" x="246.627" y="126.6">0.50</text>
</g>
<g clip-path="url(#clip0900)">
<text style="fill:#000000; fill-opacity:1; font-family:Arial,Helvetica Neue,Helvetica,sans-serif; font-size:66px; text-anchor:middle;" transform="rotate(0, 1311.69, 57.6)" x="1311.69" y="57.6">GCF_000001215.4_Release_6_plus_ISO1_MT_genomic.fna.K3.jf.histogram</text>
</g>
<g clip-path="url(#clip0900)">
<text style="fill:#000000; fill-opacity:1; font-family:Arial,Helvetica Neue,Helvetica,sans-serif; font-size:66px; text-anchor:middle;" transform="rotate(0, 1311.69, 1559.48)" x="1311.69" y="1559.48">log2(depth of coverage)</text>
</g>
<g clip-path="url(#clip0900)">
<text style="fill:#000000; fill-opacity:1; font-family:Arial,Helvetica Neue,Helvetica,sans-serif; font-size:66px; text-anchor:middle;" transform="rotate(-90, 89.2861, 767.359)" x="89.2861" y="767.359">log2(# kmers)</text>
</g>
<circle clip-path="url(#clip0902)" style="fill:#000000; stroke:none; fill-opacity:1" cx="2134.58" cy="767.359" r="18"/>
<circle clip-path="url(#clip0902)" style="fill:#009af9; stroke:none; fill-opacity:1" cx="2134.58" cy="767.359" r="14"/>
<circle clip-path="url(#clip0902)" style="fill:#000000; stroke:none; fill-opacity:1" cx="2134.68" cy="767.359" r="18"/>
<circle clip-path="url(#clip0902)" style="fill:#009af9; stroke:none; fill-opacity:1" cx="2134.68" cy="767.359" r="14"/>
<circle clip-path="url(#clip0902)" style="fill:#000000; stroke:none; fill-opacity:1" cx="2141.28" cy="767.359" r="18"/>
<circle clip-path="url(#clip0902)" style="fill:#009af9; stroke:none; fill-opacity:1" cx="2141.28" cy="767.359" r="14"/>
<circle clip-path="url(#clip0902)" style="fill:#000000; stroke:none; fill-opacity:1" cx="2143.34" cy="767.359" r="18"/>
<circle clip-path="url(#clip0902)" style="fill:#009af9; stroke:none; fill-opacity:1" cx="2143.34" cy="767.359" r="14"/>
<circle clip-path="url(#clip0902)" style="fill:#000000; stroke:none; fill-opacity:1" cx="2145.17" cy="767.359" r="18"/>
<circle clip-path="url(#clip0902)" style="fill:#009af9; stroke:none; fill-opacity:1" cx="2145.17" cy="767.359" r="14"/>
<circle clip-path="url(#clip0902)" style="fill:#000000; stroke:none; fill-opacity:1" cx="2147.45" cy="767.359" r="18"/>
<circle clip-path="url(#clip0902)" style="fill:#009af9; stroke:none; fill-opacity:1" cx="2147.45" cy="767.359" r="14"/>
<circle clip-path="url(#clip0902)" style="fill:#000000; stroke:none; fill-opacity:1" cx="2147.53" cy="767.359" r="18"/>
<circle clip-path="url(#clip0902)" style="fill:#009af9; stroke:none; fill-opacity:1" cx="2147.53" cy="767.359" r="14"/>
<circle clip-path="url(#clip0902)" style="fill:#000000; stroke:none; fill-opacity:1" cx="2151.32" cy="767.359" r="18"/>
<circle clip-path="url(#clip0902)" style="fill:#009af9; stroke:none; fill-opacity:1" cx="2151.32" cy="767.359" r="14"/>
<circle clip-path="url(#clip0902)" style="fill:#000000; stroke:none; fill-opacity:1" cx="2159.76" cy="767.359" r="18"/>
<circle clip-path="url(#clip0902)" style="fill:#009af9; stroke:none; fill-opacity:1" cx="2159.76" cy="767.359" r="14"/>
<circle clip-path="url(#clip0902)" style="fill:#000000; stroke:none; fill-opacity:1" cx="2165.54" cy="767.359" r="18"/>
<circle clip-path="url(#clip0902)" style="fill:#009af9; stroke:none; fill-opacity:1" cx="2165.54" cy="767.359" r="14"/>
<circle clip-path="url(#clip0902)" style="fill:#000000; stroke:none; fill-opacity:1" cx="2168.29" cy="767.359" r="18"/>
<circle clip-path="url(#clip0902)" style="fill:#009af9; stroke:none; fill-opacity:1" cx="2168.29" cy="767.359" r="14"/>
<circle clip-path="url(#clip0902)" style="fill:#000000; stroke:none; fill-opacity:1" cx="2175.09" cy="767.359" r="18"/>
<circle clip-path="url(#clip0902)" style="fill:#009af9; stroke:none; fill-opacity:1" cx="2175.09" cy="767.359" r="14"/>
<circle clip-path="url(#clip0902)" style="fill:#000000; stroke:none; fill-opacity:1" cx="2176.5" cy="767.359" r="18"/>
<circle clip-path="url(#clip0902)" style="fill:#009af9; stroke:none; fill-opacity:1" cx="2176.5" cy="767.359" r="14"/>
<circle clip-path="url(#clip0902)" style="fill:#000000; stroke:none; fill-opacity:1" cx="2183.07" cy="767.359" r="18"/>
<circle clip-path="url(#clip0902)" style="fill:#009af9; stroke:none; fill-opacity:1" cx="2183.07" cy="767.359" r="14"/>
<circle clip-path="url(#clip0902)" style="fill:#000000; stroke:none; fill-opacity:1" cx="2188.37" cy="767.359" r="18"/>
<circle clip-path="url(#clip0902)" style="fill:#009af9; stroke:none; fill-opacity:1" cx="2188.37" cy="767.359" r="14"/>
<circle clip-path="url(#clip0902)" style="fill:#000000; stroke:none; fill-opacity:1" cx="2188.95" cy="767.359" r="18"/>
<circle clip-path="url(#clip0902)" style="fill:#009af9; stroke:none; fill-opacity:1" cx="2188.95" cy="767.359" r="14"/>
<circle clip-path="url(#clip0902)" style="fill:#000000; stroke:none; fill-opacity:1" cx="2189.47" cy="767.359" r="18"/>
<circle clip-path="url(#clip0902)" style="fill:#009af9; stroke:none; fill-opacity:1" cx="2189.47" cy="767.359" r="14"/>
<circle clip-path="url(#clip0902)" style="fill:#000000; stroke:none; fill-opacity:1" cx="2189.47" cy="767.359" r="18"/>
<circle clip-path="url(#clip0902)" style="fill:#009af9; stroke:none; fill-opacity:1" cx="2189.47" cy="767.359" r="14"/>
<circle clip-path="url(#clip0902)" style="fill:#000000; stroke:none; fill-opacity:1" cx="2192.35" cy="767.359" r="18"/>
<circle clip-path="url(#clip0902)" style="fill:#009af9; stroke:none; fill-opacity:1" cx="2192.35" cy="767.359" r="14"/>
<circle clip-path="url(#clip0902)" style="fill:#000000; stroke:none; fill-opacity:1" cx="2198.56" cy="767.359" r="18"/>
<circle clip-path="url(#clip0902)" style="fill:#009af9; stroke:none; fill-opacity:1" cx="2198.56" cy="767.359" r="14"/>
<circle clip-path="url(#clip0902)" style="fill:#000000; stroke:none; fill-opacity:1" cx="2204.22" cy="767.359" r="18"/>
<circle clip-path="url(#clip0902)" style="fill:#009af9; stroke:none; fill-opacity:1" cx="2204.22" cy="767.359" r="14"/>
<circle clip-path="url(#clip0902)" style="fill:#000000; stroke:none; fill-opacity:1" cx="2209.09" cy="767.359" r="18"/>
<circle clip-path="url(#clip0902)" style="fill:#009af9; stroke:none; fill-opacity:1" cx="2209.09" cy="767.359" r="14"/>
<circle clip-path="url(#clip0902)" style="fill:#000000; stroke:none; fill-opacity:1" cx="2209.27" cy="767.359" r="18"/>
<circle clip-path="url(#clip0902)" style="fill:#009af9; stroke:none; fill-opacity:1" cx="2209.27" cy="767.359" r="14"/>
<circle clip-path="url(#clip0902)" style="fill:#000000; stroke:none; fill-opacity:1" cx="2211.3" cy="767.359" r="18"/>
<circle clip-path="url(#clip0902)" style="fill:#009af9; stroke:none; fill-opacity:1" cx="2211.3" cy="767.359" r="14"/>
<circle clip-path="url(#clip0902)" style="fill:#000000; stroke:none; fill-opacity:1" cx="2211.38" cy="767.359" r="18"/>
<circle clip-path="url(#clip0902)" style="fill:#009af9; stroke:none; fill-opacity:1" cx="2211.38" cy="767.359" r="14"/>
<circle clip-path="url(#clip0902)" style="fill:#000000; stroke:none; fill-opacity:1" cx="2217.86" cy="767.359" r="18"/>
<circle clip-path="url(#clip0902)" style="fill:#009af9; stroke:none; fill-opacity:1" cx="2217.86" cy="767.359" r="14"/>
<circle clip-path="url(#clip0902)" style="fill:#000000; stroke:none; fill-opacity:1" cx="2222.37" cy="767.359" r="18"/>
<circle clip-path="url(#clip0902)" style="fill:#009af9; stroke:none; fill-opacity:1" cx="2222.37" cy="767.359" r="14"/>
<circle clip-path="url(#clip0902)" style="fill:#000000; stroke:none; fill-opacity:1" cx="2236.82" cy="767.359" r="18"/>
<circle clip-path="url(#clip0902)" style="fill:#009af9; stroke:none; fill-opacity:1" cx="2236.82" cy="767.359" r="14"/>
<circle clip-path="url(#clip0902)" style="fill:#000000; stroke:none; fill-opacity:1" cx="2238.43" cy="767.359" r="18"/>
<circle clip-path="url(#clip0902)" style="fill:#009af9; stroke:none; fill-opacity:1" cx="2238.43" cy="767.359" r="14"/>
<circle clip-path="url(#clip0902)" style="fill:#000000; stroke:none; fill-opacity:1" cx="2240.34" cy="767.359" r="18"/>
<circle clip-path="url(#clip0902)" style="fill:#009af9; stroke:none; fill-opacity:1" cx="2240.34" cy="767.359" r="14"/>
<circle clip-path="url(#clip0902)" style="fill:#000000; stroke:none; fill-opacity:1" cx="2270.86" cy="767.359" r="18"/>
<circle clip-path="url(#clip0902)" style="fill:#009af9; stroke:none; fill-opacity:1" cx="2270.86" cy="767.359" r="14"/>
<circle clip-path="url(#clip0902)" style="fill:#000000; stroke:none; fill-opacity:1" cx="2310.09" cy="767.359" r="18"/>
<circle clip-path="url(#clip0902)" style="fill:#009af9; stroke:none; fill-opacity:1" cx="2310.09" cy="767.359" r="14"/>
<polyline clip-path="url(#clip0902)" style="stroke:#e26f46; stroke-width:4; stroke-opacity:1; fill:none" points="
  2134.58,767.359 2136.36,767.359 2138.13,767.359 2139.9,767.359 2141.67,767.359 2143.45,767.359 2145.22,767.359 2146.99,767.359 2148.77,767.359 2150.54,767.359 
  2152.31,767.359 2154.08,767.359 2155.86,767.359 2157.63,767.359 2159.4,767.359 2161.18,767.359 2162.95,767.359 2164.72,767.359 2166.49,767.359 2168.27,767.359 
  2170.04,767.359 2171.81,767.359 2173.58,767.359 2175.36,767.359 2177.13,767.359 2178.9,767.359 2180.68,767.359 2182.45,767.359 2184.22,767.359 2185.99,767.359 
  2187.77,767.359 2189.54,767.359 2191.31,767.359 2193.09,767.359 2194.86,767.359 2196.63,767.359 2198.4,767.359 2200.18,767.359 2201.95,767.359 2203.72,767.359 
  2205.5,767.359 2207.27,767.359 2209.04,767.359 2210.81,767.359 2212.59,767.359 2214.36,767.359 2216.13,767.359 2217.91,767.359 2219.68,767.359 2221.45,767.359 
  2223.22,767.359 2225,767.359 2226.77,767.359 2228.54,767.359 2230.32,767.359 2232.09,767.359 2233.86,767.359 2235.63,767.359 2237.41,767.359 2239.18,767.359 
  2240.95,767.359 2242.72,767.359 2244.5,767.359 2246.27,767.359 2248.04,767.359 2249.82,767.359 2251.59,767.359 2253.36,767.359 2255.13,767.359 2256.91,767.359 
  2258.68,767.359 2260.45,767.359 2262.23,767.359 2264,767.359 2265.77,767.359 2267.54,767.359 2269.32,767.359 2271.09,767.359 2272.86,767.359 2274.64,767.359 
  2276.41,767.359 2278.18,767.359 2279.95,767.359 2281.73,767.359 2283.5,767.359 2285.27,767.359 2287.05,767.359 2288.82,767.359 2290.59,767.359 2292.36,767.359 
  2294.14,767.359 2295.91,767.359 2297.68,767.359 2299.46,767.359 2301.23,767.359 2303,767.359 2304.77,767.359 2306.55,767.359 2308.32,767.359 2310.09,767.359 
  
  "/>
<g clip-path="url(#clip0900)">
<text style="fill:#000000; fill-opacity:1; font-family:Arial,Helvetica Neue,Helvetica,sans-serif; font-size:59px; text-anchor:start;" transform="rotate(0, 313.29, -527.659)" x="313.29" y="-527.659">r = NaN</text>
</g>
</svg>
